999
DXF generated by OpenJsCad
  0
SECTION
  2
HEADER
  0
ENDSEC
  0
SECTION
  2
TABLES
  0
TABLE
  2
LTYPE
  70
1
  0
LTYPE
  2
CONTINUOUS
  3
Solid Line
  72
65
  73
0
  40
0.0
  0
ENDTAB
  0
TABLE
  2
LAYER
  70
1
  0
LAYER
  2
OpenJsCad
  62
7
  6
continuous
  0
ENDTAB
  0
TABLE
  2
STYLE
  70
0
  0
ENDTAB
  0
TABLE
  2
VIEW
  70
0
  0
ENDTAB
  0
ENDSEC
  0
SECTION
  2
BLOCKS
  0
ENDSEC
  0
SECTION
  2
ENTITIES
  0
LWPOLYLINE
  8
OpenJsCad
  90
31
  70
1
 10
9.842105263148088
 20
0
 30
0.0
 10
9.627031649317864
 20
2.046288746467487
 30
0.0
 10
8.991210556789271
 20
4.003144855531518
 30
0.0
 10
7.962430418313918
 20
5.785044325188577
 30
0.0
 10
6.58565386257799
 20
7.31410959811233
 30
0.0
 10
4.921052631574045
 20
8.523513184606772
 30
0.0
 10
3.0413777867398735
 20
9.360398344579815
 30
0.0
 10
1.0287801384753537
 20
9.788189180720096
 30
0.0
 10
-1.0287801384753525
 20
9.788189180720096
 30
0.0
 10
-3.0413777867398726
 20
9.360398344579817
 30
0.0
 10
-4.921052631574042
 20
8.523513184606772
 30
0.0
 10
-6.5856538625779875
 20
7.314109598112331
 30
0.0
 10
-7.962430418313916
 20
5.7850443251885775
 30
0.0
 10
-8.991210556789271
 20
4.003144855531517
 30
0.0
 10
-9.627031649317864
 20
2.046288746467487
 30
0.0
 10
-9.842105263148088
 20
5.57608302031114e-15
 30
0.0
 10
-9.627031649317864
 20
-2.0462887464674844
 30
0.0
 10
-8.991210556789271
 20
-4.003144855531518
 30
0.0
 10
-7.962430418313918
 20
-5.785044325188576
 30
0.0
 10
-6.585653862577993
 20
-7.314109598112327
 30
0.0
 10
-4.921052631574049
 20
-8.52351318460677
 30
0.0
 10
-3.041377786739875
 20
-9.360398344579815
 30
0.0
 10
-1.0287801384753614
 20
-9.788189180720096
 30
0.0
 10
1.028780138475349
 20
-9.788189180720096
 30
0.0
 10
3.0413777867398712
 20
-9.360398344579817
 30
0.0
 10
4.921052631574045
 20
-8.523513184606772
 30
0.0
 10
6.585653862577993
 20
-7.314109598112327
 30
0.0
 10
7.962430418313916
 20
-5.785044325188579
 30
0.0
 10
8.991210556789271
 20
-4.003144855531518
 30
0.0
 10
9.627031649317864
 20
-2.046288746467484
 30
0.0
 10
9.842105263148088
 20
0
 30
0.0
  0
LWPOLYLINE
  8
OpenJsCad
  90
1996
  70
1
 10
-6.9405224310422495
 20
0.9788587037954102
 30
0.0
 10
-6.922698937295784
 20
1.1551941375744081
 30
0.0
 10
-6.882300683238518
 20
1.327762510124186
 30
0.0
 10
-6.855172799914604
 20
1.4054799815517676
 30
0.0
 10
-6.815797852353439
 20
1.4345182228425517
 30
0.0
 10
-6.793296524591331
 20
1.4733818062992117
 30
0.0
 10
-6.75063213732763
 20
1.497326659861493
 30
0.0
 10
-6.697972823859956
 20
1.5280863946464183
 30
0.0
 10
-6.652674272413835
 20
1.5465700952929184
 30
0.0
 10
-6.570938861102813
 20
1.5664045371505508
 30
0.0
 10
-6.543626006296112
 20
1.5739119462115587
 30
0.0
 10
-6.523701878701991
 20
1.5791431966707101
 30
0.0
 10
-6.5102914850379126
 20
1.5805745191168024
 30
0.0
 10
-6.492522683911332
 20
1.584125970539692
 30
0.0
 10
-6.437784792874365
 20
1.5969621180069709
 30
0.0
 10
-6.4309132316181765
 20
1.5974664337686515
 30
0.0
 10
-6.400876144923922
 20
1.6024433701757792
 30
0.0
 10
-6.35785592812984
 20
1.6110418236706407
 30
0.0
 10
-6.342332181864748
 20
1.6130623423953536
 30
0.0
 10
-6.284061456637322
 20
1.6217987517724868
 30
0.0
 10
-6.275636457057685
 20
1.621858752175137
 30
0.0
 10
-6.25441119816001
 20
1.6246581231316637
 30
0.0
 10
-6.250516215399617
 20
1.6256740378242038
 30
0.0
 10
-6.216526532674966
 20
1.6296546809011754
 30
0.0
 10
-6.21140468972701
 20
1.6295217504746353
 30
0.0
 10
-6.165545689833705
 20
1.6340332659676287
 30
0.0
 10
-6.164839814232436
 20
1.634192650380463
 30
0.0
 10
-6.15535510715831
 20
1.63503579484374
 30
0.0
 10
-6.100629781054804
 20
1.6383717411403516
 30
0.0
 10
-6.097848915900526
 20
1.6381149344116455
 30
0.0
 10
-6.0854661265742
 20
1.6390391088405882
 30
0.0
 10
-6.0826748517521345
 20
1.6391282467668162
 30
0.0
 10
-6.045207168272852
 20
1.6355043596231797
 30
0.0
 10
-6.042448354527857
 20
1.6359380731491486
 30
0.0
 10
-5.979740463528094
 20
1.630070872840222
 30
0.0
 10
-5.977056483040519
 20
1.6308425006290515
 30
0.0
 10
-5.8892667685365065
 20
1.6250457987424558
 30
0.0
 10
-5.886698844134633
 20
1.626143489485992
 30
0.0
 10
-5.774297834899036
 20
1.6227021917451725
 30
0.0
 10
-5.771885406924236
 20
1.6241090861863388
 30
0.0
 10
-5.685078197379938
 20
1.6153682775691967
 30
0.0
 10
-5.659376460733418
 20
1.617980725804064
 30
0.0
 10
-5.640785976854577
 20
1.62224163930326
 30
0.0
 10
-5.637642038244509
 20
1.62315259487257
 30
0.0
 10
-5.635649509592453
 20
1.6252416977907564
 30
0.0
 10
-5.63342963014127
 20
1.626936187662194
 30
0.0
 10
-5.626623714357839
 20
1.6270972204038916
 30
0.0
 10
-5.619319188586835
 20
1.6302376367175846
 30
0.0
 10
-5.611378368653755
 20
1.6349496249086897
 30
0.0
 10
-5.603012323096673
 20
1.6414365756082325
 30
0.0
 10
-5.597725235977797
 20
1.6479470654401913
 30
0.0
 10
-5.590924049747211
 20
1.6588420867806866
 30
0.0
 10
-5.556309569142973
 20
1.7716900929122983
 30
0.0
 10
-5.536522175691337
 20
1.8325894279820067
 30
0.0
 10
-5.494693653816737
 20
1.9544317496857182
 30
0.0
 10
-5.472903541770624
 20
2.0146435505935156
 30
0.0
 10
-5.4309065506594285
 20
2.1249571376668275
 30
0.0
 10
-5.429581781613569
 20
2.137732215401622
 30
0.0
 10
-5.429755210615153
 20
2.1461173027854943
 30
0.0
 10
-5.432372828481422
 20
2.1563749499009504
 30
0.0
 10
-5.435745088119485
 20
2.164970723214603
 30
0.0
 10
-5.439580501683906
 20
2.1719354855321016
 30
0.0
 10
-5.444852417175769
 20
2.176242842988159
 30
0.0
 10
-5.445563436756113
 20
2.1789435117680265
 30
0.0
 10
-5.44585266826117
 20
2.181815943938233
 30
0.0
 10
-5.447774157085646
 20
2.1844658629418783
 30
0.0
 10
-5.459827553764823
 20
2.199246833924539
 30
0.0
 10
-5.478505236397251
 20
2.2170947560417953
 30
0.0
 10
-5.552377037728602
 20
2.2635151215323064
 30
0.0
 10
-5.553416649918343
 20
2.2661071028588453
 30
0.0
 10
-5.64423052842373
 20
2.332429564198281
 30
0.0
 10
-5.645582765985036
 20
2.334873048243651
 30
0.0
 10
-5.718421593998889
 20
2.384220194655766
 30
0.0
 10
-5.720065688130702
 20
2.3864776523381863
 30
0.0
 10
-5.773154734195036
 20
2.4203635907356453
 30
0.0
 10
-5.775065433517777
 20
2.4224003501225786
 30
0.0
 10
-5.806858537897459
 20
2.4425537214840305
 30
0.0
 10
-5.809006496284938
 20
2.444338500312863
 30
0.0
 10
-5.818210617278625
 20
2.452673470415251
 30
0.0
 10
-5.82056284458051
 20
2.4541788565525753
 30
0.0
 10
-5.861699835674271
 20
2.4904243779115522
 30
0.0
 10
-5.868666732198255
 20
2.4969153650238702
 30
0.0
 10
-5.869125871297262
 20
2.4974746994885026
 30
0.0
 10
-5.902544035664189
 20
2.5292020998484928
 30
0.0
 10
-5.906667536975006
 20
2.53224310011498
 30
0.0
 10
-5.931045210932013
 20
2.556261282050239
 30
0.0
 10
-5.933494911892495
 20
2.559455329415381
 30
0.0
 10
-5.948525214282064
 20
2.574701250283051
 30
0.0
 10
-5.9551368697319145
 20
2.5799233408776177
 30
0.0
 10
-5.995754645818091
 20
2.6226082156361215
 30
0.0
 10
-6.00676403456655
 20
2.6337375711163116
 30
0.0
 10
-6.035431750915782
 20
2.666946523144728
 30
0.0
 10
-6.056078335199565
 20
2.6893231857767343
 30
0.0
 10
-6.061191205396928
 20
2.693941762052891
 30
0.0
 10
-6.096502967657057
 20
2.7376919945443845
 30
0.0
 10
-6.108343701819588
 20
2.75140841227346
 30
0.0
 10
-6.11804725026165
 20
2.7607747610656603
 30
0.0
 10
-6.130557085925285
 20
2.7771406051753402
 30
0.0
 10
-6.147499619995874
 20
2.79984090842811
 30
0.0
 10
-6.199817777775521
 20
2.865695998683387
 30
0.0
 10
-6.224211775823996
 20
2.9081051817917274
 30
0.0
 10
-6.246874353134477
 20
2.964722954342158
 30
0.0
 10
-6.265835315971393
 20
3.009823817316199
 30
0.0
 10
-6.259721518203921
 20
3.054313246926041
 30
0.0
 10
-6.272958227424847
 20
3.1014130928037815
 30
0.0
 10
-6.2466308801410095
 20
3.1794053886010527
 30
0.0
 10
-6.1725170906982365
 20
3.3403992032331433
 30
0.0
 10
-6.0782748665078445
 20
3.4905000537137525
 30
0.0
 10
-6.027382025008777
 20
3.555198168855414
 30
0.0
 10
-5.9807118191806135
 20
3.5698780135638275
 30
0.0
 10
-5.946810690502286
 20
3.5993296916906505
 30
0.0
 10
-5.898683096179827
 20
3.6081240431413866
 30
0.0
 10
-5.83888934000844
 20
3.6201186795194715
 30
0.0
 10
-5.790043541237779
 20
3.6228924666710673
 30
0.0
 10
-5.706296547219178
 20
3.6151127790916098
 30
0.0
 10
-5.678025926485722
 20
3.6133449465638106
 30
0.0
 10
-5.6574827588339955
 20
3.6118233997895524
 30
0.0
 10
-5.6443342276500115
 20
3.6088228215329448
 30
0.0
 10
-5.626375034788222
 20
3.606412325227572
 30
0.0
 10
-5.57043510340187
 20
3.6007796106540515
 30
0.0
 10
-5.563772111228236
 20
3.5990254089042186
 30
0.0
 10
-5.533746508132691
 20
3.5939796550628476
 30
0.0
 10
-5.490265332061388
 20
3.588143579072141
 30
0.0
 10
-5.4749266438306465
 20
3.5850140683468097
 30
0.0
 10
-5.416976479736637
 20
3.57435664141474
 30
0.0
 10
-5.408988487774002
 20
3.5716777979385173
 30
0.0
 10
-5.388004317685331
 20
3.5674336609573096
 30
0.0
 10
-5.383990508873
 20
3.56712983175475
 30
0.0
 10
-5.350549968217904
 20
3.559858360670876
 30
0.0
 10
-5.345748803287382
 20
3.5580695730949565
 30
0.0
 10
-5.300909683815265
 20
3.547446249310816
 30
0.0
 10
-5.3001903024668415
 20
3.547367800403476
 30
0.0
 10
-5.290945734423964
 20
3.545085581621557
 30
0.0
 10
-5.238102397445773
 20
3.530471492808418
 30
0.0
 10
-5.235555592244511
 20
3.5293256551370993
 30
0.0
 10
-5.2235436576527965
 20
3.526179070124801
 30
0.0
 10
-5.220874678762429
 20
3.5253570528591878
 30
0.0
 10
-5.186613771953137
 20
3.5097637809787066
 30
0.0
 10
-5.183863611794812
 20
3.5092782093508927
 30
0.0
 10
-5.126458484122577
 20
3.48336769121563
 30
0.0
 10
-5.123669381967584
 20
3.4832260230428083
 30
0.0
 10
-5.042518542371429
 20
3.4492381287523846
 30
0.0
 10
-5.039733335594977
 20
3.44944253989343
 30
0.0
 10
-4.934539910625215
 20
3.4096911531194687
 30
0.0
 10
-4.931801376774015
 20
3.410238504056264
 30
0.0
 10
-4.852535757201505
 20
3.3737850416975923
 30
0.0
 10
-4.82737835098439
 20
3.3679106000344166
 30
0.0
 10
-4.808411634448709
 20
3.365904325239633
 30
0.0
 10
-4.805142256314634
 20
3.3657450875256085
 30
0.0
 10
-4.802579357752287
 20
3.367074024089619
 30
0.0
 10
-4.799929557531034
 20
3.3679559081464143
 30
0.0
 10
-4.793440117791748
 20
3.365898338447658
 30
0.0
 10
-4.785511679864949
 20
3.3664968227026297
 30
0.0
 10
-4.77647113539445
 20
3.368375122359146
 30
0.0
 10
-4.76645207581281
 20
3.3717941416251085
 30
0.0
 10
-4.759337505064706
 20
3.3762351607789545
 30
0.0
 10
-4.749367218217568
 20
3.3843315182524574
 30
0.0
 10
-4.679986557957826
 20
3.4798258046642827
 30
0.0
 10
-4.641497318290901
 20
3.531000489630627
 30
0.0
 10
-4.56237304392319
 20
3.6326593594165333
 30
0.0
 10
-4.522212840456769
 20
3.6825334810536905
 30
0.0
 10
-4.446672598995483
 20
3.773233572979474
 30
0.0
 10
-4.441271548631102
 20
3.7848863099590995
 30
0.0
 10
-4.438712947348232
 20
3.792873382484691
 30
0.0
 10
-4.437858082884655
 20
3.8034251811175284
 30
0.0
 10
-4.43825658116148
 20
3.812650182637831
 30
0.0
 10
-4.439622726812132
 20
3.8204829316706155
 30
0.0
 10
-4.443210398701469
 20
3.8262686927806224
 30
0.0
 10
-4.443005987560424
 20
3.8290538995570755
 30
0.0
 10
-4.4423468705037585
 20
3.831864608745442
 30
0.0
 10
-4.443303820469763
 20
3.8349948542295893
 30
0.0
 10
-4.4499047574375865
 20
3.852888682937909
 30
0.0
 10
-4.4617752208684704
 20
3.8758341890416634
 30
0.0
 10
-4.516571776208089
 20
3.943725505770117
 30
0.0
 10
-4.516713444380912
 20
3.946514607925111
 30
0.0
 10
-4.581071908463751
 20
4.038730753519092
 30
0.0
 10
-4.581557480091568
 20
4.041480913677417
 30
0.0
 10
-4.6344267072455585
 20
4.111805024376311
 30
0.0
 10
-4.635248724511171
 20
4.114474003266675
 30
0.0
 10
-4.674458513413101
 20
4.163761893131871
 30
0.0
 10
-4.67560435108442
 20
4.166308698333131
 30
0.0
 10
-4.699131028390163
 20
4.195693308561641
 30
0.0
 10
-4.700583087729125
 20
4.19807882409886
 30
0.0
 10
-4.706582143691572
 20
4.208950755731904
 30
0.0
 10
-4.708318122750357
 20
4.211138342852373
 30
0.0
 10
-4.735457296652213
 20
4.2587771410609445
 30
0.0
 10
-4.739939087435758
 20
4.267178576190773
 30
0.0
 10
-4.740191733508164
 20
4.2678566865930385
 30
0.0
 10
-4.761497339496255
 20
4.308715869119592
 30
0.0
 10
-4.764410006959822
 20
4.312930998290539
 30
0.0
 10
-4.779668140375275
 20
4.343563226673494
 30
0.0
 10
-4.780948004296634
 20
4.347379628343833
 30
0.0
 10
-4.790213581031393
 20
4.366679814373957
 30
0.0
 10
-4.794771388707851
 20
4.373765758711152
 30
0.0
 10
-4.819328625472538
 20
4.427326419553034
 30
0.0
 10
-4.826127799354408
 20
4.441427498538108
 30
0.0
 10
-4.842459290661223
 20
4.482145490227296
 30
0.0
 10
-4.854721495579866
 20
4.510013658514201
 30
0.0
 10
-4.85805768710176
 20
4.516042133827495
 30
0.0
 10
-4.877250483414654
 20
4.568887568508908
 30
0.0
 10
-4.883995940383949
 20
4.585705472989003
 30
0.0
 10
-4.890132475324916
 20
4.597715064196988
 30
0.0
 10
-4.896650512690922
 20
4.617256098730727
 30
0.0
 10
-4.905304277116028
 20
4.644227668758733
 30
0.0
 10
-4.933404579947717
 20
4.723502226636745
 30
0.0
 10
-4.942706604651292
 20
4.771534281445171
 30
0.0
 10
-4.945757500318243
 20
4.8324428737335765
 30
0.0
 10
-4.949046879620299
 20
4.8812566621187585
 30
0.0
 10
-4.928818650100019
 20
4.92135038482725
 30
0.0
 10
-4.926044862948423
 20
4.970196183597912
 30
0.0
 10
-4.8758199469117
 20
5.035414165994158
 30
0.0
 10
-4.753447240852688
 20
5.16362018358752
 30
0.0
 10
-4.615573653838972
 20
5.274987755794719
 30
0.0
 10
-4.546430883224977
 20
5.31965546998017
 30
0.0
 10
-4.497522860094152
 20
5.318386129150798
 30
0.0
 10
-4.455895643822111
 20
5.335234355632872
 30
0.0
 10
-4.407520214062303
 20
5.3279252005339535
 30
0.0
 10
-4.347071596464095
 20
5.3198549335376715
 30
0.0
 10
-4.299971750586353
 20
5.306618224316747
 30
0.0
 10
-4.223288460130588
 20
5.272067457163724
 30
0.0
 10
-4.197123633890726
 20
5.261215955132251
 30
0.0
 10
-4.178187597156548
 20
5.253106494326806
 30
0.0
 10
-4.166725775826923
 20
5.245999174580373
 30
0.0
 10
-4.1505223484420934
 20
5.237887945224129
 30
0.0
 10
-4.099442336269533
 20
5.21439676063442
 30
0.0
 10
-4.093709951767442
 20
5.210574136351912
 30
0.0
 10
-4.0669495722612465
 20
5.196052477983691
 30
0.0
 10
-4.027719297020008
 20
5.17641430189706
 30
0.0
 10
-4.0142278516976875
 20
5.168473892768136
 30
0.0
 10
-3.9628780482061225
 20
5.139577527101971
 30
0.0
 10
-3.9561926867361086
 20
5.134450134004064
 30
0.0
 10
-3.9377235658884944
 20
5.123622407181605
 30
0.0
 10
-3.934025889489702
 20
5.122031758692439
 30
0.0
 10
-3.904758292367593
 20
5.104296150168157
 30
0.0
 10
-3.900798086172478
 20
5.101045348332607
 30
0.0
 10
-3.861837861466974
 20
5.076438387241197
 30
0.0
 10
-3.8611829305028507
 20
5.076130606170054
 30
0.0
 10
-3.8531802938829203
 20
5.070970337960233
 30
0.0
 10
-3.8079453415404867
 20
5.039989877321199
 30
0.0
 10
-3.8059085821535525
 20
5.038079177998458
 30
0.0
 10
-3.7955691817938293
 20
5.031202814855298
 30
0.0
 10
-3.7933117241114065
 20
5.029558720723485
 30
0.0
 10
-3.7659702948376363
 20
5.003685837068952
 30
0.0
 10
-3.763526810792266
 20
5.002333599507649
 30
0.0
 10
-3.717645182763179
 20
4.959187570229119
 30
0.0
 10
-3.7150532014366395
 20
4.958147958039381
 30
0.0
 10
-3.649335189403599
 20
4.899651987068013
 30
0.0
 10
-3.6466345206237314
 20
4.89894096748767
 30
0.0
 10
-3.560048019759445
 20
4.827187171243842
 30
0.0
 10
-3.5572801426673526
 20
4.82681566470924
 30
0.0
 10
-3.4941457728801226
 20
4.766599846889349
 30
0.0
 10
-3.472258892413416
 20
4.7528751022336895
 30
0.0
 10
-3.4549712812564652
 20
4.744819050149503
 30
0.0
 10
-3.4519307514488395
 20
4.743606875029287
 30
0.0
 10
-3.449075212802901
 20
4.744031634341833
 30
0.0
 10
-3.446282638781436
 20
4.744005346762592
 30
0.0
 10
-3.44081290657608
 20
4.739952144226726
 30
0.0
 10
-3.433119725765242
 20
4.73794384136751
 30
0.0
 10
-3.4239591400292064
 20
4.736784909576832
 30
0.0
 10
-3.4133727869904065
 20
4.736765493620197
 30
0.0
 10
-3.4052017067475684
 20
4.738655788761099
 30
0.0
 10
-3.393142754568707
 20
4.743076116407426
 30
0.0
 10
-3.296514385744469
 20
4.81086839542022
 30
0.0
 10
-3.2434942062022554
 20
4.846772859110044
 30
0.0
 10
-3.1356485222087906
 20
4.917231961036952
 30
0.0
 10
-3.081470208517409
 20
4.951363768447352
 30
0.0
 10
-2.9805726739959777
 20
5.012621602908517
 30
0.0
 10
-2.971680629925986
 20
5.021889244270388
 30
0.0
 10
-2.9666672625084525
 20
5.028612778697351
 30
0.0
 10
-2.9624325535442466
 20
5.038315277737677
 30
0.0
 10
-2.9598141069882007
 20
5.047169835409258
 30
0.0
 10
-2.958562941645904
 20
5.055021771262002
 30
0.0
 10
-2.9600775900150382
 20
5.0616589590343555
 30
0.0
 10
-2.9589798992715033
 20
5.064226883436229
 30
0.0
 10
-2.957443859213458
 20
5.06667128568955
 30
0.0
 10
-2.957332569943567
 20
5.069942646985229
 30
0.0
 10
-2.9577657332554828
 20
5.089010259427301
 30
0.0
 10
-2.961542628582868
 20
5.114566847895001
 30
0.0
 10
-2.991325880903546
 20
5.19657203825155
 30
0.0
 10
-2.9905542531147185
 20
5.199256018739127
 30
0.0
 10
-3.021483064567172
 20
5.307372798331616
 30
0.0
 10
-3.021049351041205
 20
5.310131612076612
 30
0.0
 10
-3.0482197762226146
 20
5.393811978477053
 30
0.0
 10
-3.048130638296387
 20
5.396603253299116
 30
0.0
 10
-3.069212181005826
 20
5.4559519869847435
 30
0.0
 10
-3.069468987734533
 20
5.45873285213902
 30
0.0
 10
-3.0821797574262484
 20
5.494164422767122
 30
0.0
 10
-3.0827785645562966
 20
5.496892167389183
 30
0.0
 10
-3.0849224646890265
 20
5.509122918065043
 30
0.0
 10
-3.0858540752372012
 20
5.511755647160243
 30
0.0
 10
-3.096054481347217
 20
5.565625319240394
 30
0.0
 10
-3.0975654948167755
 20
5.575026776529717
 30
0.0
 10
-3.097584269740427
 20
5.5757501790855635
 30
0.0
 10
-3.1044685243503354
 20
5.621313417356388
 30
0.0
 10
-3.1058547252522812
 20
5.626245900781655
 30
0.0
 10
-3.1103398626162844
 20
5.660172698359019
 30
0.0
 10
-3.110311196383504
 20
5.664197887996
 30
0.0
 10
-3.1128079784540064
 20
5.685460864558972
 30
0.0
 10
-3.114818029173655
 20
5.693642790620105
 30
0.0
 10
-3.12065356896861
 20
5.752275108863864
 30
0.0
 10
-3.1225057319937357
 20
5.767819840645002
 30
0.0
 10
-3.124731227765845
 20
5.811634445790704
 30
0.0
 10
-3.127280253148699
 20
5.841974171279436
 30
0.0
 10
-3.128478237877382
 20
5.848759266788242
 30
0.0
 10
-3.1294722309556207
 20
5.9049732808304345
 30
0.0
 10
-3.130391435802508
 20
5.923070191154458
 30
0.0
 10
-3.1322959684633744
 20
5.936421599222833
 30
0.0
 10
-3.132115877045377
 20
5.957020249878511
 30
0.0
 10
-3.1315431021725466
 20
5.985340298562189
 30
0.0
 10
-3.132380446223341
 20
6.069443695645346
 30
0.0
 10
-3.125582478869602
 20
6.117893603721247
 30
0.0
 10
-3.108691081007984
 20
6.176492624678993
 30
0.0
 10
-3.095952421487824
 20
6.2237296070798145
 30
0.0
 10
-3.063801802756578
 20
6.255082845913285
 30
0.0
 10
-3.045318102110078
 20
6.300381397359406
 30
0.0
 10
-2.9766382662929174
 20
6.34575768600073
 30
0.0
 10
-2.819267625127323
 20
6.427282795227808
 30
0.0
 10
-2.6527034177723468
 20
6.487848684667019
 30
0.0
 10
-2.5728034101000747
 20
6.507645557973269
 30
0.0
 10
-2.5269575128589854
 20
6.490564584380825
 30
0.0
 10
-2.4821151637891177
 20
6.4929835924516475
 30
0.0
 10
-2.4387341270285665
 20
6.470362991171267
 30
0.0
 10
-2.3841811936772457
 20
6.443102359452761
 30
0.0
 10
-2.343931299822686
 20
6.415289556692108
 30
0.0
 10
-2.2826215373144874
 20
6.357711821696939
 30
0.0
 10
-2.261397870480417
 20
6.338952578785307
 30
0.0
 10
-2.246120978066819
 20
6.325133989858194
 30
0.0
 10
-2.2375879327811012
 20
6.3146901169978875
 30
0.0
 10
-2.224896163652454
 20
6.301757132150213
 30
0.0
 10
-2.1842113826006377
 20
6.262953111897896
 30
0.0
 10
-2.180030798578002
 20
6.2574763057378515
 30
0.0
 10
-2.1594355450107217
 20
6.235052389853722
 30
0.0
 10
-2.128707379642376
 20
6.203740214767851
 30
0.0
 10
-2.118525184670493
 20
6.191849373772596
 30
0.0
 10
-2.0793402897639797
 20
6.147845438965575
 30
0.0
 10
-2.074682021435934
 20
6.140825128847843
 30
0.0
 10
-2.060729365651153
 20
6.12458716439484
 30
0.0
 10
-2.057748522279069
 20
6.121882068064323
 30
0.0
 10
-2.035825466971687
 20
6.095604250479559
 30
0.0
 10
-2.03313536930215
 20
6.091243709204648
 30
0.0
 10
-2.004275984240275
 20
6.055319656856564
 30
0.0
 10
-2.0037564755927146
 20
6.054815896476391
 30
0.0
 10
-1.9978629802472025
 20
6.047336773969013
 30
0.0
 10
-1.9651383215194331
 20
6.0033471551257
 30
0.0
 10
-1.963832322429979
 20
6.00087864807071
 30
0.0
 10
-1.9562858907635494
 20
5.991017667441018
 30
0.0
 10
-1.9546845848570267
 20
5.988729659552936
 30
0.0
 10
-1.9372255012265778
 20
5.955380892527474
 30
0.0
 10
-1.9353534827050398
 20
5.953308524954576
 30
0.0
 10
-1.9059673406428626
 20
5.8976025262847305
 30
0.0
 10
-1.9038533615402429
 20
5.8957776281900784
 30
0.0
 10
-1.8606897433941187
 20
5.819112526651024
 30
0.0
 10
-1.8583662719783287
 20
5.817563126353428
 30
0.0
 10
-1.7997696861161514
 20
5.721582557837617
 30
0.0
 10
-1.7972724082141334
 20
5.72033245232916
 30
0.0
 10
-1.7571108768093122
 20
5.642879597253516
 30
0.0
 10
-1.7408663052015232
 20
5.622791838650169
 30
0.0
 10
-1.7271311803370835
 20
5.609559007522428
 30
0.0
 10
-1.724648987439244
 20
5.607425252979129
 30
0.0
 10
-1.7218102506302488
 20
5.606899805777879
 30
0.0
 10
-1.7191775215350482
 20
5.605968195229706
 30
0.0
 10
-1.7153202272197121
 20
5.6003585872434085
 30
0.0
 10
-1.708695979037691
 20
5.595961128046831
 30
0.0
 10
-1.700408043641749
 20
5.591890553051157
 30
0.0
 10
-1.6904015927617357
 20
5.5884348058920965
 30
0.0
 10
-1.682059466355849
 20
5.587569534210585
 30
0.0
 10
-1.669218623427765
 20
5.587834820940806
 30
0.0
 10
-1.5558137291447631
 20
5.620578747217943
 30
0.0
 10
-1.494008168873509
 20
5.637322183875299
 30
0.0
 10
-1.3691278285131863
 20
5.668946180963818
 30
0.0
 10
-1.3068024655484587
 20
5.683636963204982
 30
0.0
 10
-1.1914814514188354
 20
5.708814303324425
 30
0.0
 10
-1.1800620045924968
 20
5.71469255632471
 30
0.0
 10
-1.1731371471903984
 20
5.719423953371499
 30
0.0
 10
-1.1659814901501164
 20
5.727225736498508
 30
0.0
 10
-1.1606298480749315
 20
5.734750321605033
 30
0.0
 10
-1.1568969549183536
 20
5.7417705651927555
 30
0.0
 10
-1.1561744441142996
 20
5.7485399373457415
 30
0.0
 10
-1.1543024255927627
 20
5.750612304918641
 30
0.0
 10
-1.1520559163077448
 20
5.752425511323959
 30
0.0
 10
-1.1508884477211818
 20
5.755483485674383
 30
0.0
 10
-1.1451068974111223
 20
5.773658610177618
 30
0.0
 10
-1.1403809394217175
 20
5.79905682809746
 30
0.0
 10
-1.1419234111997343
 20
5.8862893572653405
 30
0.0
 10
-1.1403221052932138
 20
5.888577365153423
 30
0.0
 10
-1.1344696474844513
 20
6.0008786480708896
 30
0.0
 10
-1.1331636483949987
 20
6.003347155125879
 30
0.0
 10
-1.1316909344428363
 20
6.091315711093711
 30
0.0
 10
-1.1307003008021927
 20
6.093926803909411
 30
0.0
 10
-1.1313690850527351
 20
6.156905025230148
 30
0.0
 10
-1.1307090318450068
 20
6.159618600448406
 30
0.0
 10
-1.1312264847986846
 20
6.197257571021082
 30
0.0
 10
-1.1309071496758283
 20
6.200031951272867
 30
0.0
 10
-1.128963569133422
 20
6.212296129376161
 30
0.0
 10
-1.1289898567126646
 20
6.215088703397626
 30
0.0
 10
-1.1211461227532107
 20
6.2693516345053855
 30
0.0
 10
-1.1195226171535673
 20
6.278734320178268
 30
0.0
 10
-1.119305486374164
 20
6.2794246229960216
 30
0.0
 10
-1.111022373798689
 20
6.324754433157989
 30
0.0
 10
-1.1107318917621654
 20
6.329869759723082
 30
0.0
 10
-1.1039579988472503
 20
6.363414631548841
 30
0.0
 10
-1.1026239088914565
 20
6.367212417398044
 30
0.0
 10
-1.0980813312187978
 20
6.388134011054192
 30
0.0
 10
-1.0973258047970125
 20
6.396525280194877
 30
0.0
 10
-1.0838072763377222
 20
6.453875534384646
 30
0.0
 10
-1.080511717903063
 20
6.469179406071996
 30
0.0
 10
-1.0683900511414333
 20
6.5113426323530295
 30
0.0
 10
-1.0609496705360617
 20
6.540866135017539
 30
0.0
 10
-1.0598796282375318
 20
6.54767258034187
 30
0.0
 10
-1.0425671035076969
 20
6.601163513073077
 30
0.0
 10
-1.0375604461240817
 20
6.61857834820492
 30
0.0
 10
-1.0350265908391747
 20
6.631824740901039
 30
0.0
 10
-1.0281678863367194
 20
6.651248824259114
 30
0.0
 10
-1.0184306412109425
 20
6.6778484348927565
 30
0.0
 10
-0.9919142872602069
 20
6.757666763108436
 30
0.0
 10
-0.969752993093262
 20
6.801284225134003
 30
0.0
 10
-0.9347497467584247
 20
6.851223561582824
 30
0.0
 10
-0.9073634798357247
 20
6.891764877998856
 30
0.0
 10
-0.8667744903012936
 20
6.910980023034072
 30
0.0
 10
-0.8345838719291044
 20
6.947822526227021
 30
0.0
 10
-0.7548916422197488
 20
6.968439896153472
 30
0.0
 10
-0.5795766167749601
 20
6.994449586437102
 30
0.0
 10
-0.40237160545560235
 20
6.997650539210981
 30
0.0
 10
-0.3203727663327025
 20
6.990431273235159
 30
0.0
 10
-0.28255710931981026
 20
6.959389655406998
 30
0.0
 10
-0.2393589917745731
 20
6.947117308007318
 30
0.0
 10
-0.20567335647242535
 20
6.911636553688998
 30
0.0
 10
-0.16292776417258337
 20
6.8681396696872525
 30
0.0
 10
-0.13388952288179967
 20
6.8287647221260865
 30
0.0
 10
-0.09459715240791311
 20
6.754399460286109
 30
0.0
 10
-0.08061455860022781
 20
6.729765331543438
 30
0.0
 10
-0.07065229884563295
 20
6.711735073022408
 30
0.0
 10
-0.06597271746437539
 20
6.69908640272603
 30
0.0
 10
-0.05816795671008945
 20
6.682733151971107
 30
0.0
 10
-0.03228723409539713
 20
6.63282131375693
 30
0.0
 10
-0.030111481699513276
 20
6.626283822648191
 30
0.0
 10
-0.017913169363451775
 20
6.598387628477109
 30
0.0
 10
0.0009830126177325926
 20
6.5587946144210045
 30
0.0
 10
0.00675255842094058
 20
6.544241898686662
 30
0.0
 10
0.029526253362990973
 20
6.489898903866525
 30
0.0
 10
0.03165263289524478
 20
6.4817464362615596
 30
0.0
 10
0.039576836865149956
 20
6.461857869584473
 30
0.0
 10
0.041517826578610084
 20
6.458331464573911
 30
0.0
 10
0.05372063685745776
 20
6.426359047206325
 30
0.0
 10
0.054849112177756565
 20
6.42136129879996
 30
0.0
 10
0.07048029542505119
 20
6.378013083686221
 30
0.0
 10
0.07080808493307778
 20
6.377367934250858
 30
0.0
 10
0.07395378733648322
 20
6.36838043642014
 30
0.0
 10
0.0906219279010364
 20
6.316148617143485
 30
0.0
 10
0.09105564142700456
 20
6.313389803398489
 30
0.0
 10
0.09499133143413047
 20
6.30161279554237
 30
0.0
 10
0.09576295922296019
 20
6.298928815054793
 30
0.0
 10
0.10144773459313405
 20
6.261718021025046
 30
0.0
 10
0.10254542533667033
 20
6.2591500966231735
 30
0.0
 10
0.11225163696652629
 20
6.1969207378855184
 30
0.0
 10
0.11365853140769278
 20
6.194508309910719
 30
0.0
 10
0.12959030788822512
 20
6.107981931137351
 30
0.0
 10
0.1312847977596629
 20
6.1057620516861695
 30
0.0
 10
0.15554161932185412
 20
5.995955694789031
 30
0.0
 10
0.15749767922385516
 20
5.993962458635946
 30
0.0
 10
0.17033424714818785
 20
5.907665784956869
 30
0.0
 10
0.1791761585028565
 20
5.883391832744196
 30
0.0
 10
0.18787038317330207
 20
5.866416205154122
 30
0.0
 10
0.18952525504568335
 20
5.8635920966011215
 30
0.0
 10
0.1920395688369403
 20
5.862173383243484
 30
0.0
 10
0.19422715595741052
 20
5.860437404184699
 30
0.0
 10
0.19605401469157197
 20
5.853879278815322
 30
0.0
 10
0.20089149016845387
 20
5.847569196218942
 30
0.0
 10
0.20740864882358356
 20
5.841028087980533
 30
0.0
 10
0.21575084332587796
 20
5.834510493445172
 30
0.0
 10
0.22336001705730724
 20
5.8309834205540145
 30
0.0
 10
0.23559124615714858
 20
5.827064918434561
 30
0.0
 10
0.35348348594511314
 20
5.821212179489548
 30
0.0
 10
0.41737683547793886
 20
5.816980177951423
 30
0.0
 10
0.5457591096089482
 20
5.806342119420138
 30
0.0
 10
0.6094776016921454
 20
5.799999902285265
 30
0.0
 10
0.7267252741591148
 20
5.786368392594361
 30
0.0
 10
0.7394346494871923
 20
5.788220257309984
 30
0.0
 10
0.7475205811241041
 20
5.790446796691389
 30
0.0
 10
0.7568217597686897
 20
5.795502419646134
 30
0.0
 10
0.764326663904884
 20
5.800881626635343
 30
0.0
 10
0.7701367679804227
 20
5.8063094256350105
 30
0.0
 10
0.7730181427011357
 20
5.812477415658222
 30
0.0
 10
0.7754616267465055
 20
5.813829653219527
 30
0.0
 10
0.7781751611192813
 20
5.8148151747280306
 30
0.0
 10
0.7802722956860206
 20
5.81732838316297
 30
0.0
 10
0.7916420389319642
 20
5.832641462971328
 30
0.0
 10
0.8043587193592137
 20
5.855129019337741
 30
0.0
 10
0.8312241788749215
 20
5.938135889229462
 30
0.0
 10
0.8334816365573421
 20
5.939779983361275
 30
0.0
 10
0.8754811590135014
 20
6.044096183065668
 30
0.0
 10
0.8775179184004342
 20
6.04600688238841
 30
0.0
 10
0.9074741800779401
 20
6.1287308699117355
 30
0.0
 10
0.9092589589067716
 20
6.1308788282992115
 30
0.0
 10
0.929075406265929
 20
6.190661869767166
 30
0.0
 10
0.9305807924032539
 20
6.193014097069051
 30
0.0
 10
0.9423127302442549
 20
6.228781701095947
 30
0.0
 10
0.9435156027044596
 20
6.23130206982823
 30
0.0
 10
0.9493360468124727
 20
6.242270661363138
 30
0.0
 10
0.9502179308692671
 20
6.244920461584392
 30
0.0
 10
0.975255814615611
 20
6.293696421158106
 30
0.0
 10
0.9798379072614505
 20
6.302043575634521
 30
0.0
 10
0.9802674142548291
 20
6.302625973692726
 30
0.0
 10
1.0028202902424008
 20
6.342810167450313
 30
0.0
 10
1.0047559769814436
 20
6.347554012149434
 30
0.0
 10
1.0220548437701669
 20
6.377081850858953
 30
0.0
 10
1.0245497881017256
 20
6.380240683894898
 30
0.0
 10
1.0356394667413578
 20
6.398553715339604
 30
0.0
 10
1.0390786972935766
 20
6.406245003344489
 30
0.0
 10
1.0704863516869665
 20
6.456098403557928
 30
0.0
 10
1.0785725066891665
 20
6.469503003190124
 30
0.0
 10
1.1037277653038715
 20
6.505445810809075
 30
0.0
 10
1.1203512712094699
 20
6.530953761031323
 30
0.0
 10
1.1235733848487497
 20
6.537043972207409
 30
0.0
 10
1.157316346700683
 20
6.58201525106886
 30
0.0
 10
1.1677063173009898
 20
6.596860843402985
 30
0.0
 10
1.1744039779947357
 20
6.6085667685392595
 30
0.0
 10
1.1871980485250422
 20
6.62471138377218
 30
0.0
 10
1.2050445823054625
 20
6.646708075808146
 30
0.0
 10
1.2560411758635412
 20
6.713591780785208
 30
0.0
 10
1.2911642767527947
 20
6.7476501679553165
 30
0.0
 10
1.3404862266891446
 20
6.7835181179023385
 30
0.0
 10
1.3795523740515945
 20
6.812970487636564
 30
0.0
 10
1.424181287570092
 20
6.817965279755265
 30
0.0
 10
1.4665904706784358
 20
6.842359277803745
 30
0.0
 10
1.5486592046386276
 20
6.835983517072338
 30
0.0
 10
1.7229205110627666
 20
6.803659234888359
 30
0.0
 10
1.891563413750999
 20
6.749148378095959
 30
0.0
 10
1.9667752377624772
 20
6.715695292324998
 30
0.0
 10
1.9924627413394498
 20
6.674056871213129
 30
0.0
 10
2.0293354410361744
 20
6.648423067608792
 30
0.0
 10
2.049675313608445
 20
6.603927050523551
 30
0.0
 10
2.075981416664917
 20
6.548907476543849
 30
0.0
 10
2.0906612613733304
 20
6.5022372707156855
 30
0.0
 10
2.1036783017881135
 20
6.419143112047187
 30
0.0
 10
2.108904591568053
 20
6.391303587560635
 30
0.0
 10
2.112472653238848
 20
6.371015517724729
 30
0.0
 10
2.112791665461808
 20
6.357532729683233
 30
0.0
 10
2.1148636509106655
 20
6.3395313414871834
 30
0.0
 10
2.1231357372121358
 20
6.283920407443623
 30
0.0
 10
2.1230708814488963
 20
6.2770306699874485
 30
0.0
 10
2.125550376135812
 20
6.246685183021897
 30
0.0
 10
2.130566880207698
 20
6.203101847417453
 30
0.0
 10
2.131298557030726
 20
6.187464269502491
 30
0.0
 10
2.1351931687910564
 20
6.128671121376443
 30
0.0
 10
2.1345572333110203
 20
6.120269942647809
 30
0.0
 10
2.1355942750092174
 20
6.098886008549011
 30
0.0
 10
2.136285074711042
 20
6.09492043555911
 30
0.0
 10
2.1374452761215315
 20
6.060718125933651
 30
0.0
 10
2.1368898412815387
 20
6.055624753983718
 30
0.0
 10
2.1375989414666106
 20
6.009549827828757
 30
0.0
 10
2.1376994907557303
 20
6.00883320129005
 30
0.0
 10
2.1377565145510182
 20
5.999311262981348
 30
0.0
 10
2.136561885289337
 20
5.944497371350157
 30
0.0
 10
2.1360763136615217
 20
5.94174721119183
 30
0.0
 10
2.1359747689285498
 20
5.9293303976496015
 30
0.0
 10
2.1358331007557276
 20
5.926541295494607
 30
0.0
 10
2.1291275342458897
 20
5.889500841378657
 30
0.0
 10
2.1293319453869355
 20
5.886715634602205
 30
0.0
 10
2.1183064079469847
 20
5.824706432403955
 30
0.0
 10
2.118853758883781
 20
5.821967898552755
 30
0.0
 10
2.1058272385100727
 20
5.734956718280267
 30
0.0
 10
2.106709122566869
 20
5.732306918059014
 30
0.0
 10
2.0939975768294437
 20
5.620573995371531
 30
0.0
 10
2.095200449289649
 20
5.61805362663925
 30
0.0
 10
2.0793210124190185
 20
5.532264717980725
 30
0.0
 10
2.0798021052288984
 20
5.506435031530146
 30
0.0
 10
2.0825132755575106
 20
5.487556180131125
 30
0.0
 10
2.083161495359079
 20
5.484347753550699
 30
0.0
 10
2.0850789212197167
 20
5.482189513642578
 30
0.0
 10
2.0865843073570423
 20
5.479837286340693
 30
0.0
 10
2.0861827620195488
 20
5.473041318231807
 30
0.0
 10
2.0887092492622052
 20
5.465502407595961
 30
0.0
 10
2.0927493959121035
 20
5.457199596688201
 30
0.0
 10
2.098523327819871
 20
5.4483264372753455
 30
0.0
 10
2.104574976834547
 20
5.442519776250472
 30
0.0
 10
2.1148711486461043
 20
5.434842115787815
 30
0.0
 10
2.224475280471427
 20
5.391026946699944
 30
0.0
 10
2.283532583436476
 20
5.366278109999265
 30
0.0
 10
2.4015045798798456
 20
5.314530794556526
 30
0.0
 10
2.4597113137700246
 20
5.2878428556818164
 30
0.0
 10
2.5661800399774584
 20
5.236879681770241
 30
0.0
 10
2.5788020857842002
 20
5.234504479924625
 30
0.0
 10
2.5871728554969096
 20
5.233984881550352
 30
0.0
 10
2.5976116287170012
 20
5.235746489139612
 30
0.0
 10
2.606456522100462
 20
5.238397397467229
 30
0.0
 10
2.613714222165324
 20
5.241644565636248
 30
0.0
 10
2.6184422191425707
 20
5.246542776104444
 30
0.0
 10
2.6211923793008967
 20
5.24702834773226
 30
0.0
 10
2.6240788852073162
 20
5.24707938779656
 30
0.0
 10
2.62687842868353
 20
5.248775485185641
 30
0.0
 10
2.642604276764916
 20
5.259567110494974
 30
0.0
 10
2.6619336299860903
 20
5.276707129645269
 30
0.0
 10
2.7142957313964406
 20
5.346493257923768
 30
0.0
 10
2.716964710286806
 20
5.347315275189382
 30
0.0
 10
2.7905599974425006
 20
5.432342112810119
 30
0.0
 10
2.793106802643761
 20
5.43348795048144
 30
0.0
 10
2.848300386274561
 20
5.502002941917186
 30
0.0
 10
2.8506859018117794
 20
5.503455001256148
 30
0.0
 10
2.88884016122541
 20
5.553564442698802
 30
0.0
 10
2.8910277483458797
 20
5.555300421757586
 30
0.0
 10
2.913737739476715
 20
5.5853206843508305
 30
0.0
 10
2.9156937993787158
 20
5.5873139205039175
 30
0.0
 10
2.924760371619737
 20
5.595798308382397
 30
0.0
 10
2.926454861491173
 20
5.5980181878335795
 30
0.0
 10
2.9659736518176962
 20
5.636021543816446
 30
0.0
 10
2.9730177906730617
 20
5.642428623389426
 30
0.0
 10
2.9736131301331956
 20
5.6428400048216405
 30
0.0
 10
3.0079918154756835
 20
5.673524001259201
 30
0.0
 10
3.0113629452237953
 20
5.677382294910866
 30
0.0
 10
3.037312185250195
 20
5.6996933010083435
 30
0.0
 10
3.0406976180261442
 20
5.701870872657242
 30
0.0
 10
3.0571326588780523
 20
5.715590840777512
 30
0.0
 10
3.062882899565211
 20
5.72174867724864
 30
0.0
 10
3.108776173199206
 20
5.758702834017415
 30
0.0
 10
3.1207766644048283
 20
5.768755565230521
 30
0.0
 10
3.156239552277653
 20
5.794582993271751
 30
0.0
 10
3.180244768678342
 20
5.813311208848525
 30
0.0
 10
3.185269787649312
 20
5.818025216996074
 30
0.0
 10
3.231786613130687
 20
5.849603506121845
 30
0.0
 10
3.2464339824161383
 20
5.860271105375746
 30
0.0
 10
3.256569653057642
 20
5.86916804432752
 30
0.0
 10
3.273912653553383
 20
5.88028367186528
 30
0.0
 10
3.2979345271358342
 20
5.89529376240763
 30
0.0
 10
3.3678850880955595
 20
5.9419949569042
 30
0.0
 10
3.412163862734708
 20
5.962803514498641
 30
0.0
 10
3.4704597176880614
 20
5.980713229018516
 30
0.0
 10
3.5169723222498073
 20
5.995885030809629
 30
0.0
 10
3.560804924483699
 20
5.98611820678357
 30
0.0
 10
3.608836979292131
 20
5.9954202314871505
 30
0.0
 10
3.684388796750959
 20
5.962742252703253
 30
0.0
 10
3.838712467660627
 20
5.875586835589216
 30
0.0
 10
3.9805181864472146
 20
5.769271266387084
 30
0.0
 10
4.040792627183935
 20
5.7132095217423755
 30
0.0
 10
4.051568337729738
 20
5.665486466360941
 30
0.0
 10
4.078119890426924
 20
5.6292690269219205
 30
0.0
 10
4.082909859470471
 20
5.580579580947788
 30
0.0
 10
4.089925798836158
 20
5.519999541547481
 30
0.0
 10
4.088656458006787
 20
5.4710915184166575
 30
0.0
 10
4.073987570053331
 20
5.388273004350088
 30
0.0
 10
4.069891206213627
 20
5.360244928572503
 30
0.0
 10
4.06667841495441
 20
5.33989757459028
 30
0.0
 10
4.062602288094727
 20
5.327041738094974
 30
0.0
 10
4.058716966464604
 20
5.309342942189161
 30
0.0
 10
4.048484007547448
 20
5.254059219912381
 30
0.0
 10
4.046185571753374
 20
5.247563846067439
 30
0.0
 10
4.038677557068492
 20
5.2180574706788825
 30
0.0
 10
4.0292707671758095
 20
5.175206744203968
 30
0.0
 10
4.024885286481748
 20
5.160178878317494
 30
0.0
 10
4.009478773444998
 20
5.10330672675468
 30
0.0
 10
4.00614943642949
 20
5.095567234975347
 30
0.0
 10
4.000186936296619
 20
5.075005214520364
 30
0.0
 10
3.999552687120253
 20
5.071030204916784
 30
0.0
 10
3.9895445538371783
 20
5.038304353984885
 30
0.0
 10
3.987365398820267
 20
5.033667304373968
 30
0.0
 10
3.9730755739352404
 20
4.989858600352817
 30
0.0
 10
3.9729379869297943
 20
4.989148154315841
 30
0.0
 10
3.9699001527039304
 20
4.980123625293
 30
0.0
 10
3.950972210233101
 20
4.928667596990673
 30
0.0
 10
3.9496199726717958
 20
4.9262241129453015
 30
0.0
 10
3.9454921971461725
 20
4.914513048130977
 30
0.0
 10
3.944452584956432
 20
4.911921066804436
 30
0.0
 10
3.926083328745508
 20
4.8790648605476115
 30
0.0
 10
3.9253723091651658
 20
4.8763641917677445
 30
0.0
 10
3.894809810715866
 20
4.821294805338987
 30
0.0
 10
3.894438304181265
 20
4.818526928246895
 30
0.0
 10
3.8538651125630983
 20
4.74045995797538
 30
0.0
 10
3.853838824983857
 20
4.737667383953916
 30
0.0
 10
3.8055364051674205
 20
4.636115891364203
 30
0.0
 10
3.8058557402902786
 20
4.633341511112418
 30
0.0
 10
3.762981082004467
 20
4.557356926879668
 30
0.0
 10
3.7550492223986827
 20
4.532770553506983
 30
0.0
 10
3.7514835410122154
 20
4.51403429478366
 30
0.0
 10
3.7510548640693036
 20
4.510789232979665
 30
0.0
 10
3.7521676191553945
 20
4.508125345303651
 30
0.0
 10
3.7528276723631233
 20
4.5054117700853915
 30
0.0
 10
3.7502412366219104
 20
4.499114407831905
 30
0.0
 10
3.750182951535111
 20
4.491163627102239
 30
0.0
 10
3.751308273600927
 20
4.481998851918368
 30
0.0
 10
3.7538882478001767
 20
4.4717316721316545
 30
0.0
 10
3.7577265820263497
 20
4.464274664794741
 30
0.0
 10
3.7649719465722735
 20
4.453669839631182
 30
0.0
 10
3.8544106620683483
 20
4.376640293833524
 30
0.0
 10
3.902232143320886
 20
4.334056542444576
 30
0.0
 10
3.997009765737846
 20
4.2468075946609325
 30
0.0
 10
4.043397138647473
 20
4.2026659863295
 30
0.0
 10
4.1275493800782925
 20
4.119893798865692
 30
0.0
 10
4.138716301849319
 20
4.113548920433863
 30
0.0
 10
4.146464806853579
 20
4.110339490850165
 30
0.0
 10
4.156909971596525
 20
4.108616185557486
 30
0.0
 10
4.166136372786493
 20
4.108251528173131
 30
0.0
 10
4.17405518442383
 20
4.108966184455384
 30
0.0
 10
4.180117451822695
 20
4.112063818260769
 30
0.0
 10
4.18287626556769
 20
4.111630104734801
 30
0.0
 10
4.185622945304039
 20
4.110741132371963
 30
0.0
 10
4.188821523714687
 20
4.111436320245418
 30
0.0
 10
4.207199336980222
 20
4.116537051004139
 30
0.0
 10
4.231046727647989
 20
4.126472145908581
 30
0.0
 10
4.303231224783455
 20
4.1754751227315365
 30
0.0
 10
4.306022499605519
 20
4.17538598480531
 30
0.0
 10
4.403238360148891
 20
4.231909483158861
 30
0.0
 10
4.406019225303168
 20
4.232166289887569
 30
0.0
 10
4.480469049684175
 20
4.279047622794044
 30
0.0
 10
4.483196794306235
 20
4.279646429924092
 30
0.0
 10
4.535554259742539
 20
4.31465213583304
 30
0.0
 10
4.538186988837739
 20
4.315583746381214
 30
0.0
 10
4.569414053337564
 20
4.336603506276459
 30
0.0
 10
4.571911331239582
 20
4.337853611784918
 30
0.0
 10
4.583241527828933
 20
4.342934380931494
 30
0.0
 10
4.585564999244721
 20
4.3444837812290915
 30
0.0
 10
4.635282222022333
 20
4.3675962803175405
 30
0.0
 10
4.64402506534117
 20
4.371368978499271
 30
0.0
 10
4.64472172299991
 20
4.3715647637440735
 30
0.0
 10
4.687200753700191
 20
4.389423475736338
 30
0.0
 10
4.691642012240696
 20
4.391978112355796
 30
0.0
 10
4.723429622703966
 20
4.404654542139641
 30
0.0
 10
4.72733867975263
 20
4.405614878724829
 30
0.0
 10
4.7473380911245755
 20
4.413255012087591
 30
0.0
 10
4.754776214144043
 20
4.417212099894638
 30
0.0
 10
4.810181858712888
 20
4.437262456930029
 30
0.0
 10
4.824796246692998
 20
4.442873950312896
 30
0.0
 10
4.86672380965952
 20
4.455787196194305
 30
0.0
 10
4.895509398878976
 20
4.4657061843696635
 30
0.0
 10
4.901792784404927
 20
4.468533153560515
 30
0.0
 10
4.95604265369192
 20
4.483296455336188
 30
0.0
 10
4.973360151923088
 20
4.488630061605851
 30
0.0
 10
4.985835475327208
 20
4.493753892987466
 30
0.0
 10
5.005848022580289
 20
4.498635982109618
 30
0.0
 10
5.03344209322434
 20
4.505032894942537
 30
0.0
 10
5.1147663929109415
 20
4.526490779891215
 30
0.0
 10
5.163402549011855
 20
4.5317945778165925
 30
0.0
 10
5.224355048544626
 20
4.529805261443239
 30
0.0
 10
5.273273747883982
 20
4.529052395152411
 30
0.0
 10
5.311560096248326
 20
4.505582341912704
 30
0.0
 10
5.3600100043242325
 20
4.498784374558968
 30
0.0
 10
5.420857693552797
 20
4.4433453437749
 30
0.0
 10
5.538520364626455
 20
4.310803433530747
 30
0.0
 10
5.638122049538436
 20
4.164204093497959
 30
0.0
 10
5.676927436092263
 20
4.0916088498993535
 30
0.0
 10
5.671623638166882
 20
4.042972693798434
 30
0.0
 10
5.6849767711400006
 20
4.000096340059423
 30
0.0
 10
5.673697769184929
 20
3.9524897221622894
 30
0.0
 10
5.660663258966044
 20
3.892914004606565
 30
0.0
 10
5.6435822853736
 20
3.8470681073654758
 30
0.0
 10
5.602817070672912
 20
3.7734999089615973
 30
0.0
 10
5.589841957797231
 20
3.7483205588038873
 30
0.0
 10
5.580196469392529
 20
3.730118872201048
 30
0.0
 10
5.572166915043077
 20
3.7192831166150486
 30
0.0
 10
5.562745321219576
 20
3.703804852160982
 30
0.0
 10
5.535116216963183
 20
3.6548391907750095
 30
0.0
 10
5.530833272320466
 20
3.64944205508351
 30
0.0
 10
5.514151358153745
 20
3.6239722648838817
 30
0.0
 10
5.491340645942751
 20
3.5864976886495854
 30
0.0
 10
5.482313242612545
 20
3.5737080372417624
 30
0.0
 10
5.4492751395229275
 20
3.52491986232637
 30
0.0
 10
5.443613186297564
 20
3.518680751521215
 30
0.0
 10
5.431297273740745
 20
3.5011688586789678
 30
0.0
 10
5.429406706425836
 20
3.497615166430886
 30
0.0
 10
5.409314774982607
 20
3.4699121279349145
 30
0.0
 10
5.405748045047933
 20
3.466233896939594
 30
0.0
 10
5.378007819348579
 20
3.429438767895025
 30
0.0
 10
5.377647005735491
 20
3.4288114902115936
 30
0.0
 10
5.371843509963701
 20
3.4212623182242323
 30
0.0
 10
5.337233390547726
 20
3.37874021233987
 30
0.0
 10
5.335161022974827
 20
3.3768681938183325
 30
0.0
 10
5.327454325183788
 20
3.3671319533204365
 30
0.0
 10
5.325629427089134
 20
3.3650179742178152
 30
0.0
 10
5.297587075115955
 20
3.3399064955846107
 30
0.0
 10
5.29603767481836
 20
3.337583024168821
 30
0.0
 10
5.249250136292718
 20
3.2954210760186835
 30
0.0
 10
5.2480000307842625
 20
3.2929237981166657
 30
0.0
 10
5.184276902791398
 20
3.2322608054088953
 30
0.0
 10
5.183345292243224
 20
3.229628076313695
 30
0.0
 10
5.1046863150241535
 20
3.149262693777609
 30
0.0
 10
5.104087507894106
 20
3.146534949155547
 30
0.0
 10
5.03886376268725
 20
3.0885887980724926
 30
0.0
 10
5.023378490729572
 20
3.067910052829522
 30
0.0
 10
5.013922354533496
 20
3.0513467511375785
 30
0.0
 10
5.012463234644477
 20
3.0484167069088004
 30
0.0
 10
5.012650734676269
 20
3.045535845029063
 30
0.0
 10
5.012393927947562
 20
3.0427549798747853
 30
0.0
 10
5.007902882247876
 20
3.037638640390507
 30
0.0
 10
5.005266140925162
 20
3.030137580028154
 30
0.0
 10
5.003354692299893
 20
3.0211039861654836
 30
0.0
 10
5.002461128553712
 20
3.0105553942465124
 30
0.0
 10
5.003670204920084
 20
3.0022561230499014
 30
0.0
 10
5.0070796145284096
 20
2.989873330542732
 30
0.0
 10
5.066660841086578
 20
2.8879767545590136
 30
0.0
 10
5.098064301106157
 20
2.8321726986997726
 30
0.0
 10
5.159376923481493
 20
2.718876895874496
 30
0.0
 10
5.1889181437815575
 20
2.662065046276675
 30
0.0
 10
5.241634699320174
 20
2.5564534961151564
 30
0.0
 10
5.250136387808949
 20
2.5468265071261356
 30
0.0
 10
5.256422957357104
 20
2.5412750378278366
 30
0.0
 10
5.265742617949575
 20
2.536253566521517
 30
0.0
 10
5.274350703214753
 20
2.532912859711029
 30
0.0
 10
5.282072500310638
 20
2.5310175600092983
 30
0.0
 10
5.288812097392682
 20
2.531978940464317
 30
0.0
 10
5.291280604447671
 20
2.5306729413748643
 30
0.0
 10
5.293589812645388
 20
2.528940290534229
 30
0.0
 10
5.296840810388619
 20
2.528559234499017
 30
0.0
 10
5.3158790676098295
 20
2.527416327383425
 30
0.0
 10
5.341660260914946
 20
2.5290698763502384
 30
0.0
 10
5.425844843453021
 20
2.551979468819353
 30
0.0
 10
5.4284559362687235
 20
2.5509888351787096
 30
0.0
 10
5.538757523250399
 20
2.5728837961660274
 30
0.0
 10
5.541471098468659
 20
2.5722237429583
 30
0.0
 10
5.627109369920139
 20
2.5923910974762574
 30
0.0
 10
5.629883750171922
 20
2.5920717623534006
 30
0.0
 10
5.690770677841094
 20
2.6081803213239145
 30
0.0
 10
5.6935632518625585
 20
2.6082066089031564
 30
0.0
 10
5.729923452754987
 20
2.617948048960574
 30
0.0
 10
5.732691329847079
 20
2.6183195554951766
 30
0.0
 10
5.74505734817819
 20
2.6194461257365624
 30
0.0
 10
5.747758016958058
 20
2.620157145316907
 30
0.0
 10
5.802286039656607
 20
2.625874189607331
 30
0.0
 10
5.8117801647061285
 20
2.626603676010379
 30
0.0
 10
5.812502646896393
 20
2.626562648698573
 30
0.0
 10
5.8584787608480156
 20
2.6296608076947128
 30
0.0
 10
5.863508868904826
 20
2.630634952764972
 30
0.0
 10
5.897690168975674
 20
2.6323031183730308
 30
0.0
 10
5.90169924331056
 20
2.6319421525243456
 30
0.0
 10
5.923095778657552
 20
2.632674524130862
 30
0.0
 10
5.931415747965799
 20
2.634002051409389
 30
0.0
 10
5.990329702173307
 20
2.6349758414132687
 30
0.0
 10
6.00597429122466
 20
2.635538004586589
 30
0.0
 10
6.0498230272642886
 20
2.634137717747268
 30
0.0
 10
6.080269624056147
 20
2.6341726022434395
 30
0.0
 10
6.087130473818572
 20
2.6348061865008185
 30
0.0
 10
6.143234571800486
 20
2.63115466810277
 30
0.0
 10
6.16134557933535
 20
2.6305763023894455
 30
0.0
 10
6.174808660636663
 20
2.6313717795662694
 30
0.0
 10
6.195322084625549
 20
2.629491280163011
 30
0.0
 10
6.223498106610795
 20
2.6265818105227208
 30
0.0
 10
6.307383395276702
 20
2.620471091135927
 30
0.0
 10
6.355106450658129
 20
2.609695380590123
 30
0.0
 10
6.412110445670466
 20
2.5880226066200187
 30
0.0
 10
6.458134139662185
 20
2.571426656991786
 30
0.0
 10
6.4867253142378
 20
2.5367967189823513
 30
0.0
 10
6.530342776263374
 20
2.514635424815407
 30
0.0
 10
6.569892545984584
 20
2.4424430212418167
 30
0.0
 10
6.638143641086948
 20
2.2788775904421383
 30
0.0
 10
6.6847479040847295
 20
2.107880792794382
 30
0.0
 10
6.697879070694946
 20
2.0266188713170528
 30
0.0
 10
6.677070513100499
 20
1.9823400966778997
 30
0.0
 10
6.675778207196707
 20
1.9374511468616968
 30
0.0
 10
6.649652489116595
 20
1.896086272783504
 30
0.0
 10
6.617980020746619
 20
1.8439708304820275
 30
0.0
 10
6.586938402918458
 20
1.806155173469135
 30
0.0
 10
6.524494405020834
 20
1.7498095465532226
 30
0.0
 10
6.504046597918877
 20
1.7302074953028468
 30
0.0
 10
6.489013650702516
 20
1.7161239112510764
 30
0.0
 10
6.477900795668422
 20
1.7084824588262104
 30
0.0
 10
6.463963905533408
 20
1.6969020359475029
 30
0.0
 10
6.4219326980936895
 20
1.6595606246440207
 30
0.0
 10
6.416129368111104
 20
1.6558465905033253
 30
0.0
 10
6.3920812987090745
 20
1.637173432465274
 30
0.0
 10
6.358338558792499
 20
1.6091359582845401
 30
0.0
 10
6.345647492051571
 20
1.5999704785372948
 30
0.0
 10
6.298557990017835
 20
1.5645532360479386
 30
0.0
 10
6.2911769810688405
 20
1.5604906106824792
 30
0.0
 10
6.273842276314676
 20
1.5479265307674388
 30
0.0
 10
6.270900263164972
 20
1.5451792535711515
 30
0.0
 10
6.2429018060919
 20
1.5255010815890786
 30
0.0
 10
6.238334011771403
 20
1.5231802626113315
 30
0.0
 10
6.200149469146197
 20
1.497386031710577
 30
0.0
 10
6.199604528679043
 20
1.4969098976509054
 30
0.0
 10
6.191664270178716
 20
1.4916541526213276
 30
0.0
 10
6.145122517287652
 20
1.4626738991259554
 30
0.0
 10
6.142554592885777
 20
1.4615762083824193
 30
0.0
 10
6.132104113116721
 20
1.4548698649322365
 30
0.0
 10
6.12969168514192
 20
1.4534629704910695
 30
0.0
 10
6.095015061364703
 20
1.4388174378361291
 30
0.0
 10
6.092795181913523
 20
1.4371229479646916
 30
0.0
 10
6.034852759094252
 20
1.412437339385273
 30
0.0
 10
6.032859522941169
 20
1.410481279483272
 30
0.0
 10
5.95289184825784
 20
1.3737960408824483
 30
0.0
 10
5.951155869199056
 20
1.371608453761978
 30
0.0
 10
5.850664255278822
 20
1.3211380174746963
 30
0.0
 10
5.849212195939861
 20
1.3187525019374766
 30
0.0
 10
5.768707368655806
 20
1.2851241486011413
 30
0.0
 10
5.747346753841599
 20
1.2705938943987531
 30
0.0
 10
5.73302488191983
 20
1.2579984404826168
 30
0.0
 10
5.730693437365257
 20
1.255700929585563
 30
0.0
 10
5.729935363804943
 20
1.2529152795879508
 30
0.0
 10
5.728789526133623
 20
1.2503684743866894
 30
0.0
 10
5.722880544962778
 20
1.2469875924429277
 30
0.0
 10
5.717951079239723
 20
1.2407491087290923
 30
0.0
 10
5.713209995041098
 20
1.2328256262532942
 30
0.0
 10
5.708939724846455
 20
1.2231387258147532
 30
0.0
 10
5.707388521167977
 20
1.2148965455690601
 30
0.0
 10
5.706592513405202
 20
1.202077653425253
 30
0.0
 10
5.729859700629901
 20
1.0863561223515923
 30
0.0
 10
5.741442087248511
 20
1.0233789973635494
 30
0.0
 10
5.7626455355844985
 20
0.8963136976982679
 30
0.0
 10
5.772139353676228
 20
0.8329880522646563
 30
0.0
 10
5.787707566548391
 20
0.7159817895974726
 30
0.0
 10
5.7926227318898675
 20
0.7041159236863453
 30
0.0
 10
5.796766118625201
 20
0.696824002511838
 30
0.0
 10
5.803950345232569
 20
0.6890485195240732
 30
0.0
 10
5.811007294966269
 20
0.6830937807067744
 30
0.0
 10
5.817695300989334
 20
0.6787939101523477
 30
0.0
 10
5.824381887835096
 20
0.6775148567673454
 30
0.0
 10
5.826292587157837
 20
0.6754780973804124
 30
0.0
 10
5.827914085277643
 20
0.6730895276654107
 30
0.0
 10
5.8308652063035495
 20
0.6716735210556404
 30
0.0
 10
5.848500816901519
 20
0.6644108277857418
 30
0.0
 10
5.873422020512943
 20
0.6576036431269159
 30
0.0
 10
5.960483982677243
 20
0.6519372414192082
 30
0.0
 10
5.962631941064721
 20
0.6501524625903765
 30
0.0
 10
6.074066366029771
 20
0.6350462274531604
 30
0.0
 10
6.076418593331657
 20
0.6335408413158363
 30
0.0
 10
6.16396507632715
 20
0.624808771654507
 30
0.0
 10
6.166485445059431
 20
0.6236058991943026
 30
0.0
 10
6.229303791590491
 20
0.6190716989118821
 30
0.0
 10
6.231953591811744
 20
0.6181898148550871
 30
0.0
 10
6.269506737143434
 20
0.6155972988904388
 30
0.0
 10
6.2722452709946355
 20
0.6150499479536442
 30
0.0
 10
6.284307061102785
 20
0.6121002379236465
 30
0.0
 10
6.287092267879239
 20
0.6118958267826026
 30
0.0
 10
6.34052213314989
 20
0.5995978858170521
 30
0.0
 10
6.349738704164451
 20
0.5972051092704986
 30
0.0
 10
6.350408718730459
 20
0.5969317153479232
 30
0.0
 10
6.3948996905938555
 20
0.5849335877478159
 30
0.0
 10
6.399973557908844
 20
0.5842216775350967
 30
0.0
 10
6.432844473347079
 20
0.5747008073394801
 30
0.0
 10
6.436519119556804
 20
0.573057655307589
 30
0.0
 10
6.456994132272543
 20
0.5668029013303763
 30
0.0
 10
6.465294350097395
 20
0.5653570099010483
 30
0.0
 10
6.521332372860994
 20
0.5471487076165871
 30
0.0
 10
6.536311829009067
 20
0.5426006214776606
 30
0.0
 10
6.577330047188667
 20
0.5270385447243409
 30
0.0
 10
6.606138290362905
 20
0.5171855452648836
 30
0.0
 10
6.612833124832991
 20
0.515557085903431
 30
0.0
 10
6.66471170194871
 20
0.49388644600923337
 30
0.0
 10
6.681653610099632
 20
0.487458783212231
 30
0.0
 10
6.6946455155379105
 20
0.48383970388905473
 30
0.0
 10
6.713436868474836
 20
0.47540039724968286
 30
0.0
 10
6.739141532623148
 20
0.46349983131678363
 30
0.0
 10
6.816497537627048
 20
0.430482698857658
 30
0.0
 10
6.8581359587389095
 20
0.40479519528068597
 30
0.0
 10
6.905014181863109
 20
0.3657875450612281
 30
0.0
 10
6.943155489131996
 20
0.33514694075050155
 30
0.0
 10
6.958953192515831
 20
0.29310980909351303
 30
0.0
 10
6.9930115796859456
 20
0.25798670820425795
 30
0.0
 10
7.006977598672601
 20
0.17686409894890132
 30
0.0
 10
7.0184210526244755
 20
-4.6629367034256575e-15
 30
0.0
 10
7.0069775986726
 20
-0.17686409894890287
 30
0.0
 10
6.9930115796859456
 20
-0.2579867082042595
 30
0.0
 10
6.95895319251583
 20
-0.29310980909351514
 30
0.0
 10
6.943155489131995
 20
-0.3351469407505031
 30
0.0
 10
6.905014181863107
 20
-0.3657875450612301
 30
0.0
 10
6.8581359587389095
 20
-0.40479519528068775
 30
0.0
 10
6.816497537627041
 20
-0.43048269885766033
 30
0.0
 10
6.739141532623147
 20
-0.46349983131678507
 30
0.0
 10
6.713436868474828
 20
-0.4754003972496842
 30
0.0
 10
6.694645515537908
 20
-0.4838397038890544
 30
0.0
 10
6.681653610095833
 20
-0.48745878321321046
 30
0.0
 10
6.664711701948568
 20
-0.49388644600887277
 30
0.0
 10
6.612833124832994
 20
-0.5155570859034319
 30
0.0
 10
6.606138290362094
 20
-0.5171855452650012
 30
0.0
 10
6.577330047188709
 20
-0.5270385447241552
 30
0.0
 10
6.53631182900907
 20
-0.5426006214776053
 30
0.0
 10
6.521332372860988
 20
-0.5471487076165873
 30
0.0
 10
6.4652943500973965
 20
-0.5653570099010456
 30
0.0
 10
6.456994132272549
 20
-0.5668029013303343
 30
0.0
 10
6.436519119556812
 20
-0.573057655307587
 30
0.0
 10
6.432844473347119
 20
-0.5747008073394642
 30
0.0
 10
6.399973557908895
 20
-0.5842216775350827
 30
0.0
 10
6.394899690593832
 20
-0.5849335877478001
 30
0.0
 10
6.350408718730441
 20
-0.5969317153479132
 30
0.0
 10
6.349738704164461
 20
-0.5972051092704788
 30
0.0
 10
6.340522133149913
 20
-0.5995978858170318
 30
0.0
 10
6.28709226787921
 20
-0.6118958267822254
 30
0.0
 10
6.284307061102757
 20
-0.6121002379232708
 30
0.0
 10
6.272245270994561
 20
-0.615049947953273
 30
0.0
 10
6.269506737143359
 20
-0.615597298890069
 30
0.0
 10
6.231953591811622
 20
-0.6181898148547282
 30
0.0
 10
6.229303791590369
 20
-0.6190716989115245
 30
0.0
 10
6.166485445059264
 20
-0.6236058991939616
 30
0.0
 10
6.163965076326983
 20
-0.6248087716541673
 30
0.0
 10
6.076418593331449
 20
-0.6335408413155181
 30
0.0
 10
6.074066366029566
 20
-0.6350462274528439
 30
0.0
 10
5.962631941064476
 20
-0.6501524625900865
 30
0.0
 10
5.960483982676999
 20
-0.6519372414189194
 30
0.0
 10
5.873422020513072
 20
-0.6576036431268786
 30
0.0
 10
5.848500816901544
 20
-0.6644108277857318
 30
0.0
 10
5.830865206303545
 20
-0.6716735210556435
 30
0.0
 10
5.827914085276996
 20
-0.6730895276657219
 30
0.0
 10
5.826292587157558
 20
-0.6754780973801549
 30
0.0
 10
5.824381887834818
 20
-0.6775148567670886
 30
0.0
 10
5.817695300989964
 20
-0.6787939101519389
 30
0.0
 10
5.811007294966201
 20
-0.683093780706814
 30
0.0
 10
5.803950345232645
 20
-0.6890485195239889
 30
0.0
 10
5.796766118625197
 20
-0.6968240025118371
 30
0.0
 10
5.792622731889838
 20
-0.7041159236863881
 30
0.0
 10
5.787707566548391
 20
-0.7159817895974454
 30
0.0
 10
5.7721393536762164
 20
-0.8329880522646553
 30
0.0
 10
5.762645535584486
 20
-0.8963136976982681
 30
0.0
 10
5.7414420872485215
 20
-1.0233789973635534
 30
0.0
 10
5.729859700629911
 20
-1.0863561223515947
 30
0.0
 10
5.706592513405209
 20
-1.2020776534252269
 30
0.0
 10
5.707388521167991
 20
-1.21489654556911
 30
0.0
 10
5.7089397248464575
 20
-1.2231387258147532
 30
0.0
 10
5.713209995041053
 20
-1.2328256262531896
 30
0.0
 10
5.717951079239773
 20
-1.2407491087291518
 30
0.0
 10
5.722880544962314
 20
-1.2469875924423364
 30
0.0
 10
5.72878952613397
 20
-1.250368474386537
 30
0.0
 10
5.729935363805289
 20
-1.2529152795877974
 30
0.0
 10
5.730693437365767
 20
-1.2557009295860675
 30
0.0
 10
5.733024881919833
 20
-1.2579984404826208
 30
0.0
 10
5.747346753841578
 20
-1.2705938943987354
 30
0.0
 10
5.768707368655696
 20
-1.2851241486010643
 30
0.0
 10
5.8492121959401855
 20
-1.3187525019372823
 30
0.0
 10
5.850664255279148
 20
-1.3211380174745015
 30
0.0
 10
5.951155869199353
 20
-1.3716084537617452
 30
0.0
 10
5.9528918482581386
 20
-1.3737960408822147
 30
0.0
 10
6.032859522941435
 20
-1.4104812794830046
 30
0.0
 10
6.0348527590945205
 20
-1.4124373393850043
 30
0.0
 10
6.092795181913752
 20
-1.4371229479643925
 30
0.0
 10
6.0950150613649345
 20
-1.4388174378358292
 30
0.0
 10
6.12969168514211
 20
-1.4534629704907438
 30
0.0
 10
6.132104113116911
 20
-1.4548698649319096
 30
0.0
 10
6.142554592885927
 20
-1.4615762083820734
 30
0.0
 10
6.145122517287801
 20
-1.462673899125608
 30
0.0
 10
6.191664270178701
 20
-1.4916541526213005
 30
0.0
 10
6.199604528679038
 20
-1.4969098976508828
 30
0.0
 10
6.200149469146215
 20
-1.497386031710573
 30
0.0
 10
6.238334011771429
 20
-1.5231802626113242
 30
0.0
 10
6.242901806091855
 20
-1.5255010815890484
 30
0.0
 10
6.270900263164938
 20
-1.5451792535711233
 30
0.0
 10
6.273842276314668
 20
-1.5479265307674341
 30
0.0
 10
6.291176981068847
 20
-1.560490610682437
 30
0.0
 10
6.298557990017833
 20
-1.5645532360479355
 30
0.0
 10
6.345647492051574
 20
-1.5999704785372966
 30
0.0
 10
6.358338558792518
 20
-1.6091359582844826
 30
0.0
 10
6.392081298709096
 20
-1.6371734324650817
 30
0.0
 10
6.416129368111831
 20
-1.6558465905036994
 30
0.0
 10
6.421932698093686
 20
-1.6595606246440204
 30
0.0
 10
6.463963905533658
 20
-1.6969020359472058
 30
0.0
 10
6.477900795671693
 20
-1.7084824588283674
 30
0.0
 10
6.489013650702517
 20
-1.7161239112510764
 30
0.0
 10
6.504046597918884
 20
-1.7302074953028508
 30
0.0
 10
6.5244944050208336
 20
-1.7498095465532237
 30
0.0
 10
6.586938402918463
 20
-1.8061551734691395
 30
0.0
 10
6.617980020746617
 20
-1.8439708304820288
 30
0.0
 10
6.649652489116595
 20
-1.896086272783506
 30
0.0
 10
6.675778207196706
 20
-1.9374511468616982
 30
0.0
 10
6.677070513100498
 20
-1.9823400966779017
 30
0.0
 10
6.6978790706949445
 20
-2.026618871317054
 30
0.0
 10
6.684747904084729
 20
-2.1078807927943832
 30
0.0
 10
6.638143641086944
 20
-2.2788775904421477
 30
0.0
 10
6.569892545984581
 20
-2.4424430212418207
 30
0.0
 10
6.530342776263372
 20
-2.5146354248154106
 30
0.0
 10
6.486725314237797
 20
-2.5367967189823557
 30
0.0
 10
6.4581341396621825
 20
-2.5714266569917905
 30
0.0
 10
6.412110445670463
 20
-2.5880226066200227
 30
0.0
 10
6.355106450658127
 20
-2.609695380590127
 30
0.0
 10
6.307383395276694
 20
-2.6204710911359297
 30
0.0
 10
6.223498106610793
 20
-2.6265818105227248
 30
0.0
 10
6.1953220846255395
 20
-2.6294912801630113
 30
0.0
 10
6.174808660636661
 20
-2.6313717795662708
 30
0.0
 10
6.1613455793314404
 20
-2.630576302389139
 30
0.0
 10
6.14323457180047
 20
-2.631154668102383
 30
0.0
 10
6.087130473818573
 20
-2.634806186500823
 30
0.0
 10
6.080269624055342
 20
-2.6341726022432894
 30
0.0
 10
6.049823027264388
 20
-2.634137717747106
 30
0.0
 10
6.005974291224678
 20
-2.6355380045865378
 30
0.0
 10
5.990329702173301
 20
-2.6349758414132696
 30
0.0
 10
5.931415747965801
 20
-2.6340020514093894
 30
0.0
 10
5.923095778657572
 20
-2.6326745241308265
 30
0.0
 10
5.901699243310568
 20
-2.6319421525243487
 30
0.0
 10
5.897690168975717
 20
-2.632303118373031
 30
0.0
 10
5.863508868904877
 20
-2.6306349527649773
 30
0.0
 10
5.858478760847998
 20
-2.629660807694693
 30
0.0
 10
5.812502646896379
 20
-2.6265626486985605
 30
0.0
 10
5.811780164706144
 20
-2.6266036760103657
 30
0.0
 10
5.802286039656635
 20
-2.6258741896073214
 30
0.0
 10
5.747758016958152
 20
-2.620157145316543
 30
0.0
 10
5.7450573481782845
 20
-2.6194461257361996
 30
0.0
 10
5.732691329847129
 20
-2.6183195554948036
 30
0.0
 10
5.729923452755035
 20
-2.617948048960202
 30
0.0
 10
5.6935632518625585
 20
-2.6082066089027793
 30
0.0
 10
5.690770677841094
 20
-2.608180321323539
 30
0.0
 10
5.629883750171875
 20
-2.5920717623530263
 30
0.0
 10
5.627109369920091
 20
-2.592391097475884
 30
0.0
 10
5.5414710984685644
 20
-2.5722237429579344
 30
0.0
 10
5.538757523250306
 20
-2.572883796165663
 30
0.0
 10
5.428455936268585
 20
-2.5509888351783574
 30
0.0
 10
5.425844843452884
 20
-2.5519794688190025
 30
0.0
 10
5.341660260915078
 20
-2.5290698763502473
 30
0.0
 10
5.315879067609856
 20
-2.5274163273834254
 30
0.0
 10
5.296840810388613
 20
-2.52855923449902
 30
0.0
 10
5.293589812644674
 20
-2.5289402905343152
 30
0.0
 10
5.29128060444749
 20
-2.530672941374532
 30
0.0
 10
5.288812097392501
 20
-2.531978940463986
 30
0.0
 10
5.282072500311365
 20
-2.531017560009118
 30
0.0
 10
5.274350703214675
 20
-2.532912859711046
 30
0.0
 10
5.265742617949674
 20
-2.5362535665214643
 30
0.0
 10
5.256422957357102
 20
-2.5412750378278366
 30
0.0
 10
5.250136387808906
 20
-2.546826507126168
 30
0.0
 10
5.241634699320182
 20
-2.556453496115133
 30
0.0
 10
5.188918143781547
 20
-2.662065046276673
 30
0.0
 10
5.15937692348148
 20
-2.7188768958744944
 30
0.0
 10
5.098064301106164
 20
-2.832172698699782
 30
0.0
 10
5.066660841086585
 20
-2.887976754559021
 30
0.0
 10
5.007079614528424
 20
-2.9898733305427116
 30
0.0
 10
5.0036702049200805
 20
-3.002256123049955
 30
0.0
 10
5.002461128553714
 20
-3.0105553942465155
 30
0.0
 10
5.003354692299883
 20
-3.0211039861653717
 30
0.0
 10
5.0052661409251895
 20
-3.0301375800282284
 30
0.0
 10
5.007902882247628
 20
-3.0376386403897992
 30
0.0
 10
5.012393927947938
 20
-3.0427549798747555
 30
0.0
 10
5.012650734676646
 20
-3.045535845029032
 30
0.0
 10
5.012463234644795
 20
-3.0484167069094448
 30
0.0
 10
5.013922354533496
 20
-3.051346751137585
 30
0.0
 10
5.0233784907295576
 20
-3.0679100528295007
 30
0.0
 10
5.0388637626871695
 20
-3.088588798072386
 30
0.0
 10
5.104087507894475
 20
-3.1465349491554706
 30
0.0
 10
5.104686315024524
 20
-3.1492626937775325
 30
0.0
 10
5.18334529224358
 20
-3.229628076313573
 30
0.0
 10
5.184276902791755
 20
-3.2322608054087736
 30
0.0
 10
5.248000030784601
 20
-3.292923798116502
 30
0.0
 10
5.249250136293058
 20
-3.2954210760185187
 30
0.0
 10
5.296037674818674
 20
-3.337583024168615
 30
0.0
 10
5.297587075116271
 20
-3.3399064955844042
 30
0.0
 10
5.325629427089419
 20
-3.365017974217572
 30
0.0
 10
5.327454325184074
 20
-3.3671319533201913
 30
0.0
 10
5.335161022975079
 20
-3.376868193818056
 30
0.0
 10
5.337233390547978
 20
-3.3787402123395927
 30
0.0
 10
5.371843509963694
 20
-3.421262318224204
 30
0.0
 10
5.3776470057354935
 20
-3.428811490211573
 30
0.0
 10
5.378007819348597
 20
-3.4294387678950295
 30
0.0
 10
5.40574804504796
 20
-3.4662338969395976
 30
0.0
 10
5.409314774982574
 20
-3.469912127934874
 30
0.0
 10
5.429406706425813
 20
-3.4976151664308506
 30
0.0
 10
5.4312972737407375
 20
-3.5011688586789633
 30
0.0
 10
5.443613186297583
 20
-3.5186807515211793
 30
0.0
 10
5.449275139522925
 20
-3.5249198623263687
 30
0.0
 10
5.4823132426125465
 20
-3.5737080372417673
 30
0.0
 10
5.491340645942786
 20
-3.586497688649541
 30
0.0
 10
5.514151358153825
 20
-3.623972264883711
 30
0.0
 10
5.530833272321032
 20
-3.6494420550841022
 30
0.0
 10
5.5351162169631785
 20
-3.6548391907750104
 30
0.0
 10
5.562745321219901
 20
-3.7038048521607903
 30
0.0
 10
5.572166915045464
 20
-3.7192831166181604
 30
0.0
 10
5.58019646939253
 20
-3.7301188722010505
 30
0.0
 10
5.589841957797234
 20
-3.7483205588038953
 30
0.0
 10
5.602817070672908
 20
-3.7734999089616004
 30
0.0
 10
5.643582285373602
 20
-3.8470681073654838
 30
0.0
 10
5.660663258966041
 20
-3.892914004606568
 30
0.0
 10
5.673697769184926
 20
-3.952489722162294
 30
0.0
 10
5.684976771139998
 20
-4.000096340059427
 30
0.0
 10
5.671623638166879
 20
-4.042972693798438
 30
0.0
 10
5.676927436092261
 20
-4.091608849899357
 30
0.0
 10
5.638122049538433
 20
-4.164204093497963
 30
0.0
 10
5.538520364626447
 20
-4.310803433530756
 30
0.0
 10
5.420857693552795
 20
-4.4433453437749035
 30
0.0
 10
5.360010004324229
 20
-4.498784374558972
 30
0.0
 10
5.311560096248322
 20
-4.505582341912708
 30
0.0
 10
5.273273747883978
 20
-4.529052395152416
 30
0.0
 10
5.224355048544622
 20
-4.529805261443242
 30
0.0
 10
5.163402549011852
 20
-4.531794577816596
 30
0.0
 10
5.114766392910933
 20
-4.526490779891214
 30
0.0
 10
5.0334420932243376
 20
-4.50503289494254
 30
0.0
 10
5.00584802258028
 20
-4.498635982109617
 30
0.0
 10
4.985835475327205
 20
-4.493753892987467
 30
0.0
 10
4.973360151919488
 20
-4.4886300616042965
 30
0.0
 10
4.956042653692031
 20
-4.483296455335823
 30
0.0
 10
4.901792784404926
 20
-4.468533153560521
 30
0.0
 10
4.895509398878262
 20
-4.46570618436926
 30
0.0
 10
4.866723809659667
 20
-4.455787196194192
 30
0.0
 10
4.82479624669303
 20
-4.442873950312862
 30
0.0
 10
4.810181858712883
 20
-4.4372624569300285
 30
0.0
 10
4.754776214144044
 20
-4.417212099894638
 30
0.0
 10
4.747338091124605
 20
-4.413255012087564
 30
0.0
 10
4.727338679752635
 20
-4.405614878724834
 30
0.0
 10
4.723429622704006
 20
-4.404654542139655
 30
0.0
 10
4.6916420122407425
 20
-4.391978112355817
 30
0.0
 10
4.687200753700179
 20
-4.389423475736313
 30
0.0
 10
4.6447217229999005
 20
-4.371564763744058
 30
0.0
 10
4.6440250653411885
 20
-4.371368978499264
 30
0.0
 10
4.6352822220223615
 20
-4.3675962803175405
 30
0.0
 10
4.585564999244928
 20
-4.344483781228778
 30
0.0
 10
4.583241527829138
 20
-4.342934380931181
 30
0.0
 10
4.5719113312397495
 20
-4.337853611784581
 30
0.0
 10
4.569414053337729
 20
-4.3366035062761235
 30
0.0
 10
4.538186988837861
 20
-4.315583746380857
 30
0.0
 10
4.535554259742661
 20
-4.314652135832685
 30
0.0
 10
4.483196794306311
 20
-4.279646429923724
 30
0.0
 10
4.48046904968425
 20
-4.2790476227936765
 30
0.0
 10
4.406019225303198
 20
-4.232166289887193
 30
0.0
 10
4.4032383601489204
 20
-4.231909483158487
 30
0.0
 10
4.306022499605502
 20
-4.175385984804932
 30
0.0
 10
4.303231224783438
 20
-4.17547512273116
 30
0.0
 10
4.231046727648112
 20
-4.126472145908632
 30
0.0
 10
4.2071993369802465
 20
-4.116537051004148
 30
0.0
 10
4.1888215237146795
 20
-4.11143632024542
 30
0.0
 10
4.185622945303335
 20
-4.110741132371813
 30
0.0
 10
4.182876265567627
 20
-4.111630104734429
 30
0.0
 10
4.180117451822631
 20
-4.112063818260396
 30
0.0
 10
4.174055184424576
 20
-4.108966184455451
 30
0.0
 10
4.166136372786413
 20
-4.108251528173123
 30
0.0
 10
4.156909971596634
 20
-4.108616185557468
 30
0.0
 10
4.146464806853575
 20
-4.110339490850164
 30
0.0
 10
4.138716301849268
 20
-4.11354892043388
 30
0.0
 10
4.1275493800783085
 20
-4.1198937988656725
 30
0.0
 10
4.043397138647463
 20
-4.202665986329494
 30
0.0
 10
3.9970097657378343
 20
-4.246807594660927
 30
0.0
 10
3.9022321433208904
 20
-4.334056542444588
 30
0.0
 10
3.8544106620683527
 20
-4.376640293833534
 30
0.0
 10
3.7649719465722935
 20
-4.453669839631168
 30
0.0
 10
3.757726582026328
 20
-4.4642746647947895
 30
0.0
 10
3.753888247800177
 20
-4.471731672131659
 30
0.0
 10
3.7513082736009538
 20
-4.481998851918259
 30
0.0
 10
3.7501829515351126
 20
-4.491163627102319
 30
0.0
 10
3.7502412366219056
 20
-4.499114407831155
 30
0.0
 10
3.7528276723634884
 20
-4.505411770085485
 30
0.0
 10
3.7521676191557605
 20
-4.508125345303744
 30
0.0
 10
3.7510548640693946
 20
-4.510789232980379
 30
0.0
 10
3.751483541012213
 20
-4.5140342947836665
 30
0.0
 10
3.755049222398675
 20
-4.532770553506958
 30
0.0
 10
3.7629810820044254
 20
-4.557356926879541
 30
0.0
 10
3.8058557402906508
 20
-4.633341511112466
 30
0.0
 10
3.805536405167795
 20
-4.636115891364251
 30
0.0
 10
3.8538388249842326
 20
-4.737667383953916
 30
0.0
 10
3.8538651125634744
 20
-4.740459957975381
 30
0.0
 10
3.894438304181638
 20
-4.81852692824685
 30
0.0
 10
3.8948098107162403
 20
-4.82129480533894
 30
0.0
 10
3.925372309165529
 20
-4.876364191767651
 30
0.0
 10
3.9260833287458725
 20
-4.879064860547519
 30
0.0
 10
3.9444525849567804
 20
-4.9119210668042985
 30
0.0
 10
3.9454921971465207
 20
-4.9145130481308374
 30
0.0
 10
3.9496199726721244
 20
-4.926224112945122
 30
0.0
 10
3.9509722102334304
 20
-4.928667596990492
 30
0.0
 10
3.969900152703932
 20
-4.980123625292971
 30
0.0
 10
3.972937986929803
 20
-4.9891481543158225
 30
0.0
 10
3.9730755739352555
 20
-4.989858600352827
 30
0.0
 10
3.987365398820291
 20
-5.03366730437398
 30
0.0
 10
3.9895445538371606
 20
-5.038304353984836
 30
0.0
 10
3.999552687120241
 20
-5.0710302049167435
 30
0.0
 10
4.000186936296614
 20
-5.075005214520358
 30
0.0
 10
4.006149436429519
 20
-5.095567234975318
 30
0.0
 10
4.009478773444997
 20
-5.103306726754679
 30
0.0
 10
4.024885286481747
 20
-5.160178878317499
 30
0.0
 10
4.029270767175852
 20
-5.175206744203936
 30
0.0
 10
4.0386775570686195
 20
-5.218057470678744
 30
0.0
 10
4.046185571753717
 20
-5.247563846068182
 30
0.0
 10
4.048484007547444
 20
-5.25405921991238
 30
0.0
 10
4.058716966464978
 20
-5.309342942189082
 30
0.0
 10
4.062602288095978
 20
-5.327041738098689
 30
0.0
 10
4.066678414954408
 20
-5.339897574590283
 30
0.0
 10
4.069891206213628
 20
-5.360244928572512
 30
0.0
 10
4.073987570053327
 20
-5.38827300435009
 30
0.0
 10
4.088656458006786
 20
-5.4710915184166655
 30
0.0
 10
4.089925798836154
 20
-5.519999541547483
 30
0.0
 10
4.082909859470467
 20
-5.5805795809477905
 30
0.0
 10
4.078119890426919
 20
-5.629269026921923
 30
0.0
 10
4.051568337729733
 20
-5.665486466360944
 30
0.0
 10
4.040792627183931
 20
-5.713209521742377
 30
0.0
 10
3.9805181864472106
 20
-5.7692712663870855
 30
0.0
 10
3.8387124676606166
 20
-5.875586835589223
 30
0.0
 10
3.6843887967509557
 20
-5.962742252703255
 30
0.0
 10
3.6088369792921275
 20
-5.995420231487152
 30
0.0
 10
3.560804924483695
 20
-5.986118206783572
 30
0.0
 10
3.516972322249803
 20
-5.995885030809631
 30
0.0
 10
3.470459717688057
 20
-5.980713229018518
 30
0.0
 10
3.412163862734704
 20
-5.962803514498644
 30
0.0
 10
3.3678850880955515
 20
-5.941994956904197
 30
0.0
 10
3.2979345271358302
 20
-5.895293762407632
 30
0.0
 10
3.2739126535533747
 20
-5.880283671865275
 30
0.0
 10
3.256569653057639
 20
-5.86916804432752
 30
0.0
 10
3.2464339824132384
 20
-5.8602711053731085
 30
0.0
 10
3.2317866131309083
 20
-5.849603506121534
 30
0.0
 10
3.18526978764931
 20
-5.8180252169960776
 30
0.0
 10
3.180244768677799
 20
-5.813311208847911
 30
0.0
 10
3.15623955227783
 20
-5.7945829932716855
 30
0.0
 10
3.1207766644048753
 20
-5.7687555652304905
 30
0.0
 10
3.108776173199201
 20
-5.758702834017413
 30
0.0
 10
3.0628828995652118
 20
-5.721748677248641
 30
0.0
 10
3.057132658878089
 20
-5.715590840777496
 30
0.0
 10
3.040697618026148
 20
-5.701870872657249
 30
0.0
 10
3.0373121852502285
 20
-5.69969330100837
 30
0.0
 10
3.011362945223833
 20
-5.677382294910903
 30
0.0
 10
3.0079918154756817
 20
-5.673524001259174
 30
0.0
 10
2.973613130133193
 20
-5.642840004821622
 30
0.0
 10
2.973017790673082
 20
-5.642428623389425
 30
0.0
 10
2.9659736518177238
 20
-5.636021543816455
 30
0.0
 10
2.926454861491471
 20
-5.59801818783335
 30
0.0
 10
2.924760371620033
 20
-5.595798308382168
 30
0.0
 10
2.9156937993789835
 20
-5.587313920503653
 30
0.0
 10
2.9137377394769817
 20
-5.585320684350567
 30
0.0
 10
2.891027748346111
 20
-5.5553004217572886
 30
0.0
 10
2.888840161225641
 20
-5.553564442698506
 30
0.0
 10
2.8506859018119717
 20
-5.503455001255822
 30
0.0
 10
2.848300386274752
 20
-5.502002941916861
 30
0.0
 10
2.793106802643912
 20
-5.4334879504810925
 30
0.0
 10
2.790559997442651
 20
-5.432342112809775
 30
0.0
 10
2.7169647102869128
 20
-5.34731527518902
 30
0.0
 10
2.714295731396547
 20
-5.346493257923408
 30
0.0
 10
2.6619336299861893
 20
-5.276707129645357
 30
0.0
 10
2.642604276764936
 20
-5.25956711049499
 30
0.0
 10
2.626878428683523
 20
-5.248775485185641
 30
0.0
 10
2.6240788852066994
 20
-5.247079387796188
 30
0.0
 10
2.6211923793009575
 20
-5.247028347731886
 30
0.0
 10
2.6184422191426315
 20
-5.246542776104071
 30
0.0
 10
2.6137142221660086
 20
-5.241644565636553
 30
0.0
 10
2.60645652210039
 20
-5.238397397467194
 30
0.0
 10
2.597611628717111
 20
-5.235746489139631
 30
0.0
 10
2.587172855496907
 20
-5.23398488155035
 30
0.0
 10
2.5788020857841465
 20
-5.234504479924625
 30
0.0
 10
2.5661800399774792
 20
-5.236879681770227
 30
0.0
 10
2.459711313770017
 20
-5.287842855681808
 30
0.0
 10
2.4015045798798367
 20
-5.314530794556517
 30
0.0
 10
2.283532583436477
 20
-5.366278109999278
 30
0.0
 10
2.2244752804714283
 20
-5.391026946699955
 30
0.0
 10
2.114871148646128
 20
-5.4348421157878075
 30
0.0
 10
2.1045749768345106
 20
-5.442519776250513
 30
0.0
 10
2.0985233278198705
 20
-5.44832643727535
 30
0.0
 10
2.0927493959121644
 20
-5.457199596688107
 30
0.0
 10
2.0887092492621813
 20
-5.465502407596038
 30
0.0
 10
2.086182762019788
 20
-5.473041318231097
 30
0.0
 10
2.0865843073573576
 20
-5.479837286340901
 30
0.0
 10
2.0850789212200325
 20
-5.482189513642785
 30
0.0
 10
2.083161495358934
 20
-5.484347753551403
 30
0.0
 10
2.0825132755575066
 20
-5.487556180131129
 30
0.0
 10
2.0798021052288997
 20
-5.506435031530119
 30
0.0
 10
2.0793210124190207
 20
-5.532264717980592
 30
0.0
 10
2.0952004492899867
 20
-5.618053626639416
 30
0.0
 10
2.093997576829783
 20
-5.620573995371698
 30
0.0
 10
2.106709122567224
 20
-5.732306918059137
 30
0.0
 10
2.1058272385104297
 20
-5.73495671828039
 30
0.0
 10
2.118853758884148
 20
-5.821967898552834
 30
0.0
 10
2.1183064079473537
 20
-5.8247064324040325
 30
0.0
 10
2.12933194538731
 20
-5.886715634602236
 30
0.0
 10
2.129127534246265
 20
-5.889500841378688
 30
0.0
 10
2.1358331007561024
 20
-5.926541295494588
 30
0.0
 10
2.135974768928925
 20
-5.929330397649583
 30
0.0
 10
2.1360763136618908
 20
-5.941747211191767
 30
0.0
 10
2.1365618852897077
 20
-5.944497371350092
 30
0.0
 10
2.1377565145510298
 20
-5.999311262981322
 30
0.0
 10
2.137699490755745
 20
-6.008833201290036
 30
0.0
 10
2.1375989414666217
 20
-6.009549827828772
 30
0.0
 10
2.136889841281557
 20
-6.055624753983738
 30
0.0
 10
2.1374452761215297
 20
-6.060718125933598
 30
0.0
 10
2.1362850747110445
 20
-6.094920435559066
 30
0.0
 10
2.1355942750092147
 20
-6.0988860085490035
 30
0.0
 10
2.134557233311057
 20
-6.120269942647793
 30
0.0
 10
2.1351931687910555
 20
-6.12867112137644
 30
0.0
 10
2.1312985570307243
 20
-6.187464269502495
 30
0.0
 10
2.130566880207761
 20
-6.203101847417438
 30
0.0
 10
2.125550376135987
 20
-6.246685183021812
 30
0.0
 10
2.123070881448979
 20
-6.277030669988263
 30
0.0
 10
2.1231357372121313
 20
-6.28392040744362
 30
0.0
 10
2.114863650911046
 20
-6.339531341487231
 30
0.0
 10
2.1127916654617858
 20
-6.357532729687154
 30
0.0
 10
2.1124726532388465
 20
-6.371015517724731
 30
0.0
 10
2.1089045915680513
 20
-6.391303587560644
 30
0.0
 10
2.1036783017881096
 20
-6.4191431120471885
 30
0.0
 10
2.0906612613733273
 20
-6.502237270715693
 30
0.0
 10
2.0759814166649124
 20
-6.548907476543849
 30
0.0
 10
2.049675313608441
 20
-6.603927050523554
 30
0.0
 10
2.02933544103617
 20
-6.648423067608793
 30
0.0
 10
1.9924627413394453
 20
-6.674056871213131
 30
0.0
 10
1.966775237762473
 20
-6.715695292324999
 30
0.0
 10
1.8915634137509947
 20
-6.749148378095961
 30
0.0
 10
1.7229205110627555
 20
-6.803659234888363
 30
0.0
 10
1.5486592046386243
 20
-6.835983517072339
 30
0.0
 10
1.4665904706784327
 20
-6.842359277803746
 30
0.0
 10
1.4241812875700885
 20
-6.817965279755266
 30
0.0
 10
1.3795523740515914
 20
-6.812970487636564
 30
0.0
 10
1.340486226689141
 20
-6.783518117902338
 30
0.0
 10
1.2911642767527916
 20
-6.747650167955318
 30
0.0
 10
1.256041175863536
 20
-6.713591780785203
 30
0.0
 10
1.2050445823054599
 20
-6.646708075808146
 30
0.0
 10
1.1871980485250377
 20
-6.624711383772172
 30
0.0
 10
1.1744039779947344
 20
-6.608566768539259
 30
0.0
 10
1.1677063172991051
 20
-6.596860843399549
 30
0.0
 10
1.1573163467009966
 20
-6.582015251068641
 30
0.0
 10
1.123573384848748
 20
-6.537043972207412
 30
0.0
 10
1.120351271209156
 20
-6.530953761030566
 30
0.0
 10
1.1037277653040625
 20
-6.505445810809073
 30
0.0
 10
1.0785725066892233
 20
-6.4695030031901135
 30
0.0
 10
1.0704863516869636
 20
-6.456098403557924
 30
0.0
 10
1.0390786972935782
 20
-6.406245003344491
 30
0.0
 10
1.035639466741399
 20
-6.3985537153396015
 30
0.0
 10
1.0245497881017283
 20
-6.380240683894906
 30
0.0
 10
1.022054843770191
 20
-6.377081850858988
 30
0.0
 10
1.0047559769814682
 20
-6.34755401214948
 30
0.0
 10
1.002820290242409
 20
-6.342810167450287
 30
0.0
 10
0.9802674142548334
 20
-6.302625973692709
 30
0.0
 10
0.9798379072614711
 20
-6.302043575634526
 30
0.0
 10
0.9752558146156352
 20
-6.293696421158123
 30
0.0
 10
0.9502179308696241
 20
-6.244920461584271
 30
0.0
 10
0.9493360468128285
 20
-6.242270661363017
 30
0.0
 10
0.9435156027048
 20
-6.231302069828066
 30
0.0
 10
0.9423127302445937
 20
-6.228781701095785
 30
0.0
 10
0.9305807924035704
 20
-6.193014097068844
 30
0.0
 10
0.9290754062662446
 20
-6.190661869766961
 30
0.0
 10
0.9092589589070601
 20
-6.130878828298966
 30
0.0
 10
0.9074741800782272
 20
-6.12873086991149
 30
0.0
 10
0.8775179184006904
 20
-6.046006882388131
 30
0.0
 10
0.8754811590137566
 20
-6.044096183065391
 30
0.0
 10
0.8334816365575617
 20
-5.939779983360967
 30
0.0
 10
0.8312241788751404
 20
-5.938135889229154
 30
0.0
 10
0.80435871935928
 20
-5.855129019337857
 30
0.0
 10
0.7916420389319788
 20
-5.83264146297135
 30
0.0
 10
0.7802722956860154
 20
-5.817328383162966
 30
0.0
 10
0.7781751611188195
 20
-5.814815174727479
 30
0.0
 10
0.7754616267466856
 20
-5.813829653219194
 30
0.0
 10
0.7730181427013151
 20
-5.812477415657888
 30
0.0
 10
0.7701367679809725
 20
-5.806309425635521
 30
0.0
 10
0.7643266639048278
 20
-5.800881626635287
 30
0.0
 10
0.7568217597687888
 20
-5.795502419646187
 30
0.0
 10
0.747520581124103
 20
-5.790446796691385
 30
0.0
 10
0.7394346494871423
 20
-5.788220257309967
 30
0.0
 10
0.7267252741591401
 20
-5.786368392594356
 30
0.0
 10
0.6094776016921425
 20
-5.799999902285254
 30
0.0
 10
0.5457591096089438
 20
-5.806342119420126
 30
0.0
 10
0.4173768354779364
 20
-5.816980177951435
 30
0.0
 10
0.35348348594511203
 20
-5.821212179489558
 30
0.0
 10
0.23559124615717444
 20
-5.827064918434563
 30
0.0
 10
0.22336001705726094
 20
-5.830983420554039
 30
0.0
 10
0.21575084332587746
 20
-5.834510493445174
 30
0.0
 10
0.2074086488236726
 20
-5.8410280879804635
 30
0.0
 10
0.20089149016840757
 20
-5.8475691962190055
 30
0.0
 10
0.1960540146920302
 20
-5.853879278814727
 30
0.0
 10
0.19422715595764228
 20
-5.860437404184998
 30
0.0
 10
0.1920395688371727
 20
-5.862173383243782
 30
0.0
 10
0.18952525504531842
 20
-5.8635920966017405
 30
0.0
 10
0.18787038317329746
 20
-5.866416205154126
 30
0.0
 10
0.1791761585028674
 20
-5.883391832744172
 30
0.0
 10
0.1703342471482343
 20
-5.907665784956744
 30
0.0
 10
0.1574976792241216
 20
-5.993962458636212
 30
0.0
 10
0.15554161932212163
 20
-5.9959556947892985
 30
0.0
 10
0.13128479775996
 20
-6.1057620516864
 30
0.0
 10
0.1295903078885236
 20
-6.107981931137584
 30
0.0
 10
0.1136585314080163
 20
-6.194508309910913
 30
0.0
 10
0.11225163696685125
 20
-6.196920737885712
 30
0.0
 10
0.10254542533701544
 20
-6.2591500966233236
 30
0.0
 10
0.10144773459348028
 20
-6.261718021025198
 30
0.0
 10
0.09576295922332123
 20
-6.298928815054897
 30
0.0
 10
0.09499133143449295
 20
-6.301612795542475
 30
0.0
 10
0.09105564142737527
 20
-6.3133898033985485
 30
0.0
 10
0.0906219279014086
 20
-6.316148617143544
 30
0.0
 10
0.07395378733650426
 20
-6.368380436420118
 30
0.0
 10
0.07080808493309726
 20
-6.377367934250849
 30
0.0
 10
0.0704802954250584
 20
-6.378013083686238
 30
0.0
 10
0.054849112177768944
 20
-6.421361298799985
 30
0.0
 10
0.05372063685747458
 20
-6.426359047206274
 30
0.0
 10
0.04151782657862807
 20
-6.458331464573871
 30
0.0
 10
0.039576836865151344
 20
-6.461857869584464
 30
0.0
 10
0.03165263289528597
 20
-6.481746436261555
 30
0.0
 10
0.029526253362992305
 20
-6.489898903866523
 30
0.0
 10
0.006752558420938581
 20
-6.544241898686667
 30
0.0
 10
0.0009830126177856613
 20
-6.5587946144210045
 30
0.0
 10
-0.017913169363265702
 20
-6.598387628477081
 30
0.0
 10
-0.03011148169969846
 20
-6.626283822648989
 30
0.0
 10
-0.03228723409539924
 20
-6.632821313756927
 30
0.0
 10
-0.05816795670973951
 20
-6.682733151971272
 30
0.0
 10
-0.06597271746566391
 20
-6.699086402729732
 30
0.0
 10
-0.07065229884563418
 20
-6.711735073022409
 30
0.0
 10
-0.08061455860023126
 20
-6.729765331543446
 30
0.0
 10
-0.09459715240791577
 20
-6.754399460286109
 30
0.0
 10
-0.1338895228818041
 20
-6.828764722126093
 30
0.0
 10
-0.1629277641725866
 20
-6.868139669687251
 30
0.0
 10
-0.2056733564724289
 20
-6.911636553688999
 30
0.0
 10
-0.2393589917745763
 20
-6.947117308007318
 30
0.0
 10
-0.2825571093198137
 20
-6.959389655406997
 30
0.0
 10
-0.3203727663327056
 20
-6.990431273235158
 30
0.0
 10
-0.4023716054556056
 20
-6.99765053921098
 30
0.0
 10
-0.5795766167749712
 20
-6.9944495864371
 30
0.0
 10
-0.7548916422197519
 20
-6.968439896153472
 30
0.0
 10
-0.8345838719291073
 20
-6.94782252622702
 30
0.0
 10
-0.8667744903012968
 20
-6.910980023034073
 30
0.0
 10
-0.907363479835728
 20
-6.891764877998855
 30
0.0
 10
-0.9347497467584279
 20
-6.851223561582823
 30
0.0
 10
-0.9697529930932653
 20
-6.801284225134004
 30
0.0
 10
-0.9919142872602101
 20
-6.757666763108429
 30
0.0
 10
-1.018430641210945
 20
-6.677848434892756
 30
0.0
 10
-1.0281678863367212
 20
-6.651248824259105
 30
0.0
 10
-1.0350265908391754
 20
-6.631824740901037
 30
0.0
 10
-1.0375604461247443
 20
-6.618578348201058
 30
0.0
 10
-1.042567103507324
 20
-6.601163513072967
 30
0.0
 10
-1.059879628237534
 20
-6.547672580341873
 30
0.0
 10
-1.060949670536113
 20
-6.540866135016722
 30
0.0
 10
-1.068390051141242
 20
-6.511342632353086
 30
0.0
 10
-1.0805117179029953
 20
-6.469179406072001
 30
0.0
 10
-1.0838072763377233
 20
-6.453875534384642
 30
0.0
 10
-1.0973258047970114
 20
-6.396525280194878
 30
0.0
 10
-1.0980813312187578
 20
-6.388134011054203
 30
0.0
 10
-1.1026239088914565
 20
-6.367212417398052
 30
0.0
 10
-1.103957998847239
 20
-6.363414631548883
 30
0.0
 10
-1.1107318917621567
 20
-6.329869759723134
 30
0.0
 10
-1.1110223737986729
 20
-6.324754433157968
 30
0.0
 10
-1.119305486374154
 20
-6.279424622996006
 30
0.0
 10
-1.1195226171535495
 20
-6.2787343201782795
 30
0.0
 10
-1.1211461227531938
 20
-6.269351634505411
 30
0.0
 10
-1.1289898567122876
 20
-6.215088703397628
 30
0.0
 10
-1.1289635691330464
 20
-6.212296129376163
 30
0.0
 10
-1.1309071496754535
 20
-6.200031951272823
 30
0.0
 10
-1.131226484798311
 20
-6.197257571021037
 30
0.0
 10
-1.1307090318446402
 20
-6.159618600448314
 30
0.0
 10
-1.1313690850523699
 20
-6.1569050252300555
 30
0.0
 10
-1.1307003008018401
 20
-6.093926803909273
 30
0.0
 10
-1.1316909344424853
 20
-6.091315711093573
 30
0.0
 10
-1.1331636483946659
 20
-6.003347155125699
 30
0.0
 10
-1.13446964748412
 20
-6.00087864807071
 30
0.0
 10
-1.1403221052929058
 20
-5.888577365153202
 30
0.0
 10
-1.1419234111994274
 20
-5.886289357265121
 30
0.0
 10
-1.1403809394216922
 20
-5.799056828097592
 30
0.0
 10
-1.1451068974111154
 20
-5.773658610177644
 30
0.0
 10
-1.1508884477211858
 20
-5.755483485674378
 30
0.0
 10
-1.1520559163080026
 20
-5.752425511323288
 30
0.0
 10
-1.154302425592484
 20
-5.750612304918384
 30
0.0
 10
-1.1561744441140216
 20
-5.748539937345485
 30
0.0
 10
-1.1568969549179995
 20
-5.741770565193416
 30
0.0
 10
-1.1606298480749666
 20
-5.734750321604962
 30
0.0
 10
-1.1659814901500396
 20
-5.727225736498591
 30
0.0
 10
-1.1731371471903982
 20
-5.719423953371495
 30
0.0
 10
-1.180062004592538
 20
-5.714692556324676
 30
0.0
 10
-1.1914814514188095
 20
-5.708814303324429
 30
0.0
 10
-1.306802465548458
 20
-5.683636963204972
 30
0.0
 10
-1.3691278285131867
 20
-5.668946180963806
 30
0.0
 10
-1.4940081688735152
 20
-5.63732218387531
 30
0.0
 10
-1.5558137291447676
 20
-5.6205787472179525
 30
0.0
 10
-1.6692186234277409
 20
-5.587834820940817
 30
0.0
 10
-1.6820594663559012
 20
-5.587569534210595
 30
0.0
 10
-1.6904015927617373
 20
-5.588434805892099
 30
0.0
 10
-1.7004080436416422
 20
-5.591890553051121
 30
0.0
 10
-1.7086959790377556
 20
-5.595961128046877
 30
0.0
 10
-1.7153202272190857
 20
-5.600358587242995
 30
0.0
 10
-1.7191775215349259
 20
-5.605968195230064
 30
0.0
 10
-1.721810250630126
 20
-5.606899805778238
 30
0.0
 10
-1.7246489874397901
 20
-5.6074252529795965
 30
0.0
 10
-1.7271311803370888
 20
-5.60955900752243
 30
0.0
 10
-1.7408663052015052
 20
-5.62279183865015
 30
0.0
 10
-1.7571108768092276
 20
-5.642879597253414
 30
0.0
 10
-1.7972724082139677
 20
-5.720332452329498
 30
0.0
 10
-1.7997696861159855
 20
-5.721582557837957
 30
0.0
 10
-1.8583662719781224
 20
-5.817563126353742
 30
0.0
 10
-1.8606897433939116
 20
-5.81911252665134
 30
0.0
 10
-1.9038533615399997
 20
-5.895777628190366
 30
0.0
 10
-1.9059673406426183
 20
-5.897602526285019
 30
0.0
 10
-1.9353534827047623
 20
-5.95330852495483
 30
0.0
 10
-1.9372255012262993
 20
-5.955380892527729
 30
0.0
 10
-1.9546845848567194
 20
-5.988729659553153
 30
0.0
 10
-1.9562858907632403
 20
-5.991017667441234
 30
0.0
 10
-1.9638323224296477
 20
-6.000878648070888
 30
0.0
 10
-1.9651383215191005
 20
-6.003347155125877
 30
0.0
 10
-1.9978629802471755
 20
-6.047336773968999
 30
0.0
 10
-2.0037564755926933
 20
-6.054815896476389
 30
0.0
 10
-2.0042759842402735
 20
-6.055319656856582
 30
0.0
 10
-2.033135369302146
 20
-6.091243709204677
 30
0.0
 10
-2.035825466971655
 20
-6.095604250479517
 30
0.0
 10
-2.057748522279039
 20
-6.121882068064291
 30
0.0
 10
-2.060729365651149
 20
-6.124587164394832
 30
0.0
 10
-2.0746820214358936
 20
-6.140825128847853
 30
0.0
 10
-2.079340289763978
 20
-6.1478454389655735
 30
0.0
 10
-2.1185251846704967
 20
-6.1918493737726
 30
0.0
 10
-2.128707379642319
 20
-6.203740214767876
 30
0.0
 10
-2.159435545010534
 20
-6.235052389853763
 30
0.0
 10
-2.1800307985784357
 20
-6.257476305738546
 30
0.0
 10
-2.1842113826006386
 20
-6.262953111897893
 30
0.0
 10
-2.224896163652182
 20
-6.301757132150486
 30
0.0
 10
-2.2375879327835264
 20
-6.3146901170009695
 30
0.0
 10
-2.2461209780668208
 20
-6.325133989858195
 30
0.0
 10
-2.2613978704804225
 20
-6.338952578785314
 30
0.0
 10
-2.2826215373144896
 20
-6.357711821696938
 30
0.0
 10
-2.3439312998226924
 20
-6.415289556692112
 30
0.0
 10
-2.3841811936772483
 20
-6.443102359452759
 30
0.0
 10
-2.43873412702857
 20
-6.470362991171266
 30
0.0
 10
-2.4821151637891203
 20
-6.492983592451647
 30
0.0
 10
-2.5269575128589885
 20
-6.490564584380824
 30
0.0
 10
-2.5728034101000774
 20
-6.507645557973268
 30
0.0
 10
-2.65270341777235
 20
-6.487848684667017
 30
0.0
 10
-2.819267625127333
 20
-6.4272827952278035
 30
0.0
 10
-2.9766382662929196
 20
-6.345757686000729
 30
0.0
 10
-3.0453181021100804
 20
-6.300381397359405
 30
0.0
 10
-3.0638018027565805
 20
-6.255082845913284
 30
0.0
 10
-3.095952421487826
 20
-6.223729607079813
 30
0.0
 10
-3.1086910810079864
 20
-6.176492624678991
 30
0.0
 10
-3.125582478869605
 20
-6.117893603721246
 30
0.0
 10
-3.1323804462233413
 20
-6.069443695645338
 30
0.0
 10
-3.1315431021725484
 20
-5.985340298562187
 30
0.0
 10
-3.132115877045376
 20
-5.957020249878503
 30
0.0
 10
-3.1322959684633744
 20
-5.936421599222832
 30
0.0
 10
-3.130391435801882
 20
-5.923070191150588
 30
0.0
 10
-3.1294722309552356
 20
-5.904973280830453
 30
0.0
 10
-3.128478237877385
 20
-5.848759266788243
 30
0.0
 10
-3.1272802531484825
 20
-5.841974171278647
 30
0.0
 10
-3.124731227765684
 20
-5.811634445790819
 30
0.0
 10
-3.122505731993673
 20
-5.767819840645027
 30
0.0
 10
-3.120653568968609
 20
-5.75227510886386
 30
0.0
 10
-3.1148180291736547
 20
-5.693642790620108
 30
0.0
 10
-3.1128079784539717
 20
-5.685460864558996
 30
0.0
 10
-3.1103111963835066
 20
-5.664197887996008
 30
0.0
 10
-3.110339862616286
 20
-5.660172698359062
 30
0.0
 10
-3.1058547252522897
 20
-5.626245900781708
 30
0.0
 10
-3.1044685243503123
 20
-5.621313417356374
 30
0.0
 10
-3.097584269740412
 20
-5.575750179085553
 30
0.0
 10
-3.097565494816762
 20
-5.575026776529735
 30
0.0
 10
-3.0960544813472084
 20
-5.565625319240422
 30
0.0
 10
-3.085854075236845
 20
-5.511755647160368
 30
0.0
 10
-3.0849224646886717
 20
-5.509122918065167
 30
0.0
 10
-3.0827785645559276
 20
-5.496892167389264
 30
0.0
 10
-3.0821797574258802
 20
-5.494164422767201
 30
0.0
 10
-3.069468987734156
 20
-5.458732852139053
 30
0.0
 10
-3.0692121810054505
 20
-5.4559519869847755
 30
0.0
 10
-3.0481306382960085
 20
-5.3966032532991
 30
0.0
 10
-3.048219776222237
 20
-5.393811978477037
 30
0.0
 10
-3.0210493510408316
 20
-5.31013161207655
 30
0.0
 10
-3.0214830645668003
 20
-5.307372798331555
 30
0.0
 10
-2.990554253114355
 20
-5.199256018739019
 30
0.0
 10
-2.9913258809031844
 20
-5.1965720382514435
 30
0.0
 10
-2.9615426285828867
 20
-5.1145668478951345
 30
0.0
 10
-2.9577657332554845
 20
-5.0890102594273285
 30
0.0
 10
-2.9573325699435693
 20
-5.069942646985224
 30
0.0
 10
-2.957443859213484
 20
-5.066671285688831
 30
0.0
 10
-2.9589798992711565
 20
-5.064226883436078
 30
0.0
 10
-2.960077590014692
 20
-5.061658959034204
 30
0.0
 10
-2.9585629416457833
 20
-5.055021771262743
 30
0.0
 10
-2.9598141069882105
 20
-5.047169835409179
 30
0.0
 10
-2.962432553544201
 20
-5.038315277737779
 30
0.0
 10
-2.9666672625084507
 20
-5.028612778697348
 30
0.0
 10
-2.971680629926014
 20
-5.0218892442703424
 30
0.0
 10
-2.980572673995954
 20
-5.012621602908529
 30
0.0
 10
-3.0814702085174046
 20
-4.951363768447342
 30
0.0
 10
-3.135648522208787
 20
-4.917231961036942
 30
0.0
 10
-3.2434942062022643
 20
-4.846772859110053
 30
0.0
 10
-3.2965143857444765
 20
-4.810868395420228
 30
0.0
 10
-3.3931427545686867
 20
-4.743076116407443
 30
0.0
 10
-3.405201706747621
 20
-4.738655788761091
 30
0.0
 10
-3.4133727869904087
 20
-4.7367654936202
 30
0.0
 10
-3.423959140029093
 20
-4.736784909576832
 30
0.0
 10
-3.433119725765318
 20
-4.737943841367533
 30
0.0
 10
-3.440812906575353
 20
-4.739952144226539
 30
0.0
 10
-3.4462826387814363
 20
-4.744005346762971
 30
0.0
 10
-3.4490752128029007
 20
-4.744031634342212
 30
0.0
 10
-3.451930751449508
 20
-4.743606875029552
 30
0.0
 10
-3.4549712812564706
 20
-4.744819050149503
 30
0.0
 10
-3.4722588924133926
 20
-4.752875102233678
 30
0.0
 10
-3.4941457728800085
 20
-4.76659984688928
 30
0.0
 10
-3.5572801426673055
 20
-4.826815664709615
 30
0.0
 10
-3.560048019759398
 20
-4.827187171244218
 30
0.0
 10
-3.646634520623638
 20
-4.898940967488034
 30
0.0
 10
-3.649335189403506
 20
-4.89965198706838
 30
0.0
 10
-3.715053201436503
 20
-4.958147958039732
 30
0.0
 10
-3.7176451827630412
 20
-4.959187570229472
 30
0.0
 10
-3.7635268107920856
 20
-5.002333599507979
 30
0.0
 10
-3.7659702948374556
 20
-5.003685837069285
 30
0.0
 10
-3.793311724111186
 20
-5.02955872072379
 30
0.0
 10
-3.7955691817936072
 20
-5.031202814855604
 30
0.0
 10
-3.8059085821532967
 20
-5.038079177998734
 30
0.0
 10
-3.8079453415402296
 20
-5.039989877321475
 30
0.0
 10
-3.85318029388289
 20
-5.070970337960229
 30
0.0
 10
-3.8611829305028293
 20
-5.076130606170059
 30
0.0
 10
-3.861837861466978
 20
-5.0764383872412155
 30
0.0
 10
-3.9007980861724825
 20
-5.101045348332635
 30
0.0
 10
-3.9047582923675486
 20
-5.104296150168128
 30
0.0
 10
-3.934025889489663
 20
-5.12203175869242
 30
0.0
 10
-3.937723565888488
 20
-5.1236224071816
 30
0.0
 10
-3.956192686736074
 20
-5.134450134004087
 30
0.0
 10
-3.96287804820612
 20
-5.13957752710197
 30
0.0
 10
-4.014227851697692
 20
-5.168473892768139
 30
0.0
 10
-4.027719297019962
 20
-5.176414301897104
 30
0.0
 10
-4.066949572261079
 20
-5.196052477983791
 30
0.0
 10
-4.093709951768077
 20
-5.210574136352428
 30
0.0
 10
-4.099442336269532
 20
-5.214396760634417
 30
0.0
 10
-4.150522348441922
 20
-5.237887945224474
 30
0.0
 10
-4.166725775830216
 20
-5.2459991745825
 30
0.0
 10
-4.178187597156549
 20
-5.253106494326806
 30
0.0
 10
-4.197123633890733
 20
-5.261215955132256
 30
0.0
 10
-4.22328846013059
 20
-5.272067457163722
 30
0.0
 10
-4.29997175058636
 20
-5.3066182243167495
 30
0.0
 10
-4.3470715964640965
 20
-5.319854933537669
 30
0.0
 10
-4.4075202140623055
 20
-5.327925200533952
 30
0.0
 10
-4.455895643822114
 20
-5.3352343556328705
 30
0.0
 10
-4.497522860094155
 20
-5.318386129150797
 30
0.0
 10
-4.5464308832249785
 20
-5.319655469980169
 30
0.0
 10
-4.615573653838974
 20
-5.274987755794717
 30
0.0
 10
-4.7534472408526955
 20
-5.163620183587513
 30
0.0
 10
-4.875819946911705
 20
-5.035414165994152
 30
0.0
 10
-4.926044862948428
 20
-4.970196183597905
 30
0.0
 10
-4.928818650100025
 20
-4.921350384827245
 30
0.0
 10
-4.949046879620305
 20
-4.881256662118753
 30
0.0
 10
-4.945757500318248
 20
-4.832442873733569
 30
0.0
 10
-4.942706604651298
 20
-4.771534281445165
 30
0.0
 10
-4.933404579947718
 20
-4.723502226636732
 30
0.0
 10
-4.9053042771160325
 20
-4.6442276687587265
 30
0.0
 10
-4.896650512690922
 20
-4.617256098730715
 30
0.0
 10
-4.8901324753249185
 20
-4.597715064196982
 30
0.0
 10
-4.883995940382105
 20
-4.585705472985541
 30
0.0
 10
-4.877250483414299
 20
-4.5688875685090435
 30
0.0
 10
-4.858057687101766
 20
-4.516042133827493
 30
0.0
 10
-4.8547214955794065
 20
-4.510013658513521
 30
0.0
 10
-4.842459290661109
 20
-4.482145490227452
 30
0.0
 10
-4.826127799354359
 20
-4.441427498538147
 30
0.0
 10
-4.819328625472539
 20
-4.427326419553025
 30
0.0
 10
-4.794771388707854
 20
-4.373765758711151
 30
0.0
 10
-4.79021358103137
 20
-4.3666798143739864
 30
0.0
 10
-4.780948004296642
 20
-4.347379628343836
 30
0.0
 10
-4.7796681403752945
 20
-4.34356322667353
 30
0.0
 10
-4.764410006959849
 20
-4.312930998290581
 30
0.0
 10
-4.761497339496231
 20
-4.30871586911958
 30
0.0
 10
-4.74019173350815
 20
-4.267856686593028
 30
0.0
 10
-4.739939087435754
 20
-4.26717857619079
 30
0.0
 10
-4.735457296652218
 20
-4.25877714106097
 30
0.0
 10
-4.708318122750064
 20
-4.211138342852603
 30
0.0
 10
-4.706582143691279
 20
-4.208950755732133
 30
0.0
 10
-4.7005830877288055
 20
-4.198078824099053
 30
0.0
 10
-4.699131028389843
 20
-4.195693308561831
 30
0.0
 10
-4.675604351084076
 20
-4.16630869833328
 30
0.0
 10
-4.674458513412759
 20
-4.163761893132019
 30
0.0
 10
-4.635248724510811
 20
-4.114474003266779
 30
0.0
 10
-4.634426707245199
 20
-4.111805024376414
 30
0.0
 10
-4.581557480091197
 20
-4.041480913677476
 30
0.0
 10
-4.581071908463382
 20
-4.03873075351915
 30
0.0
 10
-4.516713444380535
 20
-3.9465146079251228
 30
0.0
 10
-4.516571776207714
 20
-3.943725505770129
 30
0.0
 10
-4.4617752208685335
 20
-3.875834189041779
 30
0.0
 10
-4.449904757437599
 20
-3.85288868293793
 30
0.0
 10
-4.443303820469766
 20
-3.83499485422958
 30
0.0
 10
-4.4423468705035525
 20
-3.8318646087447505
 30
0.0
 10
-4.443005987560049
 20
-3.8290538995570405
 30
0.0
 10
-4.443210398701094
 20
-3.826268692780587
 30
0.0
 10
-4.439622726812262
 20
-3.8204829316713513
 30
0.0
 10
-4.4382565811614665
 20
-3.81265018263775
 30
0.0
 10
-4.437858082884649
 20
-3.8034251811176367
 30
0.0
 10
-4.4387129473482325
 20
-3.7928733824846845
 30
0.0
 10
-4.441271548631116
 20
-3.784886309959044
 30
0.0
 10
-4.446672598995466
 20
-3.7732335729794886
 30
0.0
 10
-4.522212840456764
 20
-3.6825334810536785
 30
0.0
 10
-4.562373043923186
 20
-3.63265935941652
 30
0.0
 10
-4.641497318290915
 20
-3.5310004896306273
 30
0.0
 10
-4.679986557957838
 20
-3.479825804664284
 30
0.0
 10
-4.749367218217557
 20
-3.384331518252476
 30
0.0
 10
-4.759337505064755
 20
-3.376235160778926
 30
0.0
 10
-4.766452075812816
 20
-3.3717941416251063
 30
0.0
 10
-4.776471135394345
 20
-3.368375122359179
 30
0.0
 10
-4.78551167986503
 20
-3.3664968227026226
 30
0.0
 10
-4.793440117791002
 20
-3.3658983384477126
 30
0.0
 10
-4.79992955753116
 20
-3.367955908146768
 30
0.0
 10
-4.802579357752413
 20
-3.367074024089973
 30
0.0
 10
-4.805142256315355
 20
-3.3657450875256383
 30
0.0
 10
-4.808411634448717
 20
-3.3659043252396277
 30
0.0
 10
-4.827378350984366
 20
-3.3679106000344086
 30
0.0
 10
-4.852535757201377
 20
-3.373785041697559
 30
0.0
 10
-4.931801376774095
 20
-3.410238504056629
 30
0.0
 10
-4.934539910625296
 20
-3.409691153119835
 30
0.0
 10
-5.03973333559501
 20
-3.449442539893801
 30
0.0
 10
-5.042518542371463
 20
-3.4492381287527576
 30
0.0
 10
-5.123669381967572
 20
-3.4832260230431813
 30
0.0
 10
-5.126458484122565
 20
-3.483367691216004
 30
0.0
 10
-5.183863611794751
 20
-3.5092782093512596
 30
0.0
 10
-5.186613771953077
 20
-3.509763780979075
 30
0.0
 10
-5.220874678762322
 20
-3.525357052859543
 30
0.0
 10
-5.223543657652688
 20
-3.526179070125157
 30
0.0
 10
-5.235555592244361
 20
-3.5293256551374386
 30
0.0
 10
-5.238102397445621
 20
-3.530471492808758
 30
0.0
 10
-5.290945734423936
 20
-3.5450855816215583
 30
0.0
 10
-5.300190302466825
 20
-3.5473678004034834
 30
0.0
 10
-5.300909683815276
 20
-3.547446249310827
 30
0.0
 10
-5.345748803287398
 20
-3.558069573094976
 30
0.0
 10
-5.350549968217855
 20
-3.5598583606708587
 30
0.0
 10
-5.383990508872959
 20
-3.5671298317547393
 30
0.0
 10
-5.388004317685326
 20
-3.5674336609573016
 30
0.0
 10
-5.408988487773979
 20
-3.5716777979385452
 30
0.0
 10
-5.416976479736636
 20
-3.5743566414147354
 30
0.0
 10
-5.474926643830654
 20
-3.5850140683468052
 30
0.0
 10
-5.4902653320613615
 20
-3.588143579072186
 30
0.0
 10
-5.533746508132567
 20
-3.593979655062986
 30
0.0
 10
-5.563772111229007
 20
-3.5990254089044953
 30
0.0
 10
-5.570435103401871
 20
-3.600779610654044
 30
0.0
 10
-5.626375034788175
 20
-3.606412325227949
 30
0.0
 10
-5.644334227653816
 20
-3.6088228215338827
 30
0.0
 10
-5.657482758834
 20
-3.611823399789548
 30
0.0
 10
-5.678025926485733
 20
-3.6133449465638074
 30
0.0
 10
-5.706296547219181
 20
-3.6151127790916027
 30
0.0
 10
-5.7900435412377895
 20
-3.622892466671063
 30
0.0
 10
-5.838889340008444
 20
-3.6201186795194635
 30
0.0
 10
-5.898683096179831
 20
-3.6081240431413795
 30
0.0
 10
-5.946810690502289
 20
-3.599329691690644
 30
0.0
 10
-5.980711819180618
 20
-3.5698780135638204
 30
0.0
 10
-6.02738202500878
 20
-3.555198168855406
 30
0.0
 10
-6.078274866507847
 20
-3.4905000537137445
 30
0.0
 10
-6.1725170906982445
 20
-3.3403992032331287
 30
0.0
 10
-6.2466308801410095
 20
-3.1794053886010514
 30
0.0
 10
-6.272958227424847
 20
-3.1014130928037797
 30
0.0
 10
-6.259721518203922
 20
-3.0543132469260383
 30
0.0
 10
-6.265835315971393
 20
-3.009823817316197
 30
0.0
 10
-6.246874353134476
 20
-2.9647229543421556
 30
0.0
 10
-6.2242117758239965
 20
-2.908105181791726
 30
0.0
 10
-6.199817777775516
 20
-2.865695998683382
 30
0.0
 10
-6.147499619995874
 20
-2.7998409084281084
 30
0.0
 10
-6.130557085925277
 20
-2.777140605175335
 30
0.0
 10
-6.1180472502616485
 20
-2.76077476106566
 30
0.0
 10
-6.108343701816716
 20
-2.7514084122707896
 30
0.0
 10
-6.096502967656763
 20
-2.737691994544634
 30
0.0
 10
-6.061191205396931
 20
-2.6939417620528916
 30
0.0
 10
-6.056078335198907
 20
-2.6893231857762454
 30
0.0
 10
-6.035431750915723
 20
-2.666946523144917
 30
0.0
 10
-6.006764034566515
 20
-2.6337375711163715
 30
0.0
 10
-5.995754645818087
 20
-2.622608215636119
 30
0.0
 10
-5.955136869731915
 20
-2.5799233408776203
 30
0.0
 10
-5.94852521428205
 20
-2.5747012502830913
 30
0.0
 10
-5.9334949118925016
 20
-2.559455329415387
 30
0.0
 10
-5.931045210932041
 20
-2.5562612820502717
 30
0.0
 10
-5.906667536975044
 20
-2.5322431001150165
 30
0.0
 10
-5.902544035664161
 20
-2.529202099848495
 30
0.0
 10
-5.869125871297243
 20
-2.4974746994885035
 30
0.0
 10
-5.868666732198254
 20
-2.4969153650238924
 30
0.0
 10
-5.861699835674281
 20
-2.4904243779115816
 30
0.0
 10
-5.820562844580306
 20
-2.454178856552893
 30
0.0
 10
-5.818210617278421
 20
-2.452673470415567
 30
0.0
 10
-5.809006496284695
 20
-2.4443385003131537
 30
0.0
 10
-5.806858537897217
 20
-2.44255372148432
 30
0.0
 10
-5.775065433517499
 20
-2.4224003501228357
 30
0.0
 10
-5.773154734194759
 20
-2.420363590735902
 30
0.0
 10
-5.7200656881303935
 20
-2.3864776523384066
 30
0.0
 10
-5.718421593998581
 20
-2.3842201946559856
 30
0.0
 10
-5.645582765984702
 20
-2.334873048243832
 30
0.0
 10
-5.644230528423398
 20
-2.332429564198461
 30
0.0
 10
-5.553416649917988
 20
-2.2661071028589834
 30
0.0
 10
-5.55237703772825
 20
-2.263515121532444
 30
0.0
 10
-5.478505236397347
 20
-2.217094756041889
 30
0.0
 10
-5.459827553764839
 20
-2.199246833924559
 30
0.0
 10
-5.447774157085643
 20
-2.1844658629418734
 30
0.0
 10
-5.445852668260748
 20
-2.1818159439376514
 30
0.0
 10
-5.445563436755744
 20
-2.17894351176812
 30
0.0
 10
-5.444852417175401
 20
-2.1762428429882523
 30
0.0
 10
-5.439580501684265
 20
-2.171935485532761
 30
0.0
 10
-5.435745088119444
 20
-2.164970723214536
 30
0.0
 10
-5.432372828481448
 20
-2.1563749499010605
 30
0.0
 10
-5.429755210615149
 20
-2.146117302785493
 30
0.0
 10
-5.429581781613563
 20
-2.13773221540157
 30
0.0
 10
-5.430906550659416
 20
-2.1249571376668515
 30
0.0
 10
-5.472903541770613
 20
-2.014643550593511
 30
0.0
 10
-5.494693653816725
 20
-1.9544317496857124
 30
0.0
 10
-5.536522175691348
 20
-1.8325894279820085
 30
0.0
 10
-5.556309569142983
 20
-1.7716900929123007
 30
0.0
 10
-5.590924049747206
 20
-1.658842086780713
 30
0.0
 10
-5.597725235977833
 20
-1.647947065440154
 30
0.0
 10
-5.603012323096675
 20
-1.6414365756082336
 30
0.0
 10
-5.611378368653665
 20
-1.63494962490876
 30
0.0
 10
-5.619319188586908
 20
-1.6302376367175566
 30
0.0
 10
-5.62662371435715
 20
-1.627097220404191
 30
0.0
 10
-5.633429630141503
 20
-1.626936187662493
 30
0.0
 10
-5.635649509592684
 20
-1.6252416977910564
 30
0.0
 10
-5.6376420382451995
 20
-1.6231525948723693
 30
0.0
 10
-5.640785976854581
 20
-1.6222416393032575
 30
0.0
 10
-5.659376460733391
 20
-1.6179807258040697
 30
0.0
 10
-5.685078197379804
 20
-1.6153682775692122
 30
0.0
 10
-5.771885406924428
 20
-1.6241090861866638
 30
0.0
 10
-5.774297834899229
 20
-1.622702191745499
 30
0.0
 10
-5.8866988441347825
 20
-1.626143489486338
 30
0.0
 10
-5.8892667685366575
 20
-1.6250457987428035
 30
0.0
 10
-5.977056483040625
 20
-1.6308425006294138
 30
0.0
 10
-5.979740463528201
 20
-1.6300708728405857
 30
0.0
 10
-6.0424483545279175
 20
-1.6359380731495212
 30
0.0
 10
-6.0452071682729125
 20
-1.6355043596235541
 30
0.0
 10
-6.082674851752147
 20
-1.6391282467671933
 30
0.0
 10
-6.085466126574212
 20
-1.6390391088409664
 30
0.0
 10
-6.097848915900492
 20
-1.638114934412021
 30
0.0
 10
-6.100629781054769
 20
-1.6383717411407284
 30
0.0
 10
-6.155355107158282
 20
-1.6350357948437557
 30
0.0
 10
-6.1648398142324226
 20
-1.634192650380481
 30
0.0
 10
-6.165545689833719
 20
-1.6340332659676409
 30
0.0
 10
-6.211404689727029
 20
-1.6295217504746544
 30
0.0
 10
-6.216526532674913
 20
-1.6296546809011807
 30
0.0
 10
-6.250516215399574
 20
-1.625674037824213
 30
0.0
 10
-6.2544111981600015
 20
-1.6246581231316641
 30
0.0
 10
-6.27563645705767
 20
-1.6218587521751773
 30
0.0
 10
-6.284061456637319
 20
-1.6217987517724888
 30
0.0
 10
-6.3423321818647524
 20
-1.6130623423953536
 30
0.0
 10
-6.357855928129829
 20
-1.6110418236707038
 30
0.0
 10
-6.4008761449238465
 20
-1.6024433701759602
 30
0.0
 10
-6.4309132316189945
 20
-1.5974664337686688
 30
0.0
 10
-6.4377847928743615
 20
-1.5969621180069695
 30
0.0
 10
-6.492522683911407
 20
-1.5841259705400677
 30
0.0
 10
-6.510291485041814
 20
-1.5805745191164573
 30
0.0
 10
-6.523701878701992
 20
-1.5791431966707106
 30
0.0
 10
-6.54362600629612
 20
-1.5739119462115587
 30
0.0
 10
-6.570938861102812
 20
-1.5664045371505495
 30
0.0
 10
-6.652674272413841
 20
-1.5465700952929173
 30
0.0
 10
-6.6979728238599545
 20
-1.5280863946464163
 30
0.0
 10
-6.750632137327631
 20
-1.4973266598614914
 30
0.0
 10
-6.793296524591331
 20
-1.4733818062992095
 30
0.0
 10
-6.815797852353438
 20
-1.4345182228425493
 30
0.0
 10
-6.855172799914604
 20
-1.405479981551766
 30
0.0
 10
-6.882300683238518
 20
-1.3277625101241843
 30
0.0
 10
-6.922698937295785
 20
-1.1551941375743988
 30
0.0
 10
-6.9405224310422495
 20
-0.9788587037954103
 30
0.0
 10
-6.940099232984115
 20
-0.8965437700219056
 30
0.0
 10
-6.912286430223461
 20
-0.8562938761673464
 30
0.0
 10
-6.903623271384672
 20
-0.812229859679009
 30
0.0
 10
-6.871045439545926
 20
-0.7757293004313391
 30
0.0
 10
-6.8312270224896245
 20
-0.7295377617899812
 30
0.0
 10
-6.794384519296677
 20
-0.6973471434177917
 30
0.0
 10
-6.723517990764364
 20
-0.6520479416614191
 30
0.0
 10
-6.700122673505332
 20
-0.6360788352728179
 30
0.0
 10
-6.682976674348332
 20
-0.6246616747387206
 30
0.0
 10
-6.670757642441357
 20
-0.6189535575862251
 30
0.0
 10
-6.655104758363406
 20
-0.6098250133031895
 30
0.0
 10
-6.607500607515574
 20
-0.5799109995465344
 30
0.0
 10
-6.601165117462198
 20
-0.5772028167113836
 30
0.0
 10
-6.574371531585973
 20
-0.5627425183405954
 30
0.0
 10
-6.536474182086196
 20
-0.5406413112150852
 30
0.0
 10
-6.522447616570319
 20
-0.5336897175957296
 30
0.0
 10
-6.470170867451329
 20
-0.5065061974247644
 30
0.0
 10
-6.46222183968648
 20
-0.503713855117871
 30
0.0
 10
-6.443055578125191
 20
-0.494174331503465
 30
0.0
 10
-6.4397015032357094
 20
-0.49194876303630264
 30
0.0
 10
-6.408845987968986
 20
-0.4771473702419171
 30
0.0
 10
-6.403958498160587
 20
-0.4756100384447337
 30
0.0
 10
-6.362049152060236
 20
-0.4564525763816477
 30
0.0
 10
-6.361433274780307
 20
-0.456072630422874
 30
0.0
 10
-6.352736243856807
 20
-0.4521954904997316
 30
0.0
 10
-6.302059266862226
 20
-0.4312710106371471
 30
0.0
 10
-6.299345691643967
 20
-0.43061095742941813
 30
0.0
 10
-6.287933914945312
 20
-0.42571617219865443
 30
0.0
 10
-6.28532282212961
 20
-0.42472553855800904
 30
0.0
 10
-6.248708566856325
 20
-0.41598733656238523
 30
0.0
 10
-6.2462400598013375
 20
-0.4146813374729309
 30
0.0
 10
-6.185024778477051
 20
-0.3998694177630569
 30
0.0
 10
-6.182736770588971
 20
-0.3982681118565351
 30
0.0
 10
-6.0978215589413844
 20
-0.3752454587447923
 30
0.0
 10
-6.095749191368486
 20
-0.3733734402232546
 30
0.0
 10
-5.988320991299086
 20
-0.3401317309234778
 30
0.0
 10
-5.986496093204433
 20
-0.3380177518208579
 30
0.0
 10
-5.901554201795111
 20
-0.31809870445518346
 30
0.0
 10
-5.8780933166883695
 20
-0.3072824656248319
 30
0.0
 10
-5.86189363285572
 20
-0.2972160999241794
 30
0.0
 10
-5.859215828301294
 20
-0.29533366724240173
 30
0.0
 10
-5.858009590956245
 20
-0.29271078468699563
 30
0.0
 10
-5.856460190658648
 20
-0.2903873132712058
 30
0.0
 10
-5.85007532541087
 20
-0.288025128485298
 30
0.0
 10
-5.844186270504346
 20
-0.28268309294905203
 30
0.0
 10
-5.838205686162949
 20
-0.27564803325789405
 30
0.0
 10
-5.832399245479106
 20
-0.2667961128884778
 30
0.0
 10
-5.8295125799164005
 20
-0.2589216649723567
 30
0.0
 10
-5.8266175083617275
 20
-0.2464086243807866
 30
0.0
 10
-5.830520223485468
 20
-0.1284357310109775
 30
0.0
 10
-5.831578947362649
 20
-0.06441113374325225
 30
0.0
 10
-5.831578947362661
 20
0.06441113374325291
 30
0.0
 10
-5.830520223485479
 20
0.12843573101097672
 30
0.0
 10
-5.826617508361731
 20
0.2464086243807581
 30
0.0
 10
-5.829512579916423
 20
0.2589216649724022
 30
0.0
 10
-5.83239924547911
 20
0.2667961128884759
 30
0.0
 10
-5.838205686162888
 20
0.27564803325779685
 30
0.0
 10
-5.844186270504406
 20
0.28268309294910077
 30
0.0
 10
-5.850075325410316
 20
0.2880251284847895
 30
0.0
 10
-5.856460190658965
 20
0.29038731327099676
 30
0.0
 10
-5.858009590956562
 20
0.2927107846867859
 30
0.0
 10
-5.859215828301881
 20
0.29533366724281374
 30
0.0
 10
-5.861893632855724
 20
0.2972160999241815
 30
0.0
 10
-5.8780933166883464
 20
0.3072824656248163
 30
0.0
 10
-5.9015542017949905
 20
0.318098704455124
 30
0.0
 10
-5.986496093204721
 20
0.33801775182061156
 30
0.0
 10
-5.988320991299376
 20
0.34013173092323057
 30
0.0
 10
-6.095749191368741
 20
0.3733734402229746
 30
0.0
 10
-6.097821558941641
 20
0.37524545874451115
 30
0.0
 10
-6.182736770589191
 20
0.39826811185622574
 30
0.0
 10
-6.185024778477271
 20
0.3998694177627462
 30
0.0
 10
-6.246240059801516
 20
0.4146813374725965
 30
0.0
 10
-6.2487085668565046
 20
0.4159873365620497
 30
0.0
 10
-6.285322822129745
 20
0.42472553855765494
 30
0.0
 10
-6.287933914945446
 20
0.4257161721982988
 30
0.0
 10
-6.299345691644057
 20
0.4306109574290507
 30
0.0
 10
-6.302059266862317
 20
0.4312710106367782
 30
0.0
 10
-6.352736243856787
 20
0.452195490499706
 30
0.0
 10
-6.3614332747803
 20
0.45607263042285084
 30
0.0
 10
-6.362049152060254
 20
0.4564525763816389
 30
0.0
 10
-6.403958498160613
 20
0.4756100384447204
 30
0.0
 10
-6.408845987968938
 20
0.4771473702418932
 30
0.0
 10
-6.439701503235672
 20
0.49194876303627844
 30
0.0
 10
-6.443055578125183
 20
0.49417433150345996
 30
0.0
 10
-6.46222183968648
 20
0.5037138551178266
 30
0.0
 10
-6.470170867451327
 20
0.5065061974247599
 30
0.0
 10
-6.522447616570323
 20
0.5336897175957289
 30
0.0
 10
-6.5364741820862005
 20
0.5406413112150292
 30
0.0
 10
-6.5743715315859586
 20
0.5627425183404045
 30
0.0
 10
-6.601165117462978
 20
0.577202816711631
 30
0.0
 10
-6.607500607515571
 20
0.5799109995465331
 30
0.0
 10
-6.655104758363603
 20
0.6098250133028547
 30
0.0
 10
-6.67075764244494
 20
0.6189535575878131
 30
0.0
 10
-6.682976674348334
 20
0.6246616747387188
 30
0.0
 10
-6.70012267350534
 20
0.6360788352728188
 30
0.0
 10
-6.723517990764364
 20
0.6520479416614187
 30
0.0
 10
-6.794384519296683
 20
0.6973471434177934
 30
0.0
 10
-6.831227022489624
 20
0.7295377617899811
 30
0.0
 10
-6.871045439545927
 20
0.7757293004313395
 30
0.0
 10
-6.903623271384672
 20
0.812229859679009
 30
0.0
 10
-6.912286430223461
 20
0.8562938761673466
 30
0.0
 10
-6.940099232984115
 20
0.8965437700219054
 30
0.0
 10
-6.9405224310422495
 20
0.9788587037954102
 30
0.0
  0
ENDSEC
  0
EOF
