999
DXF generated by OpenJsCad
  0
SECTION
  2
HEADER
  0
ENDSEC
  0
SECTION
  2
TABLES
  0
TABLE
  2
LTYPE
  70
1
  0
LTYPE
  2
CONTINUOUS
  3
Solid Line
  72
65
  73
0
  40
0.0
  0
ENDTAB
  0
TABLE
  2
LAYER
  70
1
  0
LAYER
  2
OpenJsCad
  62
7
  6
continuous
  0
ENDTAB
  0
TABLE
  2
STYLE
  70
0
  0
ENDTAB
  0
TABLE
  2
VIEW
  70
0
  0
ENDTAB
  0
ENDSEC
  0
SECTION
  2
BLOCKS
  0
ENDSEC
  0
SECTION
  2
ENTITIES
  0
LWPOLYLINE
  8
OpenJsCad
  90
826
  70
1
 10
5.148600629517448
 20
-2.5504510200388864
 30
0.0
 10
5.259585714723175
 20
-2.3417184330337575
 30
0.0
 10
5.34044073930405
 20
-2.119571078748357
 30
0.0
 10
5.303721299170983
 20
-2.067360014576825
 30
0.0
 10
5.22851494022704
 20
-1.9694138942762713
 30
0.0
 10
5.154685647675307
 20
-1.8811722729873541
 30
0.0
 10
5.082904752857691
 20
-1.8023366395352347
 30
0.0
 10
5.013820535296861
 20
-1.7325696904160977
 30
0.0
 10
4.948056169089272
 20
-1.6714967560012985
 30
0.0
 10
4.886207748924757
 20
-1.618707329772352
 30
0.0
 10
4.828842401031992
 20
-1.573756696664358
 30
0.0
 10
4.776496483653621
 20
-1.5361676558904547
 30
0.0
 10
4.729673881690191
 20
-1.5054323336305986
 30
0.0
 10
4.688844399836671
 20
-1.4810140806869032
 30
0.0
 10
4.654442258293756
 20
-1.4623494500077403
 30
0.0
 10
4.626864694892426
 20
-1.4488502487931376
 30
0.0
 10
4.606470673946399
 20
-1.4399056672690576
 30
0.0
 10
4.593579636807131
 20
-1.4348843278257462
 30
0.0
 10
4.589908425866515
 20
-1.4336287476970255
 30
0.0
 10
4.52719067488615
 20
-1.4178964067260003
 30
0.0
 10
4.454933477466948
 20
-1.3936278508021862
 30
0.0
 10
4.3926666666019205
 20
-1.3661681116854743
 30
0.0
 10
4.340515135226417
 20
-1.3363115896047708
 30
0.0
 10
4.298554619399508
 20
-1.30485724990415
 30
0.0
 10
4.2668120911527865
 20
-1.27260470907701
 30
0.0
 10
4.2452650299281265
 20
-1.240353332695084
 30
0.0
 10
4.2338422460196155
 20
-1.2088980219602554
 30
0.0
 10
4.232423908052852
 20
-1.1790271886242376
 30
0.0
 10
4.277545730422942
 20
-1.003289293346031
 30
0.0
 10
4.315806991095615
 20
-0.8232842143577144
 30
0.0
 10
4.3460651968157675
 20
-0.6443869598305179
 30
0.0
 10
4.359510475499658
 20
-0.6176754857436442
 30
0.0
 10
4.382739735348022
 20
-0.5935856942836517
 30
0.0
 10
4.415541771817869
 20
-0.5728865751915733
 30
0.0
 10
4.45765830376635
 20
-0.5563333945419312
 30
0.0
 10
4.508784778721404
 20
-0.5446651084619217
 30
0.0
 10
4.5685713118365125
 20
-0.5386018213169763
 30
0.0
 10
4.636623756172045
 20
-0.5388422950068344
 30
0.0
 10
4.712504901625159
 20
-0.5460615158949572
 30
0.0
 10
4.77619912870654
 20
-0.5571988782137086
 30
0.0
 10
4.780063969171486
 20
-0.5575450488718923
 30
0.0
 10
4.793882757285805
 20
-0.5582011447823667
 30
0.0
 10
4.816151711657893
 20
-0.5583248503738102
 30
0.0
 10
4.8468356892238
 20
-0.5572095219877836
 30
0.0
 10
4.885855198590328
 20
-0.5541511449781186
 30
0.0
 10
4.933086584507596
 20
-0.5484508073054645
 30
0.0
 10
4.988362341642887
 20
-0.539417161188616
 30
0.0
 10
5.051471556953828
 20
-0.5263688664656317
 30
0.0
 10
5.122160479562032
 20
-0.50863700880232
 30
0.0
 10
5.2001332168800145
 20
-0.4855674870564344
 30
0.0
 10
5.285052555231586
 20
-0.4565233627823092
 30
0.0
 10
5.37654090305047
 20
-0.4208871660653942
 30
0.0
 10
5.474181354371442
 20
-0.37806315141565305
 30
0.0
 10
5.577518870045668
 20
-0.32747949772529483
 30
0.0
 10
5.686061573818083
 20
-0.26859044640582497
 30
0.0
 10
5.740842604531367
 20
-0.235828407708585
 30
0.0
 10
5.757333333248143
 20
-5.356434277907902e-16
 30
0.0
 10
5.740842604531368
 20
0.23582840770858518
 30
0.0
 10
5.68606157381808
 20
0.26859044640582785
 30
0.0
 10
5.577518870045657
 20
0.3274794977253016
 30
0.0
 10
5.474181354371434
 20
0.3780631514156573
 30
0.0
 10
5.376540903060211
 20
0.42088716606112364
 30
0.0
 10
5.285052555230363
 20
0.4565233627822839
 30
0.0
 10
5.200133216880011
 20
0.4855674870565453
 30
0.0
 10
5.122160479562088
 20
0.5086370088023023
 30
0.0
 10
5.0514715569540884
 20
0.526368866465491
 30
0.0
 10
4.988362341646125
 20
0.5394171612084308
 30
0.0
 10
4.9330865845076
 20
0.5484508073054241
 30
0.0
 10
4.885855198590321
 20
0.5541511449780802
 30
0.0
 10
4.846835689223921
 20
0.557209521987822
 30
0.0
 10
4.816151711659552
 20
0.5583248503771588
 30
0.0
 10
4.7938827573984195
 20
0.5582011365805918
 30
0.0
 10
4.780063846226622
 20
0.557545101248519
 30
0.0
 10
4.776199337701106
 20
0.5571989147578086
 30
0.0
 10
4.712504901625156
 20
0.5460615158949559
 30
0.0
 10
4.63662375617211
 20
0.5388422950063502
 30
0.0
 10
4.568571311836404
 20
0.5386018213181961
 30
0.0
 10
4.508784775674183
 20
0.5446651726430938
 30
0.0
 10
4.457658304500174
 20
0.5563332624505777
 30
0.0
 10
4.415541771819593
 20
0.5728865752388337
 30
0.0
 10
4.3827397353481
 20
0.593585694284597
 30
0.0
 10
4.359510475499656
 20
0.6176754857436082
 30
0.0
 10
4.346065196815749
 20
0.6443869598303782
 30
0.0
 10
4.315806991095836
 20
0.8232842143577277
 30
0.0
 10
4.277545730422734
 20
1.003289293345953
 30
0.0
 10
4.232423908052926
 20
1.1790271886241175
 30
0.0
 10
4.233842246019631
 20
1.2088980219602232
 30
0.0
 10
4.245265029927672
 20
1.2403533326959162
 30
0.0
 10
4.266812091131989
 20
1.2726047091194832
 30
0.0
 10
4.29855467245552
 20
1.3048571289342208
 30
0.0
 10
4.340515111905357
 20
1.3363116494766056
 30
0.0
 10
4.392666666601523
 20
1.3661681116866324
 30
0.0
 10
4.454933477467086
 20
1.3936278508017172
 30
0.0
 10
4.527190674886153
 20
1.4178964067259998
 30
0.0
 10
4.589908220076653
 20
1.4336286960759734
 30
0.0
 10
4.5935797278193595
 20
1.4348844256803566
 30
0.0
 10
4.606470677179482
 20
1.4399056597305584
 30
0.0
 10
4.626864694889548
 20
1.4488502487955215
 30
0.0
 10
4.6544422582936305
 20
1.462349450007726
 30
0.0
 10
4.688844399836692
 20
1.4810140806868703
 30
0.0
 10
4.729673881690204
 20
1.50543233363056
 30
0.0
 10
4.776496483642602
 20
1.5361676559072388
 30
0.0
 10
4.828842401031812
 20
1.5737566966641234
 30
0.0
 10
4.886207748924713
 20
1.618707329772313
 30
0.0
 10
4.948056169089229
 20
1.6714967560014011
 30
0.0
 10
5.013820535297989
 20
1.7325696904165715
 30
0.0
 10
5.08290475285053
 20
1.8023366395273717
 30
0.0
 10
5.154685647675312
 20
1.8811722729873612
 30
0.0
 10
5.228514940227048
 20
1.9694138942762816
 30
0.0
 10
5.303721299170984
 20
2.067360014576829
 30
0.0
 10
5.340440739304049
 20
2.119571078748357
 30
0.0
 10
5.259585714723176
 20
2.341718433033757
 30
0.0
 10
5.148600629517448
 20
2.5504510200388872
 30
0.0
 10
5.085230146104309
 20
2.5580991791373098
 30
0.0
 10
4.962119117065163
 20
2.5677487095123306
 30
0.0
 10
4.847141373520383
 20
2.5719280223429952
 30
0.0
 10
4.7405242867829145
 20
2.5713357570056483
 30
0.0
 10
4.642450975169377
 20
2.566679379171059
 30
0.0
 10
4.55305998974501
 20
2.558672700360178
 30
0.0
 10
4.472445129916028
 20
2.5480333877328776
 30
0.0
 10
4.400655389500417
 20
2.535480470672426
 30
0.0
 10
4.337695032918832
 20
2.5217318506833117
 30
0.0
 10
4.28352380117895
 20
2.5075018211391735
 30
0.0
 10
4.23805724690668
 20
2.493498603371246
 30
0.0
 10
4.20116719736736
 20
2.4804219055421
 30
0.0
 10
4.1726823441160175
 20
2.468960510695214
 30
0.0
 10
4.1523889610386275
 20
2.459789892817331
 30
0.0
 10
4.140031591116772
 20
2.453569917178683
 30
0.0
 10
4.136641993638375
 20
2.4516818228577915
 30
0.0
 10
4.0829842191101555
 20
2.41560044160454
 30
0.0
 10
4.016599665030663
 20
2.3781417127797173
 30
0.0
 10
3.9545284730869708
 20
2.3502426063720137
 30
0.0
 10
3.897444567384111
 20
2.331464378413214
 30
0.0
 10
3.8459923721983964
 20
2.3213286995985785
 30
0.0
 10
3.8007841662011166
 20
2.3193205661847354
 30
0.0
 10
3.7623989245858565
 20
2.324888362165731
 30
0.0
 10
3.731379738856477
 20
2.3374472905567765
 30
0.0
 10
3.7082323302863953
 20
2.356380748858572
 30
0.0
 10
3.6078260151326225
 20
2.5075044020967496
 30
0.0
 10
3.499657952676766
 20
2.6563849676330147
 30
0.0
 10
3.386958075223624
 20
2.798576825039895
 30
0.0
 10
3.3761042289535057
 20
2.826442079173418
 30
0.0
 10
3.3737454338107864
 20
2.8598240001960833
 30
0.0
 10
3.380311837118442
 20
2.898051077972948
 30
0.0
 10
3.396191887133887
 20
2.940426000562777
 30
0.0
 10
3.4217309498990045
 20
2.9862279832104104
 30
0.0
 10
3.4572300485872614
 20
3.0347151669319614
 30
0.0
 10
3.5029447287079805
 20
3.0851270804950923
 30
0.0
 10
3.5590840522232132
 20
3.136687159439563
 30
0.0
 10
3.609980482188384
 20
3.1765688447062894
 30
0.0
 10
3.612823820165535
 20
3.179209347516696
 30
0.0
 10
3.6225579685164995
 20
3.1890396945438146
 30
0.0
 10
3.637550738628637
 20
3.2055059775568124
 30
0.0
 10
3.6572534766240303
 20
3.2290549170692118
 30
0.0
 10
3.6810898075371883
 20
3.2600985172105643
 30
0.0
 10
3.708457596990273
 20
3.299012547658462
 30
0.0
 10
3.7387309905122246
 20
3.3461351296516963
 30
0.0
 10
3.771262525315377
 20
3.401765429809901
 30
0.0
 10
3.8053853086944667
 20
3.46616246553488
 30
0.0
 10
3.8404152579838153
 20
3.5395440248752803
 30
0.0
 10
3.8756533956817574
 20
3.6220857042409222
 30
0.0
 10
3.9103881941427066
 20
3.713920066431515
 30
0.0
 10
3.943897963647138
 20
3.815135921477274
 30
0.0
 10
3.9754532776761202
 20
3.9257777323939402
 30
0.0
 10
4.00431942910185
 20
4.045845147663031
 30
0.0
 10
4.016628153870049
 20
4.108477469990962
 30
0.0
 10
3.8524079442863965
 20
4.278532475151875
 30
0.0
 10
3.6661188320916325
 20
4.424077480884342
 30
0.0
 10
3.6051162282635416
 20
4.405289324194483
 30
0.0
 10
3.48872388930713
 20
4.364030842159977
 30
0.0
 10
3.381986614290691
 20
4.321083172974664
 30
0.0
 10
3.2848279550097126
 20
4.277177035711893
 30
0.0
 10
3.1971274461585324
 20
4.233033213351019
 30
0.0
 10
3.1187213271316288
 20
4.18936015895979
 30
0.0
 10
3.0494033864190295
 20
4.146851645767814
 30
0.0
 10
2.9889259265029833
 20
4.106184467383146
 30
0.0
 10
2.937000846277615
 20
4.068016193960387
 30
0.0
 10
2.893300838034394
 20
4.032982990159059
 30
0.0
 10
2.8574606956914876
 20
4.001697500517862
 30
0.0
 10
2.8290787306801746
 20
3.974746807702557
 30
0.0
 10
2.8077182916457835
 20
3.952690468911979
 30
0.0
 10
2.792909390045813
 20
3.936058630096313
 30
0.0
 10
2.7841502628965693
 20
3.925350204445717
 30
0.0
 10
2.781821668662833
 20
3.9222466709555244
 30
0.0
 10
2.7474784723638535
 20
3.8674601059196196
 30
0.0
 10
2.702069002142998
 20
3.80623882367426
 30
0.0
 10
2.65671173557746
 20
3.7555050935003242
 30
0.0
 10
2.612200786220988
 20
3.715132212466748
 30
0.0
 10
2.5693194189996973
 20
3.6849453159767953
 30
0.0
 10
2.5288364492063065
 20
3.664722960871426
 30
0.0
 10
2.4915051594415307
 20
3.6541967112807003
 30
0.0
 10
2.4580595468442805
 20
3.653053223790686
 30
0.0
 10
2.4292124056173976
 20
3.6609348993620583
 30
0.0
 10
2.276019145082589
 20
3.758154298750895
 30
0.0
 10
2.1166475215185927
 20
3.8501675485165032
 30
0.0
 10
1.9558564216400103
 20
3.934227104133978
 30
0.0
 10
1.9346071197572692
 20
3.9552686234773455
 30
0.0
 10
1.9188746026729484
 20
3.9848051173769328
 30
0.0
 10
1.9093249572981472
 20
4.0223980874773755
 30
0.0
 10
1.9065966710921103
 20
4.06756850376243
 30
0.0
 10
1.911298421205318
 20
4.119798369617585
 30
0.0
 10
1.9240069472232784
 20
4.178532400292968
 30
0.0
 10
1.94526501310145
 20
4.243179810471224
 30
0.0
 10
1.9755794636673225
 20
4.313116206377771
 30
0.0
 10
2.005854323286635
 20
4.370251381864897
 30
0.0
 10
2.007377852531067
 20
4.373820090957192
 30
0.0
 10
2.0122720771910294
 20
4.386759794654341
 30
0.0
 10
2.019271213547809
 20
4.4079006016909394
 30
0.0
 10
2.0276923437413545
 20
4.437427453926441
 30
0.0
 10
2.0368413458634547
 20
4.475482303043308
 30
0.0
 10
2.046015303491112
 20
4.522163521608104
 30
0.0
 10
2.054504943817526
 20
4.5775254407960455
 30
0.0
 10
2.0615970981274407
 20
4.641578016072805
 30
0.0
 10
2.0665771777507205
 20
4.7142866219090225
 30
0.0
 10
2.0687316596956733
 20
4.795571976100241
 30
0.0
 10
2.0673505747463925
 20
4.8853101941864185
 30
0.0
 10
2.0617299919061156
 20
4.983332973945061
 30
0.0
 10
2.05117449251618
 20
5.089427909722003
 30
0.0
 10
2.034999627555771
 20
5.203338936009626
 30
0.0
 10
2.0125343516410314
 20
5.324766899369011
 30
0.0
 10
1.998304070710688
 20
5.386990782326061
 30
0.0
 10
1.7791138422550388
 20
5.475549383068943
 30
0.0
 10
1.5497317829531676
 20
5.532740753802735
 30
0.0
 10
1.5016449631032591
 20
5.490764924301316
 30
0.0
 10
1.4120966070263496
 20
5.405732396222594
 30
0.0
 10
1.332055645066297
 20
5.323083787190768
 30
0.0
 10
1.2611550280901993
 20
5.243455548010041
 30
0.0
 10
1.198991536715855
 20
5.1674571490431145
 30
0.0
 10
1.1451274143633972
 20
5.095669186933024
 30
0.0
 10
1.0990920944501104
 20
5.028641581284984
 30
0.0
 10
1.0603840172735894
 20
4.966891866168525
 30
0.0
 10
1.0284725314999486
 20
4.910903580534795
 30
0.0
 10
1.002799875180752
 20
4.861124761680191
 30
0.0
 10
0.9827832309757693
 20
4.817966545544438
 30
0.0
 10
0.9678168500849765
 20
4.7818018773701
 30
0.0
 10
0.9572742392300796
 20
4.752964335988267
 30
0.0
 10
0.9505104127288118
 20
4.73174707226156
 30
0.0
 10
0.9468640610104563
 20
4.718401780676998
 30
0.0
 10
0.9459991051190081
 20
4.714619437152675
 30
0.0
 10
0.936908737687505
 20
4.650600783149143
 30
0.0
 10
0.9203260612585593
 20
4.576202663361357
 30
0.0
 10
0.8995254035181879
 20
4.511406632269732
 30
0.0
 10
0.875283758021118
 20
4.456419936068195
 30
0.0
 10
0.8483877967218039
 20
4.411401410545383
 30
0.0
 10
0.8196299363858139
 20
4.376461462660534
 30
0.0
 10
0.7898075176159729
 20
4.3516612516803
 30
0.0
 10
0.7597185284127685
 20
4.337013067684507
 30
0.0
 10
0.7301595873152622
 20
4.332480147216391
 30
0.0
 10
0.5506678878629674
 20
4.358985175391039
 30
0.0
 10
0.3676495047507935
 20
4.378221182587385
 30
0.0
 10
0.18656942435706148
 20
4.389613775592104
 30
0.0
 10
0.15859886420107094
 20
4.400193290294647
 30
0.0
 10
0.1322129203044583
 20
4.420777228945293
 30
0.0
 10
0.10819844668830814
 20
4.451235925317535
 30
0.0
 10
0.08733356973151496
 20
4.491391459961778
 30
0.0
 10
0.07038503188418072
 20
4.541018190724666
 30
0.0
 10
0.05810556563000468
 20
4.59984342086819
 30
0.0
 10
0.05123130455182789
 20
4.667548203138464
 30
0.0
 10
0.05047923826736271
 20
4.743768277802636
 30
0.0
 10
0.05489772927417273
 20
4.808277752611662
 30
0.0
 10
0.054838017738694886
 20
4.812157605763086
 30
0.0
 10
0.054046062801312335
 20
4.825969273807509
 30
0.0
 10
0.05184135114149039
 20
4.848129167272878
 30
0.0
 10
0.04752478361915783
 20
4.8785284712369315
 30
0.0
 10
0.04040451136721405
 20
4.917014540199558
 30
0.0
 10
0.029798376552833378
 20
4.963391340105841
 30
0.0
 10
0.015036327745311077
 20
5.017420017713648
 30
0.0
 10
-0.004537196348395312
 20
5.078819595944233
 30
0.0
 10
-0.029560921490394226
 20
5.147267793405658
 30
0.0
 10
-0.06065443639097305
 20
5.2224019662537735
 30
0.0
 10
-0.09841594185298345
 20
5.30382016990727
 30
0.0
 10
-0.1434200561600109
 20
5.391082338104694
 30
0.0
 10
-0.19621568270609152
 20
5.483711576374752
 30
0.0
 10
-0.25732394556020277
 20
5.581195566739016
 30
0.0
 10
-0.32723619851912816
 20
5.682988080185441
 30
0.0
 10
-0.3655449402971136
 20
5.734044449122106
 30
0.0
 10
-0.6018052058440632
 20
5.725794058848882
 30
0.0
 10
-0.8346179703291595
 20
5.684742887016834
 30
0.0
 10
-0.8614743581937919
 20
5.62683738696309
 30
0.0
 10
-0.9086950071042269
 20
5.512733709441227
 30
0.0
 10
-0.9481998465356886
 20
5.404674855903535
 30
0.0
 10
-0.9805830604198543
 20
5.303092960759042
 30
0.0
 10
-1.0064609019211483
 20
5.208380798791223
 30
0.0
 10
-1.026469431504231
 20
5.120890719784269
 30
0.0
 10
-1.0412622055874456
 20
5.040933703623391
 30
0.0
 10
-1.0515079218287804
 20
4.968778538497329
 30
0.0
 10
-1.057888027353684
 20
4.904651123876306
 30
0.0
 10
-1.0610942962425056
 20
4.84873389997476
 30
0.0
 10
-1.06182638268102
 20
4.801165404994409
 30
0.0
 10
-1.0607893562299717
 20
4.762039961134074
 30
0.0
 10
-1.0586912257119505
 20
4.731407490046745
 30
0.0
 10
-1.0562404500650113
 20
4.709273459060134
 30
0.0
 10
-1.0541435390143097
 20
4.695598823694744
 30
0.0
 10
-1.0533952978319607
 20
4.691791671693158
 30
0.0
 10
-1.035661029283685
 20
4.6296103355904235
 30
0.0
 10
-1.0205496165172705
 20
4.55489948905722
 30
0.0
 10
-1.0131970427411223
 20
4.48724497947711
 30
0.0
 10
-1.0129777836439107
 20
4.42715216741931
 30
0.0
 10
-1.0192377829704593
 20
4.375086124906998
 30
0.0
 10
-1.0312980385399966
 20
4.331470018651422
 30
0.0
 10
-1.0484550191814281
 20
4.296684028063005
 30
0.0
 10
-1.0699847254074675
 20
4.2710639516488795
 30
0.0
 10
-1.0951444569252884
 20
4.254900218270502
 30
0.0
 10
-1.2698988498288692
 20
4.206107915068945
 30
0.0
 10
-1.4449184513793125
 20
4.149240599298141
 30
0.0
 10
-1.6149771213272317
 20
4.08599634686113
 30
0.0
 10
-1.6448325758009392
 20
4.084284562718904
 30
0.0
 10
-1.6773095771013444
 20
4.092356796128701
 30
0.0
 10
-1.7116365583059674
 20
4.110414633461413
 30
0.0
 10
-1.7470302992362308
 20
4.138612029723276
 30
0.0
 10
-1.7826985688776704
 20
4.177054712800296
 30
0.0
 10
-1.8178427961331869
 20
4.225799725709707
 30
0.0
 10
-1.8516607619765941
 20
4.284855108138833
 30
0.0
 10
-1.8833493060185054
 20
4.354179718213553
 30
0.0
 10
-1.9055511808600056
 20
4.41490921809982
 30
0.0
 10
-1.9071838085084472
 20
4.41842935345313
 30
0.0
 10
-1.9135250068398164
 20
4.430724822964881
 30
0.0
 10
-1.9245523518410803
 20
4.450072155962548
 30
0.0
 10
-1.9408602433398947
 20
4.476087595830761
 30
0.0
 10
-1.9630186302078787
 20
4.5083502936805475
 30
0.0
 10
-1.9915709604011809
 20
4.546403704904521
 30
0.0
 10
-2.0270322059948156
 20
4.589757091738678
 30
0.0
 10
-2.069886968356457
 20
4.637887128049362
 30
0.0
 10
-2.1205876688532763
 20
4.690239601962563
 30
0.0
 10
-2.179552829397362
 20
4.7462312124096036
 30
0.0
 10
-2.247165448025213
 20
4.805251454557569
 30
0.0
 10
-2.323771473585763
 20
4.866664589560532
 30
0.0
 10
-2.4096783838249616
 20
4.9298116935166
 30
0.0
 10
-2.505153870774159
 20
4.994012780409273
 30
0.0
 10
-2.6104246371077933
 20
5.0585689936119
 30
0.0
 10
-2.6661879102560135
 20
5.089629738506479
 30
0.0
 10
-2.87866666662407
 20
4.985996924647832
 30
0.0
 10
-3.074654694275352
 20
4.853801330797895
 30
0.0
 10
-3.0756369367102896
 20
4.78997854720607
 30
0.0
 10
-3.072364999271507
 20
4.666533282683965
 30
0.0
 10
-3.0645029705464784
 20
4.551748542100938
 30
0.0
 10
-3.052769429465878
 20
4.445777423505708
 30
0.0
 10
-3.0378871072057376
 20
4.348728091774213
 30
0.0
 10
-3.0205803874827457
 20
4.260663725353112
 30
0.0
 10
-3.0015728107087667
 20
4.181602593160301
 30
0.0
 10
-2.9815845885973777
 20
4.111518261584027
 30
0.0
 10
-2.961330135666849
 20
4.050339930542959
 30
0.0
 10
-2.9415156241063807
 20
3.99795289759908
 30
0.0
 10
-2.922836568382411
 20
3.9541991487024424
 30
0.0
 10
-2.9059754458839975
 20
3.9188780738430635
 30
0.0
 10
-2.891599359820541
 20
3.891747305588501
 30
0.0
 10
-2.880357743399349
 20
3.8725236823809293
 30
0.0
 10
-2.8728801445500953
 20
3.860884171919549
 30
0.0
 10
-2.8706480839919353
 20
3.8577105026086658
 30
0.0
 10
-2.829155595606649
 20
3.8081182023185947
 30
0.0
 10
-2.7849629941950624
 20
3.746012813132298
 30
0.0
 10
-2.750728515704327
 20
3.6871979043920273
 30
0.0
 10
-2.7260862639026477
 20
3.6323895696088178
 30
0.0
 10
-2.710627890502562
 20
3.5822787018625313
 30
0.0
 10
-2.703905213553691
 20
3.5375280582477027
 30
0.0
 10
-2.705430158247534
 20
3.4987711018446443
 30
0.0
 10
-2.7146778996986853
 20
3.466609076975276
 30
0.0
 10
-2.7310880754884037
 20
3.4416093870306663
 30
0.0
 10
-2.8708885397164225
 20
3.3259563849406115
 30
0.0
 10
-3.0076468805938994
 20
3.2028186217227734
 30
0.0
 10
-3.1372794511274953
 20
3.075873029646389
 30
0.0
 10
-3.1638575206121264
 20
3.0621659296886548
 30
0.0
 10
-3.19681001074719
 20
3.0563306953671114
 30
0.0
 10
-3.235514052639172
 20
3.058865309535165
 30
0.0
 10
-3.279316758194021
 20
3.0702289814356676
 30
0.0
 10
-3.327537391772504
 20
3.0908405276819924
 30
0.0
 10
-3.379469623861601
 20
3.121076867790713
 30
0.0
 10
-3.4343838609493393
 20
3.1612716382553887
 30
0.0
 10
-3.4915296456024647
 20
3.2117139288644267
 30
0.0
 10
-3.536512980434479
 20
3.2581627715874117
 30
0.0
 10
-3.5394362280435123
 20
3.260714525760595
 30
0.0
 10
-3.550230218969396
 20
3.2693677983602596
 30
0.0
 10
-3.568173469181099
 20
3.2825572412499238
 30
0.0
 10
-3.5936529020637074
 20
3.299690511126233
 30
0.0
 10
-3.6270180171556317
 20
3.320151324307541
 30
0.0
 10
-3.668579585447657
 20
3.3433015663441927
 30
0.0
 10
-3.7186084563089614
 20
3.368483467967917
 30
0.0
 10
-3.7773344792029175
 20
3.395021841832932
 30
0.0
 10
-3.8449455433372535
 20
3.422226373851021
 30
0.0
 10
-3.921586737585107
 20
3.4493939637828825
 30
0.0
 10
-4.007359633376685
 20
3.475811108375866
 30
0.0
 10
-4.102321692427445
 20
3.500756321221537
 30
0.0
 10
-4.206485801139626
 20
3.5235025829161835
 30
0.0
 10
-4.319819933122823
 20
3.5433198151649585
 30
0.0
 10
-4.442246940977192
 20
3.5594773723862656
 30
0.0
 10
-4.505822768974888
 20
3.5651718082684773
 30
0.0
 10
-4.657780508879109
 20
3.384075625815125
 30
0.0
 10
-4.783055689220335
 20
3.1835934290832193
 30
0.0
 10
-4.7579939475851845
 20
3.124888901048129
 30
0.0
 10
-4.704795171504968
 20
3.013446857226675
 30
0.0
 10
-4.650925690814296
 20
2.9117835540317496
 30
0.0
 10
-4.597104230617639
 20
2.819746581108287
 30
0.0
 10
-4.544035033316497
 20
2.737140790734992
 30
0.0
 10
-4.492405553354147
 20
2.6637292658936045
 30
0.0
 10
-4.4428842084256095
 20
2.599234405672835
 30
0.0
 10
-4.396118193151855
 20
2.5433391252720514
 30
0.0
 10
-4.352731360683511
 20
2.495688167035629
 30
0.0
 10
-4.313322177731743
 20
2.4558895189666665
 30
0.0
 10
-4.278461758273857
 20
2.4235159368283012
 30
0.0
 10
-4.248691980986544
 20
2.398106565694956
 30
0.0
 10
-4.2245236952606655
 20
2.3791686565796653
 30
0.0
 10
-4.206435015671323
 20
2.366179380244857
 30
0.0
 10
-4.194869673796406
 20
2.358587571787892
 30
0.0
 10
-4.191539737410574
 20
2.356596141423443
 30
0.0
 10
-4.133463457377518
 20
2.3281678361980935
 30
0.0
 10
-4.067830969582003
 20
2.2894064903587616
 30
0.0
 10
-4.0126340387182
 20
2.2496008144961963
 30
0.0
 10
-3.967829663416394
 20
2.209553815989684
 30
0.0
 10
-3.9333258104854627
 20
2.1700627472856975
 30
0.0
 10
-3.908982612936246
 20
2.131915359139455
 30
0.0
 10
-3.8946118448912466
 20
2.0958888667797386
 30
0.0
 10
-3.8899786030575125
 20
2.062745999737865
 30
0.0
 10
-3.89480175464332
 20
2.033233026733499
 30
0.0
 10
-3.975475519883407
 20
1.8707167804908564
 30
0.0
 10
-4.050325840539678
 20
1.7026002077578102
 30
0.0
 10
-4.117117662538759
 20
1.5339033221765563
 30
0.0
 10
-4.13582275736624
 20
1.5105709885111012
 30
0.0
 10
-4.1635529514276355
 20
1.4918372514838505
 30
0.0
 10
-4.199941773548671
 20
1.4784103846713423
 30
0.0
 10
-4.244579558002585
 20
1.4709754501031707
 30
0.0
 10
-4.297014769901687
 20
1.4701919359227908
 30
0.0
 10
-4.3567554521066425
 20
1.4766914653374965
 30
0.0
 10
-4.423270789966059
 20
1.4910755828663529
 30
0.0
 10
-4.495992789910718
 20
1.5139136237095827
 30
0.0
 10
-4.555979557480024
 20
1.5380503823879927
 30
0.0
 10
-4.5596879689811765
 20
1.5391925339025474
 30
0.0
 10
-4.57306837341016
 20
1.5427073801451294
 30
0.0
 10
-4.594824977861388
 20
1.5474583584288417
 30
0.0
 10
-4.625070326709006
 20
1.5527469603007613
 30
0.0
 10
-4.663873038512922
 20
1.5578680283338924
 30
0.0
 10
-4.711257472170985
 20
1.5621122140217387
 30
0.0
 10
-4.767203522030017
 20
1.564768450873895
 30
0.0
 10
-4.831646542588753
 20
1.5651264363584205
 30
0.0
 10
-4.904477403144543
 20
1.562479115750056
 30
0.0
 10
-4.985542672347319
 20
1.5561251620577126
 30
0.0
 10
-5.074644932397965
 20
1.545371444803363
 30
0.0
 10
-5.171543222225835
 20
1.529535481570582
 30
0.0
 10
-5.275953608713442
 20
1.5079478657135008
 30
0.0
 10
-5.38754988470248
 20
1.4799546638286623
 30
0.0
 10
-5.505964392205113
 20
1.4449197766382866
 30
0.0
 10
-5.566359936823217
 20
1.4242632838117717
 30
0.0
 10
-5.631521786541435
 20
1.1970169079170672
 30
0.0
 10
-5.664422902802321
 20
0.9629133014417189
 30
0.0
 10
-5.617650579904574
 20
0.9194775751745238
 30
0.0
 10
-5.523723516862904
 20
0.8393080938496348
 30
0.0
 10
-5.433161106806873
 20
0.768344736747329
 30
0.0
 10
-5.346557946914777
 20
0.7061559382437509
 30
0.0
 10
-5.264478020904522
 20
0.6522769808342436
 30
0.0
 10
-5.187452986827406
 20
0.6062118171404131
 30
0.0
 10
-5.1159805641697504
 20
0.5674349761412664
 30
0.0
 10
-5.050523024630371
 20
0.53539354868995
 30
0.0
 10
-4.991505790114987
 20
0.5095092468326152
 30
0.0
 10
-4.9393161415254685
 20
0.48918053144906043
 30
0.0
 10
-4.894302041554904
 20
0.473784802525452
 30
0.0
 10
-4.856771074421603
 20
0.4626806462239856
 30
0.0
 10
-4.82698950519729
 20
0.45521013277950356
 30
0.0
 10
-4.8051814594712905
 20
0.4507011671996179
 30
0.0
 10
-4.791528127248716
 20
0.4484697533986928
 30
0.0
 10
-4.787676091287846
 20
0.4480048983822676
 30
0.0
 10
-4.723057936031174
 20
0.445656100458148
 30
0.0
 10
-4.647334015244008
 20
0.4369409867971739
 30
0.0
 10
-4.580718682801865
 20
0.42302730679216355
 30
0.0
 10
-4.523499267524585
 20
0.40466613441968396
 30
0.0
 10
-4.475915964692229
 20
0.3826232293020135
 30
0.0
 10
-4.438161406549934
 20
0.357675126592984
 30
0.0
 10
-4.410379762115403
 20
0.3306084060960128
 30
0.0
 10
-4.392666666601515
 20
0.3022153996866684
 30
0.0
 10
-4.385068827257269
 20
0.2732922047719441
 30
0.0
 10
-4.392666666601262
 20
0.09201324976581345
 30
0.0
 10
-4.392666666601044
 20
-0.092013249765782
 30
0.0
 10
-4.385068827257316
 20
-0.2732922047718129
 30
0.0
 10
-4.392666666601524
 20
-0.3022153996866351
 30
0.0
 10
-4.41037976211513
 20
-0.33060840609692316
 30
0.0
 10
-4.438161406538421
 20
-0.35767512663885465
 30
0.0
 10
-4.475915991437778
 20
-0.38262309994460414
 30
0.0
 10
-4.523499257161201
 20
-0.4046661978318982
 30
0.0
 10
-4.580718682801717
 20
-0.4230273067933807
 30
0.0
 10
-4.647334015244044
 20
-0.4369409867966884
 30
0.0
 10
-4.723057936031177
 20
-0.4456561004581489
 30
0.0
 10
-4.787675879262366
 20
-0.44800489067537935
 30
0.0
 10
-4.791528236617226
 20
-0.44846983019244063
 30
0.0
 10
-4.805181461066381
 20
-0.450701159153659
 30
0.0
 10
-4.826989505194971
 20
-0.45521013278243566
 30
0.0
 10
-4.856771074421477
 20
-0.4626806462239999
 30
0.0
 10
-4.894302041554918
 20
-0.47378480252541727
 30
0.0
 10
-4.939316141525474
 20
-0.4891805314490218
 30
0.0
 10
-4.991505790107699
 20
-0.5095092468513255
 30
0.0
 10
-5.050523024630145
 20
-0.53539354868976
 30
0.0
 10
-5.115980564169699
 20
-0.5674349761412391
 30
0.0
 10
-5.187452986827386
 20
-0.6062118171405243
 30
0.0
 10
-5.264478020905725
 20
-0.6522769808344749
 30
0.0
 10
-5.346557946906137
 20
-0.7061559382375507
 30
0.0
 10
-5.43316110680688
 20
-0.7683447367473369
 30
0.0
 10
-5.523723516862913
 20
-0.8393080938496454
 30
0.0
 10
-5.617650579904576
 20
-0.919477575174529
 30
0.0
 10
-5.66442290280232
 20
-0.9629133014417206
 30
0.0
 10
-5.631521786541435
 20
-1.1970169079170665
 30
0.0
 10
-5.566359936823217
 20
-1.4242632838117715
 30
0.0
 10
-5.50596439220511
 20
-1.4449197766382886
 30
0.0
 10
-5.387549884702468
 20
-1.4799546638286658
 30
0.0
 10
-5.275953608713433
 20
-1.5079478657135026
 30
0.0
 10
-5.1715432222362505
 20
-1.5295354815684294
 30
0.0
 10
-5.074644932396774
 20
-1.545371444803083
 30
0.0
 10
-4.985542672347293
 20
-1.5561251620578198
 30
0.0
 10
-4.904477403144602
 20
-1.5624791157500497
 30
0.0
 10
-4.831646542589036
 20
-1.565126436358336
 30
0.0
 10
-4.767203522029066
 20
-1.56476845089395
 30
0.0
 10
-4.711257472170997
 20
-1.5621122140216992
 30
0.0
 10
-4.663873038512924
 20
-1.5578680283338529
 30
0.0
 10
-4.625070326709116
 20
-1.5527469603008237
 30
0.0
 10
-4.594824977862316
 20
-1.5474583584324615
 30
0.0
 10
-4.573068375225559
 20
-1.5427073721459963
 30
0.0
 10
-4.5596878378332395
 20
-1.539192559572944
 30
0.0
 10
-4.555979754309613
 20
-1.5380504615859298
 30
0.0
 10
-4.495992789910716
 20
-1.5139136237095803
 30
0.0
 10
-4.423270789966223
 20
-1.4910755828658921
 30
0.0
 10
-4.356755452106284
 20
-1.4766914653386665
 30
0.0
 10
-4.29701475357704
 20
-1.4701919980678972
 30
0.0
 10
-4.2445795861837095
 20
-1.4709753210509
 30
0.0
 10
-4.199941773540531
 20
-1.4784103847179277
 30
0.0
 10
-4.163552951427514
 20
-1.491837251484791
 30
0.0
 10
-4.135822757366247
 20
-1.5105709885110652
 30
0.0
 10
-4.11711766253877
 20
-1.5339033221764156
 30
0.0
 10
-4.050325840539892
 20
-1.7026002077578686
 30
0.0
 10
-3.9754755198832195
 20
-1.8707167804907365
 30
0.0
 10
-3.8948017546434173
 20
-2.0332330267333973
 30
0.0
 10
-3.8899786030575347
 20
-2.0627459997378366
 30
0.0
 10
-3.894611844890629
 20
-2.0958888667804576
 30
0.0
 10
-3.908982612907072
 20
-2.1319153591766757
 30
0.0
 10
-3.9333258875331363
 20
-2.170062639990217
 30
0.0
 10
-3.9678296281569008
 20
-2.2095538697044543
 30
0.0
 10
-4.012634038717571
 20
-2.2496008144972466
 30
0.0
 10
-4.067830969582235
 20
-2.2894064903583318
 30
0.0
 10
-4.133463457377521
 20
-2.328167836198094
 30
0.0
 10
-4.191539546850335
 20
-2.3565960481443162
 30
0.0
 10
-4.1948697424746815
 20
-2.3585876864266506
 30
0.0
 10
-4.2064350204010985
 20
-2.3661793735432877
 30
0.0
 10
-4.224523695257354
 20
-2.3791686565813985
 30
0.0
 10
-4.248691980986424
 20
-2.3981065656949156
 30
0.0
 10
-4.2784617582738855
 20
-2.4235159368282733
 30
0.0
 10
-4.313322177731764
 20
-2.4558895189666314
 30
0.0
 10
-4.352731360669243
 20
-2.4956881670497553
 30
0.0
 10
-4.396118193151727
 20
-2.543339125271784
 30
0.0
 10
-4.442884208425575
 20
-2.5992344056727874
 30
0.0
 10
-4.492405553354084
 20
-2.663729265893696
 30
0.0
 10
-4.544035033317502
 20
-2.73714079073569
 30
0.0
 10
-4.597104230612269
 20
-2.819746581099107
 30
0.0
 10
-4.650925690814301
 20
-2.9117835540317576
 30
0.0
 10
-4.7047951715049745
 20
-3.0134468572266866
 30
0.0
 10
-4.757993947585185
 20
-3.1248889010481324
 30
0.0
 10
-4.783055689220334
 20
-3.183593429083219
 30
0.0
 10
-4.657780508879112
 20
-3.384075625815123
 30
0.0
 10
-4.505822768974891
 20
-3.565171808268476
 30
0.0
 10
-4.442246940977191
 20
-3.559477372386264
 30
0.0
 10
-4.3198199331228135
 20
-3.543319815164955
 30
0.0
 10
-4.206485801139619
 20
-3.5235025829161795
 30
0.0
 10
-4.102321692437838
 20
-3.5007563212238058
 30
0.0
 10
-4.007359633375714
 20
-3.4758111083751246
 30
0.0
 10
-3.921586737585042
 20
-3.449393963782969
 30
0.0
 10
-3.844945543337312
 20
-3.422226373851038
 30
0.0
 10
-3.7773344792032133
 20
-3.395021841832969
 30
0.0
 10
-3.718608456299938
 20
-3.3684834679858495
 30
0.0
 10
-3.6685795854476866
 20
-3.3433015663441603
 30
0.0
 10
-3.627018017155652
 20
-3.320151324307504
 30
0.0
 10
-3.593652902063785
 20
-3.299690511126333
 30
0.0
 10
-3.5681734691804765
 20
-3.282557241253606
 30
0.0
 10
-3.550230223881389
 20
-3.2693677917910753
 30
0.0
 10
-3.539436097792822
 20
-3.2607144958689958
 30
0.0
 10
-3.536513128034555
 20
-3.2581629239961316
 30
0.0
 10
-3.491529645602466
 20
-3.2117139288644214
 30
0.0
 10
-3.4343838609496786
 20
-3.161271638255033
 30
0.0
 10
-3.379469623860799
 20
-3.1210768677916336
 30
0.0
 10
-3.3275373515825066
 20
-3.090840577814538
 30
0.0
 10
-3.2793168364290493
 20
-3.0702288750028464
 30
0.0
 10
-3.235514052612791
 20
-3.0588653095744105
 30
0.0
 10
-3.1968100107466992
 20
-3.0563306953679192
 30
0.0
 10
-3.163857520612149
 20
-3.0621659296886232
 30
0.0
 10
-3.137279451127565
 20
-3.075873029646263
 30
0.0
 10
-3.007646880594073
 20
-3.202818621722913
 30
0.0
 10
-2.870888539716303
 20
-3.3259563849404246
 30
0.0
 10
-2.731088075488537
 20
-3.441609387030611
 30
0.0
 10
-2.7146778996987195
 20
-3.466609076975258
 30
0.0
 10
-2.7054301582466787
 20
-3.4987711018450476
 30
0.0
 10
-2.703905213511903
 20
-3.5375280582698383
 30
0.0
 10
-2.7106280045301205
 20
-3.5822786351813427
 30
0.0
 10
-2.726086209843735
 20
-3.632389604338373
 30
0.0
 10
-2.7507285157033268
 20
-3.687197904392729
 30
0.0
 10
-2.784962994195452
 20
-3.7460128131319976
 30
0.0
 10
-2.8291555956066543
 20
-3.8081182023185947
 30
0.0
 10
-2.870647947846535
 20
-3.8577103398861095
 30
0.0
 10
-2.87288016066304
 20
-3.8608843045812358
 30
0.0
 10
-2.8803577504459894
 20
-3.872523678182512
 30
0.0
 10
-2.891599359816814
 20
-3.891747305588736
 30
0.0
 10
-2.9059754458839064
 20
-3.9188780738429765
 30
0.0
 10
-2.9228365683824498
 20
-3.9541991487024264
 30
0.0
 10
-2.9415156241064166
 20
-3.997952897599055
 30
0.0
 10
-2.961330135648072
 20
-4.05033993055006
 30
0.0
 10
-2.981584588597372
 20
-4.111518261583728
 30
0.0
 10
-3.001572810708756
 20
-4.181602593160242
 30
0.0
 10
-3.020580387482653
 20
-4.260663725353168
 30
0.0
 10
-3.0378871072063744
 20
-4.348728091775258
 30
0.0
 10
-3.0527694294647083
 20
-4.4457774234951355
 30
0.0
 10
-3.0645029705464815
 20
-4.551748542100945
 30
0.0
 10
-3.07236499927151
 20
-4.666533282683977
 30
0.0
 10
-3.0756369367102914
 20
-4.789978547206072
 30
0.0
 10
-3.0746546942753543
 20
-4.853801330797892
 30
0.0
 10
-2.8786666666240714
 20
-4.985996924647831
 30
0.0
 10
-2.666187910256015
 20
-5.089629738506479
 30
0.0
 10
-2.61042463710779
 20
-5.058568993611899
 30
0.0
 10
-2.5051538707741487
 20
-4.994012780409267
 30
0.0
 10
-2.4096783838249545
 20
-4.929811693516595
 30
0.0
 10
-2.323771473594332
 20
-4.866664589566832
 30
0.0
 10
-2.247165448024624
 20
-4.805251454556497
 30
0.0
 10
-2.1795528293972652
 20
-4.746231212409657
 30
0.0
 10
-2.1205876688533207
 20
-4.690239601962603
 30
0.0
 10
-2.0698869683567094
 20
-4.637887128049518
 30
0.0
 10
-2.027032205979275
 20
-4.589757091751389
 30
0.0
 10
-1.9915709604012184
 20
-4.546403704904504
 30
0.0
 10
-1.9630186302079096
 20
-4.508350293680522
 30
0.0
 10
-1.9408602433399225
 20
-4.476087595830885
 30
0.0
 10
-1.9245523518390106
 20
-4.450072155965659
 30
0.0
 10
-1.91352501399907
 20
-4.430724818961521
 30
0.0
 10
-1.9071837016765267
 20
-4.418429273168067
 30
0.0
 10
-1.9055512537091708
 20
-4.4149094173664745
 30
0.0
 10
-1.8833493060185058
 20
-4.354179718213549
 30
0.0
 10
-1.8516607619770469
 20
-4.284855108138648
 30
0.0
 10
-1.817842796132077
 20
-4.225799725710223
 30
0.0
 10
-1.782698511771535
 20
-4.1770547422519115
 30
0.0
 10
-1.7470304139976112
 20
-4.1386119643131085
 30
0.0
 10
-1.7116365582659014
 20
-4.110414633486537
 30
0.0
 10
-1.677309577100565
 20
-4.092356796129241
 30
0.0
 10
-1.64483257580097
 20
-4.084284562718884
 30
0.0
 10
-1.614977121327344
 20
-4.0859963468610445
 30
0.0
 10
-1.4449184513794122
 20
-4.149240599298339
 30
0.0
 10
-1.2698988498288335
 20
-4.206107915068726
 30
0.0
 10
-1.0951444569254296
 20
-4.254900218270506
 30
0.0
 10
-1.069984725407504
 20
-4.271063951648879
 30
0.0
 10
-1.0484550191804802
 20
-4.296684028063027
 30
0.0
 10
-1.0312980384928154
 20
-4.331470018654648
 30
0.0
 10
-1.0192379142614978
 20
-4.375086110369888
 30
0.0
 10
-1.0129777201328516
 20
-4.4271521771585975
 30
0.0
 10
-1.0131970427399213
 20
-4.487244979477345
 30
0.0
 10
-1.020549616517746
 20
-4.554899489057106
 30
0.0
 10
-1.0356610292836874
 20
-4.629610335590426
 30
0.0
 10
-1.0533952396421729
 20
-4.691791467663385
 30
0.0
 10
-1.054143499775846
 20
-4.69559895144095
 30
0.0
 10
-1.0562404582100855
 20
-4.709273458090817
 30
0.0
 10
-1.0586912257084473
 20
-4.731407490045445
 30
0.0
 10
-1.0607893562299215
 20
-4.762039961133959
 30
0.0
 10
-1.0618263826810597
 20
-4.801165404994411
 30
0.0
 10
-1.0610942962425463
 20
-4.848733899974753
 30
0.0
 10
-1.0578880273336397
 20
-4.904651123875157
 30
0.0
 10
-1.0515079218288939
 20
-4.968778538497055
 30
0.0
 10
-1.041262205587458
 20
-5.040933703623334
 30
0.0
 10
-1.0264694315041216
 20
-5.120890719784284
 30
0.0
 10
-1.0064609019213024
 20
-5.2083807987924375
 30
0.0
 10
-0.980583060423084
 20
-5.303092960748909
 30
0.0
 10
-0.948199846535686
 20
-5.4046748559035445
 30
0.0
 10
-0.9086950071042225
 20
-5.51273370944124
 30
0.0
 10
-0.8614743581937904
 20
-5.626837386963094
 30
0.0
 10
-0.8346179703291603
 20
-5.684742887016834
 30
0.0
 10
-0.6018052058440674
 20
-5.725794058848882
 30
0.0
 10
-0.3655449402971144
 20
-5.734044449122107
 30
0.0
 10
-0.327236198519126
 20
-5.682988080185439
 30
0.0
 10
-0.2573239455601958
 20
-5.581195566739005
 30
0.0
 10
-0.19621568270608714
 20
-5.483711576374745
 30
0.0
 10
-0.14342005616527664
 20
-5.391082338113935
 30
0.0
 10
-0.09841594185288173
 20
-5.30382016990605
 30
0.0
 10
-0.06065443639086289
 20
-5.222401966253782
 30
0.0
 10
-0.029560921490418352
 20
-5.147267793405713
 30
0.0
 10
-0.00453719634856311
 20
-5.078819595944477
 30
0.0
 10
0.0150363277646782
 20
-5.0174200177189405
 30
0.0
 10
0.029798376552792133
 20
-4.96339134010584
 30
0.0
 10
0.040404511367175676
 20
-4.917014540199547
 30
0.0
 10
0.04752478361918285
 20
-4.878528471237057
 30
0.0
 10
0.05184135114464657
 20
-4.848129167274879
 30
0.0
 10
0.05404605463269537
 20
-4.825969273062189
 30
0.0
 10
0.05483808267963404
 20
-4.812157488966576
 30
0.0
 10
0.054897743772198984
 20
-4.808277964281235
 30
0.0
 10
0.05047923826736096
 20
-4.7437682778026335
 30
0.0
 10
0.05123130455133868
 20
-4.667548203138479
 30
0.0
 10
0.058105565631228435
 20
-4.5998434208682095
 30
0.0
 10
0.07038509603228277
 20
-4.541018194402898
 30
0.0
 10
0.08733343828706569
 20
-4.4913914468842755
 30
0.0
 10
0.10819844673512874
 20
-4.45123592532419
 30
0.0
 10
0.13221292030538973
 20
-4.420777228945469
 30
0.0
 10
0.1585988642010348
 20
-4.4001932902946415
 30
0.0
 10
0.18656942435692409
 20
-4.389613775592071
 30
0.0
 10
0.36764950475078323
 20
-4.378221182587606
 30
0.0
 10
0.5506678878629111
 20
-4.358985175390825
 30
0.0
 10
0.7301595873151344
 20
-4.332480147216452
 30
0.0
 10
0.7597185284127342
 20
-4.33701306768452
 30
0.0
 10
0.7898075176168476
 20
-4.351661251679935
 30
0.0
 10
0.8196299364302279
 20
-4.37646146264429
 30
0.0
 10
0.8483876708686968
 20
-4.411401450665948
 30
0.0
 10
0.8752838200026825
 20
-4.456419919133202
 30
0.0
 10
0.8995254035193805
 20
-4.511406632269459
 30
0.0
 10
0.9203260612580781
 20
-4.576202663361446
 30
0.0
 10
0.9369087376875043
 20
-4.650600783149146
 30
0.0
 10
0.9459990752916394
 20
-4.714619227094283
 30
0.0
 10
0.9468641488156401
 20
-4.718401881419244
 30
0.0
 10
0.9505104048936597
 20
-4.731747074688944
 30
0.0
 10
0.9572742392327507
 20
-4.752964335985654
 30
0.0
 10
0.9678168500849752
 20
-4.781801877369974
 30
0.0
 10
0.9827832309757338
 20
-4.817966545544458
 30
0.0
 10
1.0027998751807117
 20
-4.861124761680201
 30
0.0
 10
1.0284725315177918
 20
-4.910903580525591
 30
0.0
 10
1.0603840172733743
 20
-4.9668918661683215
 30
0.0
 10
1.0990920944500753
 20
-5.028641581284936
 30
0.0
 10
1.145127414363503
 20
-5.095669186932993
 30
0.0
 10
1.1989915367162078
 20
-5.167457149044286
 30
0.0
 10
1.2611550280831272
 20
-5.243455548002098
 30
0.0
 10
1.3320556450663028
 20
-5.323083787190776
 30
0.0
 10
1.4120966070263585
 20
-5.405732396222603
 30
0.0
 10
1.5016449631032622
 20
-5.490764924301319
 30
0.0
 10
1.5497317829531667
 20
-5.532740753802735
 30
0.0
 10
1.7791138422550352
 20
-5.475549383068945
 30
0.0
 10
1.9983040707106852
 20
-5.3869907823260625
 30
0.0
 10
2.01253435164103
 20
-5.324766899369008
 30
0.0
 10
2.034999627555771
 20
-5.203338936009615
 30
0.0
 10
2.051174492516179
 20
-5.089427909721996
 30
0.0
 10
2.0617299919050613
 20
-4.983332973955646
 30
0.0
 10
2.0673505747459875
 20
-4.885310194185265
 30
0.0
 10
2.0687316596957754
 20
-4.795571976100206
 30
0.0
 10
2.0665771777507183
 20
-4.714286621909083
 30
0.0
 10
2.061597098127385
 20
-4.641578016073098
 30
0.0
 10
2.0545049438373697
 20
-4.577525440793004
 30
0.0
 10
2.0460153034910724
 20
-4.522163521608121
 30
0.0
 10
2.036841345863414
 20
-4.475482303043315
 30
0.0
 10
2.027692343741426
 20
-4.437427453926545
 30
0.0
 10
2.0192712135515047
 20
-4.407900601691485
 30
0.0
 10
2.012272069425475
 20
-4.386759797295933
 30
0.0
 10
2.0073778643521445
 20
-4.373819957844413
 30
0.0
 10
2.0058544226250103
 20
-4.370251569337795
 30
0.0
 10
1.9755794636673178
 20
-4.31311620637777
 30
0.0
 10
1.9452650131010072
 20
-4.243179810471436
 30
0.0
 10
1.9240069472244026
 20
-4.17853240029249
 30
0.0
 10
1.9112984813035945
 20
-4.1197983468864345
 30
0.0
 10
1.9065965456925291
 20
-4.067568545278811
 30
0.0
 10
1.9093249573436248
 20
-4.0223980874644125
 30
0.0
 10
1.918874602673869
 20
-3.9848051173767156
 30
0.0
 10
1.934607119757232
 20
-3.955268623477357
 30
0.0
 10
1.9558564216398693
 20
-3.934227104134005
 30
0.0
 10
2.1166475215186717
 20
-3.850167548516711
 30
0.0
 10
2.276019145082449
 20
-3.7581542987507235
 30
0.0
 10
2.4292124056173043
 20
-3.660934899362168
 30
0.0
 10
2.4580595468442534
 20
-3.6530532237907134
 30
0.0
 10
2.49150515944218
 20
-3.654196711280012
 30
0.0
 10
2.5288364492402726
 20
-3.6647229608385232
 30
0.0
 10
2.5693193203456657
 20
-3.684945403817827
 30
0.0
 10
2.612200835955881
 20
-3.71513217178569
 30
0.0
 10
2.6567117355784373
 20
-3.7555050934995906
 30
0.0
 10
2.7020690021425926
 20
-3.806238823674538
 30
0.0
 10
2.7474784723638526
 20
-3.867460105919625
 30
0.0
 10
2.781821555975729
 20
-3.9222464911895196
 30
0.0
 10
2.7841503840861574
 20
-3.925350260764755
 30
0.0
 10
2.79290938387535
 20
-3.936058635500684
 30
0.0
 10
2.8077182916471597
 20
-3.9526904689085063
 30
0.0
 10
2.8290787306801204
 20
-3.9747468077024437
 30
0.0
 10
2.8574606956914614
 20
-4.001697500517894
 30
0.0
 10
2.8933008380343597
 20
-4.032982990159085
 30
0.0
 10
2.937000846290171
 20
-4.0680161939447235
 30
0.0
 10
2.988925926502703
 20
-4.1061844673830485
 30
0.0
 10
3.0494033864189762
 20
-4.146851645767787
 30
0.0
 10
3.1187213271317114
 20
-4.18936015895972
 30
0.0
 10
3.19712744615933
 20
-4.2330332133519475
 30
0.0
 10
3.28482795500002
 20
-4.277177035707514
 30
0.0
 10
3.3819866142906974
 20
-4.32108317297467
 30
0.0
 10
3.4887238893071406
 20
-4.364030842159983
 30
0.0
 10
3.6051162282635434
 20
-4.405289324194485
 30
0.0
 10
3.66611883209163
 20
-4.4240774808843435
 30
0.0
 10
3.8524079442863965
 20
-4.278532475151876
 30
0.0
 10
4.01662815387005
 20
-4.108477469990963
 30
0.0
 10
4.004319429101851
 20
-4.0458451476630275
 30
0.0
 10
3.9754532776761184
 20
-3.9257777323939274
 30
0.0
 10
3.9438979636471365
 20
-3.815135921477265
 30
0.0
 10
3.910388194146051
 20
-3.7139200664416103
 30
0.0
 10
3.875653395680919
 20
-3.6220857042400296
 30
0.0
 10
3.8404152579838957
 20
-3.539544024875203
 30
0.0
 10
3.8053853086944915
 20
-3.4661624655349335
 30
0.0
 10
3.7712625253154464
 20
-3.401765429810188
 30
0.0
 10
3.7387309905291173
 20
-3.346135129640844
 30
0.0
 10
3.708457596990245
 20
-3.2990125476584913
 30
0.0
 10
3.6810898075371545
 20
-3.260098517210585
 30
0.0
 10
3.6572534766241396
 20
-3.2290549170692753
 30
0.0
 10
3.637550738632236
 20
-3.2055059775558044
 30
0.0
 10
3.6225579624967468
 20
-3.189039700115563
 30
0.0
 10
3.6128237768227827
 20
-3.179209221104053
 30
0.0
 10
3.6099806491906046
 20
-3.1765689755667443
 30
0.0
 10
3.5590840522232106
 20
-3.1366871594395622
 30
0.0
 10
3.502944728707664
 20
-3.0851270804954654
 30
0.0
 10
3.4572300485880954
 20
-3.034715166931065
 30
0.0
 10
3.421730995555922
 20
-2.9862279380002974
 30
0.0
 10
3.396191789461905
 20
-2.9404260894944825
 30
0.0
 10
3.380311837154717
 20
-2.898051077942606
 30
0.0
 10
3.373745433811541
 20
-2.859824000195508
 30
0.0
 10
3.3761042289534777
 20
-2.8264420791734413
 30
0.0
 10
3.386958075223508
 20
-2.7985768250399747
 30
0.0
 10
3.4996579526769236
 20
-2.6563849676331706
 30
0.0
 10
3.6078260151324257
 20
-2.5075044020966475
 30
0.0
 10
3.708232330286356
 20
-2.3563807488587067
 30
0.0
 10
3.7313797388564636
 20
-2.3374472905568093
 30
0.0
 10
3.76239892458617
 20
-2.324888362164835
 30
0.0
 10
3.8007841662187642
 20
-2.319320566140859
 30
0.0
 10
3.8459923178016213
 20
-2.3213288199715607
 30
0.0
 10
3.8974445962727193
 20
-2.3314643210202113
 30
0.0
 10
3.954528473087566
 20
-2.350242606370943
 30
0.0
 10
4.016599665030407
 20
-2.378141712780133
 30
0.0
 10
4.082984219110158
 20
-2.415600441604542
 30
0.0
 10
4.136641817576162
 20
-2.4516817044673456
 30
0.0
 10
4.140031724735986
 20
-2.4535699193364344
 30
0.0
 10
4.152388957599785
 20
-2.45978990026422
 30
0.0
 10
4.172682344115865
 20
-2.46896051069148
 30
0.0
 10
4.201167197367265
 20
-2.480421905542015
 30
0.0
 10
4.238057246906671
 20
-2.4934986033712834
 30
0.0
 10
4.28352380117893
 20
-2.507501821139209
 30
0.0
 10
4.337695032923932
 20
-2.521731850663892
 30
0.0
 10
4.4006553895001215
 20
-2.5354804706724483
 30
0.0
 10
4.472445129915969
 20
-2.5480333877328705
 30
0.0
 10
4.553059989745058
 20
-2.5586727003600767
 30
0.0
 10
4.642450975170485
 20
-2.566679379171579
 30
0.0
 10
4.74052428677228
 20
-2.571335757005587
 30
0.0
 10
4.847141373520392
 20
-2.571928022342994
 30
0.0
 10
4.962119117065177
 20
-2.5677487095123284
 30
0.0
 10
5.085230146104313
 20
-2.558099179137308
 30
0.0
 10
5.148600629517448
 20
-2.5504510200388864
 30
0.0
  0
ENDSEC
  0
EOF
