999
DXF generated by OpenJsCad
  0
SECTION
  2
HEADER
  0
ENDSEC
  0
SECTION
  2
TABLES
  0
TABLE
  2
LTYPE
  70
1
  0
LTYPE
  2
CONTINUOUS
  3
Solid Line
  72
65
  73
0
  40
0.0
  0
ENDTAB
  0
TABLE
  2
LAYER
  70
1
  0
LAYER
  2
OpenJsCad
  62
7
  6
continuous
  0
ENDTAB
  0
TABLE
  2
STYLE
  70
0
  0
ENDTAB
  0
TABLE
  2
VIEW
  70
0
  0
ENDTAB
  0
ENDSEC
  0
SECTION
  2
BLOCKS
  0
ENDSEC
  0
SECTION
  2
ENTITIES
  0
LWPOLYLINE
  8
OpenJsCad
  90
1160
  70
1
 10
6.548664902284954
 20
-2.4828961929014217
 30
0.0
 10
6.638154172653793
 20
-2.2788812059336085
 30
0.0
 10
6.692843162824262
 20
-2.062919267683466
 30
0.0
 10
6.6226439714300405
 20
-1.98683774246495
 30
0.0
 10
6.545528496286194
 20
-1.9086160007299495
 30
0.0
 10
6.470634434425256
 20
-1.8375111411345173
 30
0.0
 10
6.39834286638823
 20
-1.7732857871596226
 30
0.0
 10
6.3290214441058374
 20
-1.7156853198529305
 30
0.0
 10
6.263023673364849
 20
-1.664438511528831
 30
0.0
 10
6.200688223525113
 20
-1.6192581877544194
 30
0.0
 10
6.142338265802512
 20
-1.5798419166910942
 30
0.0
 10
6.0882808410283795
 20
-1.5458727245192894
 30
0.0
 10
6.038806257939977
 20
-1.5170198357894054
 30
0.0
 10
5.994187522912787
 20
-1.4929394374284202
 30
0.0
 10
5.954679802063507
 20
-1.4732754651517226
 30
0.0
 10
5.920519916557805
 20
-1.4576604109648232
 30
0.0
 10
5.891925872765429
 20
-1.445716148130038
 30
0.0
 10
5.869096425878079
 20
-1.437054776860517
 30
0.0
 10
5.852210669776255
 20
-1.4312795205932989
 30
0.0
 10
5.841427698128569
 20
-1.4279855135909711
 30
0.0
 10
5.836886252233225
 20
-1.4267607966600846
 30
0.0
 10
5.8005810241463545
 20
-1.4182471463589617
 30
0.0
 10
5.736639141873277
 20
-1.399726601789203
 30
0.0
 10
5.680279989179765
 20
-1.3787577404844422
 30
0.0
 10
5.631587911488526
 20
-1.3558222559136017
 30
0.0
 10
5.590623939555837
 20
-1.331403790032626
 30
0.0
 10
5.557425002662931
 20
-1.3059889259162287
 30
0.0
 10
5.5320047844416
 20
-1.280063655278614
 30
0.0
 10
5.514353153046433
 20
-1.2541139738575322
 30
0.0
 10
5.504436370065063
 20
-1.228624394629958
 30
0.0
 10
5.50219719948658
 20
-1.2040768964353041
 30
0.0
 10
5.539452555061145
 20
-1.0187839022556766
 30
0.0
 10
5.570108328461577
 20
-0.8350739239933097
 30
0.0
 10
5.595036107665687
 20
-0.6477238211517469
 30
0.0
 10
5.605124513439846
 20
-0.6252334316160102
 30
0.0
 10
5.622780430611456
 20
-0.604344922270407
 30
0.0
 10
5.647901495721913
 20
-0.5855327416053463
 30
0.0
 10
5.68036229603771
 20
-0.5692660746200028
 30
0.0
 10
5.720014613786882
 20
-0.5560078392224689
 30
0.0
 10
5.766687711493226
 20
-0.5462136932920646
 30
0.0
 10
5.820188657961439
 20
-0.5403310540219485
 30
0.0
 10
5.880302694404428
 20
-0.5387981311418256
 30
0.0
 10
5.946793640142955
 20
-0.5420429756000468
 30
0.0
 10
5.983896128046333
 20
-0.5457789066096445
 30
0.0
 10
5.988589171870243
 20
-0.5460951533450144
 30
0.0
 10
5.9998574536026785
 20
-0.5464808498823878
 30
0.0
 10
6.017703516209002
 20
-0.5465012971891133
 30
0.0
 10
6.042108343150239
 20
-0.5457219415892102
 30
0.0
 10
6.073031378633723
 20
-0.5437093250949728
 30
0.0
 10
6.110410587125088
 20
-0.5400320342989221
 30
0.0
 10
6.154162552045469
 20
-0.5342616462684219
 30
0.0
 10
6.204182613503092
 20
-0.5259736698914981
 30
0.0
 10
6.260345044992752
 20
-0.5147484817413699
 30
0.0
 10
6.32250326793141
 20
-0.5001722506136083
 30
0.0
 10
6.390490106290346
 20
-0.481837862138961
 30
0.0
 10
6.464118076665273
 20
-0.4593458204034941
 30
0.0
 10
6.543179717605399
 20
-0.43230514663758896
 30
0.0
 10
6.627447955171768
 20
-0.40033426055151217
 30
0.0
 10
6.716676505005324
 20
-0.3630618471733877
 30
0.0
 10
6.810600310182864
 20
-0.3201277071321722
 30
0.0
 10
6.908936014197523
 20
-0.2711835889700026
 30
0.0
 10
7.000035250626333
 20
-0.2220180108277625
 30
0.0
 10
7.0184321875101405
 20
-4.584233940267727e-16
 30
0.0
 10
7.000035250626331
 20
0.2220180108277636
 30
0.0
 10
6.908936014197499
 20
0.27118358897001626
 30
0.0
 10
6.810600310182891
 20
0.32012770713216
 30
0.0
 10
6.716676505005312
 20
0.3630618471733928
 30
0.0
 10
6.627447955181187
 20
0.4003342605475781
 30
0.0
 10
6.543179717606865
 20
0.4323051466366549
 30
0.0
 10
6.464118076664962
 20
0.45934582040342437
 30
0.0
 10
6.390490106289327
 20
0.4818378621392824
 30
0.0
 10
6.3225032679305
 20
0.5001722506138769
 30
0.0
 10
6.260345044869693
 20
0.5147484811258792
 30
0.0
 10
6.204182613503117
 20
0.5259736698915461
 30
0.0
 10
6.154162552045478
 20
0.5342616462684725
 30
0.0
 10
6.1104105871252345
 20
0.5400320342988484
 30
0.0
 10
6.073031378633334
 20
0.5437093250871133
 30
0.0
 10
6.042108343202066
 20
0.5457219439738575
 30
0.0
 10
6.017703516063723
 20
0.5465013089707819
 30
0.0
 10
5.999857454158979
 20
0.5464808498801744
 30
0.0
 10
5.988589171332616
 20
0.5460951533268056
 30
0.0
 10
5.983896128565164
 20
0.5457789066446009
 30
0.0
 10
5.9467936401429595
 20
0.542042975600051
 30
0.0
 10
5.8803026944311085
 20
0.5387981307457973
 30
0.0
 10
5.820188657950463
 20
0.54033105434226
 30
0.0
 10
5.766687711669759
 20
0.5462135393153015
 30
0.0
 10
5.720014617816934
 20
0.5560079654183471
 30
0.0
 10
5.68036229800899
 20
0.5692661049078281
 30
0.0
 10
5.647901495712441
 20
0.5855327415091062
 30
0.0
 10
5.622780430611292
 20
0.6043449222691964
 30
0.0
 10
5.605124513439865
 20
0.6252334316160616
 30
0.0
 10
5.5950361076655195
 20
0.6477238211508883
 30
0.0
 10
5.570108328456159
 20
0.8350739239924084
 30
0.0
 10
5.539452555066561
 20
1.0187839022565832
 30
0.0
 10
5.502197199487017
 20
1.2040768964345465
 30
0.0
 10
5.5044363700650285
 20
1.2286243946300006
 30
0.0
 10
5.514353153046981
 20
1.2541139738564406
 30
0.0
 10
5.532004784481808
 20
1.2800636551906641
 30
0.0
 10
5.5574249909640185
 20
1.3059889539229028
 30
0.0
 10
5.590623894768408
 20
1.3314039080823075
 30
0.0
 10
5.631587961317732
 20
1.3558221102224046
 30
0.0
 10
5.680279989086141
 20
1.3787577407909624
 30
0.0
 10
5.7366391419766325
 20
1.3997266014059693
 30
0.0
 10
5.800581024146349
 20
1.4182471463589643
 30
0.0
 10
5.836886251731155
 20
1.426760796524683
 30
0.0
 10
5.841427698642978
 20
1.4279855137483162
 30
0.0
 10
5.852210669250814
 20
1.431279520410575
 30
0.0
 10
5.869096422189984
 20
1.437054788050994
 30
0.0
 10
5.891925871942116
 20
1.4457161503686504
 30
0.0
 10
5.920519916560725
 20
1.4576604109575162
 30
0.0
 10
5.954679802063392
 20
1.4732754651516053
 30
0.0
 10
5.994187522912761
 20
1.4929394374284652
 30
0.0
 10
6.038806257939938
 20
1.5170198357894429
 30
0.0
 10
6.088280841344619
 20
1.5458727239771048
 30
0.0
 10
6.142338265803286
 20
1.579841916691644
 30
0.0
 10
6.200688223525971
 20
1.6192581877550538
 30
0.0
 10
6.263023673365164
 20
1.6644385115288656
 30
0.0
 10
6.329021444104755
 20
1.715685319851571
 30
0.0
 10
6.398342866380599
 20
1.7732857871528436
 30
0.0
 10
6.470634434425266
 20
1.8375111411345264
 30
0.0
 10
6.545528496286172
 20
1.9086160007299289
 30
0.0
 10
6.622643971430059
 20
1.9868377424649704
 30
0.0
 10
6.692843162824263
 20
2.0629192676834673
 30
0.0
 10
6.638154172653793
 20
2.2788812059336077
 30
0.0
 10
6.548664902284953
 20
2.482896192901421
 30
0.0
 10
6.44653763663887
 20
2.499817970693149
 30
0.0
 10
6.337637903119146
 20
2.5141806106333253
 30
0.0
 10
6.234862456293911
 20
2.52429145085507
 30
0.0
 10
6.138366222579734
 20
2.5305718792983702
 30
0.0
 10
6.048282940811088
 20
2.533448642582669
 30
0.0
 10
5.964724985232085
 20
2.533352905210195
 30
0.0
 10
5.887783227366423
 20
2.530719303185433
 30
0.0
 10
5.817526937232037
 20
2.525984993592726
 30
0.0
 10
5.7540037238374
 20
2.519588701695431
 30
0.0
 10
5.697239515081128
 20
2.5119697671173706
 30
0.0
 10
5.6472385769932
 20
2.5035671906685946
 30
0.0
 10
5.603983572282784
 20
2.4948186833727615
 30
0.0
 10
5.56743565804296
 20
2.486159719246438
 30
0.0
 10
5.53753462168211
 20
2.4780225956997626
 30
0.0
 10
5.514199055993124
 20
2.47083549813358
 30
0.0
 10
5.497326586003021
 20
2.4650215407450697
 30
0.0
 10
5.486794085287641
 20
2.4609979368422605
 30
0.0
 10
5.482458009651997
 20
2.4591749967820546
 30
0.0
 10
5.448578891219427
 20
2.4435943304894514
 30
0.0
 10
5.386744207750005
 20
2.4189357255000994
 30
0.0
 10
5.329389576100287
 20
2.4008665953308275
 30
0.0
 10
5.2768774189123455
 20
2.389058622183081
 30
0.0
 10
5.2295529570660095
 20
2.383167630463752
 30
0.0
 10
5.187744198463351
 20
2.3828323201914015
 30
0.0
 10
5.151760443701661
 20
2.3876775802777215
 30
0.0
 10
5.1218922020917255
 20
2.3973136686904044
 30
0.0
 10
5.098410443315547
 20
2.41133751405021
 30
0.0
 10
5.081566037648734
 20
2.429333612244761
 30
0.0
 10
4.997156435327131
 20
2.5984385330689275
 30
0.0
 10
4.9085111438675995
 20
2.7622406846359713
 30
0.0
 10
4.813109849357848
 20
2.9253971991141143
 30
0.0
 10
4.8072571358632725
 20
2.949341703646129
 30
0.0
 10
4.8083601473447315
 20
2.9766701613326485
 30
0.0
 10
4.8166295169446816
 20
3.006945292712679
 30
0.0
 10
4.832254455785817
 20
3.0397198148017175
 30
0.0
 10
4.855402329284149
 20
3.0745373830861764
 30
0.0
 10
4.886218272442849
 20
3.110933550346642
 30
0.0
 10
4.92482484476809
 20
3.1484367407585623
 30
0.0
 10
4.97132172538804
 20
3.1865692376954216
 30
0.0
 10
5.02578544889533
 20
3.224848183638111
 30
0.0
 10
5.057359181419101
 20
3.2446888288807965
 30
0.0
 10
5.061256895178132
 20
3.247321792948807
 30
0.0
 10
5.070386052480983
 20
3.253938546077063
 30
0.0
 10
5.084481662412589
 20
3.264883688803277
 30
0.0
 10
5.10326180985956
 20
3.2804884648366843
 30
0.0
 10
5.126428255196551
 20
3.301070023551076
 30
0.0
 10
5.153667064071069
 20
3.3269307077287444
 30
0.0
 10
5.184649266269946
 20
3.3583573677377987
 30
0.0
 10
5.219031542595475
 20
3.39562070327454
 30
0.0
 10
5.256456939126023
 20
3.438974633365914
 30
0.0
 10
5.296555604377237
 20
3.4886556985502772
 30
0.0
 10
5.338945558151539
 20
3.544882487626268
 30
0.0
 10
5.383233474230761
 20
3.6078551043125784
 30
0.0
 10
5.429015492249254
 20
3.6777546603341578
 30
0.0
 10
5.475878047498293
 20
3.7547428044551956
 30
0.0
 10
5.523398720637179
 20
3.838961285377475
 30
0.0
 10
5.571147105477717
 20
3.930531549684328
 30
0.0
 10
5.618685693449108
 20
4.029554375539871
 30
0.0
 10
5.66037766816846
 20
4.124307234050704
 30
0.0
 10
5.538529151615798
 20
4.310810272719082
 30
0.0
 10
5.387645098775491
 20
4.474714046370293
 30
0.0
 10
5.28555687781271
 20
4.457558286619327
 30
0.0
 10
5.177894090668197
 20
4.435783033440699
 30
0.0
 10
5.07740431658419
 20
4.411974907419077
 30
0.0
 10
4.9840972631962295
 20
4.386582769058773
 30
0.0
 10
4.897960858599028
 20
4.3600536675988595
 30
0.0
 10
4.818961389405177
 20
4.332831893716968
 30
0.0
 10
4.747043677388616
 20
4.305358039575514
 30
0.0
 10
4.682131294653392
 20
4.278068067820257
 30
0.0
 10
4.624126816760446
 20
4.25139239098943
 30
0.0
 10
4.572912113420672
 20
4.225754962849127
 30
0.0
 10
4.528348676188773
 20
4.201572383112281
 30
0.0
 10
4.4902779826191095
 20
4.17925301700282
 30
0.0
 10
4.458521896238568
 20
4.159196131082667
 30
0.0
 10
4.4328831002002165
 20
4.141791048699335
 30
0.0
 10
4.413145566591598
 20
4.1274163221106495
 30
0.0
 10
4.39907508244291
 20
4.1164388989201255
 30
0.0
 10
4.39041972371961
 20
4.109213407583393
 30
0.0
 10
4.386910496292041
 20
4.106081317986538
 30
0.0
 10
4.3599260760199625
 20
4.0803443233976315
 30
0.0
 10
4.309448402210853
 20
4.036944100741456
 30
0.0
 10
4.261068439680114
 20
4.0012309874317324
 30
0.0
 10
4.215235578626322
 20
3.97301213327334
 30
0.0
 10
4.172388088542208
 20
3.95207410409258
 30
0.0
 10
4.132953518869165
 20
3.938181680129281
 30
0.0
 10
4.097346209816243
 20
3.9310805045883335
 30
0.0
 10
4.06596747912948
 20
3.930496280954778
 30
0.0
 10
4.039204491668977
 20
3.9361357610804077
 30
0.0
 10
4.01742943883158
 20
3.94768741145707
 30
0.0
 10
3.882685103559206
 20
4.080222008159383
 30
0.0
 10
3.7456563868327994
 20
4.206365828254749
 30
0.0
 10
3.602447363956576
 20
4.3297053230552
 30
0.0
 10
3.589136998710759
 20
4.350452075320463
 30
0.0
 10
3.5813067102827207
 20
4.376657949032015
 30
0.0
 10
3.5792977035391513
 20
4.407977750205762
 30
0.0
 10
3.583434170169866
 20
4.444049867634146
 30
0.0
 10
3.5940225820923324
 20
4.484497026269801
 30
0.0
 10
3.6113510162605396
 20
4.528927069183242
 30
0.0
 10
3.6356885119884836
 20
4.5769337668354355
 30
0.0
 10
3.6672844618492797
 20
4.628097652364385
 30
0.0
 10
3.706368037160385
 20
4.681986881544835
 30
0.0
 10
3.7297887707872333
 20
4.711004480093112
 30
0.0
 10
3.73262037362842
 20
4.714760368494083
 30
0.0
 10
3.7391064317790517
 20
4.723982840217386
 30
0.0
 10
3.7488844206510787
 20
4.738911781983623
 30
0.0
 10
3.761580145413
 20
4.759768952116513
 30
0.0
 10
3.7768085476516724
 20
4.786757477713938
 30
0.0
 10
3.7941745323028218
 20
4.820061385474676
 30
0.0
 10
3.813273813504559
 20
4.859845166969071
 30
0.0
 10
3.8336937779925844
 20
4.906253379075945
 30
0.0
 10
3.8550143652200535
 20
4.959410280040095
 30
0.0
 10
3.876808958688947
 20
5.019419503400404
 30
0.0
 10
3.898645299275517
 20
5.086363765444068
 30
0.0
 10
3.9200863986897607
 20
5.160304614904089
 30
0.0
 10
3.940691471953651
 20
5.241282217126243
 30
0.0
 10
3.960016875167186
 20
5.329315178057392
 30
0.0
 10
3.9776170511064755
 20
5.424400406727965
 30
0.0
 10
3.9930454805366455
 20
5.5265130167495755
 30
0.0
 10
4.005855637691647
 20
5.635606267046718
 30
0.0
 10
4.014522423357664
 20
5.738762516388153
 30
0.0
 10
3.8387185578658274
 20
5.875596157342239
 30
0.0
 10
3.6427903508866017
 20
5.981627200572652
 30
0.0
 10
3.551804017410402
 20
5.93225299604705
 30
0.0
 10
3.457045110188474
 20
5.876699536309387
 30
0.0
 10
3.369730635127197
 20
5.821552423919979
 30
0.0
 10
3.2897240291081453
 20
5.767239350947031
 30
0.0
 10
3.216868717664522
 20
5.714179224527509
 30
0.0
 10
3.1509885531460395
 20
5.662781315725645
 30
0.0
 10
3.0918882869938518
 20
5.613444427864496
 30
0.0
 10
3.03935407554655
 20
5.566556085833913
 30
0.0
 10
2.993154018367203
 20
5.5224917475699495
 30
0.0
 10
2.953038728228791
 20
5.481614039012089
 30
0.0
 10
2.9187419317499708
 20
5.444272013733045
 30
0.0
 10
2.889981099697008
 20
5.410800438448564
 30
0.0
 10
2.8664581058815304
 20
5.381519105538681
 30
0.0
 10
2.847859911543343
 20
5.356732175062606
 30
0.0
 10
2.833859278040974
 20
5.336727544124167
 30
0.0
 10
2.824115535017268
 20
5.321776229266593
 30
0.0
 10
2.8182752607054478
 20
5.312131844597321
 30
0.0
 10
2.8159731607290044
 20
5.308030015971014
 30
0.0
 10
2.7988076192603177
 20
5.274925695800131
 30
0.0
 10
2.7651569943105465
 20
5.217486943025769
 30
0.0
 10
2.730994420531457
 20
5.16799991654875
 30
0.0
 10
2.6968075572771055
 20
5.1264281320884075
 30
0.0
 10
2.6630802293531386
 20
5.092712025794949
 30
0.0
 10
2.6302931961241796
 20
5.066767947840294
 30
0.0
 10
2.598920937220238
 20
5.048489859228033
 30
0.0
 10
2.569432089817728
 20
5.037748633244098
 30
0.0
 10
2.5422880586347847
 20
5.034392622958389
 30
0.0
 10
2.517942023476492
 20
5.038248024956527
 30
0.0
 10
2.347464594753892
 20
5.119850117498138
 30
0.0
 10
2.176901640437528
 20
5.194665965891455
 30
0.0
 10
2.0014038089404154
 20
5.264822692943136
 30
0.0
 10
1.9820781765493363
 20
5.280123460414677
 30
0.0
 10
1.966163121462423
 20
5.302366937108588
 30
0.0
 10
1.9540934454289507
 20
5.331337421642088
 30
0.0
 10
1.9462931895059155
 20
5.3667981607698785
 30
0.0
 10
1.9431747211245771
 20
5.408491832516228
 30
0.0
 10
1.9451378415818066
 20
5.456141066529824
 30
0.0
 10
1.9525689154151737
 20
5.5094490008310135
 30
0.0
 10
1.965840023087725
 20
5.56809987406551
 30
0.0
 10
1.9853081383735312
 20
5.631759652324473
 30
0.0
 10
1.9980378732048627
 20
5.666809697121203
 30
0.0
 10
1.9994965170235184
 20
5.671281501068277
 30
0.0
 10
2.0026366109797467
 20
5.682110293474015
 30
0.0
 10
2.0070373819767826
 20
5.699405251793501
 30
0.0
 10
2.0122729052812316
 20
5.723254618009638
 30
0.0
 10
2.0179130307460196
 20
5.753725484971494
 30
0.0
 10
2.023524317275832
 20
5.790863621146052
 30
0.0
 10
2.0286709740063387
 20
5.834693334091897
 30
0.0
 10
2.032915806656187
 20
5.885217372889518
 30
0.0
 10
2.0358211681314846
 20
5.942416869692676
 30
0.0
 10
2.036949907437742
 20
6.006251320738802
 30
0.0
 10
2.0358663285082907
 20
6.076658606210457
 30
0.0
 10
2.032137135443088
 20
6.153555050094707
 30
0.0
 10
2.0253323845435784
 20
6.236835518819704
 30
0.0
 10
2.0150264284188966
 20
6.326373559271944
 30
0.0
 10
2.000798855000699
 20
6.422021575765016
 30
0.0
 10
1.9822354192949945
 20
6.523611045765145
 30
0.0
 10
1.9589289663357934
 20
6.630952774078004
 30
0.0
 10
1.933631382242526
 20
6.73133383399977
 30
0.0
 10
1.722923244515592
 20
6.803670029049487
 30
0.0
 10
1.5031827447630157
 20
6.840338233083938
 30
0.0
 10
1.4331580798039687
 20
6.764096044963767
 30
0.0
 10
1.3615716504380613
 20
6.680784458030387
 30
0.0
 10
1.2968943525960777
 20
6.600274404596201
 30
0.0
 10
1.2388581511384995
 20
6.522926061221388
 30
0.0
 10
1.1871789363100036
 20
6.449084797852501
 30
0.0
 10
1.1415572145285449
 20
6.379080515070072
 30
0.0
 10
1.1016788251134346
 20
6.313227010829677
 30
0.0
 10
1.0672156819166478
 20
6.251821377930369
 30
0.0
 10
1.037826538514031
 20
6.195143433012824
 30
0.0
 10
1.0131577757163386
 20
6.143455178042651
 30
0.0
 10
0.9928442100587066
 20
6.097000295081617
 30
0.0
 10
0.9765099219456738
 20
6.056003675169192
 30
0.0
 10
0.9637691020720217
 20
6.020670982037058
 30
0.0
 10
0.9542269123712604
 20
5.991188251994176
 30
0.0
 10
0.9474803648573352
 20
5.967721528871994
 30
0.0
 10
0.9431192487049799
 20
5.950416529305741
 30
0.0
 10
0.9407269431475173
 20
5.939398370030893
 30
0.0
 10
0.9398814388754085
 20
5.9347712991532235
 30
0.0
 10
0.9343949289790655
 20
5.897887020157331
 30
0.0
 10
0.9212179202451848
 20
5.832634117381962
 30
0.0
 10
0.9049747801736581
 20
5.7747358649267655
 30
0.0
 10
0.8861385918161951
 20
5.72431609806345
 30
0.0
 10
0.8651863053663508
 20
5.681475577933482
 30
0.0
 10
0.8425997923750711
 20
5.646291289397704
 30
0.0
 10
0.8188622546631042
 20
5.618817002229033
 30
0.0
 10
0.7944588647275227
 20
5.599082752397371
 30
0.0
 10
0.76987526678385
 20
5.587094927488648
 30
0.0
 10
0.7455965199817208
 20
5.582836288479037
 30
0.0
 10
0.5578598724408422
 20
5.604663023946135
 30
0.0
 10
0.3722458231916191
 20
5.62004344257649
 30
0.0
 10
0.18347709624575848
 20
5.629414831909569
 30
0.0
 10
0.1602304288470745
 20
5.6376115390159764
 30
0.0
 10
0.13795525026747618
 20
5.653482192849361
 30
0.0
 10
0.11713284162264741
 20
5.676963959220025
 30
0.0
 10
0.09824114190856402
 20
5.707970598732667
 30
0.0
 10
0.08175372766056192
 20
5.7463926273120185
 30
0.0
 10
0.0681387998443205
 20
5.792097518566354
 30
0.0
 10
0.057858179628275413
 20
5.844929947677179
 30
0.0
 10
0.051366314673807895
 20
5.904712076440199
 30
0.0
 10
0.04910929756416584
 20
5.971243879020083
 30
0.0
 10
0.04976856930881753
 20
6.008528153854059
 30
0.0
 10
0.0496961874139998
 20
6.013231284002383
 30
0.0
 10
0.04915003927209007
 20
6.024492929407367
 30
0.0
 10
0.047696700571608096
 20
6.04227972718726
 30
0.0
 10
0.04490467223103374
 20
6.066536840596077
 30
0.0
 10
0.040345325812263536
 20
6.097188057682833
 30
0.0
 10
0.033593844257152464
 20
6.13413592895914
 30
0.0
 10
0.024230156401071134
 20
6.177261943870684
 30
0.0
 10
0.011839863729766927
 20
6.226426745794096
 30
0.0
 10
-0.003984841544283853
 20
6.281470385415998
 30
0.0
 10
-0.023644272818689915
 20
6.342212610883533
 30
0.0
 10
-0.047530348673697716
 20
6.4084531979207275
 30
0.0
 10
-0.07602571828534062
 20
6.479972313363083
 30
0.0
 10
-0.10950289300169815
 20
6.556530917574955
 30
0.0
 10
-0.14832339820510268
 20
6.637871201539442
 30
0.0
 10
-0.1928369426373764
 20
6.723717059136097
 30
0.0
 10
-0.24338060717886054
 20
6.813774593717191
 30
0.0
 10
-0.3002780544372564
 20
6.907732658204542
 30
0.0
 10
-0.35679862252084094
 20
6.994460683291487
 30
0.0
 10
-0.5795775362865352
 20
6.994460683291486
 30
0.0
 10
-0.799318036039111
 20
6.957792479257034
 30
0.0
 10
-0.8407927734880651
 20
6.862944331644555
 30
0.0
 10
-0.8814492245982568
 20
6.760902720672153
 30
0.0
 10
-0.9164805564280913
 20
6.663754239724976
 30
0.0
 10
-0.9462572303718169
 20
6.571752519136165
 30
0.0
 10
-0.9711601037728788
 20
6.485131965469187
 30
0.0
 10
-0.9915795613683425
 20
6.404107358974036
 30
0.0
 10
-1.0079146317762813
 20
6.328873487361241
 30
0.0
 10
-1.0205720904064173
 20
6.259604816724413
 30
0.0
 10
-1.0299655503250846
 20
6.19645519993403
 30
0.0
 10
-1.0365145425576348
 20
6.1395576230034745
 30
0.0
 10
-1.0406435873576276
 20
6.089023989751056
 30
0.0
 10
-1.0427812579610893
 20
6.044944945106299
 30
0.0
 10
-1.0433592383654153
 20
6.007389737296001
 30
0.0
 10
-1.0428113791123448
 20
5.976406118958151
 30
0.0
 10
-1.0415727475312222
 20
5.95202028722624
 30
0.0
 10
-1.0400786422074293
 20
5.934236868169047
 30
0.0
 10
-1.0387637355829376
 20
5.923038922810408
 30
0.0
 10
-1.038061020643478
 20
5.918388024607373
 30
0.0
 10
-1.0312739504882367
 20
5.881720770734233
 30
0.0
 10
-1.0225494096475538
 20
5.815724882476677
 30
0.0
 10
-1.0191129197464814
 20
5.755689578080775
 30
0.0
 10
-1.0205572399249478
 20
5.701885592897416
 30
0.0
 10
-1.0264639795556083
 20
5.65456309402618
 30
0.0
 10
-1.0364023731607446
 20
5.613951358512619
 30
0.0
 10
-1.049932859143797
 20
5.580258138109754
 30
0.0
 10
-1.0666063056553208
 20
5.553669376608061
 30
0.0
 10
-1.0859654560687015
 20
5.534348803915451
 30
0.0
 10
-1.1075459355750845
 20
5.522437613514375
 30
0.0
 10
-1.2921976231389602
 20
5.482123726442406
 30
0.0
 10
-1.4727486049861678
 20
5.436402008299415
 30
0.0
 10
-1.6543322067676038
 20
5.383972524467565
 30
0.0
 10
-1.6789807720520356
 20
5.384176930808845
 30
0.0
 10
-1.7052022128902116
 20
5.391954930180287
 30
0.0
 10
-1.73252092307677
 20
5.4074033646447095
 30
0.0
 10
-1.7604568577829571
 20
5.430595854033425
 30
0.0
 10
-1.7885265507352608
 20
5.4615826164700065
 30
0.0
 10
-1.816244138138712
 20
5.5003903308132145
 30
0.0
 10
-1.8431223876835021
 20
5.547022041259916
 30
0.0
 10
-1.8686737309655086
 20
5.601457104284683
 30
0.0
 10
-1.89241129764554
 20
5.6636511780286725
 30
0.0
 10
-1.9038939313107566
 20
5.699129353196503
 30
0.0
 10
-1.9054894952176231
 20
5.703554152417922
 30
0.0
 10
-1.9096627018321335
 20
5.7140282768000885
 30
0.0
 10
-1.9168126584310627
 20
5.730379438510334
 30
0.0
 10
-1.9273296788231757
 20
5.752415664486092
 30
0.0
 10
-1.9415944211954812
 20
5.779925696723759
 30
0.0
 10
-1.9599770430489898
 20
5.8126794279437375
 30
0.0
 10
-1.9828363746198656
 20
5.850428371936246
 30
0.0
 10
-2.0105191121461874
 20
5.892906167826542
 30
0.0
 10
-2.043359031807541
 20
5.939829117824089
 30
0.0
 10
-2.0816762292365225
 20
5.990896755070884
 30
0.0
 10
-2.125776375067542
 20
6.045792448239531
 30
0.0
 10
-2.1759500057769876
 20
6.1041840293483975
 30
0.0
 10
-2.2324718329777893
 20
6.165724456351647
 30
0.0
 10
-2.295600083158926
 20
6.230052501936282
 30
0.0
 10
-2.365575865367232
 20
6.296793469930196
 30
0.0
 10
-2.442622568425665
 20
6.365559937833768
 30
0.0
 10
-2.5269452887179495
 20
6.435952524298821
 30
0.0
 10
-2.60856396023302
 20
6.499629187308812
 30
0.0
 10
-2.8192720979599533
 20
6.427292992259094
 30
0.0
 10
-3.0152003049391785
 20
6.3212619490286786
 30
0.0
 10
-3.023630683528586
 20
6.21808611043835
 30
0.0
 10
-3.028951399055435
 20
6.108372267314519
 30
0.0
 10
-3.0305405765022386
 20
6.005112904178972
 30
0.0
 10
-3.028830958277608
 20
5.9084276203557415
 30
0.0
 10
-3.0242588775103365
 20
5.818414457436862
 30
0.0
 10
-3.017263305848808
 20
5.735149800569045
 30
0.0
 10
-3.0082848989061417
 20
5.658688318946893
 30
0.0
 10
-2.9977650409263457
 20
5.589062945850213
 30
0.0
 10
-2.986144890224328
 20
5.526284898033493
 30
0.0
 10
-2.9738644269652537
 20
5.470343734459853
 30
0.0
 10
-2.9613615048347963
 20
5.421207454189058
 30
0.0
 10
-2.9490709081494253
 20
5.3788226332560765
 30
0.0
 10
-2.9374234159393264
 20
5.343114600262951
 30
0.0
 10
-2.926844876783407
 20
5.3139876494374105
 30
0.0
 10
-2.9177552910583997
 20
5.291325292349089
 30
0.0
 10
-2.910567873753725
 20
5.274990563193981
 30
0.0
 10
-2.905688245482921
 20
5.264826302885185
 30
0.0
 10
-2.903513461399329
 20
5.260655574343205
 30
0.0
 10
-2.8851882955560684
 20
5.228178811501035
 30
0.0
 10
-2.8555076445161087
 20
5.168591616285715
 30
0.0
 10
-2.8327639216458533
 20
5.11292501672413
 30
0.0
 10
-2.81665985914305
 20
5.0615673098701945
 30
0.0
 10
-2.806880965063035
 20
5.014890959294616
 30
0.0
 10
-2.8030942601248463
 20
4.973252688502168
 30
0.0
 10
-2.8049514562755995
 20
4.936991718099939
 30
0.0
 10
-2.812088132718363
 20
4.906429749804069
 30
0.0
 10
-2.824124971265993
 20
4.881870113168389
 30
0.0
 10
-2.840668603666472
 20
4.863597133676968
 30
0.0
 10
-3.002225455739658
 20
4.765511259264588
 30
0.0
 10
-3.1581478697645706
 20
4.6636420619545955
 30
0.0
 10
-3.3128689455686775
 20
4.555093253058262
 30
0.0
 10
-3.3362483542283923
 20
4.547283208035645
 30
0.0
 10
-3.3635745573427536
 20
4.546125686025153
 30
0.0
 10
-3.3944291629288643
 20
4.551866711001954
 30
0.0
 10
-3.4283820406310506
 20
4.564731784172925
 30
0.0
 10
-3.464992225510112
 20
4.584925383947574
 30
0.0
 10
-3.503808841822927
 20
4.612630503366838
 30
0.0
 10
-3.544372045299272
 20
4.648008225756975
 30
0.0
 10
-3.586213982394271
 20
4.691197339317727
 30
0.0
 10
-3.6288597649686145
 20
4.742313991295176
 30
0.0
 10
-3.6512399825146526
 20
4.772141456016818
 30
0.0
 10
-3.6541858243265346
 20
4.775808428657857
 30
0.0
 10
-3.6615338577229912
 20
4.784359998117615
 30
0.0
 10
-3.6736056234798666
 20
4.797503621672491
 30
0.0
 10
-3.6907079535756466
 20
4.814930993203441
 30
0.0
 10
-3.713132285725165
 20
4.836318701736937
 30
0.0
 10
-3.7411540055634767
 20
4.8613289178963965
 30
0.0
 10
-3.7750318175743667
 20
4.889610107153066
 30
0.0
 10
-3.8150071458027996
 20
4.9207977687146185
 30
0.0
 10
-3.8613035649922933
 20
4.954515199370989
 30
0.0
 10
-3.9141262656818427
 20
4.99037427750532
 30
0.0
 10
-3.973661546403816
 20
5.027976276656154
 30
0.0
 10
-4.040076346799601
 20
5.0669126895796515
 30
0.0
 10
-4.113517809481127
 20
5.106766079210365
 30
0.0
 10
-4.194112879197142
 20
5.147110944523581
 30
0.0
 10
-4.281967937393079
 20
5.187514603439797
 30
0.0
 10
-4.377168473189304
 20
5.227538090846803
 30
0.0
 10
-4.479778791369995
 20
5.266737070292554
 30
0.0
 10
-4.5776509168137185
 20
5.300462016743229
 30
0.0
 10
-4.753454782305554
 20
5.163628375789143
 30
0.0
 10
-4.904338835145861
 20
4.999724602137932
 30
0.0
 10
-4.87881129254476
 20
4.899401775619102
 30
0.0
 10
-4.848219690401523
 20
4.793904897631987
 30
0.0
 10
-4.816194501430306
 20
4.695724406537911
 30
0.0
 10
-4.783183854699418
 20
4.604832910209261
 30
0.0
 10
-4.74963227565809
 20
4.5211814609388705
 30
0.0
 10
-4.715979753476573
 20
4.444699771254283
 30
0.0
 10
-4.682660818889879
 20
4.375296467578662
 30
0.0
 10
-4.650103634144676
 20
4.312859381546132
 30
0.0
 10
-4.618729096455752
 20
4.257255878285795
 30
0.0
 10
-4.588949956450195
 20
4.208333221158859
 30
0.0
 10
-4.561169953004949
 20
4.165918972264974
 30
0.0
 10
-4.535782965889861
 20
4.129821428060114
 30
0.0
 10
-4.513172187575765
 20
4.099830089326186
 30
0.0
 10
-4.493709317377487
 20
4.075716163086112
 30
0.0
 10
-4.477753775161355
 20
4.057233098674602
 30
0.0
 10
-4.465651914065029
 20
4.044117180784969
 30
0.0
 10
-4.457736347586288
 20
4.036088060845223
 30
0.0
 10
-4.454325165959274
 20
4.0328494651173425
 30
0.0
 10
-4.426447720491355
 20
4.0080825544889915
 30
0.0
 10
-4.379027318335051
 20
3.961361249508083
 30
0.0
 10
-4.339440997773826
 20
3.9160956945996017
 30
0.0
 10
-4.3075336776422075
 20
3.872749670509642
 30
0.0
 10
-4.283128844760263
 20
3.831777575072785
 30
0.0
 10
-4.266027389515583
 20
3.793624921726153
 30
0.0
 10
-4.256010039813734
 20
3.7587256401145708
 30
0.0
 10
-4.252836576558219
 20
3.7275023285071778
 30
0.0
 10
-4.256246725012669
 20
3.7003650456399306
 30
0.0
 10
-4.265960751035747
 20
3.6777104379205494
 30
0.0
 10
-4.386915575883269
 20
3.532481702619494
 30
0.0
 10
-4.501312809140754
 20
3.3855041343344983
 30
0.0
 10
-4.612404929659309
 20
3.2325989481259074
 30
0.0
 10
-4.631981659997124
 20
3.217620791302929
 30
0.0
 10
-4.657451407270502
 20
3.207653183381146
 30
0.0
 10
-4.688498332982376
 20
3.2030646697329073
 30
0.0
 10
-4.7247888325483505
 20
3.204208196385881
 30
0.0
 10
-4.765972227756974
 20
3.211420343627029
 30
0.0
 10
-4.811681490299801
 20
3.225020588544052
 30
0.0
 10
-4.861533995208086
 20
3.24531059771473
 30
0.0
 10
-4.9151323029872875
 20
3.2725735512090144
 30
0.0
 10
-4.9720649691965155
 20
3.3070734990215898
 30
0.0
 10
-5.002917526787408
 20
3.3280179846736515
 30
0.0
 10
-5.006894418834543
 20
3.330529757349712
 30
0.0
 10
-5.016621005577954
 20
3.3362320766448237
 30
0.0
 10
-5.032306417360272
 20
3.3447438464878276
 30
0.0
 10
-5.05414075432385
 20
3.35567383745506
 30
0.0
 10
-5.082294651912816
 20
3.36862153220029
 30
0.0
 10
-5.116918881589666
 20
3.3831779883048645
 30
0.0
 10
-5.158143987440778
 20
3.3989267171418684
 30
0.0
 10
-5.206079959276642
 20
3.415444577318054
 30
0.0
 10
-5.260815942612135
 20
3.432302681841789
 30
0.0
 10
-5.322419987313889
 20
3.4490673133368754
 30
0.0
 10
-5.3909388314755295
 20
3.4653008584067693
 30
0.0
 10
-5.466397727402963
 20
3.480562738643943
 30
0.0
 10
-5.548800303521966
 20
3.494410357746577
 30
0.0
 10
-5.638128466407773
 20
3.506400050616602
 30
0.0
 10
-5.734342341824124
 20
3.5160880370841836
 30
0.0
 10
-5.837380255116107
 20
3.5230313781056837
 30
0.0
 10
-5.947158751047193
 20
3.5267889328743482
 30
0.0
 10
-6.050678366985245
 20
3.5269075415213167
 30
0.0
 10
-6.172526883537908
 20
3.340404502852938
 30
0.0
 10
-6.262016153906746
 20
3.1363895158851247
 30
0.0
 10
-6.205296995456599
 20
3.049791236360151
 30
0.0
 10
-6.1421081504131125
 20
2.95994354719238
 30
0.0
 10
-6.079939021170913
 20
2.8774813077771
 30
0.0
 10
-6.019204561720018
 20
2.8022331028971155
 30
0.0
 10
-5.960309318600151
 20
2.734008299789633
 30
0.0
 10
-5.903646618849695
 20
2.67259755510129
 30
0.0
 10
-5.849597780177978
 20
2.617773354228668
 30
0.0
 10
-5.798531344811282
 20
2.5692905823431214
 30
0.0
 10
-5.7508023381201605
 20
2.526887125994673
 30
0.0
 10
-5.706751553258688
 20
2.4902845043273847
 30
0.0
 10
-5.666704862923112
 20
2.4591885288029416
 30
0.0
 10
-5.630972559351919
 20
2.4332899903519105
 30
0.0
 10
-5.599848723606532
 20
2.4122653727925685
 30
0.0
 10
-5.573610626349427
 20
2.3957775892121895
 30
0.0
 10
-5.552518158217032
 20
2.3834767443007707
 30
0.0
 10
-5.536813277758566
 20
2.3750009508943926
 30
0.0
 10
-5.5267195475225295
 20
2.3699770510537994
 30
0.0
 10
-5.522441622811314
 20
2.3680215402391243
 30
0.0
 10
-5.488032851498322
 20
2.3536483608893866
 30
0.0
 10
-5.428011434602662
 20
2.324855924493315
 30
0.0
 10
-5.3758723084283275
 20
2.2948966394797226
 30
0.0
 10
-5.331619383897237
 20
2.264259512446748
 30
0.0
 10
-5.295233254536121
 20
2.2334316344367617
 30
0.0
 10
-5.266670257017128
 20
2.202899030525465
 30
0.0
 10
-5.24586389673807
 20
2.1731433163852922
 30
0.0
 10
-5.232724187769368
 20
2.1446421917586345
 30
0.0
 10
-5.227138103631693
 20
2.1178680083368158
 30
0.0
 10
-5.228969857829124
 20
2.093286750658327
 30
0.0
 10
-5.296215323371271
 20
1.9166529413944755
 30
0.0
 10
-5.356690660581917
 20
1.7404943022501047
 30
0.0
 10
-5.412115270784878
 20
1.5598023882233758
 30
0.0
 10
-5.425767880304422
 20
1.539279235301855
 30
0.0
 10
-5.446621129415897
 20
1.5215816864504774
 30
0.0
 10
-5.474495959109964
 20
1.5071608708291118
 30
0.0
 10
-5.509191441806634
 20
1.4964589321075936
 30
0.0
 10
-5.55048518744775
 20
1.4899080787536685
 30
0.0
 10
-5.598133788371786
 20
1.4879296516021467
 30
0.0
 10
-5.651873302263886
 20
1.4909332102277941
 30
0.0
 10
-5.711419772415978
 20
1.499315639616195
 30
0.0
 10
-5.776469784474985
 20
1.5134602785965565
 30
0.0
 10
-5.812451328769003
 20
1.5232521251714584
 30
0.0
 10
-5.817028313090245
 20
1.5243365083389206
 30
0.0
 10
-5.828079426583417
 20
1.5265716426931604
 30
0.0
 10
-5.845678726640324
 20
1.5295291764880854
 30
0.0
 10
-5.86987898126705
 20
1.5327773527740158
 30
0.0
 10
-5.900711532638969
 20
1.535881950101151
 30
0.0
 10
-5.938186199618594
 20
1.5384072282652217
 30
0.0
 10
-5.982291219417531
 20
1.5399168775463652
 30
0.0
 10
-6.032993228509173
 20
1.539974969886086
 30
0.0
 10
-6.090237282879975
 20
1.5381469110715953
 30
0.0
 10
-6.153946917465257
 20
1.5340003879748838
 30
0.0
 10
-6.22402424512224
 20
1.5271063224661108
 30
0.0
 10
-6.300350094342177
 20
1.5170398084807903
 30
0.0
 10
-6.382784186168451
 20
1.5033810526576268
 30
0.0
 10
-6.471165349706116
 20
1.4857163038227403
 30
0.0
 10
-6.565311776029423
 20
1.4636387741833266
 30
0.0
 10
-6.665021310114024
 20
1.4367495500826029
 30
0.0
 10
-6.7700717803725015
 20
1.4046584908105286
 30
0.0
 10
-6.8680209301456525
 20
1.371157908566488
 30
0.0
 10
-6.922709920316122
 20
1.1551959703163475
 30
0.0
 10
-6.94110685719993
 20
0.9331779594885834
 30
0.0
 10
-6.859342483807233
 20
0.8696884942547514
 30
0.0
 10
-6.770403887699912
 20
0.8052263851581909
 30
0.0
 10
-6.684827807993553
 20
0.7474184605958336
 30
0.0
 10
-6.6029510568963925
 20
0.6959678577594615
 30
0.0
 10
-6.525094363143877
 20
0.6505629168484748
 30
0.0
 10
-6.4515617685548206
 20
0.6108779242292413
 30
0.0
 10
-6.3826400561223045
 20
0.5765738790092925
 30
0.0
 10
-6.318598210783484
 20
0.5472992818922456
 30
0.0
 10
-6.25968691355699
 20
0.5226909449084566
 30
0.0
 10
-6.206138069897696
 20
0.5023748207066602
 30
0.0
 10
-6.1581643729580735
 20
0.485966850003507
 30
0.0
 10
-6.115958902466531
 20
0.47307382580470153
 30
0.0
 10
-6.079694759828936
 20
0.4632942729630551
 30
0.0
 10
-6.049524740476836
 20
0.4562193392276271
 30
0.0
 10
-6.02558104263369
 20
0.45143370122972676
 30
0.0
 10
-6.007975010297086
 20
0.4485165160376687
 30
0.0
 10
-5.996796928595188
 20
0.4470422537977948
 30
0.0
 10
-5.992115840321076
 20
0.44658173783597227
 30
0.0
 10
-5.95490446744187
 20
0.44415984677024883
 30
0.0
 10
-5.888786287655739
 20
0.43641638620320944
 30
0.0
 10
-5.829744439211182
 20
0.42500992448193264
 30
0.0
 10
-5.777941401308438
 20
0.4104017026039726
 30
0.0
 10
-5.7335169771733945
 20
0.3930587209470511
 30
0.0
 10
-5.696587681361844
 20
0.373454847867042
 30
0.0
 10
-5.667247002485755
 20
0.35206719453284263
 30
0.0
 10
-5.645564939154215
 20
0.3293767959807331
 30
0.0
 10
-5.631587961317758
 20
0.3058671102223578
 30
0.0
 10
-5.625338944699658
 20
0.28202296327173704
 30
0.0
 10
-5.6315879613240325
 20
0.09312509403476797
 30
0.0
 10
-5.631587961329525
 20
-0.09312509403476922
 30
0.0
 10
-5.6253389446999655
 20
-0.28202296327091636
 30
0.0
 10
-5.631587961317732
 20
-0.3058671102224041
 30
0.0
 10
-5.645564939154577
 20
-0.32937679597956493
 30
0.0
 10
-5.667247002510939
 20
-0.352067194439473
 30
0.0
 10
-5.696587674432237
 20
-0.37345487741731764
 30
0.0
 10
-5.733516952427147
 20
-0.39305884475845576
 30
0.0
 10
-5.777941426478055
 20
-0.4104015506981942
 30
0.0
 10
-5.8297444391692865
 20
-0.425009924799681
 30
0.0
 10
-5.8887862876946055
 20
-0.43641638580818953
 30
0.0
 10
-5.954904467441865
 20
-0.44415984677025094
 30
0.0
 10
-5.992115839803566
 20
-0.446581737785054
 30
0.0
 10
-5.99679692912848
 20
-0.44704225386832347
 30
0.0
 10
-6.007975009748736
 20
-0.4485165159439202
 30
0.0
 10
-6.025581040837788
 20
-0.45143371287461936
 30
0.0
 10
-6.049524740033216
 20
-0.4562193415712191
 30
0.0
 10
-6.079694759830613
 20
-0.46329427295536557
 30
0.0
 10
-6.1159589024663985
 20
-0.4730738258046034
 30
0.0
 10
-6.158164372958055
 20
-0.48596685000355416
 30
0.0
 10
-6.206138069897664
 20
-0.5023748207067021
 30
0.0
 10
-6.259686913779676
 20
-0.5226909443216138
 30
0.0
 10
-6.318598210784336
 20
-0.547299281892659
 30
0.0
 10
-6.382640056123256
 20
-0.5765738790097755
 30
0.0
 10
-6.4515617685551385
 20
-0.6108779242292223
 30
0.0
 10
-6.5250943631425855
 20
-0.6505629168473108
 30
0.0
 10
-6.60295105688775
 20
-0.6959678577540296
 30
0.0
 10
-6.684827807993564
 20
-0.7474184605958398
 30
0.0
 10
-6.770403887699886
 20
-0.8052263851581725
 30
0.0
 10
-6.859342483807255
 20
-0.8696884942547671
 30
0.0
 10
-6.941106857199931
 20
-0.9331779594885833
 30
0.0
 10
-6.922709920316123
 20
-1.1551959703163428
 30
0.0
 10
-6.8680209301456525
 20
-1.3711579085664853
 30
0.0
 10
-6.770071780372477
 20
-1.4046584908105342
 30
0.0
 10
-6.665021310114055
 20
-1.4367495500825913
 30
0.0
 10
-6.565311776029412
 20
-1.463638774183326
 30
0.0
 10
-6.471165349716054
 20
-1.4857163038204064
 30
0.0
 10
-6.382784186170053
 20
-1.5033810526569429
 30
0.0
 10
-6.3003500943418835
 20
-1.5170398084806667
 30
0.0
 10
-6.224024245121185
 20
-1.5271063224662567
 30
0.0
 10
-6.153946917464317
 20
-1.5340003879749957
 30
0.0
 10
-6.090237282859902
 20
-1.5381469104442411
 30
0.0
 10
-6.0329932285091905
 20
-1.5399749698861345
 30
0.0
 10
-5.982291219417534
 20
-1.5399168775464138
 30
0.0
 10
-5.938186199618752
 20
-1.5384072282651697
 30
0.0
 10
-5.90071153263988
 20
-1.5358819500933314
 30
0.0
 10
-5.869878980925671
 20
-1.5327773551346668
 30
0.0
 10
-5.84567872455783
 20
-1.5295291880851518
 30
0.0
 10
-5.828079427132497
 20
-1.526571642782538
 30
0.0
 10
-5.817028312562949
 20
-1.5243365082324667
 30
0.0
 10
-5.812451329275007
 20
-1.523252125291332
 30
0.0
 10
-5.77646978447499
 20
-1.5134602785965585
 30
0.0
 10
-5.71141977250748
 20
-1.4993156392299565
 30
0.0
 10
-5.6518733022003405
 20
-1.4909332105419277
 30
0.0
 10
-5.598133813889655
 20
-1.4879294997544794
 30
0.0
 10
-5.5504851706516805
 20
-1.4899082038917213
 30
0.0
 10
-5.509191438765818
 20
-1.4964589623067917
 30
0.0
 10
-5.474495959116464
 20
-1.5071608707326223
 30
0.0
 10
-5.446621129415935
 20
-1.521581686449253
 30
0.0
 10
-5.425767880304433
 20
-1.5392792353019054
 30
0.0
 10
-5.412115270784856
 20
-1.5598023882224976
 30
0.0
 10
-5.356690660576723
 20
-1.7404943022483204
 30
0.0
 10
-5.296215323376466
 20
-1.9166529413962579
 30
0.0
 10
-5.228969857829682
 20
-2.093286750657649
 30
0.0
 10
-5.227138103631653
 20
-2.1178680083368495
 30
0.0
 10
-5.23272418777009
 20
-2.144642191757645
 30
0.0
 10
-5.2458638967922075
 20
-2.173143316305157
 30
0.0
 10
-5.266670240868029
 20
-2.2028990562245836
 30
0.0
 10
-5.2952331909291965
 20
-2.2334317435046276
 30
0.0
 10
-5.3316194570268225
 20
-2.2642593769442034
 30
0.0
 10
-5.375872308285531
 20
-2.294896639766649
 30
0.0
 10
-5.428011434767687
 20
-2.324855924132317
 30
0.0
 10
-5.4880328514983185
 20
-2.3536483608893852
 30
0.0
 10
-5.52244162233838
 20
-2.3680215400229283
 30
0.0
 10
-5.526719548004026
 20
-2.369977051293664
 30
0.0
 10
-5.53681327727037
 20
-2.375000950627673
 30
0.0
 10
-5.552518152737349
 20
-2.3834767547315807
 30
0.0
 10
-5.573610625168881
 20
-2.3957775912847543
 30
0.0
 10
-5.5998487236106165
 20
-2.4122653727858383
 30
0.0
 10
-5.630972559351827
 20
-2.433289990351773
 30
0.0
 10
-5.666704862923081
 20
-2.4591885288029784
 30
0.0
 10
-5.706751553258646
 20
-2.4902845043274127
 30
0.0
 10
-5.75080233852133
 20
-2.526887125511931
 30
0.0
 10
-5.798531344811956
 20
-2.5692905823437875
 30
0.0
 10
-5.849597780178723
 20
-2.6177733542294317
 30
0.0
 10
-5.903646618850003
 20
-2.672597555101373
 30
0.0
 10
-5.960309318599308
 20
-2.7340082997881106
 30
0.0
 10
-6.019204561713608
 20
-2.80223310288917
 30
0.0
 10
-6.079939021170922
 20
-2.8774813077771073
 30
0.0
 10
-6.1421081504130965
 20
-2.959943547192352
 30
0.0
 10
-6.2052969954566155
 20
-3.0497912363601714
 30
0.0
 10
-6.262016153906749
 20
-3.1363895158851225
 30
0.0
 10
-6.172526883537911
 20
-3.340404502852933
 30
0.0
 10
-6.050678366985246
 20
-3.526907541521314
 30
0.0
 10
-5.947158751047168
 20
-3.526788932874345
 30
0.0
 10
-5.837380255116141
 20
-3.523031378105682
 30
0.0
 10
-5.734342341824113
 20
-3.5160880370841796
 30
0.0
 10
-5.638128466417931
 20
-3.506400050617622
 30
0.0
 10
-5.548800303523701
 20
-3.4944103577464496
 30
0.0
 10
-5.466397727402726
 20
-3.4805627386437297
 30
0.0
 10
-5.390938831474484
 20
-3.465300858406564
 30
0.0
 10
-5.322419987312964
 20
-3.449067313336675
 30
0.0
 10
-5.260815942796852
 20
-3.4323026812419095
 30
0.0
 10
-5.206079959276643
 20
-3.4154445773181057
 30
0.0
 10
-5.158143987440765
 20
-3.3989267171419146
 30
0.0
 10
-5.116918881589832
 20
-3.3831779883048663
 30
0.0
 10
-5.082294651916218
 20
-3.3686215321931896
 30
0.0
 10
-5.054140753234466
 20
-3.355673839576958
 30
0.0
 10
-5.0323064116250515
 20
-3.3447438567803474
 30
0.0
 10
-5.016621006068262
 20
-3.3362320769076446
 30
0.0
 10
-5.006894418370384
 20
-3.330529757077813
 30
0.0
 10
-5.002917527227073
 20
-3.3280179849513285
 30
0.0
 10
-4.97206496919652
 20
-3.307073499021593
 30
0.0
 10
-4.915132303199243
 20
-3.272573550873413
 30
0.0
 10
-4.861533995045986
 20
-3.2453105979912094
 30
0.0
 10
-4.811681563739898
 20
-3.2250204532095483
 30
0.0
 10
-4.765972171238704
 20
-3.2114204565310818
 30
0.0
 10
-4.724788819866631
 20
-3.2042082239614507
 30
0.0
 10
-4.688498333019853
 20
-3.2030646696437555
 30
0.0
 10
-4.657451407270936
 20
-3.20765318338
 30
0.0
 10
-4.631981659997119
 20
-3.21762079130298
 30
0.0
 10
-4.612404929659573
 20
-3.2325989481250694
 30
0.0
 10
-4.501312809136421
 20
-3.3855041343311245
 30
0.0
 10
-4.3869155758876035
 20
-3.532481702622866
 30
0.0
 10
-4.265960751036495
 20
-3.677710437920089
 30
0.0
 10
-4.2562467250126215
 20
-3.700365045639949
 30
0.0
 10
-4.252836576559224
 20
-3.727502328506476
 30
0.0
 10
-4.256010039890959
 20
-3.758725640056356
 30
0.0
 10
-4.2660273658969965
 20
-3.7936249407892184
 30
0.0
 10
-4.28312874918546
 20
-3.8317776575779194
 30
0.0
 10
-4.307533790807035
 20
-3.872749566094136
 30
0.0
 10
-4.339440997545601
 20
-3.916095694824615
 30
0.0
 10
-4.379027318608351
 20
-3.961361249220228
 30
0.0
 10
-4.4264477204913515
 20
-4.008082554488987
 30
0.0
 10
-4.454325165582163
 20
-4.032849464759297
 30
0.0
 10
-4.457736347963813
 20
-4.036088061228432
 30
0.0
 10
-4.4656519136898885
 20
-4.044117180374183
 30
0.0
 10
-4.477753766591697
 20
-4.05723310676099
 30
0.0
 10
-4.493709315587946
 20
-4.0757161646630555
 30
0.0
 10
-4.513172187581813
 20
-4.099830089321146
 30
0.0
 10
-4.535782965889818
 20
-4.1298214280599534
 30
0.0
 10
-4.5611699530049075
 20
-4.165918972264998
 30
0.0
 10
-4.588949956450145
 20
-4.20833322115887
 30
0.0
 10
-4.618729096991931
 20
-4.257255877959468
 30
0.0
 10
-4.650103634145097
 20
-4.31285938154698
 30
0.0
 10
-4.6826608188903345
 20
-4.375296467579624
 30
0.0
 10
-4.715979753476838
 20
-4.444699771254459
 30
0.0
 10
-4.749632275657788
 20
-4.521181460937156
 30
0.0
 10
-4.783183854695937
 20
-4.604832910199662
 30
0.0
 10
-4.816194501430314
 20
-4.695724406537919
 30
0.0
 10
-4.848219690401518
 20
-4.793904897631955
 30
0.0
 10
-4.8788112925447695
 20
-4.899401775619125
 30
0.0
 10
-4.9043388351458646
 20
-4.99972460213793
 30
0.0
 10
-4.753454782305559
 20
-5.16362837578914
 30
0.0
 10
-4.577650916813721
 20
-5.300462016743227
 30
0.0
 10
-4.479778791369973
 20
-5.2667370702925425
 30
0.0
 10
-4.377168473189336
 20
-5.227538090846813
 30
0.0
 10
-4.281967937393071
 20
-5.187514603439789
 30
0.0
 10
-4.19411287920642
 20
-5.147110944527843
 30
0.0
 10
-4.113517809482811
 20
-5.106766079210808
 30
0.0
 10
-4.040076346799446
 20
-5.0669126895793735
 30
0.0
 10
-3.973661546402893
 20
-5.027976276655619
 30
0.0
 10
-3.914126265681032
 20
-4.990374277504831
 30
0.0
 10
-3.861303565361782
 20
-4.954515198863589
 30
0.0
 10
-3.815007145802783
 20
-4.920797768714667
 30
0.0
 10
-3.7750318175743396
 20
-4.889610107153105
 30
0.0
 10
-3.741154005563633
 20
-4.8613289178964525
 30
0.0
 10
-3.7131322857306874
 20
-4.836318701731327
 30
0.0
 10
-3.6907079518563095
 20
-4.814930994856647
 30
0.0
 10
-3.6736056147134195
 20
-4.797503629545111
 30
0.0
 10
-3.661533858101395
 20
-4.784359998525398
 30
0.0
 10
-3.65418582397581
 20
-4.775808428249979
 30
0.0
 10
-3.6512399828403326
 20
-4.772141456422208
 30
0.0
 10
-3.628859764968617
 20
-4.74231399129518
 30
0.0
 10
-3.5862139827037116
 20
-4.691197339069132
 30
0.0
 10
-3.5443720450561806
 20
-4.648008225965839
 30
0.0
 10
-3.5038089552268787
 20
-4.612630399211092
 30
0.0
 10
-3.46499213539427
 20
-4.584925472382721
 30
0.0
 10
-3.428382019682688
 20
-4.564731806136627
 30
0.0
 10
-3.394429162993258
 20
-4.551866710929802
 30
0.0
 10
-3.363574557343536
 20
-4.546125686024212
 30
0.0
 10
-3.33624835422837
 20
-4.547283208035691
 30
0.0
 10
-3.3128689455691984
 20
-4.555093253057556
 30
0.0
 10
-3.1581478697615673
 20
-4.663642061949998
 30
0.0
 10
-3.002225455742663
 20
-4.765511259269184
 30
0.0
 10
-2.8406686036673285
 20
-4.863597133676774
 30
0.0
 10
-2.824124971265941
 20
-4.88187011316839
 30
0.0
 10
-2.81208813271954
 20
-4.906429749803731
 30
0.0
 10
-2.8049514563675415
 20
-4.936991718069953
 30
0.0
 10
-2.8030942315962126
 20
-4.973252698863401
 30
0.0
 10
-2.8068808478773652
 20
-5.014891006296305
 30
0.0
 10
-2.8166600000799535
 20
-5.061567247856768
 30
0.0
 10
-2.832763921356932
 20
-5.112925016862847
 30
0.0
 10
-2.8555076448680667
 20
-5.168591616102197
 30
0.0
 10
-2.8851882955560657
 20
-5.2281788115010315
 30
0.0
 10
-2.9035134611589077
 20
-5.260655573882112
 30
0.0
 10
-2.9056882457155617
 20
-5.264826303370213
 30
0.0
 10
-2.9105678735322913
 20
-5.274990562683644
 30
0.0
 10
-2.917755280327423
 20
-5.291325297214772
 30
0.0
 10
-2.9268448745787947
 20
-5.313987650347849
 30
0.0
 10
-2.9374234159466837
 20
-5.343114600260148
 30
0.0
 10
-2.949070908149437
 20
-5.378822633255911
 30
0.0
 10
-2.9613615048347497
 20
-5.4212074541890685
 30
0.0
 10
-2.973864426965203
 20
-5.470343734459848
 30
0.0
 10
-2.9861448908374135
 20
-5.526284897898945
 30
0.0
 10
-2.9977650409264682
 20
-5.589062945851152
 30
0.0
 10
-3.0082848989062603
 20
-5.658688318947951
 30
0.0
 10
-3.017263305849
 20
-5.7351498005693
 30
0.0
 10
-3.0242588775106074
 20
-5.818414457435144
 30
0.0
 10
-3.028830958277431
 20
-5.908427620345535
 30
0.0
 10
-3.0305405765022426
 20
-6.005112904178984
 30
0.0
 10
-3.028951399055439
 20
-6.108372267314487
 30
0.0
 10
-3.023630683528588
 20
-6.218086110438376
 30
0.0
 10
-3.0152003049391816
 20
-6.3212619490286786
 30
0.0
 10
-2.819272097959958
 20
-6.427292992259092
 30
0.0
 10
-2.6085639602330226
 20
-6.499629187308809
 30
0.0
 10
-2.5269452887179313
 20
-6.435952524298802
 30
0.0
 10
-2.442622568425691
 20
-6.365559937833787
 30
0.0
 10
-2.365575865367226
 20
-6.2967934699301855
 30
0.0
 10
-2.2956000831663155
 20
-6.230052501943325
 30
0.0
 10
-2.2324718329792375
 20
-6.165724456352613
 30
0.0
 10
-2.1759500057769308
 20
-6.104184029348084
 30
0.0
 10
-2.1257763750668426
 20
-6.045792448238727
 30
0.0
 10
-2.0816762292359146
 20
-5.990896755070158
 30
0.0
 10
-2.0433590323217623
 20
-5.939829117464154
 30
0.0
 10
-2.0105191121461563
 20
-5.892906167826583
 30
0.0
 10
-1.9828363746198265
 20
-5.850428371936275
 30
0.0
 10
-1.9599770430491195
 20
-5.8126794279438405
 30
0.0
 10
-1.941594421202526
 20
-5.779925696720245
 30
0.0
 10
-1.9273296766602015
 20
-5.752415665491456
 30
0.0
 10
-1.9168126475833707
 20
-5.730379443109933
 30
0.0
 10
-1.9096627020576273
 20
-5.7140282773086435
 30
0.0
 10
-1.9054894950183394
 20
-5.703554151918263
 30
0.0
 10
-1.9038939314871597
 20
-5.699129353685676
 30
0.0
 10
-1.8924112976455416
 20
-5.663651178028678
 30
0.0
 10
-1.8686737313389015
 20
-5.6014571041500325
 30
0.0
 10
-1.843122387385764
 20
-5.547022041378531
 30
0.0
 10
-1.81624427921744
 20
-5.500390269123116
 30
0.0
 10
-1.7885264367872986
 20
-5.461582670852928
 30
0.0
 10
-1.7604568308380322
 20
-5.43059586800515
 30
0.0
 10
-1.732520923161103
 20
-5.407403364597374
 30
0.0
 10
-1.7052022128912576
 20
-5.391954930179649
 30
0.0
 10
-1.6789807720519996
 20
-5.3841769308088825
 30
0.0
 10
-1.6543322067683264
 20
-5.383972524467066
 30
0.0
 10
-1.472748604984821
 20
-5.43640200829409
 30
0.0
 10
-1.2921976231403092
 20
-5.48212372644773
 30
0.0
 10
-1.1075459355759572
 20
-5.52243761351447
 30
0.0
 10
-1.0859654560686518
 20
-5.534348803915435
 30
0.0
 10
-1.066606305656544
 20
-5.553669376608124
 30
0.0
 10
-1.049932859240494
 20
-5.580258138111246
 30
0.0
 10
-1.0364023428135838
 20
-5.61395135904922
 30
0.0
 10
-1.0264638534579569
 20
-5.654563100431064
 30
0.0
 10
-1.0205573933612277
 20
-5.701885580006186
 30
0.0
 10
-1.0191129194281732
 20
-5.7556895781181625
 30
0.0
 10
-1.0225494100400296
 20
-5.815724882417383
 30
0.0
 10
-1.0312739504882356
 20
-5.881720770734228
 30
0.0
 10
-1.0380610205657994
 20
-5.9183880240932
 30
0.0
 10
-1.0387637356454844
 20
-5.923038923344694
 30
0.0
 10
-1.0400786421636996
 20
-5.934236867614463
 30
0.0
 10
-1.0415727358017945
 20
-5.952020288343945
 30
0.0
 10
-1.0428113767315659
 20
-5.976406119103423
 30
0.0
 10
-1.0433592383732835
 20
-6.00738973729574
 30
0.0
 10
-1.042781257961154
 20
-6.044944945106146
 30
0.0
 10
-1.0406435873575797
 20
-6.08902398975105
 30
0.0
 10
-1.0365145425575881
 20
-6.139557623003454
 30
0.0
 10
-1.029965550948639
 20
-6.19645520000584
 30
0.0
 10
-1.0205720904062283
 20
-6.259604816725342
 30
0.0
 10
-1.0079146317760488
 20
-6.328873487362281
 30
0.0
 10
-0.9915795613684416
 20
-6.404107358974339
 30
0.0
 10
-0.9711601037736926
 20
-6.48513196546765
 30
0.0
 10
-0.9462572303749635
 20
-6.571752519126454
 30
0.0
 10
-0.9164805564280907
 20
-6.663754239724988
 30
0.0
 10
-0.8814492245982708
 20
-6.760902720672124
 30
0.0
 10
-0.840792773488058
 20
-6.86294433164458
 30
0.0
 10
-0.7993180360391142
 20
-6.9577924792570345
 30
0.0
 10
-0.5795775362865399
 20
-6.994460683291486
 30
0.0
 10
-0.35679862252084216
 20
-6.994460683291485
 30
0.0
 10
-0.3002780544372434
 20
-6.907732658204519
 30
0.0
 10
-0.2433806071788778
 20
-6.813774593717218
 30
0.0
 10
-0.19283694263737264
 20
-6.723717059136085
 30
0.0
 10
-0.1483233982098038
 20
-6.637871201548503
 30
0.0
 10
-0.10950289300275289
 20
-6.556530917576338
 30
0.0
 10
-0.076025718285387
 20
-6.479972313362769
 30
0.0
 10
-0.047530348673296134
 20
-6.40845319791974
 30
0.0
 10
-0.0236442728183493
 20
-6.3422126108826475
 30
0.0
 10
-0.0039848421475126615
 20
-6.2814703852425335
 30
0.0
 10
0.011839863729810433
 20
-6.226426745794123
 30
0.0
 10
0.02423015640111841
 20
-6.177261943870699
 30
0.0
 10
0.033593844257064395
 20
-6.134135928959281
 30
0.0
 10
0.04034532580446075
 20
-6.097188057681796
 30
0.0
 10
0.04490467460325413
 20
-6.066536840844651
 30
0.0
 10
0.047696712325030845
 20
-6.042279728015401
 30
0.0
 10
0.04915003922394293
 20
-6.024492929961585
 30
0.0
 10
0.049696187440247654
 20
-6.013231283465089
 30
0.0
 10
0.049768569300807565
 20
-6.008528154374005
 30
0.0
 10
0.0491092975641673
 20
-5.971243879020087
 30
0.0
 10
0.051366314276926645
 20
-5.904712076434085
 30
0.0
 10
0.057858179948397176
 20
-5.844929947692693
 30
0.0
 10
0.06813864637888592
 20
-5.792097506026984
 30
0.0
 10
0.08175385309261597
 20
-5.74639264174948
 30
0.0
 10
0.09824117193015182
 20
-5.707970603198364
 30
0.0
 10
0.11713284152751581
 20
-5.676963959202638
 30
0.0
 10
0.1379552502662812
 20
-5.653482192849098
 30
0.0
 10
0.16023042884712202
 20
-5.6376115390159995
 30
0.0
 10
0.18347709624491426
 20
-5.629414831909332
 30
0.0
 10
0.37224582319116584
 20
-5.620043442571017
 30
0.0
 10
0.557859872441296
 20
-5.604663023951609
 30
0.0
 10
0.7455965199809271
 20
-5.5828362884794105
 30
0.0
 10
0.769875266783893
 20
-5.587094927488617
 30
0.0
 10
0.7944588647263872
 20
-5.599082752397828
 30
0.0
 10
0.8188622545721319
 20
-5.618817002261841
 30
0.0
 10
0.8425998212521739
 20
-5.646291280051523
 30
0.0
 10
0.8651864267113468
 20
-5.681475543047491
 30
0.0
 10
0.8861384425077414
 20
-5.72431613569138
 30
0.0
 10
0.9049747804868603
 20
-5.774735864858774
 30
0.0
 10
0.9212179198547227
 20
-5.832634117453317
 30
0.0
 10
0.9343949289790661
 20
-5.8978870201573255
 30
0.0
 10
0.9398814387819274
 20
-5.934771298641687
 30
0.0
 10
0.940726943261843
 20
-5.939398370556538
 30
0.0
 10
0.943119248566268
 20
-5.950416528767007
 30
0.0
 10
0.947480376314149
 20
-5.967721526120599
 30
0.0
 10
0.9542269146702129
 20
-5.991188251358539
 30
0.0
 10
0.9637691020644957
 20
-6.0206709820393645
 30
0.0
 10
0.9765099219455639
 20
-6.056003675169068
 30
0.0
 10
0.9928442100587509
 20
-6.097000295081595
 30
0.0
 10
1.013157775716377
 20
-6.143455178042616
 30
0.0
 10
1.037826537947581
 20
-6.19514343328321
 30
0.0
 10
1.0672156819171292
 20
-6.251821377931186
 30
0.0
 10
1.1016788251139935
 20
-6.313227010830586
 30
0.0
 10
1.1415572145285509
 20
-6.379080515070392
 30
0.0
 10
1.1871789363087357
 20
-6.449084797851311
 30
0.0
 10
1.2388581511323715
 20
-6.522926061213224
 30
0.0
 10
1.2968943525960834
 20
-6.600274404596211
 30
0.0
 10
1.36157165043804
 20
-6.680784458030363
 30
0.0
 10
1.433158079803985
 20
-6.764096044963788
 30
0.0
 10
1.5031827447630148
 20
-6.840338233083939
 30
0.0
 10
1.7229232445155889
 20
-6.803670029049488
 30
0.0
 10
1.9336313822425244
 20
-6.73133383399977
 30
0.0
 10
1.9589289663357978
 20
-6.630952774077979
 30
0.0
 10
1.982235419294987
 20
-6.523611045765176
 30
0.0
 10
2.000798855000699
 20
-6.422021575765004
 30
0.0
 10
2.0150264284173924
 20
-6.326373559282041
 30
0.0
 10
2.0253323845430304
 20
-6.236835518821355
 30
0.0
 10
2.0321371354429414
 20
-6.1535550500944245
 30
0.0
 10
2.03586632850835
 20
-6.076658606209392
 30
0.0
 10
2.0369499074377773
 20
-6.0062513207378565
 30
0.0
 10
2.035821167504617
 20
-5.942416869724479
 30
0.0
 10
2.032915806656238
 20
-5.885217372889532
 30
0.0
 10
2.0286709740063884
 20
-5.834693334091895
 30
0.0
 10
2.0235243172757946
 20
-5.7908636211462134
 30
0.0
 10
2.017913030738303
 20
-5.753725484973049
 30
0.0
 10
2.01227290760563
 20
-5.723254617474485
 30
0.0
 10
2.00703739336227
 20
-5.699405248760441
 30
0.0
 10
2.0026366111141627
 20
-5.682110294013837
 30
0.0
 10
1.999496516873885
 20
-5.671281500551573
 30
0.0
 10
1.998037873366113
 20
-5.666809697615578
 30
0.0
 10
1.9853081383735343
 20
-5.631759652324478
 30
0.0
 10
1.9658400227103627
 20
-5.5680998741885945
 30
0.0
 10
1.9525689157229875
 20
-5.509449000741744
 30
0.0
 10
1.9451376923600256
 20
-5.456141104500017
 30
0.0
 10
1.943174844448212
 20
-5.408491805443708
 30
0.0
 10
1.9462932193508597
 20
-5.366798155245618
 30
0.0
 10
1.9540934453333276
 20
-5.331337421656533
 30
0.0
 10
1.9661631214612068
 20
-5.302366937108728
 30
0.0
 10
1.9820781765493884
 20
-5.280123460414684
 30
0.0
 10
2.0014038089395396
 20
-5.264822692943186
 30
0.0
 10
2.176901640435322
 20
-5.1946659658864265
 30
0.0
 10
2.3474645947560986
 20
-5.119850117503168
 30
0.0
 10
2.517942023475863
 20
-5.038248024957139
 30
0.0
 10
2.5422880586348158
 20
-5.034392622958347
 30
0.0
 10
2.5694320898168024
 20
-5.037748633244899
 30
0.0
 10
2.598920937144848
 20
-5.048489859288602
 30
0.0
 10
2.6302932204019416
 20
-5.0667679296241355
 30
0.0
 10
2.6630803327958654
 20
-5.0927119533985215
 30
0.0
 10
2.6968074282763648
 20
-5.126428216157929
 30
0.0
 10
2.730994420805612
 20
-5.167999916382747
 30
0.0
 10
2.76515699396441
 20
-5.217486943220041
 30
0.0
 10
2.798807619260317
 20
-5.274925695800127
 30
0.0
 10
2.815973160474493
 20
-5.308030015517548
 30
0.0
 10
2.818275260984256
 20
-5.3121318450573645
 30
0.0
 10
2.8241155347111455
 20
-5.321776228802089
 30
0.0
 10
2.83385928798365
 20
-5.336727537801829
 30
0.0
 10
2.8478599135113414
 20
-5.356732173714941
 30
0.0
 10
2.8664581058751613
 20
-5.381519105543307
 30
0.0
 10
2.8899810996968647
 20
-5.410800438448484
 30
0.0
 10
2.9187419317500063
 20
-5.444272013733011
 30
0.0
 10
2.9530387282288157
 20
-5.481614039012044
 30
0.0
 10
2.9931540179192395
 20
-5.522491748009612
 30
0.0
 10
3.03935407554727
 20
-5.56655608583453
 30
0.0
 10
3.091888286994675
 20
-5.613444427865176
 30
0.0
 10
3.150988553146149
 20
-5.662781315725944
 30
0.0
 10
3.216868717662936
 20
-5.714179224526795
 30
0.0
 10
3.289724029099698
 20
-5.767239350941301
 30
0.0
 10
3.3697306351272065
 20
-5.821552423919988
 30
0.0
 10
3.4570451101884463
 20
-5.876699536309372
 30
0.0
 10
3.5518040174104244
 20
-5.932252996047065
 30
0.0
 10
3.6427903508866013
 20
-5.981627200572655
 30
0.0
 10
3.8387185578658194
 20
-5.875596157342245
 30
0.0
 10
4.014522423357657
 20
-5.738762516388158
 30
0.0
 10
4.0058556376916385
 20
-5.635606267046697
 30
0.0
 10
3.993045480536644
 20
-5.526513016749611
 30
0.0
 10
3.9776170511064666
 20
-5.424400406727958
 30
0.0
 10
3.9600168751690386
 20
-5.329315178067435
 30
0.0
 10
3.9406914719536643
 20
-5.241282217127987
 30
0.0
 10
3.9200863986895276
 20
-5.160304614903874
 30
0.0
 10
3.898645299275223
 20
-5.086363765443046
 30
0.0
 10
3.8768089586886685
 20
-5.019419503399501
 30
0.0
 10
3.855014364637473
 20
-4.959410280273721
 30
0.0
 10
3.833693777992633
 20
-4.906253379075945
 30
0.0
 10
3.8132738135046016
 20
-4.859845166969057
 30
0.0
 10
3.7941745323028346
 20
-4.820061385474845
 30
0.0
 10
3.776808547644875
 20
-4.786757477717918
 30
0.0
 10
3.7615801474376878
 20
-4.759768950855628
 30
0.0
 10
3.748884430434832
 20
-4.738911775418043
 30
0.0
 10
3.7391064320814613
 20
-4.723982840684318
 30
0.0
 10
3.7326203733191172
 20
-4.714760368053965
 30
0.0
 10
3.7297887711002664
 20
-4.711004480508347
 30
0.0
 10
3.7063680371603853
 20
-4.681986881544842
 30
0.0
 10
3.667284461532326
 20
-4.6280976526033335
 30
0.0
 10
3.6356885122506295
 20
-4.576933766651059
 30
0.0
 10
3.6113508874529043
 20
-4.528927153548341
 30
0.0
 10
3.5940226899435164
 20
-4.484496960621028
 30
0.0
 10
3.5834341966040015
 20
-4.44404985271857
 30
0.0
 10
3.5792977034533973
 20
-4.407977750250477
 30
0.0
 10
3.5813067102816123
 20
-4.376657949032547
 30
0.0
 10
3.5891369987108077
 20
-4.350452075320456
 30
0.0
 10
3.602447363955761
 20
-4.329705323055535
 30
0.0
 10
3.745656386829077
 20
-4.206365828250713
 30
0.0
 10
3.882685103562923
 20
-4.080222008163428
 30
0.0
 10
4.017429438831179
 20
-3.947687411457855
 30
0.0
 10
4.039204491668989
 20
-3.936135761080361
 30
0.0
 10
4.065967479128861
 20
-3.9304962809558393
 30
0.0
 10
4.097346209764601
 20
-3.9310805046701036
 30
0.0
 10
4.132953535916711
 20
-3.9381816550171513
 30
0.0
 10
4.172388162873037
 20
-3.952074002030996
 30
0.0
 10
4.2152354839125215
 20
-3.973012254674218
 30
0.0
 10
4.261068439885509
 20
-4.001230987185709
 30
0.0
 10
4.309448401946547
 20
-4.036944101037597
 30
0.0
 10
4.359926076019956
 20
-4.080344323397632
 30
0.0
 10
4.3869104959040754
 20
-4.106081317640285
 30
0.0
 10
4.390419724132683
 20
-4.109213407927985
 30
0.0
 10
4.399075082002545
 20
-4.116438898580191
 30
0.0
 10
4.413145573942688
 20
-4.127416312902496
 30
0.0
 10
4.432883101623993
 20
-4.141791046785687
 30
0.0
 10
4.458521896234042
 20
-4.159196131089114
 30
0.0
 10
4.490277982618943
 20
-4.179253017002794
 30
0.0
 10
4.528348676188791
 20
-4.201572383112241
 30
0.0
 10
4.572912113420677
 20
-4.225754962849081
 30
0.0
 10
4.624126816479508
 20
-4.25139239155073
 30
0.0
 10
4.68213129465427
 20
-4.278068067820611
 30
0.0
 10
4.747043677389611
 20
-4.305358039575892
 30
0.0
 10
4.8189613894053736
 20
-4.33283189371722
 30
0.0
 10
4.897960858597293
 20
-4.360053667598703
 30
0.0
 10
4.984097263186374
 20
-4.3865827690560995
 30
0.0
 10
5.0774043165841976
 20
-4.411974907419086
 30
0.0
 10
5.177894090668162
 20
-4.435783033440699
 30
0.0
 10
5.285556877812732
 20
-4.4575582866193395
 30
0.0
 10
5.3876450987754865
 20
-4.4747140463703
 30
0.0
 10
5.538529151615796
 20
-4.310810272719085
 30
0.0
 10
5.660377668168459
 20
-4.124307234050704
 30
0.0
 10
5.6186856934490965
 20
-4.029554375539848
 30
0.0
 10
5.5711471054777295
 20
-3.9305315496843565
 30
0.0
 10
5.5233987206371715
 20
-3.8389612853774646
 30
0.0
 10
5.475878047503309
 20
-3.754742804464086
 30
0.0
 10
5.429015492249836
 20
-3.6777546603357965
 30
0.0
 10
5.383233474230472
 20
-3.6078551043124434
 30
0.0
 10
5.3389455581509315
 20
-3.5448824876253906
 30
0.0
 10
5.2965556043766835
 20
-3.488655698549508
 30
0.0
 10
5.25645693865087
 20
-3.4389746337760396
 30
0.0
 10
5.219031542595524
 20
-3.3956207032745183
 30
0.0
 10
5.184649266269984
 20
-3.358357367737766
 30
0.0
 10
5.153667064071139
 20
-3.3269307077288937
 30
0.0
 10
5.126428255191415
 20
-3.3010700235570405
 30
0.0
 10
5.103261811365139
 20
-3.2804884629866966
 30
0.0
 10
5.0844816695343935
 20
-3.2648836794166542
 30
0.0
 10
5.070386052918622
 20
-3.2539385464204975
 30
0.0
 10
5.061256894742684
 20
-3.24732179263296
 30
0.0
 10
5.0573591818500025
 20
-3.2446888291718854
 30
0.0
 10
5.025785448895335
 20
-3.2248481836381115
 30
0.0
 10
4.971321725165849
 20
-3.186569238024332
 30
0.0
 10
4.924824844956168
 20
-3.148436740499051
 30
0.0
 10
4.886218178007672
 20
-3.1109336719643728
 30
0.0
 10
4.855402409975539
 20
-3.074537285975207
 30
0.0
 10
4.832254475944601
 20
-3.0397197921111534
 30
0.0
 10
4.816629516878095
 20
-3.006945292782809
 30
0.0
 10
4.8083601473438575
 20
-2.976670161333504
 30
0.0
 10
4.807257135863319
 20
-2.949341703646101
 30
0.0
 10
4.813109849357187
 20
-2.92539719911469
 30
0.0
 10
4.90851114386277
 20
-2.762240684633356
 30
0.0
 10
4.997156435331961
 20
-2.59843853307154
 30
0.0
 10
5.081566037648614
 20
-2.4293336122456286
 30
0.0
 10
5.0984104433155455
 20
-2.4113375140501563
 30
0.0
 10
5.121892202091487
 20
-2.3973136686916034
 30
0.0
 10
5.15176044367937
 20
-2.3876775803718235
 30
0.0
 10
5.1877442064333215
 20
-2.3828322909045814
 30
0.0
 10
5.22955299423005
 20
-2.3831675097969596
 30
0.0
 10
5.276877368749205
 20
-2.3890587677596398
 30
0.0
 10
5.329389576214672
 20
-2.400866595031436
 30
0.0
 10
5.38674420759618
 20
-2.4189357258660076
 30
0.0
 10
5.448578891219424
 20
-2.443594330489447
 30
0.0
 10
5.4824580091726265
 20
-2.4591749965805287
 30
0.0
 10
5.486794085790224
 20
-2.4609979370340507
 30
0.0
 10
5.497326585476143
 20
-2.4650215405665334
 30
0.0
 10
5.514199059956032
 20
-2.470835487037448
 30
0.0
 10
5.537534622407384
 20
-2.478022593427495
 30
0.0
 10
5.567435658040775
 20
-2.4861597192539993
 30
0.0
 10
5.603983572282621
 20
-2.494818683372785
 30
0.0
 10
5.647238576993208
 20
-2.5035671906685444
 30
0.0
 10
5.69723951508112
 20
-2.5119697671173182
 30
0.0
 10
5.75400372375394
 20
-2.5195887023175305
 30
0.0
 10
5.817526937232984
 20
-2.5259849935927687
 30
0.0
 10
5.887783227367491
 20
-2.530719303185461
 30
0.0
 10
5.964724985232356
 20
-2.533352905210363
 30
0.0
 10
6.048282940809398
 20
-2.5334486425830787
 30
0.0
 10
6.138366222569548
 20
-2.530571879299034
 30
0.0
 10
6.234862456293923
 20
-2.5242914508550696
 30
0.0
 10
6.337637903119115
 20
-2.5141806106333298
 30
0.0
 10
6.4465376366388965
 20
-2.4998179706931456
 30
0.0
 10
6.548664902284954
 20
-2.4828961929014217
 30
0.0
  0
ENDSEC
  0
EOF
