999
DXF generated by OpenJsCad
  0
SECTION
  2
HEADER
  0
ENDSEC
  0
SECTION
  2
TABLES
  0
TABLE
  2
LTYPE
  70
1
  0
LTYPE
  2
CONTINUOUS
  3
Solid Line
  72
65
  73
0
  40
0.0
  0
ENDTAB
  0
TABLE
  2
LAYER
  70
1
  0
LAYER
  2
OpenJsCad
  62
7
  6
continuous
  0
ENDTAB
  0
TABLE
  2
STYLE
  70
0
  0
ENDTAB
  0
TABLE
  2
VIEW
  70
0
  0
ENDTAB
  0
ENDSEC
  0
SECTION
  2
BLOCKS
  0
ENDSEC
  0
SECTION
  2
ENTITIES
  0
LWPOLYLINE
  8
OpenJsCad
  90
932
  70
1
 10
6.548654531843299
 20
-2.482892210081521
 30
0.0
 10
6.638143641086947
 20
-2.2788775904421437
 30
0.0
 10
6.692832532790038
 20
-2.062916041030892
 30
0.0
 10
6.606484951837658
 20
-1.9693329736577374
 30
0.0
 10
6.49760203274532
 20
-1.8619747977327261
 30
0.0
 10
6.393754942685513
 20
-1.768833329376907
 30
0.0
 10
6.296021194124728
 20
-1.6891734001713778
 30
0.0
 10
6.2054191818339675
 20
-1.6221908693163076
 30
0.0
 10
6.122904124644995
 20
-1.56701660897415
 30
0.0
 10
6.049364253630825
 20
-1.5227207165086905
 30
0.0
 10
5.98561725897817
 20
-1.488316939157854
 30
0.0
 10
5.932407006974939
 20
-1.4627672960178892
 30
0.0
 10
5.890400537701209
 20
-1.4449868816264324
 30
0.0
 10
5.8601853523414675
 20
-1.433848836829222
 30
0.0
 10
5.842266980274663
 20
-1.428189436138634
 30
0.0
 10
5.840954218817655
 20
-1.4278420643414984
 30
0.0
 10
5.7422176290022175
 20
-1.4114820979583862
 30
0.0
 10
5.633807021736363
 20
-1.3831833626131966
 30
0.0
 10
5.540961204649507
 20
-1.34845966313465
 30
0.0
 10
5.464013716733561
 20
-1.3087206153707396
 30
0.0
 10
5.403199169021048
 20
-1.2653927270642689
 30
0.0
 10
5.358653580122122
 20
-1.219910091774316
 30
0.0
 10
5.330413014054233
 20
-1.1737115010821244
 30
0.0
 10
5.318414228829925
 20
-1.1282324422792642
 30
0.0
 10
5.322494946518028
 20
-1.0848993793172281
 30
0.0
 10
5.336377988968212
 20
-1.0205815296063896
 30
0.0
 10
5.378620591139509
 20
-0.7674354932303608
 30
0.0
 10
5.386373741886228
 20
-0.7020947455113183
 30
0.0
 10
5.3965843512809295
 20
-0.6597845805580224
 30
0.0
 10
5.422700035478684
 20
-0.6206657017987597
 30
0.0
 10
5.464411107656897
 20
-0.5861399749927196
 30
0.0
 10
5.521311281977806
 20
-0.5575856773028022
 30
0.0
 10
5.592899279069684
 20
-0.5363515182522375
 30
0.0
 10
5.678580779815589
 20
-0.5237507629028458
 30
0.0
 10
5.777670721225609
 20
-0.5210554767663889
 30
0.0
 10
5.889395927106641
 20
-0.5294909115939774
 30
0.0
 10
5.988094663035167
 20
-0.5460770738891464
 30
0.0
 10
5.989449221730073
 20
-0.546174782910649
 30
0.0
 10
6.008234302139061
 20
-0.5466401235818634
 30
0.0
 10
6.040428862552121
 20
-0.5459164213210753
 30
0.0
 10
6.08593259656949
 20
-0.5427388771013802
 30
0.0
 10
6.144555725915358
 20
-0.5358509246820219
 30
0.0
 10
6.2160196208088765
 20
-0.5240098542110817
 30
0.0
 10
6.29995775147553
 20
-0.5059923921741554
 30
0.0
 10
6.395916968377216
 20
-0.48060022100433536
 30
0.0
 10
6.503359105946161
 20
-0.44666541372951535
 30
0.0
 10
6.621662907161255
 20
-0.40305577549521704
 30
0.0
 10
6.750126260775938
 20
-0.34868006382800937
 30
0.0
 10
6.887968745717782
 20
-0.28249307603535145
 30
0.0
 10
7.000024148864304
 20
-0.2220176110849308
 30
0.0
 10
7.018421052624476
 20
-1.4334865991814493e-17
 30
0.0
 10
7.000024148864304
 20
0.2220176110849312
 30
0.0
 10
6.887968745717791
 20
0.28249307603534635
 30
0.0
 10
6.75012626077593
 20
0.3486800638280136
 30
0.0
 10
6.621662907160847
 20
0.4030557754953909
 30
0.0
 10
6.503359105946103
 20
0.44666541372956153
 30
0.0
 10
6.3959169683741015
 20
0.48060022100534544
 30
0.0
 10
6.299957751537997
 20
0.5059923924643842
 30
0.0
 10
6.216019620808873
 20
0.5240098542110515
 30
0.0
 10
6.144555725915341
 20
0.5358509246819912
 30
0.0
 10
6.085932596569533
 20
0.5427388771013718
 30
0.0
 10
6.040428862552327
 20
0.5459164213210509
 30
0.0
 10
6.0082343020442694
 20
0.5466401214808573
 30
0.0
 10
5.989449192400029
 20
0.5461747943326042
 30
0.0
 10
5.988094768541604
 20
0.5460770916193328
 30
0.0
 10
5.889395927106636
 20
0.52949091159397
 30
0.0
 10
5.777670721225608
 20
0.521055476766393
 30
0.0
 10
5.67858077981557
 20
0.5237507629028569
 30
0.0
 10
5.592899271323475
 20
0.5363518309637868
 30
0.0
 10
5.521311281215884
 20
0.5575856434083503
 30
0.0
 10
5.464411107656894
 20
0.5861399749926782
 30
0.0
 10
5.422700035478739
 20
0.6206657017993403
 30
0.0
 10
5.396584351280909
 20
0.6597845805579686
 30
0.0
 10
5.386373741886043
 20
0.7020947455104626
 30
0.0
 10
5.378620591141193
 20
0.7674354932306047
 30
0.0
 10
5.33637798896654
 20
1.0205815296060732
 30
0.0
 10
5.32249494651848
 20
1.0848993793164785
 30
0.0
 10
5.318414228829962
 20
1.1282324422792198
 30
0.0
 10
5.330413014053992
 20
1.1737115010826553
 30
0.0
 10
5.358653580122138
 20
1.2199100917742778
 30
0.0
 10
5.4031991807471975
 20
1.2653926952537076
 30
0.0
 10
5.464013622522784
 20
1.3087209136539044
 30
0.0
 10
5.540961204649522
 20
1.3484596631346668
 30
0.0
 10
5.633807021736361
 20
1.3831833626132009
 30
0.0
 10
5.742217629002223
 20
1.4114820979583804
 30
0.0
 10
5.8409541132708656
 20
1.4278420468531303
 30
0.0
 10
5.842267004306822
 20
1.4281894564651663
 30
0.0
 10
5.860185353113318
 20
1.4338488348728329
 30
0.0
 10
5.890400537701022
 20
1.4449868816263427
 30
0.0
 10
5.932407006974901
 20
1.4627672960178673
 30
0.0
 10
5.985617258978196
 20
1.4883169391578308
 30
0.0
 10
6.049364253630838
 20
1.5227207165086631
 30
0.0
 10
6.122904124491674
 20
1.5670166092283702
 30
0.0
 10
6.205419181836586
 20
1.6221908693182743
 30
0.0
 10
6.296021194124767
 20
1.6891734001714402
 30
0.0
 10
6.3937549426858435
 20
1.768833329377204
 30
0.0
 10
6.497602032745326
 20
1.8619747977327323
 30
0.0
 10
6.60648495183765
 20
1.9693329736577294
 30
0.0
 10
6.692832532790037
 20
2.062916041030892
 30
0.0
 10
6.638143641086947
 20
2.2788775904421437
 30
0.0
 10
6.548654531843301
 20
2.4828922100815203
 30
0.0
 10
6.423034248152307
 20
2.503706617608296
 30
0.0
 10
6.2711695694508975
 20
2.5215500301443527
 30
0.0
 10
6.132010949959042
 20
2.53126753303803
 30
0.0
 10
6.00595714862457
 20
2.534101099324912
 30
0.0
 10
5.893317908513789
 20
2.5313108201002907
 30
0.0
 10
5.794313202135408
 20
2.5241692668984883
 30
0.0
 10
5.709072810590121
 20
2.5139558263763875
 30
0.0
 10
5.637636237344007
 20
2.5019510262487654
 30
0.0
 10
5.579952956351816
 20
2.4894308714253284
 30
0.0
 10
5.535882993235078
 20
2.4776612092523487
 30
0.0
 10
5.505197837759832
 20
2.467892140633071
 30
0.0
 10
5.487581648649115
 20
2.461352511062785
 30
0.0
 10
5.486332335230385
 20
2.460820321444103
 30
0.0
 10
5.398366793115685
 20
2.4130853649771136
 30
0.0
 10
5.29543414827188
 20
2.3688298702295953
 30
0.0
 10
5.200838015229296
 20
2.3392046669494166
 30
0.0
 10
5.115707407091758
 20
2.323302234057248
 30
0.0
 10
5.041103644119361
 20
2.320140957584988
 30
0.0
 10
4.978014902602585
 20
2.3286726805704245
 30
0.0
 10
4.927353366198638
 20
2.347784145270206
 30
0.0
 10
4.8899508226367105
 20
2.3763037064791606
 30
0.0
 10
4.866555364120739
 20
2.4130060105396582
 30
0.0
 10
4.838006194366589
 20
2.4722889723874633
 30
0.0
 10
4.715856029253116
 20
2.698002707755623
 30
0.0
 10
4.681841236677125
 20
2.754327822447004
 30
0.0
 10
4.663911400985797
 20
2.7939879736654274
 30
0.0
 10
4.660493032676743
 20
2.840898850811377
 30
0.0
 10
4.672202789103808
 20
2.893763971242151
 30
0.0
 10
4.69956660900908
 20
2.9512461346887897
 30
0.0
 10
4.743017307068701
 20
3.0119731276683788
 30
0.0
 10
4.802892506088083
 20
3.0745435611640413
 30
0.0
 10
4.879432913919098
 20
3.137532822352442
 30
0.0
 10
4.972780951108643
 20
3.1994991207956187
 30
0.0
 10
5.060855553592486
 20
3.2470323265667793
 30
0.0
 10
5.061984504854143
 20
3.2477872075902736
 30
0.0
 10
5.077094390933135
 20
3.2589580236120472
 30
0.0
 10
5.102055915608513
 20
3.2793034346679333
 30
0.0
 10
5.136013067395547
 20
3.3097599354404106
 30
0.0
 10
5.178044285609584
 20
3.3512025690232035
 30
0.0
 10
5.2271664040142
 20
3.404440870148358
 30
0.0
 10
5.2823388289727795
 20
3.470215046253073
 30
0.0
 10
5.342467939944561
 20
3.549192408065466
 30
0.0
 10
5.406411693085487
 20
3.6419640659379837
 30
0.0
 10
5.472984420840593
 20
3.7490418967346124
 30
0.0
 10
5.540961803783305
 20
3.8708557984433503
 30
0.0
 10
5.609086003249891
 20
4.007751238305476
 30
0.0
 10
5.660368661791189
 20
4.124300730660594
 30
0.0
 10
5.538520364626454
 20
4.3108034335307535
 30
0.0
 10
5.387636583452479
 20
4.4747069120736604
 30
0.0
 10
5.262064326154459
 20
4.453604698152461
 30
0.0
 10
5.112634348054081
 20
4.421170924814553
 30
0.0
 10
4.9778604583758534
 20
4.385177176713407
 30
0.0
 10
4.857716542222497
 20
4.346927610178506
 30
0.0
 10
4.7520864090168295
 20
4.30771461450311
 30
0.0
 10
4.66076490924857
 20
4.268813234742497
 30
0.0
 10
4.583459375952005
 20
4.2314756767100565
 30
0.0
 10
4.519791385517166
 20
4.196925912351367
 30
0.0
 10
4.469298831422421
 20
4.16635440333045
 30
0.0
 10
4.431438303525784
 20
4.1409129602863795
 30
0.0
 10
4.405587765808334
 20
4.121709753055634
 30
0.0
 10
4.391049484664626
 20
4.109804491400063
 30
0.0
 10
4.390040664179606
 20
4.108895485878928
 30
0.0
 10
4.32234085279932
 20
4.035184576187675
 30
0.0
 10
4.239355118226111
 20
3.9599047910708625
 30
0.0
 10
4.1595037523763825
 20
3.9011694488318414
 30
0.0
 10
4.084149266922589
 20
3.858486790342109
 30
0.0
 10
4.0146142064001005
 20
3.8312729983110554
 30
0.0
 10
3.952173540991566
 20
3.8188575681288044
 30
0.0
 10
3.898051503925925
 20
3.820483746976556
 30
0.0
 10
3.853415246955098
 20
3.8353134536522595
 30
0.0
 10
3.8193702002661674
 20
3.862430632680881
 30
0.0
 10
3.7731187570315896
 20
3.9092315798702093
 30
0.0
 10
3.5842978947244406
 20
4.083053428694459
 30
0.0
 10
3.533837382590013
 20
4.125282108215801
 30
0.0
 10
3.5040014048030956
 20
4.1569715549147395
 30
0.0
 10
3.485536316208693
 20
4.200230728967183
 30
0.0
 10
3.479446329190212
 20
4.254033623051574
 30
0.0
 10
3.4866630738955506
 20
4.317286262128313
 30
0.0
 10
3.508041470897399
 20
4.388831317721573
 30
0.0
 10
3.544355879936239
 20
4.467452957882573
 30
0.0
 10
3.596296537676141
 20
4.551881916951986
 30
0.0
 10
3.664466296515846
 20
4.640800768550655
 30
0.0
 10
3.732334767417502
 20
4.7143562707992395
 30
0.0
 10
3.7331574395181755
 20
4.715436820162112
 30
0.0
 10
3.743821472258966
 20
4.7309085425489625
 30
0.0
 10
3.760824368505476
 20
4.758256576927741
 30
0.0
 10
3.7830524185100436
 20
4.798088729641171
 30
0.0
 10
3.8093498682597846
 20
4.850933401269383
 30
0.0
 10
3.8385239666790336
 20
4.917237030164593
 30
0.0
 10
3.869350157402717
 20
4.997361837081872
 30
0.0
 10
3.9005773998282876
 20
5.09158387800435
 30
0.0
 10
3.9309335959795795
 20
5.2000914142651435
 30
0.0
 10
3.9591311148941464
 20
5.322983602202089
 30
0.0
 10
3.983872386500472
 20
5.460269510876462
 30
0.0
 10
4.003855552273248
 20
5.6118674696150475
 30
0.0
 10
4.014516016618072
 20
5.738753441003739
 30
0.0
 10
3.838712467660623
 20
5.875586835589221
 30
0.0
 10
3.6427846134496087
 20
5.981617687911028
 30
0.0
 10
3.5308680850771297
 20
5.920885604854801
 30
0.0
 10
3.4000658643499677
 20
5.841689348245937
 30
0.0
 10
3.2842815466643707
 20
5.763884830257273
 30
0.0
 10
3.183066973232282
 20
5.688697064937822
 30
0.0
 10
3.0958926108849534
 20
5.6173106893454
 30
0.0
 10
3.0221504192257744
 20
5.550865051140138
 30
0.0
 10
2.9611569982295527
 20
5.490449479362078
 30
0.0
 10
2.912157005280265
 20
5.437098753835414
 30
0.0
 10
2.8743268297918307
 20
5.391788787985272
 30
0.0
 10
2.8467785127795144
 20
5.355432539188598
 30
0.0
 10
2.8285638996939686
 20
5.328876158818297
 30
0.0
 10
2.818678974863866
 20
5.312895384906991
 30
0.0
 10
2.818019968665569
 20
5.311708068336291
 30
0.0
 10
2.777922213053558
 20
5.220008926228429
 30
0.0
 10
2.7238761807482965
 20
5.121862583545948
 30
0.0
 10
2.6674227166028435
 20
5.040381988052417
 30
0.0
 10
2.6100101815770262
 20
4.97554443230217
 30
0.0
 10
2.5530790262596903
 20
4.927227161344376
 30
0.0
 10
2.4980528519231617
 20
4.895209982499935
 30
0.0
 10
2.4463352767018214
 20
4.879174653784737
 30
0.0
 10
2.399302337367771
 20
4.87870747710227
 30
0.0
 10
2.3582970115779553
 20
4.893300963984878
 30
0.0
 10
2.2993553564025024
 20
4.922548287696247
 30
0.0
 10
2.0643254671902085
 20
5.0256419555326035
 30
0.0
 10
2.0028874149626286
 20
5.049198067212293
 30
0.0
 10
1.9643784862262297
 20
5.069482766129488
 30
0.0
 10
1.9328676562110527
 20
5.104402434344597
 30
0.0
 10
1.9096378703363628
 20
5.153312723670643
 30
0.0
 10
1.8959254935736107
 20
5.2154814334676995
 30
0.0
 10
1.8929149084825287
 20
5.290091534765183
 30
0.0
 10
1.9017332978453556
 20
5.376244506939632
 30
0.0
 10
1.9234456292856832
 20
5.47296397612461
 30
0.0
 10
1.9590498586424725
 20
5.579199643589913
 30
0.0
 10
1.9993575960519179
 20
5.670806562316076
 30
0.0
 10
1.9997848397044269
 20
5.672095685728407
 30
0.0
 10
2.004847405690034
 20
5.690191713291212
 30
0.0
 10
2.012049145872249
 20
5.7215787871194665
 30
0.0
 10
2.020139339972622
 20
5.76647015996782
 30
0.0
 10
2.027853284530707
 20
5.824990329500969
 30
0.0
 10
2.0339178967180853
 20
5.897174259168634
 30
0.0
 10
2.0370573571243287
 20
5.982966930804514
 30
0.0
 10
2.035998774746288
 20
6.082223230697524
 30
0.0
 10
2.0294778490300387
 20
6.194708170124837
 30
0.0
 10
2.0162445204000883
 20
6.320097439770365
 30
0.0
 10
1.9950685799910974
 20
6.457978296995147
 30
0.0
 10
1.9647452259878186
 20
6.607850783496173
 30
0.0
 10
1.933628269410259
 20
6.7313231700797695
 30
0.0
 10
1.7229205110627608
 20
6.803659234888363
 30
0.0
 10
1.503180406952365
 20
6.840327372901812
 30
0.0
 10
1.4170474999184473
 20
6.746546684265064
 30
0.0
 10
1.3190474867858613
 20
6.629170087645349
 30
0.0
 10
1.2347997684929255
 20
6.517986126554723
 30
0.0
 10
1.1634827073193934
 20
6.414007923481467
 30
0.0
 10
1.1042108106403368
 20
6.318183989441203
 30
0.0
 10
1.056039037784507
 20
6.231394508701139
 30
0.0
 10
1.017967312664009
 20
6.154447887823796
 30
0.0
 10
0.9889452267495558
 20
6.088077580061773
 30
0.0
 10
0.9678769163772573
 20
6.032939195238826
 30
0.0
 10
0.9536260978537271
 20
5.989607904371993
 30
0.0
 10
0.9450212453567463
 20
5.958576146739956
 30
0.0
 10
0.9408608618260017
 20
5.9402516253934605
 30
0.0
 10
0.9406230834615493
 20
5.938914661946746
 30
0.0
 10
0.9324725976191583
 20
5.839164312328455
 30
0.0
 10
0.9132229937927149
 20
5.7287870912073675
 30
0.0
 10
0.8862850401574479
 20
5.633390929282757
 30
0.0
 10
0.8530359945769227
 20
5.553424631495869
 30
0.0
 10
0.8148781185212639
 20
5.489239807639318
 30
0.0
 10
0.7732293750651718
 20
5.441090438258197
 30
0.0
 10
0.7295206634442258
 20
5.409131278660104
 30
0.0
 10
0.6851877905150433
 20
5.393417844462003
 30
0.0
 10
0.6416657489368555
 20
5.393906208453588
 30
0.0
 10
0.5764211247327995
 20
5.402430507343885
 30
0.0
 10
0.32065134397599315
 20
5.423624195619202
 30
0.0
 10
0.25489351792372217
 20
5.425955069246014
 30
0.0
 10
0.21188467819402507
 20
5.432636858504252
 30
0.0
 10
0.17074279413112314
 20
5.455432932996443
 30
0.0
 10
0.1328905171470129
 20
5.494150428794332
 30
0.0
 10
0.09973496770786272
 20
5.548498264958271
 30
0.0
 10
0.07266164413251024
 20
5.618088249789392
 30
0.0
 10
0.05302840450045164
 20
5.70243654264109
 30
0.0
 10
0.042159541628111565
 20
5.800965466698246
 30
0.0
 10
0.04133997079463761
 20
5.913005667044097
 30
0.0
 10
0.049719005924570646
 20
6.012736971176059
 30
0.0
 10
0.04970452264979771
 20
6.014094972113313
 30
0.0
 10
0.04861701430187595
 20
6.0328543194768445
 30
0.0
 10
0.045237178124540714
 20
6.064879156284653
 30
0.0
 10
0.038312818257648165
 20
6.109965072458392
 30
0.0
 10
0.02660733203702632
 20
6.167819171493572
 30
0.0
 10
0.008905263159877781
 20
6.2380611531051295
 30
0.0
 10
-0.015982216000082705
 20
6.320224722277402
 30
0.0
 10
-0.04921190935547521
 20
6.413759320927361
 30
0.0
 10
-0.09190331345532245
 20
6.518032174950576
 30
0.0
 10
-0.14513345313648632
 20
6.63233065332361
 30
0.0
 10
-0.20993186383890863
 20
6.755864928776564
 30
0.0
 10
-0.28727573169667053
 20
6.887770933616408
 30
0.0
 10
-0.3567981041221063
 20
6.994449586437102
 30
0.0
 10
-0.5795766167749652
 20
6.994449586437102
 30
0.0
 10
-0.7993167208853609
 20
6.9577814484236535
 30
0.0
 10
-0.850332169613836
 20
6.841114746977489
 30
0.0
 10
-0.9049101531020511
 20
6.69827738587622
 30
0.0
 10
-0.9484917244872473
 20
6.565762489064712
 30
0.0
 10
-0.9821829632258499
 20
6.444261499928691
 30
0.0
 10
-1.0071293645332222
 20
6.334384017555381
 30
0.0
 10
-1.0245105595347037
 20
6.236655681196247
 30
0.0
 10
-1.0355349266189906
 20
6.151516371541522
 30
0.0
 10
-1.0414341121657171
 20
6.079318734231587
 30
0.0
 10
-1.043457479084523
 20
6.020327029991595
 30
0.0
 10
-1.04286650180801
 20
5.974716314774276
 30
0.0
 10
-1.0409291244303347
 20
5.942571952327267
 30
0.0
 10
-1.0389141245511633
 20
5.923889429767719
 30
0.0
 10
-1.0387049081064716
 20
5.9225477001795666
 30
0.0
 10
-1.014024892570401
 20
5.825555641218136
 30
0.0
 10
-0.9963920746550522
 20
5.714908626245961
 30
0.0
 10
-0.9908953725183355
 20
5.615934552258768
 30
0.0
 10
-0.9963778786528207
 20
5.529505101605403
 30
0.0
 10
-1.01162747749572
 20
5.456408146445108
 30
0.0
 10
-1.035385502471068
 20
5.397344317814196
 30
0.0
 10
-1.0663488333769509
 20
5.352924598173115
 30
0.0
 10
-1.1031774852239888
 20
5.323667700873799
 30
0.0
 10
-1.1444999540714973
 20
5.309998020158123
 30
0.0
 10
-1.2089772798969933
 20
5.296875554174461
 30
0.0
 10
-1.457770327776257
 20
5.233872597910151
 30
0.0
 10
-1.520722046862655
 20
5.214725647159389
 30
0.0
 10
-1.5635701224500294
 20
5.207080451213899
 30
0.0
 10
-1.6098846990403353
 20
5.2152826235943985
 30
0.0
 10
-1.658257585584044
 20
5.239611684430585
 30
0.0
 10
-1.7072633894565046
 20
5.280249215619479
 30
0.0
 10
-1.7554656368208397
 20
5.3372779293279144
 30
0.0
 10
-1.8014229392925492
 20
5.410681096527768
 30
0.0
 10
-1.843695186537555
 20
5.500342337701731
 30
0.0
 10
-1.8808497443445342
 20
5.606045776737826
 30
0.0
 10
-1.905307409964567
 20
5.703094031982262
 30
0.0
 10
-1.9057620506790691
 20
5.704373749971331
 30
0.0
 10
-1.9128817849565922
 20
5.721763550767484
 30
0.0
 10
-1.9264769398001012
 20
5.75095576257018
 30
0.0
 10
-1.9476654918001683
 20
5.791350463471809
 30
0.0
 10
-1.9775219377381594
 20
5.84226910267972
 30
0.0
 10
-2.017072393841097
 20
5.902957327610915
 30
0.0
 10
-2.067289868031252
 20
5.9725880967006315
 30
0.0
 10
-2.129089719477122
 20
6.050265069004982
 30
0.0
 10
-2.203325325900962
 20
6.135026255930648
 30
0.0
 10
-2.2907839650481665
 20
6.225847929375845
 30
0.0
 10
-2.3921829327934763
 20
6.321648767479862
 30
0.0
 10
-2.5081659063095705
 20
6.421294228301581
 30
0.0
 10
-2.60855986677983
 20
6.4996188600364
 30
0.0
 10
-2.819267625127329
 20
6.427282795227807
 30
0.0
 10
-3.015195479338342
 20
6.3212519429060015
 30
0.0
 10
-3.0255651543053976
 20
6.194341876022504
 30
0.0
 10
-3.030806736773624
 20
6.0415223948650185
 30
0.0
 10
-3.0289994217537397
 20
5.902036607582634
 30
0.0
 10
-3.0214138695666533
 20
5.776179349838833
 30
0.0
 10
-3.0093314458373883
 20
5.664155249272428
 30
0.0
 10
-2.994038540809082
 20
5.5660784389501154
 30
0.0
 10
-2.9768208886228957
 20
5.481972605791602
 30
0.0
 10
-2.9589579055126127
 20
5.411771373198054
 30
0.0
 10
-2.9417170657765004
 20
5.355319016046023
 30
0.0
 10
-2.926348334257812
 20
5.3123715051951805
 30
0.0
 10
-2.9140786719058593
 20
5.282597878375505
 30
0.0
 10
-2.9061066451196242
 20
5.2655818958114375
 30
0.0
 10
-2.9054731057138983
 20
5.264380797301805
 30
0.0
 10
-2.850637051432597
 20
5.180657623572563
 30
0.0
 10
-2.7980326011979453
 20
5.081731135686869
 30
0.0
 10
-2.7606968962558787
 20
4.989904526294596
 30
0.0
 10
-2.7378187483348038
 20
4.90637789484415
 30
0.0
 10
-2.7285075393084104
 20
4.832289997687851
 30
0.0
 10
-2.7318002951531954
 20
4.768712192109037
 30
0.0
 10
-2.746662887994782
 20
4.716645478291044
 30
0.0
 10
-2.771996362876636
 20
4.677015556680429
 30
0.0
 10
-2.8066413283096696
 20
4.650669153269988
 30
0.0
 10
-2.863364237034622
 20
4.617321945217733
 30
0.0
 10
-3.0782199648767334
 20
4.476949692316626
 30
0.0
 10
-3.131543781437683
 20
4.438399786397685
 30
0.0
 10
-3.1695878390364474
 20
4.417256080856599
 30
0.0
 10
-3.2160562051358967
 20
4.409975518478165
 30
0.0
 10
-3.2697077483995236
 20
4.417279713106773
 30
0.0
 10
-3.3292532674523185
 20
4.439803232260039
 30
0.0
 10
-3.3933609771687814
 20
4.478090728823815
 30
0.0
 10
-3.4606621556563097
 20
4.532594398238228
 30
0.0
 10
-3.5297569333634873
 20
4.603671769810298
 30
0.0
 10
-3.599220205293221
 20
4.691583839759227
 30
0.0
 10
-3.653864204093505
 20
4.775432361801569
 30
0.0
 10
-3.654709734871843
 20
4.776495119541467
 30
0.0
 10
-3.6670901613959375
 20
4.790630919023418
 30
0.0
 10
-3.6894273889277645
 20
4.813827076708341
 30
0.0
 10
-3.722584024677539
 20
4.845153169706805
 30
0.0
 10
-3.7673560211450274
 20
4.883618524445177
 30
0.0
 10
-3.824468958866443
 20
4.928176481849881
 30
0.0
 10
-3.8945745855538934
 20
4.977728876593466
 30
0.0
 10
-3.9782476222625847
 20
5.031130717320622
 30
0.0
 10
-4.075982851170277
 20
5.0871950473400185
 30
0.0
 10
-4.188192489171314
 20
5.144697978296129
 30
0.0
 10
-4.315203862437212
 20
5.202383871739475
 30
0.0
 10
-4.457257386769911
 20
5.258970656704405
 30
0.0
 10
-4.577643691895243
 20
5.300453578173
 30
0.0
 10
-4.753447240852693
 20
5.163620183587518
 30
0.0
 10
-4.904331022026667
 20
4.999716705044612
 30
0.0
 10
-4.872931208047537
 20
4.8763159476831905
 30
0.0
 10
-4.828268382703811
 20
4.73007470849147
 30
0.0
 10
-4.781268031904632
 20
4.598733480135246
 30
0.0
 10
-4.733227701073296
 20
4.482158540536769
 30
0.0
 10
-4.685425770396581
 20
4.380127371306656
 30
0.0
 10
-4.639115988892176
 20
4.292330231238099
 30
0.0
 10
-4.5955221172092875
 20
4.218372046634985
 30
0.0
 10
-4.555832696834735
 20
4.157774611593693
 30
0.0
 10
-4.521195962948306
 20
4.109979090375617
 30
0.0
 10
-4.49271491771793
 20
4.074348813091233
 30
0.0
 10
-4.471442578690962
 20
4.050172356350224
 30
0.0
 10
-4.458377417798693
 20
4.036666859522628
 30
0.0
 10
-4.45738820925692
 20
4.035736549751995
 30
0.0
 10
-4.378338453580818
 20
3.974354966227398
 30
0.0
 10
-4.296462879451933
 20
3.8978692253932157
 30
0.0
 10
-4.2313340746581405
 20
3.8231409185601657
 30
0.0
 10
-4.182574474999797
 20
3.751568512879519
 30
0.0
 10
-4.149711472080413
 20
3.6845182469762716
 30
0.0
 10
-4.132182137606482
 20
3.623316106195315
 30
0.0
 10
-4.129333399832497
 20
3.569244634540897
 30
0.0
 10
-4.140426422656354
 20
3.5235362055470847
 30
0.0
 10
-4.164639565098217
 20
3.487368121057968
 30
0.0
 10
-4.207461249415663
 20
3.43740985836483
 30
0.0
 10
-4.365096705278815
 20
3.2348798205286804
 30
0.0
 10
-4.403014156385674
 20
3.181104439911302
 30
0.0
 10
-4.432131532040626
 20
3.1487534733483895
 30
0.0
 10
-4.4737181191513535
 20
3.1267791381142898
 30
0.0
 10
-4.526834341932815
 20
3.116266943711053
 30
0.0
 10
-4.59046689523265
 20
3.118235678040026
 30
0.0
 10
-4.663533002219854
 20
3.133632913114736
 30
0.0
 10
-4.7448849297486975
 20
3.1633307664510886
 30
0.0
 10
-4.833314746637535
 20
3.208121932332379
 30
0.0
 10
-4.927559309342718
 20
3.2687159963188637
 30
0.0
 10
-5.006468116164242
 20
3.330278496751952
 30
0.0
 10
-5.00761291062682
 20
3.331009127951176
 30
0.0
 10
-5.02391241808149
 20
3.340359092905528
 30
0.0
 10
-5.0525711331007646
 20
3.355045532862046
 30
0.0
 10
-5.0941028166385465
 20
3.373908349706546
 30
0.0
 10
-5.148938623109177
 20
3.3957521019380015
 30
0.0
 10
-5.217424969448418
 20
3.4193512457434694
 30
0.0
 10
-5.2998217161807
 20
3.443455495285832
 30
0.0
 10
-5.39630066630389
 20
3.46679528637807
 30
0.0
 10
-5.50694438912496
 20
3.4880873194058846
 30
0.0
 10
-5.631745370590489
 20
3.5060401730539086
 30
0.0
 10
-5.770605496299103
 20
3.519359960193135
 30
0.0
 10
-5.923335867899422
 20
3.526756013115891
 30
0.0
 10
-6.050668793533507
 20
3.5269019061032933
 30
0.0
 10
-6.172517090698244
 20
3.3403992032331344
 30
0.0
 10
-6.262006199941891
 20
3.1363845835937583
 30
0.0
 10
-6.192239554079529
 20
3.029865522574559
 30
0.0
 10
-6.10251223106498
 20
2.9060500327816525
 30
0.0
 10
-6.015412061781182
 20
2.797086223413123
 30
0.0
 10
-5.9321228675737085
 20
2.702426305512026
 30
0.0
 10
-5.853781510861742
 20
2.621444727980998
 30
0.0
 10
-5.781473236277536
 20
2.553441440605616
 30
0.0
 10
-5.716227217523404
 20
2.4976454214391235
 30
0.0
 10
-5.659012324426975
 20
2.4532184563028934
 30
0.0
 10
-5.610733123951122
 20
2.419259157366677
 30
0.0
 10
-5.572226128188722
 20
2.3948072070532294
 30
0.0
 10
-5.544256300494658
 20
2.3788478146151513
 30
0.0
 10
-5.527513818405891
 20
2.3703163336646713
 30
0.0
 10
-5.526276136822726
 20
2.3697576261319306
 30
0.0
 10
-5.431578947362666
 20
2.3373692798202708
 30
0.0
 10
-5.329304738226841
 20
2.291612702855532
 30
0.0
 10
-5.243440550158262
 20
2.2420806701562173
 30
0.0
 10
-5.1740833579687715
 20
2.1902184709611667
 30
0.0
 10
-5.121229777444743
 20
2.137471773013659
 30
0.0
 10
-5.084777928037995
 20
2.085277498633238
 30
0.0
 10
-5.064526564588969
 20
2.035060752101479
 30
0.0
 10
-5.060177034205882
 20
1.9882270332452994
 30
0.0
 10
-5.071334483967384
 20
1.9461566408375577
 30
0.0
 10
-5.095614549934635
 20
1.8850010764486527
 30
0.0
 10
-5.1789474862099425
 20
1.6422605258543366
 30
0.0
 10
-5.197349627685407
 20
1.5790870674394146
 30
0.0
 10
-5.214385001941698
 20
1.539034569058735
 30
0.0
 10
-5.246583258067871
 20
1.504747721158526
 30
0.0
 10
-5.293408193445684
 20
1.477558297100537
 30
0.0
 10
-5.354232206481725
 20
1.4587589036926132
 30
0.0
 10
-5.428338864310144
 20
1.4495973479451936
 30
0.0
 10
-5.514925797227336
 20
1.451271161984819
 30
0.0
 10
-5.613107910507942
 20
1.4649223043455444
 30
0.0
 10
-5.721920903264407
 20
1.4916320553228724
 30
0.0
 10
-5.816543524491766
 20
1.5242372819841665
 30
0.0
 10
-5.817863526395248
 20
1.5245566114153692
 30
0.0
 10
-5.836315810234863
 20
1.5281075280596625
 30
0.0
 10
-5.868190396283466
 20
1.532692746634892
 30
0.0
 10
-5.91359652526747
 20
1.5370482084335662
 30
0.0
 10
-5.972553831244943
 20
1.5399032486630895
 30
0.0
 10
-6.044992027900999
 20
1.5399862454595536
 30
0.0
 10
-6.130750928652414
 20
1.5360302803468104
 30
0.0
 10
-6.2295808009191
 20
1.5267787932851151
 30
0.0
 10
-6.341143053471634
 20
1.51099120716285
 30
0.0
 10
-6.465011255573116
 20
1.4874485132427981
 30
0.0
 10
-6.600672484467066
 20
1.4549587884635784
 30
0.0
 10
-6.7475289977162225
 20
1.4123626322483933
 30
0.0
 10
-6.868010045592695
 20
1.3711556869856552
 30
0.0
 10
-6.922698937295786
 20
1.1551941375744037
 30
0.0
 10
-6.941095841055959
 20
0.9331765264894725
 30
0.0
 10
-6.840522661930598
 20
0.8550821548874528
 30
0.0
 10
-6.7154541889567225
 20
0.7671097440076933
 30
0.0
 10
-6.59769285602858
 20
0.6923312731196445
 30
0.0
 10
-6.488180475002354
 20
0.6298442478204729
 30
0.0
 10
-6.387789193846273
 20
0.5786878724726603
 30
0.0
 10
-6.2973181497119475
 20
0.5378476491572991
 30
0.0
 10
-6.217490402414872
 20
0.5062601598685568
 30
0.0
 10
-6.148950158044101
 20
0.48281801566529053
 30
0.0
 10
-6.092260291479366
 20
0.4663749559834868
 30
0.0
 10
-6.0479001756734
 20
0.4557510808685387
 30
0.0
 10
-6.016263824139485
 20
0.44973820053954744
 30
0.0
 10
-5.997658328574914
 20
0.4471052538067343
 30
0.0
 10
-5.996306295954498
 20
0.44697869314229904
 30
0.0
 10
-5.896223582566769
 20
0.4470933639234164
 30
0.0
 10
-5.784633735931736
 20
0.4370243859286955
 30
0.0
 10
-5.6873388816857515
 20
0.4180561916747627
 30
0.0
 10
-5.604900024926566
 20
0.39152427297302594
 30
0.0
 10
-5.537783372355471
 20
0.35879706615321694
 30
0.0
 10
-5.486359131507847
 20
0.321266717680061
 30
0.0
 10
-5.450899691845765
 20
0.2803464599507822
 30
0.0
 10
-5.431578947362657
 20
0.23746261137032543
 30
0.0
 10
-5.428471621636468
 20
0.19404889085073473
 30
0.0
 10
-5.431578947361933
 20
0.12832317909395352
 30
0.0
 10
-5.431578947360231
 20
-0.12832317909391577
 30
0.0
 10
-5.428471621636791
 20
-0.19404889084991994
 30
0.0
 10
-5.431578947362687
 20
-0.2374626113702747
 30
0.0
 10
-5.450899691845614
 20
-0.28034645995134444
 30
0.0
 10
-5.486359131507858
 20
-0.32126671768001946
 30
0.0
 10
-5.5377833786858455
 20
-0.35879703284644837
 30
0.0
 10
-5.604899981096496
 20
-0.3915245826945799
 30
0.0
 10
-5.687338881685768
 20
-0.41805619167477537
 30
0.0
 10
-5.784633735931735
 20
-0.4370243859286984
 30
0.0
 10
-5.896223582566774
 20
-0.44709336392340865
 30
0.0
 10
-5.996306188968739
 20
-0.44697869326487866
 30
0.0
 10
-5.997658355624943
 20
-0.44710526990047456
 30
0.0
 10
-6.016263824578798
 20
-0.4497381984827972
 30
0.0
 10
-6.047900175673201
 20
-0.45575108086847954
 30
0.0
 10
-6.092260291479325
 20
-0.4663749559834703
 30
0.0
 10
-6.148950158044124
 20
-0.4828180156652619
 30
0.0
 10
-6.21749040241488
 20
-0.506260159868526
 30
0.0
 10
-6.297318149602562
 20
-0.5378476494332863
 30
0.0
 10
-6.387789193849179
 20
-0.5786878724741682
 30
0.0
 10
-6.4881804750024035
 20
-0.6298442478205266
 30
0.0
 10
-6.597692856028955
 20
-0.6923312731198821
 30
0.0
 10
-6.71545418895673
 20
-0.7671097440076973
 30
0.0
 10
-6.8405226619305886
 20
-0.8550821548874443
 30
0.0
 10
-6.94109584105596
 20
-0.9331765264894714
 30
0.0
 10
-6.922698937295786
 20
-1.1551941375743993
 30
0.0
 10
-6.868010045592697
 20
-1.3711556869856512
 30
0.0
 10
-6.747528997716235
 20
-1.4123626322483858
 30
0.0
 10
-6.600672484467059
 20
-1.4549587884635773
 30
0.0
 10
-6.465011255572685
 20
-1.4874485132428987
 30
0.0
 10
-6.341143053471571
 20
-1.5109912071628824
 30
0.0
 10
-6.229580800915864
 20
-1.526778793285595
 30
0.0
 10
-6.130750928666261
 20
-1.5360302806433597
 30
0.0
 10
-6.044992027901002
 20
-1.53998624545952
 30
0.0
 10
-5.972553831244933
 20
-1.5399032486630535
 30
0.0
 10
-5.913596525267515
 20
-1.537048208433562
 30
0.0
 10
-5.868190396283675
 20
-1.5326927466348983
 30
0.0
 10
-5.83631581048718
 20
-1.5281075259717063
 30
0.0
 10
-5.817863495585236
 20
-1.5245566178539742
 30
0.0
 10
-5.816543625640941
 20
-1.5242373168383219
 30
0.0
 10
-5.721920903264406
 20
-1.4916320553228612
 30
0.0
 10
-5.613107910507942
 20
-1.4649223043455455
 30
0.0
 10
-5.514925797227317
 20
-1.4512711619848238
 30
0.0
 10
-5.428338805198955
 20
-1.4495976551167775
 30
0.0
 10
-5.354232211309038
 20
-1.4587588701350258
 30
0.0
 10
-5.293408193445689
 20
-1.4775582971004926
 30
0.0
 10
-5.246583258067833
 20
-1.5047477211591045
 30
0.0
 10
-5.214385001941689
 20
-1.5390345690586753
 30
0.0
 10
-5.197349627685367
 20
-1.579087067438537
 30
0.0
 10
-5.178947486211564
 20
-1.642260525854851
 30
0.0
 10
-5.095614549933039
 20
-1.8850010764480623
 30
0.0
 10
-5.071334483967955
 20
-1.94615664083689
 30
0.0
 10
-5.060177034205927
 20
-1.9882270332452585
 30
0.0
 10
-5.064526564588646
 20
-2.0350607521019604
 30
0.0
 10
-5.084777928038018
 20
-2.0852774986332006
 30
0.0
 10
-5.121229794246811
 20
-2.1374717435670108
 30
0.0
 10
-5.174083215947114
 20
-2.190218749669551
 30
0.0
 10
-5.243440550158275
 20
-2.2420806701562332
 30
0.0
 10
-5.329304738226841
 20
-2.2916127028555326
 30
0.0
 10
-5.4315789473626745
 20
-2.337369279820263
 30
0.0
 10
-5.526276035593949
 20
-2.369757591509648
 30
0.0
 10
-5.527513838764648
 20
-2.3703163576695365
 30
0.0
 10
-5.544256301577995
 20
-2.3788478128124844
 30
0.0
 10
-5.5722261281885554
 20
-2.3948072070531063
 30
0.0
 10
-5.61073312395109
 20
-2.4192591573666458
 30
0.0
 10
-5.659012324427006
 20
-2.453218456302871
 30
0.0
 10
-5.716227217523422
 20
-2.497645421439095
 30
0.0
 10
-5.781473236084466
 20
-2.55344144083113
 30
0.0
 10
-5.8537815108640014
 20
-2.6214447279833655
 30
0.0
 10
-5.93212286757374
 20
-2.7024263055120907
 30
0.0
 10
-6.015412061781461
 20
-2.797086223413467
 30
0.0
 10
-6.102512231064988
 20
-2.9060500327816565
 30
0.0
 10
-6.192239554079524
 20
-3.029865522574546
 30
0.0
 10
-6.262006199941893
 20
-3.1363845835937547
 30
0.0
 10
-6.172517090698246
 20
-3.34039920323313
 30
0.0
 10
-6.050668793533511
 20
-3.52690190610329
 30
0.0
 10
-5.923335867899437
 20
-3.526756013115888
 30
0.0
 10
-5.770605496299097
 20
-3.5193599601931314
 30
0.0
 10
-5.63174537059005
 20
-3.5060401730538637
 30
0.0
 10
-5.50694438912489
 20
-3.4880873194058952
 30
0.0
 10
-5.396300666300673
 20
-3.4667952863774727
 30
0.0
 10
-5.299821716097508
 20
-3.443455495570809
 30
0.0
 10
-5.217424969448432
 20
-3.4193512457434383
 30
0.0
 10
-5.14893862310918
 20
-3.3957521019379637
 30
0.0
 10
-5.094102816638592
 20
-3.3739083497065563
 30
0.0
 10
-5.05257113310096
 20
-3.35504553286212
 30
0.0
 10
-5.023912418998094
 20
-3.3403590910126297
 30
0.0
 10
-5.007612879395569
 20
-3.331009124036925
 30
0.0
 10
-5.00646820051575
 20
-3.3302785625606965
 30
0.0
 10
-4.927559309342721
 20
-3.2687159963188526
 30
0.0
 10
-4.833314746637535
 20
-3.2081219323323795
 30
0.0
 10
-4.744884929748678
 20
-3.163330766451087
 30
0.0
 10
-4.663532846573022
 20
-3.1336331844495446
 30
0.0
 10
-4.590466910694538
 20
-3.118235647868108
 30
0.0
 10
-4.526834341932835
 20
-3.1162669437110124
 30
0.0
 10
-4.473718119151128
 20
-3.126779138114824
 30
0.0
 10
-4.432131532040636
 20
-3.14875347334833
 30
0.0
 10
-4.403014156385921
 20
-3.181104439910459
 30
0.0
 10
-4.365096705280183
 20
-3.2348798205296942
 30
0.0
 10
-4.2074612494143455
 20
-3.4374098583637536
 30
0.0
 10
-4.164639565098974
 20
-3.4873681210575223
 30
0.0
 10
-4.14042642265641
 20
-3.5235362055470607
 30
0.0
 10
-4.129333399832034
 20
-3.569244634541247
 30
0.0
 10
-4.132182137606517
 20
-3.6233161061952877
 30
0.0
 10
-4.149711497533411
 20
-3.684518224580746
 30
0.0
 10
-4.182574250176799
 20
-3.7515687303723566
 30
0.0
 10
-4.2313340746581485
 20
-3.8231409185601843
 30
0.0
 10
-4.296462879451932
 20
-3.8978692253932157
 30
0.0
 10
-4.378338453580829
 20
-3.974354966227394
 30
0.0
 10
-4.457388124754836
 20
-4.035736484136711
 30
0.0
 10
-4.458377429259989
 20
-4.03666688883732
 30
0.0
 10
-4.471442580300926
 20
-4.050172354996988
 30
0.0
 10
-4.492714917717813
 20
-4.074348813091062
 30
0.0
 10
-4.521195962948286
 20
-4.109979090375576
 30
0.0
 10
-4.555832696834773
 20
-4.157774611593681
 30
0.0
 10
-4.595522117209316
 20
-4.218372046634964
 30
0.0
 10
-4.639115988636342
 20
-4.292330231388703
 30
0.0
 10
-4.68542577039795
 20
-4.380127371309628
 30
0.0
 10
-4.733227701073304
 20
-4.482158540536839
 30
0.0
 10
-4.7812680319047836
 20
-4.598733480135661
 30
0.0
 10
-4.828268382703817
 20
-4.730074708491475
 30
0.0
 10
-4.872931208047537
 20
-4.876315947683176
 30
0.0
 10
-4.904331022026671
 20
-4.999716705044608
 30
0.0
 10
-4.753447240852696
 20
-5.163620183587515
 30
0.0
 10
-4.577643691895247
 20
-5.300453578172998
 30
0.0
 10
-4.457257386769926
 20
-5.258970656704406
 30
0.0
 10
-4.315203862437208
 20
-5.202383871739469
 30
0.0
 10
-4.1881924891709135
 20
-5.144697978295944
 30
0.0
 10
-4.075982851170209
 20
-5.087195047340006
 30
0.0
 10
-3.9782476222597345
 20
-5.031130717319011
 30
0.0
 10
-3.8945745853826765
 20
-4.9777288768359895
 30
0.0
 10
-3.824468958866466
 20
-4.928176481849855
 30
0.0
 10
-3.767356021145042
 20
-4.883618524445142
 30
0.0
 10
-3.7225840246775777
 20
-4.845153169706829
 30
0.0
 10
-3.6894273889279248
 20
-4.813827076708474
 30
0.0
 10
-3.6670901628775003
 20
-4.790630917530703
 30
0.0
 10
-3.6547097066037417
 20
-4.77649510569853
 30
0.0
 10
-3.653864262506552
 20
-4.775432451433503
 30
0.0
 10
-3.5992202052932263
 20
-4.691583839759217
 30
0.0
 10
-3.5297569333634873
 20
-4.6036717698102985
 30
0.0
 10
-3.4606621556562915
 20
-4.532594398238219
 30
0.0
 10
-3.393360741853056
 20
-4.478090934918511
 30
0.0
 10
-3.329253291873244
 20
-4.439803208743385
 30
0.0
 10
-3.2697077483995547
 20
-4.417279713106741
 30
0.0
 10
-3.21605620513551
 20
-4.409975518478597
 30
0.0
 10
-3.1695878390364753
 20
-4.4172560808565455
 30
0.0
 10
-3.13154378143819
 20
-4.438399786396968
 30
0.0
 10
-3.078219964877697
 20
-4.476949692318027
 30
0.0
 10
-2.8633642370337244
 20
-4.617321945216288
 30
0.0
 10
-2.8066413283105303
 20
-4.650669153269812
 30
0.0
 10
-2.771996362876697
 20
-4.677015556680425
 30
0.0
 10
-2.7466628879942303
 20
-4.716645478291225
 30
0.0
 10
-2.7318002951532376
 20
-4.768712192109021
 30
0.0
 10
-2.7285075706541084
 20
-4.832289984770352
 30
0.0
 10
-2.7378184650735276
 20
-4.9063780275527185
 30
0.0
 10
-2.7606968962558787
 20
-4.989904526294616
 30
0.0
 10
-2.7980326011979444
 20
-5.081731135686869
 30
0.0
 10
-2.8506370514326087
 20
-5.1806576235725625
 30
0.0
 10
-2.9054730470956165
 20
-5.264380707803957
 30
0.0
 10
-2.90610664644145
 20
-5.265581927259255
 30
0.0
 10
-2.914078673867985
 20
-5.282597877618346
 30
0.0
 10
-2.9263483342577548
 20
-5.31237150519498
 30
0.0
 10
-2.941717065776494
 20
-5.3553190160459785
 30
0.0
 10
-2.958957905512651
 20
-5.4117713731980555
 30
0.0
 10
-2.976820888622928
 20
-5.481972605791591
 30
0.0
 10
-2.9940385405182086
 20
-5.566078439009491
 30
0.0
 10
-3.0093314458377174
 20
-5.664155249275685
 30
0.0
 10
-3.0214138695666373
 20
-5.776179349838902
 30
0.0
 10
-3.028999421753748
 20
-5.902036607583076
 30
0.0
 10
-3.0308067367736276
 20
-6.041522394865026
 30
0.0
 10
-3.0255651543054025
 20
-6.194341876022491
 30
0.0
 10
-3.015195479338346
 20
-6.321251942906
 30
0.0
 10
-2.819267625127333
 20
-6.427282795227806
 30
0.0
 10
-2.6085598667798346
 20
-6.499618860036399
 30
0.0
 10
-2.5081659063095834
 20
-6.421294228301587
 30
0.0
 10
-2.3921829327934727
 20
-6.3216487674798545
 30
0.0
 10
-2.2907839650478468
 20
-6.225847929375539
 30
0.0
 10
-2.2033253259009
 20
-6.1350262559306135
 30
0.0
 10
-2.129089719474949
 20
-6.050265069002533
 30
0.0
 10
-2.0672898677905645
 20
-5.97258809687442
 30
0.0
 10
-2.0170723938411266
 20
-5.902957327610898
 30
0.0
 10
-1.977521937738184
 20
-5.842269102679691
 30
0.0
 10
-1.9476654918001963
 20
-5.791350463471844
 30
0.0
 10
-1.9264769398002097
 20
-5.750955762570357
 30
0.0
 10
-1.9128817868425634
 20
-5.721763549836711
 30
0.0
 10
-1.905762028437406
 20
-5.704373727699805
 30
0.0
 10
-1.9053074361091915
 20
-5.703094135724376
 30
0.0
 10
-1.8808497443445427
 20
-5.606045776737818
 30
0.0
 10
-1.8436951865375544
 20
-5.500342337701732
 30
0.0
 10
-1.8014229392925347
 20
-5.410681096527754
 30
0.0
 10
-1.7554653473363313
 20
-5.337278047848941
 30
0.0
 10
-1.707263420190082
 20
-5.280249201306483
 30
0.0
 10
-1.6582575855840842
 20
-5.239611684430565
 30
0.0
 10
-1.6098846990398294
 20
-5.215282623594683
 30
0.0
 10
-1.563570122450074
 20
-5.207080451213857
 30
0.0
 10
-1.520722046863368
 20
-5.2147256471588745
 30
0.0
 10
-1.4577703277767136
 20
-5.23387259791179
 30
0.0
 10
-1.2089772798966147
 20
-5.296875554172802
 30
0.0
 10
-1.1444999540723686
 20
-5.309998020158237
 30
0.0
 10
-1.1031774852240477
 20
-5.3236677008738145
 30
0.0
 10
-1.0663488333763713
 20
-5.352924598173107
 30
0.0
 10
-1.0353855024711132
 20
-5.397344317814196
 30
0.0
 10
-1.0116275113373272
 20
-5.4564081444054455
 30
0.0
 10
-0.99637756764902
 20
-5.529505135148669
 30
0.0
 10
-0.9908953725183294
 20
-5.6159345522587865
 30
0.0
 10
-0.9963920746550516
 20
-5.714908626245961
 30
0.0
 10
-1.014024892570412
 20
-5.825555641218139
 30
0.0
 10
-1.0387048817241935
 20
-5.922547596497634
 30
0.0
 10
-1.0389141155902792
 20
-5.923889459940803
 30
0.0
 10
-1.0409291265319962
 20
-5.942571952248234
 30
0.0
 10
-1.0428665018080208
 20
-5.974716314774068
 30
0.0
 10
-1.0434574790845312
 20
-6.020327029991551
 30
0.0
 10
-1.0414341121657524
 20
-6.079318734231601
 30
0.0
 10
-1.0355349266190248
 20
-6.151516371541523
 30
0.0
 10
-1.024510559240311
 20
-6.236655681157959
 30
0.0
 10
-1.0071293645324761
 20
-6.334384017558568
 30
0.0
 10
-0.9821829632258126
 20
-6.444261499928752
 30
0.0
 10
-0.9484917244871114
 20
-6.565762489065133
 30
0.0
 10
-0.9049101531020516
 20
-6.698277385876228
 30
0.0
 10
-0.8503321696138445
 20
-6.841114746977477
 30
0.0
 10
-0.7993167208853651
 20
-6.9577814484236535
 30
0.0
 10
-0.5795766167749699
 20
-6.994449586437103
 30
0.0
 10
-0.3567981041221089
 20
-6.994449586437102
 30
0.0
 10
-0.2872757316966792
 20
-6.887770933616418
 30
0.0
 10
-0.20993186383890652
 20
-6.755864928776556
 30
0.0
 10
-0.1451334531362816
 20
-6.6323306533232165
 30
0.0
 10
-0.09190331345527407
 20
-6.518032174950522
 30
0.0
 10
-0.04921190935421365
 20
-6.413759320924341
 30
0.0
 10
-0.015982215716005943
 20
-6.320224722363624
 30
0.0
 10
0.008905263159845571
 20
-6.238061153105124
 30
0.0
 10
0.02660733203699477
 20
-6.167819171493553
 30
0.0
 10
0.038312818257633705
 20
-6.109965072458435
 30
0.0
 10
0.045237178124497054
 20
-6.064879156284856
 30
0.0
 10
0.04861701221587126
 20
-6.032854319208877
 30
0.0
 10
0.0497045364547947
 20
-6.014094943826662
 30
0.0
 10
0.049719014881544434
 20
-6.012737077786285
 30
0.0
 10
0.04133997079462817
 20
-5.913005667044093
 30
0.0
 10
0.04215954162811344
 20
-5.800965466698247
 30
0.0
 10
0.05302840450046177
 20
-5.702436542641072
 30
0.0
 10
0.07266195641566554
 20
-5.618088267893156
 30
0.0
 10
0.09973493399209443
 20
-5.54849826139997
 30
0.0
 10
0.13289051714696976
 20
-5.494150428794325
 30
0.0
 10
0.1707427941316949
 20
-5.455432932996545
 30
0.0
 10
0.21188467819397105
 20
-5.432636858504227
 30
0.0
 10
0.2548935179228825
 20
-5.425955069245759
 30
0.0
 10
0.3206513439760952
 20
-5.423624195620901
 30
0.0
 10
0.5764211247326204
 20
-5.402430507342193
 30
0.0
 10
0.6416657489360693
 20
-5.393906208453977
 30
0.0
 10
0.6851877905149941
 20
-5.393417844462037
 30
0.0
 10
0.7295206634447727
 20
-5.409131278659907
 30
0.0
 10
0.7732293750651303
 20
-5.44109043825821
 30
0.0
 10
0.814878085851012
 20
-5.489239816698523
 30
0.0
 10
0.853036299621161
 20
-5.553424562238899
 30
0.0
 10
0.8862850401574609
 20
-5.633390929282773
 30
0.0
 10
0.9132229937927169
 20
-5.728787091207367
 30
0.0
 10
0.9324725976191498
 20
-5.839164312328461
 30
0.0
 10
0.9406230747488954
 20
-5.938914555316275
 30
0.0
 10
0.940860880098546
 20
-5.9402516510220895
 30
0.0
 10
0.9450212433432977
 20
-5.958576147347614
 30
0.0
 10
0.9536260978536505
 20
-5.989607904371799
 30
0.0
 10
0.9678769163772362
 20
-6.032939195238787
 30
0.0
 10
0.9889452267495279
 20
-6.088077580061797
 30
0.0
 10
1.0179673126639783
 20
-6.154447887823807
 30
0.0
 10
1.0560390380505176
 20
-6.231394508569336
 30
0.0
 10
1.1042108106420785
 20
-6.318183989443974
 30
0.0
 10
1.1634827073194498
 20
-6.4140079234815115
 30
0.0
 10
1.2347997684931922
 20
-6.517986126555077
 30
0.0
 10
1.3190474867858648
 20
-6.629170087645356
 30
0.0
 10
1.4170474999184373
 20
-6.746546684265055
 30
0.0
 10
1.5031804069523622
 20
-6.840327372901813
 30
0.0
 10
1.7229205110627577
 20
-6.8036592348883635
 30
0.0
 10
1.9336282694102562
 20
-6.731323170079771
 30
0.0
 10
1.9647452259878138
 20
-6.607850783496184
 30
0.0
 10
1.9950685799910972
 20
-6.45797829699514
 30
0.0
 10
2.016244520400154
 20
-6.320097439769927
 30
0.0
 10
2.029477849030067
 20
-6.1947081701247715
 30
0.0
 10
2.0359987747465005
 20
-6.082223230694257
 30
0.0
 10
2.0370573574210096
 20
-5.9829669307938245
 30
0.0
 10
2.033917896718053
 20
-5.897174259168639
 30
0.0
 10
2.027853284530671
 20
-5.824990329500961
 30
0.0
 10
2.0201393399726224
 20
-5.7664701599678665
 30
0.0
 10
2.0120491458722736
 20
-5.7215787871196735
 30
0.0
 10
2.004847403630046
 20
-5.69019171371509
 30
0.0
 10
1.9997848435767709
 20
-5.672095654491931
 30
0.0
 10
1.999357639139862
 20
-5.670806660241541
 30
0.0
 10
1.9590498586424627
 20
-5.579199643589913
 30
0.0
 10
1.9234456292856852
 20
-5.47296397612461
 30
0.0
 10
1.901733297845359
 20
-5.376244506939612
 30
0.0
 10
1.892915209723604
 20
-5.290091450489861
 30
0.0
 10
1.8959254605292766
 20
-5.215481441049689
 30
0.0
 10
1.9096378703363197
 20
-5.153312723670652
 30
0.0
 10
1.9328676562116271
 20
-5.10440243434451
 30
0.0
 10
1.9643784862261702
 20
-5.0694827661294815
 30
0.0
 10
2.002887414961752
 20
-5.049198067212326
 30
0.0
 10
2.064325467190857
 20
-5.025641955534177
 30
0.0
 10
2.2993553564017835
 20
-4.922548287694704
 30
0.0
 10
2.358297011577338
 20
-4.893300963985503
 30
0.0
 10
2.3993023373677356
 20
-4.878707477102318
 30
0.0
 10
2.4463352767022752
 20
-4.879174653784375
 30
0.0
 10
2.498052851923127
 20
-4.895209982499962
 30
0.0
 10
2.5530789983011215
 20
-4.927227180520742
 30
0.0
 10
2.6100104476054256
 20
-4.975544267750031
 30
0.0
 10
2.6674227166028612
 20
-5.040381988052428
 30
0.0
 10
2.7238761807482983
 20
-5.121862583545948
 30
0.0
 10
2.777922213053552
 20
-5.220008926228438
 30
0.0
 10
2.8180199258021337
 20
-5.311707970312348
 30
0.0
 10
2.818679000467956
 20
-5.312895403213905
 30
0.0
 10
2.8285638979869208
 20
-5.3288761600467955
 30
0.0
 10
2.846778512779379
 20
-5.35543253918844
 30
0.0
 10
2.874326829791798
 20
-5.3917887879852415
 30
0.0
 10
2.912157005280247
 20
-5.437098753835447
 30
0.0
 10
2.961156998229527
 20
-5.490449479362099
 30
0.0
 10
3.0221504194345754
 20
-5.550865050929104
 30
0.0
 10
3.0958926108875007
 20
-5.617310689347456
 30
0.0
 10
3.18306697323235
 20
-5.688697064937846
 30
0.0
 10
3.284281546664738
 20
-5.763884830257521
 30
0.0
 10
3.4000658643499735
 20
-5.841689348245944
 30
0.0
 10
3.5308680850771177
 20
-5.920885604854797
 30
0.0
 10
3.6427846134496065
 20
-5.9816176879110285
 30
0.0
 10
3.838712467660615
 20
-5.875586835589227
 30
0.0
 10
4.014516016618065
 20
-5.738753441003745
 30
0.0
 10
4.003855552273242
 20
-5.611867469615063
 30
0.0
 10
3.983872386500465
 20
-5.460269510876459
 30
0.0
 10
3.959131114894063
 20
-5.322983602201657
 30
0.0
 10
3.9309335959795813
 20
-5.200091414265076
 30
0.0
 10
3.9005773998274234
 20
-5.091583878001195
 30
0.0
 10
3.869350157679848
 20
-4.997361836975434
 30
0.0
 10
3.8385239666790008
 20
-4.917237030164612
 30
0.0
 10
3.809349868259744
 20
-4.850933401269391
 30
0.0
 10
3.783052418510055
 20
-4.7980887296412185
 30
0.0
 10
3.760824368505563
 20
-4.758256576927932
 30
0.0
 10
3.743821470448223
 20
-4.730908543618753
 30
0.0
 10
3.7331574330382344
 20
-4.715436789360769
 30
0.0
 10
3.7323348399671663
 20
-4.714356349428204
 30
0.0
 10
3.664466296515832
 20
-4.640800768550661
 30
0.0
 10
3.5962965376761393
 20
-4.55188191695199
 30
0.0
 10
3.544355879936233
 20
-4.467452957882555
 30
0.0
 10
3.508041728452246
 20
-4.388831140199707
 30
0.0
 10
3.4866630451035143
 20
-4.31728628002897
 30
0.0
 10
3.479446329190171
 20
-4.2540336230515985
 30
0.0
 10
3.4855363162092057
 20
-4.200230728966917
 30
0.0
 10
3.5040014048030343
 20
-4.156971554914756
 30
0.0
 10
3.5338373825891916
 20
-4.12528210821612
 30
0.0
 10
3.584297894725562
 20
-4.083053428695742
 30
0.0
 10
3.773118757030406
 20
-3.9092315798689867
 30
0.0
 10
3.819370200265784
 20
-3.8624306326816744
 30
0.0
 10
3.8534152469550778
 20
-3.8353134536523195
 30
0.0
 10
3.8980515039262333
 20
-3.8204837469760684
 30
0.0
 10
3.952173540991539
 20
-3.818857568128844
 30
0.0
 10
4.014614186182956
 20
-3.831273025526527
 30
0.0
 10
4.084149465106839
 20
-3.858486548326583
 30
0.0
 10
4.159503752376399
 20
-3.901169448831849
 30
0.0
 10
4.239355118226109
 20
-3.9599047910708642
 30
0.0
 10
4.3223408527993135
 20
-4.035184576187689
 30
0.0
 10
4.390040591810304
 20
-4.1088954070839305
 30
0.0
 10
4.391049514825658
 20
-4.109804500401427
 30
0.0
 10
4.405587764592668
 20
-4.121709754771851
 30
0.0
 10
4.4314383035256
 20
-4.140912960286278
 30
0.0
 10
4.4692988314223765
 20
-4.166354403330436
 30
0.0
 10
4.519791385517156
 20
-4.196925912351408
 30
0.0
 10
4.583459375951984
 20
-4.231475676710089
 30
0.0
 10
4.660764909377531
 20
-4.268813234475104
 30
0.0
 10
4.752086409019903
 20
-4.307714614504233
 30
0.0
 10
4.8577165422225645
 20
-4.346927610178511
 30
0.0
 10
4.977860458376278
 20
-4.385177176713528
 30
0.0
 10
5.112634348054083
 20
-4.421170924814562
 30
0.0
 10
5.262064326154442
 20
-4.453604698152466
 30
0.0
 10
5.387636583452473
 20
-4.474706912073667
 30
0.0
 10
5.538520364626452
 20
-4.310803433530756
 30
0.0
 10
5.660368661791188
 20
-4.124300730660597
 30
0.0
 10
5.609086003249894
 20
-4.007751238305488
 30
0.0
 10
5.540961803783301
 20
-3.8708557984433436
 30
0.0
 10
5.472984420840376
 20
-3.749041896734225
 30
0.0
 10
5.406411693085469
 20
-3.641964065937913
 30
0.0
 10
5.342467939942723
 20
-3.5491924080627566
 30
0.0
 10
5.282338829200338
 20
-3.470215046062411
 30
0.0
 10
5.227166404014178
 20
-3.4044408701483806
 30
0.0
 10
5.178044285609552
 20
-3.3512025690232186
 30
0.0
 10
5.136013067395575
 20
-3.3097599354404452
 30
0.0
 10
5.102055915608659
 20
-3.2793034346680803
 30
0.0
 10
5.077094389567867
 20
-3.258958025211815
 30
0.0
 10
5.061984488724127
 20
-3.2477871805618608
 30
0.0
 10
5.060855647741995
 20
-3.247032377378567
 30
0.0
 10
4.972780951108634
 20
-3.199499120795623
 30
0.0
 10
4.879432913919099
 20
-3.1375328223524392
 30
0.0
 10
4.8028925060880745
 20
-3.0745435611640217
 30
0.0
 10
4.743017493027263
 20
-3.0119728761372087
 30
0.0
 10
4.6995665875894135
 20
-2.9512461609682927
 30
0.0
 10
4.672202789103779
 20
-2.893763971242183
 30
0.0
 10
4.6604930326771425
 20
-2.840898850810954
 30
0.0
 10
4.6639114009857465
 20
-2.793987973665458
 30
0.0
 10
4.681841236676453
 20
-2.7543278224475665
 30
0.0
 10
4.715856029254595
 20
-2.6980027077564657
 30
0.0
 10
4.838006194365074
 20
-2.4722889723866865
 30
0.0
 10
4.866555364120636
 20
-2.413006010540528
 30
0.0
 10
4.889950822636712
 20
-2.376303706479219
 30
0.0
 10
4.927353366198773
 20
-2.3477841452696393
 30
0.0
 10
4.978014902602573
 20
-2.3286726805704654
 30
0.0
 10
5.04110363383449
 20
-2.320140989890342
 30
0.0
 10
5.1157075159555285
 20
-2.3233019408044635
 30
0.0
 10
5.200838015229317
 20
-2.3392046669494135
 30
0.0
 10
5.295434148271882
 20
-2.3688298702295922
 30
0.0
 10
5.398366793115686
 20
-2.413085364977123
 30
0.0
 10
5.48633224119756
 20
-2.460820270416704
 30
0.0
 10
5.487581680098679
 20
-2.4613525097831537
 30
0.0
 10
5.50519783716729
 20
-2.4678921426510185
 30
0.0
 10
5.535882993234875
 20
-2.477661209252306
 30
0.0
 10
5.5799529563517725
 20
-2.489430871425323
 30
0.0
 10
5.6376362373440125
 20
-2.501951026248801
 30
0.0
 10
5.709072810590114
 20
-2.5139558263764186
 30
0.0
 10
5.794313202170561
 20
-2.5241692666037028
 30
0.0
 10
5.893317908517062
 20
-2.5313108201003476
 30
0.0
 10
6.005957148624638
 20
-2.5341010993248876
 30
0.0
 10
6.132010949959485
 20
-2.531267533037999
 30
0.0
 10
6.2711695694509055
 20
-2.5215500301443527
 30
0.0
 10
6.4230342481522955
 20
-2.5037066176082985
 30
0.0
 10
6.548654531843299
 20
-2.482892210081521
 30
0.0
  0
ENDSEC
  0
EOF
