999
DXF generated by OpenJsCad
  0
SECTION
  2
HEADER
  0
ENDSEC
  0
SECTION
  2
TABLES
  0
TABLE
  2
LTYPE
  70
1
  0
LTYPE
  2
CONTINUOUS
  3
Solid Line
  72
65
  73
0
  40
0.0
  0
ENDTAB
  0
TABLE
  2
LAYER
  70
1
  0
LAYER
  2
OpenJsCad
  62
7
  6
continuous
  0
ENDTAB
  0
TABLE
  2
STYLE
  70
0
  0
ENDTAB
  0
TABLE
  2
VIEW
  70
0
  0
ENDTAB
  0
ENDSEC
  0
SECTION
  2
BLOCKS
  0
ENDSEC
  0
SECTION
  2
ENTITIES
  0
LWPOLYLINE
  8
OpenJsCad
  90
1876
  70
1
 10
8.784220314155126
 20
-2.4971650372318375
 30
0.0
 10
8.85672442522915
 20
-2.2740203282017846
 30
0.0
 10
8.900689371795925
 20
-2.043548007164907
 30
0.0
 10
8.87712300341935
 20
-2.0223869819807834
 30
0.0
 10
8.796355811290335
 20
-1.9534498333958399
 30
0.0
 10
8.717812150370893
 20
-1.8897516770669152
 30
0.0
 10
8.641701836583959
 20
-1.83113520239564
 30
0.0
 10
8.56822813402057
 20
-1.777435925484387
 30
0.0
 10
8.497587528484734
 20
-1.7284824202700848
 30
0.0
 10
8.429969508688973
 20
-1.6840965565648252
 30
0.0
 10
8.365556354970085
 20
-1.6440937445479151
 30
0.0
 10
8.304522936059229
 20
-1.6082831856797677
 30
0.0
 10
8.247036513855447
 20
-1.5764681296861593
 30
0.0
 10
8.193256556480826
 20
-1.548446137380294
 30
0.0
 10
8.143334559778623
 20
-1.5240093490925226
 30
0.0
 10
8.097413877385245
 20
-1.5029447584240876
 30
0.0
 10
8.055629559553047
 20
-1.4850344910996656
 30
0.0
 10
8.018108191900236
 20
-1.4700561063073556
 30
0.0
 10
7.984967907904646
 20
-1.4577825232663213
 30
0.0
 10
7.956327960913476
 20
-1.447987395072314
 30
0.0
 10
7.932248273242866
 20
-1.4404217296688937
 30
0.0
 10
7.912889777593266
 20
-1.4348704088174338
 30
0.0
 10
7.898258680353348
 20
-1.431069480169287
 30
0.0
 10
7.888500292904161
 20
-1.4287947447348512
 30
0.0
 10
7.883617894316581
 20
-1.4277852728928808
 30
0.0
 10
7.841674063061722
 20
-1.4202068511939057
 30
0.0
 10
7.776837917885
 20
-1.4057077268751963
 30
0.0
 10
7.717700316047332
 20
-1.388980301869153
 30
0.0
 10
7.664328944218839
 20
-1.3703022093044321
 30
0.0
 10
7.616781125977934
 20
-1.349952992347818
 30
0.0
 10
7.575103770688899
 20
-1.3282137585295841
 30
0.0
 10
7.539333333215174
 20
-1.3053668327464956
 30
0.0
 10
7.509495858349986
 20
-1.2816952098678496
 30
0.0
 10
7.485606481058841
 20
-1.2574834836527362
 30
0.0
 10
7.467670716957389
 20
-1.2330141018011014
 30
0.0
 10
7.455682608357027
 20
-1.2085718136708916
 30
0.0
 10
7.449626225615744
 20
-1.1844395238604812
 30
0.0
 10
7.4494750601274795
 20
-1.160899542226362
 30
0.0
 10
7.468008484572733
 20
-1.0389289610152024
 30
0.0
 10
7.491758391404218
 20
-0.8509290901256434
 30
0.0
 10
7.5041400786535295
 20
-0.7281813637796619
 30
0.0
 10
7.510140650376174
 20
-0.7054185272823021
 30
0.0
 10
7.522008217148063
 20
-0.6835505588809769
 30
0.0
 10
7.539698247208851
 20
-0.6628574919394087
 30
0.0
 10
7.563155852740248
 20
-0.6436176029359062
 30
0.0
 10
7.592315852145988
 20
-0.6261070681880048
 30
0.0
 10
7.627102843033206
 20
-0.6105996226504047
 30
0.0
 10
7.667431285830965
 20
-0.5973662211069167
 30
0.0
 10
7.713205597969473
 20
-0.5866747020754901
 30
0.0
 10
7.764320258534821
 20
-0.5787894547424646
 30
0.0
 10
7.82065992330663
 20
-0.5739710892401491
 30
0.0
 10
7.88209955007344
 20
-0.5724761105787493
 30
0.0
 10
7.948504534114883
 20
-0.5745565965404654
 30
0.0
 10
7.991015299618804
 20
-0.5776472715569441
 30
0.0
 10
7.995986808341368
 20
-0.5778833115421231
 30
0.0
 10
8.006021911740673
 20
-0.5781072335910071
 30
0.0
 10
8.021119945358151
 20
-0.5780646182520441
 30
0.0
 10
8.041270655057687
 20
-0.577501152141786
 30
0.0
 10
8.066454203954981
 20
-0.5761629492214622
 30
0.0
 10
8.096641189437785
 20
-0.5737968717414836
 30
0.0
 10
8.131792670262346
 20
-0.5701508505497224
 30
0.0
 10
8.171860203699577
 20
-0.5649742044601851
 30
0.0
 10
8.216785892710924
 20
-0.5580179583787083
 30
0.0
 10
8.266502443102432
 20
-0.5490351598832841
 30
0.0
 10
8.320933230600081
 20
-0.537781193962582
 30
0.0
 10
8.379992377516805
 20
-0.5240140942860926
 30
0.0
 10
8.443584841043869
 20
-0.5074948599523611
 30
0.0
 10
8.511606506717515
 20
-0.4879877497026189
 30
0.0
 10
8.583944297568848
 20
-0.46526059951519344
 30
0.0
 10
8.66047628836893
 20
-0.43908511705275055
 30
0.0
 10
8.741071831061275
 20
-0.4092371804474835
 30
0.0
 10
8.825591689276965
 20
-0.37549713186209266
 30
0.0
 10
8.913888182071199
 20
-0.33765006687852983
 30
0.0
 10
9.005805336761187
 20
-0.2954861194349774
 30
0.0
 10
9.101179050732096
 20
-0.248800742036544
 30
0.0
 10
9.129267571275916
 20
-0.23416524686344808
 30
0.0
 10
9.143999999864695
 20
-7.72359112988303e-16
 30
0.0
 10
9.129267571275912
 20
0.2341652468634513
 30
0.0
 10
9.101179050732073
 20
0.24880074203655578
 30
0.0
 10
9.005805336761211
 20
0.2954861194349677
 30
0.0
 10
8.913888182071195
 20
0.33765006687853283
 30
0.0
 10
8.825591689276955
 20
0.3754971318620989
 30
0.0
 10
8.741071831072388
 20
0.40923718044304846
 30
0.0
 10
8.660476288370377
 20
0.43908511705188025
 30
0.0
 10
8.583944297570765
 20
0.4652605995156263
 30
0.0
 10
8.511606506716697
 20
0.4879877497027168
 30
0.0
 10
8.443584841049303
 20
0.5074948599507839
 30
0.0
 10
8.379992377823994
 20
0.5240140956051874
 30
0.0
 10
8.320933230600042
 20
0.5377811939626996
 30
0.0
 10
8.26650244310241
 20
0.5490351598833852
 30
0.0
 10
8.216785892712142
 20
0.5580179583779566
 30
0.0
 10
8.171860203700627
 20
0.5649742044327543
 30
0.0
 10
8.131792665985685
 20
0.5701508310356422
 30
0.0
 10
8.096641228970952
 20
0.5737971634084273
 30
0.0
 10
8.066465109254356
 20
0.5761620944525976
 30
0.0
 10
8.041260424775864
 20
0.5775016957553152
 30
0.0
 10
8.021129554508713
 20
0.5780643495552811
 30
0.0
 10
8.006012867576663
 20
0.5781072591188343
 30
0.0
 10
7.9959953541150925
 20
0.577883717283002
 30
0.0
 10
7.991015299618768
 20
0.577647271556929
 30
0.0
 10
7.9485045341148854
 20
0.5745565965404558
 30
0.0
 10
7.882099550073412
 20
0.5724761105784648
 30
0.0
 10
7.820659923306605
 20
0.5739710892401508
 30
0.0
 10
7.764320258534817
 20
0.5787894547424799
 30
0.0
 10
7.713205597969439
 20
0.5866747020755438
 30
0.0
 10
7.667431285830797
 20
0.5973662211035635
 30
0.0
 10
7.627102843032482
 20
0.6105996226414405
 30
0.0
 10
7.592315874084762
 20
0.6261072797007763
 30
0.0
 10
7.563155814050208
 20
0.6436173034716186
 30
0.0
 10
7.539698247147889
 20
0.6628574915457328
 30
0.0
 10
7.522008217146644
 20
0.6835505588729645
 30
0.0
 10
7.5101406503761075
 20
0.7054185272822471
 30
0.0
 10
7.504140078653179
 20
0.7281813637781125
 30
0.0
 10
7.491758391410066
 20
0.8509290901263822
 30
0.0
 10
7.468008484566885
 20
1.0389289610144634
 30
0.0
 10
7.449475060128204
 20
1.1608995422249482
 30
0.0
 10
7.449626225615822
 20
1.1844395238604442
 30
0.0
 10
7.455682608360393
 20
1.208571813663483
 30
0.0
 10
7.467670717114339
 20
1.233014101434954
 30
0.0
 10
7.485606593007102
 20
1.2574832032184915
 30
0.0
 10
7.50949578449937
 20
1.2816954092796071
 30
0.0
 10
7.539333333218104
 20
1.305366832737993
 30
0.0
 10
7.575103770689895
 20
1.328213758526378
 30
0.0
 10
7.616781125977954
 20
1.3499529923478786
 30
0.0
 10
7.6643289442188385
 20
1.3703022093044477
 30
0.0
 10
7.717700316047355
 20
1.3889803018691607
 30
0.0
 10
7.776837917885097
 20
1.4057077268749278
 30
0.0
 10
7.841674063061721
 20
1.4202068511938954
 30
0.0
 10
7.88361789431662
 20
1.427785272892875
 30
0.0
 10
7.888491914707979
 20
1.428793012481131
 30
0.0
 10
7.898267434029801
 20
1.4310717540872373
 30
0.0
 10
7.912880537154006
 20
1.4348677588637044
 30
0.0
 10
7.932258046930387
 20
1.4404248003714364
 30
0.0
 10
7.956317610796507
 20
1.4479838551199142
 30
0.0
 10
7.984967797078865
 20
1.4577827959385126
 30
0.0
 10
8.01810820089549
 20
1.4700560884699083
 30
0.0
 10
8.055629559558852
 20
1.4850344910728355
 30
0.0
 10
8.09741387738425
 20
1.5029447584230557
 30
0.0
 10
8.143334559778618
 20
1.5240093490926259
 30
0.0
 10
8.193256556480835
 20
1.5484461373804175
 30
0.0
 10
8.247036513229862
 20
1.5764681308874173
 30
0.0
 10
8.304522936054356
 20
1.6082831856768882
 30
0.0
 10
8.36555635497085
 20
1.644093744548213
 30
0.0
 10
8.429969508687007
 20
1.6840965565647674
 30
0.0
 10
8.497587528483548
 20
1.728482420268881
 30
0.0
 10
8.568228134010909
 20
1.7774359254773278
 30
0.0
 10
8.64170183658397
 20
1.8311352023956484
 30
0.0
 10
8.717812150370897
 20
1.8897516770669187
 30
0.0
 10
8.796355811290312
 20
1.953449833395824
 30
0.0
 10
8.877123003419367
 20
2.0223869819808002
 30
0.0
 10
8.900689371795929
 20
2.043548007164911
 30
0.0
 10
8.85672442522915
 20
2.274020328201783
 30
0.0
 10
8.784220314155123
 20
2.4971650372318424
 30
0.0
 10
8.753374546492143
 20
2.504355400406616
 30
0.0
 10
8.649386991888209
 20
2.5258555926597466
 30
0.0
 10
8.549871836304437
 20
2.543836015331921
 30
0.0
 10
8.454937157876936
 20
2.5585356003430912
 30
0.0
 10
8.364681837564481
 20
2.5701964092541787
 30
0.0
 10
8.279195472053937
 20
2.579063321627375
 30
0.0
 10
8.198558296697385
 20
2.58538372101972
 30
0.0
 10
8.122841118147285
 20
2.5894071789461246
 30
0.0
 10
8.05210525714342
 20
2.5913851370950916
 30
0.0
 10
7.986402501237752
 20
2.591570588080626
 30
0.0
 10
7.925775067588896
 20
2.5902177550681365
 30
0.0
 10
7.870255575856749
 20
2.587581770553748
 30
0.0
 10
7.819867031175292
 20
2.5839183546086195
 30
0.0
 10
7.774622817250178
 20
2.579483492870887
 30
0.0
 10
7.734526700225833
 20
2.574533094796593
 30
0.0
 10
7.699572804257535
 20
2.569323064027874
 30
0.0
 10
7.669756588397311
 20
2.5641092006070942
 30
0.0
 10
7.645010610133063
 20
2.55913856573255
 30
0.0
 10
7.62537226186341
 20
2.5546771988734744
 30
0.0
 10
7.610719822274455
 20
2.5509593931867456
 30
0.0
 10
7.601072620013128
 20
2.54825162003632
 30
0.0
 10
7.596307824747424
 20
2.5467841134967593
 30
0.0
 10
7.555901232734785
 20
2.53321854024283
 30
0.0
 10
7.492099879196333
 20
2.514689168584623
 30
0.0
 10
7.432218705209289
 20
2.500857765894491
 30
0.0
 10
7.376450775834609
 20
2.491513648709208
 30
0.0
 10
7.324980995054651
 20
2.4864394673288746
 30
0.0
 10
7.2779858944442175
 20
2.485411484105493
 30
0.0
 10
7.235633430699968
 20
2.488199858110487
 30
0.0
 10
7.1980827608662254
 20
2.4945691462243023
 30
0.0
 10
7.165484251903432
 20
2.504277248359988
 30
0.0
 10
7.137978807399615
 20
2.517079310879423
 30
0.0
 10
7.115698385641846
 20
2.5327229358797285
 30
0.0
 10
7.0987653177081045
 20
2.5509525380079663
 30
0.0
 10
7.087292377740423
 20
2.571507956632686
 30
0.0
 10
7.044773565755088
 20
2.687320137037045
 30
0.0
 10
6.975016139230245
 20
2.8635072846205905
 30
0.0
 10
6.926732126322222
 20
2.9770368605017046
 30
0.0
 10
6.921024387291278
 20
2.9998748836551816
 30
0.0
 10
6.920889041206872
 20
3.0247551743392562
 30
0.0
 10
6.926421971691784
 20
3.051410884107502
 30
0.0
 10
6.937709140900035
 20
3.0795717150149526
 30
0.0
 10
6.954826478719072
 20
3.108964250436198
 30
0.0
 10
6.977839782348496
 20
3.1393122892220733
 30
0.0
 10
7.0068046263534995
 20
3.1703371828829563
 30
0.0
 10
7.041766283279769
 20
3.2017581754822166
 30
0.0
 10
7.0827596549074725
 20
3.233292745921763
 30
0.0
 10
7.129809214214536
 20
3.2646569522998132
 30
0.0
 10
7.182928958106859
 20
3.2955657780176697
 30
0.0
 10
7.242122370966555
 20
3.3257334793123112
 30
0.0
 10
7.280863782796064
 20
3.343504817619917
 30
0.0
 10
7.285334062229637
 20
3.3456930167970707
 30
0.0
 10
7.294235765643141
 20
3.3503312403424306
 30
0.0
 10
7.307445743261546
 20
3.3576421176155673
 30
0.0
 10
7.3248324929100255
 20
3.3678435651654732
 30
0.0
 10
7.346256320862375
 20
3.3811485085319988
 30
0.0
 10
7.371569511372154
 20
3.397764609199601
 30
0.0
 10
7.400616504727168
 20
3.417893996962871
 30
0.0
 10
7.4332340836579345
 20
3.4417330079569353
 30
0.0
 10
7.469251567936444
 20
3.4694719286089293
 30
0.0
 10
7.508491016974374
 20
3.50129474575073
 30
0.0
 10
7.5507674402281
 20
3.5373789031252696
 30
0.0
 10
7.595889014338043
 20
3.5778950655530513
 30
0.0
 10
7.643657313093632
 20
3.6230068838982525
 30
0.0
 10
7.693867531077237
 20
3.672870782275251
 30
0.0
 10
7.7463087323152235
 20
3.727635732321884
 30
0.0
 10
7.800764092242724
 20
3.7874430502113516
 30
0.0
 10
7.857011151561843
 20
3.852426195252331
 30
0.0
 10
7.914822075542231
 20
3.922710577442679
 30
0.0
 10
7.973963919392465
 20
3.9984133731217475
 30
0.0
 10
8.034198899462364
 20
4.079643348908427
 30
0.0
 10
8.095284670027143
 20
4.166500694101256
 30
0.0
 10
8.112848124640307
 20
4.192857624259257
 30
0.0
 10
8.012948282202522
 20
4.405155595920902
 30
0.0
 10
7.8872281885934985
 20
4.603258764380377
 30
0.0
 10
7.855563326836442
 20
4.602552198594243
 30
0.0
 10
7.7494958520946735
 20
4.597516269550652
 30
0.0
 10
7.648635598833617
 20
4.5901833913675745
 30
0.0
 10
7.553027829763779
 20
4.580811867418805
 30
0.0
 10
7.462708121054516
 20
4.56966074515069
 30
0.0
 10
7.377702355477324
 20
4.556989492573621
 30
0.0
 10
7.298026725854274
 20
4.543057674955941
 30
0.0
 10
7.223687748404746
 20
4.528124631962899
 30
0.0
 10
7.154682286359584
 20
4.512449155627846
 30
0.0
 10
7.090997583564941
 20
4.496289169377048
 30
0.0
 10
7.032611308119446
 20
4.479901408468104
 30
0.0
 10
6.979491606004719
 20
4.463541102120153
 30
0.0
 10
6.931597164610514
 20
4.4474616576322585
 30
0.0
 10
6.888877286129294
 20
4.431914346775258
 30
0.0
 10
6.851271976291389
 20
4.41714797574108
 30
0.0
 10
6.818711903204652
 20
4.403408947225209
 30
0.0
 10
6.7911290536996685
 20
4.3909438955534545
 30
0.0
 10
6.768396662473351
 20
4.379975347771532
 30
0.0
 10
6.750484785847771
 20
4.3707702843409315
 30
0.0
 10
6.737217260269188
 20
4.36352536680835
 30
0.0
 10
6.728546538406111
 20
4.358503501688865
 30
0.0
 10
6.7242963919812615
 20
4.355897143168809
 30
0.0
 10
6.688532868241071
 20
4.3327090465356575
 30
0.0
 10
6.631344018893428
 20
4.298895057748782
 30
0.0
 10
6.5767838520753035
 20
4.270606351606193
 30
0.0
 10
6.525091762200441
 20
4.247686876981309
 30
0.0
 10
6.476500896824921
 20
4.229972096365238
 30
0.0
 10
6.431237882749939
 20
4.217289202857038
 30
0.0
 10
6.389522559118273
 20
4.209457345535493
 30
0.0
 10
6.351567635085864
 20
4.206288058906992
 30
0.0
 10
6.317578961401893
 20
4.207584243646435
 30
0.0
 10
6.287753907532702
 20
4.213143779940403
 30
0.0
 10
6.2622830548591075
 20
4.222755016121784
 30
0.0
 10
6.241348452695907
 20
4.236200819023473
 30
0.0
 10
6.225124031496161
 20
4.253257247227315
 30
0.0
 10
6.155139708098897
 20
4.354856976465552
 30
0.0
 10
6.043757877550817
 20
4.508160914290885
 30
0.0
 10
5.96875713828064
 20
4.606116004057444
 30
0.0
 10
5.9575491329660455
 20
4.6268170717417965
 30
0.0
 10
5.951230562344913
 20
4.650882043139917
 30
0.0
 10
5.94996066018973
 20
4.678076298627356
 30
0.0
 10
5.953889908360809
 20
4.708159410084513
 30
0.0
 10
5.9631598472182805
 20
4.740885433767188
 30
0.0
 10
5.9779028952543465
 20
4.776003208991358
 30
0.0
 10
5.998242178118484
 20
4.813256662354447
 30
0.0
 10
6.024291367198308
 20
4.8523851172081285
 30
0.0
 10
6.056154527910386
 20
4.893123608093898
 30
0.0
 10
6.093925977848557
 20
4.93520319984907
 30
0.0
 10
6.137690154925956
 20
4.978351311084453
 30
0.0
 10
6.187521495640606
 20
5.022292041733381
 30
0.0
 10
6.220626222658529
 20
5.049139658105337
 30
0.0
 10
6.224411877036967
 20
5.052370824269455
 30
0.0
 10
6.231880437778508
 20
5.05907709311052
 30
0.0
 10
6.242857258414449
 20
5.069443473573729
 30
0.0
 10
6.25716077451062
 20
5.083648332697949
 30
0.0
 10
6.274602728647627
 20
5.101863166158645
 30
0.0
 10
6.294988402529695
 20
5.124252375960562
 30
0.0
 10
6.31811685600323
 20
5.150973055491831
 30
0.0
 10
6.343781172758121
 20
5.182174782142525
 30
0.0
 10
6.37176871248948
 20
5.217999417695114
 30
0.0
 10
6.401861369275323
 20
5.258580916671992
 30
0.0
 10
6.433835835925714
 20
5.304045142817189
 30
0.0
 10
6.467463872949704
 20
5.354509694672393
 30
0.0
 10
6.50251258974606
 20
5.410083735117033
 30
0.0
 10
6.538744714140603
 20
5.470867840878089
 30
0.0
 10
6.575918889361389
 20
5.536953845731972
 30
0.0
 10
6.6137899588827995
 20
5.608424704067868
 30
0.0
 10
6.652109262394443
 20
5.685354358947169
 30
0.0
 10
6.690624934814766
 20
5.767807620188647
 30
0.0
 10
6.729082209170709
 20
5.855840051807589
 30
0.0
 10
6.7672237230645385
 20
5.949497868930416
 30
0.0
 10
6.804789828442708
 20
6.048817844293659
 30
0.0
 10
6.815246792845258
 20
6.0787145765697135
 30
0.0
 10
6.665689129042755
 20
6.259498736519307
 30
0.0
 10
6.494652508746352
 20
6.420112813761399
 30
0.0
 10
6.46415817261463
 20
6.411553715141268
 30
0.0
 10
6.3626753872619375
 20
6.380298090743615
 30
0.0
 10
6.266807456974052
 20
6.348112663409967
 30
0.0
 10
6.1765339850133145
 20
6.315258877817016
 30
0.0
 10
6.091825007378097
 20
6.281996490392764
 30
0.0
 10
6.012641066614811
 20
6.248583254266452
 30
0.0
 10
5.938933295560945
 20
6.2152746069773075
 30
0.0
 10
5.870643510564778
 20
6.182323361075964
 30
0.0
 10
5.807704314442954
 20
6.1499793980853905
 30
0.0
 10
5.750039208851877
 20
6.1184893659666715
 30
0.0
 10
5.697562716025683
 20
6.08809638044915
 30
0.0
 10
5.650180509772843
 20
6.059039730484477
 30
0.0
 10
5.607789555562123
 20
6.03155458808705
 30
0.0
 10
5.570278259602497
 20
6.005871722830936
 30
0.0
 10
5.537526636870799
 20
5.982217204235865
 30
0.0
 10
5.509406255805237
 20
5.960812451663108
 30
0.0
 10
5.485789904532517
 20
5.941879436780169
 30
0.0
 10
5.466499460088766
 20
5.925602170287505
 30
0.0
 10
5.451439524190917
 20
5.912231798274576
 30
0.0
 10
5.440390560049355
 20
5.901914993709657
 30
0.0
 10
5.43324113192787
 20
5.894894578875699
 30
0.0
 10
5.429772686674694
 20
5.891313135466478
 30
0.0
 10
5.400899384932588
 20
5.859959508845418
 30
0.0
 10
5.3539164255061396
 20
5.812985560204504
 30
0.0
 10
5.3081054817963755
 20
5.772017034054982
 30
0.0
 10
5.263737235538376
 20
5.73696231687311
 30
0.0
 10
5.22107842834354
 20
5.707720021837814
 30
0.0
 10
5.180391542444063
 20
5.684179130888335
 30
0.0
 10
5.141934486126986
 20
5.666219146639322
 30
0.0
 10
5.105960155361314
 20
5.653710423203195
 30
0.0
 10
5.072716950325326
 20
5.646513246492182
 30
0.0
 10
5.042446304914238
 20
5.644480930448787
 30
0.0
 10
5.015385448673543
 20
5.647455868494315
 30
0.0
 10
4.991764710326878
 20
5.6552730229229375
 30
0.0
 10
4.971808247948299
 20
5.667758742592698
 30
0.0
 10
4.8787557855624915
 20
5.748762136019108
 30
0.0
 10
4.732748081038228
 20
5.86955021386022
 30
0.0
 10
4.635743187687666
 20
5.945775938968572
 30
0.0
 10
4.6197391562834955
 20
5.96303932696799
 30
0.0
 10
4.607634380155841
 20
5.984776888422439
 30
0.0
 10
4.599641437983347
 20
6.0108009745433195
 30
0.0
 10
4.5959658760039
 20
6.040916134019386
 30
0.0
 10
4.596805951548941
 20
6.074919349537611
 30
0.0
 10
4.602352384062405
 20
6.1126002822285965
 30
0.0
 10
4.612788113840674
 20
6.1537415238104725
 30
0.0
 10
4.628288068721949
 20
6.198118856195727
 30
0.0
 10
4.649018938946355
 20
6.245501518319679
 30
0.0
 10
4.675138960402344
 20
6.295652479944083
 30
0.0
 10
4.706797706465661
 20
6.348328722180422
 30
0.0
 10
4.74413588863131
 20
6.403281524474262
 30
0.0
 10
4.7695238390884445
 20
6.437518484435289
 30
0.0
 10
4.7723870018244865
 20
6.441589591532881
 30
0.0
 10
4.777953142755227
 20
6.449942526134435
 30
0.0
 10
4.786007092398226
 20
6.4627130519783345
 30
0.0
 10
4.7963286324211145
 20
6.480028779136275
 30
0.0
 10
4.8086927706173315
 20
6.502008997715335
 30
0.0
 10
4.822870021008412
 20
6.528764520257959
 30
0.0
 10
4.838626688808226
 20
6.560397532990491
 30
0.0
 10
4.855725159978775
 20
6.597001456060428
 30
0.0
 10
4.873924195110692
 20
6.63866081290805
 30
0.0
 10
4.892979227345542
 20
6.685451108890974
 30
0.0
 10
4.912642664059093
 20
6.737438719272398
 30
0.0
 10
4.932664190755645
 20
6.794680787166325
 30
0.0
 10
4.95279108581629
 20
6.857225128362243
 30
0.0
 10
4.972768518993627
 20
6.925110152594085
 30
0.0
 10
4.9923398780510375
 20
6.9983647855229245
 30
0.0
 10
5.011247078588278
 20
7.077008407424576
 30
0.0
 10
5.029230883524269
 20
7.16105079899865
 30
0.0
 10
5.046031223035621
 20
7.250492097645574
 30
0.0
 10
5.06138751591353
 20
7.345322763765138
 30
0.0
 10
5.075038992038664
 20
7.445523557124924
 30
0.0
 10
5.086725015670842
 20
7.551065523333191
 30
0.0
 10
5.089418440331344
 20
7.582623536085906
 30
0.0
 10
4.899600213215446
 20
7.7205345506761835
 30
0.0
 10
4.693993926113575
 20
7.833567563530518
 30
0.0
 10
4.666586186896667
 20
7.817693731720854
 30
0.0
 10
4.576064627564336
 20
7.762182317800191
 30
0.0
 10
4.4912127548871945
 20
7.707166670085068
 30
0.0
 10
4.411945794281456
 20
7.6528949470245085
 30
0.0
 10
4.338170124322934
 20
7.599611292576489
 30
0.0
 10
4.269783426589872
 20
7.5475555494120385
 30
0.0
 10
4.206674844438726
 20
7.496962977261241
 30
0.0
 10
4.14872515023949
 20
7.4480639764177825
 30
0.0
 10
4.095806921207507
 20
7.401083816919162
 30
0.0
 10
4.047784723481709
 20
7.356242373462777
 30
0.0
 10
4.0045153043141255
 20
7.313753866394324
 30
0.0
 10
3.9658477922016044
 20
7.273826608993093
 30
0.0
 10
3.9316239047304515
 20
7.23666276126625
 30
0.0
 10
3.901678163974459
 20
7.202458090490035
 30
0.0
 10
3.875838133257247
 20
7.171401724732633
 30
0.0
 10
3.853924351174732
 20
7.143676187428308
 30
0.0
 10
3.8357584003396057
 20
7.1194648402900365
 30
0.0
 10
3.821121992248115
 20
7.098901615603963
 30
0.0
 10
3.809860268237029
 20
7.082206044655068
 30
0.0
 10
3.801724112584749
 20
7.06946559583118
 30
0.0
 10
3.7965452030674873
 20
7.060887749766046
 30
0.0
 10
3.7940763941572904
 20
7.056556256728689
 30
0.0
 10
3.773907530150301
 20
7.019007163790895
 30
0.0
 10
3.7400825727770504
 20
6.96182480124715
 30
0.0
 10
3.705899322249796
 20
6.910750658260368
 30
0.0
 10
3.6716427396960456
 20
6.865763315324275
 30
0.0
 10
3.637596400426063
 20
6.826830906812462
 30
0.0
 10
3.6040421493790533
 20
6.793911179177401
 30
0.0
 10
3.5712597586601276
 20
6.766951559863484
 30
0.0
 10
3.5395264206675314
 20
6.745889368717091
 30
0.0
 10
3.509117477111895
 20
6.730651055637738
 30
0.0
 10
3.4803032561377343
 20
6.721154585148324
 30
0.0
 10
3.4533527294504105
 20
6.7173062987595396
 30
0.0
 10
3.4285300327816013
 20
6.7190036241528635
 30
0.0
 10
3.4060954671501666
 20
6.726134111602427
 30
0.0
 10
3.295821694210534
 20
6.7814514280983875
 30
0.0
 10
3.1243623167641217
 20
6.862134086797044
 30
0.0
 10
3.0114484435414344
 20
6.911840904600023
 30
0.0
 10
2.991653978199522
 20
6.924581890756204
 30
0.0
 10
2.9745235841676982
 20
6.94262619133564
 30
0.0
 10
2.9603098279305757
 20
6.965844919049093
 30
0.0
 10
2.9492604048775446
 20
6.994099880318379
 30
0.0
 10
2.941617832074077
 20
7.027243740586066
 30
0.0
 10
2.937619146311767
 20
7.065120199162116
 30
0.0
 10
2.9374956077222683
 20
7.107564173447287
 30
0.0
 10
2.941472409234959
 20
7.1544019923619375
 30
0.0
 10
2.9497683921526847
 20
7.205451598801581
 30
0.0
 10
2.9625957681156927
 20
7.260522760934021
 30
0.0
 10
2.9801598477170446
 20
7.319417292141938
 30
0.0
 10
3.002658776027998
 20
7.381929279410298
 30
0.0
 10
3.018734731626771
 20
7.421404348851317
 30
0.0
 10
3.020495499675737
 20
7.426059594250957
 30
0.0
 10
3.0238094796901653
 20
7.435534349012041
 30
0.0
 10
3.0284344990637955
 20
7.449906601131148
 30
0.0
 10
3.0341255226937958
 20
7.469245185502687
 30
0.0
 10
3.040634960674233
 20
7.4936096912291985
 30
0.0
 10
3.0477129787919766
 20
7.523050378631248
 30
0.0
 10
3.055107811531236
 20
7.557608106036976
 30
0.0
 10
3.0625660772900187
 20
7.597314266419859
 30
0.0
 10
3.0698330955137876
 20
7.642190733959381
 30
0.0
 10
3.0766532054428226
 20
7.6922498205690735
 30
0.0
 10
3.08277008617376
 20
7.747494242429403
 30
0.0
 10
3.0879270763865043
 20
7.807917096714675
 30
0.0
 10
3.0918675028732343
 20
7.873501847682537
 30
0.0
 10
3.0943349892349765
 20
7.944222324649023
 30
0.0
 10
3.09507379166101
 20
8.020042727654205
 30
0.0
 10
3.093829114268506
 20
8.100917645126522
 30
0.0
 10
3.0903474320249082
 20
8.186792080846475
 30
0.0
 10
3.0843768115084664
 20
8.277601491162773
 30
0.0
 10
3.0756672305503265
 20
8.37327183226787
 30
0.0
 10
3.063970896455207
 20
8.473719617505083
 30
0.0
 10
3.0490425624983946
 20
8.578851984665311
 30
0.0
 10
3.043803209639705
 20
8.61008837189118
 30
0.0
 10
2.825651396522708
 20
8.696460784874201
 30
0.0
 10
2.5983944418010094
 20
8.754810453436797
 30
0.0
 10
2.575795428552526
 20
8.732619299670073
 30
0.0
 10
2.5019228977284165
 20
8.656340082519732
 30
0.0
 10
2.4334186378856812
 20
8.581951049902475
 30
0.0
 10
2.370138823293289
 20
8.509671481331639
 30
0.0
 10
2.31193205768289
 20
8.439714567832393
 30
0.0
 10
2.2586395907073036
 20
8.372287171420457
 30
0.0
 10
2.2100955417725605
 20
8.307589591782707
 30
0.0
 10
2.1661271307808625
 20
8.245815340058073
 30
0.0
 10
2.126554915788434
 20
8.187150920253645
 30
0.0
 10
2.091193037224314
 20
8.13177561826725
 30
0.0
 10
2.0598494684554325
 20
8.079861298808778
 30
0.0
 10
2.0323262724784215
 20
8.031572210395689
 30
0.0
 10
2.008419864463302
 20
7.987064798571174
 30
0.0
 10
1.9879212799353716
 20
7.946487527535708
 30
0.0
 10
1.9706164653955922
 20
7.909980700293838
 30
0.0
 10
1.9562862058176238
 20
7.877676475734169
 30
0.0
 10
1.944712088920756
 20
7.849708084324369
 30
0.0
 10
1.935649376530856
 20
7.826150964478162
 30
0.0
 10
1.9288934799438735
 20
7.807179238718035
 30
0.0
 10
1.924181357363196
 20
7.792815674890876
 30
0.0
 10
1.9212983763818234
 20
7.783219375209947
 30
0.0
 10
1.919984328158078
 20
7.77840999618211
 30
0.0
 10
1.9097871857876574
 20
7.737024784532767
 30
0.0
 10
1.8912455769388568
 20
7.673226986226833
 30
0.0
 10
1.8708378789419413
 20
7.615256402644209
 30
0.0
 10
1.8488454271611894
 20
7.563163154162446
 30
0.0
 10
1.8255508125260707
 20
7.516986898584293
 30
0.0
 10
1.8012375333287154
 20
7.476756801821251
 30
0.0
 10
1.77618964638201
 20
7.442491519474468
 30
0.0
 10
1.7506912234956191
 20
7.4141992755488575
 30
0.0
 10
1.7250272471802057
 20
7.3918773053545355
 30
0.0
 10
1.699479954118071
 20
7.375513378585526
 30
0.0
 10
1.674333157692986
 20
7.3650836697492466
 30
0.0
 10
1.6498682040252257
 20
7.360554516910482
 30
0.0
 10
1.626365181408121
 20
7.361881737389295
 30
0.0
 10
1.5057990046270273
 20
7.388037186516505
 30
0.0
 10
1.3196613775269053
 20
7.423544837896608
 30
0.0
 10
1.1979333183548502
 20
7.4436094862227655
 30
0.0
 10
1.1755921781315803
 20
7.451027507517446
 30
0.0
 10
1.1545125318537885
 20
7.464244757454167
 30
0.0
 10
1.134971064130954
 20
7.483199208705449
 30
0.0
 10
1.1172420558916956
 20
7.507818608636927
 30
0.0
 10
1.1015970456963786
 20
7.538020563018865
 30
0.0
 10
1.088304493790878
 20
7.573712630287778
 30
0.0
 10
1.0776294492175327
 20
7.614792426273888
 30
0.0
 10
1.0698332202969432
 20
7.6611477392980785
 30
0.0
 10
1.0651730487907787
 20
7.7126566555334914
 30
0.0
 10
1.0639017880532604
 20
7.769187694519618
 30
0.0
 10
1.0662675854751287
 20
7.830599954704386
 30
0.0
 10
1.072513569520339
 20
7.896743268884189
 30
0.0
 10
1.07826741884725
 20
7.938976084013069
 30
0.0
 10
1.078815156676971
 20
7.9439229615255025
 30
0.0
 10
1.0796687462228145
 20
7.953924202758766
 30
0.0
 10
1.080574228350201
 20
7.968995119694992
 30
0.0
 10
1.0812771476425178
 20
7.989141446901727
 30
0.0
 10
1.081522873478827
 20
8.01435932827451
 30
0.0
 10
1.081056921413765
 20
8.044635313871238
 30
0.0
 10
1.0796252745551704
 20
8.07994636684283
 30
0.0
 10
1.0769747046349805
 20
8.120259880452762
 30
0.0
 10
1.0728530924693769
 20
8.165533705184572
 30
0.0
 10
1.0670097475031466
 20
8.215716185904903
 30
0.0
 10
1.059195726138832
 20
8.270746209043883
 30
0.0
 10
1.0491641472066184
 20
8.330553259566043
 30
0.0
 10
1.0366705136313978
 20
8.395057489198695
 30
0.0
 10
1.0214730119346553
 20
8.464169791240302
 30
0.0
 10
1.0033328360557592
 20
8.537791889553077
 30
0.0
 10
0.9820144883916854
 20
8.61581643409413
 30
0.0
 10
0.9572860858685955
 20
8.698127107339598
 30
0.0
 10
0.9289196613698141
 20
8.784598740101446
 30
0.0
 10
0.896691461578823
 20
8.875097436809542
 30
0.0
 10
0.8603822409507532
 20
8.969480710156612
 30
0.0
 10
0.8197775515300292
 20
9.067597624990322
 30
0.0
 10
0.8069346289612527
 20
9.096549689600549
 30
0.0
 10
0.5741565105675491
 20
9.125956404613078
 30
0.0
 10
0.3395282784838013
 20
9.125956404613078
 30
0.0
 10
0.32315797031950233
 20
9.098842280693807
 30
0.0
 10
0.2705761507994554
 20
9.006588164062684
 30
0.0
 10
0.22272387837809016
 20
8.917499883046357
 30
0.0
 10
0.1794073132767632
 20
8.831754060084208
 30
0.0
 10
0.14042679716729803
 20
8.749519537692427
 30
0.0
 10
0.10557712264524524
 20
8.670957199330186
 30
0.0
 10
0.07464780805400087
 20
8.596219799075175
 30
0.0
 10
0.04742337723695115
 20
8.52545179989503
 30
0.0
 10
0.023683644088478378
 20
8.458789221033749
 30
0.0
 10
0.003204001568111999
 20
8.396359494397267
 30
0.0
 10
-0.014244285102735853
 20
8.338281330167861
 30
0.0
 10
-0.02889378131776705
 20
8.284664591762752
 30
0.0
 10
-0.040980582339644585
 20
8.235610180212314
 30
0.0
 10
-0.05074400918510197
 20
8.191209928089517
 30
0.0
 10
-0.05842628240725861
 20
8.151546497581505
 30
0.0
 10
-0.06427259656838863
 20
8.116693379002202
 30
0.0
 10
-0.06852763519574406
 20
8.0867253002137
 30
0.0
 10
-0.07144720833427037
 20
8.061654465684324
 30
0.0
 10
-0.07327277966813987
 20
8.0415986484156
 30
0.0
 10
-0.07426478918549644
 20
8.026514485125922
 30
0.0
 10
-0.07467069333305813
 20
8.016502702630875
 30
0.0
 10
-0.07474741438772296
 20
8.011517628584533
 30
0.0
 10
-0.07433211116397458
 20
7.968896683275732
 30
0.0
 10
-0.07642533401308786
 20
7.902492099507061
 30
0.0
 10
-0.0817751887602554
 20
7.841267580295984
 30
0.0
 10
-0.09012164314004448
 20
7.7853416366562245
 30
0.0
 10
-0.10120084683117472
 20
7.734822957974098
 30
0.0
 10
-0.11474546142891986
 20
7.689810297018641
 30
0.0
 10
-0.13048499374685932
 20
7.650392365347736
 30
0.0
 10
-0.14814634184045342
 20
7.616647774380346
 30
0.0
 10
-0.1674527888982438
 20
7.588644718552829
 30
0.0
 10
-0.1881279236688869
 20
7.566441541205435
 30
0.0
 10
-0.20989092412889712
 20
7.550085746885628
 30
0.0
 10
-0.23246091178085718
 20
7.5396146991446935
 30
0.0
 10
-0.25555561003452887
 20
7.535055258508897
 30
0.0
 10
-0.37883857435854584
 20
7.530405397205681
 30
0.0
 10
-0.5679587394353713
 20
7.51850696494301
 30
0.0
 10
-0.6908523629145282
 20
7.5076687081454
 30
0.0
 10
-0.7143364020139615
 20
7.509297663019062
 30
0.0
 10
-0.7380407888365714
 20
7.516857373889899
 30
0.0
 10
-0.7616821057596007
 20
7.530356570797299
 30
0.0
 10
-0.784976720394683
 20
7.549793481949452
 30
0.0
 10
-0.8076411344529545
 20
7.575155830576805
 30
0.0
 10
-0.8293923325788372
 20
7.606420842685833
 30
0.0
 10
-0.8499481308254179
 20
7.6435552657101535
 30
0.0
 10
-0.8690275244436825
 20
7.6865153980436585
 30
0.0
 10
-0.8863510346590937
 20
7.735247129431229
 30
0.0
 10
-0.9016410541096298
 20
7.7896859921849275
 30
0.0
 10
-0.9146221906200555
 20
7.849757223180643
 30
0.0
 10
-0.9250216089892712
 20
7.915375836583877
 30
0.0
 10
-0.9299514014486089
 20
7.957712754304641
 30
0.0
 10
-0.9306511102204137
 20
7.96264043342242
 30
0.0
 10
-0.9323115453136033
 20
7.972539746359185
 30
0.0
 10
-0.9351824952046548
 20
7.987362366974472
 30
0.0
 10
-0.9395118472543134
 20
8.007050569184996
 30
0.0
 10
-0.945545273420144
 20
8.031537293972518
 30
0.0
 10
-0.9535259181861112
 20
8.060746226241598
 30
0.0
 10
-0.9636940890052059
 20
8.094591881455878
 30
0.0
 10
-0.9762869495481686
 20
8.132979701970012
 30
0.0
 10
-0.9915382160525504
 20
8.175806162980733
 30
0.0
 10
-1.0096778570594986
 20
8.222958887989789
 30
0.0
 10
-1.0309317968187854
 20
8.274316773667328
 30
0.0
 10
-1.0555216238980791
 20
8.329750123487125
 30
0.0
 10
-1.0836642965893488
 20
8.389120793806786
 30
0.0
 10
-1.1155718714204683
 20
8.45228234080897
 30
0.0
 10
-1.1514512116389222
 20
8.519080187229209
 30
0.0
 10
-1.191503719387434
 20
8.589351789751285
 30
0.0
 10
-1.2359250657147876
 20
8.66292681820477
 30
0.0
 10
-1.2849049274202389
 20
8.739627342705322
 30
0.0
 10
-1.3386267297241852
 20
8.819268029071324
 30
0.0
 10
-1.3972673950171703
 20
8.90165634234646
 30
0.0
 10
-1.4609970979319007
 20
8.986592758245878
 30
0.0
 10
-1.4806366221528031
 20
9.011441335542756
 30
0.0
 10
-1.7134147405465123
 20
8.982034620530222
 30
0.0
 10
-1.9406716952682106
 20
8.923684951967624
 30
0.0
 10
-1.9497846916805803
 20
8.89335153802043
 30
0.0
 10
-1.9777718907937147
 20
8.790919187343365
 30
0.0
 10
-2.001965441529128
 20
8.692729402268006
 30
0.0
 10
-2.022597018046891
 20
8.598905050322331
 30
0.0
 10
-2.0399019954679543
 20
8.509560016517307
 30
0.0
 10
-2.0541191443181153
 20
8.424799096856129
 30
0.0
 10
-2.0654903219800316
 20
8.344717901706812
 30
0.0
 10
-2.074260161509744
 20
8.269402768726138
 30
0.0
 10
-2.080675758071912
 20
8.198930685805676
 30
0.0
 10
-2.084986353290113
 20
8.133369223844149
 30
0.0
 10
-2.0874430178410885
 20
8.07277647949889
 30
0.0
 10
-2.0882983325698707
 20
8.017201027964324
 30
0.0
 10
-2.0878060684381574
 20
7.966681885775181
 30
0.0
 10
-2.08622086558507
 20
7.921248483698636
 30
0.0
 10
-2.0837978920096307
 20
7.880920649135191
 30
0.0
 10
-2.080792915333939
 20
7.8457085861573965
 30
0.0
 10
-2.077461515965888
 20
7.81562382459536
 30
0.0
 10
-2.0740545023353083
 20
7.790614568120374
 30
0.0
 10
-2.070835041055176
 20
7.770734840102185
 30
0.0
 10
-2.0680446059028803
 20
7.755877870805149
 30
0.0
 10
-2.0659479287662283
 20
7.746079682610907
 30
0.0
 10
-2.0647825019857873
 20
7.741232144082214
 30
0.0
 10
-2.0537808481967974
 20
7.700053495856578
 30
0.0
 10
-2.039294160156278
 20
7.635214570842329
 30
0.0
 10
-2.029250020604543
 20
7.574583077712863
 30
0.0
 10
-2.023426039158575
 20
7.518338471635226
 30
0.0
 10
-2.0215936847913425
 20
7.466651644225427
 30
0.0
 10
-2.023518576840693
 20
7.419684730110375
 30
0.0
 10
-2.02896078182838
 20
7.377590922731241
 30
0.0
 10
-2.0376753276745623
 20
7.340514281476479
 30
0.0
 10
-2.049411150401943
 20
7.308589675001445
 30
0.0
 10
-2.0639150321256285
 20
7.281942354365978
 30
0.0
 10
-2.0809267872629444
 20
7.260688169272161
 30
0.0
 10
-2.100183653568324
 20
7.24493316106844
 30
0.0
 10
-2.1214189026309254
 20
7.2347735457416285
 30
0.0
 10
-2.2396723324463608
 20
7.1996105418946605
 30
0.0
 10
-2.4198919199927995
 20
7.141053648247655
 30
0.0
 10
-2.536229249444731
 20
7.09999349386119
 30
0.0
 10
-2.5593805988754563
 20
7.095731029088244
 30
0.0
 10
-2.5842202924401834
 20
7.097158196456512
 30
0.0
 10
-2.6104759876744517
 20
7.104353934831761
 30
0.0
 10
-2.637872522396236
 20
7.117387064592943
 30
0.0
 10
-2.6661322518282966
 20
7.136316197825262
 30
0.0
 10
-2.694975388401001
 20
7.161189659078922
 30
0.0
 10
-2.7241203439180466
 20
7.192045416771981
 30
0.0
 10
-2.7532840737638495
 20
7.228911025303972
 30
0.0
 10
-2.78218242283026
 20
7.271803577937846
 30
0.0
 10
-2.810530472838978
 20
7.320729670500168
 30
0.0
 10
-2.838042890733467
 20
7.375685375936838
 30
0.0
 10
-2.864434277814586
 20
7.436656229754999
 30
0.0
 10
-2.879737955069444
 20
7.476437065822961
 30
0.0
 10
-2.881641145167293
 20
7.481035922344378
 30
0.0
 10
-2.8857112736559576
 20
7.490211296745703
 30
0.0
 10
-2.8921782632251767
 20
7.503854261273005
 30
0.0
 10
-2.9012678575052875
 20
7.521847256334287
 30
0.0
 10
-2.9132013333178697
 20
7.544064233562274
 30
0.0
 10
-2.9281952175233386
 20
7.570370807866301
 30
0.0
 10
-2.946461008734454
 20
7.600624418330544
 30
0.0
 10
-2.968204904158973
 20
7.6346744978054515
 30
0.0
 10
-2.993627531837428
 20
7.67236265104507
 30
0.0
 10
-3.022923688527695
 20
7.713522841214944
 30
0.0
 10
-3.056282083480355
 20
7.757981584592832
 30
0.0
 10
-3.0938850894362786
 20
7.805558152471487
 30
0.0
 10
-3.1359084936168955
 20
7.8560647859119195
 30
0.0
 10
-3.1825212713079005
 20
7.909306905584617
 30
0.0
 10
-3.2338853449650045
 20
7.965083345756438
 30
0.0
 10
-3.2901553664332956
 20
8.023186583032198
 30
0.0
 10
-3.3514785000048812
 20
8.083402977065942
 30
0.0
 10
-3.4179942140707182
 20
8.145513017266033
 30
0.0
 10
-3.4898340804738943
 20
8.209291576067608
 30
0.0
 10
-3.5671215817661563
 20
8.27450816854471
 30
0.0
 10
-3.6499719265593082
 20
8.340927218124591
 30
0.0
 10
-3.67517402889642
 20
8.360110980609882
 30
0.0
 10
-3.893325842013414
 20
8.273738567626857
 30
0.0
 10
-4.098932129115284
 20
8.16070555477252
 30
0.0
 10
-4.100215210695879
 20
8.129058810754199
 30
0.0
 10
-4.101849250752104
 20
8.022884427344064
 30
0.0
 10
-4.1008639100312045
 20
7.921762763522724
 30
0.0
 10
-4.097514140135162
 20
7.8257552116881035
 30
0.0
 10
-4.092056243493202
 20
7.734913543531852
 30
0.0
 10
-4.0847475509222
 20
7.649279882882906
 30
0.0
 10
-4.075846098742024
 20
7.568886688848549
 30
0.0
 10
-4.065610305713534
 20
7.493756748862207
 30
0.0
 10
-4.054298650162482
 20
7.423903182030646
 30
0.0
 10
-4.0421693475276985
 20
7.359329452517307
 30
0.0
 10
-4.029480028690084
 20
7.300029393027933
 30
0.0
 10
-4.01648741936258
 20
7.24598723837604
 30
0.0
 10
-4.003447020843091
 20
7.1971776690483455
 30
0.0
 10
-3.990612792416687
 20
7.153565864762885
 30
0.0
 10
-3.9782368163844706
 20
7.11510757230503
 30
0.0
 10
-3.966569362608022
 20
7.081749068346549
 30
0.0
 10
-3.955860849318889
 20
7.053437960223932
 30
0.0
 10
-3.9463413241157324
 20
7.03006170536527
 30
0.0
 10
-3.9382791208141783
 20
7.011607183021524
 30
0.0
 10
-3.931881574295352
 20
6.997910925738175
 30
0.0
 10
-3.927414057810022
 20
6.988941988044199
 30
0.0
 10
-3.925079711245231
 20
6.984536573706911
 30
0.0
 10
-3.904182981259812
 20
6.94738762847693
 30
0.0
 10
-3.8740266342175596
 20
6.888188430336638
 30
0.0
 10
-3.8492196105947185
 20
6.831959662989139
 30
0.0
 10
-3.829591135496349
 20
6.7789304499266745
 30
0.0
 10
-3.8149623566345747
 20
6.729323147246214
 30
0.0
 10
-3.805146578088813
 20
6.683353083917643
 30
0.0
 10
-3.7999495019918403
 20
6.641228309558105
 30
0.0
 10
-3.7991696786252374
 20
6.603149279744356
 30
0.0
 10
-3.8025974721189106
 20
6.569309063057122
 30
0.0
 10
-3.8100187685653935
 20
6.539891948291096
 30
0.0
 10
-3.821210367239879
 20
6.515074851040138
 30
0.0
 10
-3.8359441324669095
 20
6.495025827481937
 30
0.0
 10
-3.853985643542055
 20
6.479904403459548
 30
0.0
 10
-3.959779240947913
 20
6.4164376779210155
 30
0.0
 10
-4.119774391477141
 20
6.314901667874706
 30
0.0
 10
-4.222245524633615
 20
6.246199576408172
 30
0.0
 10
-4.243609499966192
 20
6.2363135183265515
 30
0.0
 10
-4.268023730972362
 20
6.231518468017747
 30
0.0
 10
-4.295244062624608
 20
6.231958613154654
 30
0.0
 10
-4.325021092399117
 20
6.237769042049472
 30
0.0
 10
-4.357100474472737
 20
6.249075572829288
 30
0.0
 10
-4.391223229143764
 20
6.2659945921788225
 30
0.0
 10
-4.42712605718849
 20
6.288632903805225
 30
0.0
 10
-4.4645416588589235
 20
6.3170875867694125
 30
0.0
 10
-4.503199057223796
 20
6.35144586381983
 30
0.0
 10
-4.542823925551814
 20
6.391784979857504
 30
0.0
 10
-4.5831389184304605
 20
6.438172090649595
 30
0.0
 10
-4.623864006312443
 20
6.490664161902174
 30
0.0
 10
-4.648579982037911
 20
6.525389340083502
 30
0.0
 10
-4.651567069028513
 20
6.529370410939906
 30
0.0
 10
-4.657791149770824
 20
6.537245324287487
 30
0.0
 10
-4.667447834279654
 20
6.548851395090242
 30
0.0
 10
-4.680726538152409
 20
6.564018616948976
 30
0.0
 10
-4.6978102394381835
 20
6.5825698722298664
 30
0.0
 10
-4.7188752421948745
 20
6.604321149756505
 30
0.0
 10
-4.744090946959335
 20
6.629081769860248
 30
0.0
 10
-4.7736196283474355
 20
6.656654616575086
 30
0.0
 10
-4.807616220005042
 20
6.686836376768227
 30
0.0
 10
-4.84622810711005
 20
6.719417785973952
 30
0.0
 10
-4.889594926617613
 20
6.754183880697936
 30
0.0
 10
-4.937848376291774
 20
6.790914255901257
 30
0.0
 10
-4.9911120269258
 20
6.829383334932995
 30
0.0
 10
-5.0495011552245606
 20
6.869360629086348
 30
0.0
 10
-5.113122568668589
 20
6.91061102414236
 30
0.0
 10
-5.182074451461145
 20
6.95289505608501
 30
0.0
 10
-5.256446214263951
 20
6.995969198201468
 30
0.0
 10
-5.336318353747733
 20
7.0395861518505765
 30
0.0
 10
-5.421762321235479
 20
7.08349514167709
 30
0.0
 10
-5.512840400577279
 20
7.127442215000972
 30
0.0
 10
-5.609605595383244
 20
7.171170545104035
 30
0.0
 10
-5.638786735059876
 20
7.183484106427846
 30
0.0
 10
-5.8286049621757705
 20
7.045573091837565
 30
0.0
 10
-5.999641582472172
 20
6.88495901459547
 30
0.0
 10
-5.993014128486439
 20
6.853987421821275
 30
0.0
 10
-5.9681923367394445
 20
6.750742332669796
 30
0.0
 10
-5.9420900171435544
 20
6.653042636139836
 30
0.0
 10
-5.914969379195866
 20
6.560884391989113
 30
0.0
 10
-5.887091548209638
 20
6.47425400558418
 30
0.0
 10
-5.8587162462512
 20
6.3931282817846125
 30
0.0
 10
-5.830101475206663
 20
6.317474488911879
 30
0.0
 10
-5.801503202140565
 20
6.247250432357801
 30
0.0
 10
-5.773175047395925
 20
6.182404538122616
 30
0.0
 10
-5.745367975601154
 20
6.122875945968355
 30
0.0
 10
-5.718329989945566
 20
6.068594612162945
 30
0.0
 10
-5.6923058299893
 20
6.019481421723647
 30
0.0
 10
-5.667536673280247
 20
5.975448310007298
 30
0.0
 10
-5.644259841053546
 20
5.936398393569174
 30
0.0
 10
-5.622708490654312
 20
5.902226119171742
 30
0.0
 10
-5.603111668807775
 20
5.872817211720282
 30
0.0
 10
-5.585698896870673
 20
5.8480586480814
 30
0.0
 10
-5.570665006873818
 20
5.827784210903685
 30
0.0
 10
-5.55826663943499
 20
5.811914459744223
 30
0.0
 10
-5.548663962925941
 20
5.800239500690984
 30
0.0
 10
-5.542106317583081
 20
5.792663364838031
 30
0.0
 10
-5.538749726813731
 20
5.788976883076941
 30
0.0
 10
-5.509270939029667
 20
5.758191845695681
 30
0.0
 10
-5.465339767177629
 20
5.708352077767918
 30
0.0
 10
-5.427328576011758
 20
5.660059096449771
 30
0.0
 10
-5.3951289365398996
 20
5.613577296886998
 30
0.0
 10
-5.368622913160354
 20
5.569166528206187
 30
0.0
 10
-5.347683225485417
 20
5.527081783809097
 30
0.0
 10
-5.332173419708467
 20
5.487572896966249
 30
0.0
 10
-5.321948226299192
 20
5.450884124081585
 30
0.0
 10
-5.316852609687408
 20
5.4172546024522195
 30
0.0
 10
-5.3167250135073365
 20
5.3869160790649655
 30
0.0
 10
-5.321393246414453
 20
5.3600954191480445
 30
0.0
 10
-5.330678133906923
 20
5.337012134120676
 30
0.0
 10
-5.344392292501725
 20
5.317879036086742
 30
0.0
 10
-5.43107865669136
 20
5.230096436636521
 30
0.0
 10
-5.560796286474625
 20
5.091961191125439
 30
0.0
 10
-5.642962585176953
 20
4.9999339676542975
 30
0.0
 10
-5.661196809270032
 20
4.985045493651649
 30
0.0
 10
-5.683651541794266
 20
4.974329516311634
 30
0.0
 10
-5.7101261563174015
 20
4.967986412272509
 30
0.0
 10
-5.740412680851649
 20
4.966209049684238
 30
0.0
 10
-5.774296050011427
 20
4.969182547100144
 30
0.0
 10
-5.811554364610083
 20
4.977084040336021
 30
0.0
 10
-5.851959158455075
 20
4.990082457518395
 30
0.0
 10
-5.895275672092228
 20
5.008338302535135
 30
0.0
 10
-5.941263133244331
 20
5.032003447094115
 30
0.0
 10
-5.98967504368453
 20
5.061220931589602
 30
0.0
 10
-6.040259472276595
 20
5.096124774966187
 30
0.0
 10
-6.092759353911421
 20
5.13683979376405
 30
0.0
 10
-6.125334632453667
 20
5.164327403403341
 30
0.0
 10
-6.129217926675665
 20
5.167440543271469
 30
0.0
 10
-6.137204877788014
 20
5.1735201857977735
 30
0.0
 10
-6.149444492233963
 20
5.182360110763301
 30
0.0
 10
-6.166077955899381
 20
5.193748547088962
 30
0.0
 10
-6.187238450877104
 20
5.207468436826713
 30
0.0
 10
-6.213050980590155
 20
5.223297704813361
 30
0.0
 10
-6.243632203440733
 20
5.241009533732294
 30
0.0
 10
-6.2790902751419075
 20
5.260372644322134
 30
0.0
 10
-6.3195246998940995
 20
5.281151580475113
 30
0.0
 10
-6.365026190542453
 20
5.303106998950253
 30
0.0
 10
-6.415676537843254
 20
5.325995963428072
 30
0.0
 10
-6.4715484895288515
 20
5.349572241397164
 30
0.0
 10
-6.532705635556946
 20
5.373586612305267
 30
0.0
 10
-6.599202310792258
 20
5.3977871605214185
 30
0.0
 10
-6.671083496633333
 20
5.421919596431911
 30
0.0
 10
-6.748384740367009
 20
5.445727561804703
 30
0.0
 10
-6.8311320810239256
 20
5.468952945239083
 30
0.0
 10
-6.919341985652704
 20
5.491336198727501
 30
0.0
 10
-7.013021295506837
 20
5.512616656262184
 30
0.0
 10
-7.112167182211383
 20
5.532532854189879
 30
0.0
 10
-7.216767113963011
 20
5.550822853014199
 30
0.0
 10
-7.248093732652555
 20
5.555492506832444
 30
0.0
 10
-7.397651396455055
 20
5.374708346882843
 30
0.0
 10
-7.523371490064078
 20
5.176605178423366
 30
0.0
 10
-7.5092499278200115
 20
5.14825479597285
 30
0.0
 10
-7.459531948733424
 20
5.0544262697402935
 30
0.0
 10
-7.409952755000371
 20
4.966287371749039
 30
0.0
 10
-7.36076533842602
 20
4.883769076696518
 30
0.0
 10
-7.312219239743879
 20
4.806793277824998
 30
0.0
 10
-7.264560252977114
 20
4.735272918460677
 30
0.0
 10
-7.218030134370711
 20
4.66911213279095
 30
0.0
 10
-7.172866315940838
 20
4.608206395408443
 30
0.0
 10
-7.129301624148881
 20
4.552442679790947
 30
0.0
 10
-7.087564003782245
 20
4.501699625371662
 30
0.0
 10
-7.04787624738618
 20
4.455847713085994
 30
0.0
 10
-7.010455730481367
 20
4.41474944924027
 30
0.0
 10
-6.975514152793366
 20
4.378259557486861
 30
0.0
 10
-6.943257285741373
 20
4.346225178761428
 30
0.0
 10
-6.913884711581028
 20
4.318486092101644
 30
0.0
 10
-6.887589862053089
 20
4.294874650970774
 30
0.0
 10
-6.864566939968522
 20
4.275224303424688
 30
0.0
 10
-6.844963319777251
 20
4.259325601379959
 30
0.0
 10
-6.829007823225336
 20
4.247037776234993
 30
0.0
 10
-6.816803388207301
 20
4.238117696026676
 30
0.0
 10
-6.808567654981138
 20
4.232410398493466
 30
0.0
 10
-6.804399726949945
 20
4.229674484515554
 30
0.0
 10
-6.768191142019104
 20
4.207187692101125
 30
0.0
 10
-6.713245502452294
 20
4.169838970302639
 30
0.0
 10
-6.664418526679725
 20
4.132516200639224
 30
0.0
 10
-6.621670944604386
 20
4.095502436990771
 30
0.0
 10
-6.58495314763834
 20
4.059078694237208
 30
0.0
 10
-6.554205268421629
 20
4.02352360803893
 30
0.0
 10
-6.529357271102744
 20
3.9891130973766296
 30
0.0
 10
-6.5103291941583326
 20
3.956119871953263
 30
0.0
 10
-6.497030343773175
 20
3.924814111906468
 30
0.0
 10
-6.48936187230381
 20
3.895460460899692
 30
0.0
 10
-6.487213417201443
 20
3.8683214790188742
 30
0.0
 10
-6.4904660233307725
 20
3.8436543402149925
 30
0.0
 10
-6.498991118423572
 20
3.821711771085598
 30
0.0
 10
-6.561123426324804
 20
3.7151290012889624
 30
0.0
 10
-6.652412899614752
 20
3.549074065814467
 30
0.0
 10
-6.709111553128959
 20
3.4395041192418616
 30
0.0
 10
-6.723070302621984
 20
3.4205487268957486
 30
0.0
 10
-6.742154623237056
 20
3.404585146791406
 30
0.0
 10
-6.766220023233773
 20
3.391857354131331
 30
0.0
 10
-6.795113028805225
 20
3.382603878288073
 30
0.0
 10
-6.828671368352538
 20
3.3770575065616684
 30
0.0
 10
-6.866724165946093
 20
3.3754449938042184
 30
0.0
 10
-6.909092143795632
 20
3.3779867781861608
 30
0.0
 10
-6.955587833540689
 20
3.384896703372751
 30
0.0
 10
-7.006015796165787
 20
3.396381747373338
 30
0.0
 10
-7.060172850338653
 20
3.412641758321397
 30
0.0
 10
-7.117848308959185
 20
3.4338691974357682
 30
0.0
 10
-7.178824223702679
 20
3.460248889408482
 30
0.0
 10
-7.2172119805074
 20
3.4787717828997406
 30
0.0
 10
-7.221747480303069
 20
3.4808213817523512
 30
0.0
 10
-7.230995452273117
 20
3.4847237471580885
 30
0.0
 10
-7.245048936666393
 20
3.4902420812898356
 30
0.0
 10
-7.263992018428773
 20
3.497136154744343
 30
0.0
 10
-7.28789971537614
 20
3.5051626078085083
 30
0.0
 10
-7.316837875871835
 20
3.5140752551315897
 30
0.0
 10
-7.350863086106959
 20
3.5236253935151858
 30
0.0
 10
-7.390022587070556
 20
3.5335621125291277
 30
0.0
 10
-7.434354201302742
 20
3.5436326076638713
 30
0.0
 10
-7.4838862694942305
 20
3.553582495719253
 30
0.0
 10
-7.538637596988412
 20
3.5631561321330434
 30
0.0
 10
-7.598617410478374
 20
3.5720969286156214
 30
0.0
 10
-7.663825323495343
 20
3.5801476801572565
 30
0.0
 10
-7.734251315004507
 20
3.5870508729883945
 30
0.0
 10
-7.809875713975723
 20
3.5925490200522203
 30
0.0
 10
-7.890669197212647
 20
3.5963849768312084
 30
0.0
 10
-7.976592795986766
 20
3.5983022653253465
 30
0.0
 10
-8.06759791303938
 20
3.598045396516546
 30
0.0
 10
-8.163626349693363
 20
3.595360192348448
 30
0.0
 10
-8.264610343065943
 20
3.589994106917505
 30
0.0
 10
-8.370472613359642
 20
3.58169654657104
 30
0.0
 10
-8.401976344398589
 20
3.5784288813605327
 30
0.0
 10
-8.501876186836368
 20
3.3661309096988865
 30
0.0
 10
-8.574380297910395
 20
3.142986200668826
 30
0.0
 10
-8.553651937099264
 20
3.1190383873367673
 30
0.0
 10
-8.482161734149031
 20
3.0405220154035058
 30
0.0
 10
-8.412220909360581
 20
2.9674820070639396
 30
0.0
 10
-8.344057340441598
 20
2.8997885890688293
 30
0.0
 10
-8.277893303983806
 20
2.837304050271007
 30
0.0
 10
-8.21394522182476
 20
2.7798829425542757
 30
0.0
 10
-8.152423414134336
 20
2.727372289573529
 30
0.0
 10
-8.093531859153543
 20
2.6796118028379703
 30
0.0
 10
-8.037467960119287
 20
2.6364341051750113
 30
0.0
 10
-7.984422319368653
 20
2.5976649612197664
 30
0.0
 10
-7.934578519927833
 20
2.5631235147342846
 30
0.0
 10
-7.888112914774638
 20
2.5326225325484035
 30
0.0
 10
-7.845194423939958
 20
2.5059686548572357
 30
0.0
 10
-7.805984339652008
 20
2.4829626516740166
 30
0.0
 10
-7.77063612858982
 20
2.463399701583939
 30
0.0
 10
-7.73929545348201
 20
2.4470693204567175
 30
0.0
 10
-7.712108996116935
 20
2.4337618926086697
 30
0.0
 10
-7.689167413284938
 20
2.423237899617734
 30
0.0
 10
-7.670657330148504
 20
2.415304089732582
 30
0.0
 10
-7.656617986158439
 20
2.4096993698144353
 30
0.0
 10
-7.6472216464564795
 20
2.406219521094951
 30
0.0
 10
-7.64250426741021
 20
2.404606082437438
 30
0.0
 10
-7.601841003889658
 20
2.391830462857877
 30
0.0
 10
-7.539333333217986
 20
2.369319544738256
 30
0.0
 10
-7.4827585512995665
 20
2.345312113611072
 30
0.0
 10
-7.4321490144171465
 20
2.3200920967740717
 30
0.0
 10
-7.3875265580865905
 20
2.2939440176621164
 30
0.0
 10
-7.348902489662081
 20
2.267152646490951
 30
0.0
 10
-7.316277591857347
 20
2.2400026509471163
 30
0.0
 10
-7.289642235432588
 20
2.2127780586789916
 30
0.0
 10
-7.268975766953509
 20
2.1857631162530398
 30
0.0
 10
-7.254248258459934
 20
2.1592387354746734
 30
0.0
 10
-7.245418110683631
 20
2.1334866736717246
 30
0.0
 10
-7.242434062244467
 20
2.108785608141767
 30
0.0
 10
-7.245234430757477
 20
2.0854123002344367
 30
0.0
 10
-7.278908680958226
 20
1.9667263475017174
 30
0.0
 10
-7.326033944408851
 20
1.7831855643670032
 30
0.0
 10
-7.35370236781158
 20
1.6629575774061665
 30
0.0
 10
-7.362508563137217
 20
1.6411263037307517
 30
0.0
 10
-7.377023333791658
 20
1.6209181713099776
 30
0.0
 10
-7.397167401673811
 20
1.6026054240513314
 30
0.0
 10
-7.422851434481373
 20
1.5864572648722237
 30
0.0
 10
-7.453976150523523
 20
1.5727395229372072
 30
0.0
 10
-7.490432433890774
 20
1.5617143242933875
 30
0.0
 10
-7.532101459878051
 20
1.5536397662141517
 30
0.0
 10
-7.578854830545146
 20
1.5487695955581908
 30
0.0
 10
-7.63055472029043
 20
1.5473528914467924
 30
0.0
 10
-7.687054031306571
 20
1.5496337525594184
 30
0.0
 10
-7.748196558774941
 20
1.5558509893429604
 30
0.0
 10
-7.8138171656500415
 20
1.5662378214261574
 30
0.0
 10
-7.855605356776903
 20
1.5746321372488916
 30
0.0
 10
-7.8605080800136795
 20
1.5754894112521778
 30
0.0
 10
-7.870435988750887
 20
1.5769692995670113
 30
0.0
 10
-7.885420310981959
 20
1.5788193056364657
 30
0.0
 10
-7.905482747346392
 20
1.5807858362300444
 30
0.0
 10
-7.9306354377378385
 20
1.582614521055372
 30
0.0
 10
-7.960880937965125
 20
1.5840505333051547
 30
0.0
 10
-7.996212206489754
 20
1.58483891083582
 30
0.0
 10
-8.036612601251658
 20
1.584724877673522
 30
0.0
 10
-8.08205588660136
 20
1.5834541655440242
 30
0.0
 10
-8.132506250325305
 20
1.5807733351199986
 30
0.0
 10
-8.187918330745111
 20
1.57643009668451
 30
0.0
 10
-8.24823725376754
 20
1.570173628555625
 30
0.0
 10
-8.313398680780598
 20
1.5617549024028383
 30
0.0
 10
-8.383328864508416
 20
1.5509269868552145
 30
0.0
 10
-8.457944717495327
 20
1.5374453762715836
 30
0.0
 10
-8.537153888546076
 20
1.5210682971846827
 30
0.0
 10
-8.620854849721532
 20
1.501557020451196
 30
0.0
 10
-8.708936993000156
 20
1.4786761693571342
 30
0.0
 10
-8.801280736611131
 20
1.4521940247396259
 30
0.0
 10
-8.897757640955001
 20
1.421882826832753
 30
0.0
 10
-8.998230534014018
 20
1.3875190735483636
 30
0.0
 10
-9.027931882118574
 20
1.3765194087319124
 30
0.0
 10
-9.071896828685349
 20
1.1460470876950404
 30
0.0
 10
-9.08662925727413
 20
0.9118818408315886
 30
0.0
 10
-9.060596537039276
 20
0.8938413258035375
 30
0.0
 10
-8.971826102599334
 20
0.8355705805811534
 30
0.0
 10
-8.885918286001306
 20
0.7822188342396111
 30
0.0
 10
-8.803061532460942
 20
0.7336037197135216
 30
0.0
 10
-8.723436887972445
 20
0.6895365743641219
 30
0.0
 10
-8.647217803607768
 20
0.6498226976728846
 30
0.0
 10
-8.574569948271897
 20
0.6142616148285737
 30
0.0
 10
-8.505651029727614
 20
0.5826473457723406
 30
0.0
 10
-8.440610624415978
 20
0.5547686796045462
 30
0.0
 10
-8.379590015977927
 20
0.5304094540109868
 30
0.0
 10
-8.322722042723893
 20
0.5093488394429283
 30
0.0
 10
-8.27013095418263
 20
0.4913616278023946
 30
0.0
 10
-8.221932276823583
 20
0.47621852533491
 30
0.0
 10
-8.178232689100092
 20
0.4636864494840666
 30
0.0
 10
-8.139129899238723
 20
0.4535288480653525
 30
0.0
 10
-8.104712648431008
 20
0.44550562484694506
 30
0.0
 10
-8.075070880886468
 20
0.43937727132992427
 30
0.0
 10
-8.050232839436319
 20
0.4348892485769405
 30
0.0
 10
-8.030331226314152
 20
0.4318079644051985
 30
0.0
 10
-8.015339116968049
 20
0.4298707699423971
 30
0.0
 10
-8.005372577371086
 20
0.4288370217296725
 30
0.0
 10
-8.000402157584524
 20
0.4284474366772219
 30
0.0
 10
-7.957839237870279
 20
0.426185729096155
 30
0.0
 10
-7.891697122929179
 20
0.41992705843022055
 30
0.0
 10
-7.8309293364803345
 20
0.41074344103014265
 30
0.0
 10
-7.775637828122016
 20
0.3989018374151982
 30
0.0
 10
-7.725914505468111
 20
0.3846724019213639
 30
0.0
 10
-7.681841140104303
 20
0.3683281461597646
 30
0.0
 10
-7.643489284128772
 20
0.35014459980511337
 30
0.0
 10
-7.610920245625822
 20
0.3303992619494841
 30
0.0
 10
-7.584184709273315
 20
0.30937258533100587
 30
0.0
 10
-7.563323547278171
 20
0.287344099175203
 30
0.0
 10
-7.548366537487728
 20
0.26459705420266066
 30
0.0
 10
-7.539333333218065
 20
0.2414141207380391
 30
0.0
 10
-7.536233017698578
 20
0.218078704949604
 30
0.0
 10
-7.539333333213502
 20
0.09474704418739775
 30
0.0
 10
-7.539333333207607
 20
-0.09474704418739834
 30
0.0
 10
-7.53623301769912
 20
-0.21807870494811113
 30
0.0
 10
-7.539333333218138
 20
-0.2414141207379931
 30
0.0
 10
-7.548366537490138
 20
-0.2645970541948893
 30
0.0
 10
-7.563323547387992
 20
-0.2873440987922722
 30
0.0
 10
-7.5841847851911
 20
-0.3093722930772318
 30
0.0
 10
-7.610920197350461
 20
-0.33039946904475714
 30
0.0
 10
-7.643489284130613
 20
-0.35014459979631096
 30
0.0
 10
-7.68184114010489
 20
-0.36832814615645926
 30
0.0
 10
-7.725914505468139
 20
-0.3846724019214222
 30
0.0
 10
-7.775637828122017
 20
-0.3989018374152144
 30
0.0
 10
-7.830929336480359
 20
-0.410743441030148
 30
0.0
 10
-7.8916971229292425
 20
-0.41992705842994243
 30
0.0
 10
-7.957839237870278
 20
-0.42618572909614544
 30
0.0
 10
-8.000402157584562
 20
-0.42844743667721213
 30
0.0
 10
-8.005364048130525
 20
-0.4288363532017098
 30
0.0
 10
-8.015348086616639
 20
-0.4298719288032506
 30
0.0
 10
-8.030321726611247
 20
-0.4318064934812786
 30
0.0
 10
-8.050242920916475
 20
-0.4348910700982163
 30
0.0
 10
-8.075060168709582
 20
-0.43937505650473435
 30
0.0
 10
-8.10471257265401
 20
-0.4455059092591886
 30
0.0
 10
-8.139129905927424
 20
-0.45352882924115506
 30
0.0
 10
-8.17823268910249
 20
-0.46368644945672083
 30
0.0
 10
-8.22193227682247
 20
-0.4762185253340117
 30
0.0
 10
-8.270130954182639
 20
-0.4913616278024981
 30
0.0
 10
-8.322722042723916
 20
-0.5093488394430508
 30
0.0
 10
-8.379590015507832
 20
-0.53040945528118
 30
0.0
 10
-8.440610624410784
 20
-0.5547686796023007
 30
0.0
 10
-8.50565102972841
 20
-0.5826473457725405
 30
0.0
 10
-8.57456994826994
 20
-0.6142616148287634
 30
0.0
 10
-8.647217803606441
 20
-0.64982269767184
 30
0.0
 10
-8.723436887961975
 20
-0.6895365743583296
 30
0.0
 10
-8.803061532460953
 20
-0.7336037197135297
 30
0.0
 10
-8.885918286001312
 20
-0.7822188342396152
 30
0.0
 10
-8.97182610259931
 20
-0.835570580581141
 30
0.0
 10
-9.060596537039295
 20
-0.8938413258035527
 30
0.0
 10
-9.086629257274135
 20
-0.9118818408315926
 30
0.0
 10
-9.071896828685349
 20
-1.146047087695034
 30
0.0
 10
-9.02793188211857
 20
-1.3765194087319115
 30
0.0
 10
-8.998230534013995
 20
-1.3875190735483693
 30
0.0
 10
-8.89775764095503
 20
-1.4218828268327433
 30
0.0
 10
-8.801280736611128
 20
-1.4521940247396248
 30
0.0
 10
-8.708936993000144
 20
-1.4786761693571353
 30
0.0
 10
-8.620854849733114
 20
-1.5015570204481856
 30
0.0
 10
-8.537153888547623
 20
-1.5210682971839975
 30
0.0
 10
-8.457944717497176
 20
-1.5374453762722504
 30
0.0
 10
-8.383328864507595
 20
-1.5509269868552062
 30
0.0
 10
-8.313398680786188
 20
-1.5617549024019515
 30
0.0
 10
-8.248237253906982
 20
-1.5701736299028164
 30
0.0
 10
-8.187918330745056
 20
-1.576430096684618
 30
0.0
 10
-8.132506250325273
 20
-1.5807733351200932
 30
0.0
 10
-8.082055886602664
 20
-1.5834541655434275
 30
0.0
 10
-8.036612601256138
 20
-1.5847248776464358
 30
0.0
 10
-7.996212204692577
 20
-1.5848388909396036
 30
0.0
 10
-7.960880940631
 20
-1.5840508276270342
 30
0.0
 10
-7.930646364176617
 20
-1.5826150398230459
 30
0.0
 10
-7.905472529600554
 20
-1.5807850933627143
 30
0.0
 10
-7.885429878038133
 20
-1.5788202434043657
 30
0.0
 10
-7.8704270127033285
 20
-1.5769681913592206
 30
0.0
 10
-7.860516507548609
 20
-1.57549088486312
 30
0.0
 10
-7.85560535677687
 20
-1.5746321372488694
 30
0.0
 10
-7.813817165650047
 20
-1.5662378214261452
 30
0.0
 10
-7.748196558774948
 20
-1.555850989342672
 30
0.0
 10
-7.687054031306547
 20
-1.5496337525594144
 30
0.0
 10
-7.630554720290426
 20
-1.5473528914468042
 30
0.0
 10
-7.578854830545106
 20
-1.5487695955582372
 30
0.0
 10
-7.532101459878306
 20
-1.5536397662108012
 30
0.0
 10
-7.490432433891181
 20
-1.5617143242844007
 30
0.0
 10
-7.453976145779726
 20
-1.5727397355317922
 30
0.0
 10
-7.422851433629243
 20
-1.586456962920151
 30
0.0
 10
-7.397167401662671
 20
-1.6026054236531164
 30
0.0
 10
-7.377023333791257
 20
-1.620918171301848
 30
0.0
 10
-7.362508563137158
 20
-1.641126303730686
 30
0.0
 10
-7.353702367811426
 20
-1.6629575774045824
 30
0.0
 10
-7.3260339444145615
 20
-1.7831855643684666
 30
0.0
 10
-7.278908680952517
 20
-1.9667263475002488
 30
0.0
 10
-7.245234430758373
 20
-2.085412300233122
 30
0.0
 10
-7.242434062244548
 20
-2.108785608141737
 30
0.0
 10
-7.2454181106879
 20
-2.1334866736647937
 30
0.0
 10
-7.254248258661538
 20
-2.1592387351310816
 30
0.0
 10
-7.268975913166756
 20
-2.185762852060938
 30
0.0
 10
-7.289642137171387
 20
-2.212778247262389
 30
0.0
 10
-7.31627759186132
 20
-2.240002650939045
 30
0.0
 10
-7.348902489663473
 20
-2.2671526464878924
 30
0.0
 10
-7.387526558086604
 20
-2.2939440176621764
 30
0.0
 10
-7.432149014417145
 20
-2.320092096774084
 30
0.0
 10
-7.482758551299589
 20
-2.3453121136110795
 30
0.0
 10
-7.539333333218119
 20
-2.369319544737999
 30
0.0
 10
-7.6018410038896596
 20
-2.391830462857864
 30
0.0
 10
-7.64250426741025
 20
-2.4046060824374345
 30
0.0
 10
-7.647213551433839
 20
-2.406216752434147
 30
0.0
 10
-7.65662638581205
 20
-2.409702722928436
 30
0.0
 10
-7.670648494700139
 20
-2.415300302540395
 30
0.0
 10
-7.689176725042937
 20
-2.4232421710747283
 30
0.0
 10
-7.712099171287412
 20
-2.4337570833562214
 30
0.0
 10
-7.739295309355238
 20
-2.447069577088651
 30
0.0
 10
-7.7706361397497705
 20
-2.4633996850145468
 30
0.0
 10
-7.805984339661132
 20
-2.4829626516481227
 30
0.0
 10
-7.845194423939102
 20
-2.505968654856085
 30
0.0
 10
-7.88811291477462
 20
-2.5326225325485017
 30
0.0
 10
-7.934578519927828
 20
-2.5631235147344054
 30
0.0
 10
-7.984422318597444
 20
-2.5976649623331425
 30
0.0
 10
-8.037467960114816
 20
-2.6364341051715408
 30
0.0
 10
-8.093531859154266
 20
-2.6796118028383584
 30
0.0
 10
-8.152423414132395
 20
-2.7273722895732226
 30
0.0
 10
-8.213945221823735
 20
-2.77988294255293
 30
0.0
 10
-8.277893303975105
 20
-2.8373040502627886
 30
0.0
 10
-8.344057340441609
 20
-2.899788589068836
 30
0.0
 10
-8.412220909360585
 20
-2.9674820070639405
 30
0.0
 10
-8.48216173414901
 20
-3.0405220154034835
 30
0.0
 10
-8.55365193709928
 20
-3.1190383873367833
 30
0.0
 10
-8.574380297910398
 20
-3.142986200668827
 30
0.0
 10
-8.501876186836368
 20
-3.3661309096988847
 30
0.0
 10
-8.401976344398584
 20
-3.5784288813605345
 30
0.0
 10
-8.370472613359617
 20
-3.581696546571044
 30
0.0
 10
-8.264610343065973
 20
-3.5899941069175063
 30
0.0
 10
-8.163626349693358
 20
-3.5953601923484504
 30
0.0
 10
-8.067597913039368
 20
-3.598045396516548
 30
0.0
 10
-7.976592795998732
 20
-3.5983022653253145
 30
0.0
 10
-7.890669197214314
 20
-3.5963849768309335
 30
0.0
 10
-7.8098757139773465
 20
-3.59254902005333
 30
0.0
 10
-7.734251315003712
 20
-3.587050872988186
 30
0.0
 10
-7.6638253235009755
 20
-3.580147680157791
 30
0.0
 10
-7.5986174102784005
 20
-3.5720969299551695
 30
0.0
 10
-7.538637596988331
 20
-3.563156132133138
 30
0.0
 10
-7.483886269494174
 20
-3.55358249571934
 30
0.0
 10
-7.434354201304153
 20
-3.543632607663622
 30
0.0
 10
-7.39002258708163
 20
-3.53356211250401
 30
0.0
 10
-7.350863089314233
 20
-3.5236253737971097
 30
0.0
 10
-7.316837805259082
 20
-3.514075540869787
 30
0.0
 10
-7.287910169528476
 20
-3.5051658275729722
 30
0.0
 10
-7.263982306435802
 20
-3.4971328941655
 30
0.0
 10
-7.24505796994251
 20
-3.4902453688261565
 30
0.0
 10
-7.230987033824667
 20
-3.4847204415144324
 30
0.0
 10
-7.221755276599351
 20
-3.48082490490981
 30
0.0
 10
-7.217211980507372
 20
-3.4787717828997136
 30
0.0
 10
-7.178824223702685
 20
-3.4602488894084744
 30
0.0
 10
-7.117848308959263
 20
-3.433869197435494
 30
0.0
 10
-7.06017285033863
 20
-3.412641758321391
 30
0.0
 10
-7.006015796165779
 20
-3.3963817473733524
 30
0.0
 10
-6.955587833540638
 20
-3.3848967033727893
 30
0.0
 10
-6.90909214379671
 20
-3.3779867781829815
 30
0.0
 10
-6.866724165948719
 20
-3.375444993795618
 30
0.0
 10
-6.82867131088765
 20
-3.3770577112974727
 30
0.0
 10
-6.795113103072293
 20
-3.382603585610467
 30
0.0
 10
-6.766220023322013
 20
-3.391857353742859
 30
0.0
 10
-6.742154623238688
 20
-3.404585146783435
 30
0.0
 10
-6.723070302621943
 20
-3.4205487268956736
 30
0.0
 10
-6.709111553129203
 20
-3.439504119240292
 30
0.0
 10
-6.652412899619917
 20
-3.5490740658173077
 30
0.0
 10
-6.561123426319638
 20
-3.7151290012861238
 30
0.0
 10
-6.498991118424766
 20
-3.821711771084551
 30
0.0
 10
-6.490466023330859
 20
-3.8436543402149876
 30
0.0
 10
-6.4872134172072995
 20
-3.8683214790132254
 30
0.0
 10
-6.489361872584526
 20
-3.8954604606170347
 30
0.0
 10
-6.497030551094767
 20
-3.9248138923762057
 30
0.0
 10
-6.510329052085402
 20
-3.9561200301754016
 30
0.0
 10
-6.529357271108598
 20
-3.989113097369804
 30
0.0
 10
-6.554205268423736
 20
-4.023523608036316
 30
0.0
 10
-6.584953147638336
 20
-4.059078694237272
 30
0.0
 10
-6.621670944604378
 20
-4.0955024369907855
 30
0.0
 10
-6.664418526679744
 20
-4.13251620063924
 30
0.0
 10
-6.713245502452485
 20
-4.1698389703024255
 30
0.0
 10
-6.768191142019107
 20
-4.207187692101114
 30
0.0
 10
-6.804399726949982
 20
-4.229674484515563
 30
0.0
 10
-6.8085605028164595
 20
-4.232405703664967
 30
0.0
 10
-6.816810690084804
 20
-4.238123032705346
 30
0.0
 10
-6.829000207195224
 20
-4.247031910737758
 30
0.0
 10
-6.844971276721089
 20
-4.259332054381325
 30
0.0
 10
-6.864558619816531
 20
-4.2752172019280055
 30
0.0
 10
-6.887589658632556
 20
-4.294874863697275
 30
0.0
 10
-6.913884726511009
 20
-4.31848607882818
 30
0.0
 10
-6.943257285756647
 20
-4.346225178738619
 30
0.0
 10
-6.975514152792821
 20
-4.378259557485537
 30
0.0
 10
-7.010455730481324
 20
-4.414749449240364
 30
0.0
 10
-7.047876247386143
 20
-4.455847713086112
 30
0.0
 10
-7.087564002758378
 20
-4.5016996262582705
 30
0.0
 10
-7.129301624145412
 20
-4.552442679786477
 30
0.0
 10
-7.172866315941439
 20
-4.608206395409002
 30
0.0
 10
-7.218030134368905
 20
-4.669112132790172
 30
0.0
 10
-7.2645602529764535
 20
-4.735272918459123
 30
0.0
 10
-7.312219239737495
 20
-4.806793277814879
 30
0.0
 10
-7.360765338426026
 20
-4.883769076696531
 30
0.0
 10
-7.409952755000373
 20
-4.966287371749046
 30
0.0
 10
-7.459531948733409
 20
-5.054426269740272
 30
0.0
 10
-7.509249927820022
 20
-5.148254795972875
 30
0.0
 10
-7.523371490064079
 20
-5.176605178423373
 30
0.0
 10
-7.397651396455055
 20
-5.374708346882845
 30
0.0
 10
-7.24809373265255
 20
-5.555492506832443
 30
0.0
 10
-7.216767113962987
 20
-5.550822853014195
 30
0.0
 10
-7.11216718221141
 20
-5.532532854189886
 30
0.0
 10
-7.0130212955068325
 20
-5.512616656262184
 30
0.0
 10
-6.919341985652691
 20
-5.491336198727497
 30
0.0
 10
-6.8311320810355225
 20
-5.468952945242027
 30
0.0
 10
-6.748384740368694
 20
-5.4457275618048495
 30
0.0
 10
-6.67108349663463
 20
-5.421919596433388
 30
0.0
 10
-6.599202310791541
 20
-5.397787160521018
 30
0.0
 10
-6.5327056355622695
 20
-5.373586612307186
 30
0.0
 10
-6.471548489002029
 20
-5.349572242644895
 30
0.0
 10
-6.415676537843153
 20
-5.325995963428144
 30
0.0
 10
-6.365026190542379
 20
-5.303106998950322
 30
0.0
 10
-6.319524699895529
 20
-5.281151580475221
 30
0.0
 10
-6.27909027515888
 20
-5.260372644300558
 30
0.0
 10
-6.243632211450931
 20
-5.241009515431314
 30
0.0
 10
-6.213050841135631
 20
-5.223297964013888
 30
0.0
 10
-6.18724777587016
 20
-5.2074741552783195
 30
0.0
 10
-6.166069359899511
 20
-5.193742973672761
 30
0.0
 10
-6.149452424136064
 20
-5.18236554150004
 30
0.0
 10
-6.137197545900751
 20
-5.173514890423995
 30
0.0
 10
-6.129224601863333
 20
-5.1674458946025
 30
0.0
 10
-6.125334632453647
 20
-5.164327403403307
 30
0.0
 10
-6.092759353911429
 20
-5.136839793764045
 30
0.0
 10
-6.040259472276739
 20
-5.09612477496594
 30
0.0
 10
-5.9896750436845085
 20
-5.061220931589589
 30
0.0
 10
-5.94126313324432
 20
-5.032003447094125
 30
0.0
 10
-5.895275672092168
 20
-5.008338302535158
 30
0.0
 10
-5.85195915845691
 20
-4.990082457515583
 30
0.0
 10
-5.811554364614766
 20
-4.977084040328342
 30
0.0
 10
-5.774295943436181
 20
-4.969182731112858
 30
0.0
 10
-5.7404128255714415
 20
-4.966208784671105
 30
0.0
 10
-5.71012615649948
 20
-4.9679864119181865
 30
0.0
 10
-5.683651541797829
 20
-4.974329516304319
 30
0.0
 10
-5.6611968092700105
 20
-4.985045493651565
 30
0.0
 10
-5.642962585177581
 20
-4.999933967652838
 30
0.0
 10
-5.560796286478921
 20
-5.0919611911294735
 30
0.0
 10
-5.431078656687062
 20
-5.230096436632486
 30
0.0
 10
-5.344392292503142
 20
-5.3178790360860235
 30
0.0
 10
-5.330678133907007
 20
-5.337012134120692
 30
0.0
 10
-5.32139324642153
 20
-5.360095419144029
 30
0.0
 10
-5.316725013849528
 20
-5.386916078860999
 30
0.0
 10
-5.316852865090567
 20
-5.417254441377685
 30
0.0
 10
-5.3219480493415
 20
-5.450884242000782
 30
0.0
 10
-5.332173419715836
 20
-5.487572896961092
 30
0.0
 10
-5.347683225488108
 20
-5.527081783807088
 30
0.0
 10
-5.368622913160335
 20
-5.569166528206247
 30
0.0
 10
-5.39512893653989
 20
-5.6135772968870095
 30
0.0
 10
-5.427328576011772
 20
-5.660059096449791
 30
0.0
 10
-5.465339767177866
 20
-5.708352077767758
 30
0.0
 10
-5.509270939029673
 20
-5.758191845695671
 30
0.0
 10
-5.538749726813767
 20
-5.788976883076959
 30
0.0
 10
-5.542100557673178
 20
-5.792657038835176
 30
0.0
 10
-5.548669708223518
 20
-5.800246485611172
 30
0.0
 10
-5.558260721366316
 20
-5.811906884492701
 30
0.0
 10
-5.570671109039451
 20
-5.827792439983612
 30
0.0
 10
-5.585692604181965
 20
-5.848049700553635
 30
0.0
 10
-5.603111418875143
 20
-5.8728173671749575
 30
0.0
 10
-5.622708508416216
 20
-5.902226110028223
 30
0.0
 10
-5.644259841074013
 20
-5.93639839355088
 30
0.0
 10
-5.667536673280049
 20
-5.975448310005878
 30
0.0
 10
-5.692305829989235
 20
-6.019481421723727
 30
0.0
 10
-5.718329989945501
 20
-6.06859461216305
 30
0.0
 10
-5.745367974388964
 20
-6.122875946572483
 30
0.0
 10
-5.773175047393677
 20
-6.182404538117422
 30
0.0
 10
-5.801503202141009
 20
-6.247250432358492
 30
0.0
 10
-5.830101475205107
 20
-6.317474488910677
 30
0.0
 10
-5.858716246250947
 20
-6.393128281782942
 30
0.0
 10
-5.887091548205973
 20
-6.4742540055727895
 30
0.0
 10
-5.9149693791958695
 20
-6.560884391989126
 30
0.0
 10
-5.942090017143555
 20
-6.6530426361398405
 30
0.0
 10
-5.968192336739435
 20
-6.750742332669771
 30
0.0
 10
-5.993014128486444
 20
-6.853987421821299
 30
0.0
 10
-5.999641582472172
 20
-6.884959014595474
 30
0.0
 10
-5.8286049621757705
 20
-7.045573091837566
 30
0.0
 10
-5.638786735059868
 20
-7.183484106427848
 30
0.0
 10
-5.6096055953832185
 20
-7.171170545104029
 30
0.0
 10
-5.5128404005773
 20
-7.127442215000989
 30
0.0
 10
-5.421762321235472
 20
-7.083495141677091
 30
0.0
 10
-5.336318353747717
 20
-7.039586151850572
 30
0.0
 10
-5.256446214274449
 20
-6.995969198207207
 30
0.0
 10
-5.182074451462736
 20
-6.952895056085573
 30
0.0
 10
-5.113122568669475
 20
-6.910611024144116
 30
0.0
 10
-5.049501155223962
 20
-6.869360629085784
 30
0.0
 10
-4.991112026930477
 20
-6.82938333493618
 30
0.0
 10
-4.9378483754712015
 20
-6.790914256978776
 30
0.0
 10
-4.8895949266174945
 20
-6.754183880697982
 30
0.0
 10
-4.8462281071099556
 20
-6.719417785974003
 30
0.0
 10
-4.807616220006396
 20
-6.686836376768689
 30
0.0
 10
-4.773619628369238
 20
-6.656654616558412
 30
0.0
 10
-4.744090959269143
 20
-6.629081754126283
 30
0.0
 10
-4.718875042661019
 20
-6.604321366132844
 30
0.0
 10
-4.697817849348347
 20
-6.582577730057273
 30
0.0
 10
-4.680719598263925
 20
-6.5640110808936605
 30
0.0
 10
-4.667454166417154
 20
-6.5488586277942415
 30
0.0
 10
-4.657785365134186
 20
-6.5372383719114
 30
0.0
 10
-4.651572203680973
 20
-6.5293772542007025
 30
0.0
 10
-4.648579982037898
 20
-6.525389340083467
 30
0.0
 10
-4.62386400631245
 20
-6.490664161902172
 30
0.0
 10
-4.583138918430659
 20
-6.4381720906493936
 30
0.0
 10
-4.5428239255517955
 20
-6.391784979857489
 30
0.0
 10
-4.503199057223779
 20
-6.351445863819839
 30
0.0
 10
-4.464541658858858
 20
-6.317087586769423
 30
0.0
 10
-4.427126057190964
 20
-6.28863290380296
 30
0.0
 10
-4.3912232291502065
 20
-6.265994592172553
 30
0.0
 10
-4.3571003254836445
 20
-6.249075724556722
 30
0.0
 10
-4.3250212984783545
 20
-6.237768821352565
 30
0.0
 10
-4.295244062889079
 20
-6.2319586128567455
 30
0.0
 10
-4.26802373097763
 20
-6.231518468011549
 30
0.0
 10
-4.2436094999661895
 20
-6.236313518326467
 30
0.0
 10
-4.222245524634583
 20
-6.246199576406916
 30
0.0
 10
-4.119774391480297
 20
-6.314901667879684
 30
0.0
 10
-3.9597792409447505
 20
-6.416437677916041
 30
0.0
 10
-3.8539856435436026
 20
-6.479904403459207
 30
0.0
 10
-3.8359441324669836
 20
-6.495025827481975
 30
0.0
 10
-3.8212103672477284
 20
-6.51507485103801
 30
0.0
 10
-3.8100187689475544
 20
-6.539891948178638
 30
0.0
 10
-3.802597759555713
 20
-6.569308970559225
 30
0.0
 10
-3.7991694779016796
 20
-6.603149349951318
 30
0.0
 10
-3.799949502000256
 20
-6.641228309554945
 30
0.0
 10
-3.8051465780919145
 20
-6.683353083916368
 30
0.0
 10
-3.814962356634537
 20
-6.72932314724627
 30
0.0
 10
-3.829591135496333
 20
-6.778930449926686
 30
0.0
 10
-3.8492196105947234
 20
-6.831959662989163
 30
0.0
 10
-3.8740266342178242
 20
-6.888188430336545
 30
0.0
 10
-3.904182981259816
 20
-6.947387628476925
 30
0.0
 10
-3.9250797112452553
 20
-6.984536573706938
 30
0.0
 10
-3.927410052071212
 20
-6.988934428353014
 30
0.0
 10
-3.9318854020148244
 20
-6.99791912001166
 30
0.0
 10
-3.938275272560956
 20
-7.0115983739966286
 30
0.0
 10
-3.9463451880816485
 20
-7.0300711934604045
 30
0.0
 10
-3.9558569794862346
 20
-7.053427728871163
 30
0.0
 10
-3.966569081867472
 20
-7.0817491567616155
 30
0.0
 10
-3.9782368358622473
 20
-7.115107567865978
 30
0.0
 10
-3.990612792441056
 20
-7.153565864750258
 30
0.0
 10
-4.003447020843249
 20
-7.197177669046924
 30
0.0
 10
-4.016487419362494
 20
-7.245987238376104
 30
0.0
 10
-4.0294800286899894
 20
-7.30002939302802
 30
0.0
 10
-4.0421693462033454
 20
-7.359329452800998
 30
0.0
 10
-4.0542986501615905
 20
-7.423903182025057
 30
0.0
 10
-4.065610305713788
 20
-7.493756748862989
 30
0.0
 10
-4.0758460987408105
 20
-7.568886688847
 30
0.0
 10
-4.084747550922366
 20
-7.649279882881228
 30
0.0
 10
-4.092056243492479
 20
-7.73491354351991
 30
0.0
 10
-4.097514140135156
 20
-7.825755211688119
 30
0.0
 10
-4.100863910031198
 20
-7.9217627635227315
 30
0.0
 10
-4.101849250752096
 20
-8.022884427344039
 30
0.0
 10
-4.100215210695872
 20
-8.129058810754227
 30
0.0
 10
-4.098932129115277
 20
-8.160705554772527
 30
0.0
 10
-3.893325842013416
 20
-8.273738567626856
 30
0.0
 10
-3.675174028896415
 20
-8.360110980609882
 30
0.0
 10
-3.6499719265592874
 20
-8.340927218124577
 30
0.0
 10
-3.5671215817661754
 20
-8.274508168544731
 30
0.0
 10
-3.4898340804738894
 20
-8.209291576067605
 30
0.0
 10
-3.4179942140707076
 20
-8.145513017266024
 30
0.0
 10
-3.351478500013626
 20
-8.08340297707411
 30
0.0
 10
-3.2901553664346994
 20
-8.023186583033139
 30
0.0
 10
-3.233885344965429
 20
-7.965083345758358
 30
0.0
 10
-3.1825212713074635
 20
-7.909306905583922
 30
0.0
 10
-3.135908493620636
 20
-7.856064785916166
 30
0.0
 10
-3.0938850883735207
 20
-7.805558153311085
 30
0.0
 10
-3.056282083480231
 20
-7.757981584592846
 30
0.0
 10
-3.022923688527594
 20
-7.713522841214969
 30
0.0
 10
-2.993627531838627
 20
-7.672362651045853
 30
0.0
 10
-2.96820490418424
 20
-7.634674497794722
 30
0.0
 10
-2.9464610245704073
 20
-7.600624406152216
 30
0.0
 10
-2.9281949704476014
 20
-7.570370967822726
 30
0.0
 10
-2.913206749986504
 20
-7.544073737029282
 30
0.0
 10
-2.9012630097869123
 20
-7.521838231157923
 30
0.0
 10
-2.892182597726595
 20
-7.5038628414868676
 30
0.0
 10
-2.885707399739944
 20
-7.490203124210661
 30
0.0
 10
-2.8816444166554507
 20
-7.481043827547692
 30
0.0
 10
-2.8797379550694417
 20
-7.476437065822923
 30
0.0
 10
-2.864434277814596
 20
-7.436656229754998
 30
0.0
 10
-2.838042890733712
 20
-7.3756853759366905
 30
0.0
 10
-2.8105304728389657
 20
-7.320729670500147
 30
0.0
 10
-2.782182422830244
 20
-7.27180357793785
 30
0.0
 10
-2.7532840737637856
 20
-7.228911025303964
 30
0.0
 10
-2.724120343921009
 20
-7.192045416770402
 30
0.0
 10
-2.6949753884088037
 20
-7.161189659074452
 30
0.0
 10
-2.6661320697868947
 20
-7.136316307733819
 30
0.0
 10
-2.6378727768862062
 20
-7.117386902079457
 30
0.0
 10
-2.6104759880047035
 20
-7.104353934608982
 30
0.0
 10
-2.584220292446829
 20
-7.097158196451819
 30
0.0
 10
-2.559380598875477
 20
-7.09573102908816
 30
0.0
 10
-2.5362292494459835
 20
-7.099993493860214
 30
0.0
 10
-2.4198919199946203
 20
-7.141053648253261
 30
0.0
 10
-2.239672332444539
 20
-7.199610541889055
 30
0.0
 10
-2.1214189026325125
 20
-7.234773545741683
 30
0.0
 10
-2.1001836535683895
 20
-7.244933161068495
 30
0.0
 10
-2.08092678727108
 20
-7.2606881692720515
 30
0.0
 10
-2.063915032523754
 20
-7.281942354352093
 30
0.0
 10
-2.049411451811685
 20
-7.308589656892166
 30
0.0
 10
-2.037675115797346
 20
-7.340514299559841
 30
0.0
 10
-2.0289607818373208
 20
-7.377590922730273
 30
0.0
 10
-2.0235185768440185
 20
-7.419684730109912
 30
0.0
 10
-2.021593684791296
 20
-7.466651644225472
 30
0.0
 10
-2.02342603915856
 20
-7.518338471635233
 30
0.0
 10
-2.0292500206045454
 20
-7.574583077712888
 30
0.0
 10
-2.039294160156562
 20
-7.635214570842305
 30
0.0
 10
-2.0537808481968054
 20
-7.700053495856572
 30
0.0
 10
-2.0647825019858086
 20
-7.741232144082247
 30
0.0
 10
-2.0659459288938207
 20
-7.74607136423459
 30
0.0
 10
-2.0680462755345617
 20
-7.755886759555587
 30
0.0
 10
-2.070833504417316
 20
-7.7707253508073455
 30
0.0
 10
-2.074055885314326
 20
-7.790624719058799
 30
0.0
 10
-2.0774603121451123
 20
-7.815612952291106
 30
0.0
 10
-2.080792621425441
 20
-7.845708601977406
 30
0.0
 10
-2.083797911979429
 20
-7.880920649679526
 30
0.0
 10
-2.0862208656118177
 20
-7.921248483692465
 30
0.0
 10
-2.0878060684386672
 20
-7.966681885773843
 30
0.0
 10
-2.0882983325697753
 20
-8.017201027964363
 30
0.0
 10
-2.08744301784098
 20
-8.07277647949895
 30
0.0
 10
-2.084986351936821
 20
-8.133369223789574
 30
0.0
 10
-2.080675758072443
 20
-8.198930685800043
 30
0.0
 10
-2.0742601615098004
 20
-8.269402768726959
 30
0.0
 10
-2.0654903219792464
 20
-8.344717901705009
 30
0.0
 10
-2.0541191443186984
 20
-8.424799096854544
 30
0.0
 10
-2.0399019954702275
 20
-8.50956001650556
 30
0.0
 10
-2.022597018046887
 20
-8.598905050322347
 30
0.0
 10
-2.0019654415291255
 20
-8.69272940226801
 30
0.0
 10
-1.9777718907937185
 20
-8.790919187343338
 30
0.0
 10
-1.9497846916805721
 20
-8.893351538020456
 30
0.0
 10
-1.940671695268208
 20
-8.92368495196763
 30
0.0
 10
-1.7134147405465106
 20
-8.982034620530222
 30
0.0
 10
-1.4806366221527987
 20
-9.011441335542752
 30
0.0
 10
-1.4609970979318845
 20
-8.98659275824586
 30
0.0
 10
-1.3972673950171843
 20
-8.901656342346483
 30
0.0
 10
-1.3386267297241807
 20
-8.81926802907132
 30
0.0
 10
-1.28490492742023
 20
-8.739627342705312
 30
0.0
 10
-1.2359250657212262
 20
-8.662926818214855
 30
0.0
 10
-1.19150371938856
 20
-8.589351789752545
 30
0.0
 10
-1.151451211638856
 20
-8.519080187231173
 30
0.0
 10
-1.1155718714202185
 20
-8.452282340808189
 30
0.0
 10
-1.083664296591916
 20
-8.389120793811829
 30
0.0
 10
-1.05552162265991
 20
-8.329750124036048
 30
0.0
 10
-1.0309317968186618
 20
-8.274316773667312
 30
0.0
 10
-1.009677857059395
 20
-8.22295888798979
 30
0.0
 10
-0.9915382160535168
 20
-8.175806162981788
 30
0.0
 10
-0.9762869495753099
 20
-8.132979701965903
 30
0.0
 10
-0.9636941073722713
 20
-8.094591873598395
 30
0.0
 10
-0.9535256390931673
 20
-8.06074631972746
 30
0.0
 10
-0.9455481564980345
 20
-8.031547845941345
 30
0.0
 10
-0.9395093963060168
 20
-8.007040621972607
 30
0.0
 10
-0.935184559717323
 20
-7.987371755571806
 30
0.0
 10
-0.9323098255306023
 20
-7.9725308671756245
 30
0.0
 10
-0.9306523129846354
 20
-7.962648903855256
 30
0.0
 10
-0.9299514014486164
 20
-7.957712754304604
 30
0.0
 10
-0.9250216089892807
 20
-7.915375836583879
 30
0.0
 10
-0.9146221906203289
 20
-7.8497572231805615
 30
0.0
 10
-0.9016410541096231
 20
-7.789685992184903
 30
0.0
 10
-0.8863510346590777
 20
-7.735247129431229
 30
0.0
 10
-0.8690275244436226
 20
-7.686515398043635
 30
0.0
 10
-0.8499481308286798
 20
-7.64355526570936
 30
0.0
 10
-0.8293923325875066
 20
-7.606420842683442
 30
0.0
 10
-0.8076409307975716
 20
-7.575155891760527
 30
0.0
 10
-0.7849770073048437
 20
-7.549793387830708
 30
0.0
 10
-0.76168210613488
 20
-7.530356570663648
 30
0.0
 10
-0.738040788844176
 20
-7.516857373887007
 30
0.0
 10
-0.7143364020140028
 20
-7.5092976630189865
 30
0.0
 10
-0.6908523629159842
 20
-7.507668708144766
 30
0.0
 10
-0.567958739435741
 20
-7.5185069649488945
 30
0.0
 10
-0.3788385743581753
 20
-7.530405397199798
 30
0.0
 10
-0.25555561003605276
 20
-7.5350552585093435
 30
0.0
 10
-0.23246091178090736
 20
-7.539614699144764
 30
0.0
 10
-0.20989092413680424
 20
-7.550085746887546
 30
0.0
 10
-0.18812792405795756
 20
-7.566441541290996
 30
0.0
 10
-0.16745308534223882
 20
-7.5886447759700415
 30
0.0
 10
-0.14814613212260033
 20
-7.616647739203865
 30
0.0
 10
-0.13048499375575975
 20
-7.650392365349021
 30
0.0
 10
-0.11474546143225536
 20
-7.68981029701902
 30
0.0
 10
-0.1012008468311181
 20
-7.734822957974129
 30
0.0
 10
-0.09012164314002816
 20
-7.785341636656226
 30
0.0
 10
-0.08177518876025126
 20
-7.841267580296008
 30
0.0
 10
-0.07642533401336928
 20
-7.902492099507107
 30
0.0
 10
-0.07433211116398382
 20
-7.968896683275729
 30
0.0
 10
-0.07474741438773498
 20
-8.01151762858457
 30
0.0
 10
-0.07467082498638718
 20
-8.016494148243602
 30
0.0
 10
-0.07426419582028505
 20
-8.026523509840434
 30
0.0
 10
-0.07327365119824643
 20
-8.041589075098113
 30
0.0
 10
-0.07144602342872713
 20
-8.061664641645248
 30
0.0
 10
-0.06852917302733025
 20
-8.086714470104825
 30
0.0
 10
-0.06427230795929023
 20
-8.116693321233123
 30
0.0
 10
-0.05842630161429779
 20
-8.151546503075025
 30
0.0
 10
-0.05074400921254402
 20
-8.191209928090194
 30
0.0
 10
-0.04098058234047091
 20
-8.235610180211143
 30
0.0
 10
-0.02889378131766423
 20
-8.284664591762766
 30
0.0
 10
-0.014244285102615484
 20
-8.338281330167893
 30
0.0
 10
0.0032040028653162614
 20
-8.396359494007855
 30
0.0
 10
0.0236836440865635
 20
-8.458789221028425
 30
0.0
 10
0.04742337723710096
 20
-8.525451799895837
 30
0.0
 10
0.07464780805431318
 20
-8.596219799073236
 30
0.0
 10
0.10557712264428634
 20
-8.670957199328795
 30
0.0
 10
0.14042679716217485
 20
-8.749519537681616
 30
0.0
 10
0.17940731327677048
 20
-8.83175406008422
 30
0.0
 10
0.2227238783780942
 20
-8.917499883046363
 30
0.0
 10
0.270576150799445
 20
-9.006588164062657
 30
0.0
 10
0.3231579703195162
 20
-9.098842280693828
 30
0.0
 10
0.3395282784838052
 20
-9.12595640461308
 30
0.0
 10
0.5741565105675429
 20
-9.125956404613078
 30
0.0
 10
0.8069346289612541
 20
-9.096549689600545
 30
0.0
 10
0.8197775515300384
 20
-9.067597624990299
 30
0.0
 10
0.8603822409507441
 20
-8.96948071015664
 30
0.0
 10
0.8966914615788243
 20
-8.875097436809536
 30
0.0
 10
0.9289196613698182
 20
-8.784598740101433
 30
0.0
 10
0.9572860858648659
 20
-8.698127107350967
 30
0.0
 10
0.9820144883909067
 20
-8.615816434095633
 30
0.0
 10
1.0033328360563105
 20
-8.537791889554965
 30
0.0
 10
1.0214730119347004
 20
-8.464169791239483
 30
0.0
 10
1.0366705136301633
 20
-8.395057489204218
 30
0.0
 10
1.0491641485423977
 20
-8.3305532597898
 30
0.0
 10
1.0591957261389457
 20
-8.270746209043836
 30
0.0
 10
1.0670097475032447
 20
-8.215716185904878
 30
0.0
 10
1.072853092468702
 20
-8.165533705185837
 30
0.0
 10
1.0769747046076685
 20
-8.120259880455531
 30
0.0
 10
1.0796252548110619
 20
-8.079946363799909
 30
0.0
 10
1.081057214987478
 20
-8.04463533501248
 30
0.0
 10
1.0815227051460656
 20
-8.01437026572615
 30
0.0
 10
1.0812770478186382
 20
-7.989131202673253
 30
0.0
 10
1.0805745635472044
 20
-7.9690047267557
 30
0.0
 10
1.0796682038125103
 20
-7.9539151748384445
 30
0.0
 10
1.078816098210784
 20
-7.943931464959415
 30
0.0
 10
1.0782674188472317
 20
-7.938976084013034
 30
0.0
 10
1.0725135695203283
 20
-7.896743268884194
 30
0.0
 10
1.066267585474842
 20
-7.830599954704376
 30
0.0
 10
1.0639017880532595
 20
-7.769187694519594
 30
0.0
 10
1.0651730487907927
 20
-7.712656655533488
 30
0.0
 10
1.0698332202969938
 20
-7.661147739298041
 30
0.0
 10
1.0776294492141745
 20
-7.61479242627393
 30
0.0
 10
1.0883044937818849
 20
-7.573712630287619
 30
0.0
 10
1.1015972581693245
 20
-7.538020571633353
 30
0.0
 10
1.1172417545889632
 20
-7.507818588826752
 30
0.0
 10
1.1349710637342258
 20
-7.483199208669328
 30
0.0
 10
1.1545125318457015
 20
-7.464244757453256
 30
0.0
 10
1.17559217813152
 20
-7.4510275075173835
 30
0.0
 10
1.1979333183532805
 20
-7.443609486222513
 30
0.0
 10
1.3196613775280084
 20
-7.423544837902398
 30
0.0
 10
1.5057990046259215
 20
-7.388037186510715
 30
0.0
 10
1.6263651814067548
 20
-7.361881737390107
 30
0.0
 10
1.6498682040251929
 20
-7.360554516910563
 30
0.0
 10
1.6743331576858027
 20
-7.365083669753071
 30
0.0
 10
1.6994799537625
 20
-7.375513378765159
 30
0.0
 10
1.725026974328622
 20
-7.391877434690505
 30
0.0
 10
1.7506914178767632
 20
-7.414199189322802
 30
0.0
 10
1.7761896463737068
 20
-7.442491519477928
 30
0.0
 10
1.801237533325577
 20
-7.4767568018224475
 30
0.0
 10
1.8255508125261315
 20
-7.51698689858431
 30
0.0
 10
1.848845427161204
 20
-7.563163154162444
 30
0.0
 10
1.8708378789419493
 20
-7.615256402644233
 30
0.0
 10
1.8912455769385943
 20
-7.673226986226949
 30
0.0
 10
1.9097871857876458
 20
-7.7370247845327675
 30
0.0
 10
1.9199843281580735
 20
-7.778409996182149
 30
0.0
 10
1.921296121475018
 20
-7.783211122315334
 30
0.0
 10
1.92418417644198
 20
-7.792824268513459
 30
0.0
 10
1.92889025500724
 20
-7.807170182904645
 30
0.0
 10
1.9356530548689848
 20
-7.826160526068536
 30
0.0
 10
1.9447079060644206
 20
-7.849697976906443
 30
0.0
 10
1.956286470992949
 20
-7.877676348005849
 30
0.0
 10
1.9706164481581587
 20
-7.909980710391366
 30
0.0
 10
1.9879212799089578
 20
-7.946487527543188
 30
0.0
 10
2.008419864462209
 20
-7.987064798570248
 30
0.0
 10
2.032326272478523
 20
-8.031572210395677
 30
0.0
 10
2.0598494684555555
 20
-8.07986129880878
 30
0.0
 10
2.0911930383839197
 20
-8.131775617567474
 30
0.0
 10
2.1265549157852535
 20
-8.187150920248964
 30
0.0
 10
2.1661271307812062
 20
-8.24581534005882
 30
0.0
 10
2.2100955417723784
 20
-8.30758959178075
 30
0.0
 10
2.258639590706027
 20
-8.37228717141935
 30
0.0
 10
2.311932057675237
 20
-8.439714567823195
 30
0.0
 10
2.370138823293297
 20
-8.509671481331647
 30
0.0
 10
2.433418637885684
 20
-8.581951049902479
 30
0.0
 10
2.501922897728398
 20
-8.65634008251971
 30
0.0
 10
2.5757954285525426
 20
-8.73261929967009
 30
0.0
 10
2.598394441801012
 20
-8.7548104534368
 30
0.0
 10
2.8256513965227152
 20
-8.6964607848742
 30
0.0
 10
3.043803209639715
 20
-8.610088371891173
 30
0.0
 10
3.049042562498407
 20
-8.578851984665283
 30
0.0
 10
3.063970896455214
 20
-8.473719617505107
 30
0.0
 10
3.075667230550336
 20
-8.373271832267863
 30
0.0
 10
3.0843768115084766
 20
-8.277601491162757
 30
0.0
 10
3.090347432024132
 20
-8.186792080858412
 30
0.0
 10
3.0938291142681336
 20
-8.100917645128167
 30
0.0
 10
3.0950737916620215
 20
-8.020042727655893
 30
0.0
 10
3.094334989234825
 20
-7.944222324648214
 30
0.0
 10
3.0918675028734204
 20
-7.873501847688189
 30
0.0
 10
3.087927077735972
 20
-7.807917096599205
 30
0.0
 10
3.082770086173867
 20
-7.747494242429326
 30
0.0
 10
3.0766532054429194
 20
-7.69224982056902
 30
0.0
 10
3.069833095513456
 20
-7.64219073396077
 30
0.0
 10
3.0625660772642616
 20
-7.597314266429332
 30
0.0
 10
3.0551077916506895
 20
-7.557608107999809
 30
0.0
 10
3.0477132684001518
 20
-7.523050326099479
 30
0.0
 10
3.0406375176635776
 20
-7.493620326923335
 30
0.0
 10
3.0341228783700513
 20
-7.469235287940673
 30
0.0
 10
3.0284372129088206
 20
-7.4499158230082685
 30
0.0
 10
3.0238067091682
 20
-7.43552573961239
 30
0.0
 10
3.020498526347562
 20
-7.4260675963839144
 30
0.0
 10
3.018734731626752
 20
-7.421404348851285
 30
0.0
 10
3.0026587760279972
 20
-7.3819292794103015
 30
0.0
 10
2.980159847716772
 20
-7.3194172921419955
 30
0.0
 10
2.9625957681156945
 20
-7.260522760933995
 30
0.0
 10
2.9497683921527056
 20
-7.205451598801571
 30
0.0
 10
2.941472409235006
 20
-7.154401992361886
 30
0.0
 10
2.937495607719033
 20
-7.107564173448162
 30
0.0
 10
2.9376191463030246
 20
-7.0651201991641965
 30
0.0
 10
2.9416180400141374
 20
-7.0272436960900375
 30
0.0
 10
2.9492601081142094
 20
-6.994099936061517
 30
0.0
 10
2.9603098275373356
 20
-6.965844919112765
 30
0.0
 10
2.974523584159647
 20
-6.942626191336765
 30
0.0
 10
2.9916539781994556
 20
-6.924581890756155
 30
0.0
 10
3.011448443539859
 20
-6.911840904600167
 30
0.0
 10
3.124362316766638
 20
-6.862134086802375
 30
0.0
 10
3.2958216942080303
 20
-6.781451428093051
 30
0.0
 10
3.406095467149053
 20
-6.7261341116035505
 30
0.0
 10
3.4285300327815964
 20
-6.719003624152946
 30
0.0
 10
3.4533527294444117
 20
-6.717306298765027
 30
0.0
 10
3.4803032558380145
 20
-6.721154585410734
 30
0.0
 10
3.5091172449970007
 20
-6.730651248765806
 30
0.0
 10
3.5395265874982935
 20
-6.745889236859357
 30
0.0
 10
3.571259758652953
 20
-6.766951559868896
 30
0.0
 10
3.6040421493763186
 20
-6.793911179179337
 30
0.0
 10
3.637596400426134
 20
-6.826830906812459
 30
0.0
 10
3.6716427396960665
 20
-6.8657633153242665
 30
0.0
 10
3.7058993222498167
 20
-6.910750658260385
 30
0.0
 10
3.740082572776832
 20
-6.961824801247324
 30
0.0
 10
3.7739075301502982
 20
-7.019007163790895
 30
0.0
 10
3.7940763941573037
 20
-7.056556256728724
 30
0.0
 10
3.796540966591303
 20
-7.060880316923807
 30
0.0
 10
3.8017289802440266
 20
-7.069473218392918
 30
0.0
 10
3.809854892528507
 20
-7.082198075355831
 30
0.0
 10
3.821127932895326
 20
-7.098909962033894
 30
0.0
 10
3.835751835282778
 20
-7.1194560906492965
 30
0.0
 10
3.8539245762543537
 20
-7.143675997766382
 30
0.0
 10
3.8758381190725197
 20
-7.171401738799701
 30
0.0
 10
3.9016781639507427
 20
-7.202458090503844
 30
0.0
 10
3.9316239047291703
 20
-7.236662761265619
 30
0.0
 10
3.965847792201708
 20
-7.273826608993053
 30
0.0
 10
4.004515304314253
 20
-7.313753866394292
 30
0.0
 10
4.047784724430865
 20
-7.356242372496598
 30
0.0
 10
4.0958069212032715
 20
-7.401083816915415
 30
0.0
 10
4.148725150240018
 20
-7.448063976418416
 30
0.0
 10
4.206674844438071
 20
-7.496962977259386
 30
0.0
 10
4.269783426588369
 20
-7.547555549411278
 30
0.0
 10
4.338170124313242
 20
-7.599611292569479
 30
0.0
 10
4.4119457942814755
 20
-7.652894947024511
 30
0.0
 10
4.491212754887208
 20
-7.707166670085066
 30
0.0
 10
4.576064627564322
 20
-7.762182317800169
 30
0.0
 10
4.666586186896697
 20
-7.817693731720862
 30
0.0
 10
4.693993926113588
 20
-7.833567563530516
 30
0.0
 10
4.899600213215449
 20
-7.720534550676183
 30
0.0
 10
5.089418440331349
 20
-7.582623536085899
 30
0.0
 10
5.086725015670846
 20
-7.551065523333165
 30
0.0
 10
5.075038992038675
 20
-7.4455235571249485
 30
0.0
 10
5.061387515913536
 20
-7.345322763765131
 30
0.0
 10
5.046031223035625
 20
-7.250492097645559
 30
0.0
 10
5.029230883526483
 20
-7.1610507990104075
 30
0.0
 10
5.011247078588323
 20
-7.0770084074262645
 30
0.0
 10
4.992339878052434
 20
-6.99836478552431
 30
0.0
 10
4.972768518993277
 20
-6.925110152593342
 30
0.0
 10
4.952791085817873
 20
-6.857225128367674
 30
0.0
 10
4.932664192033998
 20
-6.794680786718885
 30
0.0
 10
4.912642664059175
 20
-6.7374387192722995
 30
0.0
 10
4.892979227345619
 20
-6.685451108890901
 30
0.0
 10
4.873924195110714
 20
-6.63866081290948
 30
0.0
 10
4.855725159956179
 20
-6.59700145607601
 30
0.0
 10
4.838626670040397
 20
-6.560397539835753
 30
0.0
 10
4.822870288453891
 20
-6.528764397353951
 30
0.0
 10
4.808697892263725
 20
-6.502018663372192
 30
0.0
 10
4.796323609750079
 20
-6.480019850140948
 30
0.0
 10
4.786012014370396
 20
-6.462721309227418
 30
0.0
 10
4.7779483182036735
 20
-6.449934876215703
 30
0.0
 10
4.77239192345739
 20
-6.4415965895614455
 30
0.0
 10
4.769523839088415
 20
-6.437518484435264
 30
0.0
 10
4.744135888631306
 20
-6.403281524474268
 30
0.0
 10
4.706797706465408
 20
-6.348328722180548
 30
0.0
 10
4.675138960402336
 20
-6.295652479944059
 30
0.0
 10
4.649018938946369
 20
-6.245501518319665
 30
0.0
 10
4.62828806872198
 20
-6.198118856195667
 30
0.0
 10
4.612788113837756
 20
-6.153741523812125
 30
0.0
 10
4.602352384054451
 20
-6.112600282232787
 30
0.0
 10
4.596806141890467
 20
-6.074919254726919
 30
0.0
 10
4.595965602426682
 20
-6.040916261813293
 30
0.0
 10
4.599641437618294
 20
-6.0108009747027875
 30
0.0
 10
4.607634380148319
 20
-5.984776888425534
 30
0.0
 10
4.6197391562834165
 20
-5.963039326967961
 30
0.0
 10
4.635743187686173
 20
-5.9457759389691045
 30
0.0
 10
4.732748081041987
 20
-5.86955021386476
 30
0.0
 10
4.878755785558736
 20
-5.748762136014564
 30
0.0
 10
4.9718082479474965
 20
-5.667758742594065
 30
0.0
 10
4.991764710326891
 20
-5.65527302292302
 30
0.0
 10
5.015385448669094
 20
-5.647455868501123
 30
0.0
 10
5.042446304689189
 20
-5.644480930777493
 30
0.0
 10
5.072716773531742
 20
-5.646513491277405
 30
0.0
 10
5.105960284159093
 20
-5.653710253998893
 30
0.0
 10
5.14193448612138
 20
-5.666219146646349
 30
0.0
 10
5.1803915424418925
 20
-5.684179130890893
 30
0.0
 10
5.221078428343605
 20
-5.707720021837797
 30
0.0
 10
5.263737235538392
 20
-5.7369623168730985
 30
0.0
 10
5.308105481796398
 20
-5.772017034054995
 30
0.0
 10
5.353916425505969
 20
-5.812985560204729
 30
0.0
 10
5.400899384932583
 20
-5.859959508845421
 30
0.0
 10
5.4297726866747125
 20
-5.891313135466512
 30
0.0
 10
5.433235180075676
 20
-5.8948884331186555
 30
0.0
 10
5.4403971704361815
 20
-5.901921166256968
 30
0.0
 10
5.451432335486032
 20
-5.912225416229877
 30
0.0
 10
5.466507289772337
 20
-5.925608777120109
 30
0.0
 10
5.48578136978185
 20
-5.941872594688726
 30
0.0
 10
5.509406426646562
 20
-5.960812211984737
 30
0.0
 10
5.537526626630047
 20
-5.982217221388591
 30
0.0
 10
5.570278259582957
 20
-6.0058717228502125
 30
0.0
 10
5.607789555560722
 20
-6.031554588086762
 30
0.0
 10
5.65018050977293
 20
-6.059039730484415
 30
0.0
 10
5.697562716025795
 20
-6.088096380449088
 30
0.0
 10
5.750039209530931
 20
-6.118489364794804
 30
0.0
 10
5.807704314437915
 20
-6.149979398082818
 30
0.0
 10
5.870643510565444
 20
-6.182323361076449
 30
0.0
 10
5.938933295559847
 20
-6.215274606975676
 30
0.0
 10
6.012641066613162
 20
-6.248583254266093
 30
0.0
 10
6.091825007366963
 20
-6.281996490388386
 30
0.0
 10
6.1765339850133305
 20
-6.315258877817017
 30
0.0
 10
6.26680745697406
 20
-6.3481126634099665
 30
0.0
 10
6.362675387261915
 20
-6.380298090743601
 30
0.0
 10
6.464158172614658
 20
-6.411553715141271
 30
0.0
 10
6.494652508746361
 20
-6.420112813761397
 30
0.0
 10
6.665689129042753
 20
-6.259498736519308
 30
0.0
 10
6.815246792845257
 20
-6.078714576569709
 30
0.0
 10
6.804789828442699
 20
-6.048817844293635
 30
0.0
 10
6.76722372306455
 20
-5.9494978689304405
 30
0.0
 10
6.729082209170707
 20
-5.8558400518075855
 30
0.0
 10
6.6906249348147595
 20
-5.767807620188635
 30
0.0
 10
6.652109262399508
 20
-5.68535435895801
 30
0.0
 10
6.613789958883259
 20
-5.6084247040694954
 30
0.0
 10
6.5759188893630816
 20
-5.5369538457329694
 30
0.0
 10
6.5387447141400745
 20
-5.470867840877459
 30
0.0
 10
6.5025125897489415
 20
-5.410083735121903
 30
0.0
 10
6.467463874076618
 20
-5.3545096939211
 30
0.0
 10
6.433835835925764
 20
-5.304045142817076
 30
0.0
 10
6.401861369275375
 20
-5.258580916671905
 30
0.0
 10
6.371768712489853
 20
-5.217999417696497
 30
0.0
 10
6.3437811727401066
 20
-5.182174782163241
 30
0.0
 10
6.318116839527371
 20
-5.150973066789408
 30
0.0
 10
6.294988631007895
 20
-5.1242521904068274
 30
0.0
 10
6.2746100931391915
 20
-5.101871254449458
 30
0.0
 10
6.257153689085188
 20
-5.083640933310926
 30
0.0
 10
6.242864079248152
 20
-5.069450247361448
 30
0.0
 10
6.231873862341684
 20
-5.059070883345237
 30
0.0
 10
6.224418384386653
 20
-5.052376378481754
 30
0.0
 10
6.220626222658492
 20
-5.049139658105323
 30
0.0
 10
6.187521495640601
 20
-5.022292041733392
 30
0.0
 10
6.137690154925741
 20
-4.9783513110846425
 30
0.0
 10
6.09392597784854
 20
-4.935203199849052
 30
0.0
 10
6.056154527910394
 20
-4.893123608093886
 30
0.0
 10
6.024291367198319
 20
-4.852385117208066
 30
0.0
 10
5.998242178116065
 20
-4.8132566623567765
 30
0.0
 10
5.977902895247681
 20
-4.776003208997397
 30
0.0
 10
5.963160008001414
 20
-4.740885294599138
 30
0.0
 10
5.953889675159572
 20
-4.708159601899431
 30
0.0
 10
5.9499606598758
 20
-4.678076298872603
 30
0.0
 10
5.951230562338393
 20
-4.650882043144788
 30
0.0
 10
5.957549132965958
 20
-4.626817071741792
 30
0.0
 10
5.968757138279323
 20
-4.606116004058334
 30
0.0
 10
6.043757877555585
 20
-4.508160914294351
 30
0.0
 10
6.1551397080941275
 20
-4.354856976462087
 30
0.0
 10
6.225124031495722
 20
-4.2532572472288415
 30
0.0
 10
6.241348452695937
 20
-4.236200819023554
 30
0.0
 10
6.262283054856488
 20
-4.222755016129489
 30
0.0
 10
6.287753907396468
 20
-4.213143780314753
 30
0.0
 10
6.317578851038212
 20
-4.20758452470806
 30
0.0
 10
6.351567717757822
 20
-4.206287862987853
 30
0.0
 10
6.389522559114588
 20
-4.209457345543697
 30
0.0
 10
6.431237882748469
 20
-4.217289202860058
 30
0.0
 10
6.476500896824976
 20
-4.229972096365207
 30
0.0
 10
6.525091762200451
 20
-4.247686876981298
 30
0.0
 10
6.576783852075325
 20
-4.270606351606204
 30
0.0
 10
6.631344018893315
 20
-4.298895057749045
 30
0.0
 10
6.688532868241063
 20
-4.3327090465356655
 30
0.0
 10
6.724296391981285
 20
-4.355897143168841
 30
0.0
 10
6.7285392451546695
 20
-4.358499029177534
 30
0.0
 10
6.737225198028649
 20
-4.363529701497386
 30
0.0
 10
6.75047623583929
 20
-4.370765890558112
 30
0.0
 10
6.768405889225467
 20
-4.379979799875223
 30
0.0
 10
6.791119085524937
 20
-4.39093939092508
 30
0.0
 10
6.818712009073092
 20
-4.4034086725902695
 30
0.0
 10
6.851271970638074
 20
-4.417147994901696
 30
0.0
 10
6.888877286115159
 20
-4.431914346798791
 30
0.0
 10
6.931597164609082
 20
-4.447461657632331
 30
0.0
 10
6.9794916060047845
 20
-4.463541102120076
 30
0.0
 10
7.032611308119536
 20
-4.47990140846802
 30
0.0
 10
7.090997583931227
 20
-4.496289168073128
 30
0.0
 10
7.15468228635406
 20
-4.512449155626611
 30
0.0
 10
7.223687748405507
 20
-4.528124631963207
 30
0.0
 10
7.298026725852801
 20
-4.543057674954637
 30
0.0
 10
7.377702355475635
 20
-4.556989492573686
 30
0.0
 10
7.462708121042639
 20
-4.569660745149222
 30
0.0
 10
7.553027829763792
 20
-4.580811867418805
 30
0.0
 10
7.6486355988336205
 20
-4.590183391367573
 30
0.0
 10
7.749495852094646
 20
-4.597516269550646
 30
0.0
 10
7.855563326836466
 20
-4.602552198594243
 30
0.0
 10
7.887228188593503
 20
-4.603258764380375
 30
0.0
 10
8.012948282202522
 20
-4.405155595920899
 30
0.0
 10
8.112848124640303
 20
-4.192857624259248
 30
0.0
 10
8.09528467002713
 20
-4.166500694101231
 30
0.0
 10
8.034198899462382
 20
-4.079643348908445
 30
0.0
 10
7.973963919392463
 20
-3.9984133731217395
 30
0.0
 10
7.914822075542224
 20
-3.922710577442665
 30
0.0
 10
7.857011151569446
 20
-3.852426195261569
 30
0.0
 10
7.800764092243574
 20
-3.787443050212809
 30
0.0
 10
7.7463087323171145
 20
-3.7276357323224256
 30
0.0
 10
7.69386753107657
 20
-3.6728707822747695
 30
0.0
 10
7.643657313097635
 20
-3.6230068839022507
 30
0.0
 10
7.595889015242714
 20
-3.5778950645451073
 30
0.0
 10
7.550767440228121
 20
-3.5373789031251444
 30
0.0
 10
7.508491016974406
 20
-3.5012947457506294
 30
0.0
 10
7.4692515679371505
 20
-3.4694719286101727
 30
0.0
 10
7.43323408364564
 20
-3.4417330079814756
 30
0.0
 10
7.400616491578522
 20
-3.417894012002891
 30
0.0
 10
7.371569686526956
 20
-3.3977643726551565
 30
0.0
 10
7.346265465461025
 20
-3.381154511239703
 30
0.0
 10
7.324823789933539
 20
-3.3678381603174476
 30
0.0
 10
7.307454034378721
 20
-3.3576469823199213
 30
0.0
 10
7.29422785247993
 20
-3.3503268609129813
 30
0.0
 10
7.285341746415399
 20
-3.3456967782015155
 30
0.0
 10
7.280863782796025
 20
-3.3435048176199103
 30
0.0
 10
7.2421223709665545
 20
-3.3257334793123188
 30
0.0
 10
7.182928958106698
 20
-3.2955657780179024
 30
0.0
 10
7.129809214214515
 20
-3.2646569522997972
 30
0.0
 10
7.082759654907477
 20
-3.2332927459217458
 30
0.0
 10
7.041766283279766
 20
-3.20175817548215
 30
0.0
 10
7.006804626351738
 20
-3.170337182885811
 30
0.0
 10
6.977839782343543
 20
-3.139312289229578
 30
0.0
 10
6.954826599841223
 20
-3.108964075655226
 30
0.0
 10
6.937708962727674
 20
-3.079571958798437
 30
0.0
 10
6.9264219714487085
 20
-3.051410884423112
 30
0.0
 10
6.92088904120177
 20
-3.0247551743455925
 30
0.0
 10
6.921024387291194
 20
-2.999874883655196
 30
0.0
 10
6.926732126321168
 20
-2.9770368605028907
 30
0.0
 10
6.975016139235726
 20
-2.863507284622758
 30
0.0
 10
7.044773565749608
 20
-2.6873201370348725
 30
0.0
 10
7.0872923777403765
 20
-2.5715079566342713
 30
0.0
 10
7.098765317708155
 20
-2.5509525380080333
 30
0.0
 10
7.115698385641227
 20
-2.5327229358878394
 30
0.0
 10
7.137978807360759
 20
-2.517079311275889
 30
0.0
 10
7.165484214904214
 20
-2.5042775480378734
 30
0.0
 10
7.198082792217785
 20
-2.494568935900639
 30
0.0
 10
7.2356334306984404
 20
-2.4881998581193474
 30
0.0
 10
7.277985894443546
 20
-2.48541148410878
 30
0.0
 10
7.324980995054698
 20
-2.4864394673288284
 30
0.0
 10
7.376450775834616
 20
-2.4915136487091916
 30
0.0
 10
7.432218705209313
 20
-2.5008577658944926
 30
0.0
 10
7.4920998791962905
 20
-2.5146891685849027
 30
0.0
 10
7.555901232734779
 20
-2.533218540242836
 30
0.0
 10
7.596307824747456
 20
-2.54678411349678
 30
0.0
 10
7.601064443624254
 20
-2.548249101795031
 30
0.0
 10
7.610728588647935
 20
-2.5509616176530465
 30
0.0
 10
7.625362887779816
 20
-2.5546750694300626
 30
0.0
 10
7.645020654202959
 20
-2.559140583365269
 30
0.0
 10
7.669745813135597
 20
-2.564107316484149
 30
0.0
 10
7.699572838500993
 20
-2.569322771692682
 30
0.0
 10
7.734526699515179
 20
-2.574533114761161
 30
0.0
 10
7.7746228172423395
 20
-2.579483492897192
 30
0.0
 10
7.819867031173924
 20
-2.5839183546090423
 30
0.0
 10
7.870255575856794
 20
-2.5875817705536526
 30
0.0
 10
7.925775067588965
 20
-2.59021775506803
 30
0.0
 10
7.986402501268258
 20
-2.5915705867265753
 30
0.0
 10
8.052105257137764
 20
-2.5913851370952656
 30
0.0
 10
8.1228411181481
 20
-2.58940717894623
 30
0.0
 10
8.198558296695637
 20
-2.5853837210188213
 30
0.0
 10
8.279195472052317
 20
-2.579063321627855
 30
0.0
 10
8.364681837552615
 20
-2.570196409255708
 30
0.0
 10
8.454937157876948
 20
-2.5585356003430864
 30
0.0
 10
8.549871836304442
 20
-2.5438360153319164
 30
0.0
 10
8.649386991888182
 20
-2.5258555926597466
 30
0.0
 10
8.753374546492168
 20
-2.5043554004066073
 30
0.0
 10
8.784220314155126
 20
-2.4971650372318375
 30
0.0
  0
ENDSEC
  0
EOF
