999
DXF generated by OpenJsCad
  0
SECTION
  2
HEADER
  0
ENDSEC
  0
SECTION
  2
TABLES
  0
TABLE
  2
LTYPE
  70
1
  0
LTYPE
  2
CONTINUOUS
  3
Solid Line
  72
65
  73
0
  40
0.0
  0
ENDTAB
  0
TABLE
  2
LAYER
  70
1
  0
LAYER
  2
OpenJsCad
  62
7
  6
continuous
  0
ENDTAB
  0
TABLE
  2
STYLE
  70
0
  0
ENDTAB
  0
TABLE
  2
VIEW
  70
0
  0
ENDTAB
  0
ENDSEC
  0
SECTION
  2
BLOCKS
  0
ENDSEC
  0
SECTION
  2
ENTITIES
  0
LWPOLYLINE
  8
OpenJsCad
  90
1576
  70
1
 10
8.776950984079768
 20
-2.519537734731052
 30
0.0
 10
8.85672442522915
 20
-2.2740203282017846
 30
0.0
 10
8.905097338511263
 20
-2.020440636423687
 30
0.0
 10
8.890389364723033
 20
-2.00723385807045
 30
0.0
 10
8.809237183484871
 20
-1.9379681100787292
 30
0.0
 10
8.730300397305502
 20
-1.873951132931286
 30
0.0
 10
8.653789070414142
 20
-1.8150258174037728
 30
0.0
 10
8.579906720192149
 20
-1.7610278746704244
 30
0.0
 10
8.508850090546119
 20
-1.7117860673062033
 30
0.0
 10
8.440808932969603
 20
-1.6671224472300283
 30
0.0
 10
8.375965795058645
 20
-1.6268526000519623
 30
0.0
 10
8.314495817131533
 20
-1.5907858959005092
 30
0.0
 10
8.256566536821632
 20
-1.5587257462853166
 30
0.0
 10
8.202337701973635
 20
-1.5304698668266898
 30
0.0
 10
8.151961091953615
 20
-1.505810545584827
 30
0.0
 10
8.10558034754027
 20
-1.4845349167161896
 30
0.0
 10
8.063330809588024
 20
-1.4664252392041441
 30
0.0
 10
8.025339348092265
 20
-1.45125922985599
 30
0.0
 10
7.991722712177299
 20
-1.438809120416111
 30
0.0
 10
7.962608753989403
 20
-1.4288516201812114
 30
0.0
 10
7.9380527570496415
 20
-1.421136595655387
 30
0.0
 10
7.918188702836601
 20
-1.4154400239583222
 30
0.0
 10
7.908227046396596
 20
-1.4128523124286136
 30
0.0
 10
7.859532914367739
 20
-1.3986188402826658
 30
0.0
 10
7.816555918063539
 20
-1.382964612864897
 30
0.0
 10
7.779333333218078
 20
-1.3661681116866302
 30
0.0
 10
7.747892072922399
 20
-1.3485086421012615
 30
0.0
 10
7.72224836834748
 20
-1.330266763360235
 30
0.0
 10
7.7024088871220515
 20
-1.3117210710716045
 30
0.0
 10
7.688368731815781
 20
-1.2931529195508942
 30
0.0
 10
7.680113333035716
 20
-1.2748413426196956
 30
0.0
 10
7.677617570915441
 20
-1.2570649741297841
 30
0.0
 10
7.705737996867234
 20
-1.0720012420282796
 30
0.0
 10
7.730243935755145
 20
-0.8780167612251906
 30
0.0
 10
7.749030443349481
 20
-0.6917738810202394
 30
0.0
 10
7.75586859958707
 20
-0.6751766606340582
 30
0.0
 10
7.768418543834549
 20
-0.6594934097550821
 30
0.0
 10
7.786635313327054
 20
-0.6450002553468781
 30
0.0
 10
7.8104636875465605
 20
-0.631971557890116
 30
0.0
 10
7.839838250711265
 20
-0.6206795705806114
 30
0.0
 10
7.87468346490528
 20
-0.6113941006052293
 30
0.0
 10
7.914913753782591
 20
-0.6043821728146559
 30
0.0
 10
7.960433596769435
 20
-0.5999076961106735
 30
0.0
 10
8.01113763368023
 20
-0.5982311328624235
 30
0.0
 10
8.021429864019984
 20
-0.598202082265789
 30
0.0
 10
8.042086532236496
 20
-0.5976244682430404
 30
0.0
 10
8.067775524325237
 20
-0.5962594070924659
 30
0.0
 10
8.09846711842542
 20
-0.593853778028691
 30
0.0
 10
8.134122054570877
 20
-0.5901555368812728
 30
0.0
 10
8.17469157204091
 20
-0.5849140354474186
 30
0.0
 10
8.220117456733053
 20
-0.5778803395967049
 30
0.0
 10
8.270332098515128
 20
-0.5688075458270202
 30
0.0
 10
8.325258558512504
 20
-0.5574510959689086
 30
0.0
 10
8.384810646262574
 20
-0.5435690897247232
 30
0.0
 10
8.44889300669203
 20
-0.5269225948675448
 30
0.0
 10
8.517401216825153
 20
-0.5072759544207882
 30
0.0
 10
8.59022189207039
 20
-0.4843970911935555
 30
0.0
 10
8.667232802201156
 20
-0.45805780867299095
 30
0.0
 10
8.748302996665268
 20
-0.42803408845091273
 30
0.0
 10
8.833292939293575
 20
-0.39410638371872
 30
0.0
 10
8.922054652225832
 20
-0.3560599085860304
 30
0.0
 10
9.014431868936233
 20
-0.31368492294275463
 30
0.0
 10
9.110260196224845
 20
-0.2667770125902851
 30
0.0
 10
9.12779048418889
 20
-0.2576428738064169
 30
0.0
 10
9.143999999864695
 20
-7.72359112988303e-16
 30
0.0
 10
9.127790484188893
 20
0.25764287380641704
 30
0.0
 10
9.110260196224814
 20
0.2667770125903016
 30
0.0
 10
9.014431868936223
 20
0.3136849229427615
 30
0.0
 10
8.92205465222584
 20
0.3560599085860282
 30
0.0
 10
8.83329293929357
 20
0.3941063837187232
 30
0.0
 10
8.748302996678447
 20
0.4280340884456505
 30
0.0
 10
8.66723280219955
 20
0.4580578086731887
 30
0.0
 10
8.590221892070119
 20
0.4843970911937486
 30
0.0
 10
8.517401216823963
 20
0.5072759544211557
 30
0.0
 10
8.448893006702981
 20
0.5269225948649418
 30
0.0
 10
8.38481064626822
 20
0.5435690897416713
 30
0.0
 10
8.325258558512514
 20
0.5574510959687472
 30
0.0
 10
8.270332098515178
 20
0.5688075458268506
 30
0.0
 10
8.2201174567331
 20
0.5778803395966584
 30
0.0
 10
8.174691572050026
 20
0.5849140354621841
 30
0.0
 10
8.134122049025034
 20
0.5901554844657171
 30
0.0
 10
8.098465325232212
 20
0.5938543334308377
 30
0.0
 10
8.067789705967751
 20
0.5962586535086258
 30
0.0
 10
8.042086532248371
 20
0.5976244682438638
 30
0.0
 10
8.021429864053305
 20
0.5982020822649252
 30
0.0
 10
8.011137633680228
 20
0.5982311328624195
 30
0.0
 10
7.960433596769363
 20
0.5999076961075309
 30
0.0
 10
7.9149137537830505
 20
0.6043821728232841
 30
0.0
 10
7.874683464905268
 20
0.6113941006052286
 30
0.0
 10
7.839838258119634
 20
0.6206796420048266
 30
0.0
 10
7.810463626913629
 20
0.6319710885835099
 30
0.0
 10
7.786635313350498
 20
0.6450002554983894
 30
0.0
 10
7.768418543834668
 20
0.6594934097557408
 30
0.0
 10
7.755868599587065
 20
0.675176660633896
 30
0.0
 10
7.749030443349226
 20
0.6917738810191605
 30
0.0
 10
7.730243935755269
 20
0.8780167612252769
 30
0.0
 10
7.705737996867093
 20
1.0720012420283327
 30
0.0
 10
7.677617570915955
 20
1.2570649741288022
 30
0.0
 10
7.680113333035761
 20
1.2748413426195397
 30
0.0
 10
7.688368731815502
 20
1.2931529195515026
 30
0.0
 10
7.702408887061664
 20
1.3117210712125253
 30
0.0
 10
7.722248543787323
 20
1.3302663238765555
 30
0.0
 10
7.747892047984298
 20
1.3485087094391672
 30
0.0
 10
7.77933333321809
 20
1.3661681116866327
 30
0.0
 10
7.816555918060949
 20
1.38296461287314
 30
0.0
 10
7.8595329143685895
 20
1.3986188402796396
 30
0.0
 10
7.908227046396598
 20
1.4128523124286099
 30
0.0
 10
7.9181887028045415
 20
1.4154400239491989
 30
0.0
 10
7.9380527570379344
 20
1.4211365956532314
 30
0.0
 10
7.962595205297946
 20
1.4288473634415166
 30
0.0
 10
7.991724310911148
 20
1.4388101043182946
 30
0.0
 10
8.025339366499095
 20
1.4512591804663608
 30
0.0
 10
8.063330809575522
 20
1.4664252392161783
 30
0.0
 10
8.105580347540236
 20
1.4845349167161328
 30
0.0
 10
8.15196109195361
 20
1.5058105455846502
 30
0.0
 10
8.202337701973663
 20
1.5304698668265306
 30
0.0
 10
8.256566536811949
 20
1.5587257463003277
 30
0.0
 10
8.314495817121573
 20
1.5907858958952643
 30
0.0
 10
8.375965795059704
 20
1.6268526000526138
 30
0.0
 10
8.44080893296982
 20
1.667122447230283
 30
0.0
 10
8.508850090547625
 20
1.7117860673067944
 30
0.0
 10
8.579906720180691
 20
1.7610278746620494
 30
0.0
 10
8.653789070414145
 20
1.8150258174037766
 30
0.0
 10
8.730300397305495
 20
1.873951132931281
 30
0.0
 10
8.80923718348488
 20
1.9379681100787387
 30
0.0
 10
8.89038936472306
 20
2.0072338580704736
 30
0.0
 10
8.905097338511261
 20
2.0204406364236864
 30
0.0
 10
8.85672442522915
 20
2.274020328201783
 30
0.0
 10
8.77695098407977
 20
2.5195377347310557
 30
0.0
 10
8.757699874404516
 20
2.524025302412784
 30
0.0
 10
8.653216647300969
 20
2.5456279786033114
 30
0.0
 10
8.553203400325128
 20
2.5636983965501385
 30
0.0
 10
8.457768526218226
 20
2.5784754313302813
 30
0.0
 10
8.367011221875629
 20
2.590201095585425
 30
0.0
 10
8.281021401038288
 20
2.5991202279148657
 30
0.0
 10
8.199879617065688
 20
2.605480178889938
 30
0.0
 10
8.123656995325764
 20
2.6095304950475344
 30
0.0
 10
8.052415175808385
 20
2.611522601109282
 30
0.0
 10
7.986206265633314
 20
2.6117094807529178
 30
0.0
 10
7.925072801660851
 20
2.6103453562427483
 30
0.0
 10
7.86904772317322
 20
2.607685367206406
 30
0.0
 10
7.818154354642108
 20
2.6039852488774264
 30
0.0
 10
7.772406398627563
 20
2.5995010101170775
 30
0.0
 10
7.731807946409266
 20
2.5944885592583966
 30
0.0
 10
7.6963515778307485
 20
2.589203735464865
 30
0.0
 10
7.666041759465146
 20
2.5839038031125834
 30
0.0
 10
7.640806433900596
 20
2.578834588894305
 30
0.0
 10
7.620655086156111
 20
2.574256951626104
 30
0.0
 10
7.61067898053648
 20
2.5717255159355026
 30
0.0
 10
7.56115095985912
 20
2.560739825645119
 30
0.0
 10
7.515948449335794
 20
2.553753403830832
 30
0.0
 10
7.4752382734325336
 20
2.5505401730058477
 30
0.0
 10
7.439178572650993
 20
2.550868341503706
 30
0.0
 10
7.407918730924913
 20
2.5544998728044717
 30
0.0
 10
7.3815988055996575
 20
2.5611938438704143
 30
0.0
 10
7.360350048499541
 20
2.5707013426803247
 30
0.0
 10
7.344294117936942
 20
2.5827708311737996
 30
0.0
 10
7.333543234086944
 20
2.597146039057304
 30
0.0
 10
7.269030218311303
 20
2.772865742251282
 30
0.0
 10
7.197052199913925
 20
2.954661464700433
 30
0.0
 10
7.123791750199516
 20
3.1269178137917515
 30
0.0
 10
7.12178830028878
 20
3.1447563757778627
 30
0.0
 10
7.125230436534218
 20
3.164545695038908
 30
0.0
 10
7.134211782943844
 20
3.1860221386950025
 30
0.0
 10
7.1488161235784276
 20
3.2089186801367515
 30
0.0
 10
7.169117293128765
 20
3.2329652277767704
 30
0.0
 10
7.195179077818137
 20
3.257888957106372
 30
0.0
 10
7.227055126725775
 20
3.2834146457460553
 30
0.0
 10
7.264788873617868
 20
3.309265011174901
 30
0.0
 10
7.30841346936328
 20
3.3351610508224225
 30
0.0
 10
7.317418624330894
 20
3.3401448278351906
 30
0.0
 10
7.335241932998801
 20
3.350602420669817
 30
0.0
 10
7.357095745145095
 20
3.364174399197454
 30
0.0
 10
7.382832073436282
 20
3.38106825623755
 30
0.0
 10
7.4122950908966
 20
3.4014859461473814
 30
0.0
 10
7.445321317488177
 20
3.425623622965049
 30
0.0
 10
7.481739814872209
 20
3.4536713844741875
 30
0.0
 10
7.521372389168938
 20
3.485813022433439
 30
0.0
 10
7.564033801531903
 20
3.522225779214821
 30
0.0
 10
7.609531986325809
 20
3.5630801110930364
 30
0.0
 10
7.657668276784759
 20
3.608539458317698
 30
0.0
 10
7.708237637743283
 20
3.658760022519375
 30
0.0
 10
7.761028905487
 20
3.7138905510471703
 30
0.0
 10
7.815825034343361
 20
3.7740721291689163
 30
0.0
 10
7.87240334977753
 20
3.839437979802519
 30
0.0
 10
7.930535807830688
 20
3.910113271220775
 30
0.0
 10
7.989989260623568
 20
3.9862149328563508
 30
0.0
 10
8.050525727687097
 20
4.067851479395842
 30
0.0
 10
8.1119026728708
 20
4.15512284333892
 30
0.0
 10
8.122864176397904
 20
4.171572430806412
 30
0.0
 10
8.012948282202522
 20
4.405155595920902
 30
0.0
 10
7.874623374273174
 20
4.623120773570935
 30
0.0
 10
7.854861060908268
 20
4.622679799768945
 30
0.0
 10
7.748287999411113
 20
4.6176198662034045
 30
0.0
 10
7.646922922300296
 20
4.610250285635845
 30
0.0
 10
7.550811411143815
 20
4.600829384622065
 30
0.0
 10
7.459989360287604
 20
4.589616241796299
 30
0.0
 10
7.374482969783471
 20
4.576870364341109
 30
0.0
 10
7.29430874867331
 20
4.562851364660667
 30
0.0
 10
7.219473528090727
 20
4.54781863748825
 30
0.0
 10
7.149974484706311
 20
4.532031037817644
 30
0.0
 10
7.085799174116572
 20
4.515746559892881
 30
0.0
 10
7.026925574301892
 20
4.49922201760534
 30
0.0
 10
6.973322139051171
 20
4.482712726568462
 30
0.0
 10
6.924947861288554
 20
4.466472188183387
 30
0.0
 10
6.881752346268143
 20
4.450751776010351
 30
0.0
 10
6.84367591492008
 20
4.435800376011413
 30
0.0
 10
6.810647755593058
 20
4.421863944374399
 30
0.0
 10
6.782608215485938
 20
4.40919277383353
 30
0.0
 10
6.759426366390473
 20
4.398007048034335
 30
0.0
 10
6.741046522386828
 20
4.3885617892618045
 30
0.0
 10
6.7320133769262736
 20
4.383628926697518
 30
0.0
 10
6.686773400172895
 20
4.360671254195126
 30
0.0
 10
6.644728462091944
 20
4.342662916427653
 30
0.0
 10
6.606096369236761
 20
4.329426426105909
 30
0.0
 10
6.571087938077721
 20
4.320776601668388
 30
0.0
 10
6.53990705665287
 20
4.316520035223772
 30
0.0
 10
6.512749297271591
 20
4.316458203620001
 30
0.0
 10
6.4898036901432485
 20
4.3203826558661085
 30
0.0
 10
6.471250626432485
 20
4.328080011624386
 30
0.0
 10
6.457262532541607
 20
4.339329959826492
 30
0.0
 10
6.351076598627744
 20
4.493485370804793
 30
0.0
 10
6.236149144333703
 20
4.65166944106066
 30
0.0
 10
6.122351894344666
 20
4.800294907214884
 30
0.0
 10
6.1159751165294525
 20
4.817074800241139
 30
0.0
 10
6.114387708160997
 20
4.83709842612207
 30
0.0
 10
6.117745914708086
 20
4.860133717833489
 30
0.0
 10
6.126197294818517
 20
4.885942874146583
 30
0.0
 10
6.13988053257689
 20
4.9142826508387705
 30
0.0
 10
6.15892525894127
 20
4.944904657673665
 30
0.0
 10
6.183451882528914
 20
4.977555660872376
 30
0.0
 10
6.213571429913214
 20
5.0119778907926795
 30
0.0
 10
6.249385395585305
 20
5.047909354528728
 30
0.0
 10
6.25686822210733
 20
5.054976047994912
 30
0.0
 10
6.271530881176603
 20
5.0695375729419965
 30
0.0
 10
6.28932290181933
 20
5.08811798488385
 30
0.0
 10
6.310049344630371
 20
5.110881454918173
 30
0.0
 10
6.333509054218631
 20
5.137984840041725
 30
0.0
 10
6.3594949050466445
 20
5.169577475920623
 30
0.0
 10
6.387794053721491
 20
5.205800977430875
 30
0.0
 10
6.418188197500102
 20
5.246789047159205
 30
0.0
 10
6.450453838769512
 20
5.292667292054763
 30
0.0
 10
6.484362555237819
 20
5.343553048413765
 30
0.0
 10
6.5196812756836655
 20
5.399555215294243
 30
0.0
 10
6.556172560732456
 20
5.460774096793141
 30
0.0
 10
6.593594888804738
 20
5.527301252807759
 30
0.0
 10
6.631702946637544
 20
5.59921935908899
 30
0.0
 10
6.670247924233599
 20
5.676602076206847
 30
0.0
 10
6.708977813970754
 20
5.759513927816284
 30
0.0
 10
6.747637713571685
 20
5.848010188277034
 30
0.0
 10
6.785970132656203
 20
5.942136779751268
 30
0.0
 10
6.823715302590926
 20
6.04193017888752
 30
0.0
 10
6.830241584276731
 20
6.060588987391358
 30
0.0
 10
6.665689129042755
 20
6.259498736519307
 30
0.0
 10
6.477504217022065
 20
6.436216131558503
 30
0.0
 10
6.458472438796929
 20
6.430874324278561
 30
0.0
 10
6.356505920308336
 20
6.399469715192007
 30
0.0
 10
6.260158153652092
 20
6.367123193960542
 30
0.0
 10
6.169409045165407
 20
6.334096307011187
 30
0.0
 10
6.084228931271015
 20
6.3006489201073075
 30
0.0
 10
6.004578652085971
 20
6.267038903224054
 30
0.0
 10
5.930409635010758
 20
6.233521818196294
 30
0.0
 10
5.861663987719409
 20
6.200350609228612
 30
0.0
 10
5.798274600963404
 20
6.167775296775687
 30
0.0
 10
5.74016526074363
 20
6.13604267492066
 30
0.0
 10
5.687250769885045
 20
6.105396012620687
 30
0.0
 10
5.639437078847681
 20
6.076074759056044
 30
0.0
 10
5.596621425633532
 20
6.0483142533701315
 30
0.0
 10
5.55869248467798
 20
6.022345439096875
 30
0.0
 10
5.525530556417069
 20
5.998394541407015
 30
0.0
 10
5.49700588706113
 20
5.976682179180882
 30
0.0
 10
5.472998452639638
 20
5.957435946697812
 30
0.0
 10
5.453326680848806
 20
5.940836549607887
 30
0.0
 10
5.437873213781087
 20
5.9271171496769375
 30
0.0
 10
5.430350614230481
 20
5.920092810135678
 30
0.0
 10
5.392241275521496
 20
5.886605670417017
 30
0.0
 10
5.35599574797301
 20
5.85870694678832
 30
0.0
 10
5.321869134638895
 20
5.836278894337141
 30
0.0
 10
5.290111681584081
 20
5.8191945772454785
 30
0.0
 10
5.260968969915643
 20
5.807317368779751
 30
0.0
 10
5.234679798379518
 20
5.800503619613331
 30
0.0
 10
5.211479098106864
 20
5.798598437527889
 30
0.0
 10
5.191594658474278
 20
5.801440007379781
 30
0.0
 10
5.175248277926295
 20
5.8088578202805365
 30
0.0
 10
5.034061478626564
 20
5.931762787627449
 30
0.0
 10
4.8834059030627675
 20
6.056395918795541
 30
0.0
 10
4.736222152532922
 20
6.172051817367971
 30
0.0
 10
4.72587272321551
 20
6.1867186990434
 30
0.0
 10
4.719355512939029
 20
6.205718473488374
 30
0.0
 10
4.7168795711556095
 20
6.228865221159012
 30
0.0
 10
4.718646959447547
 20
6.255965308132862
 30
0.0
 10
4.7248524972621695
 20
6.28681762148124
 30
0.0
 10
4.73568351510248
 20
6.321213812512128
 30
0.0
 10
4.751319615407504
 20
6.358938547656903
 30
0.0
 10
4.771932441349911
 20
6.399769766766665
 30
0.0
 10
4.797685453770951
 20
6.443478948578024
 30
0.0
 10
4.803175778337096
 20
6.4521845321576645
 30
0.0
 10
4.813756479012926
 20
6.46993503505124
 30
0.0
 10
4.826368770060629
 20
6.4923564047910265
 30
0.0
 10
4.840783008763182
 20
6.519559175279134
 30
0.0
 10
4.856765350647176
 20
6.551645250249815
 30
0.0
 10
4.874078039134827
 20
6.5887077636880855
 30
0.0
 10
4.892479699512259
 20
6.630830949378843
 30
0.0
 10
4.911725636937301
 20
6.678090019711644
 30
0.0
 10
4.931568138207469
 20
6.730551053866209
 30
0.0
 10
4.951756776986938
 20
6.788270895489241
 30
0.0
 10
4.972038722320901
 20
6.851297059918871
 30
0.0
 10
4.992159049814786
 20
6.919667651243118
 30
0.0
 10
5.011861055713154
 20
6.993411288862396
 30
0.0
 10
5.030886573097138
 20
7.072547044189167
 30
0.0
 10
5.048976290154208
 20
7.157084387081039
 30
0.0
 10
5.065870070164605
 20
7.247023142316576
 30
0.0
 10
5.081307272900492
 20
7.3423534560912715
 30
0.0
 10
5.095027077138143
 20
7.4430557725845325
 30
0.0
 10
5.106768803979862
 20
7.5491008206317805
 30
0.0
 10
5.108449793544065
 20
7.568796448611369
 30
0.0
 10
4.899600213215446
 20
7.7205345506761835
 30
0.0
 10
4.673379647221369
 20
7.844900359253112
 30
0.0
 10
4.656274240755873
 20
7.834993363892411
 30
0.0
 10
4.565321196639101
 20
7.7792173463718255
 30
0.0
 10
4.48004462495874
 20
7.7239263353676115
 30
0.0
 10
4.400360019379944
 20
7.669368663254103
 30
0.0
 10
4.326174022273903
 20
7.615788654602166
 30
0.0
 10
4.25738457438238
 20
7.5634263392606185
 30
0.0
 10
4.193881073459515
 20
7.512517170605052
 30
0.0
 10
4.135544541307522
 20
7.463291748896715
 30
0.0
 10
4.082247799479662
 20
7.415975550346508
 30
0.0
 10
4.033855653187065
 20
7.370788661896786
 30
0.0
 10
3.9902250833511057
 20
7.32794552208723
 30
0.0
 10
3.951205446581431
 20
7.287654668192317
 30
0.0
 10
3.916638682872151
 20
7.25011848987381
 30
0.0
 10
3.8863595308345835
 20
7.215532989607738
 30
0.0
 10
3.860195791574497
 20
7.184087517214048
 30
0.0
 10
3.8379669220716726
 20
7.155963491969949
 30
0.0
 10
3.8195000687336793
 20
7.131351509114283
 30
0.0
 10
3.804574424016812
 20
7.110381441901098
 30
0.0
 10
3.793018332054761
 20
7.093249941165814
 30
0.0
 10
3.7874789510100535
 20
7.084575489734674
 30
0.0
 10
3.7588948002528895
 20
7.042663002945352
 30
0.0
 10
3.7307261230344673
 20
7.006626872865352
 30
0.0
 10
3.703249289846107
 20
6.97641649530485
 30
0.0
 10
3.6767382524666945
 20
6.951971156033638
 30
0.0
 10
3.6514648543081947
 20
6.933219594236018
 30
0.0
 10
3.627696115949648
 20
6.920082060426295
 30
0.0
 10
3.605698107857019
 20
6.912466953606498
 30
0.0
 10
3.5857317047745805
 20
6.910274191267647
 30
0.0
 10
3.5680541407771043
 20
6.913393780401691
 30
0.0
 10
3.4007377619402344
 20
6.997325733005956
 30
0.0
 10
3.2238203089918023
 20
7.080576767086391
 30
0.0
 10
3.0524981542709098
 20
7.15599601261708
 30
0.0
 10
3.038826366157852
 20
7.167628308825
 30
0.0
 10
3.0277888542636386
 20
7.184410406129355
 30
0.0
 10
3.0196343366778398
 20
7.206214214475283
 30
0.0
 10
3.0146066816449015
 20
7.232902433978174
 30
0.0
 10
3.012944602752509
 20
7.2643287196681925
 30
0.0
 10
3.014881359384144
 20
7.300337855712262
 30
0.0
 10
3.0206444627188316
 20
7.3407659389520825
 30
0.0
 10
3.030455387556712
 20
7.3854405715879174
 30
0.0
 10
3.0445292902433327
 20
7.434181062830254
 30
0.0
 10
3.047682135569107
 20
7.443978532690143
 30
0.0
 10
3.0535160535149353
 20
7.463802684151624
 30
0.0
 10
3.0601561383363247
 20
7.488656194568563
 30
0.0
 10
3.067352473300847
 20
7.518589015395897
 30
0.0
 10
3.074853218161064
 20
7.553641694118971
 30
0.0
 10
3.082404924419058
 20
7.593845311090897
 30
0.0
 10
3.089752852500988
 20
7.639221426286967
 30
0.0
 10
3.0966412905424385
 20
7.689782036028528
 30
0.0
 10
3.102813874482947
 20
7.745529539727981
 30
0.0
 10
3.1080139091504444
 20
7.806456716687138
 30
0.0
 10
3.111984690155414
 20
7.872546712960791
 30
0.0
 10
3.1144698259205628
 20
7.943773038408037
 30
0.0
 10
3.115213560155515
 20
8.020099573670228
 30
0.0
 10
3.1139610938624815
 20
8.10148058749441
 30
0.0
 10
3.110458906928544
 20
8.187860763999801
 30
0.0
 10
3.1044550788831526
 20
8.279175240098384
 30
0.0
 10
3.0956996085320445
 20
8.375349652972194
 30
0.0
 10
3.083944732164665
 20
8.476300197581997
 30
0.0
 10
3.0689452400328654
 20
8.581933694165025
 30
0.0
 10
3.0656753147189
 20
8.601428592878957
 30
0.0
 10
2.825651396522708
 20
8.696460784874201
 30
0.0
 10
2.5756094466976944
 20
8.760660645850525
 30
0.0
 10
2.5615052075893496
 20
8.746810955362957
 30
0.0
 10
2.4872805521081545
 20
8.670168141719003
 30
0.0
 10
2.4184334160276473
 20
8.595406778509549
 30
0.0
 10
2.354820190184734
 20
8.522746380419859
 30
0.0
 10
2.2962896889022275
 20
8.452400379016954
 30
0.0
 10
2.2426833663051426
 20
8.38457588206515
 30
0.0
 10
2.193835540047149
 20
8.319473440079229
 30
0.0
 10
2.1495736218963772
 20
8.25728681991461
 30
0.0
 10
2.1097183552974137
 20
8.198202786038836
 30
0.0
 10
2.074084059457424
 20
8.142400889381467
 30
0.0
 10
2.042478879808892
 20
8.090053264102607
 30
0.0
 10
2.014705044589331
 20
8.041324432407036
 30
0.0
 10
1.9905591272764407
 20
7.996371117588093
 30
0.0
 10
1.969832314638308
 20
7.955342065507496
 30
0.0
 10
1.9523107283402605
 20
7.918377853088833
 30
0.0
 10
1.9377743803134757
 20
7.885609300765781
 30
0.0
 10
1.9260084483705422
 20
7.85717802893688
 30
0.0
 10
1.916766763877882
 20
7.833154918045953
 30
0.0
 10
1.9098341587798082
 20
7.813687751702785
 30
0.0
 10
1.9066260559244566
 20
7.803908236067583
 30
0.0
 10
1.8893631404363405
 20
7.756203917895919
 30
0.0
 10
1.8710412551347624
 20
7.714294663949156
 30
0.0
 10
1.8519406725741048
 20
7.6782001904074555
 30
0.0
 10
1.8323418368494186
 20
7.647929819526774
 30
0.0
 10
1.8125257727562112
 20
7.623482133988427
 30
0.0
 10
1.7927709448216151
 20
7.604846295101131
 30
0.0
 10
1.7733578446604872
 20
7.591999748714874
 30
0.0
 10
1.7545640406651586
 20
7.584910433507446
 30
0.0
 10
1.7366660395776832
 20
7.583535783616439
 30
0.0
 10
1.5537331846325912
 20
7.623220968215803
 30
0.0
 10
1.361670228525153
 20
7.6598589365614185
 30
0.0
 10
1.1769744706731369
 20
7.690302660481091
 30
0.0
 10
1.1608393724928943
 20
7.698169471270164
 30
0.0
 10
1.145975086446393
 20
7.711679410540033
 30
0.0
 10
1.1326543713883475
 20
7.730770266094078
 30
0.0
 10
1.1211475790866752
 20
7.755369699142237
 30
0.0
 10
1.1117223180167752
 20
7.7853953280662
 30
0.0
 10
1.104643119897678
 20
7.820754822673462
 30
0.0
 10
1.1001711092842976
 20
7.861346008854282
 30
0.0
 10
1.09856367652803
 20
7.907056983545875
 30
0.0
 10
1.1000741544142385
 20
7.957766239899444
 30
0.0
 10
1.1006914156324688
 20
7.968039984975714
 30
0.0
 10
1.1014119843281103
 20
7.988692160660643
 30
0.0
 10
1.1016626419733344
 20
8.014416174290423
 30
0.0
 10
1.1011889010077365
 20
8.045198256239185
 30
0.0
 10
1.0997367494587975
 20
8.081015049995747
 30
0.0
 10
1.0970529720097129
 20
8.121833629388423
 30
0.0
 10
1.092885470450964
 20
8.16761152589036
 30
0.0
 10
1.086983583212776
 20
8.218296765981703
 30
0.0
 10
1.0790984036734665
 20
8.27382791854363
 30
0.0
 10
1.0689830969264436
 20
8.334134152236087
 30
0.0
 10
1.056393214828366
 20
8.399135302825883
 30
0.0
 10
1.0410870086449648
 20
8.468741950416176
 30
0.0
 10
1.022825739659256
 20
8.542855506401398
 30
0.0
 10
1.001373986752645
 20
8.621368310325984
 30
0.0
 10
0.9764999511129026
 20
8.704163736270994
 30
0.0
 10
0.9479757576083497
 20
8.7911163088682
 30
0.0
 10
0.9155777525727721
 20
8.882091828775511
 30
0.0
 10
0.8790867977139366
 20
8.976947507513891
 30
0.0
 10
0.8382885598635318
 20
9.075532111549563
 30
0.0
 10
0.830273181104819
 20
9.093601344814417
 30
0.0
 10
0.5741565105675491
 20
9.125956404613078
 30
0.0
 10
0.3160042322090696
 20
9.12595640461308
 30
0.0
 10
0.3057873816728164
 20
9.109034245987578
 30
0.0
 10
0.2529549229102682
 20
9.016340386074056
 30
0.0
 10
0.20486314119160742
 20
8.926806202062874
 30
0.0
 10
0.1613183480173671
 20
8.84060859803523
 30
0.0
 10
0.12212102921410119
 20
8.757916701863994
 30
0.0
 10
0.08706611431049263
 20
8.678891685886464
 30
0.0
 10
0.05594325129089808
 20
8.6036865964302
 30
0.0
 10
0.028537086242709817
 20
8.532446191860634
 30
0.0
 10
0.004627547850471961
 20
8.465306789803584
 30
0.0
 10
-0.016009863675512007
 20
8.402396123330568
 30
0.0
 10
-0.03360378346357769
 20
8.343833206399776
 30
0.0
 10
-0.048386684921159
 20
8.289728208611088
 30
0.0
 10
-0.06059457905041971
 20
8.24018233938851
 30
0.0
 10
-0.0704667104231787
 20
8.19528774172991
 30
0.0
 10
-0.07824519805219438
 20
8.1551273866974
 30
0.0
 10
-0.08417565239546848
 20
8.11977327595216
 30
0.0
 10
-0.08850136616729648
 20
8.089309156521937
 30
0.0
 10
-0.09147840141053748
 20
8.063742462361368
 30
0.0
 10
-0.0933519185699843
 20
8.043162824066886
 30
0.0
 10
-0.09402716633500123
 20
8.032892727161524
 30
0.0
 10
-0.09888415408538957
 20
7.982394015362451
 30
0.0
 10
-0.1062080160334447
 20
7.937244950105857
 30
0.0
 10
-0.11573218811708456
 20
7.89753432910177
 30
0.0
 10
-0.12718735525898686
 20
7.8633409253406885
 30
0.0
 10
-0.1403009691015398
 20
7.834733254056286
 30
0.0
 10
-0.15480061811987914
 20
7.811770068386531
 30
0.0
 10
-0.17040901386999477
 20
7.794499278189552
 30
0.0
 10
-0.1868493349544105
 20
7.7829588578607085
 30
0.0
 10
-0.20384317589931536
 20
7.77717634325291
 30
0.0
 10
-0.39089816289645035
 20
7.770121193747097
 30
0.0
 10
-0.5860386002725231
 20
7.757843998061716
 30
0.0
 10
-0.7725028475263382
 20
7.741399309232315
 30
0.0
 10
-0.7900874282143605
 20
7.745006333948558
 30
0.0
 10
-0.8078445106538285
 20
7.754395236013532
 30
0.0
 10
-0.82549443366686
 20
7.76957359010998
 30
0.0
 10
-0.8427573491579305
 20
7.790538563854605
 30
0.0
 10
-0.859353568588631
 20
7.8172769153206785
 30
0.0
 10
-0.8750039094051684
 20
7.8497650014018365
 30
0.0
 10
-0.8894300410928728
 20
7.887968797011974
 30
0.0
 10
-0.9023548305314877
 20
7.9318439251062465
 30
0.0
 10
-0.9135026863264318
 20
7.981335697498754
 30
0.0
 10
-0.9154597940082142
 20
7.99144018060407
 30
0.0
 10
-0.9198978505439735
 20
8.011622728360777
 30
0.0
 10
-0.9260523698166182
 20
8.036600910820733
 30
0.0
 10
-0.9341664198251707
 20
8.066298102473507
 30
0.0
 10
-0.9444802237608056
 20
8.100628510386876
 30
0.0
 10
-0.9572308533095997
 20
8.139497270736827
 30
0.0
 10
-0.9726519250590926
 20
8.182800554948088
 30
0.0
 10
-0.990973300296121
 20
8.230425685346999
 30
0.0
 10
-1.012420788485132
 20
8.28225126022664
 30
0.0
 10
-1.0372158547222639
 20
8.338147288198689
 30
0.0
 10
-1.0655753313288185
 20
8.39797533175556
 30
0.0
 10
-1.0977111342339778
 20
8.461588659825464
 30
0.0
 10
-1.1338299837497268
 20
8.528832409240568
 30
0.0
 10
-1.1741331307407639
 20
8.599543755045083
 30
0.0
 10
-1.2188160879467622
 20
8.67355208931731
 30
0.0
 10
-1.2680683669279402
 20
8.750679208487663
 30
0.0
 10
-1.322073220840074
 20
8.830739508928142
 30
0.0
 10
-1.3810073932922406
 20
8.913540190645183
 30
0.0
 10
-1.4450408735316869
 20
8.998881468893126
 30
0.0
 10
-1.4572980700092362
 20
9.014389680328883
 30
0.0
 10
-1.7134147405465123
 20
8.982034620530222
 30
0.0
 10
-1.9634566903715271
 20
8.917834759553903
 30
0.0
 10
-1.969144190041548
 20
8.898903414252253
 30
0.0
 10
-1.9972647943972062
 20
8.7959828041917
 30
0.0
 10
-2.0215794382394363
 20
8.697301561443904
 30
0.0
 10
-2.0423197192433196
 20
8.602982863951977
 30
0.0
 10
-2.059720943869281
 20
8.513140908968374
 30
0.0
 10
-2.0740218218530604
 20
8.427880806352665
 30
0.0
 10
-2.085464157688851
 20
8.347298481781564
 30
0.0
 10
-2.094292539491654
 20
8.271480589430034
 30
0.0
 10
-2.1007540254468506
 20
8.200504434744401
 30
0.0
 10
-2.1050978281935606
 20
8.134437906999489
 30
0.0
 10
-2.107574997434966
 20
8.073339421866867
 30
0.0
 10
-2.108438101064279
 20
8.017257873980386
 30
0.0
 10
-2.107940905124275
 20
7.96623259953439
 30
0.0
 10
-2.1063380529103495
 20
7.920293348979457
 30
0.0
 10
-2.103884690885326
 20
7.879460274139247
 30
0.0
 10
-2.100836619288016
 20
7.843742033773266
 30
0.0
 10
-2.0974503143835923
 20
7.813159239404719
 30
0.0
 10
-2.0939756423043114
 20
7.7876554113963365
 30
0.0
 10
-2.090672351551689
 20
7.7672563955112
 30
0.0
 10
-2.0887723159259077
 20
7.7571410252950175
 30
0.0
 10
-2.0809181935354606
 20
7.707020939652142
 30
0.0
 10
-2.076783846948516
 20
7.661468944902434
 30
0.0
 10
-2.076133169795668
 20
7.620637340799095
 30
0.0
 10
-2.078724898074103
 20
7.584669401470466
 30
0.0
 10
-2.0843120850797754
 20
7.553699269638462
 30
0.0
 10
-2.0926454889080577
 20
7.527851598594566
 30
0.0
 10
-2.1034684473385163
 20
7.507241751852467
 30
0.0
 10
-2.116522279675015
 20
7.491975353454164
 30
0.0
 10
-2.1315441749518054
 20
7.482148310788984
 30
0.0
 10
-2.3109679412278332
 20
7.428796128168467
 30
0.0
 10
-2.496924468515875
 20
7.368375189809371
 30
0.0
 10
-2.673440970749001
 20
7.306075368509381
 30
0.0
 10
-2.6913701300686106
 20
7.305195964524164
 30
0.0
 10
-2.7109042661053926
 20
7.309873890137536
 30
0.0
 10
-2.7317743874986253
 20
7.320186030966423
 30
0.0
 10
-2.7537087337102277
 20
7.336199239003361
 30
0.0
 10
-2.776433109998272
 20
7.357970244052155
 30
0.0
 10
-2.7996712250408198
 20
7.385545575675905
 30
0.0
 10
-2.8231450308933086
 20
7.418961495733443
 30
0.0
 10
-2.8465750649597927
 20
7.4582439415707995
 30
0.0
 10
-2.869680793657347
 20
7.503408479924818
 30
0.0
 10
-2.874089297965757
 20
7.512708799223985
 30
0.0
 10
-2.883407120318745
 20
7.531153575350696
 30
0.0
 10
-2.8955801054286203
 20
7.553816455573539
 30
0.0
 10
-2.910824628876701
 20
7.580562773160149
 30
0.0
 10
-2.9293520309662386
 20
7.611249689442722
 30
0.0
 10
-2.9513683436666565
 20
7.645726363587857
 30
0.0
 10
-2.9770740229541377
 20
7.68383413090311
 30
0.0
 10
-3.00666368680256
 20
7.725406689513649
 30
0.0
 10
-3.0403258590800126
 20
7.770270295240186
 30
0.0
 10
-3.0782427196057
 20
7.818243964483129
 30
0.0
 10
-3.1205898605066826
 20
7.869139684998247
 30
0.0
 10
-3.1675360494498532
 20
7.92276263419167
 30
0.0
 10
-3.219242999344731
 20
7.978911404955698
 30
0.0
 10
-3.2758651454701417
 20
8.037378238725106
 30
0.0
 10
-3.3375494297087216
 20
8.097949265498611
 30
0.0
 10
-3.4044350923409255
 20
8.160404750690935
 30
0.0
 10
-3.4766534715423574
 20
8.224519348546721
 30
0.0
 10
-3.5543278107879606
 20
8.290062361890532
 30
0.0
 10
-3.637573074354337
 20
8.356798007975165
 30
0.0
 10
-3.653301923817223
 20
8.368770759622102
 30
0.0
 10
-3.893325842013414
 20
8.273738567626857
 30
0.0
 10
-4.119546408007494
 20
8.149372759049932
 30
0.0
 10
-4.120347190289855
 20
8.129621753122056
 30
0.0
 10
-4.121989019246608
 20
8.0229412733601
 30
0.0
 10
-4.120998746716796
 20
7.921313477281762
 30
0.0
 10
-4.117631327417429
 20
7.824800076968874
 30
0.0
 10
-4.11214307492561
 20
7.7334531636201165
 30
0.0
 10
-4.104791339230889
 20
7.647315180178298
 30
0.0
 10
-4.0958341838403465
 20
7.5664189043062215
 30
0.0
 10
-4.085530062700577
 20
7.49078744118788
 30
0.0
 10
-4.074137497292485
 20
7.4204342267046
 30
0.0
 10
-4.061914754157956
 20
7.355363040601695
 30
0.0
 10
-4.049119523198871
 20
7.295568029792635
 30
0.0
 10
-4.036008597024613
 20
7.241033741715576
 30
0.0
 10
-4.0228375516648125
 20
7.191735167697435
 30
0.0
 10
-4.009860428963683
 20
7.1476377963112805
 30
0.0
 10
-3.9973293710434867
 20
7.108697693929126
 30
0.0
 10
-3.985494295054075
 20
7.0748596323470965
 30
0.0
 10
-3.9746087454645025
 20
7.046079792486049
 30
0.0
 10
-3.964900692488391
 20
7.022241329940141
 30
0.0
 10
-3.956628151730341
 20
7.003304681654744
 30
0.0
 10
-3.9522722189399713
 20
6.993979624040152
 30
0.0
 10
-3.932200489803921
 20
6.947387393863199
 30
0.0
 10
-3.9168677108830976
 20
6.904294668979019
 30
0.0
 10
-3.9060830689322983
 20
6.864907681630377
 30
0.0
 10
-3.899648510527823
 20
6.829425204643044
 30
0.0
 10
-3.897358207188812
 20
6.798038579546621
 30
0.0
 10
-3.89900174741639
 20
6.770930527361357
 30
0.0
 10
-3.9043592222449504
 20
6.7482766165426575
 30
0.0
 10
-3.913206345539191
 20
6.7302434840321474
 30
0.0
 10
-3.925312414220961
 20
6.716989382541575
 30
0.0
 10
-4.085831104666306
 20
6.620692480656005
 30
0.0
 10
-4.250919389356541
 20
6.51592426939296
 30
0.0
 10
-4.406396965551386
 20
6.411683842517378
 30
0.0
 10
-4.423544148483696
 20
6.406373266017312
 30
0.0
 10
-4.443627936509074
 20
6.406046283908585
 30
0.0
 10
-4.466406909800434
 20
6.410844261736233
 30
0.0
 10
-4.491634471091212
 20
6.420899535312062
 30
0.0
 10
-4.519059148100012
 20
6.436335241628205
 30
0.0
 10
-4.548424901136637
 20
6.4572651592936525
 30
0.0
 10
-4.5794714356015795
 20
6.483793558646219
 30
0.0
 10
-4.611934519085898
 20
6.516015061683967
 30
0.0
 10
-4.645546302775069
 20
6.554014511951161
 30
0.0
 10
-4.652129201171066
 20
6.56192629417843
 30
0.0
 10
-4.66574131629429
 20
6.577474345555962
 30
0.0
 10
-4.683167893817834
 20
6.59639793142905
 30
0.0
 10
-4.7045850212317655
 20
6.618512805449454
 30
0.0
 10
-4.730161876662901
 20
6.643628058292614
 30
0.0
 10
-4.760060506617641
 20
6.671546350000057
 30
0.0
 10
-4.794435611074603
 20
6.702064149248318
 30
0.0
 10
-4.833434336131651
 20
6.73497197931981
 30
0.0
 10
-4.877196074412543
 20
6.770054670548644
 30
0.0
 10
-4.925852273431499
 20
6.8070916189891335
 30
0.0
 10
-4.979526252022212
 20
6.845857051161167
 30
0.0
 10
-5.0383330252960885
 20
6.886120294368876
 30
0.0
 10
-5.10237913774334
 20
6.927646052713989
 30
0.0
 10
-5.171762505320379
 20
6.9701946882565835
 30
0.0
 10
-5.246572266153902
 20
7.013522507154535
 30
0.0
 10
-5.32688864026569
 20
7.0573820505389895
 30
0.0
 10
-5.412782798390574
 20
7.101522389829804
 30
0.0
 10
-5.504316740028576
 20
7.145689426221657
 30
0.0
 10
-5.601543180857343
 20
7.18962619406294
 30
0.0
 10
-5.619755381847151
 20
7.197311193902379
 30
0.0
 10
-5.8286049621757705
 20
7.045573091837565
 30
0.0
 10
-6.016789874196463
 20
6.868855696798372
 30
0.0
 10
-6.012653622995291
 20
6.849526058585834
 30
0.0
 10
-5.987713514401563
 20
6.745788836009282
 30
0.0
 10
-5.961480547964723
 20
6.64760013478889
 30
0.0
 10
-5.934217015701189
 20
6.554956323548156
 30
0.0
 10
-5.90618413318003
 20
6.467844114350397
 30
0.0
 10
-5.8776417203983025
 20
6.386240616375461
 30
0.0
 10
-5.848847884796727
 20
6.3101133997311445
 30
0.0
 10
-5.820058706541502
 20
6.239420568826779
 30
0.0
 10
-5.791527926553636
 20
6.17411084575286
 30
0.0
 10
-5.763506637441116
 20
6.114123663229889
 30
0.0
 10
-5.736242977700269
 20
6.0593892671841925
 30
0.0
 10
-5.709981829432583
 20
6.009828828799518
 30
0.0
 10
-5.684964519872659
 20
5.965354565922265
 30
0.0
 10
-5.661428527030155
 20
5.925869873727869
 30
0.0
 10
-5.6396071456699195
 20
5.891269493648119
 30
0.0
 10
-5.619728706639185
 20
5.861437780706926
 30
0.0
 10
-5.602027891479429
 20
5.836269238536695
 30
0.0
 10
-5.586696450278697
 20
5.815593999726753
 30
0.0
 10
-5.573974453675323
 20
5.799309578296988
 30
0.0
 10
-5.567436322997584
 20
5.7913607609490745
 30
0.0
 10
-5.536408167676205
 20
5.751223947414296
 30
0.0
 10
-5.510840371311115
 20
5.7132981667840745
 30
0.0
 10
-5.490599403279273
 20
5.67783062546045
 30
0.0
 10
-5.4755428651610885
 20
5.64506310533895
 30
0.0
 10
-5.465518979659332
 20
5.61523212406485
 30
0.0
 10
-5.460369386609188
 20
5.58856698935346
 30
0.0
 10
-5.459924747988958
 20
5.565292442990154
 30
0.0
 10
-5.46400926494692
 20
5.5456256644042945
 30
0.0
 10
-5.472438838215387
 20
5.529777308030157
 30
0.0
 10
-5.60396647316292
 20
5.396586375380235
 30
0.0
 10
-5.737813411176022
 20
5.254053863237429
 30
0.0
 10
-5.862482833413738
 20
5.114422640176317
 30
0.0
 10
-5.877770619392184
 20
5.105014574213838
 30
0.0
 10
-5.897142121141518
 20
5.099703229871461
 30
0.0
 10
-5.920398659663904
 20
5.0986855701052285
 30
0.0
 10
-5.947334295577477
 20
5.102151099400471
 30
0.0
 10
-5.977736079989664
 20
5.110281624787563
 30
0.0
 10
-6.011384312757391
 20
5.123251024792935
 30
0.0
 10
-6.048052807893188
 20
5.14122502654458
 30
0.0
 10
-6.08750916586915
 20
5.164360991244459
 30
0.0
 10
-6.129515052565255
 20
5.19280770821234
 30
0.0
 10
-6.137858717332411
 20
5.19883382699287
 30
0.0
 10
-6.154909825970822
 20
5.21050821237144
 30
0.0
 10
-6.176495019951762
 20
5.224503465398286
 30
0.0
 10
-6.202739034449441
 20
5.240597336984964
 30
0.0
 10
-6.2337582553303434
 20
5.258562842685135
 30
0.0
 10
-6.26966056165988
 20
5.278168543010613
 30
0.0
 10
-6.310545177050502
 20
5.299178828628502
 30
0.0
 10
-6.356502529993562
 20
5.3213542101710205
 30
0.0
 10
-6.407614123317291
 20
5.344451612387131
 30
0.0
 10
-6.463952412900171
 20
5.368224672342285
 30
0.0
 10
-6.525580695706672
 20
5.392424041498578
 30
0.0
 10
-6.592553007470276
 20
5.416797691071981
 30
0.0
 10
-6.664914029679716
 20
5.4410912208803
 30
0.0
 10
-6.742699006549339
 20
5.465048170942004
 30
0.0
 10
-6.825933671573582
 20
5.488410335754473
 30
0.0
 10
-6.91463418399655
 20
5.510918080916095
 30
0.0
 10
-7.008807075193284
 20
5.532310661787484
 30
0.0
 10
-7.108449205032278
 20
5.55232654389588
 30
0.0
 10
-7.213547728272329
 20
5.570703724782217
 30
0.0
 10
-7.233098941221079
 20
5.5736180960107955
 30
0.0
 10
-7.397651396455055
 20
5.374708346882843
 30
0.0
 10
-7.535976304384408
 20
5.1567431692328105
 30
0.0
 10
-7.527162915574741
 20
5.139049450993943
 30
0.0
 10
-7.477207948176779
 20
5.044773676816095
 30
0.0
 10
-7.42738060159224
 20
4.956193627664111
 30
0.0
 10
-7.377934024364913
 20
4.87324055687589
 30
0.0
 10
-7.32911792092095
 20
4.795836632309318
 30
0.0
 10
-7.281178255818941
 20
4.723895067695701
 30
0.0
 10
-7.234356962593499
 20
4.657320263277225
 30
0.0
 10
-7.188891657171788
 20
4.596007955142604
 30
0.0
 10
-7.145015356439654
 20
4.53984537357114
 30
0.0
 10
-7.1029562019991745
 20
4.488711409923447
 30
0.0
 10
-7.062937189486808
 20
4.442476792043692
 30
0.0
 10
-7.0251759036531
 20
4.401004267965654
 30
0.0
 10
-6.989884259459932
 20
4.364148797730764
 30
0.0
 10
-6.957268249465676
 20
4.33175775315324
 30
0.0
 10
-6.92752766230969
 20
4.303671164507602
 30
0.0
 10
-6.900854895669719
 20
4.279720236444707
 30
0.0
 10
-6.877451022255309
 20
4.25974442403327
 30
0.0
 10
-6.857459523665697
 20
4.243531510251931
 30
0.0
 10
-6.841087441051821
 20
4.230922525766144
 30
0.0
 10
-6.832777927282757
 20
4.224849402112584
 30
0.0
 10
-6.792742958888464
 20
4.193689948827244
 30
0.0
 10
-6.758546663756504
 20
4.163314128729241
 30
0.0
 10
-6.730121184106131
 20
4.133994589492492
 30
0.0
 10
-6.707388723938279
 20
4.106000930036568
 30
0.0
 10
-6.690261093865123
 20
4.079599982848917
 30
0.0
 10
-6.6786419354074775
 20
4.0550532340928225
 30
0.0
 10
-6.672423121618231
 20
4.0326204775307115
 30
0.0
 10
-6.671488387017645
 20
4.012555788897403
 30
0.0
 10
-6.675711803782549
 20
3.9951089881568653
 30
0.0
 10
-6.769984018203711
 20
3.8333929008829704
 30
0.0
 10
-6.864179514169712
 20
3.662051929796247
 30
0.0
 10
-6.950207344149041
 20
3.495803453822253
 30
0.0
 10
-6.9626751453560525
 20
3.4828890417822276
 30
0.0
 10
-6.9801171781310325
 20
3.4729270665049903
 30
0.0
 10
-7.002389988037519
 20
3.4661577124506824
 30
0.0
 10
-7.029341233507097
 20
3.462815745514392
 30
0.0
 10
-7.060809869398111
 20
3.4631302191603806
 30
0.0
 10
-7.0966263396826
 20
3.467324186405223
 30
0.0
 10
-7.136612779082578
 20
3.4756144179221367
 30
0.0
 10
-7.180583223468221
 20
3.4882111265339275
 30
0.0
 10
-7.228343828823299
 20
3.505317698355694
 30
0.0
 10
-7.237923996818439
 20
3.509079510483992
 30
0.0
 10
-7.257342715106696
 20
3.5161466852948804
 30
0.0
 10
-7.281730248422419
 20
3.5243342322568645
 30
0.0
 10
-7.311152142054223
 20
3.533395864268907
 30
0.0
 10
-7.34566467665623
 20
3.54308278403044
 30
0.0
 10
-7.385314785414432
 20
3.5531439947177823
 30
0.0
 10
-7.430139980990623
 20
3.5633266131895
 30
0.0
 10
-7.480168292314963
 20
3.5733761854253814
 30
0.0
 10
-7.535418211297707
 20
3.5830370039012265
 30
0.0
 10
-7.595898649512283
 20
3.5920524265828626
 30
0.0
 10
-7.661608904872874
 20
3.6001651973602704
 30
0.0
 10
-7.732538638471161
 20
3.6071177672566583
 30
0.0
 10
-7.808667861292148
 20
3.612652616704974
 30
0.0
 10
-7.889966931284505
 20
3.616512578005913
 30
0.0
 10
-7.976396560380307
 20
3.6184411579976983
 30
0.0
 10
-8.067907831701254
 20
3.618182860530288
 30
0.0
 10
-8.16444222687228
 20
3.6154835084496937
 30
0.0
 10
-8.265931663436366
 20
3.610090564788496
 30
0.0
 10
-8.372298542347194
 20
3.6017534528582567
 30
0.0
 10
-8.391960292640986
 20
3.5997140748133742
 30
0.0
 10
-8.501876186836368
 20
3.3661309096988865
 30
0.0
 10
-8.581649627985751
 20
3.1206135031696145
 30
0.0
 10
-8.56871287919988
 20
3.105667466294309
 30
0.0
 10
-8.496881907320814
 20
3.0267768341288033
 30
0.0
 10
-8.426591016026645
 20
2.9533712473080773
 30
0.0
 10
-8.358068304134509
 20
2.885321163490048
 30
0.0
 10
-8.291536275080196
 20
2.8224890968069025
 30
0.0
 10
-8.22721158312602
 20
2.7647298186418454
 30
0.0
 10
-8.165304786326738
 20
2.7118905662558244
 30
0.0
 10
-8.106020106087882
 20
2.663811258701941
 30
0.0
 10
-8.049555193952228
 20
2.6203247201845934
 30
0.0
 10
-7.996100905540034
 20
2.581256910405726
 30
0.0
 10
-7.945841081991935
 20
2.546427161772329
 30
0.0
 10
-7.8989523390574305
 20
2.5156484232140235
 30
0.0
 10
-7.855603864029262
 20
2.4887275103612936
 30
0.0
 10
-7.815957220744486
 20
2.4654653618573765
 30
0.0
 10
-7.7801661382619915
 20
2.4456573483057027
 30
0.0
 10
-7.748374992036346
 20
2.4290921300166475
 30
0.0
 10
-7.720738611807337
 20
2.4155642011237166
 30
0.0
 10
-7.697343195208815
 20
2.4048323293707887
 30
0.0
 10
-7.678349744747375
 20
2.396691050696822
 30
0.0
 10
-7.668790965197352
 20
2.3928752174321546
 30
0.0
 10
-7.622264728032674
 20
2.372650987442626
 30
0.0
 10
-7.581588613122159
 20
2.3517337523680504
 30
0.0
 10
-7.54676469928129
 20
2.330404469698143
 30
0.0
 10
-7.517784681140257
 20
2.3089436154848886
 30
0.0
 10
-7.4946294984842154
 20
2.2876315709913775
 30
0.0
 10
-7.477270849077238
 20
2.2667455706915516
 30
0.0
 10
-7.465668611060551
 20
2.2465641365273403
 30
0.0
 10
-7.459773357714083
 20
2.2273622760261786
 30
0.0
 10
-7.459525245167446
 20
2.2094132775746127
 30
0.0
 10
-7.510618569121204
 20
2.02933325219033
 30
0.0
 10
-7.559243973601759
 20
1.8399498055210801
 30
0.0
 10
-7.6012247663768715
 20
1.6575300797987755
 30
0.0
 10
-7.610089185009248
 20
1.6419207816855637
 30
0.0
 10
-7.624505801743312
 20
1.6279341230177165
 30
0.0
 10
-7.64439540047381
 20
1.6158384180865077
 30
0.0
 10
-7.669668809626792
 20
1.6058989429921866
 30
0.0
 10
-7.700227006870054
 20
1.5983776053613419
 30
0.0
 10
-7.735961234119566
 20
1.5935326174593276
 30
0.0
 10
-7.7767531227363875
 20
1.5916181730059638
 30
0.0
 10
-7.82247482879898
 20
1.5928841280001342
 30
0.0
 10
-7.87298917832735
 20
1.5975756858546555
 30
0.0
 10
-7.883203892361948
 20
1.5988368228397227
 30
0.0
 10
-7.903770070812948
 20
1.6008527304983087
 30
0.0
 10
-7.929427585054154
 20
1.6027181177081204
 30
0.0
 10
-7.960178672037042
 20
1.604178134479859
 30
0.0
 10
-7.996015970882885
 20
1.6049778035081381
 30
0.0
 10
-8.036922519913576
 20
1.6048623416873133
 30
0.0
 10
-8.082871763781746
 20
1.603577481645231
 30
0.0
 10
-8.133827570695598
 20
1.6008697929911533
 30
0.0
 10
-8.189744259732684
 20
1.5964870029718914
 30
0.0
 10
-8.250566638214444
 20
1.5901783162165173
 30
0.0
 10
-8.316230049119401
 20
1.5816947333904117
 30
0.0
 10
-8.386660428529082
 20
1.570789368073432
 30
0.0
 10
-8.461774372908074
 20
1.5572177622151528
 30
0.0
 10
-8.54147921645848
 20
1.540738199190844
 30
0.0
 10
-8.625673118163812
 20
1.5211120145882417
 30
0.0
 10
-8.71424515865073
 20
1.4981039042716267
 30
0.0
 10
-8.80707544671878
 20
1.4714822294577958
 30
0.0
 10
-8.904035235456597
 20
1.4410193185110973
 30
0.0
 10
-9.004987047846223
 20
1.4064917651686106
 30
0.0
 10
-9.023523915403237
 20
1.3996267794731359
 30
0.0
 10
-9.071896828685349
 20
1.1460470876950404
 30
0.0
 10
-9.088106344361154
 20
0.8884042138886231
 30
0.0
 10
-9.071859099103326
 20
0.8771449728414328
 30
0.0
 10
-8.982665526882156
 20
0.8185964712466779
 30
0.0
 10
-8.896327726090185
 20
0.7649776897440209
 30
0.0
 10
-8.813034413530328
 20
0.7161064299331706
 30
0.0
 10
-8.732966910938833
 20
0.6717941909633313
 30
0.0
 10
-8.656298949097641
 20
0.6318464271177101
 30
0.0
 10
-8.58319648044469
 20
0.5960628113207357
 30
0.0
 10
-8.513817499881899
 20
0.5642375040645252
 30
0.0
 10
-8.448311874435626
 20
0.5361594277486402
 30
0.0
 10
-8.386821181583779
 20
0.5116125460083588
 30
0.0
 10
-8.329478556556174
 20
0.49037614782280964
 30
0.0
 10
-8.27640854868418
 20
0.47222513612413825
 30
0.0
 10
-8.227726986931572
 20
0.4569303206162962
 30
0.0
 10
-8.183540854764013
 20
0.44425871452868465
 30
0.0
 10
-8.143948162297777
 20
0.43397388641120543
 30
0.0
 10
-8.109036191123472
 20
0.4258352314837039
 30
0.0
 10
-8.07890379948915
 20
0.4196051956338625
 30
0.0
 10
-8.053574484948928
 20
0.41502868888064576
 30
0.0
 10
-8.03315309498544
 20
0.4118666624991129
 30
0.0
 10
-8.022945662928318
 20
0.4105478824610104
 30
0.0
 10
-7.97285157158584
 20
0.4025296385170494
 30
0.0
 10
-7.9282514667928865
 20
0.3923852952738471
 30
0.0
 10
-7.88921723334154
 20
0.38038646644454616
 30
0.0
 10
-7.855810578348177
 20
0.3668068818716805
 30
0.0
 10
-7.828082768394334
 20
0.3519228542080542
 30
0.0
 10
-7.8060753358209105
 20
0.33600994657667077
 30
0.0
 10
-7.789818684861419
 20
0.3193479085410192
 30
0.0
 10
-7.779333333218053
 20
0.3022153996867944
 30
0.0
 10
-7.774629281183674
 20
0.2848920051087112
 30
0.0
 10
-7.779333333217913
 20
0.09776313189694072
 30
0.0
 10
-7.779333333217781
 20
-0.09776313189701127
 30
0.0
 10
-7.774629281184062
 20
-0.28489200510767293
 30
0.0
 10
-7.779333333218079
 20
-0.30221539968663463
 30
0.0
 10
-7.789818684861218
 20
-0.31934790854165845
 30
0.0
 10
-7.806075335778662
 20
-0.33600994672404944
 30
0.0
 10
-7.82808288736887
 20
-0.3519223962013927
 30
0.0
 10
-7.855810562046398
 20
-0.36680695180418016
 30
0.0
 10
-7.889217233341553
 20
-0.3803864664445476
 30
0.0
 10
-7.92825146679135
 20
-0.3923852952823505
 30
0.0
 10
-7.972851571586306
 20
-0.402529638513941
 30
0.0
 10
-8.022945662928318
 20
-0.4105478824610072
 30
0.0
 10
-8.03315309495249
 20
-0.4118666624940804
 30
0.0
 10
-8.053574484937045
 20
-0.41502868887997496
 30
0.0
 10
-8.078889824122221
 20
-0.4196026705611428
 30
0.0
 10
-8.10903790056647
 20
-0.42583600725304244
 30
0.0
 10
-8.143948174369301
 20
-0.43397383510404125
 30
0.0
 10
-8.183540854753117
 20
-0.4442587145421915
 30
0.0
 10
-8.227726986931533
 20
-0.4569303206162448
 30
0.0
 10
-8.276408548684152
 20
-0.47222513612396405
 30
0.0
 10
-8.329478556556182
 20
-0.49037614782264877
 30
0.0
 10
-8.386821181576053
 20
-0.5116125460244659
 30
0.0
 10
-8.448311874425087
 20
-0.5361594277446854
 30
0.0
 10
-8.513817499883034
 20
-0.5642375040650395
 30
0.0
 10
-8.583196480444936
 20
-0.5960628113209621
 30
0.0
 10
-8.65629894909921
 20
-0.6318464271181085
 30
0.0
 10
-8.732966910926416
 20
-0.6717941909564591
 30
0.0
 10
-8.813034413530332
 20
-0.7161064299331746
 30
0.0
 10
-8.896327726090178
 20
-0.7649776897440179
 30
0.0
 10
-8.982665526882165
 20
-0.818596471246687
 30
0.0
 10
-9.071859099103355
 20
-0.8771449728414537
 30
0.0
 10
-9.088106344361153
 20
-0.8884042138886233
 30
0.0
 10
-9.071896828685349
 20
-1.146047087695034
 30
0.0
 10
-9.023523915403239
 20
-1.3996267794731327
 30
0.0
 10
-9.00498704784619
 20
-1.40649176516862
 30
0.0
 10
-8.904035235456584
 20
-1.441019318511099
 30
0.0
 10
-8.80707544671879
 20
-1.4714822294577914
 30
0.0
 10
-8.714245158650726
 20
-1.4981039042716255
 30
0.0
 10
-8.625673118177549
 20
-1.5211120145846697
 30
0.0
 10
-8.541479216456862
 20
-1.5407381991908358
 30
0.0
 10
-8.46177437290778
 20
-1.5572177622153067
 30
0.0
 10
-8.386660428527856
 20
-1.5707893680736442
 30
0.0
 10
-8.316230049130592
 20
-1.5816947333891982
 30
0.0
 10
-8.25056663821792
 20
-1.5901783162340362
 30
0.0
 10
-8.189744259732716
 20
-1.5964870029717297
 30
0.0
 10
-8.13382757069567
 20
-1.600869792990988
 30
0.0
 10
-8.082871763781798
 20
-1.6035774816451875
 30
0.0
 10
-8.03692251992077
 20
-1.6048623417031018
 30
0.0
 10
-7.996015971950183
 20
-1.6049777508108134
 30
0.0
 10
-7.9601768233733505
 20
-1.6041784607557878
 30
0.0
 10
-7.929441749319281
 20
-1.6027191474976246
 30
0.0
 10
-7.903770070824628
 20
-1.6008527305006115
 30
0.0
 10
-7.883203892395115
 20
-1.598836822843039
 30
0.0
 10
-7.87298917832735
 20
-1.5975756858546486
 30
0.0
 10
-7.822474828799304
 20
-1.5928841279970045
 30
0.0
 10
-7.776753122735762
 20
-1.5916181730145786
 30
0.0
 10
-7.735961234119555
 20
-1.5935326174593227
 30
0.0
 10
-7.700227005268178
 20
-1.5983776771508675
 30
0.0
 10
-7.669668808291685
 20
-1.6058984697868788
 30
0.0
 10
-7.64439540047808
 20
-1.6158384182397596
 30
0.0
 10
-7.624505801743348
 20
-1.6279341230183821
 30
0.0
 10
-7.610089185009264
 20
-1.6419207816853991
 30
0.0
 10
-7.601224766376755
 20
-1.6575300797976702
 30
0.0
 10
-7.559243973601871
 20
-1.8399498055211785
 30
0.0
 10
-7.510618569121059
 20
-2.0293332521903618
 30
0.0
 10
-7.45952524516808
 20
-2.2094132775737
 30
0.0
 10
-7.459773357714148
 20
-2.2273622760260268
 30
0.0
 10
-7.465668611060199
 20
-2.246564136527906
 30
0.0
 10
-7.477270848999665
 20
-2.26674557082379
 30
0.0
 10
-7.4946297276225735
 20
-2.287631156961598
 30
0.0
 10
-7.517784647959123
 20
-2.3089436791662394
 30
0.0
 10
-7.546764699281303
 20
-2.330404469698144
 30
0.0
 10
-7.581588613118557
 20
-2.351733752375901
 30
0.0
 10
-7.6222647280338975
 20
-2.372650987439727
 30
0.0
 10
-7.668790965197355
 20
-2.3928752174321484
 30
0.0
 10
-7.678349744716712
 20
-2.3966910506837498
 30
0.0
 10
-7.6973431951974725
 20
-2.40483232936718
 30
0.0
 10
-7.7207257034623105
 20
-2.4155582798483715
 30
0.0
 10
-7.74837645484806
 20
-2.429093306534949
 30
0.0
 10
-7.78016616271384
 20
-2.44565730161251
 30
0.0
 10
-7.815957220730574
 20
-2.465465361867746
 30
0.0
 10
-7.855603864029237
 20
-2.48872751036123
 30
0.0
 10
-7.8989523390574465
 20
-2.5156484232138436
 30
0.0
 10
-7.9458410819919845
 20
-2.5464271617721717
 30
0.0
 10
-7.996100905528547
 20
-2.5812569104194028
 30
0.0
 10
-8.049555193943005
 20
-2.6203247201781386
 30
0.0
 10
-8.106020106088854
 20
-2.6638112587027174
 30
0.0
 10
-8.165304786326923
 20
-2.711890566256101
 30
0.0
 10
-8.227211583127442
 20
-2.7647298186426177
 30
0.0
 10
-8.29153627506988
 20
-2.8224890967971548
 30
0.0
 10
-8.358068304134514
 20
-2.885321163490049
 30
0.0
 10
-8.42659101602664
 20
-2.9533712473080684
 30
0.0
 10
-8.496881907320823
 20
-3.026776834128811
 30
0.0
 10
-8.568712879199904
 20
-3.105667466294332
 30
0.0
 10
-8.581649627985751
 20
-3.1206135031696105
 30
0.0
 10
-8.501876186836368
 20
-3.3661309096988847
 30
0.0
 10
-8.391960292640988
 20
-3.599714074813376
 30
0.0
 10
-8.37229854234716
 20
-3.6017534528582615
 30
0.0
 10
-8.265931663436351
 20
-3.6100905647884987
 30
0.0
 10
-8.16444222687229
 20
-3.6154835084496955
 30
0.0
 10
-8.067907831701248
 20
-3.6181828605302897
 30
0.0
 10
-7.976396560394498
 20
-3.6184411579976588
 30
0.0
 10
-7.889966931282938
 20
-3.6165125780055063
 30
0.0
 10
-7.808667861291823
 20
-3.6126526167050534
 30
0.0
 10
-7.73253863846992
 20
-3.6071177672565637
 30
0.0
 10
-7.661608904884015
 20
-3.6001651973618816
 30
0.0
 10
-7.595898649511294
 20
-3.5920524266007
 30
0.0
 10
-7.5354182112977774
 20
-3.5830370039010813
 30
0.0
 10
-7.4801682923150725
 20
-3.5733761854252424
 30
0.0
 10
-7.430139980990682
 20
-3.5633266131894743
 30
0.0
 10
-7.385314785417473
 20
-3.5531439947348673
 30
0.0
 10
-7.345664690795288
 20
-3.5430827332541295
 30
0.0
 10
-7.311150270328176
 20
-3.5333957205503164
 30
0.0
 10
-7.281743711592875
 20
-3.524338752203138
 30
0.0
 10
-7.257342715117434
 20
-3.516146685300019
 30
0.0
 10
-7.237923996849737
 20
-3.5090795104954555
 30
0.0
 10
-7.228343828823299
 20
-3.5053176983556904
 30
0.0
 10
-7.180583223469312
 20
-3.4882111265309796
 30
0.0
 10
-7.136612779079829
 20
-3.475614417930329
 30
0.0
 10
-7.096626339682589
 20
-3.467324186405218
 30
0.0
 10
-7.06080984999323
 20
-3.4631302882961403
 30
0.0
 10
-7.029341349895308
 20
-3.4628152868436746
 30
0.0
 10
-7.002389988003542
 20
-3.4661577126001846
 30
0.0
 10
-6.9801171781309
 20
-3.4729270665056475
 30
0.0
 10
-6.9626751453561075
 20
-3.4828890417820753
 30
0.0
 10
-6.950207344149201
 20
-3.4958034538211575
 30
0.0
 10
-6.864179514169796
 20
-3.6620519297963736
 30
0.0
 10
-6.769984018203561
 20
-3.833392900882968
 30
0.0
 10
-6.675711803783389
 20
-3.995108988156142
 30
0.0
 10
-6.671488387017743
 20
-4.012555788897275
 30
0.0
 10
-6.672423121617747
 20
-4.032620477531174
 30
0.0
 10
-6.678641935299455
 20
-4.055053234201616
 30
0.0
 10
-6.690261418769697
 20
-4.07959963881104
 30
0.0
 10
-6.707388675962683
 20
-4.106000983465442
 30
0.0
 10
-6.7301211841061415
 20
-4.133994589492498
 30
0.0
 10
-6.75854666375106
 20
-4.163314128735951
 30
0.0
 10
-6.792742958890369
 20
-4.193689948824744
 30
0.0
 10
-6.83277792728276
 20
-4.224849402112581
 30
0.0
 10
-6.841087441025371
 20
-4.23092252574586
 30
0.0
 10
-6.8574595236556055
 20
-4.243531510245617
 30
0.0
 10
-6.877439992010975
 20
-4.259735478610812
 30
0.0
 10
-6.900856019936308
 20
-4.2797217397870035
 30
0.0
 10
-6.927527697605462
 20
-4.303671125362291
 30
0.0
 10
-6.957268249449621
 20
-4.331757753159827
 30
0.0
 10
-6.989884259459921
 20
-4.3641487977306985
 30
0.0
 10
-7.0251759036531585
 20
-4.401004267965486
 30
0.0
 10
-7.062937189486894
 20
-4.442476792043554
 30
0.0
 10
-7.102956201984645
 20
-4.488711409933838
 30
0.0
 10
-7.145015356432324
 20
-4.539845373562596
 30
0.0
 10
-7.188891657172533
 20
-4.5960079551436
 30
0.0
 10
-7.234356962593606
 20
-4.6573202632775415
 30
0.0
 10
-7.281178255820125
 20
-4.723895067696807
 30
0.0
 10
-7.32911792091338
 20
-4.795836632297315
 30
0.0
 10
-7.377934024364915
 20
-4.8732405568758965
 30
0.0
 10
-7.427380601592234
 20
-4.956193627664105
 30
0.0
 10
-7.477207948176783
 20
-5.044773676816109
 30
0.0
 10
-7.527162915574756
 20
-5.139049450993976
 30
0.0
 10
-7.5359763043844055
 20
-5.1567431692328105
 30
0.0
 10
-7.397651396455055
 20
-5.374708346882845
 30
0.0
 10
-7.2330989412210815
 20
-5.573618096010796
 30
0.0
 10
-7.213547728272294
 20
-5.570703724782213
 30
0.0
 10
-7.108449205032265
 20
-5.552326543895878
 30
0.0
 10
-7.008807075193292
 20
-5.532310661787488
 30
0.0
 10
-6.914634183996545
 20
-5.510918080916095
 30
0.0
 10
-6.825933671587338
 20
-5.488410335757962
 30
0.0
 10
-6.742699006547924
 20
-5.46504817094122
 30
0.0
 10
-6.664914029679382
 20
-5.441091220880295
 30
0.0
 10
-6.592553007469098
 20
-5.4167976910715785
 30
0.0
 10
-6.525580695717062
 20
-5.392424041502908
 30
0.0
 10
-6.463952412894776
 20
-5.3682246723593146
 30
0.0
 10
-6.407614123317396
 20
-5.344451612387007
 30
0.0
 10
-6.356502529993703
 20
-5.321354210170913
 30
0.0
 10
-6.3105451770505665
 20
-5.299178828628491
 30
0.0
 10
-6.269660561658577
 20
-5.278168543027917
 30
0.0
 10
-6.233758281652753
 20
-5.258562797020295
 30
0.0
 10
-6.2027372572684705
 20
-5.240596732302216
 30
0.0
 10
-6.176506936087032
 20
-5.224511191496475
 30
0.0
 10
-6.154909825979946
 20
-5.210508212379088
 30
0.0
 10
-6.137858717359874
 20
-5.198833827011756
 30
0.0
 10
-6.129515052565257
 20
-5.192807708212334
 30
0.0
 10
-6.087509165870941
 20
-5.164360991241875
 30
0.0
 10
-6.048052807888488
 20
-5.14122502655183
 30
0.0
 10
-6.011384312757381
 20
-5.123251024792927
 30
0.0
 10
-5.97773604400106
 20
-5.110281686925497
 30
0.0
 10
-5.947334522375907
 20
-5.102150684084307
 30
0.0
 10
-5.920398659593816
 20
-5.098685570241584
 30
0.0
 10
-5.8971421211412265
 20
-5.0997032298720635
 30
0.0
 10
-5.877770619392274
 20
-5.105014574213703
 30
0.0
 10
-5.862482833414167
 20
-5.114422640175295
 30
0.0
 10
-5.737813411176071
 20
-5.254053863237571
 30
0.0
 10
-5.6039664731627745
 20
-5.396586375380194
 30
0.0
 10
-5.472438838216381
 20
-5.529777308029664
 30
0.0
 10
-5.464009264947048
 20
-5.545625664404195
 30
0.0
 10
-5.459924747988374
 20
-5.565292442990482
 30
0.0
 10
-5.460369386477503
 20
-5.588566989431971
 30
0.0
 10
-5.465519379915172
 20
-5.615231871636037
 30
0.0
 10
-5.475542805405513
 20
-5.645063145158212
 30
0.0
 10
-5.490599403279281
 20
-5.677830625460459
 30
0.0
 10
-5.510840371304175
 20
-5.71329816678922
 30
0.0
 10
-5.5364081676786725
 20
-5.751223947412347
 30
0.0
 10
-5.567436322997588
 20
-5.791360760949073
 30
0.0
 10
-5.57397445365475
 20
-5.799309578270764
 30
0.0
 10
-5.586696450270492
 20
-5.815593999718127
 30
0.0
 10
-5.602019432406604
 20
-5.836257831040914
 30
0.0
 10
-5.619729421718845
 20
-5.861439516412692
 30
0.0
 10
-5.639607189591853
 20
-5.891269464510332
 30
0.0
 10
-5.661428527012967
 20
-5.925869873730257
 30
0.0
 10
-5.684964519872666
 20
-5.965354565922199
 30
0.0
 10
-5.709981829432682
 20
-6.009828828799371
 30
0.0
 10
-5.736242977700385
 20
-6.059389267184081
 30
0.0
 10
-5.7635066374244595
 20
-6.114123663236341
 30
0.0
 10
-5.79152792654866
 20
-6.174110845742762
 30
0.0
 10
-5.820058706541977
 20
-6.23942056882793
 30
0.0
 10
-5.8488478847967516
 20
-6.310113399731477
 30
0.0
 10
-5.877641720399174
 20
-6.386240616376824
 30
0.0
 10
-5.9061841331756835
 20
-6.467844114336887
 30
0.0
 10
-5.93421701570119
 20
-6.554956323548161
 30
0.0
 10
-5.96148054796472
 20
-6.647600134788881
 30
0.0
 10
-5.987713514401565
 20
-6.745788836009295
 30
0.0
 10
-6.012653622995298
 20
-6.849526058585868
 30
0.0
 10
-6.016789874196462
 20
-6.86885569679837
 30
0.0
 10
-5.8286049621757705
 20
-7.045573091837566
 30
0.0
 10
-5.619755381847149
 20
-7.197311193902383
 30
0.0
 10
-5.601543180857307
 20
-7.189626194062929
 30
0.0
 10
-5.50431674002856
 20
-7.145689426221655
 30
0.0
 10
-5.4127827983905785
 20
-7.101522389829811
 30
0.0
 10
-5.3268886402656825
 20
-7.057382050538991
 30
0.0
 10
-5.246572266166355
 20
-7.013522507161339
 30
0.0
 10
-5.171762505319199
 20
-6.970194688255474
 30
0.0
 10
-5.102379137743014
 20
-6.927646052713904
 30
0.0
 10
-5.038333025295044
 20
-6.8861202943681965
 30
0.0
 10
-4.979526252031195
 20
-6.845857051167948
 30
0.0
 10
-4.925852273422036
 20
-6.807091619004289
 30
0.0
 10
-4.877196074412672
 20
-6.770054670548552
 30
0.0
 10
-4.833434336131811
 20
-6.7349719793197425
 30
0.0
 10
-4.794435611074666
 20
-6.702064149248326
 30
0.0
 10
-4.7600605066120725
 20
-6.671546350016494
 30
0.0
 10
-4.730161913514724
 20
-6.643628020608538
 30
0.0
 10
-4.704583450262684
 20
-6.618511777796995
 30
0.0
 10
-4.6831775141833125
 20
-6.596408378219996
 30
0.0
 10
-4.665741316301222
 20
-6.577474345565641
 30
0.0
 10
-4.652129201192968
 20
-6.561926294203555
 30
0.0
 10
-4.6455463027750685
 20
-6.55401451195116
 30
0.0
 10
-4.611934519088271
 20
-6.5160150616819115
 30
0.0
 10
-4.579471435595221
 20
-6.483793558652075
 30
0.0
 10
-4.548424901136627
 20
-6.457265159293645
 30
0.0
 10
-4.519059097788977
 20
-6.436335292863962
 30
0.0
 10
-4.491634794049278
 20
-6.420899189446298
 30
0.0
 10
-4.466406909698634
 20
-6.410844261850876
 30
0.0
 10
-4.44362793650864
 20
-6.406046283909099
 30
0.0
 10
-4.423544148483815
 20
-6.406373266017207
 30
0.0
 10
-4.406396965552053
 20
-6.411683842516496
 30
0.0
 10
-4.25091938935655
 20
-6.515924269393112
 30
0.0
 10
-4.0858311046661715
 20
-6.620692480655931
 30
0.0
 10
-3.9253124142220415
 20
-6.716989382541347
 30
0.0
 10
-3.913206345539336
 20
-6.730243484032084
 30
0.0
 10
-3.9043592222442998
 20
-6.7482766165428325
 30
0.0
 10
-3.8990017472693124
 20
-6.770930527404656
 30
0.0
 10
-3.8973586576463677
 20
-6.798038434587905
 30
0.0
 10
-3.8996484427469267
 20
-6.829425228350705
 30
0.0
 10
-3.9060830689323005
 20
-6.864907681630388
 30
0.0
 10
-3.9168677108750916
 20
-6.904294668982279
 30
0.0
 10
-3.932200489806791
 20
-6.947387393861927
 30
0.0
 10
-3.9522722189399713
 20
-6.993979624040154
 30
0.0
 10
-3.9566281517169313
 20
-7.003304681624229
 30
0.0
 10
-3.9649006924825856
 20
-7.022241329929749
 30
0.0
 10
-3.9746033890778407
 20
-7.046066639691861
 30
0.0
 10
-3.985494556015717
 20
-7.074861491355556
 30
0.0
 10
-3.9973294208318007
 20
-7.108697676629698
 30
0.0
 10
-4.009860428946438
 20
-7.14763779630932
 30
0.0
 10
-4.022837551664832
 20
-7.191735167697375
 30
0.0
 10
-4.0360085970247415
 20
-7.2410337417154595
 30
0.0
 10
-4.049119523199007
 20
-7.295568029792558
 30
0.0
 10
-4.061914754140211
 20
-7.355363040603803
 30
0.0
 10
-4.074137497290172
 20
-7.420434226693584
 30
0.0
 10
-4.085530062700745
 20
-7.490787441189114
 30
0.0
 10
-4.0958341838402825
 20
-7.566418904306554
 30
0.0
 10
-4.104791339231389
 20
-7.647315180179837
 30
0.0
 10
-4.112143074924754
 20
-7.733453163605952
 30
0.0
 10
-4.117631327417423
 20
-7.82480007696888
 30
0.0
 10
-4.120998746716789
 20
-7.921313477281754
 30
0.0
 10
-4.121989019246602
 20
-8.022941273360116
 30
0.0
 10
-4.120347190289847
 20
-8.129621753122091
 30
0.0
 10
-4.119546408007488
 20
-8.149372759049934
 30
0.0
 10
-3.893325842013416
 20
-8.273738567626856
 30
0.0
 10
-3.6533019238172235
 20
-8.368770759622103
 30
0.0
 10
-3.6375730743543087
 20
-8.356798007975145
 30
0.0
 10
-3.554327810787949
 20
-8.290062361890527
 30
0.0
 10
-3.4766534715423636
 20
-8.224519348546728
 30
0.0
 10
-3.4044350923409206
 20
-8.160404750690933
 30
0.0
 10
-3.3375494297190946
 20
-8.097949265508298
 30
0.0
 10
-3.2758651454692784
 20
-8.037378238723736
 30
0.0
 10
-3.2192429993444396
 20
-7.978911404955533
 30
0.0
 10
-3.1675360494490143
 20
-7.922762634190752
 30
0.0
 10
-3.1205898605137006
 20
-7.86913968500705
 30
0.0
 10
-3.0782427195927684
 20
-7.818243964495454
 30
0.0
 10
-3.0403258590801627
 20
-7.7702702952401275
 30
0.0
 10
-3.006663686802734
 20
-7.725406689513623
 30
0.0
 10
-2.977074022954199
 20
-7.683834130903132
 30
0.0
 10
-2.9513683436571774
 20
-7.645726363602394
 30
0.0
 10
-2.9293520760319454
 20
-7.611249662107236
 30
0.0
 10
-2.9108233628292797
 20
-7.5805613871091575
 30
0.0
 10
-2.895586825541368
 20
-7.553828966646942
 30
0.0
 10
-2.883407120323056
 20
-7.531153575361792
 30
0.0
 10
-2.8740892979807255
 20
-7.512708799253767
 30
0.0
 10
-2.86968079365735
 20
-7.503408479924816
 30
0.0
 10
-2.846575064962605
 20
-7.458243941569396
 30
0.0
 10
-2.8231450308856965
 20
-7.418961495737533
 30
0.0
 10
-2.799671225040815
 20
-7.385545575675895
 30
0.0
 10
-2.7764330485260396
 20
-7.357970281166399
 30
0.0
 10
-2.753709132535294
 20
-7.336198984320011
 30
0.0
 10
-2.7317743873715155
 20
-7.320186031052147
 30
0.0
 10
-2.7109042661048464
 20
-7.309873890137924
 30
0.0
 10
-2.6913701300687545
 20
-7.305195964524091
 30
0.0
 10
-2.673440970749869
 20
-7.306075368508693
 30
0.0
 10
-2.496924468515849
 20
-7.36837518980952
 30
0.0
 10
-2.310967941227725
 20
-7.428796128168363
 30
0.0
 10
-2.131544174952912
 20
-7.482148310789033
 30
0.0
 10
-2.1165222796751744
 20
-7.491975353454139
 30
0.0
 10
-2.1034684473378467
 20
-7.507241751852473
 30
0.0
 10
-2.0926454887548362
 20
-7.527851598599927
 30
0.0
 10
-2.0843125574351493
 20
-7.553699241258128
 30
0.0
 10
-2.0787248265268166
 20
-7.584669407576882
 30
0.0
 10
-2.0761331697956704
 20
-7.620637340799107
 30
0.0
 10
-2.076783846939954
 20
-7.6614689449036
 30
0.0
 10
-2.08091819353856
 20
-7.707020939651624
 30
0.0
 10
-2.0887723159259117
 20
-7.7571410252950175
 30
0.0
 10
-2.0906723515462935
 20
-7.767256395478308
 30
0.0
 10
-2.093975642301277
 20
-7.787655411384826
 30
0.0
 10
-2.0974483972445728
 20
-7.813145167750551
 30
0.0
 10
-2.1008364097344683
 20
-7.843743899276077
 30
0.0
 10
-2.103884743411645
 20
-7.879460269765163
 30
0.0
 10
-2.1063380528941376
 20
-7.92029334897327
 30
0.0
 10
-2.107940905124311
 20
-7.966232599534337
 30
0.0
 10
-2.108438101064436
 20
-8.017257873980304
 30
0.0
 10
-2.1075749974351212
 20
-8.073339421866827
 30
0.0
 10
-2.105097828175855
 20
-8.13443790699712
 30
0.0
 10
-2.1007540254473556
 20
-8.200504434733158
 30
0.0
 10
-2.0942925394915157
 20
-8.271480589431272
 30
0.0
 10
-2.0854641576887123
 20
-8.34729848178187
 30
0.0
 10
-2.0740218218531665
 20
-8.427880806354281
 30
0.0
 10
-2.0597209438719797
 20
-8.513140908954442
 30
0.0
 10
-2.042319719243317
 20
-8.602982863951985
 30
0.0
 10
-2.0215794382394368
 20
-8.697301561443895
 30
0.0
 10
-1.997264794397201
 20
-8.795982804191713
 30
0.0
 10
-1.969144190041537
 20
-8.898903414252286
 30
0.0
 10
-1.9634566903715263
 20
-8.917834759553902
 30
0.0
 10
-1.7134147405465106
 20
-8.982034620530222
 30
0.0
 10
-1.457298070009236
 20
-9.014389680328884
 30
0.0
 10
-1.4450408735316642
 20
-8.998881468893101
 30
0.0
 10
-1.381007393292231
 20
-8.913540190645174
 30
0.0
 10
-1.3220732208400778
 20
-8.83073950892815
 30
0.0
 10
-1.268068366927936
 20
-8.750679208487659
 30
0.0
 10
-1.218816087954401
 20
-8.673552089329272
 30
0.0
 10
-1.1741331307402683
 20
-8.599543755043543
 30
0.0
 10
-1.1338299837494854
 20
-8.528832409240337
 30
0.0
 10
-1.0977111342333936
 20
-8.461588659824365
 30
0.0
 10
-1.0655753313334275
 20
-8.397975331765831
 30
0.0
 10
-1.0372158547066737
 20
-8.338147288207411
 30
0.0
 10
-1.0124207884852918
 20
-8.282251260226621
 30
0.0
 10
-0.9909733002962965
 20
-8.230425685347017
 30
0.0
 10
-0.9726519250591464
 20
-8.182800554948125
 30
0.0
 10
-0.9572308532968037
 20
-8.139497270748548
 30
0.0
 10
-0.9444802742087495
 20
-8.10062849511757
 30
0.0
 10
-0.9341655382498217
 20
-8.066296445114665
 30
0.0
 10
-0.9260557674272336
 20
-8.03661470005984
 30
0.0
 10
-0.919897850545389
 20
-8.011622728372597
 30
0.0
 10
-0.9154597940153058
 20
-7.99144018063664
 30
0.0
 10
-0.913502686326435
 20
-7.981335697498753
 30
0.0
 10
-0.9023548305345608
 20
-7.9318439251055874
 30
0.0
 10
-0.8894300410844829
 20
-7.887968797014041
 30
0.0
 10
-0.8750039094051661
 20
-7.849765001401825
 30
0.0
 10
-0.8593534998177241
 20
-7.817276935981389
 30
0.0
 10
-0.8427577987903475
 20
-7.790538416356362
 30
0.0
 10
-0.8254944335224249
 20
-7.769573590161398
 30
0.0
 10
-0.8078445106532028
 20
-7.754395236013772
 30
0.0
 10
-0.7900874282145182
 20
-7.745006333948522
 30
0.0
 10
-0.7725028475273501
 20
-7.741399309231864
 30
0.0
 10
-0.5860386002724608
 20
-7.757843998061854
 30
0.0
 10
-0.3908981628963713
 20
-7.770121193746968
 30
0.0
 10
-0.20384317590037573
 20
-7.777176343253232
 30
0.0
 10
-0.18684933495457148
 20
-7.782958857860724
 30
0.0
 10
-0.1704090138693439
 20
-7.794499278189393
 30
0.0
 10
-0.15480061797013825
 20
-7.811770068353619
 30
0.0
 10
-0.14030143367490258
 20
-7.834733344037577
 30
0.0
 10
-0.12718728444088565
 20
-7.863340913462176
 30
0.0
 10
-0.11573218811708365
 20
-7.897534329101782
 30
0.0
 10
-0.10620801602486164
 20
-7.937244950104857
 30
0.0
 10
-0.09888415408852087
 20
-7.98239401536272
 30
0.0
 10
-0.09402716633500459
 20
-8.032892727161526
 30
0.0
 10
-0.09335191857293797
 20
-8.043162824033686
 30
0.0
 10
-0.09147840141046043
 20
-8.063742462349465
 30
0.0
 10
-0.08850300873681166
 20
-8.089295050181574
 30
0.0
 10
-0.08417498549374697
 20
-8.11977503073292
 30
0.0
 10
-0.07824525001609267
 20
-8.155127395523499
 30
0.0
 10
-0.07046671040901425
 20
-8.195287741719884
 30
0.0
 10
-0.06059457905046855
 20
-8.240182339388467
 30
0.0
 10
-0.04838668492133085
 20
-8.289728208611047
 30
0.0
 10
-0.033603783463738865
 20
-8.343833206399776
 30
0.0
 10
-0.016009863658951337
 20
-8.40239612332387
 30
0.0
 10
0.004627547847186738
 20
-8.465306789792816
 30
0.0
 10
0.028537086243151957
 20
-8.532446191861796
 30
0.0
 10
0.0559432512911088
 20
-8.60368659643046
 30
0.0
 10
0.08706611431079184
 20
-8.678891685888056
 30
0.0
 10
0.12212102920802241
 20
-8.75791670185117
 30
0.0
 10
0.16131834801737105
 20
-8.840608598035233
 30
0.0
 10
0.20486314119160504
 20
-8.926806202062863
 30
0.0
 10
0.25295492291027666
 20
-9.016340386074067
 30
0.0
 10
0.3057873816728355
 20
-9.109034245987608
 30
0.0
 10
0.31600423220907015
 20
-9.125956404613078
 30
0.0
 10
0.5741565105675429
 20
-9.125956404613078
 30
0.0
 10
0.830273181104818
 20
-9.09360134481442
 30
0.0
 10
0.8382885598635451
 20
-9.075532111549531
 30
0.0
 10
0.8790867977139415
 20
-8.976947507513879
 30
0.0
 10
0.915577752572769
 20
-8.88209182877552
 30
0.0
 10
0.9479757576083513
 20
-8.791116308868196
 30
0.0
 10
0.9764999511084772
 20
-8.704163736284478
 30
0.0
 10
1.00137398675274
 20
-8.62136831032437
 30
0.0
 10
1.0228257396594302
 20
-8.542855506401112
 30
0.0
 10
1.0410870086452555
 20
-8.468741950414968
 30
0.0
 10
1.0563932148264539
 20
-8.399135302836976
 30
0.0
 10
1.068983096943711
 20
-8.334134152240658
 30
0.0
 10
1.0790984036733047
 20
-8.27382791854365
 30
0.0
 10
1.0869835832126087
 20
-8.218296765981764
 30
0.0
 10
1.092885470450919
 20
-8.16761152589041
 30
0.0
 10
1.0970529720250206
 20
-8.121833629396594
 30
0.0
 10
1.0997366967984448
 20
-8.081015047752048
 30
0.0
 10
1.1011893427183894
 20
-8.045196431710446
 30
0.0
 10
1.10166278034922
 20
-8.014430375266627
 30
0.0
 10
1.1014119843296768
 20
-7.988692160672445
 30
0.0
 10
1.1006914156336978
 20
-7.968039985009024
 30
0.0
 10
1.1000741544142332
 20
-7.957766239899443
 30
0.0
 10
1.0985636765248878
 20
-7.907056983546001
 30
0.0
 10
1.1001711092929363
 20
-7.861346008854199
 30
0.0
 10
1.1046431198976756
 20
-7.820754822673451
 30
0.0
 10
1.111722389765225
 20
-7.785395330975186
 30
0.0
 10
1.1211471068989638
 20
-7.755369668096957
 30
0.0
 10
1.1326543715410307
 20
-7.730770266107964
 30
0.0
 10
1.1459750864470568
 20
-7.7116794105401105
 30
0.0
 10
1.160839372492731
 20
-7.69816947127017
 30
0.0
 10
1.176974470672043
 20
-7.6903026604809055
 30
0.0
 10
1.3616702285252456
 20
-7.659858936561537
 30
0.0
 10
1.5537331846326339
 20
-7.62322096821566
 30
0.0
 10
1.7366660395767344
 20
-7.583535783617014
 30
0.0
 10
1.754564040665005
 20
-7.584910433507502
 30
0.0
 10
1.7733578446610763
 20
-7.591999748714558
 30
0.0
 10
1.792770944958465
 20
-7.604846295032016
 30
0.0
 10
1.8125253451557104
 20
-7.623482336677488
 30
0.0
 10
1.832341902488571
 20
-7.647929790409701
 30
0.0
 10
1.8519406725741066
 20
-7.678200190407468
 30
0.0
 10
1.8710412551428255
 20
-7.714294663946054
 30
0.0
 10
1.8893631404333728
 20
-7.756203917896958
 30
0.0
 10
1.906626055924452
 20
-7.803908236067586
 30
0.0
 10
1.909834158768689
 20
-7.813687751671363
 30
0.0
 10
1.9167667638749943
 20
-7.833154918034405
 30
0.0
 10
1.9260033493011743
 20
-7.857164774263568
 30
0.0
 10
1.9377754626594808
 20
-7.885610834565165
 30
0.0
 10
1.9523106802038637
 20
-7.91837787456054
 30
0.0
 10
1.9698323146495325
 20
-7.955342065494263
 30
0.0
 10
1.9905591272763807
 20
-7.996371117588064
 30
0.0
 10
2.0147050445891534
 20
-8.041324432407041
 30
0.0
 10
2.042478879808734
 20
-8.090053264102647
 30
0.0
 10
2.0740840594717964
 20
-8.14240088937086
 30
0.0
 10
2.109718355291552
 20
-8.198202786029226
 30
0.0
 10
2.149573621897093
 20
-8.257286819915628
 30
0.0
 10
2.1938355400474157
 20
-8.31947344007943
 30
0.0
 10
2.2426833663058257
 20
-8.384575882066617
 30
0.0
 10
2.296289688893148
 20
-8.452400379006045
 30
0.0
 10
2.3548201901847365
 20
-8.522746380419864
 30
0.0
 10
2.4184334160276406
 20
-8.595406778509542
 30
0.0
 10
2.487280552108163
 20
-8.670168141719012
 30
0.0
 10
2.5615052075893736
 20
-8.746810955362982
 30
0.0
 10
2.5756094466976927
 20
-8.760660645850523
 30
0.0
 10
2.8256513965227152
 20
-8.6964607848742
 30
0.0
 10
3.065675314718909
 20
-8.601428592878955
 30
0.0
 10
3.0689452400328796
 20
-8.581933694164988
 30
0.0
 10
3.083944732164676
 20
-8.476300197581981
 30
0.0
 10
3.095699608532053
 20
-8.3753496529722
 30
0.0
 10
3.1044550788831615
 20
-8.279175240098379
 30
0.0
 10
3.1104589069276196
 20
-8.18786076401396
 30
0.0
 10
3.113961093862181
 20
-8.101480587492818
 30
0.0
 10
3.115213560155622
 20
-8.020099573669906
 30
0.0
 10
3.1144698259205525
 20
-7.94377303840679
 30
0.0
 10
3.1119846901563295
 20
-7.8725467129720075
 30
0.0
 10
3.108013909168315
 20
-7.806456716687268
 30
0.0
 10
3.1028138744828047
 20
-7.745529539728039
 30
0.0
 10
3.0966412905422995
 20
-7.6897820360286255
 30
0.0
 10
3.089752852500965
 20
-7.6392214262870235
 30
0.0
 10
3.082404924435925
 20
-7.593845311095002
 30
0.0
 10
3.074853166597156
 20
-7.553641705041856
 30
0.0
 10
3.06735244739251
 20
-7.518587138339107
 30
0.0
 10
3.0601598040040554
 20
-7.4886699149822995
 30
0.0
 10
3.0535160535193957
 20
-7.463802684162661
 30
0.0
 10
3.0476821355785892
 20
-7.443978532722099
 30
0.0
 10
3.0445292902433363
 20
-7.434181062830251
 30
0.0
 10
3.030455387553708
 20
-7.385440571588818
 30
0.0
 10
3.0206444627271862
 20
-7.3407659389498505
 30
0.0
 10
3.0148813593841477
 20
-7.3003378557122485
 30
0.0
 10
3.0129446729702933
 20
-7.264328704642671
 30
0.0
 10
3.0146062165711967
 20
-7.232902521336544
 30
0.0
 10
3.019634336829187
 20
-7.206214214450758
 30
0.0
 10
3.0277888542643088
 20
-7.184410406129262
 30
0.0
 10
3.038826366157703
 20
-7.1676283088250425
 30
0.0
 10
3.0524981542698115
 20
-7.1559960126171696
 30
0.0
 10
3.2238203089919293
 20
-7.0805767670864785
 30
0.0
 10
3.4007377619402472
 20
-6.997325733005804
 30
0.0
 10
3.568054140776336
 20
-6.9133937804024805
 30
0.0
 10
3.5857317047744526
 20
-6.910274191267736
 30
0.0
 10
3.6056981078575188
 20
-6.912466953606042
 30
0.0
 10
3.6276961160650174
 20
-6.920082060325313
 30
0.0
 10
3.6514644905482774
 20
-6.933219896897147
 30
0.0
 10
3.676738308802558
 20
-6.951971111507534
 30
0.0
 10
3.7032492898461196
 20
-6.976416495304857
 30
0.0
 10
3.7307261230415127
 20
-7.006626872860338
 30
0.0
 10
3.7588948002502813
 20
-7.042663002947094
 30
0.0
 10
3.7874789510100575
 20
-7.084575489734673
 30
0.0
 10
3.793018332036184
 20
-7.09324994113814
 30
0.0
 10
3.8045744240111503
 20
-7.1103814418906275
 30
0.0
 10
3.8194918335577492
 20
-7.131339938947889
 30
0.0
 10
3.8379683518541916
 20
-7.155964708413695
 30
0.0
 10
3.8601957502901985
 20
-7.184087549982214
 30
0.0
 10
3.886359530842172
 20
-7.215532989592125
 30
0.0
 10
3.916638682872094
 20
-7.250118489873792
 30
0.0
 10
3.9512054465812674
 20
-7.287654668192363
 30
0.0
 10
3.99022508335097
 20
-7.327945522087305
 30
0.0
 10
4.033855653198358
 20
-7.370788661882934
 30
0.0
 10
4.082247799471603
 20
-7.415975550338653
 30
0.0
 10
4.135544541308477
 20
-7.463291748897519
 30
0.0
 10
4.193881073459832
 20
-7.512517170605175
 30
0.0
 10
4.257384574383415
 20
-7.5634263392618655
 30
0.0
 10
4.326174022262404
 20
-7.615788654593853
 30
0.0
 10
4.400360019379956
 20
-7.669368663254101
 30
0.0
 10
4.480044624958741
 20
-7.723926335367602
 30
0.0
 10
4.565321196639121
 20
-7.779217346371828
 30
0.0
 10
4.656274240755911
 20
-7.834993363892424
 30
0.0
 10
4.673379647221376
 20
-7.844900359253106
 30
0.0
 10
4.899600213215449
 20
-7.720534550676183
 30
0.0
 10
5.1084497935440725
 20
-7.568796448611369
 30
0.0
 10
5.1067688039798655
 20
-7.549100820631743
 30
0.0
 10
5.095027077138147
 20
-7.443055772584517
 30
0.0
 10
5.081307272900501
 20
-7.342353456091278
 30
0.0
 10
5.065870070164609
 20
-7.24702314231657
 30
0.0
 10
5.048976290156831
 20
-7.157084387094986
 30
0.0
 10
5.030886573096447
 20
-7.0725470441877025
 30
0.0
 10
5.011861055713175
 20
-6.9934112888620605
 30
0.0
 10
4.992159049814463
 20
-6.919667651241915
 30
0.0
 10
4.972038722324575
 20
-6.851297059929511
 30
0.0
 10
4.9517567770042765
 20
-6.788270895484924
 30
0.0
 10
4.931568138207343
 20
-6.730551053866303
 30
0.0
 10
4.911725636937188
 20
-6.678090019711775
 30
0.0
 10
4.892479699512247
 20
-6.630830949378905
 30
0.0
 10
4.874078039152183
 20
-6.58870776368787
 30
0.0
 10
4.856765303419651
 20
-6.551645273652962
 30
0.0
 10
4.840782516863758
 20
-6.519557363636679
 30
0.0
 10
4.826375732692808
 20
-6.492368782538243
 30
0.0
 10
4.813756479019988
 20
-6.469935035060822
 30
0.0
 10
4.803175778354224
 20
-6.4521845321862585
 30
0.0
 10
4.79768545377095
 20
-6.443478948578023
 30
0.0
 10
4.771932441347222
 20
-6.399769766768287
 30
0.0
 10
4.751319615415038
 20
-6.358938547652666
 30
0.0
 10
4.735683515102475
 20
-6.3212138125121164
 30
0.0
 10
4.724852561537235
 20
-6.286817589465322
 30
0.0
 10
4.718646530710128
 20
-6.255965508405838
 30
0.0
 10
4.7168795712961
 20
-6.228865221097621
 30
0.0
 10
4.719355512939652
 20
-6.205718473488119
 30
0.0
 10
4.725872723215374
 20
-6.186718699043482
 30
0.0
 10
4.736222152531878
 20
-6.172051817368332
 30
0.0
 10
4.88340590306291
 20
-6.056395918795597
 30
0.0
 10
5.034061478626536
 20
-5.931762787627299
 30
0.0
 10
5.1752482779257445
 20
-5.808857820281494
 30
0.0
 10
5.191594658474173
 20
-5.801440007379899
 30
0.0
 10
5.21147909810723
 20
-5.798598437527325
 30
0.0
 10
5.234679798466147
 20
-5.800503619486833
 30
0.0
 10
5.260968692852671
 20
-5.8073177523956385
 30
0.0
 10
5.290111725076855
 20
-5.819194520108087
 30
0.0
 10
5.321869134638907
 20
-5.8362788943371475
 30
0.0
 10
5.355995747978586
 20
-5.858706946781714
 30
0.0
 10
5.392241275519399
 20
-5.886605670419354
 30
0.0
 10
5.430350614230481
 20
-5.920092810135679
 30
0.0
 10
5.43787321375621
 20
-5.927117149654754
 30
0.0
 10
5.453326680840716
 20
-5.940836549599155
 30
0.0
 10
5.472987598803526
 20
-5.9574267880344465
 30
0.0
 10
5.497007574441657
 20
-5.97668300183536
 30
0.0
 10
5.5255305245789
 20
-5.998394583412698
 30
0.0
 10
5.558692484681445
 20
-6.022345439079868
 30
0.0
 10
5.596621425633469
 20
-6.048314253370131
 30
0.0
 10
5.639437078847531
 20
-6.076074759056132
 30
0.0
 10
5.68725076988493
 20
-6.105396012620795
 30
0.0
 10
5.7401652607511195
 20
-6.136042674904438
 30
0.0
 10
5.798274600953642
 20
-6.167775296770086
 30
0.0
 10
5.861663987720531
 20
-6.200350609229155
 30
0.0
 10
5.930409635011093
 20
-6.233521818196338
 30
0.0
 10
6.004578652087281
 20
-6.267038903225007
 30
0.0
 10
6.084228931257808
 20
-6.300648920102118
 30
0.0
 10
6.169409045165415
 20
-6.334096307011185
 30
0.0
 10
6.260158153652086
 20
-6.367123193960535
 30
0.0
 10
6.3565059203083525
 20
-6.399469715192007
 30
0.0
 10
6.458472438796966
 20
-6.430874324278567
 30
0.0
 10
6.477504217022067
 20
-6.436216131558497
 30
0.0
 10
6.665689129042753
 20
-6.259498736519308
 30
0.0
 10
6.830241584276731
 20
-6.06058898739136
 30
0.0
 10
6.823715302590914
 20
-6.041930178887488
 30
0.0
 10
6.785970132656198
 20
-5.942136779751256
 30
0.0
 10
6.747637713571689
 20
-5.848010188277043
 30
0.0
 10
6.708977813970752
 20
-5.759513927816281
 30
0.0
 10
6.670247924239604
 20
-5.676602076219707
 30
0.0
 10
6.631702946636508
 20
-5.599219359087748
 30
0.0
 10
6.59359488880467
 20
-5.527301252807433
 30
0.0
 10
6.55617256073184
 20
-5.46077409679206
 30
0.0
 10
6.519681275689865
 20
-5.399555215303638
 30
0.0
 10
6.484362555253535
 20
-5.343553048405276
 30
0.0
 10
6.450453838769408
 20
-5.29266729205489
 30
0.0
 10
6.4181881975000215
 20
-5.246789047159364
 30
0.0
 10
6.387794053721492
 20
-5.2058009774309415
 30
0.0
 10
6.359494905063396
 20
-5.1695774759161015
 30
0.0
 10
6.333509014294967
 20
-5.137984874454631
 30
0.0
 10
6.31004841764771
 20
-5.110879822522214
 30
0.0
 10
6.2893327239281716
 20
-5.08812824222517
 30
0.0
 10
6.271530881185822
 20
-5.069537572949527
 30
0.0
 10
6.256868222131027
 20
-5.054976048018353
 30
0.0
 10
6.249385395585301
 20
-5.047909354528731
 30
0.0
 10
6.21357142991101
 20
-5.011977890794922
 30
0.0
 10
6.183451882535153
 20
-4.977555660866401
 30
0.0
 10
6.15892525894126
 20
-4.944904657673659
 30
0.0
 10
6.139880586870598
 20
-4.9142826038441365
 30
0.0
 10
6.126196929356532
 20
-4.885943174750278
 30
0.0
 10
6.117745914828892
 20
-4.8601337177390915
 30
0.0
 10
6.114387708161534
 20
-4.837098426121672
 30
0.0
 10
6.115975116529338
 20
-4.8170748002412545
 30
0.0
 10
6.1223518943437405
 20
-4.8002949072154975
 30
0.0
 10
6.236149144333852
 20
-4.651669441060682
 30
0.0
 10
6.351076598627676
 20
-4.493485370804658
 30
0.0
 10
6.457262532541309
 20
-4.339329959827562
 30
0.0
 10
6.47125062643241
 20
-4.328080011624531
 30
0.0
 10
6.48980369014346
 20
-4.320382655865475
 30
0.0
 10
6.512749297324037
 20
-4.316458203475937
 30
0.0
 10
6.53990688369573
 20
-4.316520475690424
 30
0.0
 10
6.571087965994596
 20
-4.3207765355098635
 30
0.0
 10
6.60609636923677
 20
-4.329426426105917
 30
0.0
 10
6.6447284620956975
 20
-4.342662916419871
 30
0.0
 10
6.686773400171442
 20
-4.360671254197916
 30
0.0
 10
6.732013376926271
 20
-4.383628926697522
 30
0.0
 10
6.741046522357212
 20
-4.38856178924651
 30
0.0
 10
6.759426366380462
 20
-4.398007048027893
 30
0.0
 10
6.782595424976083
 20
-4.409186602145697
 30
0.0
 10
6.810649594547268
 20
-4.421864321549205
 30
0.0
 10
6.843675894528553
 20
-4.435800424615246
 30
0.0
 10
6.881752346267267
 20
-4.450751775993022
 30
0.0
 10
6.92494786128849
 20
-4.466472188183406
 30
0.0
 10
6.973322139051044
 20
-4.482712726568587
 30
0.0
 10
7.026925574301804
 20
-4.499222017605477
 30
0.0
 10
7.0857991741197885
 20
-4.5157465598753115
 30
0.0
 10
7.14997448469546
 20
-4.53203103781465
 30
0.0
 10
7.219473528091944
 20
-4.5478186374885015
 30
0.0
 10
7.29430874867364
 20
-4.562851364660628
 30
0.0
 10
7.374482969784974
 20
-4.5768703643417075
 30
0.0
 10
7.459989360273518
 20
-4.58961624179456
 30
0.0
 10
7.55081141114382
 20
-4.600829384622064
 30
0.0
 10
7.646922922300285
 20
-4.610250285635842
 30
0.0
 10
7.748287999411126
 20
-4.617619866203403
 30
0.0
 10
7.854861060908301
 20
-4.622679799768945
 30
0.0
 10
7.874623374273171
 20
-4.623120773570934
 30
0.0
 10
8.012948282202522
 20
-4.405155595920899
 30
0.0
 10
8.122864176397906
 20
-4.1715724308064095
 30
0.0
 10
8.111902672870784
 20
-4.155122843338888
 30
0.0
 10
8.050525727687091
 20
-4.067851479395827
 30
0.0
 10
7.989989260623576
 20
-3.9862149328563543
 30
0.0
 10
7.930535807830687
 20
-3.910113271220768
 30
0.0
 10
7.872403349786547
 20
-3.839437979813477
 30
0.0
 10
7.815825034342049
 20
-3.774072129167967
 30
0.0
 10
7.761028905486854
 20
-3.7138905510468665
 30
0.0
 10
7.708237637742419
 20
-3.6587600225184773
 30
0.0
 10
7.657668276793102
 20
-3.6085394583252524
 30
0.0
 10
7.609531986338921
 20
-3.5630801110809016
 30
0.0
 10
7.564033801531836
 20
-3.5222257792149656
 30
0.0
 10
7.521372389168902
 20
-3.4858130224336086
 30
0.0
 10
7.481739814872228
 20
-3.4536713844742484
 30
0.0
 10
7.4453213175032795
 20
-3.425623622956499
 30
0.0
 10
7.412295060785354
 20
-3.40148598940775
 30
0.0
 10
7.3828307696161195
 20
-3.3810669056575198
 30
0.0
 10
7.357107809571382
 20
-3.3641818916263913
 30
0.0
 10
7.335241933009605
 20
-3.350602420674813
 30
0.0
 10
7.317418624359677
 20
-3.340144827851997
 30
0.0
 10
7.308413469363278
 20
-3.335161050822423
 30
0.0
 10
7.2647888736162916
 20
-3.3092650111776174
 30
0.0
 10
7.227055126730335
 20
-3.283414645738713
 30
0.0
 10
7.1951790778181275
 20
-3.2578889571063643
 30
0.0
 10
7.169117334029647
 20
-3.23296516875626
 30
0.0
 10
7.1488158443552035
 20
-3.2089190621831256
 30
0.0
 10
7.1342117830373795
 20
-3.186022138573524
 30
0.0
 10
7.12523043653464
 20
-3.164545695038386
 30
0.0
 10
7.1217883002886975
 20
-3.1447563757779995
 30
0.0
 10
7.123791750198773
 20
-3.126917813792572
 30
0.0
 10
7.197052199914076
 20
-2.9546614647004144
 30
0.0
 10
7.269030218311206
 20
-2.7728657422511653
 30
0.0
 10
7.333543234086922
 20
-2.59714603905841
 30
0.0
 10
7.344294117936907
 20
-2.582770831173956
 30
0.0
 10
7.36035004849959
 20
-2.5707013426796546
 30
0.0
 10
7.3815988056146296
 20
-2.5611938437178297
 30
0.0
 10
7.407918672941143
 20
-2.554500342445742
 30
0.0
 10
7.439178583237853
 20
-2.5508682704810246
 30
0.0
 10
7.475238273432546
 20
-2.5505401730058486
 30
0.0
 10
7.515948449337497
 20
-2.5537534038223577
 30
0.0
 10
7.5611509598584075
 20
-2.5607398256481777
 30
0.0
 10
7.6106789805364805
 20
-2.571725515935504
 30
0.0
 10
7.620655086123621
 20
-2.574256951618651
 30
0.0
 10
7.640806433889299
 20
-2.5788345888905515
 30
0.0
 10
7.66602783595633
 20
-2.5839010061901218
 30
0.0
 10
7.696353452810393
 20
-2.5892036434607117
 30
0.0
 10
7.731807938745659
 20
-2.594488611406413
 30
0.0
 10
7.7724063986224055
 20
-2.599501010100506
 30
0.0
 10
7.818154354642052
 20
-2.6039852488774575
 30
0.0
 10
7.8690477231731295
 20
-2.6076853672065554
 30
0.0
 10
7.9250728016608
 20
-2.6103453562428993
 30
0.0
 10
7.9862062656320605
 20
-2.611709480735095
 30
0.0
 10
8.05241517579713
 20
-2.611522601109077
 30
0.0
 10
8.123656995327007
 20
-2.6095304950474723
 30
0.0
 10
8.199879617066
 20
-2.605480178889816
 30
0.0
 10
8.281021401039892
 20
-2.5991202279150705
 30
0.0
 10
8.367011221861553
 20
-2.590201095587241
 30
0.0
 10
8.457768526218231
 20
-2.578475431330276
 30
0.0
 10
8.553203400325117
 20
-2.5636983965501363
 30
0.0
 10
8.653216647300981
 20
-2.5456279786033047
 30
0.0
 10
8.75769987440455
 20
-2.5240253024127726
 30
0.0
 10
8.776950984079768
 20
-2.519537734731052
 30
0.0
  0
ENDSEC
  0
EOF
