999
DXF generated by OpenJsCad
  0
SECTION
  2
HEADER
  0
ENDSEC
  0
SECTION
  2
TABLES
  0
TABLE
  2
LTYPE
  70
1
  0
LTYPE
  2
CONTINUOUS
  3
Solid Line
  72
65
  73
0
  40
0.0
  0
ENDTAB
  0
TABLE
  2
LAYER
  70
1
  0
LAYER
  2
OpenJsCad
  62
7
  6
continuous
  0
ENDTAB
  0
TABLE
  2
STYLE
  70
0
  0
ENDTAB
  0
TABLE
  2
VIEW
  70
0
  0
ENDTAB
  0
ENDSEC
  0
SECTION
  2
BLOCKS
  0
ENDSEC
  0
SECTION
  2
ENTITIES
  0
LWPOLYLINE
  8
OpenJsCad
  90
2167
  70
1
 10
13.125336574638336
 20
-2.4402923284904383
 30
0.0
 10
13.186093213896735
 20
-2.200369785856006
 30
0.0
 10
13.20653125918199
 20
-1.9537192598418522
 30
0.0
 10
13.167362395063417
 20
-1.9268539342651603
 30
0.0
 10
13.057032286854039
 20
-1.854951911978064
 30
0.0
 10
12.950737005592096
 20
-1.7892029632260575
 30
0.0
 10
12.84870247028053
 20
-1.7293744085999974
 30
0.0
 10
12.751145814212148
 20
-1.6752264054477088
 30
0.0
 10
12.6582751745404
 20
-1.626512234181614
 30
0.0
 10
12.570289490275892
 20
-1.5829785903686913
 30
0.0
 10
12.487378309287251
 20
-1.5443658825879167
 30
0.0
 10
12.409721604164798
 20
-1.5104085356372352
 30
0.0
 10
12.337489597196726
 20
-1.4808352988899471
 30
0.0
 10
12.270842594538488
 20
-1.4553695596750582
 30
0.0
 10
12.20993080941171
 20
-1.4337297139616474
 30
0.0
 10
12.154894330066004
 20
-1.4156289197323613
 30
0.0
 10
12.10587276936453
 20
-1.4007805155363753
 30
0.0
 10
12.0629469606938
 20
-1.388877487776521
 30
0.0
 10
12.026280337288926
 20
-1.3796369299489561
 30
0.0
 10
11.99489319917884
 20
-1.372510846184857
 30
0.0
 10
11.934357307323786
 20
-1.3564709005958155
 30
0.0
 10
11.881285183052102
 20
-1.3385039421373444
 30
0.0
 10
11.83573013586995
 20
-1.3189538721071778
 30
0.0
 10
11.797733492540312
 20
-1.2981656266194812
 30
0.0
 10
11.76732402455964
 20
-1.2764864364061272
 30
0.0
 10
11.744519076357195
 20
-1.2542619791076541
 30
0.0
 10
11.729323295679434
 20
-1.2318397805397006
 30
0.0
 10
11.72172937504825
 20
-1.209566634263181
 30
0.0
 10
11.721717852561154
 20
-1.1877888428891274
 30
0.0
 10
11.729847735508304
 20
-1.111592593683398
 30
0.0
 10
11.752830028624397
 20
-0.8342375625227001
 30
0.0
 10
11.757352517105442
 20
-0.7577423960853749
 30
0.0
 10
11.760948389090201
 20
-0.7362635219428055
 30
0.0
 10
11.772104777928956
 20
-0.7155440706116203
 30
0.0
 10
11.79078388081139
 20
-0.6959288261893294
 30
0.0
 10
11.816935836266365
 20
-0.6777611179076949
 30
0.0
 10
11.850498773984926
 20
-0.6613824431342266
 30
0.0
 10
11.891398875718252
 20
-0.6471320919671951
 30
0.0
 10
11.93955044719996
 20
-0.6353467737367501
 30
0.0
 10
11.99485600103698
 20
-0.6263602457233451
 30
0.0
 10
12.057206350502154
 20
-0.6205029444027749
 30
0.0
 10
12.089338323796134
 20
-0.6186402042703356
 30
0.0
 10
12.127034275934406
 20
-0.6155601115649522
 30
0.0
 10
12.171314921952922
 20
-0.6108868221968381
 30
0.0
 10
12.222122314373161
 20
-0.6043079651810656
 30
0.0
 10
12.279387434141976
 20
-0.5955131057049398
 30
0.0
 10
12.34303025182882
 20
-0.5841940935753307
 30
0.0
 10
12.412959799102346
 20
-0.5700454098057633
 30
0.0
 10
12.489074250428459
 20
-0.552764511053107
 30
0.0
 10
12.571261014919369
 20
-0.5320521716169178
 30
0.0
 10
12.659396838037013
 20
-0.5076128218262491
 30
0.0
 10
12.753347914758972
 20
-0.47915488870738554
 30
0.0
 10
12.852970009021917
 20
-0.4463911201264156
 30
0.0
 10
12.958108587837263
 20
-0.40903892299989675
 30
0.0
 10
13.06859896152296
 20
-0.3668206844092998
 30
0.0
 10
13.184266434975235
 20
-0.3194640938890127
 30
0.0
 10
13.30492646821201
 20
-0.2667024604249258
 30
0.0
 10
13.347983007332791
 20
-0.24665052601415494
 30
0.0
 10
13.368421052618048
 20
0
 30
0.0
 10
13.347983007332793
 20
0.24665052601415305
 30
0.0
 10
13.304926468211939
 20
0.266702460424959
 30
0.0
 10
13.184266434975271
 20
0.3194640938889994
 30
0.0
 10
13.068598961522957
 20
0.3668206844093024
 30
0.0
 10
12.958108587845185
 20
0.4090389229968717
 30
0.0
 10
12.852970009016593
 20
0.446391120128084
 30
0.0
 10
12.753347914761715
 20
0.47915488870641176
 30
0.0
 10
12.65939683828298
 20
0.5076128227075093
 30
0.0
 10
12.571261014919559
 20
0.5320521716175456
 30
0.0
 10
12.489074250428645
 20
0.5527645110537361
 30
0.0
 10
12.412959799102529
 20
0.5700454098055635
 30
0.0
 10
12.343030251780394
 20
0.5841940934337037
 30
0.0
 10
12.279387422471222
 20
0.5955130495408073
 30
0.0
 10
12.222122276159169
 20
0.6043082657610296
 30
0.0
 10
12.171325338645866
 20
0.6108854733786518
 30
0.0
 10
12.127025808078557
 20
0.6155608034636725
 30
0.0
 10
12.089338323795953
 20
0.6186402042703342
 30
0.0
 10
12.05720635050215
 20
0.6205029444027338
 30
0.0
 10
11.994856001037
 20
0.6263602457232881
 30
0.0
 10
11.939550447199966
 20
0.6353467737367421
 30
0.0
 10
11.891398875718233
 20
0.647132091967146
 30
0.0
 10
11.85049882432998
 20
0.6613827709409613
 30
0.0
 10
11.816935824425995
 20
0.6777610513335867
 30
0.0
 10
11.790783880549746
 20
0.695928824896172
 30
0.0
 10
11.772104777927723
 20
0.7155440706061613
 30
0.0
 10
11.760948389090364
 20
0.7362635219434346
 30
0.0
 10
11.757352517106543
 20
0.7577423960893359
 30
0.0
 10
11.752830028627859
 20
0.8342375625230145
 30
0.0
 10
11.729847735504835
 20
1.111592593683138
 30
0.0
 10
11.721717852559417
 20
1.1877888428928534
 30
0.0
 10
11.721729375047985
 20
1.2095666342637743
 30
0.0
 10
11.729323295681548
 20
1.231839780534519
 30
0.0
 10
11.744519076828116
 20
1.2542619778751984
 30
0.0
 10
11.76732404719626
 20
1.2764863726888638
 30
0.0
 10
11.797733388926684
 20
1.2981659416688356
 30
0.0
 10
11.835730135869978
 20
1.3189538721071323
 30
0.0
 10
11.881285183052096
 20
1.338503942137335
 30
0.0
 10
11.934357307323776
 20
1.3564709005957558
 30
0.0
 10
11.99489319917885
 20
1.3725108461848168
 30
0.0
 10
12.026280337289103
 20
1.3796369299489843
 30
0.0
 10
12.062955199176347
 20
1.3888795640019087
 30
0.0
 10
12.105862716749876
 20
1.4007774705830032
 30
0.0
 10
12.154894318284969
 20
1.4156292225026228
 30
0.0
 10
12.209930830167602
 20
1.4337296604844632
 30
0.0
 10
12.270842594609563
 20
1.4553695595433331
 30
0.0
 10
12.337489597196578
 20
1.4808352988897195
 30
0.0
 10
12.409721604164508
 20
1.510408535637825
 30
0.0
 10
12.48737830928696
 20
1.5443658825885045
 30
0.0
 10
12.570289489888228
 20
1.582978591197447
 30
0.0
 10
12.658275174537854
 20
1.6265122341802019
 30
0.0
 10
12.751145814217123
 20
1.6752264054502308
 30
0.0
 10
12.848702470273212
 20
1.72937440859571
 30
0.0
 10
12.9507370055921
 20
1.7892029632260606
 30
0.0
 10
13.057032286854005
 20
1.8549519119780449
 30
0.0
 10
13.167362395063481
 20
1.9268539342652051
 30
0.0
 10
13.206531259181991
 20
1.9537192598418507
 30
0.0
 10
13.186093213896735
 20
2.2003697858560054
 30
0.0
 10
13.125336574638338
 20
2.440292328490426
 30
0.0
 10
13.079566830662397
 20
2.4529839072361117
 30
0.0
 10
12.951868163567907
 20
2.4851659520555094
 30
0.0
 10
12.8299836050784
 20
2.512838420004133
 30
0.0
 10
12.714051282401444
 20
2.5362947390592776
 30
0.0
 10
12.604198687167267
 20
2.5558322596015848
 30
0.0
 10
12.500542569365114
 20
2.571751915294099
 30
0.0
 10
12.403188841126314
 20
2.5843578812281187
 30
0.0
 10
12.312232490896523
 20
2.5939572295377786
 30
0.0
 10
12.227757507727556
 20
2.6008595828326984
 30
0.0
 10
12.149836815860006
 20
2.605376765719056
 30
0.0
 10
12.078532219632198
 20
2.6078224545539372
 30
0.0
 10
12.013894356619709
 20
2.608511769438448
 30
0.0
 10
11.955962587253607
 20
2.607761497078537
 30
0.0
 10
11.904775880966106
 20
2.6058880990394866
 30
0.0
 10
11.860311004215836
 20
2.603208200632631
 30
0.0
 10
11.822630675382795
 20
2.6000424463917824
 30
0.0
 10
11.790630343374925
 20
2.5965910321974714
 30
0.0
 10
11.728166291297857
 20
2.5921059173383587
 30
0.0
 10
11.67213589923333
 20
2.591866885848719
 30
0.0
 10
11.622701252800256
 20
2.5955659795200665
 30
0.0
 10
11.580013440136783
 20
2.6028903706063424
 30
0.0
 10
11.544212419454656
 20
2.613520984384119
 30
0.0
 10
11.515426836760518
 20
2.62713650470788
 30
0.0
 10
11.493773929420973
 20
2.643409744790066
 30
0.0
 10
11.47935938958239
 20
2.6620103285671908
 30
0.0
 10
11.472277254115822
 20
2.6826043977894862
 30
0.0
 10
11.455225755907756
 20
2.7573118927188194
 30
0.0
 10
11.386905773591646
 20
3.0271014016389257
 30
0.0
 10
11.366345281233489
 20
3.100920298571387
 30
0.0
 10
11.362772139922415
 20
3.122402965792526
 30
0.0
 10
11.366596449991778
 20
3.1456222536343232
 30
0.0
 10
11.377894408105247
 20
3.170239784800244
 30
0.0
 10
11.396730333243038
 20
3.1959146425900964
 30
0.0
 10
11.423156591414156
 20
3.2223037436492166
 30
0.0
 10
11.45721353136093
 20
3.2490622128065123
 30
0.0
 10
11.498929431309476
 20
3.2758437596892778
 30
0.0
 10
11.548320456814386
 20
3.3023010568023334
 30
0.0
 10
11.605390629734847
 20
3.3280861187572333
 30
0.0
 10
11.635176773353889
 20
3.340281165164357
 30
0.0
 10
11.66983015036205
 20
3.3554342256016065
 30
0.0
 10
11.710194134262737
 20
3.374232205519678
 30
0.0
 10
11.756112490638655
 20
3.3969517352664043
 30
0.0
 10
11.807419142060423
 20
3.4238640189901353
 30
0.0
 10
11.863938339108646
 20
3.455234524942947
 30
0.0
 10
11.925484840514342
 20
3.4913226808810114
 30
0.0
 10
11.991864102268798
 20
3.5323815748177507
 30
0.0
 10
12.06287247554297
 20
3.578657661378304
 30
0.0
 10
12.138297412754378
 20
3.6303904747704876
 30
0.0
 10
12.217917685215989
 20
3.6878123433203016
 30
0.0
 10
12.301503601356822
 20
3.7511481216755085
 30
0.0
 10
12.388817243387667
 20
3.820614914467449
 30
0.0
 10
12.479612704200424
 20
3.89642181812864
 30
0.0
 10
12.573636335090255
 20
3.978769665185085
 30
0.0
 10
12.670627000529606
 20
4.067850776561908
 30
0.0
 10
12.704839765138297
 20
4.1007966772553734
 30
0.0
 10
12.6440831258799
 20
4.340719219889796
 30
0.0
 10
12.54466517538659
 20
4.567369317612808
 30
0.0
 10
12.497430705858417
 20
4.572354347509668
 30
0.0
 10
12.366176691658858
 20
4.58307896139408
 30
0.0
 10
12.241399741158423
 20
4.590312473982127
 30
0.0
 10
12.1231878010319
 20
4.594367046267082
 30
0.0
 10
12.011617681825784
 20
4.595556957590605
 30
0.0
 10
11.906755009158665
 20
4.594198253689458
 30
0.0
 10
11.808654185083924
 20
4.590608393667021
 30
0.0
 10
11.717358360116522
 20
4.58510589617805
 30
0.0
 10
11.632899415600509
 20
4.578009985126906
 30
0.0
 10
11.555297956541587
 20
4.569640235174072
 30
0.0
 10
11.484563314915988
 20
4.560316217199714
 30
0.0
 10
11.420693570604834
 20
4.550357088148491
 30
0.0
 10
11.36367540583614
 20
4.540081792682611
 30
0.0
 10
11.313495170688176
 20
4.529808890401809
 30
0.0
 10
11.270077833681409
 20
4.5198468641456415
 30
0.0
 10
11.233432481443211
 20
4.5105223083804695
 30
0.0
 10
11.20243667635981
 20
4.501850885441503
 30
0.0
 10
11.141562778179855
 20
4.487145696644258
 30
0.0
 10
11.086335910923024
 20
4.477687625807453
 30
0.0
 10
11.036966637826799
 20
4.473199593287207
 30
0.0
 10
10.993655476138743
 20
4.473397906190372
 30
0.0
 10
10.956592993196386
 20
4.477990877921385
 30
0.0
 10
10.925958967341842
 20
4.486682749104902
 30
0.0
 10
10.901922890152083
 20
4.499170091991013
 30
0.0
 10
10.884643390383168
 20
4.5151444327706525
 30
0.0
 10
10.874268173627632
 20
4.534291944545689
 30
0.0
 10
10.845152786111361
 20
4.605173942256909
 30
0.0
 10
10.733358705622848
 20
4.860038774422419
 30
0.0
 10
10.70092844048628
 20
4.929466732000812
 30
0.0
 10
10.693868101356047
 20
4.95006828391151
 30
0.0
 10
10.693818483651748
 20
4.973600351680202
 30
0.0
 10
10.700910439886359
 20
4.999741714594271
 30
0.0
 10
10.715263524857631
 20
5.028166692169163
 30
0.0
 10
10.736985860034649
 20
5.058545499421791
 30
0.0
 10
10.766174008442974
 20
5.090544606013598
 30
0.0
 10
10.802912860152585
 20
5.123827098964246
 30
0.0
 10
10.847275528467748
 20
5.158053048635719
 30
0.0
 10
10.89932325690716
 20
5.1928798776829685
 30
0.0
 10
10.926695917683745
 20
5.209811237657174
 30
0.0
 10
10.95838255602265
 20
5.2304613884911015
 30
0.0
 10
10.99510198199074
 20
5.2556466818566605
 30
0.0
 10
11.036654560145768
 20
5.285614259884397
 30
0.0
 10
11.082831839402346
 20
5.320604292405123
 30
0.0
 10
11.133416772695902
 20
5.360849699626288
 30
0.0
 10
11.18818394480169
 20
5.406575881336843
 30
0.0
 10
11.246899808119826
 20
5.458000452868171
 30
0.0
 10
11.309322926227818
 20
5.5153329880299795
 30
0.0
 10
11.375204224380376
 20
5.578774769913445
 30
0.0
 10
11.444287251175778
 20
5.648518545143919
 30
0.0
 10
11.516308437878074
 20
5.724748295654827
 30
0.0
 10
11.590997377338752
 20
5.807639005072278
 30
0.0
 10
11.668077100160506
 20
5.897356443046281
 30
0.0
 10
11.7472643611289
 20
5.994056953804303
 30
0.0
 10
11.828269931280737
 20
6.097887253769554
 30
0.0
 10
11.856593361347102
 20
6.136015051292476
 30
0.0
 10
11.757175410853794
 20
6.362665149015491
 30
0.0
 10
11.621808011651787
 20
6.569860377993921
 30
0.0
 10
11.574397249769024
 20
6.567002880421369
 30
0.0
 10
11.443168155818086
 20
6.555977523861013
 30
0.0
 10
11.31890240324714
 20
6.54257476972144
 30
0.0
 10
11.201635359242173
 20
6.527116997073752
 30
0.0
 10
11.091391058074464
 20
6.509926841499452
 30
0.0
 10
10.988182210896156
 20
6.491326839905192
 30
0.0
 10
10.89201022573647
 20
6.471639075949644
 30
0.0
 10
10.802865238146115
 20
6.451184826449602
 30
0.0
 10
10.720726152121415
 20
6.4302842090082075
 30
0.0
 10
10.645560691382341
 20
6.409255831176585
 30
0.0
 10
10.577325460991052
 20
6.388416441297426
 30
0.0
 10
10.515966035510042
 20
6.368080527389478
 30
0.0
 10
10.46141678223838
 20
6.348560492092241
 30
0.0
 10
10.413611804234684
 20
6.330168303564451
 30
0.0
 10
10.372426318744413
 20
6.3131958875661764
 30
0.0
 10
10.337815532782809
 20
6.297966879850649
 30
0.0
 10
10.30866973938652
 20
6.284311981980091
 30
0.0
 10
10.251046476359617
 20
6.259787838461537
 30
0.0
 10
10.198129578883552
 20
6.241368719794644
 30
0.0
 10
10.15017234419815
 20
6.228815982910529
 30
0.0
 10
10.107419249072588
 20
6.221882808171548
 30
0.0
 10
10.07010627178999
 20
6.220312853559958
 30
0.0
 10
10.038459419143402
 20
6.223843984015362
 30
0.0
 10
10.012695813631789
 20
6.232204807543539
 30
0.0
 10
9.993022693641946
 20
6.245117166951222
 30
0.0
 10
9.979637404464363
 20
6.262295827071616
 30
0.0
 10
9.93925231951318
 20
6.327418851442738
 30
0.0
 10
9.78703359194257
 20
6.560406958615208
 30
0.0
 10
9.743618167121127
 20
6.623550163141971
 30
0.0
 10
9.733263217818275
 20
6.6427086431103435
 30
0.0
 10
9.729341025781945
 20
6.665911597340721
 30
0.0
 10
9.73203353005897
 20
6.692863723768091
 30
0.0
 10
9.741512260121405
 20
6.723263461838166
 30
0.0
 10
9.757938143626594
 20
6.75680332061409
 30
0.0
 10
9.781461323895716
 20
6.793170212428028
 30
0.0
 10
9.812220987262792
 20
6.83204579179985
 30
0.0
 10
9.850345200441414
 20
6.873106799343094
 30
0.0
 10
9.895950758046256
 20
6.9160254103730505
 30
0.0
 10
9.920163281149598
 20
6.937231240551004
 30
0.0
 10
9.948018851926266
 20
6.962815199497786
 30
0.0
 10
9.980092109741745
 20
6.993700817160979
 30
0.0
 10
10.016145463663301
 20
7.030099006060776
 30
0.0
 10
10.055933774951752
 20
7.072212350503539
 30
0.0
 10
10.099204619375476
 20
7.120234869196013
 30
0.0
 10
10.145698556493672
 20
7.17435178564125
 30
0.0
 10
10.195149405685003
 20
7.234739306509647
 30
0.0
 10
10.24728452868975
 20
7.30156440816826
 30
0.0
 10
10.301825117709582
 20
7.374984632113611
 30
0.0
 10
10.358486493953809
 20
7.455147885644909
 30
0.0
 10
10.41697840098955
 20
7.542192259433709
 30
0.0
 10
10.477005318311106
 20
7.636245843003715
 30
0.0
 10
10.538266769235126
 20
7.737426557458505
 30
0.0
 10
10.600457638228647
 20
7.845841994064044
 30
0.0
 10
10.663268492304988
 20
7.9615892627000635
 30
0.0
 10
10.684929998490489
 20
8.003858930127763
 30
0.0
 10
10.549562599288477
 20
8.21105415910619
 30
0.0
 10
10.381938221151518
 20
8.39314277361116
 30
0.0
 10
10.335644408907708
 20
8.38252069365404
 30
0.0
 10
10.208019822799653
 20
8.350046109634919
 30
0.0
 10
10.08765491395169
 20
8.31637268096228
 30
0.0
 10
9.974531505336364
 20
8.281824211124373
 30
0.0
 10
9.868620199357476
 20
8.246722891284929
 30
0.0
 10
9.769880445973614
 20
8.211388951554461
 30
0.0
 10
9.678260620782488
 20
8.176140314544337
 30
0.0
 10
9.593698113447005
 20
8.141292251639335
 30
0.0
 10
9.516119426059753
 20
8.107157042167652
 30
0.0
 10
9.445440281467757
 20
8.074043635787596
 30
0.0
 10
9.381565741519882
 20
8.042257318235306
 30
0.0
 10
9.324390360044054
 20
8.012099330190269
 30
0.0
 10
9.273797979699387
 20
7.983867010739651
 30
0.0
 10
9.229672254021619
 20
7.957857226923053
 30
0.0
 10
9.191842052729472
 20
7.934337384447317
 30
0.0
 10
9.160209925061912
 20
7.913619332412854
 30
0.0
 10
9.13370916461917
 20
7.895353429628951
 30
0.0
 10
9.08090834914806
 20
7.861679286094603
 30
0.0
 10
9.031744856471848
 20
7.834801545139796
 30
0.0
 10
8.986507808544308
 20
7.8145265098314685
 30
0.0
 10
8.945478972967267
 20
7.800650966383785
 30
0.0
 10
8.908933302097019
 20
7.792960909698829
 30
0.0
 10
8.877136866301404
 20
7.791234979392266
 30
0.0
 10
8.850348496465585
 20
7.795241222091702
 30
0.0
 10
8.82881838768414
 20
7.804739384622796
 30
0.0
 10
8.812788141880429
 20
7.819480604021886
 30
0.0
 10
8.762234959335744
 20
7.877068268711121
 30
0.0
 10
8.573743714766557
 20
8.081824342681552
 30
0.0
 10
8.520527389873799
 20
8.136960412139244
 30
0.0
 10
8.507160286421973
 20
8.154153226774183
 30
0.0
 10
8.499472507227972
 20
8.17639415136043
 30
0.0
 10
8.497692115049569
 20
8.203421857551112
 30
0.0
 10
8.502037935156268
 20
8.23496713050802
 30
0.0
 10
8.512719311706693
 20
8.27075316089172
 30
0.0
 10
8.52993587279922
 20
8.310495843920517
 30
0.0
 10
8.553877304391568
 20
8.35390408524932
 30
0.0
 10
8.584723133280542
 20
8.400680113416614
 30
0.0
 10
8.622642519324168
 20
8.45051979860085
 30
0.0
 10
8.643034450241345
 20
8.47542165921477
 30
0.0
 10
8.666299126099043
 20
8.505241562566743
 30
0.0
 10
8.69285134089745
 20
8.540985025390516
 30
0.0
 10
8.72242202907463
 20
8.582820977452183
 30
0.0
 10
8.754736050983393
 20
8.630908891561878
 30
0.0
 10
8.78951249070008
 20
8.685398592601093
 30
0.0
 10
8.826464959426746
 20
8.746430075372661
 30
0.0
 10
8.865301904234075
 20
8.814133331427351
 30
0.0
 10
8.905726921886131
 20
8.888628185009564
 30
0.0
 10
8.947439076681478
 20
8.970024138699808
 30
0.0
 10
8.990133227735772
 20
9.058420225945603
 30
0.0
 10
9.033500348358046
 20
9.153904879403084
 30
0.0
 10
9.077227865714443
 20
9.25655580054525
 30
0.0
 10
9.120999992056204
 20
9.366439845348937
 30
0.0
 10
9.164498064288209
 20
9.483612917309344
 30
0.0
 10
9.207400885925523
 20
9.608119870858351
 30
0.0
 10
9.221809598808758
 20
9.653378401852205
 30
0.0
 10
9.054185220671796
 20
9.835467016357171
 30
0.0
 10
8.858876219671322
 20
9.98748211365457
 30
0.0
 10
8.814962131585506
 20
9.969385193964413
 30
0.0
 10
8.694423319336897
 20
9.91634720448365
 30
0.0
 10
8.58124249515739
 20
9.863321624632059
 30
0.0
 10
8.475348433628017
 20
9.810624849799972
 30
0.0
 10
8.376659107174882
 20
9.758569838198285
 30
0.0
 10
8.285081810662453
 20
9.70746577809875
 30
0.0
 10
8.20051329543604
 20
9.657617758965351
 30
0.0
 10
8.122839913117536
 20
9.60932644696932
 30
0.0
 10
8.051937768727113
 20
9.562887764997882
 30
0.0
 10
7.987672883099887
 20
9.518592577475234
 30
0.0
 10
7.929901364536703
 20
9.476726380131893
 30
0.0
 10
7.878469622427622
 20
9.437568949247627
 30
0.0
 10
7.833214143261259
 20
9.401394449722076
 30
0.0
 10
7.7939713046787285
 20
9.368476549716743
 30
0.0
 10
7.76052829685998
 20
9.339050840754629
 30
0.0
 10
7.732737669470431
 20
9.313408878852803
 30
0.0
 10
7.709604813643791
 20
9.291030217367842
 30
0.0
 10
7.663066714333071
 20
9.249124616671377
 30
0.0
 10
7.61899767837726
 20
9.21452140813686
 30
0.0
 10
7.577714765950862
 20
9.187077124514461
 30
0.0
 10
7.53952934960269
 20
9.166637701012483
 30
0.0
 10
7.504747855778681
 20
9.153037306954046
 30
0.0
 10
7.473669160715418
 20
9.146101394765115
 30
0.0
 10
7.446586743452447
 20
9.145643776778462
 30
0.0
 10
7.423786931122153
 20
9.151468657318983
 30
0.0
 10
7.405548992010107
 20
9.163370333959053
 30
0.0
 10
7.346206670909427
 20
9.211851797593518
 30
0.0
 10
7.126584459133508
 20
9.382790626423244
 30
0.0
 10
7.065018836787904
 20
9.428415592566067
 30
0.0
 10
7.049004198923834
 20
9.443173766702653
 30
0.0
 10
7.037760535148028
 20
9.46384598719982
 30
0.0
 10
7.031555810971686
 20
9.490212027784905
 30
0.0
 10
7.030650178478848
 20
9.52204236281477
 30
0.0
 10
7.035295687966481
 20
9.559098415184597
 30
0.0
 10
7.0457360069760355
 20
9.601132812636669
 30
0.0
 10
7.06220614695047
 20
9.647889652255845
 30
0.0
 10
7.084932197746781
 20
9.69910477293479
 30
0.0
 10
7.1141310702263825
 20
9.754506035583843
 30
0.0
 10
7.1301461702397715
 20
9.782424668790487
 30
0.0
 10
7.148185351467583
 20
9.815667107318893
 30
0.0
 10
7.168492248045675
 20
9.855293426813667
 30
0.0
 10
7.19077365919004
 20
9.901425966323147
 30
0.0
 10
7.214731949437812
 20
9.9541767371587
 30
0.0
 10
7.240065373827398
 20
10.013647283544357
 30
0.0
 10
7.266468407143569
 20
10.079928552889449
 30
0.0
 10
7.293632076952913
 20
10.15310077579448
 30
0.0
 10
7.321244300150886
 20
10.233233355888158
 30
0.0
 10
7.348990221874405
 20
10.32038476989004
 30
0.0
 10
7.376552562593349
 20
10.41460247602167
 30
0.0
 10
7.403611954801227
 20
10.515922836711427
 30
0.0
 10
7.429847299508115
 20
10.624371045887973
 30
0.0
 10
7.454936111766428
 20
10.73996107074464
 30
0.0
 10
7.478554873217435
 20
10.862695602104235
 30
0.0
 10
7.500379385280772
 20
10.992566015438817
 30
0.0
 10
7.507142272734993
 20
11.039578875253499
 30
0.0
 10
7.3118332717345185
 20
11.191593972550896
 30
0.0
 10
7.094167168285256
 20
11.309388977060236
 30
0.0
 10
7.053830666204933
 20
11.284310854431041
 30
0.0
 10
6.943665612392677
 20
11.212156197581947
 30
0.0
 10
6.840756150724857
 20
11.141224866142387
 30
0.0
 10
6.744979950234738
 20
11.0718172169633
 30
0.0
 10
6.656204590869126
 20
11.004228438618584
 30
0.0
 10
6.574287741152794
 20
10.938748243691155
 30
0.0
 10
6.499077344532804
 20
10.875660566452348
 30
0.0
 10
6.430411814621533
 20
10.815243266470482
 30
0.0
 10
6.368120238898813
 20
10.757767838186863
 30
0.0
 10
6.312022590790216
 20
10.703499126768303
 30
0.0
 10
6.261929950039018
 20
10.652695050360409
 30
0.0
 10
6.217644771148874
 20
10.605606289275634
 30
0.0
 10
6.178960644660244
 20
10.562476355722325
 30
0.0
 10
6.145671135511037
 20
10.523548254029837
 30
0.0
 10
6.1175275592395675
 20
10.489019335214735
 30
0.0
 10
6.094336487998459
 20
10.459152909322619
 30
0.0
 10
6.075202540792015
 20
10.433271920685097
 30
0.0
 10
6.03619659567511
 20
10.384277938373765
 30
0.0
 10
5.998424104861172
 20
10.34289314758453
 30
0.0
 10
5.962221418170388
 20
10.309028224163367
 30
0.0
 10
5.927921019667111
 20
10.282582454798629
 30
0.0
 10
5.895852451372273
 20
10.263442706663044
 30
0.0
 10
5.8663392428265775
 20
10.251486006195687
 30
0.0
 10
5.839701515880795
 20
10.2465770101487
 30
0.0
 10
5.816253919447348
 20
10.24856972114183
 30
0.0
 10
5.796305770463184
 20
10.257307208309495
 30
0.0
 10
5.729793014632249
 20
10.295360022942983
 30
0.0
 10
5.485030557074468
 20
10.427818840985804
 30
0.0
 10
5.416794986964009
 20
10.46268817367279
 30
0.0
 10
5.398569652261577
 20
10.474609142792264
 30
0.0
 10
5.384076801741728
 20
10.493148774913646
 30
0.0
 10
5.37361699426847
 20
10.518133953037108
 30
0.0
 10
5.367484612469691
 20
10.54938110157581
 30
0.0
 10
5.365967537505649
 20
10.586696383421032
 30
0.0
 10
5.369346829745533
 20
10.629875906509385
 30
0.0
 10
5.377896415618001
 20
10.678705939720107
 30
0.0
 10
5.391882780898317
 20
10.732963137926436
 30
0.0
 10
5.41156467068843
 20
10.79241477601555
 30
0.0
 10
5.422766089617917
 20
10.822588634279489
 30
0.0
 10
5.435087714376583
 20
10.858346840917843
 30
0.0
 10
5.448595373531838
 20
10.900775114385905
 30
0.0
 10
5.462979728830675
 20
10.949945865923938
 30
0.0
 10
5.477928767714096
 20
11.005920589967952
 30
0.0
 10
5.493128146998544
 20
11.06874978022279
 30
0.0
 10
5.508261538982925
 20
11.138472855896046
 30
0.0
 10
5.523010979692287
 20
11.215118098156317
 30
0.0
 10
5.537057218967028
 20
11.298702596866551
 30
0.0
 10
5.550080071202323
 20
11.389232207792883
 30
0.0
 10
5.561758772780765
 20
11.486701519394304
 30
0.0
 10
5.5717723268933845
 20
11.591093831999189
 30
0.0
 10
5.579799867137598
 20
11.70238114476716
 30
0.0
 10
5.585521007915712
 20
11.820524155119424
 30
0.0
 10
5.588616200342854
 20
11.945472267807762
 30
0.0
 10
5.5887670870353805
 20
12.077163614599053
 30
0.0
 10
5.587699675120368
 20
12.12464841497219
 30
0.0
 10
5.370033571671104
 20
12.242443419481532
 30
0.0
 10
5.135947729661968
 20
12.322805190548461
 30
0.0
 10
5.100289088214475
 20
12.291429930791766
 30
0.0
 10
5.003502808327712
 20
12.202126797520036
 30
0.0
 10
4.913671811020929
 20
12.115224536309993
 30
0.0
 10
4.830625996649516
 20
12.030999272521276
 30
0.0
 10
4.754186164754829
 20
11.949720373115973
 30
0.0
 10
4.684164239953566
 20
11.871650172384143
 30
0.0
 10
4.620363505500921
 20
11.797043704417705
 30
0.0
 10
4.562578844655186
 20
11.726148442897362
 30
0.0
 10
4.510596989403866
 20
11.659204048157878
 30
0.0
 10
4.464196776418643
 20
11.596442121822937
 30
0.0
 10
4.4231494101373565
 20
11.538085969118551
 30
0.0
 10
4.387218778703427
 20
11.48435033648442
 30
0.0
 10
4.356161207021149
 20
11.435441441059341
 30
0.0
 10
4.329733078335582
 20
11.391564994815885
 30
0.0
 10
4.3076566170072494
 20
11.352874725042899
 30
0.0
 10
4.289697693883427
 20
11.319598513402868
 30
0.0
 10
4.275084579498492
 20
11.290921163516112
 30
0.0
 10
4.244674769077283
 20
11.236175227709587
 30
0.0
 10
4.214229158489089
 20
11.189137723876266
 30
0.0
 10
4.18409421245348
 20
11.149775907488001
 30
0.0
 10
4.154614457251803
 20
11.118045163909798
 30
0.0
 10
4.1261335614327015
 20
11.093888144132606
 30
0.0
 10
4.098990882798506
 20
11.077236803006778
 30
0.0
 10
4.073524453921622
 20
11.068010333514822
 30
0.0
 10
4.0500686626924045
 20
11.066116518999282
 30
0.0
 10
4.0289544373394675
 20
11.071451480821535
 30
0.0
 10
3.9570855413715327
 20
11.09803766486713
 30
0.0
 10
3.6938593198259575
 20
11.1884033408612
 30
0.0
 10
3.620815090426399
 20
11.211565895594218
 30
0.0
 10
3.6008761985063895
 20
11.22032448673465
 30
0.0
 10
3.5835294884246354
 20
11.236225817645188
 30
0.0
 10
3.569099913935649
 20
11.259148602779318
 30
0.0
 10
3.5579080582204736
 20
11.288960224069955
 30
0.0
 10
3.5502697806550567
 20
11.325516871775518
 30
0.0
 10
3.546495867842122
 20
11.368663695670918
 30
0.0
 10
3.54689168919713
 20
11.418234966457591
 30
0.0
 10
3.551756857376337
 20
11.474054247262195
 30
0.0
 10
3.561384893830347
 20
11.535934575083155
 30
0.0
 10
3.5674670861674525
 20
11.567540594208324
 30
0.0
 10
3.5737350526536353
 20
11.604839178294222
 30
0.0
 10
3.580075020656139
 20
11.648912073037616
 30
0.0
 10
3.5861699523941084
 20
11.699779786680827
 30
0.0
 10
3.5917019691016767
 20
11.757451619376596
 30
0.0
 10
3.5963527038359313
 20
11.82192563697394
 30
0.0
 10
3.599803655004998
 20
11.893188655225487
 30
0.0
 10
3.601736540320748
 20
11.971216234431374
 30
0.0
 10
3.6018336508806574
 20
12.055972684521873
 30
0.0
 10
3.5997782041667894
 20
12.147411080579666
 30
0.0
 10
3.5952547020697723
 20
12.245473288913924
 30
0.0
 10
3.5879492744343304
 20
12.350090003276524
 30
0.0
 10
3.5775500398442412
 20
12.461180791847985
 30
0.0
 10
3.563747451335629
 20
12.578654154349277
 30
0.0
 10
3.54623464595806
 20
12.702407589567642
 30
0.0
 10
3.5247077914841354
 20
12.832327673168894
 30
0.0
 10
3.515839196414401
 20
12.878989152529957
 30
0.0
 10
3.281753354405259
 20
12.959350923596885
 30
0.0
 10
3.0376330253900052
 20
13.000087401594191
 30
0.0
 10
3.007624919358892
 20
12.963270840006961
 30
0.0
 10
2.9268574908099296
 20
12.859255186992351
 30
0.0
 10
2.8525553132987813
 20
12.758752463160352
 30
0.0
 10
2.7845051583778444
 20
12.662007030399279
 30
0.0
 10
2.7224859333044007
 20
12.569255086430895
 30
0.0
 10
2.66626894899325
 20
12.480724431456801
 30
0.0
 10
2.615618194427717
 20
12.396634242724307
 30
0.0
 10
2.570290617562019
 20
12.31719485758961
 30
0.0
 10
2.5300364122867722
 20
12.242607564971745
 30
0.0
 10
2.494599311278834
 20
12.173064405462705
 30
0.0
 10
2.4637168846171136
 20
12.108747980184464
 30
0.0
 10
2.4371208946007505
 20
12.0498312439809
 30
0.0
 10
2.4145370473192695
 20
11.99647749385527
 30
0.0
 10
2.3956911895548947
 20
11.94884953813701
 30
0.0
 10
2.380284031485697
 20
11.907053287107537
 30
0.0
 10
2.368047129086559
 20
11.871274978028524
 30
0.0
 10
2.3583534551900107
 20
11.840583510241173
 30
0.0
 10
2.3373692798203267
 20
11.781578947356252
 30
0.0
 10
2.3150810263489374
 20
11.730171790965798
 30
0.0
 10
2.291835823740416
 20
11.686386769352907
 30
0.0
 10
2.2679808427142545
 20
11.650236583530178
 30
0.0
 10
2.2438645039646783
 20
11.621721232638247
 30
0.0
 10
2.2198327367594426
 20
11.600829456033054
 30
0.0
 10
2.196232263745193
 20
11.587537187132261
 30
0.0
 10
2.1734080905602524
 20
11.581808505431223
 30
0.0
 10
2.1517037298654937
 20
11.583595418056765
 30
0.0
 10
2.076439089894334
 20
11.59798976971871
 30
0.0
 10
1.8019292295051814
 20
11.64379736358865
 30
0.0
 10
1.7260687969824497
 20
11.654621326254853
 30
0.0
 10
1.7049602288396268
 20
11.659978627881877
 30
0.0
 10
1.6852328322275003
 20
11.672807910726009
 30
0.0
 10
1.6672270918997516
 20
11.693043029047589
 30
0.0
 10
1.6512810469170993
 20
11.72060593977445
 30
0.0
 10
1.6377299190507886
 20
11.755406783287013
 30
0.0
 10
1.6269057436887155
 20
11.797343975108967
 30
0.0
 10
1.619137003551529
 20
11.846304308427191
 30
0.0
 10
1.6147482655242456
 20
11.902163067359728
 30
0.0
 10
1.614059820906103
 20
11.964784150879554
 30
0.0
 10
1.614856880298964
 20
11.99696020105496
 30
0.0
 10
1.6149002147262908
 20
12.034781754444689
 30
0.0
 10
1.6138995537759964
 20
12.079297076784279
 30
0.0
 10
1.6115388081035886
 20
12.130474213906712
 30
0.0
 10
1.6075029036404123
 20
12.188270017997544
 30
0.0
 10
1.601478133904484
 20
12.252630179808559
 30
0.0
 10
1.5931525113063025
 20
12.323489271269318
 30
0.0
 10
1.582216117155683
 20
12.400770798462801
 30
0.0
 10
1.5683614500778342
 20
12.484387264918675
 30
0.0
 10
1.5512837716430086
 20
12.57424024502558
 30
0.0
 10
1.5306814552158483
 20
12.670220468678416
 30
0.0
 10
1.5062563188544114
 20
12.772207913546339
 30
0.0
 10
1.4777139734408569
 20
12.880071910801133
 30
0.0
 10
1.4447641542793705
 20
12.993671258352618
 30
0.0
 10
1.407121054775313
 20
13.112854344989382
 30
0.0
 10
1.364503655608665
 20
13.237459284196337
 30
0.0
 10
1.3480757895390019
 20
13.282024639025737
 30
0.0
 10
1.103955460523747
 20
13.322761117023047
 30
0.0
 10
0.8564596107037138
 20
13.32276111702305
 30
0.0
 10
0.8329205829962137
 20
13.281507513431771
 30
0.0
 10
0.7703751306908954
 20
13.165616616539952
 30
0.0
 10
0.7136285426865644
 20
13.054254882401082
 30
0.0
 10
0.662430278048833
 20
12.947628243876858
 30
0.0
 10
0.6165233825845825
 20
12.845933286590574
 30
0.0
 10
0.5756447915488109
 20
12.749357062859717
 30
0.0
 10
0.5395256374182745
 20
12.658076914503031
 30
0.0
 10
0.5078915626693367
 20
12.572260305097432
 30
0.0
 10
0.48046303715519023
 20
12.49206466150924
 30
0.0
 10
0.4569556798624045
 20
12.41763722493202
 30
0.0
 10
0.4370805849151044
 20
12.349114911501111
 30
0.0
 10
0.42054470559338275
 20
12.286624166707274
 30
0.0
 10
0.4070506111948417
 20
12.230280913101677
 30
0.0
 10
0.396301090223987
 20
12.180200614383791
 30
0.0
 10
0.3879835025225877
 20
12.136438474871223
 30
0.0
 10
0.38180241164636003
 20
12.099134007357808
 30
0.0
 10
0.3772925963925728
 20
12.067265604904419
 30
0.0
 10
0.3663064496768375
 20
12.005611905603187
 30
0.0
 10
0.3527835187758122
 20
11.951237349873477
 30
0.0
 10
0.3370621281258171
 20
11.904223464286526
 30
0.0
 10
0.31948262297227
 20
11.864639919052012
 30
0.0
 10
0.3003886721467052
 20
11.832544061483702
 30
0.0
 10
0.2801233403336462
 20
11.80798172260414
 30
0.0
 10
0.259032582564018
 20
11.79098623273976
 30
0.0
 10
0.23746261136966135
 20
11.781578947356474
 30
0.0
 10
0.21576015371378782
 20
11.779769068467012
 30
0.0
 10
0.1391527929175435
 20
11.781578947355245
 30
0.0
 10
-0.1391527929175697
 20
11.781578947351768
 30
0.0
 10
-0.2157601537176433
 20
11.779769068465589
 30
0.0
 10
-0.2374626113702734
 20
11.781578947356259
 30
0.0
 10
-0.2590325825586783
 20
11.79098623274144
 30
0.0
 10
-0.2801233390665106
 20
11.807981722971677
 30
0.0
 10
-0.30038860677774987
 20
11.832544078781277
 30
0.0
 10
-0.3194829455019154
 20
11.864639841808847
 30
0.0
 10
-0.33706212812576825
 20
11.90422346428655
 30
0.0
 10
-0.3527835187758021
 20
11.951237349873468
 30
0.0
 10
-0.36630644967677756
 20
12.005611905603173
 30
0.0
 10
-0.3772925963925306
 20
12.067265604904426
 30
0.0
 10
-0.38180241164637213
 20
12.09913400735799
 30
0.0
 10
-0.38798489132811514
 20
12.136446856668508
 30
0.0
 10
-0.3962988858090117
 20
12.180190344653656
 30
0.0
 10
-0.4070509139038579
 20
12.230280926363452
 30
0.0
 10
-0.42054465058484114
 20
12.286624182976164
 30
0.0
 10
-0.4370805847779584
 20
12.349114911561067
 30
0.0
 10
-0.4569556798621889
 20
12.417637224931854
 30
0.0
 10
-0.48046303715580063
 20
12.492064661509001
 30
0.0
 10
-0.5078915626699453
 20
12.57226030509719
 30
0.0
 10
-0.5395256382762118
 20
12.65807691418513
 30
0.0
 10
-0.5756447915476125
 20
12.749357062857065
 30
0.0
 10
-0.616523382586683
 20
12.845933286595741
 30
0.0
 10
-0.6624302780451626
 20
12.947628243869213
 30
0.0
 10
-0.7136285426865655
 20
13.054254882401084
 30
0.0
 10
-0.7703751306908776
 20
13.165616616539916
 30
0.0
 10
-0.832920582996251
 20
13.28150751343184
 30
0.0
 10
-0.8564596107037102
 20
13.32276111702305
 30
0.0
 10
-1.1039554605237432
 20
13.32276111702305
 30
0.0
 10
-1.348075789538996
 20
13.28202463902574
 30
0.0
 10
-1.3645036556086878
 20
13.237459284196264
 30
0.0
 10
-1.4071210547752984
 20
13.11285434498942
 30
0.0
 10
-1.4447641542793688
 20
12.993671258352617
 30
0.0
 10
-1.4777139734384925
 20
12.88007191080928
 30
0.0
 10
-1.5062563188556304
 20
12.772207913540896
 30
0.0
 10
-1.5306814552151
 20
12.670220468681231
 30
0.0
 10
-1.5512837725415662
 20
12.574240245197934
 30
0.0
 10
-1.5683614500784713
 20
12.484387264918814
 30
0.0
 10
-1.5822161171563212
 20
12.400770798462936
 30
0.0
 10
-1.5931525113061142
 20
12.32348927126952
 30
0.0
 10
-1.6014781337593378
 20
12.252630179771996
 30
0.0
 10
-1.6075028467043413
 20
12.188270011004649
 30
0.0
 10
-1.6115391045012293
 20
12.130474151001547
 30
0.0
 10
-1.613899069768389
 20
12.079307569283461
 30
0.0
 10
-1.6149002049918284
 20
12.034773258374317
 30
0.0
 10
-1.6148568802989438
 20
11.996960201054783
 30
0.0
 10
-1.6140598209060575
 20
11.964784150879554
 30
0.0
 10
-1.614748265524186
 20
11.902163067359753
 30
0.0
 10
-1.6191370035515171
 20
11.8463043084272
 30
0.0
 10
-1.6269057436886605
 20
11.797343975108951
 30
0.0
 10
-1.6377302498953543
 20
11.755406806390049
 30
0.0
 10
-1.6512809795926013
 20
11.720605933472168
 30
0.0
 10
-1.6672270905894007
 20
11.69304302889363
 30
0.0
 10
-1.6852328322219543
 20
11.67280791072523
 30
0.0
 10
-1.7049602288402634
 20
11.659978627881989
 30
0.0
 10
-1.7260687969864845
 20
11.654621326255624
 30
0.0
 10
-1.8019292295057767
 20
11.643797363592077
 30
0.0
 10
-2.0764390898937855
 20
11.597989769715278
 30
0.0
 10
-2.15170372986906
 20
11.583595418054726
 30
0.0
 10
-2.1734080905608186
 20
11.581808505430912
 30
0.0
 10
-2.1962322637402
 20
11.587537187134796
 30
0.0
 10
-2.2198327355700815
 20
11.600829456604144
 30
0.0
 10
-2.2438644423343552
 20
11.621721260459282
 30
0.0
 10
-2.2679811481312067
 20
11.650236454253875
 30
0.0
 10
-2.2918358237403695
 20
11.68638676935294
 30
0.0
 10
-2.315081026348924
 20
11.730171790965793
 30
0.0
 10
-2.337369279820263
 20
11.78157894735625
 30
0.0
 10
-2.358353455189968
 20
11.840583510241188
 30
0.0
 10
-2.3680471290865985
 20
11.8712749780287
 30
0.0
 10
-2.3802867809482144
 20
11.907061325998155
 30
0.0
 10
-2.3956873248632404
 20
11.94883977130739
 30
0.0
 10
-2.4145373480825434
 20
11.996477457111908
 30
0.0
 10
-2.4371208430202222
 20
12.049831269082011
 30
0.0
 10
-2.463716884491704
 20
12.108747980266177
 30
0.0
 10
-2.4945993112785914
 20
12.173064405462577
 30
0.0
 10
-2.5300364122873327
 20
12.24260756497141
 30
0.0
 10
-2.570290617562577
 20
12.317194857589273
 30
0.0
 10
-2.615618195221626
 20
12.396634242269533
 30
0.0
 10
-2.6662689489916285
 20
12.480724431454382
 30
0.0
 10
-2.7224859333073206
 20
12.569255086435644
 30
0.0
 10
-2.7845051583729634
 20
12.662007030392342
 30
0.0
 10
-2.8525553132987804
 20
12.758752463160354
 30
0.0
 10
-2.926857490809904
 20
12.85925518699232
 30
0.0
 10
-3.0076249193589373
 20
12.963270840007022
 30
0.0
 10
-3.037633025389999
 20
13.000087401594195
 30
0.0
 10
-3.2817533544052537
 20
12.959350923596885
 30
0.0
 10
-3.515839196414393
 20
12.878989152529954
 30
0.0
 10
-3.524707791484147
 20
12.83232767316882
 30
0.0
 10
-3.546234645958052
 20
12.702407589567683
 30
0.0
 10
-3.5637474513356278
 20
12.578654154349275
 30
0.0
 10
-3.5775500398432505
 20
12.46118079185641
 30
0.0
 10
-3.5879492744346377
 20
12.350090003270955
 30
0.0
 10
-3.5952547020694983
 20
12.245473288916823
 30
0.0
 10
-3.5997782050814613
 20
12.14741108060177
 30
0.0
 10
-3.60183365088131
 20
12.055972684521905
 30
0.0
 10
-3.601736540321401
 20
11.971216234431402
 30
0.0
 10
-3.5998036550048464
 20
11.893188655225714
 30
0.0
 10
-3.596352703686747
 20
11.821925636961765
 30
0.0
 10
-3.591701911791148
 20
11.757451621850445
 30
0.0
 10
-3.586170234395422
 20
11.699779675848156
 30
0.0
 10
-3.5800762702583686
 20
11.648922502097818
 30
0.0
 10
-3.573733644644718
 20
11.604830799701416
 30
0.0
 10
-3.5674670861674036
 20
11.56754059420815
 30
0.0
 10
-3.5613848938303025
 20
11.535934575083164
 30
0.0
 10
-3.551756857376284
 20
11.47405424726223
 30
0.0
 10
-3.5468916891971216
 20
11.4182349664576
 30
0.0
 10
-3.546495867842066
 20
11.36866369567091
 30
0.0
 10
-3.5502701107899695
 20
11.32551684010823
 30
0.0
 10
-3.557907990776873
 20
11.288960228934876
 30
0.0
 10
-3.569099912617829
 20
11.259148602843135
 30
0.0
 10
-3.583529488419037
 20
11.236225817645334
 30
0.0
 10
-3.600876198507036
 20
11.220324486734656
 30
0.0
 10
-3.620815090430506
 20
11.211565895594312
 30
0.0
 10
-3.6938593198271095
 20
11.18840334086448
 30
0.0
 10
-3.9570855413704265
 20
11.098037664863831
 30
0.0
 10
-4.02895443734265
 20
11.071451480818938
 30
0.0
 10
-4.050068662692912
 20
11.066116518998879
 30
0.0
 10
-4.073524453917115
 20
11.068010333518147
 30
0.0
 10
-4.098990881719365
 20
11.07723680376584
 30
0.0
 10
-4.126133505222128
 20
11.093888181718217
 30
0.0
 10
-4.154614737225087
 20
11.118044986126678
 30
0.0
 10
-4.18409421245344
 20
11.149775907488042
 30
0.0
 10
-4.214229158489076
 20
11.189137723876264
 30
0.0
 10
-4.2446747690772195
 20
11.236175227709593
 30
0.0
 10
-4.275084579498453
 20
11.290921163516133
 30
0.0
 10
-4.289697693883494
 20
11.319598513403037
 30
0.0
 10
-4.3076606521285905
 20
11.352882201746871
 30
0.0
 10
-4.329727658785965
 20
11.391555997300431
 30
0.0
 10
-4.356161497634645
 20
11.435441355313099
 30
0.0
 10
-4.387218731957899
 20
11.484350369733061
 30
0.0
 10
-4.423149410027108
 20
11.53808596921979
 30
0.0
 10
-4.464196776418384
 20
11.596442121822852
 30
0.0
 10
-4.510596989404363
 20
11.659204048157457
 30
0.0
 10
-4.562578844655681
 20
11.726148442896937
 30
0.0
 10
-4.6203635062091495
 20
11.79704370383846
 30
0.0
 10
-4.684164239951569
 20
11.871650172382026
 30
0.0
 10
-4.754186164758492
 20
11.949720373120181
 30
0.0
 10
-4.830625996643559
 20
12.030999272515237
 30
0.0
 10
-4.9136718110209285
 20
12.115224536309999
 30
0.0
 10
-5.003502808327682
 20
12.20212679752001
 30
0.0
 10
-5.100289088214531
 20
12.291429930791821
 30
0.0
 10
-5.135947729661961
 20
12.322805190548461
 30
0.0
 10
-5.370033571671101
 20
12.242443419481534
 30
0.0
 10
-5.587699675120364
 20
12.124648414972196
 30
0.0
 10
-5.588767087035379
 20
12.077163614598977
 30
0.0
 10
-5.5886162003428534
 20
11.945472267807803
 30
0.0
 10
-5.58552100791571
 20
11.820524155119422
 30
0.0
 10
-5.579799867138008
 20
11.702381144775634
 30
0.0
 10
-5.571772326892773
 20
11.591093831993645
 30
0.0
 10
-5.561758772780972
 20
11.486701519397208
 30
0.0
 10
-5.550080072108158
 20
11.389232207664136
 30
0.0
 10
-5.537057218967677
 20
11.298702596866475
 30
0.0
 10
-5.523010979692936
 20
11.215118098156239
 30
0.0
 10
-5.508261538982813
 20
11.138472855896296
 30
0.0
 10
-5.49312814684939
 20
11.068749780235336
 30
0.0
 10
-5.477928711592391
 20
11.005920601841064
 30
0.0
 10
-5.4629799887434
 20
10.94994571018699
 30
0.0
 10
-5.448598322658014
 20
10.900785195529552
 30
0.0
 10
-5.435084946500021
 20
10.858338808348773
 30
0.0
 10
-5.4227660896178405
 20
10.822588634279326
 30
0.0
 10
-5.4115646706883895
 20
10.792414776015566
 30
0.0
 10
-5.3918827808982694
 20
10.732963137926479
 30
0.0
 10
-5.377896415617994
 20
10.67870593972012
 30
0.0
 10
-5.369346829745477
 20
10.629875906509389
 30
0.0
 10
-5.365967857925688
 20
10.586696297847226
 30
0.0
 10
-5.367484546746675
 20
10.549381117475232
 30
0.0
 10
-5.373616992979128
 20
10.51813395331696
 30
0.0
 10
-5.384076801736231
 20
10.493148774914712
 30
0.0
 10
-5.398569652262217
 20
10.474609142792165
 30
0.0
 10
-5.416794986968076
 20
10.462688173672209
 30
0.0
 10
-5.485030557076145
 20
10.427818840988849
 30
0.0
 10
-5.729793014630617
 20
10.295360022939914
 30
0.0
 10
-5.796305770465896
 20
10.25730720830641
 30
0.0
 10
-5.8162539194477825
 20
10.248569721141353
 30
0.0
 10
-5.8397015158768975
 20
10.24657701015272
 30
0.0
 10
-5.866339241887092
 20
10.251486007122017
 30
0.0
 10
-5.895852402114727
 20
10.263442752987993
 30
0.0
 10
-5.927921266559784
 20
10.28258223335815
 30
0.0
 10
-5.962221418170354
 20
10.309028224163413
 30
0.0
 10
-5.998424104861159
 20
10.342893147584531
 30
0.0
 10
-6.036196595675048
 20
10.384277938373781
 30
0.0
 10
-6.075202540791979
 20
10.433271920685124
 30
0.0
 10
-6.094336487998553
 20
10.459152909322773
 30
0.0
 10
-6.11753276995214
 20
10.489026045787067
 30
0.0
 10
-6.145664308934644
 20
10.523540271257316
 30
0.0
 10
-6.178960917196783
 20
10.562476223312142
 30
0.0
 10
-6.217644730513439
 20
10.60560632976487
 30
0.0
 10
-6.261929949946936
 20
10.652695050478412
 30
0.0
 10
-6.312022590789946
 20
10.703499126768262
 30
0.0
 10
-6.368120238899234
 20
10.757767838186364
 30
0.0
 10
-6.4304118146219515
 20
10.81524326646998
 30
0.0
 10
-6.4990773451360315
 20
10.875660565764433
 30
0.0
 10
-6.574287741150475
 20
10.938748243689393
 30
0.0
 10
-6.656204590873431
 20
11.004228438622128
 30
0.0
 10
-6.74497995022787
 20
11.071817216958324
 30
0.0
 10
-6.840756150724857
 20
11.141224866142391
 30
0.0
 10
-6.9436656123926435
 20
11.212156197581926
 30
0.0
 10
-7.053830666204996
 20
11.284310854431084
 30
0.0
 10
-7.09416716828525
 20
11.309388977060241
 30
0.0
 10
-7.311833271734516
 20
11.1915939725509
 30
0.0
 10
-7.507142272734991
 20
11.0395788752535
 30
0.0
 10
-7.500379385280757
 20
10.99256601543874
 30
0.0
 10
-7.478554873217441
 20
10.862695602104274
 30
0.0
 10
-7.454936111766426
 20
10.739961070744638
 30
0.0
 10
-7.429847299509913
 20
10.624371045896261
 30
0.0
 10
-7.403611954799708
 20
10.51592283670606
 30
0.0
 10
-7.376552562594031
 20
10.4146024760245
 30
0.0
 10
-7.348990222746695
 20
10.320384769613954
 30
0.0
 10
-7.321244300151513
 20
10.233233355887975
 30
0.0
 10
-7.29363207695354
 20
10.153100775794297
 30
0.0
 10
-7.266468407143499
 20
10.079928552889713
 30
0.0
 10
-7.240065373682342
 20
10.013647283581282
 30
0.0
 10
-7.214731896035783
 20
9.954176758107208
 30
0.0
 10
-7.190773889924436
 20
9.901425769930018
 30
0.0
 10
-7.168496816251321
 20
9.855302885053439
 30
0.0
 10
-7.148181299223835
 20
9.815659639881105
 30
0.0
 10
-7.1301461702396685
 20
9.78242466879034
 30
0.0
 10
-7.114131070226344
 20
9.754506035583864
 30
0.0
 10
-7.084932197746742
 20
9.699104772934842
 30
0.0
 10
-7.062206146950466
 20
9.64788965225586
 30
0.0
 10
-7.0457360069759805
 20
9.601132812636681
 30
0.0
 10
-7.035295989931422
 20
9.559098278038501
 30
0.0
 10
-7.0306501162691655
 20
9.522042389314997
 30
0.0
 10
-7.031555809745991
 20
9.490212028273156
 30
0.0
 10
-7.03776053514278
 20
9.463845987201774
 30
0.0
 10
-7.049004198924448
 20
9.443173766702449
 30
0.0
 10
-7.06501883679182
 20
9.428415592564825
 30
0.0
 10
-7.126584459135664
 20
9.382790626425974
 30
0.0
 10
-7.346206670907311
 20
9.211851797590757
 30
0.0
 10
-7.405548992012273
 20
9.163370333955562
 30
0.0
 10
-7.423786931122502
 20
9.15146865731844
 30
0.0
 10
-7.446586743449264
 20
9.145643776783068
 30
0.0
 10
-7.473669159941215
 20
9.146101395833448
 30
0.0
 10
-7.50474781481778
 20
9.153037360754707
 30
0.0
 10
-7.539529556680162
 20
9.166637441954963
 30
0.0
 10
-7.577714765950836
 20
9.187077124514511
 30
0.0
 10
-7.618997678377246
 20
9.214521408136864
 30
0.0
 10
-7.663066714333012
 20
9.249124616671402
 30
0.0
 10
-7.70960481364376
 20
9.291030217367876
 30
0.0
 10
-7.73273766947055
 20
9.313408878852938
 30
0.0
 10
-7.760534541029127
 20
9.339056602148398
 30
0.0
 10
-7.793963257286768
 20
9.368469799436376
 30
0.0
 10
-7.833214390286757
 20
9.401394274259754
 30
0.0
 10
-7.878469589010711
 20
9.437568995873015
 30
0.0
 10
-7.9299013644653
 20
9.476726380263443
 30
0.0
 10
-7.987672883099615
 20
9.518592577475236
 30
0.0
 10
-8.051937768727445
 20
9.56288776499732
 30
0.0
 10
-8.122839913117865
 20
9.609326446968755
 30
0.0
 10
-8.20051329591781
 20
9.65761775818753
 30
0.0
 10
-8.285081810659873
 20
9.707465778097395
 30
0.0
 10
-8.376659107179709
 20
9.758569838201076
 30
0.0
 10
-8.475348433620422
 20
9.810624849796193
 30
0.0
 10
-8.58124249515739
 20
9.86332162463206
 30
0.0
 10
-8.694423319336858
 20
9.916347204483632
 30
0.0
 10
-8.814962131585576
 20
9.969385193964444
 30
0.0
 10
-8.85887621967132
 20
9.987482113654579
 30
0.0
 10
-9.054185220671796
 20
9.83546701635718
 30
0.0
 10
-9.221809598808754
 20
9.65337840185221
 30
0.0
 10
-9.207400885925498
 20
9.608119870858278
 30
0.0
 10
-9.164498064288217
 20
9.483612917309383
 30
0.0
 10
-9.1209999920562
 20
9.366439845348935
 30
0.0
 10
-9.077227865717582
 20
9.256555800553132
 30
0.0
 10
-9.033500348355666
 20
9.153904879398041
 30
0.0
 10
-8.99013322773691
 20
9.058420225948284
 30
0.0
 10
-8.947439077496428
 20
8.970024138283913
 30
0.0
 10
-8.905726921886718
 20
8.888628185009281
 30
0.0
 10
-8.865301904234661
 20
8.814133331427067
 30
0.0
 10
-8.826464959426719
 20
8.746430075372933
 30
0.0
 10
-8.789512490563078
 20
8.68539859266139
 30
0.0
 10
-8.75473600175771
 20
8.63090892101436
 30
0.0
 10
-8.722422224336862
 20
8.582820745759966
 30
0.0
 10
-8.692857403573823
 20
8.540993602730289
 30
0.0
 10
-8.666293900022753
 20
8.505234863952472
 30
0.0
 10
-8.643034450241219
 20
8.475421659214641
 30
0.0
 10
-8.622642519324133
 20
8.450519798600878
 30
0.0
 10
-8.58472313328051
 20
8.400680113416671
 30
0.0
 10
-8.553877304391564
 20
8.353904085249335
 30
0.0
 10
-8.529935872799166
 20
8.310495843920538
 30
0.0
 10
-8.51271958697972
 20
8.270752975914322
 30
0.0
 10
-8.502037878156838
 20
8.234967166886195
 30
0.0
 10
-8.497692113920953
 20
8.20342185823445
 30
0.0
 10
-8.499472507223118
 20
8.176394151363223
 30
0.0
 10
-8.507160286422545
 20
8.15415322677388
 30
0.0
 10
-8.520527389877456
 20
8.136960412137375
 30
0.0
 10
-8.573743714769131
 20
8.08182434268389
 30
0.0
 10
-8.762234959333203
 20
7.877068268708747
 30
0.0
 10
-8.81278814188199
 20
7.819480604018085
 30
0.0
 10
-8.828818387684395
 20
7.8047393846222
 30
0.0
 10
-8.850348496463202
 20
7.795241222096767
 30
0.0
 10
-8.8771368657136
 20
7.7912349805734555
 30
0.0
 10
-8.908933270550069
 20
7.792960969507661
 30
0.0
 10
-8.945479134581008
 20
7.80065067677564
 30
0.0
 10
-8.98650780854429
 20
7.814526509831521
 30
0.0
 10
-9.031744856471835
 20
7.834801545139799
 30
0.0
 10
-9.080908349148007
 20
7.861679286094637
 30
0.0
 10
-9.133709164619145
 20
7.895353429628987
 30
0.0
 10
-9.16020992506205
 20
7.913619332412968
 30
0.0
 10
-9.191849160030536
 20
7.9343420395067215
 30
0.0
 10
-9.229663205325963
 20
7.957851893264895
 30
0.0
 10
-9.273798194475628
 20
7.983866797011346
 30
0.0
 10
-9.324390334757192
 20
8.012099381679988
 30
0.0
 10
-9.381565741471105
 20
8.042257318376816
 30
0.0
 10
-9.445440281467487
 20
8.074043635787643
 30
0.0
 10
-9.516119426059989
 20
8.107157042167042
 30
0.0
 10
-9.593698113447237
 20
8.141292251638726
 30
0.0
 10
-9.678260621129663
 20
8.176140313697827
 30
0.0
 10
-9.769880445970848
 20
8.211388951553548
 30
0.0
 10
-9.868620199362697
 20
8.246722891286884
 30
0.0
 10
-9.974531505328251
 20
8.281824211121899
 30
0.0
 10
-10.08765491395169
 20
8.316372680962285
 30
0.0
 10
-10.208019822799614
 20
8.35004610963491
 30
0.0
 10
-10.335644408907779
 20
8.38252069365406
 30
0.0
 10
-10.381938221151513
 20
8.393142773611165
 30
0.0
 10
-10.549562599288477
 20
8.211054159106197
 30
0.0
 10
-10.684929998490489
 20
8.00385893012777
 30
0.0
 10
-10.66326849230495
 20
7.961589262699994
 30
0.0
 10
-10.600457638228669
 20
7.8458419940640765
 30
0.0
 10
-10.538266769235124
 20
7.737426557458503
 30
0.0
 10
-10.477005318315499
 20
7.63624584301097
 30
0.0
 10
-10.416978400986373
 20
7.542192259429124
 30
0.0
 10
-10.358486493955374
 20
7.455147885647364
 30
0.0
 10
-10.301825118444961
 20
7.374984631569249
 30
0.0
 10
-10.247284528690285
 20
7.3015644081678825
 30
0.0
 10
-10.195149405685537
 20
7.234739306509266
 30
0.0
 10
-10.145698556493693
 20
7.174351785641521
 30
0.0
 10
-10.099204619250273
 20
7.1202348692780335
 30
0.0
 10
-10.055933731245162
 20
7.072212387656606
 30
0.0
 10
-10.016145618127124
 20
7.030098745389432
 30
0.0
 10
-9.980099501514843
 20
6.993708279633282
 30
0.0
 10
-9.948012594571177
 20
6.962809452427767
 30
0.0
 10
-9.920163281149453
 20
6.937231240550895
 30
0.0
 10
-9.895950758046226
 20
6.916025410373082
 30
0.0
 10
-9.850345200441392
 20
6.8731067993431525
 30
0.0
 10
-9.812220987262792
 20
6.832045791799862
 30
0.0
 10
-9.781461323895666
 20
6.7931702124280555
 30
0.0
 10
-9.757938384698978
 20
6.756803092851088
 30
0.0
 10
-9.741512209887025
 20
6.723263507101986
 30
0.0
 10
-9.732033529058222
 20
6.692863724627871
 30
0.0
 10
-9.729341025777618
 20
6.665911597344272
 30
0.0
 10
-9.73326321781879
 20
6.642708643109948
 30
0.0
 10
-9.743618167124426
 20
6.623550163139522
 30
0.0
 10
-9.787033591945496
 20
6.560406958617088
 30
0.0
 10
-9.939252319510283
 20
6.3274188514408145
 30
0.0
 10
-9.979637404465278
 20
6.262295827067609
 30
0.0
 10
-9.9930226936421
 20
6.2451171669505925
 30
0.0
 10
-10.012695813630273
 20
6.232204807548928
 30
0.0
 10
-10.038459418758032
 20
6.223843985277189
 30
0.0
 10
-10.070106250517508
 20
6.220312917745533
 30
0.0
 10
-10.107419360814195
 20
6.221882495912534
 30
0.0
 10
-10.150172344198142
 20
6.228815982910582
 30
0.0
 10
-10.19812957888354
 20
6.2413687197946475
 30
0.0
 10
-10.251046476359571
 20
6.259787838461578
 30
0.0
 10
-10.308669739386502
 20
6.284311981980129
 30
0.0
 10
-10.337815532782964
 20
6.297966879850737
 30
0.0
 10
-10.372434095308751
 20
6.3131993093133305
 30
0.0
 10
-10.413602001060163
 20
6.330164532016791
 30
0.0
 10
-10.461416958906831
 20
6.348560245927903
 30
0.0
 10
-10.515966019042988
 20
6.368080582339024
 30
0.0
 10
-10.57732546096623
 20
6.388416441445033
 30
0.0
 10
-10.645560691382082
 20
6.409255831176675
 30
0.0
 10
-10.720726152121546
 20
6.430284209007567
 30
0.0
 10
-10.802865238146245
 20
6.4511848264489595
 30
0.0
 10
-10.89201022593958
 20
6.471639075057531
 30
0.0
 10
-10.988182210893278
 20
6.491326839904744
 30
0.0
 10
-11.091391058079937
 20
6.50992684150052
 30
0.0
 10
-11.201635359233764
 20
6.527116997072643
 30
0.0
 10
-11.318902403247144
 20
6.54257476972144
 30
0.0
 10
-11.443168155818046
 20
6.555977523861008
 30
0.0
 10
-11.574397249769103
 20
6.567002880421375
 30
0.0
 10
-11.621808011651773
 20
6.569860377993916
 30
0.0
 10
-11.757175410853781
 20
6.36266514901549
 30
0.0
 10
-11.8565933613471
 20
6.1360150512924845
 30
0.0
 10
-11.828269931280687
 20
6.097887253769499
 30
0.0
 10
-11.747264361128924
 20
5.994056953804339
 30
0.0
 10
-11.668077100160502
 20
5.897356443046285
 30
0.0
 10
-11.590997377344276
 20
5.807639005078717
 30
0.0
 10
-11.516308437874182
 20
5.7247482956508335
 30
0.0
 10
-11.444287251177725
 20
5.648518545146088
 30
0.0
 10
-11.375204225016127
 20
5.578774769255475
 30
0.0
 10
-11.309322926228282
 20
5.515332988029525
 30
0.0
 10
-11.246899808120288
 20
5.458000452867714
 30
0.0
 10
-11.188183944801754
 20
5.406575881337113
 30
0.0
 10
-11.133416772585903
 20
5.3608496997278055
 30
0.0
 10
-11.082831802407048
 20
5.320604336245345
 30
0.0
 10
-11.03665466959781
 20
5.285613977344366
 30
0.0
 10
-10.995110501232256
 20
5.255652825904709
 30
0.0
 10
-10.958375438073091
 20
5.23045674973043
 30
0.0
 10
-10.926695917683581
 20
5.209811237657096
 30
0.0
 10
-10.899323256907135
 20
5.192879877683009
 30
0.0
 10
-10.847275528467733
 20
5.158053048635786
 30
0.0
 10
-10.802912860152583
 20
5.123827098964264
 30
0.0
 10
-10.76617400844293
 20
5.090544606013638
 30
0.0
 10
-10.73698606033056
 20
5.058545235085976
 30
0.0
 10
-10.71526348275856
 20
5.028166745083957
 30
0.0
 10
-10.700910439040774
 20
4.999741715607048
 30
0.0
 10
-10.693818483648062
 20
4.973600351684422
 30
0.0
 10
-10.693868101356488
 20
4.950068283911042
 30
0.0
 10
-10.70092844048913
 20
4.9294667319978585
 30
0.0
 10
-10.73335870562604
 20
4.860038774423797
 30
0.0
 10
-10.845152786108187
 20
4.605173942255494
 30
0.0
 10
-10.874268173627875
 20
4.534291944541592
 30
0.0
 10
-10.884643390383214
 20
4.515144432770011
 30
0.0
 10
-10.901922890151473
 20
4.499170091996583
 30
0.0
 10
-10.925958967169418
 20
4.486682750412955
 30
0.0
 10
-10.956592982778632
 20
4.477990944732893
 30
0.0
 10
-10.993655534960192
 20
4.473397579798105
 30
0.0
 10
-11.036966637826799
 20
4.4731995932872675
 30
0.0
 10
-11.086335910923012
 20
4.477687625807465
 30
0.0
 10
-11.141562778179814
 20
4.487145696644313
 30
0.0
 10
-11.202436676359797
 20
4.5018508854415495
 30
0.0
 10
-11.233432481443376
 20
4.510522308380535
 30
0.0
 10
-11.270086067384616
 20
4.51984895924421
 30
0.0
 10
-11.313484880439837
 20
4.529806783842644
 30
0.0
 10
-11.363675539577745
 20
4.540081520796968
 30
0.0
 10
-11.420693563406768
 20
4.5503571450589915
 30
0.0
 10
-11.484563314915802
 20
4.560316217349397
 30
0.0
 10
-11.555297956541345
 20
4.569640235174208
 30
0.0
 10
-11.632899415600534
 20
4.578009985126258
 30
0.0
 10
-11.717358360116544
 20
4.585105896177402
 30
0.0
 10
-11.808654185137426
 20
4.590608392753652
 30
0.0
 10
-11.906755009155752
 20
4.5941982536894965
 30
0.0
 10
-12.011617681831357
 20
4.595556957590762
 30
0.0
 10
-12.123187801023422
 20
4.594367046267378
 30
0.0
 10
-12.241399741158423
 20
4.5903124739821335
 30
0.0
 10
-12.366176691658818
 20
4.58307896139409
 30
0.0
 10
-12.497430705858491
 20
4.572354347509667
 30
0.0
 10
-12.544665175386587
 20
4.567369317612817
 30
0.0
 10
-12.644083125879895
 20
4.340719219889799
 30
0.0
 10
-12.704839765138292
 20
4.100796677255377
 30
0.0
 10
-12.67062700052955
 20
4.067850776561855
 30
0.0
 10
-12.573636335090285
 20
3.978769665185111
 30
0.0
 10
-12.479612704200422
 20
3.8964218181286387
 30
0.0
 10
-12.388817243394179
 20
3.820614914472885
 30
0.0
 10
-12.301503601352328
 20
3.751148121672205
 30
0.0
 10
-12.217917685218268
 20
3.687812343322115
 30
0.0
 10
-12.138297413273161
 20
3.630390474016844
 30
0.0
 10
-12.062872475543353
 20
3.578657661377773
 30
0.0
 10
-11.991864102269178
 20
3.5323815748172187
 30
0.0
 10
-11.925484840514452
 20
3.4913226808812614
 30
0.0
 10
-11.863938339016858
 20
3.4552345250611785
 30
0.0
 10
-11.807419112785558
 20
3.423864068321654
 30
0.0
 10
-11.756112552093356
 20
3.3969514385646304
 30
0.0
 10
-11.710203548589975
 20
3.3742368635498456
 30
0.0
 10
-11.669822365977133
 20
3.3554308216835693
 30
0.0
 10
-11.635176773353717
 20
3.340281165164301
 30
0.0
 10
-11.60539062973483
 20
3.328086118757273
 30
0.0
 10
-11.548320456814388
 20
3.3023010568023956
 30
0.0
 10
-11.498929431309481
 20
3.2758437596892893
 30
0.0
 10
-11.457213531360894
 20
3.249062212806554
 30
0.0
 10
-11.423156745470047
 20
3.222303449950969
 30
0.0
 10
-11.396730300427633
 20
3.195914701712476
 30
0.0
 10
-11.377894407437893
 20
3.1702397859383806
 30
0.0
 10
-11.36659644998884
 20
3.145622253639088
 30
0.0
 10
-11.362772139922773
 20
3.122402965791986
 30
0.0
 10
-11.366345281235816
 20
3.1009202985679996
 30
0.0
 10
-11.386905773595025
 20
3.0271014016397544
 30
0.0
 10
-11.455225755904392
 20
2.7573118927179405
 30
0.0
 10
-11.472277254115388
 20
2.682604397785399
 30
0.0
 10
-11.479359389582331
 20
2.6620103285665446
 30
0.0
 10
-11.493773929421291
 20
2.643409744795655
 30
0.0
 10
-11.515426836805744
 20
2.627136506026467
 30
0.0
 10
-11.544212420175802
 20
2.6135210519991054
 30
0.0
 10
-11.580013444433586
 20
2.6028900389839422
 30
0.0
 10
-11.622701252800267
 20
2.59556597952012
 30
0.0
 10
-11.672135899233322
 20
2.5918668858487273
 30
0.0
 10
-11.728166291297828
 20
2.592105917338414
 30
0.0
 10
-11.790630343374922
 20
2.596591032197514
 30
0.0
 10
-11.822630675382973
 20
2.6000424463918153
 30
0.0
 10
-11.860319470463953
 20
2.603208911933773
 30
0.0
 10
-11.9047653843351
 20
2.6058877149302457
 30
0.0
 10
-11.955962674420245
 20
2.60776120688791
 30
0.0
 10
-12.013894358886978
 20
2.6085118267575202
 30
0.0
 10
-12.07853221965665
 20
2.607822454701605
 30
0.0
 10
-12.149836815859791
 20
2.6053767657192246
 30
0.0
 10
-12.227757507727476
 20
2.6008595828320487
 30
0.0
 10
-12.312232490896438
 20
2.5939572295371303
 30
0.0
 10
-12.40318884102875
 20
2.584357880318395
 30
0.0
 10
-12.500542569362247
 20
2.57175191529461
 30
0.0
 10
-12.604198687172792
 20
2.5558322596008174
 30
0.0
 10
-12.71405128239313
 20
2.5362947390609594
 30
0.0
 10
-12.829983605078404
 20
2.5128384200041336
 30
0.0
 10
-12.951868163567868
 20
2.485165952055519
 30
0.0
 10
-13.079566830662472
 20
2.452983907236092
 30
0.0
 10
-13.12533657463833
 20
2.440292328490429
 30
0.0
 10
-13.186093213896728
 20
2.2003697858560054
 30
0.0
 10
-13.206531259181988
 20
1.9537192598418536
 30
0.0
 10
-13.167362395063417
 20
1.9268539342651618
 30
0.0
 10
-13.057032286854039
 20
1.8549519119780655
 30
0.0
 10
-12.950737005592096
 20
1.789202963226059
 30
0.0
 10
-12.84870247028053
 20
1.729374408599999
 30
0.0
 10
-12.751145814212148
 20
1.6752264054477104
 30
0.0
 10
-12.6582751745404
 20
1.6265122341816156
 30
0.0
 10
-12.570289490275892
 20
1.5829785903686928
 30
0.0
 10
-12.487378309287251
 20
1.5443658825879183
 30
0.0
 10
-12.409721604164798
 20
1.5104085356372368
 30
0.0
 10
-12.337489597196726
 20
1.4808352988899487
 30
0.0
 10
-12.270842594538488
 20
1.4553695596750598
 30
0.0
 10
-12.20993080941171
 20
1.433729713961649
 30
0.0
 10
-12.154894330066004
 20
1.4156289197323628
 30
0.0
 10
-12.10587276936453
 20
1.4007805155363768
 30
0.0
 10
-12.0629469606938
 20
1.3888774877765226
 30
0.0
 10
-12.026280337288926
 20
1.3796369299489577
 30
0.0
 10
-11.99489319917884
 20
1.3725108461848585
 30
0.0
 10
-11.934357307323786
 20
1.356470900595817
 30
0.0
 10
-11.881285183052102
 20
1.338503942137346
 30
0.0
 10
-11.83573013586995
 20
1.3189538721071794
 30
0.0
 10
-11.797733492540312
 20
1.2981656266194828
 30
0.0
 10
-11.76732402455964
 20
1.2764864364061286
 30
0.0
 10
-11.744519076357195
 20
1.2542619791076555
 30
0.0
 10
-11.729323295679434
 20
1.231839780539702
 30
0.0
 10
-11.72172937504825
 20
1.2095666342631823
 30
0.0
 10
-11.721717852561154
 20
1.1877888428891288
 30
0.0
 10
-11.729847735508304
 20
1.1115925936833992
 30
0.0
 10
-11.752830028624397
 20
0.8342375625227015
 30
0.0
 10
-11.757352517105442
 20
0.7577423960853763
 30
0.0
 10
-11.760948389090201
 20
0.736263521942807
 30
0.0
 10
-11.772104777928956
 20
0.7155440706116217
 30
0.0
 10
-11.79078388081139
 20
0.6959288261893308
 30
0.0
 10
-11.816935836266365
 20
0.6777611179076963
 30
0.0
 10
-11.850498773984926
 20
0.661382443134228
 30
0.0
 10
-11.891398875718252
 20
0.6471320919671966
 30
0.0
 10
-11.93955044719996
 20
0.6353467737367515
 30
0.0
 10
-11.99485600103698
 20
0.6263602457233466
 30
0.0
 10
-12.057206350502154
 20
0.6205029444027763
 30
0.0
 10
-12.089338323796134
 20
0.6186402042703371
 30
0.0
 10
-12.127034275934406
 20
0.6155601115649536
 30
0.0
 10
-12.171314921952922
 20
0.6108868221968395
 30
0.0
 10
-12.222122314373161
 20
0.604307965181067
 30
0.0
 10
-12.279387434141976
 20
0.5955131057049413
 30
0.0
 10
-12.34303025182882
 20
0.5841940935753323
 30
0.0
 10
-12.412959799102346
 20
0.5700454098057649
 30
0.0
 10
-12.489074250428459
 20
0.5527645110531085
 30
0.0
 10
-12.571261014919369
 20
0.5320521716169193
 30
0.0
 10
-12.659396838037013
 20
0.5076128218262507
 30
0.0
 10
-12.753347914758972
 20
0.4791548887073871
 30
0.0
 10
-12.852970009021917
 20
0.44639112012641713
 30
0.0
 10
-12.958108587837263
 20
0.40903892299989836
 30
0.0
 10
-13.06859896152296
 20
0.36682068440930143
 30
0.0
 10
-13.184266434975235
 20
0.3194640938890143
 30
0.0
 10
-13.30492646821201
 20
0.2667024604249274
 30
0.0
 10
-13.347983007332788
 20
0.2466505260141565
 30
0.0
 10
-13.368421052618045
 20
1.5543122344752192e-15
 30
0.0
 10
-13.347983007332795
 20
-0.24665052601415127
 30
0.0
 10
-13.30492646821194
 20
-0.26670246042495743
 30
0.0
 10
-13.184266434975273
 20
-0.3194640938889976
 30
0.0
 10
-13.068598961522957
 20
-0.3668206844093008
 30
0.0
 10
-12.958108587845187
 20
-0.40903892299687017
 30
0.0
 10
-12.852970009016595
 20
-0.446391120128082
 30
0.0
 10
-12.753347914761717
 20
-0.4791548887064102
 30
0.0
 10
-12.65939683828298
 20
-0.5076128227075077
 30
0.0
 10
-12.57126101491956
 20
-0.532052171617544
 30
0.0
 10
-12.489074250428647
 20
-0.5527645110537346
 30
0.0
 10
-12.412959799102529
 20
-0.5700454098055622
 30
0.0
 10
-12.343030251780394
 20
-0.5841940934337023
 30
0.0
 10
-12.279387422471222
 20
-0.5955130495408058
 30
0.0
 10
-12.22212227615917
 20
-0.6043082657610283
 30
0.0
 10
-12.171325338645868
 20
-0.6108854733786501
 30
0.0
 10
-12.127025808078558
 20
-0.6155608034636709
 30
0.0
 10
-12.089338323795955
 20
-0.6186402042703328
 30
0.0
 10
-12.057206350502153
 20
-0.6205029444027322
 30
0.0
 10
-11.994856001037
 20
-0.6263602457232865
 30
0.0
 10
-11.939550447199966
 20
-0.6353467737367405
 30
0.0
 10
-11.891398875718235
 20
-0.6471320919671445
 30
0.0
 10
-11.850498824329978
 20
-0.6613827709409598
 30
0.0
 10
-11.816935824425997
 20
-0.6777610513335853
 30
0.0
 10
-11.790783880549748
 20
-0.6959288248961705
 30
0.0
 10
-11.772104777927723
 20
-0.7155440706061598
 30
0.0
 10
-11.760948389090366
 20
-0.7362635219434333
 30
0.0
 10
-11.757352517106545
 20
-0.7577423960893346
 30
0.0
 10
-11.75283002862786
 20
-0.8342375625230132
 30
0.0
 10
-11.729847735504837
 20
-1.1115925936831366
 30
0.0
 10
-11.721717852559417
 20
-1.187788842892852
 30
0.0
 10
-11.721729375047987
 20
-1.209566634263773
 30
0.0
 10
-11.729323295681548
 20
-1.2318397805345176
 30
0.0
 10
-11.744519076828116
 20
-1.254261977875197
 30
0.0
 10
-11.767324047196261
 20
-1.2764863726888624
 30
0.0
 10
-11.797733388926684
 20
-1.298165941668834
 30
0.0
 10
-11.835730135869978
 20
-1.318953872107131
 30
0.0
 10
-11.881285183052096
 20
-1.3385039421373337
 30
0.0
 10
-11.934357307323777
 20
-1.3564709005957545
 30
0.0
 10
-11.994893199178852
 20
-1.3725108461848154
 30
0.0
 10
-12.026280337289103
 20
-1.379636929948983
 30
0.0
 10
-12.062955199176347
 20
-1.3888795640019072
 30
0.0
 10
-12.105862716749877
 20
-1.4007774705830018
 30
0.0
 10
-12.15489431828497
 20
-1.4156292225026215
 30
0.0
 10
-12.209930830167602
 20
-1.4337296604844618
 30
0.0
 10
-12.270842594609565
 20
-1.4553695595433316
 30
0.0
 10
-12.33748959719658
 20
-1.4808352988897182
 30
0.0
 10
-12.40972160416451
 20
-1.5104085356378234
 30
0.0
 10
-12.48737830928696
 20
-1.544365882588503
 30
0.0
 10
-12.57028948988823
 20
-1.5829785911974457
 30
0.0
 10
-12.658275174537856
 20
-1.6265122341802005
 30
0.0
 10
-12.751145814217125
 20
-1.6752264054502288
 30
0.0
 10
-12.848702470273214
 20
-1.729374408595708
 30
0.0
 10
-12.9507370055921
 20
-1.7892029632260589
 30
0.0
 10
-13.057032286854007
 20
-1.854951911978043
 30
0.0
 10
-13.167362395063483
 20
-1.9268539342652033
 30
0.0
 10
-13.206531259181993
 20
-1.9537192598418494
 30
0.0
 10
-13.186093213896738
 20
-2.200369785855998
 30
0.0
 10
-13.125336574638338
 20
-2.4402923284904188
 30
0.0
 10
-13.0795668306624
 20
-2.4529839072361037
 30
0.0
 10
-12.951868163567909
 20
-2.4851659520555027
 30
0.0
 10
-12.829983605078402
 20
-2.512838420004127
 30
0.0
 10
-12.714051282401446
 20
-2.536294739059271
 30
0.0
 10
-12.60419868716727
 20
-2.555832259601578
 30
0.0
 10
-12.500542569365116
 20
-2.5717519152940924
 30
0.0
 10
-12.403188841126314
 20
-2.5843578812281125
 30
0.0
 10
-12.312232490896523
 20
-2.5939572295377715
 30
0.0
 10
-12.22775750772756
 20
-2.600859582832692
 30
0.0
 10
-12.149836815860008
 20
-2.6053767657190496
 30
0.0
 10
-12.0785322196322
 20
-2.607822454553931
 30
0.0
 10
-12.013894356619712
 20
-2.608511769438442
 30
0.0
 10
-11.95596258725361
 20
-2.6077614970785308
 30
0.0
 10
-11.90477588096611
 20
-2.605888099039481
 30
0.0
 10
-11.860311004215836
 20
-2.603208200632624
 30
0.0
 10
-11.822630675382797
 20
-2.600042446391776
 30
0.0
 10
-11.790630343374927
 20
-2.5965910321974652
 30
0.0
 10
-11.728166291297859
 20
-2.592105917338353
 30
0.0
 10
-11.672135899233334
 20
-2.591866885848713
 30
0.0
 10
-11.622701252800258
 20
-2.5955659795200603
 30
0.0
 10
-11.580013440136785
 20
-2.6028903706063358
 30
0.0
 10
-11.54421241945466
 20
-2.613520984384113
 30
0.0
 10
-11.515426836760522
 20
-2.627136504707874
 30
0.0
 10
-11.493773929420977
 20
-2.64340974479006
 30
0.0
 10
-11.479359389582392
 20
-2.6620103285671846
 30
0.0
 10
-11.472277254115824
 20
-2.68260439778948
 30
0.0
 10
-11.455225755907758
 20
-2.757311892718813
 30
0.0
 10
-11.38690577359165
 20
-3.0271014016389195
 30
0.0
 10
-11.366345281233492
 20
-3.1009202985713813
 30
0.0
 10
-11.362772139922418
 20
-3.1224029657925203
 30
0.0
 10
-11.366596449991782
 20
-3.1456222536343175
 30
0.0
 10
-11.377894408105249
 20
-3.170239784800238
 30
0.0
 10
-11.39673033324304
 20
-3.1959146425900906
 30
0.0
 10
-11.423156591414159
 20
-3.222303743649211
 30
0.0
 10
-11.457213531360933
 20
-3.249062212806506
 30
0.0
 10
-11.498929431309477
 20
-3.275843759689272
 30
0.0
 10
-11.54832045681439
 20
-3.3023010568023277
 30
0.0
 10
-11.605390629734849
 20
-3.328086118757227
 30
0.0
 10
-11.635176773353892
 20
-3.3402811651643503
 30
0.0
 10
-11.669830150362051
 20
-3.3554342256016003
 30
0.0
 10
-11.71019413426274
 20
-3.374232205519671
 30
0.0
 10
-11.756112490638657
 20
-3.396951735266398
 30
0.0
 10
-11.807419142060427
 20
-3.4238640189901286
 30
0.0
 10
-11.863938339108648
 20
-3.4552345249429406
 30
0.0
 10
-11.925484840514345
 20
-3.4913226808810047
 30
0.0
 10
-11.9918641022688
 20
-3.5323815748177445
 30
0.0
 10
-12.062872475542973
 20
-3.5786576613782977
 30
0.0
 10
-12.13829741275438
 20
-3.6303904747704814
 30
0.0
 10
-12.217917685215992
 20
-3.687812343320294
 30
0.0
 10
-12.301503601356824
 20
-3.7511481216755023
 30
0.0
 10
-12.38881724338767
 20
-3.8206149144674426
 30
0.0
 10
-12.479612704200425
 20
-3.896421818128633
 30
0.0
 10
-12.573636335090256
 20
-3.9787696651850775
 30
0.0
 10
-12.67062700052961
 20
-4.0678507765619
 30
0.0
 10
-12.7048397651383
 20
-4.100796677255367
 30
0.0
 10
-12.644083125879902
 20
-4.340719219889791
 30
0.0
 10
-12.544665175386593
 20
-4.567369317612804
 30
0.0
 10
-12.497430705858418
 20
-4.572354347509662
 30
0.0
 10
-12.366176691658861
 20
-4.583078961394076
 30
0.0
 10
-12.241399741158425
 20
-4.590312473982121
 30
0.0
 10
-12.123187801031902
 20
-4.5943670462670765
 30
0.0
 10
-12.011617681825786
 20
-4.595556957590599
 30
0.0
 10
-11.906755009158669
 20
-4.594198253689454
 30
0.0
 10
-11.808654185083928
 20
-4.590608393667017
 30
0.0
 10
-11.717358360116524
 20
-4.585105896178045
 30
0.0
 10
-11.632899415600512
 20
-4.578009985126901
 30
0.0
 10
-11.555297956541589
 20
-4.5696402351740675
 30
0.0
 10
-11.484563314915992
 20
-4.560316217199707
 30
0.0
 10
-11.420693570604838
 20
-4.550357088148487
 30
0.0
 10
-11.36367540583614
 20
-4.5400817926826065
 30
0.0
 10
-11.31349517068818
 20
-4.529808890401805
 30
0.0
 10
-11.27007783368141
 20
-4.519846864145637
 30
0.0
 10
-11.233432481443211
 20
-4.510522308380463
 30
0.0
 10
-11.202436676359811
 20
-4.501850885441498
 30
0.0
 10
-11.141562778179855
 20
-4.487145696644253
 30
0.0
 10
-11.086335910923026
 20
-4.477687625807448
 30
0.0
 10
-11.0369666378268
 20
-4.473199593287203
 30
0.0
 10
-10.993655476138745
 20
-4.4733979061903675
 30
0.0
 10
-10.95659299319639
 20
-4.477990877921379
 30
0.0
 10
-10.925958967341844
 20
-4.486682749104897
 30
0.0
 10
-10.901922890152084
 20
-4.499170091991008
 30
0.0
 10
-10.88464339038317
 20
-4.515144432770648
 30
0.0
 10
-10.874268173627634
 20
-4.534291944545684
 30
0.0
 10
-10.845152786111365
 20
-4.605173942256904
 30
0.0
 10
-10.73335870562285
 20
-4.8600387744224145
 30
0.0
 10
-10.700928440486283
 20
-4.929466732000807
 30
0.0
 10
-10.693868101356049
 20
-4.950068283911505
 30
0.0
 10
-10.69381848365175
 20
-4.973600351680197
 30
0.0
 10
-10.700910439886362
 20
-4.999741714594267
 30
0.0
 10
-10.715263524857633
 20
-5.028166692169158
 30
0.0
 10
-10.73698586003465
 20
-5.058545499421786
 30
0.0
 10
-10.766174008442974
 20
-5.0905446060135935
 30
0.0
 10
-10.802912860152587
 20
-5.123827098964242
 30
0.0
 10
-10.84727552846775
 20
-5.158053048635715
 30
0.0
 10
-10.899323256907163
 20
-5.192879877682962
 30
0.0
 10
-10.926695917683748
 20
-5.209811237657169
 30
0.0
 10
-10.958382556022652
 20
-5.230461388491096
 30
0.0
 10
-10.995101981990743
 20
-5.255646681856655
 30
0.0
 10
-11.03665456014577
 20
-5.285614259884393
 30
0.0
 10
-11.082831839402347
 20
-5.320604292405118
 30
0.0
 10
-11.133416772695906
 20
-5.360849699626284
 30
0.0
 10
-11.188183944801693
 20
-5.406575881336837
 30
0.0
 10
-11.24689980811983
 20
-5.458000452868166
 30
0.0
 10
-11.309322926227821
 20
-5.515332988029974
 30
0.0
 10
-11.375204224380377
 20
-5.578774769913441
 30
0.0
 10
-11.44428725117578
 20
-5.648518545143914
 30
0.0
 10
-11.516308437878077
 20
-5.724748295654822
 30
0.0
 10
-11.590997377338754
 20
-5.807639005072273
 30
0.0
 10
-11.66807710016051
 20
-5.897356443046276
 30
0.0
 10
-11.747264361128904
 20
-5.9940569538042965
 30
0.0
 10
-11.82826993128074
 20
-6.097887253769549
 30
0.0
 10
-11.856593361347104
 20
-6.13601505129247
 30
0.0
 10
-11.757175410853794
 20
-6.3626651490154895
 30
0.0
 10
-11.621808011651787
 20
-6.569860377993921
 30
0.0
 10
-11.574397249769026
 20
-6.567002880421369
 30
0.0
 10
-11.443168155818089
 20
-6.555977523861013
 30
0.0
 10
-11.318902403247142
 20
-6.54257476972144
 30
0.0
 10
-11.201635359242175
 20
-6.527116997073752
 30
0.0
 10
-11.091391058074466
 20
-6.509926841499452
 30
0.0
 10
-10.988182210896158
 20
-6.491326839905192
 30
0.0
 10
-10.892010225736472
 20
-6.471639075949643
 30
0.0
 10
-10.802865238146115
 20
-6.451184826449601
 30
0.0
 10
-10.720726152121417
 20
-6.4302842090082075
 30
0.0
 10
-10.645560691382343
 20
-6.409255831176584
 30
0.0
 10
-10.577325460991053
 20
-6.388416441297426
 30
0.0
 10
-10.515966035510043
 20
-6.368080527389478
 30
0.0
 10
-10.461416782238382
 20
-6.348560492092241
 30
0.0
 10
-10.413611804234685
 20
-6.330168303564451
 30
0.0
 10
-10.372426318744413
 20
-6.313195887566176
 30
0.0
 10
-10.33781553278281
 20
-6.297966879850649
 30
0.0
 10
-10.30866973938652
 20
-6.28431198198009
 30
0.0
 10
-10.251046476359619
 20
-6.259787838461536
 30
0.0
 10
-10.198129578883552
 20
-6.241368719794643
 30
0.0
 10
-10.15017234419815
 20
-6.228815982910529
 30
0.0
 10
-10.10741924907259
 20
-6.221882808171548
 30
0.0
 10
-10.07010627178999
 20
-6.220312853559958
 30
0.0
 10
-10.038459419143404
 20
-6.223843984015362
 30
0.0
 10
-10.01269581363179
 20
-6.232204807543539
 30
0.0
 10
-9.993022693641947
 20
-6.245117166951222
 30
0.0
 10
-9.979637404464363
 20
-6.262295827071616
 30
0.0
 10
-9.939252319513182
 20
-6.327418851442738
 30
0.0
 10
-9.787033591942572
 20
-6.560406958615208
 30
0.0
 10
-9.743618167121127
 20
-6.623550163141971
 30
0.0
 10
-9.733263217818276
 20
-6.6427086431103435
 30
0.0
 10
-9.729341025781945
 20
-6.66591159734072
 30
0.0
 10
-9.732033530058972
 20
-6.692863723768091
 30
0.0
 10
-9.741512260121407
 20
-6.723263461838166
 30
0.0
 10
-9.757938143626596
 20
-6.75680332061409
 30
0.0
 10
-9.781461323895716
 20
-6.793170212428028
 30
0.0
 10
-9.812220987262794
 20
-6.83204579179985
 30
0.0
 10
-9.850345200441415
 20
-6.873106799343094
 30
0.0
 10
-9.895950758046258
 20
-6.91602541037305
 30
0.0
 10
-9.920163281149598
 20
-6.937231240551004
 30
0.0
 10
-9.948018851926268
 20
-6.962815199497786
 30
0.0
 10
-9.980092109741747
 20
-6.993700817160979
 30
0.0
 10
-10.016145463663303
 20
-7.030099006060776
 30
0.0
 10
-10.055933774951754
 20
-7.072212350503539
 30
0.0
 10
-10.099204619375477
 20
-7.120234869196013
 30
0.0
 10
-10.145698556493674
 20
-7.17435178564125
 30
0.0
 10
-10.195149405685004
 20
-7.234739306509646
 30
0.0
 10
-10.247284528689752
 20
-7.30156440816826
 30
0.0
 10
-10.301825117709582
 20
-7.37498463211361
 30
0.0
 10
-10.35848649395381
 20
-7.455147885644909
 30
0.0
 10
-10.416978400989551
 20
-7.542192259433709
 30
0.0
 10
-10.477005318311107
 20
-7.636245843003715
 30
0.0
 10
-10.538266769235127
 20
-7.737426557458505
 30
0.0
 10
-10.600457638228649
 20
-7.845841994064044
 30
0.0
 10
-10.66326849230499
 20
-7.9615892627000635
 30
0.0
 10
-10.684929998490492
 20
-8.003858930127764
 30
0.0
 10
-10.549562599288482
 20
-8.211054159106189
 30
0.0
 10
-10.381938221151525
 20
-8.393142773611153
 30
0.0
 10
-10.335644408907712
 20
-8.382520693654033
 30
0.0
 10
-10.208019822799656
 20
-8.350046109634913
 30
0.0
 10
-10.087654913951694
 20
-8.316372680962276
 30
0.0
 10
-9.974531505336369
 20
-8.28182421112437
 30
0.0
 10
-9.868620199357478
 20
-8.246722891284923
 30
0.0
 10
-9.769880445973618
 20
-8.211388951554456
 30
0.0
 10
-9.67826062078249
 20
-8.176140314544332
 30
0.0
 10
-9.593698113447008
 20
-8.14129225163933
 30
0.0
 10
-9.516119426059756
 20
-8.107157042167646
 30
0.0
 10
-9.44544028146776
 20
-8.074043635787593
 30
0.0
 10
-9.381565741519884
 20
-8.042257318235302
 30
0.0
 10
-9.324390360044056
 20
-8.012099330190264
 30
0.0
 10
-9.27379797969939
 20
-7.983867010739646
 30
0.0
 10
-9.229672254021622
 20
-7.957857226923049
 30
0.0
 10
-9.191842052729475
 20
-7.934337384447312
 30
0.0
 10
-9.160209925061913
 20
-7.913619332412851
 30
0.0
 10
-9.133709164619175
 20
-7.895353429628948
 30
0.0
 10
-9.080908349148062
 20
-7.861679286094598
 30
0.0
 10
-9.031744856471853
 20
-7.8348015451397925
 30
0.0
 10
-8.986507808544312
 20
-7.814526509831464
 30
0.0
 10
-8.94547897296727
 20
-7.80065096638378
 30
0.0
 10
-8.908933302097024
 20
-7.7929609096988255
 30
0.0
 10
-8.877136866301406
 20
-7.791234979392262
 30
0.0
 10
-8.850348496465589
 20
-7.795241222091696
 30
0.0
 10
-8.828818387684144
 20
-7.804739384622793
 30
0.0
 10
-8.812788141880432
 20
-7.819480604021882
 30
0.0
 10
-8.762234959335748
 20
-7.877068268711118
 30
0.0
 10
-8.573743714766561
 20
-8.081824342681548
 30
0.0
 10
-8.520527389873802
 20
-8.13696041213924
 30
0.0
 10
-8.507160286421978
 20
-8.154153226774179
 30
0.0
 10
-8.499472507227976
 20
-8.176394151360427
 30
0.0
 10
-8.497692115049572
 20
-8.203421857551108
 30
0.0
 10
-8.502037935156272
 20
-8.234967130508014
 30
0.0
 10
-8.512719311706697
 20
-8.270753160891715
 30
0.0
 10
-8.529935872799223
 20
-8.310495843920513
 30
0.0
 10
-8.553877304391571
 20
-8.353904085249317
 30
0.0
 10
-8.584723133280546
 20
-8.40068011341661
 30
0.0
 10
-8.622642519324172
 20
-8.450519798600846
 30
0.0
 10
-8.643034450241348
 20
-8.475421659214767
 30
0.0
 10
-8.666299126099046
 20
-8.505241562566738
 30
0.0
 10
-8.692851340897453
 20
-8.54098502539051
 30
0.0
 10
-8.722422029074636
 20
-8.582820977452178
 30
0.0
 10
-8.754736050983398
 20
-8.630908891561871
 30
0.0
 10
-8.789512490700082
 20
-8.685398592601087
 30
0.0
 10
-8.826464959426747
 20
-8.746430075372656
 30
0.0
 10
-8.86530190423408
 20
-8.814133331427348
 30
0.0
 10
-8.905726921886135
 20
-8.88862818500956
 30
0.0
 10
-8.947439076681482
 20
-8.970024138699802
 30
0.0
 10
-8.990133227735775
 20
-9.0584202259456
 30
0.0
 10
-9.03350034835805
 20
-9.15390487940308
 30
0.0
 10
-9.077227865714448
 20
-9.256555800545247
 30
0.0
 10
-9.120999992056209
 20
-9.366439845348934
 30
0.0
 10
-9.164498064288212
 20
-9.483612917309339
 30
0.0
 10
-9.207400885925528
 20
-9.608119870858346
 30
0.0
 10
-9.221809598808756
 20
-9.653378401852196
 30
0.0
 10
-9.0541852206718
 20
-9.835467016357155
 30
0.0
 10
-8.858876219671329
 20
-9.987482113654561
 30
0.0
 10
-8.814962131585514
 20
-9.969385193964404
 30
0.0
 10
-8.694423319336904
 20
-9.91634720448364
 30
0.0
 10
-8.5812424951574
 20
-9.863321624632052
 30
0.0
 10
-8.475348433628024
 20
-9.810624849799964
 30
0.0
 10
-8.37665910717489
 20
-9.75856983819828
 30
0.0
 10
-8.285081810662462
 20
-9.707465778098745
 30
0.0
 10
-8.200513295436046
 20
-9.657617758965346
 30
0.0
 10
-8.122839913117543
 20
-9.609326446969312
 30
0.0
 10
-8.05193776872712
 20
-9.562887764997877
 30
0.0
 10
-7.987672883099895
 20
-9.518592577475227
 30
0.0
 10
-7.929901364536711
 20
-9.476726380131888
 30
0.0
 10
-7.878469622427629
 20
-9.437568949247622
 30
0.0
 10
-7.833214143261267
 20
-9.40139444972207
 30
0.0
 10
-7.7939713046787364
 20
-9.368476549716735
 30
0.0
 10
-7.760528296859987
 20
-9.339050840754624
 30
0.0
 10
-7.732737669470438
 20
-9.313408878852796
 30
0.0
 10
-7.709604813643798
 20
-9.291030217367835
 30
0.0
 10
-7.663066714333078
 20
-9.24912461667137
 30
0.0
 10
-7.6189976783772675
 20
-9.214521408136855
 30
0.0
 10
-7.577714765950869
 20
-9.187077124514454
 30
0.0
 10
-7.539529349602697
 20
-9.166637701012476
 30
0.0
 10
-7.504747855778688
 20
-9.15303730695404
 30
0.0
 10
-7.473669160715425
 20
-9.14610139476511
 30
0.0
 10
-7.446586743452455
 20
-9.145643776778456
 30
0.0
 10
-7.4237869311221605
 20
-9.151468657318977
 30
0.0
 10
-7.4055489920101145
 20
-9.163370333959048
 30
0.0
 10
-7.346206670909435
 20
-9.21185179759351
 30
0.0
 10
-7.1265844591335155
 20
-9.382790626423239
 30
0.0
 10
-7.065018836787912
 20
-9.428415592566061
 30
0.0
 10
-7.049004198923841
 20
-9.443173766702648
 30
0.0
 10
-7.037760535148036
 20
-9.463845987199813
 30
0.0
 10
-7.031555810971694
 20
-9.490212027784898
 30
0.0
 10
-7.030650178478855
 20
-9.522042362814764
 30
0.0
 10
-7.035295687966489
 20
-9.55909841518459
 30
0.0
 10
-7.045736006976043
 20
-9.601132812636664
 30
0.0
 10
-7.062206146950478
 20
-9.64788965225584
 30
0.0
 10
-7.084932197746788
 20
-9.699104772934785
 30
0.0
 10
-7.1141310702263905
 20
-9.754506035583837
 30
0.0
 10
-7.1301461702397795
 20
-9.782424668790481
 30
0.0
 10
-7.14818535146759
 20
-9.815667107318887
 30
0.0
 10
-7.168492248045683
 20
-9.855293426813661
 30
0.0
 10
-7.190773659190049
 20
-9.901425966323142
 30
0.0
 10
-7.21473194943782
 20
-9.954176737158695
 30
0.0
 10
-7.240065373827405
 20
-10.013647283544351
 30
0.0
 10
-7.266468407143577
 20
-10.079928552889442
 30
0.0
 10
-7.293632076952921
 20
-10.153100775794474
 30
0.0
 10
-7.321244300150894
 20
-10.233233355888151
 30
0.0
 10
-7.348990221874414
 20
-10.320384769890035
 30
0.0
 10
-7.376552562593358
 20
-10.414602476021665
 30
0.0
 10
-7.403611954801234
 20
-10.51592283671142
 30
0.0
 10
-7.429847299508122
 20
-10.624371045887967
 30
0.0
 10
-7.454936111766436
 20
-10.739961070744634
 30
0.0
 10
-7.478554873217444
 20
-10.862695602104228
 30
0.0
 10
-7.500379385280781
 20
-10.992566015438811
 30
0.0
 10
-7.507142272735002
 20
-11.03957887525349
 30
0.0
 10
-7.311833271734521
 20
-11.191593972550892
 30
0.0
 10
-7.09416716828526
 20
-11.309388977060236
 30
0.0
 10
-7.053830666204937
 20
-11.28431085443104
 30
0.0
 10
-6.943665612392682
 20
-11.212156197581946
 30
0.0
 10
-6.840756150724862
 20
-11.141224866142386
 30
0.0
 10
-6.744979950234742
 20
-11.071817216963298
 30
0.0
 10
-6.65620459086913
 20
-11.004228438618583
 30
0.0
 10
-6.574287741152799
 20
-10.938748243691153
 30
0.0
 10
-6.499077344532807
 20
-10.875660566452346
 30
0.0
 10
-6.430411814621538
 20
-10.81524326647048
 30
0.0
 10
-6.368120238898817
 20
-10.75776783818686
 30
0.0
 10
-6.31202259079022
 20
-10.703499126768303
 30
0.0
 10
-6.261929950039022
 20
-10.652695050360405
 30
0.0
 10
-6.217644771148878
 20
-10.60560628927563
 30
0.0
 10
-6.178960644660248
 20
-10.562476355722323
 30
0.0
 10
-6.145671135511042
 20
-10.523548254029835
 30
0.0
 10
-6.117527559239572
 20
-10.489019335214735
 30
0.0
 10
-6.094336487998462
 20
-10.459152909322619
 30
0.0
 10
-6.075202540792017
 20
-10.433271920685096
 30
0.0
 10
-6.036196595675114
 20
-10.384277938373762
 30
0.0
 10
-5.998424104861177
 20
-10.34289314758453
 30
0.0
 10
-5.962221418170391
 20
-10.309028224163365
 30
0.0
 10
-5.927921019667115
 20
-10.282582454798627
 30
0.0
 10
-5.895852451372277
 20
-10.263442706663044
 30
0.0
 10
-5.866339242826581
 20
-10.251486006195684
 30
0.0
 10
-5.8397015158808
 20
-10.2465770101487
 30
0.0
 10
-5.816253919447353
 20
-10.24856972114183
 30
0.0
 10
-5.796305770463188
 20
-10.257307208309493
 30
0.0
 10
-5.729793014632254
 20
-10.295360022942981
 30
0.0
 10
-5.485030557074472
 20
-10.4278188409858
 30
0.0
 10
-5.416794986964012
 20
-10.462688173672788
 30
0.0
 10
-5.398569652261582
 20
-10.474609142792263
 30
0.0
 10
-5.384076801741732
 20
-10.493148774913644
 30
0.0
 10
-5.373616994268474
 20
-10.518133953037108
 30
0.0
 10
-5.3674846124696955
 20
-10.549381101575808
 30
0.0
 10
-5.365967537505654
 20
-10.586696383421032
 30
0.0
 10
-5.3693468297455365
 20
-10.629875906509385
 30
0.0
 10
-5.377896415618006
 20
-10.678705939720105
 30
0.0
 10
-5.39188278089832
 20
-10.732963137926436
 30
0.0
 10
-5.411564670688435
 20
-10.79241477601555
 30
0.0
 10
-5.42276608961792
 20
-10.822588634279487
 30
0.0
 10
-5.4350877143765866
 20
-10.858346840917841
 30
0.0
 10
-5.448595373531843
 20
-10.900775114385905
 30
0.0
 10
-5.462979728830679
 20
-10.949945865923937
 30
0.0
 10
-5.4779287677141
 20
-11.00592058996795
 30
0.0
 10
-5.493128146998547
 20
-11.068749780222788
 30
0.0
 10
-5.5082615389829295
 20
-11.138472855896044
 30
0.0
 10
-5.523010979692291
 20
-11.215118098156317
 30
0.0
 10
-5.537057218967033
 20
-11.29870259686655
 30
0.0
 10
-5.550080071202327
 20
-11.389232207792881
 30
0.0
 10
-5.561758772780769
 20
-11.486701519394302
 30
0.0
 10
-5.571772326893389
 20
-11.591093831999187
 30
0.0
 10
-5.579799867137602
 20
-11.702381144767159
 30
0.0
 10
-5.585521007915715
 20
-11.820524155119422
 30
0.0
 10
-5.588616200342859
 20
-11.94547226780776
 30
0.0
 10
-5.588767087035385
 20
-12.077163614599051
 30
0.0
 10
-5.587699675120372
 20
-12.124648414972189
 30
0.0
 10
-5.370033571671103
 20
-12.242443419481532
 30
0.0
 10
-5.1359477296619644
 20
-12.322805190548461
 30
0.0
 10
-5.100289088214474
 20
-12.291429930791766
 30
0.0
 10
-5.003502808327711
 20
-12.202126797520036
 30
0.0
 10
-4.913671811020928
 20
-12.115224536309993
 30
0.0
 10
-4.830625996649514
 20
-12.030999272521276
 30
0.0
 10
-4.754186164754828
 20
-11.949720373115973
 30
0.0
 10
-4.684164239953565
 20
-11.871650172384143
 30
0.0
 10
-4.6203635055009205
 20
-11.797043704417705
 30
0.0
 10
-4.562578844655184
 20
-11.726148442897362
 30
0.0
 10
-4.510596989403864
 20
-11.65920404815788
 30
0.0
 10
-4.4641967764186425
 20
-11.596442121822937
 30
0.0
 10
-4.423149410137356
 20
-11.538085969118551
 30
0.0
 10
-4.387218778703426
 20
-11.48435033648442
 30
0.0
 10
-4.356161207021148
 20
-11.435441441059341
 30
0.0
 10
-4.329733078335581
 20
-11.391564994815885
 30
0.0
 10
-4.307656617007248
 20
-11.352874725042899
 30
0.0
 10
-4.289697693883425
 20
-11.319598513402868
 30
0.0
 10
-4.2750845794984915
 20
-11.290921163516114
 30
0.0
 10
-4.244674769077282
 20
-11.236175227709587
 30
0.0
 10
-4.214229158489087
 20
-11.189137723876266
 30
0.0
 10
-4.184094212453479
 20
-11.149775907488001
 30
0.0
 10
-4.154614457251802
 20
-11.1180451639098
 30
0.0
 10
-4.1261335614327
 20
-11.093888144132606
 30
0.0
 10
-4.098990882798504
 20
-11.077236803006778
 30
0.0
 10
-4.073524453921621
 20
-11.068010333514822
 30
0.0
 10
-4.050068662692403
 20
-11.066116518999282
 30
0.0
 10
-4.028954437339467
 20
-11.071451480821535
 30
0.0
 10
-3.957085541371531
 20
-11.09803766486713
 30
0.0
 10
-3.6938593198259557
 20
-11.1884033408612
 30
0.0
 10
-3.620815090426398
 20
-11.211565895594218
 30
0.0
 10
-3.6008761985063877
 20
-11.22032448673465
 30
0.0
 10
-3.5835294884246336
 20
-11.236225817645188
 30
0.0
 10
-3.5690999139356476
 20
-11.259148602779318
 30
0.0
 10
-3.5579080582204723
 20
-11.288960224069955
 30
0.0
 10
-3.5502697806550554
 20
-11.325516871775518
 30
0.0
 10
-3.5464958678421206
 20
-11.368663695670918
 30
0.0
 10
-3.546891689197129
 20
-11.418234966457591
 30
0.0
 10
-3.551756857376336
 20
-11.474054247262195
 30
0.0
 10
-3.5613848938303456
 20
-11.535934575083155
 30
0.0
 10
-3.567467086167451
 20
-11.567540594208324
 30
0.0
 10
-3.573735052653634
 20
-11.604839178294222
 30
0.0
 10
-3.5800750206561376
 20
-11.648912073037616
 30
0.0
 10
-3.586169952394107
 20
-11.699779786680827
 30
0.0
 10
-3.591701969101675
 20
-11.757451619376596
 30
0.0
 10
-3.59635270383593
 20
-11.82192563697394
 30
0.0
 10
-3.5998036550049965
 20
-11.893188655225487
 30
0.0
 10
-3.6017365403207466
 20
-11.971216234431374
 30
0.0
 10
-3.601833650880656
 20
-12.055972684521873
 30
0.0
 10
-3.599778204166788
 20
-12.147411080579666
 30
0.0
 10
-3.5952547020697705
 20
-12.245473288913924
 30
0.0
 10
-3.5879492744343295
 20
-12.350090003276524
 30
0.0
 10
-3.57755003984424
 20
-12.461180791847985
 30
0.0
 10
-3.5637474513356278
 20
-12.578654154349277
 30
0.0
 10
-3.5462346459580587
 20
-12.702407589567642
 30
0.0
 10
-3.524707791484134
 20
-12.832327673168894
 30
0.0
 10
-3.5158391964143947
 20
-12.878989152529943
 30
0.0
 10
-3.281753354405259
 20
-12.959350923596869
 30
0.0
 10
-3.0376330253900097
 20
-13.00008740159419
 30
0.0
 10
-3.0076249193588964
 20
-12.96327084000696
 30
0.0
 10
-2.926857490809934
 20
-12.859255186992351
 30
0.0
 10
-2.8525553132987858
 20
-12.75875246316035
 30
0.0
 10
-2.784505158377849
 20
-12.662007030399279
 30
0.0
 10
-2.722485933304405
 20
-12.569255086430895
 30
0.0
 10
-2.6662689489932543
 20
-12.4807244314568
 30
0.0
 10
-2.615618194427721
 20
-12.396634242724307
 30
0.0
 10
-2.5702906175620233
 20
-12.317194857589609
 30
0.0
 10
-2.5300364122867762
 20
-12.242607564971745
 30
0.0
 10
-2.494599311278838
 20
-12.173064405462705
 30
0.0
 10
-2.4637168846171176
 20
-12.108747980184464
 30
0.0
 10
-2.4371208946007545
 20
-12.049831243980899
 30
0.0
 10
-2.414537047319274
 20
-11.99647749385527
 30
0.0
 10
-2.395691189554899
 20
-11.94884953813701
 30
0.0
 10
-2.380284031485701
 20
-11.907053287107537
 30
0.0
 10
-2.368047129086563
 20
-11.871274978028522
 30
0.0
 10
-2.3583534551900147
 20
-11.840583510241173
 30
0.0
 10
-2.337369279820331
 20
-11.781578947356252
 30
0.0
 10
-2.315081026348942
 20
-11.730171790965798
 30
0.0
 10
-2.29183582374042
 20
-11.686386769352907
 30
0.0
 10
-2.2679808427142585
 20
-11.650236583530178
 30
0.0
 10
-2.2438645039646823
 20
-11.621721232638246
 30
0.0
 10
-2.2198327367594466
 20
-11.600829456033054
 30
0.0
 10
-2.196232263745197
 20
-11.58753718713226
 30
0.0
 10
-2.1734080905602564
 20
-11.581808505431223
 30
0.0
 10
-2.1517037298654977
 20
-11.583595418056765
 30
0.0
 10
-2.076439089894338
 20
-11.59798976971871
 30
0.0
 10
-1.8019292295051856
 20
-11.64379736358865
 30
0.0
 10
-1.7260687969824537
 20
-11.654621326254853
 30
0.0
 10
-1.7049602288396308
 20
-11.659978627881877
 30
0.0
 10
-1.6852328322275045
 20
-11.672807910726009
 30
0.0
 10
-1.6672270918997556
 20
-11.693043029047589
 30
0.0
 10
-1.6512810469171033
 20
-11.72060593977445
 30
0.0
 10
-1.6377299190507928
 20
-11.755406783287013
 30
0.0
 10
-1.6269057436887195
 20
-11.797343975108966
 30
0.0
 10
-1.619137003551533
 20
-11.846304308427191
 30
0.0
 10
-1.6147482655242495
 20
-11.902163067359727
 30
0.0
 10
-1.614059820906107
 20
-11.964784150879554
 30
0.0
 10
-1.6148568802989682
 20
-11.99696020105496
 30
0.0
 10
-1.6149002147262947
 20
-12.034781754444689
 30
0.0
 10
-1.6138995537760004
 20
-12.079297076784279
 30
0.0
 10
-1.6115388081035928
 20
-12.130474213906712
 30
0.0
 10
-1.6075029036404167
 20
-12.188270017997544
 30
0.0
 10
-1.6014781339044883
 20
-12.252630179808559
 30
0.0
 10
-1.5931525113063068
 20
-12.323489271269318
 30
0.0
 10
-1.5822161171556872
 20
-12.400770798462801
 30
0.0
 10
-1.5683614500778387
 20
-12.484387264918674
 30
0.0
 10
-1.551283771643013
 20
-12.57424024502558
 30
0.0
 10
-1.5306814552158527
 20
-12.670220468678416
 30
0.0
 10
-1.5062563188544158
 20
-12.772207913546339
 30
0.0
 10
-1.4777139734408613
 20
-12.880071910801133
 30
0.0
 10
-1.444764154279375
 20
-12.993671258352618
 30
0.0
 10
-1.4071210547753177
 20
-13.112854344989382
 30
0.0
 10
-1.3645036556086694
 20
-13.237459284196337
 30
0.0
 10
-1.348075789539006
 20
-13.282024639025735
 30
0.0
 10
-1.1039554605237456
 20
-13.322761117023047
 30
0.0
 10
-0.8564596107037125
 20
-13.32276111702305
 30
0.0
 10
-0.8329205829962124
 20
-13.281507513431771
 30
0.0
 10
-0.7703751306908942
 20
-13.165616616539952
 30
0.0
 10
-0.7136285426865631
 20
-13.054254882401082
 30
0.0
 10
-0.6624302780488317
 20
-12.947628243876858
 30
0.0
 10
-0.6165233825845812
 20
-12.845933286590574
 30
0.0
 10
-0.5756447915488098
 20
-12.749357062859717
 30
0.0
 10
-0.5395256374182734
 20
-12.658076914503031
 30
0.0
 10
-0.5078915626693353
 20
-12.572260305097432
 30
0.0
 10
-0.4804630371551891
 20
-12.49206466150924
 30
0.0
 10
-0.45695567986240315
 20
-12.41763722493202
 30
0.0
 10
-0.43708058491510304
 20
-12.349114911501111
 30
0.0
 10
-0.42054470559338164
 20
-12.286624166707274
 30
0.0
 10
-0.4070506111948406
 20
-12.230280913101677
 30
0.0
 10
-0.3963010902239858
 20
-12.180200614383791
 30
0.0
 10
-0.38798350252258645
 20
-12.136438474871223
 30
0.0
 10
-0.3818024116463588
 20
-12.099134007357808
 30
0.0
 10
-0.3772925963925717
 20
-12.067265604904419
 30
0.0
 10
-0.3663064496768363
 20
-12.005611905603189
 30
0.0
 10
-0.3527835187758111
 20
-11.951237349873477
 30
0.0
 10
-0.337062128125816
 20
-11.904223464286527
 30
0.0
 10
-0.31948262297226887
 20
-11.864639919052012
 30
0.0
 10
-0.3003886721467041
 20
-11.832544061483702
 30
0.0
 10
-0.2801233403336451
 20
-11.80798172260414
 30
0.0
 10
-0.2590325825640169
 20
-11.79098623273976
 30
0.0
 10
-0.23746261136966024
 20
-11.781578947356476
 30
0.0
 10
-0.2157601537137867
 20
-11.779769068467012
 30
0.0
 10
-0.1391527929175424
 20
-11.781578947355245
 30
0.0
 10
0.13915279291757082
 20
-11.781578947351768
 30
0.0
 10
0.2157601537176444
 20
-11.779769068465589
 30
0.0
 10
0.23746261137027463
 20
-11.781578947356259
 30
0.0
 10
0.2590325825586795
 20
-11.79098623274144
 30
0.0
 10
0.2801233390665117
 20
-11.807981722971677
 30
0.0
 10
0.300388606777751
 20
-11.832544078781277
 30
0.0
 10
0.3194829455019165
 20
-11.864639841808847
 30
0.0
 10
0.33706212812576936
 20
-11.90422346428655
 30
0.0
 10
0.35278351877580333
 20
-11.951237349873468
 30
0.0
 10
0.3663064496767788
 20
-12.005611905603173
 30
0.0
 10
0.3772925963925318
 20
-12.067265604904426
 30
0.0
 10
0.38180241164637335
 20
-12.09913400735799
 30
0.0
 10
0.38798489132811625
 20
-12.136446856668508
 30
0.0
 10
0.3962988858090128
 20
-12.180190344653656
 30
0.0
 10
0.407050913903859
 20
-12.230280926363452
 30
0.0
 10
0.42054465058484225
 20
-12.286624182976164
 30
0.0
 10
0.43708058477795975
 20
-12.349114911561067
 30
0.0
 10
0.45695567986219
 20
-12.417637224931854
 30
0.0
 10
0.48046303715580174
 20
-12.492064661509001
 30
0.0
 10
0.5078915626699466
 20
-12.57226030509719
 30
0.0
 10
0.5395256382762129
 20
-12.658076914185132
 30
0.0
 10
0.5756447915476136
 20
-12.749357062857065
 30
0.0
 10
0.6165233825866844
 20
-12.845933286595741
 30
0.0
 10
0.6624302780451637
 20
-12.947628243869213
 30
0.0
 10
0.7136285426865668
 20
-13.054254882401084
 30
0.0
 10
0.7703751306908787
 20
-13.165616616539916
 30
0.0
 10
0.8329205829962524
 20
-13.28150751343184
 30
0.0
 10
0.8564596107037113
 20
-13.32276111702305
 30
0.0
 10
1.1039554605237414
 20
-13.32276111702305
 30
0.0
 10
1.3480757895389943
 20
-13.282024639025742
 30
0.0
 10
1.3645036556086865
 20
-13.237459284196264
 30
0.0
 10
1.407121054775297
 20
-13.11285434498942
 30
0.0
 10
1.4447641542793674
 20
-12.993671258352615
 30
0.0
 10
1.4777139734384908
 20
-12.88007191080928
 30
0.0
 10
1.506256318855629
 20
-12.772207913540896
 30
0.0
 10
1.5306814552150987
 20
-12.670220468681231
 30
0.0
 10
1.551283772541565
 20
-12.574240245197934
 30
0.0
 10
1.56836145007847
 20
-12.484387264918814
 30
0.0
 10
1.5822161171563198
 20
-12.400770798462936
 30
0.0
 10
1.593152511306113
 20
-12.32348927126952
 30
0.0
 10
1.6014781337593365
 20
-12.252630179771996
 30
0.0
 10
1.60750284670434
 20
-12.188270011004649
 30
0.0
 10
1.611539104501228
 20
-12.130474151001547
 30
0.0
 10
1.6138990697683877
 20
-12.079307569283461
 30
0.0
 10
1.614900204991827
 20
-12.034773258374317
 30
0.0
 10
1.6148568802989425
 20
-11.996960201054781
 30
0.0
 10
1.6140598209060562
 20
-11.964784150879554
 30
0.0
 10
1.6147482655241847
 20
-11.902163067359753
 30
0.0
 10
1.6191370035515158
 20
-11.8463043084272
 30
0.0
 10
1.6269057436886591
 20
-11.797343975108951
 30
0.0
 10
1.637730249895353
 20
-11.755406806390049
 30
0.0
 10
1.6512809795926
 20
-11.720605933472168
 30
0.0
 10
1.6672270905893993
 20
-11.69304302889363
 30
0.0
 10
1.685232832221953
 20
-11.67280791072523
 30
0.0
 10
1.704960228840262
 20
-11.659978627881989
 30
0.0
 10
1.7260687969864832
 20
-11.654621326255624
 30
0.0
 10
1.8019292295057754
 20
-11.643797363592077
 30
0.0
 10
2.0764390898937846
 20
-11.597989769715278
 30
0.0
 10
2.151703729869059
 20
-11.583595418054726
 30
0.0
 10
2.1734080905608173
 20
-11.581808505430912
 30
0.0
 10
2.196232263740199
 20
-11.587537187134796
 30
0.0
 10
2.21983273557008
 20
-11.600829456604144
 30
0.0
 10
2.243864442334354
 20
-11.621721260459282
 30
0.0
 10
2.267981148131205
 20
-11.650236454253875
 30
0.0
 10
2.291835823740368
 20
-11.68638676935294
 30
0.0
 10
2.315081026348923
 20
-11.730171790965793
 30
0.0
 10
2.337369279820262
 20
-11.78157894735625
 30
0.0
 10
2.3583534551899668
 20
-11.840583510241188
 30
0.0
 10
2.368047129086597
 20
-11.8712749780287
 30
0.0
 10
2.3802867809482136
 20
-11.907061325998155
 30
0.0
 10
2.395687324863239
 20
-11.948839771307389
 30
0.0
 10
2.4145373480825425
 20
-11.996477457111908
 30
0.0
 10
2.437120843020221
 20
-12.049831269082011
 30
0.0
 10
2.463716884491703
 20
-12.108747980266177
 30
0.0
 10
2.4945993112785896
 20
-12.173064405462577
 30
0.0
 10
2.530036412287331
 20
-12.24260756497141
 30
0.0
 10
2.5702906175625757
 20
-12.317194857589273
 30
0.0
 10
2.615618195221624
 20
-12.396634242269533
 30
0.0
 10
2.666268948991627
 20
-12.480724431454382
 30
0.0
 10
2.7224859333073193
 20
-12.569255086435644
 30
0.0
 10
2.7845051583729616
 20
-12.662007030392342
 30
0.0
 10
2.8525553132987786
 20
-12.758752463160354
 30
0.0
 10
2.926857490809902
 20
-12.85925518699232
 30
0.0
 10
3.007624919358936
 20
-12.963270840007022
 30
0.0
 10
3.0376330253899977
 20
-13.000087401594195
 30
0.0
 10
3.281753354405246
 20
-12.959350923596887
 30
0.0
 10
3.5158391964143836
 20
-12.878989152529952
 30
0.0
 10
3.524707791484139
 20
-12.832327673168821
 30
0.0
 10
3.5462346459580445
 20
-12.702407589567684
 30
0.0
 10
3.56374745133562
 20
-12.578654154349275
 30
0.0
 10
3.577550039843243
 20
-12.461180791856412
 30
0.0
 10
3.58794927443463
 20
-12.350090003270957
 30
0.0
 10
3.5952547020694907
 20
-12.245473288916825
 30
0.0
 10
3.5997782050814537
 20
-12.147411080601774
 30
0.0
 10
3.601833650881302
 20
-12.055972684521906
 30
0.0
 10
3.601736540321393
 20
-11.971216234431404
 30
0.0
 10
3.599803655004839
 20
-11.893188655225718
 30
0.0
 10
3.5963527036867395
 20
-11.821925636961769
 30
0.0
 10
3.5917019117911404
 20
-11.757451621850446
 30
0.0
 10
3.5861702343954143
 20
-11.699779675848157
 30
0.0
 10
3.580076270258362
 20
-11.64892250209782
 30
0.0
 10
3.5737336446447108
 20
-11.604830799701418
 30
0.0
 10
3.567467086167396
 20
-11.567540594208154
 30
0.0
 10
3.5613848938302963
 20
-11.535934575083166
 30
0.0
 10
3.5517568573762763
 20
-11.474054247262233
 30
0.0
 10
3.546891689197114
 20
-11.418234966457604
 30
0.0
 10
3.5464958678420593
 20
-11.368663695670913
 30
0.0
 10
3.5502701107899624
 20
-11.325516840108234
 30
0.0
 10
3.557907990776867
 20
-11.28896022893488
 30
0.0
 10
3.5690999126178227
 20
-11.259148602843137
 30
0.0
 10
3.583529488419031
 20
-11.236225817645334
 30
0.0
 10
3.60087619850703
 20
-11.220324486734658
 30
0.0
 10
3.6208150904305
 20
-11.211565895594314
 30
0.0
 10
3.6938593198271024
 20
-11.188403340864484
 30
0.0
 10
3.9570855413704202
 20
-11.098037664863835
 30
0.0
 10
4.028954437342644
 20
-11.07145148081894
 30
0.0
 10
4.0500686626929046
 20
-11.06611651899888
 30
0.0
 10
4.073524453917109
 20
-11.068010333518147
 30
0.0
 10
4.0989908817193585
 20
-11.077236803765844
 30
0.0
 10
4.126133505222121
 20
-11.093888181718219
 30
0.0
 10
4.15461473722508
 20
-11.11804498612668
 30
0.0
 10
4.1840942124534335
 20
-11.149775907488046
 30
0.0
 10
4.2142291584890685
 20
-11.189137723876266
 30
0.0
 10
4.244674769077212
 20
-11.236175227709596
 30
0.0
 10
4.275084579498446
 20
-11.290921163516137
 30
0.0
 10
4.289697693883488
 20
-11.319598513403038
 30
0.0
 10
4.307660652128583
 20
-11.352882201746873
 30
0.0
 10
4.329727658785959
 20
-11.391555997300435
 30
0.0
 10
4.356161497634639
 20
-11.435441355313102
 30
0.0
 10
4.387218731957891
 20
-11.484350369733065
 30
0.0
 10
4.4231494100271
 20
-11.538085969219791
 30
0.0
 10
4.464196776418377
 20
-11.596442121822854
 30
0.0
 10
4.510596989404357
 20
-11.659204048157461
 30
0.0
 10
4.562578844655674
 20
-11.726148442896939
 30
0.0
 10
4.620363506209142
 20
-11.797043703838462
 30
0.0
 10
4.684164239951562
 20
-11.871650172382028
 30
0.0
 10
4.754186164758485
 20
-11.949720373120183
 30
0.0
 10
4.830625996643552
 20
-12.030999272515238
 30
0.0
 10
4.913671811020921
 20
-12.11522453631
 30
0.0
 10
5.003502808327675
 20
-12.202126797520013
 30
0.0
 10
5.100289088214523
 20
-12.291429930791823
 30
0.0
 10
5.135947729661952
 20
-12.32280519054846
 30
0.0
 10
5.370033571671097
 20
-12.24244341948153
 30
0.0
 10
5.587699675120363
 20
-12.124648414972198
 30
0.0
 10
5.588767087035378
 20
-12.077163614598978
 30
0.0
 10
5.588616200342852
 20
-11.945472267807803
 30
0.0
 10
5.585521007915708
 20
-11.820524155119422
 30
0.0
 10
5.579799867138005
 20
-11.702381144775636
 30
0.0
 10
5.57177232689277
 20
-11.591093831993646
 30
0.0
 10
5.56175877278097
 20
-11.48670151939721
 30
0.0
 10
5.550080072108156
 20
-11.389232207664136
 30
0.0
 10
5.537057218967676
 20
-11.298702596866475
 30
0.0
 10
5.523010979692933
 20
-11.215118098156239
 30
0.0
 10
5.508261538982812
 20
-11.138472855896298
 30
0.0
 10
5.493128146849389
 20
-11.068749780235336
 30
0.0
 10
5.477928711592389
 20
-11.005920601841066
 30
0.0
 10
5.462979988743398
 20
-10.949945710186991
 30
0.0
 10
5.448598322658012
 20
-10.900785195529552
 30
0.0
 10
5.4350849465000195
 20
-10.858338808348774
 30
0.0
 10
5.422766089617839
 20
-10.822588634279327
 30
0.0
 10
5.411564670688388
 20
-10.792414776015567
 30
0.0
 10
5.391882780898269
 20
-10.73296313792648
 30
0.0
 10
5.377896415617993
 20
-10.678705939720121
 30
0.0
 10
5.369346829745475
 20
-10.62987590650939
 30
0.0
 10
5.365967857925687
 20
-10.586696297847228
 30
0.0
 10
5.367484546746673
 20
-10.549381117475232
 30
0.0
 10
5.373616992979126
 20
-10.518133953316962
 30
0.0
 10
5.38407680173623
 20
-10.493148774914713
 30
0.0
 10
5.398569652262216
 20
-10.474609142792165
 30
0.0
 10
5.416794986968074
 20
-10.46268817367221
 30
0.0
 10
5.4850305570761435
 20
-10.42781884098885
 30
0.0
 10
5.729793014630615
 20
-10.295360022939914
 30
0.0
 10
5.796305770465895
 20
-10.257307208306411
 30
0.0
 10
5.816253919447781
 20
-10.248569721141353
 30
0.0
 10
5.839701515876897
 20
-10.246577010152722
 30
0.0
 10
5.866339241887091
 20
-10.251486007122018
 30
0.0
 10
5.895852402114726
 20
-10.263442752987995
 30
0.0
 10
5.927921266559783
 20
-10.282582233358152
 30
0.0
 10
5.962221418170353
 20
-10.309028224163415
 30
0.0
 10
5.998424104861158
 20
-10.342893147584533
 30
0.0
 10
6.0361965956750465
 20
-10.384277938373783
 30
0.0
 10
6.075202540791978
 20
-10.433271920685126
 30
0.0
 10
6.094336487998551
 20
-10.459152909322775
 30
0.0
 10
6.117532769952138
 20
-10.48902604578707
 30
0.0
 10
6.145664308934642
 20
-10.523540271257316
 30
0.0
 10
6.1789609171967825
 20
-10.562476223312144
 30
0.0
 10
6.217644730513438
 20
-10.605606329764871
 30
0.0
 10
6.261929949946935
 20
-10.652695050478414
 30
0.0
 10
6.312022590789944
 20
-10.703499126768264
 30
0.0
 10
6.368120238899233
 20
-10.757767838186366
 30
0.0
 10
6.430411814621951
 20
-10.815243266469981
 30
0.0
 10
6.49907734513603
 20
-10.875660565764434
 30
0.0
 10
6.574287741150473
 20
-10.938748243689394
 30
0.0
 10
6.656204590873429
 20
-11.00422843862213
 30
0.0
 10
6.744979950227868
 20
-11.071817216958326
 30
0.0
 10
6.840756150724856
 20
-11.141224866142393
 30
0.0
 10
6.943665612392642
 20
-11.212156197581928
 30
0.0
 10
7.053830666204995
 20
-11.284310854431086
 30
0.0
 10
7.09416716828525
 20
-11.309388977060243
 30
0.0
 10
7.311833271734509
 20
-11.191593972550905
 30
0.0
 10
7.507142272734987
 20
-11.039578875253508
 30
0.0
 10
7.500379385280753
 20
-10.992566015438747
 30
0.0
 10
7.478554873217437
 20
-10.862695602104278
 30
0.0
 10
7.45493611176642
 20
-10.739961070744643
 30
0.0
 10
7.429847299509907
 20
-10.624371045896268
 30
0.0
 10
7.403611954799705
 20
-10.515922836706066
 30
0.0
 10
7.376552562594027
 20
-10.414602476024506
 30
0.0
 10
7.34899022274669
 20
-10.320384769613959
 30
0.0
 10
7.321244300151508
 20
-10.23323335588798
 30
0.0
 10
7.293632076953536
 20
-10.1531007757943
 30
0.0
 10
7.266468407143495
 20
-10.079928552889719
 30
0.0
 10
7.240065373682339
 20
-10.013647283581285
 30
0.0
 10
7.2147318960357785
 20
-9.954176758107213
 30
0.0
 10
7.190773889924431
 20
-9.901425769930023
 30
0.0
 10
7.1684968162513165
 20
-9.855302885053444
 30
0.0
 10
7.148181299223831
 20
-9.81565963988111
 30
0.0
 10
7.130146170239665
 20
-9.782424668790345
 30
0.0
 10
7.11413107022634
 20
-9.75450603558387
 30
0.0
 10
7.084932197746736
 20
-9.699104772934845
 30
0.0
 10
7.062206146950462
 20
-9.647889652255865
 30
0.0
 10
7.045736006975976
 20
-9.601132812636687
 30
0.0
 10
7.035295989931417
 20
-9.559098278038505
 30
0.0
 10
7.030650116269161
 20
-9.522042389315002
 30
0.0
 10
7.031555809745987
 20
-9.490212028273161
 30
0.0
 10
7.037760535142777
 20
-9.463845987201779
 30
0.0
 10
7.049004198924443
 20
-9.443173766702454
 30
0.0
 10
7.065018836791816
 20
-9.42841559256483
 30
0.0
 10
7.126584459135659
 20
-9.38279062642598
 30
0.0
 10
7.346206670907306
 20
-9.211851797590763
 30
0.0
 10
7.405548992012269
 20
-9.163370333955566
 30
0.0
 10
7.423786931122499
 20
-9.151468657318444
 30
0.0
 10
7.446586743449259
 20
-9.145643776783073
 30
0.0
 10
7.473669159941211
 20
-9.146101395833453
 30
0.0
 10
7.504747814817775
 20
-9.153037360754713
 30
0.0
 10
7.539529556680159
 20
-9.166637441954968
 30
0.0
 10
7.577714765950833
 20
-9.187077124514516
 30
0.0
 10
7.618997678377243
 20
-9.21452140813687
 30
0.0
 10
7.6630667143330085
 20
-9.249124616671407
 30
0.0
 10
7.7096048136437565
 20
-9.29103021736788
 30
0.0
 10
7.732737669470545
 20
-9.313408878852943
 30
0.0
 10
7.760534541029123
 20
-9.339056602148403
 30
0.0
 10
7.793963257286762
 20
-9.368469799436381
 30
0.0
 10
7.83321439028675
 20
-9.40139427425976
 30
0.0
 10
7.878469589010708
 20
-9.43756899587302
 30
0.0
 10
7.929901364465296
 20
-9.47672638026345
 30
0.0
 10
7.987672883099609
 20
-9.518592577475243
 30
0.0
 10
8.05193776872744
 20
-9.562887764997326
 30
0.0
 10
8.122839913117861
 20
-9.60932644696876
 30
0.0
 10
8.200513295917807
 20
-9.657617758187534
 30
0.0
 10
8.28508181065987
 20
-9.7074657780974
 30
0.0
 10
8.376659107179705
 20
-9.75856983820108
 30
0.0
 10
8.475348433620415
 20
-9.810624849796199
 30
0.0
 10
8.581242495157385
 20
-9.863321624632066
 30
0.0
 10
8.694423319336853
 20
-9.916347204483639
 30
0.0
 10
8.81496213158557
 20
-9.96938519396445
 30
0.0
 10
8.858876219671311
 20
-9.987482113654577
 30
0.0
 10
9.05418522067178
 20
-9.835467016357182
 30
0.0
 10
9.221809598808745
 20
-9.65337840185222
 30
0.0
 10
9.20740088592549
 20
-9.608119870858289
 30
0.0
 10
9.16449806428821
 20
-9.483612917309392
 30
0.0
 10
9.120999992056191
 20
-9.366439845348946
 30
0.0
 10
9.077227865717573
 20
-9.25655580055314
 30
0.0
 10
9.033500348355657
 20
-9.153904879398052
 30
0.0
 10
8.990133227736901
 20
-9.058420225948295
 30
0.0
 10
8.94743907749642
 20
-8.970024138283923
 30
0.0
 10
8.90572692188671
 20
-8.888628185009292
 30
0.0
 10
8.865301904234652
 20
-8.814133331427076
 30
0.0
 10
8.82646495942671
 20
-8.746430075372944
 30
0.0
 10
8.78951249056307
 20
-8.685398592661398
 30
0.0
 10
8.754736001757701
 20
-8.63090892101437
 30
0.0
 10
8.722422224336853
 20
-8.582820745759976
 30
0.0
 10
8.692857403573814
 20
-8.5409936027303
 30
0.0
 10
8.666293900022746
 20
-8.50523486395248
 30
0.0
 10
8.64303445024121
 20
-8.475421659214652
 30
0.0
 10
8.622642519324124
 20
-8.450519798600888
 30
0.0
 10
8.584723133280502
 20
-8.40068011341668
 30
0.0
 10
8.553877304391555
 20
-8.353904085249344
 30
0.0
 10
8.529935872799157
 20
-8.310495843920549
 30
0.0
 10
8.512719586979712
 20
-8.27075297591433
 30
0.0
 10
8.50203787815683
 20
-8.234967166886205
 30
0.0
 10
8.497692113920944
 20
-8.203421858234458
 30
0.0
 10
8.49947250722311
 20
-8.176394151363231
 30
0.0
 10
8.507160286422536
 20
-8.15415322677389
 30
0.0
 10
8.520527389877447
 20
-8.136960412137384
 30
0.0
 10
8.573743714769124
 20
-8.0818243426839
 30
0.0
 10
8.762234959333194
 20
-7.877068268708757
 30
0.0
 10
8.812788141881983
 20
-7.819480604018095
 30
0.0
 10
8.828818387684388
 20
-7.80473938462221
 30
0.0
 10
8.850348496463194
 20
-7.795241222096777
 30
0.0
 10
8.877136865713592
 20
-7.791234980573464
 30
0.0
 10
8.908933270550062
 20
-7.792960969507671
 30
0.0
 10
8.945479134581
 20
-7.80065067677565
 30
0.0
 10
8.986507808544284
 20
-7.8145265098315315
 30
0.0
 10
9.031744856471827
 20
-7.834801545139809
 30
0.0
 10
9.080908349148
 20
-7.861679286094647
 30
0.0
 10
9.13370916461914
 20
-7.895353429628997
 30
0.0
 10
9.160209925062041
 20
-7.913619332412979
 30
0.0
 10
9.19184916003053
 20
-7.934342039506731
 30
0.0
 10
9.229663205325954
 20
-7.9578518932649045
 30
0.0
 10
9.27379819447562
 20
-7.9838667970113555
 30
0.0
 10
9.324390334757183
 20
-8.012099381679999
 30
0.0
 10
9.381565741471096
 20
-8.042257318376826
 30
0.0
 10
9.44544028146748
 20
-8.074043635787655
 30
0.0
 10
9.516119426059982
 20
-8.107157042167053
 30
0.0
 10
9.593698113447228
 20
-8.141292251638736
 30
0.0
 10
9.678260621129656
 20
-8.176140313697838
 30
0.0
 10
9.769880445970841
 20
-8.211388951553557
 30
0.0
 10
9.86862019936269
 20
-8.246722891286895
 30
0.0
 10
9.974531505328242
 20
-8.28182421112191
 30
0.0
 10
10.087654913951683
 20
-8.316372680962294
 30
0.0
 10
10.208019822799605
 20
-8.350046109634922
 30
0.0
 10
10.335644408907772
 20
-8.38252069365407
 30
0.0
 10
10.381938221151511
 20
-8.393142773611183
 30
0.0
 10
10.549562599288487
 20
-8.211054159106203
 30
0.0
 10
10.68492999849049
 20
-8.003858930127766
 30
0.0
 10
10.663268492304955
 20
-7.961589262699991
 30
0.0
 10
10.60045763822867
 20
-7.845841994064074
 30
0.0
 10
10.538266769235126
 20
-7.737426557458499
 30
0.0
 10
10.477005318315504
 20
-7.636245843010967
 30
0.0
 10
10.416978400986375
 20
-7.542192259429122
 30
0.0
 10
10.358486493955377
 20
-7.45514788564736
 30
0.0
 10
10.301825118444965
 20
-7.374984631569245
 30
0.0
 10
10.247284528690287
 20
-7.30156440816788
 30
0.0
 10
10.19514940568554
 20
-7.234739306509263
 30
0.0
 10
10.145698556493695
 20
-7.174351785641518
 30
0.0
 10
10.099204619250274
 20
-7.12023486927803
 30
0.0
 10
10.055933731245165
 20
-7.072212387656603
 30
0.0
 10
10.01614561812713
 20
-7.030098745389429
 30
0.0
 10
9.980099501514847
 20
-6.99370827963328
 30
0.0
 10
9.948012594571178
 20
-6.962809452427764
 30
0.0
 10
9.920163281149456
 20
-6.937231240550893
 30
0.0
 10
9.89595075804623
 20
-6.916025410373078
 30
0.0
 10
9.850345200441396
 20
-6.87310679934315
 30
0.0
 10
9.812220987262794
 20
-6.8320457917998585
 30
0.0
 10
9.78146132389567
 20
-6.793170212428053
 30
0.0
 10
9.757938384698981
 20
-6.7568030928510865
 30
0.0
 10
9.741512209887027
 20
-6.723263507101984
 30
0.0
 10
9.732033529058224
 20
-6.692863724627868
 30
0.0
 10
9.729341025777622
 20
-6.665911597344269
 30
0.0
 10
9.733263217818791
 20
-6.642708643109946
 30
0.0
 10
9.743618167124428
 20
-6.6235501631395195
 30
0.0
 10
9.787033591945498
 20
-6.560406958617085
 30
0.0
 10
9.939252319510286
 20
-6.327418851440811
 30
0.0
 10
9.979637404465281
 20
-6.2622958270676055
 30
0.0
 10
9.993022693642102
 20
-6.245117166950589
 30
0.0
 10
10.012695813630277
 20
-6.232204807548924
 30
0.0
 10
10.038459418758038
 20
-6.223843985277186
 30
0.0
 10
10.070106250517512
 20
-6.220312917745529
 30
0.0
 10
10.107419360814198
 20
-6.2218824959125305
 30
0.0
 10
10.150172344198143
 20
-6.228815982910579
 30
0.0
 10
10.198129578883542
 20
-6.241368719794644
 30
0.0
 10
10.251046476359575
 20
-6.259787838461575
 30
0.0
 10
10.308669739386504
 20
-6.284311981980125
 30
0.0
 10
10.337815532782967
 20
-6.297966879850733
 30
0.0
 10
10.372434095308753
 20
-6.313199309313327
 30
0.0
 10
10.413602001060164
 20
-6.330164532016788
 30
0.0
 10
10.461416958906833
 20
-6.3485602459279
 30
0.0
 10
10.515966019042992
 20
-6.3680805823390205
 30
0.0
 10
10.577325460966234
 20
-6.388416441445029
 30
0.0
 10
10.645560691382085
 20
-6.409255831176671
 30
0.0
 10
10.72072615212155
 20
-6.430284209007564
 30
0.0
 10
10.802865238146248
 20
-6.451184826448956
 30
0.0
 10
10.892010225939583
 20
-6.47163907505753
 30
0.0
 10
10.988182210893282
 20
-6.49132683990474
 30
0.0
 10
11.09139105807994
 20
-6.5099268415005165
 30
0.0
 10
11.201635359233766
 20
-6.527116997072639
 30
0.0
 10
11.318902403247145
 20
-6.542574769721436
 30
0.0
 10
11.44316815581805
 20
-6.555977523861006
 30
0.0
 10
11.574397249769104
 20
-6.567002880421372
 30
0.0
 10
11.621808011651783
 20
-6.569860377993919
 30
0.0
 10
11.757175410853794
 20
-6.362665149015493
 30
0.0
 10
11.8565933613471
 20
-6.13601505129248
 30
0.0
 10
11.828269931280689
 20
-6.097887253769494
 30
0.0
 10
11.747264361128925
 20
-5.994056953804335
 30
0.0
 10
11.668077100160504
 20
-5.897356443046281
 30
0.0
 10
11.590997377344278
 20
-5.807639005078713
 30
0.0
 10
11.516308437874185
 20
-5.724748295650831
 30
0.0
 10
11.444287251177725
 20
-5.648518545146084
 30
0.0
 10
11.375204225016128
 20
-5.578774769255471
 30
0.0
 10
11.309322926228283
 20
-5.51533298802952
 30
0.0
 10
11.24689980812029
 20
-5.458000452867711
 30
0.0
 10
11.188183944801755
 20
-5.406575881337108
 30
0.0
 10
11.133416772585907
 20
-5.360849699727802
 30
0.0
 10
11.08283180240705
 20
-5.320604336245341
 30
0.0
 10
11.036654669597812
 20
-5.2856139773443624
 30
0.0
 10
10.995110501232258
 20
-5.255652825904705
 30
0.0
 10
10.958375438073093
 20
-5.2304567497304255
 30
0.0
 10
10.926695917683583
 20
-5.209811237657092
 30
0.0
 10
10.899323256907136
 20
-5.192879877683005
 30
0.0
 10
10.847275528467737
 20
-5.158053048635781
 30
0.0
 10
10.802912860152587
 20
-5.12382709896426
 30
0.0
 10
10.76617400844293
 20
-5.090544606013634
 30
0.0
 10
10.73698606033056
 20
-5.0585452350859725
 30
0.0
 10
10.71526348275856
 20
-5.028166745083953
 30
0.0
 10
10.700910439040776
 20
-4.999741715607043
 30
0.0
 10
10.693818483648064
 20
-4.973600351684419
 30
0.0
 10
10.693868101356488
 20
-4.950068283911038
 30
0.0
 10
10.70092844048913
 20
-4.929466731997855
 30
0.0
 10
10.733358705626042
 20
-4.860038774423793
 30
0.0
 10
10.845152786108187
 20
-4.60517394225549
 30
0.0
 10
10.874268173627875
 20
-4.534291944541589
 30
0.0
 10
10.884643390383214
 20
-4.515144432770008
 30
0.0
 10
10.901922890151475
 20
-4.49917009199658
 30
0.0
 10
10.92595896716942
 20
-4.4866827504129505
 30
0.0
 10
10.956592982778634
 20
-4.4779909447328885
 30
0.0
 10
10.993655534960194
 20
-4.473397579798102
 30
0.0
 10
11.036966637826799
 20
-4.473199593287263
 30
0.0
 10
11.086335910923014
 20
-4.477687625807461
 30
0.0
 10
11.141562778179816
 20
-4.487145696644309
 30
0.0
 10
11.202436676359797
 20
-4.501850885441546
 30
0.0
 10
11.233432481443378
 20
-4.510522308380532
 30
0.0
 10
11.270086067384618
 20
-4.5198489592442055
 30
0.0
 10
11.31348488043984
 20
-4.5298067838426395
 30
0.0
 10
11.363675539577747
 20
-4.5400815207969645
 30
0.0
 10
11.42069356340677
 20
-4.550357145058987
 30
0.0
 10
11.484563314915803
 20
-4.560316217349393
 30
0.0
 10
11.555297956541347
 20
-4.569640235174204
 30
0.0
 10
11.632899415600535
 20
-4.578009985126253
 30
0.0
 10
11.717358360116545
 20
-4.5851058961773985
 30
0.0
 10
11.808654185137428
 20
-4.590608392753648
 30
0.0
 10
11.906755009155754
 20
-4.594198253689493
 30
0.0
 10
12.011617681831359
 20
-4.595556957590758
 30
0.0
 10
12.123187801023423
 20
-4.594367046267373
 30
0.0
 10
12.241399741158425
 20
-4.590312473982129
 30
0.0
 10
12.36617669165882
 20
-4.583078961394086
 30
0.0
 10
12.497430705858491
 20
-4.572354347509663
 30
0.0
 10
12.544665175386589
 20
-4.567369317612814
 30
0.0
 10
12.644083125879908
 20
-4.340719219889809
 30
0.0
 10
12.704839765138303
 20
-4.100796677255388
 30
0.0
 10
12.670627000529546
 20
-4.067850776561862
 30
0.0
 10
12.573636335090281
 20
-3.9787696651851183
 30
0.0
 10
12.479612704200418
 20
-3.8964218181286454
 30
0.0
 10
12.388817243394175
 20
-3.8206149144728916
 30
0.0
 10
12.301503601352325
 20
-3.7511481216722116
 30
0.0
 10
12.217917685218264
 20
-3.687812343322122
 30
0.0
 10
12.13829741327316
 20
-3.6303904740168504
 30
0.0
 10
12.062872475543353
 20
-3.5786576613777803
 30
0.0
 10
11.991864102269174
 20
-3.5323815748172254
 30
0.0
 10
11.925484840514448
 20
-3.491322680881268
 30
0.0
 10
11.863938339016855
 20
-3.4552345250611847
 30
0.0
 10
11.807419112785556
 20
-3.423864068321661
 30
0.0
 10
11.756112552093354
 20
-3.3969514385646367
 30
0.0
 10
11.710203548589973
 20
-3.3742368635498523
 30
0.0
 10
11.669822365977131
 20
-3.3554308216835764
 30
0.0
 10
11.635176773353717
 20
-3.3402811651643076
 30
0.0
 10
11.605390629734828
 20
-3.3280861187572794
 30
0.0
 10
11.548320456814384
 20
-3.3023010568024027
 30
0.0
 10
11.498929431309477
 20
-3.2758437596892955
 30
0.0
 10
11.457213531360892
 20
-3.2490622128065607
 30
0.0
 10
11.423156745470045
 20
-3.2223034499509753
 30
0.0
 10
11.396730300427633
 20
-3.195914701712482
 30
0.0
 10
11.37789440743789
 20
-3.1702397859383873
 30
0.0
 10
11.366596449988837
 20
-3.145622253639094
 30
0.0
 10
11.362772139922773
 20
-3.1224029657919923
 30
0.0
 10
11.366345281235814
 20
-3.100920298568006
 30
0.0
 10
11.386905773595021
 20
-3.0271014016397606
 30
0.0
 10
11.45522575590439
 20
-2.7573118927179467
 30
0.0
 10
11.472277254115387
 20
-2.682604397785406
 30
0.0
 10
11.47935938958233
 20
-2.6620103285665513
 30
0.0
 10
11.49377392942129
 20
-2.6434097447956617
 30
0.0
 10
11.515426836805744
 20
-2.6271365060264738
 30
0.0
 10
11.5442124201758
 20
-2.613521051999112
 30
0.0
 10
11.580013444433584
 20
-2.602890038983949
 30
0.0
 10
11.622701252800265
 20
-2.5955659795201265
 30
0.0
 10
11.67213589923332
 20
-2.591866885848734
 30
0.0
 10
11.728166291297827
 20
-2.5921059173384204
 30
0.0
 10
11.79063034337492
 20
-2.596591032197521
 30
0.0
 10
11.822630675382971
 20
-2.600042446391822
 30
0.0
 10
11.860319470463951
 20
-2.6032089119337796
 30
0.0
 10
11.904765384335098
 20
-2.6058877149302524
 30
0.0
 10
11.955962674420244
 20
-2.6077612068879166
 30
0.0
 10
12.013894358886976
 20
-2.6085118267575265
 30
0.0
 10
12.078532219656648
 20
-2.6078224547016116
 30
0.0
 10
12.14983681585979
 20
-2.6053767657192317
 30
0.0
 10
12.227757507727473
 20
-2.6008595828320553
 30
0.0
 10
12.312232490896436
 20
-2.5939572295371365
 30
0.0
 10
12.403188841028749
 20
-2.584357880318402
 30
0.0
 10
12.500542569362246
 20
-2.571751915294617
 30
0.0
 10
12.60419868717279
 20
-2.555832259600824
 30
0.0
 10
12.71405128239313
 20
-2.5362947390609665
 30
0.0
 10
12.829983605078402
 20
-2.5128384200041407
 30
0.0
 10
12.951868163567866
 20
-2.4851659520555263
 30
0.0
 10
13.07956683066247
 20
-2.4529839072360993
 30
0.0
 10
13.125336574638336
 20
-2.4402923284904383
 30
0.0
  0
ENDSEC
  0
EOF
