999
DXF generated by OpenJsCad
  0
SECTION
  2
HEADER
  0
ENDSEC
  0
SECTION
  2
TABLES
  0
TABLE
  2
LTYPE
  70
1
  0
LTYPE
  2
CONTINUOUS
  3
Solid Line
  72
65
  73
0
  40
0.0
  0
ENDTAB
  0
TABLE
  2
LAYER
  70
1
  0
LAYER
  2
OpenJsCad
  62
7
  6
continuous
  0
ENDTAB
  0
TABLE
  2
STYLE
  70
0
  0
ENDTAB
  0
TABLE
  2
VIEW
  70
0
  0
ENDTAB
  0
ENDSEC
  0
SECTION
  2
BLOCKS
  0
ENDSEC
  0
SECTION
  2
ENTITIES
  0
LWPOLYLINE
  8
OpenJsCad
  90
2395
  70
1
 10
13.1253572391909
 20
-2.4402968283195543
 30
0.0
 10
13.18611413393547
 20
-2.2003732767930417
 30
0.0
 10
13.206552265164223
 20
-1.9537217135951337
 30
0.0
 10
13.15035534617832
 20
-1.9157598524708432
 30
0.0
 10
13.073125978795497
 20
-1.8654295502088356
 30
0.0
 10
12.997856752325958
 20
-1.818131055520281
 30
0.0
 10
12.92462604800918
 20
-1.7737853129883019
 30
0.0
 10
12.853510160973943
 20
-1.7323115167989487
 30
0.0
 10
12.784583263985851
 20
-1.693627158233542
 30
0.0
 10
12.717917372254153
 20
-1.6576480739096648
 30
0.0
 10
12.653582309119376
 20
-1.6242884946409235
 30
0.0
 10
12.591645672931797
 20
-1.5934610950658776
 30
0.0
 10
12.532172804870884
 20
-1.5650770438737662
 30
0.0
 10
12.475226757847265
 20
-1.5390460546789788
 30
0.0
 10
12.420868266491008
 20
-1.5152764375185812
 30
0.0
 10
12.369155718169441
 20
-1.493675150917801
 30
0.0
 10
12.32014512526232
 20
-1.4741478544597104
 30
0.0
 10
12.273890429627368
 20
-1.4565980901443645
 30
0.0
 10
12.230441808245216
 20
-1.4409316933778042
 30
0.0
 10
12.189849000649781
 20
-1.4270481350943645
 30
0.0
 10
12.152157969625291
 20
-1.414849303370017
 30
0.0
 10
12.117412371184816
 20
-1.4042351377540354
 30
0.0
 10
12.065323478071674
 20
-1.3892599033747848
 30
0.0
 10
12.033761252287347
 20
-1.378681200858662
 30
0.0
 10
12.005849278155202
 20
-1.3674959925546804
 30
0.0
 10
11.981598036377443
 20
-1.3558221083343265
 30
0.0
 10
11.961015102592334
 20
-1.343777561569142
 30
0.0
 10
11.944105568811649
 20
-1.3314793639790607
 30
0.0
 10
11.930869976709406
 20
-1.3190489099526397
 30
0.0
 10
11.921308431978877
 20
-1.306601067424043
 30
0.0
 10
11.91541649808564
 20
-1.2942549424719003
 30
0.0
 10
11.91318725034832
 20
-1.2821284087415672
 30
0.0
 10
11.932494633410483
 20
-1.0881524996075558
 30
0.0
 10
11.948854974294726
 20
-0.890712547399786
 30
0.0
 10
11.96173830405826
 20
-0.6962043260325022
 30
0.0
 10
11.965933109613038
 20
-0.6846101045348955
 30
0.0
 10
11.973776790584482
 20
-0.6734021450754365
 30
0.0
 10
11.98525677560555
 20
-0.6626978523135169
 30
0.0
 10
12.000357610105743
 20
-0.6526143051820461
 30
0.0
 10
12.019060963902858
 20
-0.643268193671254
 30
0.0
 10
12.04134564009741
 20
-0.6347757557784973
 30
0.0
 10
12.06718758526434
 20
-0.6272527146502346
 30
0.0
 10
12.096559900939468
 20
-0.6208142159417341
 30
0.0
 10
12.129432856395677
 20
-0.6155747654198085
 30
0.0
 10
12.183276179214483
 20
-0.6093773221903741
 30
0.0
 10
12.219294900092265
 20
-0.6046268613549336
 30
0.0
 10
12.258479771369428
 20
-0.5987981400346526
 30
0.0
 10
12.3008040959945
 20
-0.5917852937397777
 30
0.0
 10
12.346238544098961
 20
-0.5834830606814613
 30
0.0
 10
12.394751165873766
 20
-0.5737868398503322
 30
0.0
 10
12.44630740564142
 20
-0.5625927488309793
 30
0.0
 10
12.500870117125064
 20
-0.5497976813279791
 30
0.0
 10
12.55839957990787
 20
-0.5352993643773278
 30
0.0
 10
12.618853517182663
 20
-0.5189964156453939
 30
0.0
 10
12.682187114007943
 20
-0.5007883978461001
 30
0.0
 10
12.748353038409045
 20
-0.48057587907752475
 30
0.0
 10
12.81730146142325
 20
-0.45826048434480904
 30
0.0
 10
12.888980079935118
 20
-0.4337449529679954
 30
0.0
 10
12.963334140024688
 20
-0.4069331930053308
 30
0.0
 10
13.040306461544343
 20
-0.3777303356280468
 30
0.0
 10
13.119837463826183
 20
-0.3460427889967935
 30
0.0
 10
13.201865192506913
 20
-0.3117782916183201
 30
0.0
 10
13.286325347459135
 20
-0.27484596516052356
 30
0.0
 10
13.348004130695331
 20
-0.24665156319790493
 30
0.0
 10
13.368442261924086
 20
-1.3322676295501878e-15
 30
0.0
 10
13.348004130695323
 20
0.24665156319790682
 30
0.0
 10
13.286325347459123
 20
0.2748459651605308
 30
0.0
 10
13.201865192506913
 20
0.311778291618322
 30
0.0
 10
13.119837463826146
 20
0.34604278899680996
 30
0.0
 10
13.040306461544404
 20
0.3777303356280247
 30
0.0
 10
12.963334140024514
 20
0.40693319300539843
 30
0.0
 10
12.888980079923488
 20
0.4337449529721936
 30
0.0
 10
12.817301461419541
 20
0.45826048434585076
 30
0.0
 10
12.74835303840975
 20
0.4805758790769795
 30
0.0
 10
12.682187114008913
 20
0.5007883978456765
 30
0.0
 10
12.61885351707478
 20
0.5189964152240713
 30
0.0
 10
12.558399579907812
 20
0.5352993643771439
 30
0.0
 10
12.500870117125004
 20
0.5497976813277953
 30
0.0
 10
12.446307405642676
 20
0.5625927488311558
 30
0.0
 10
12.394751165982457
 20
0.5737868399585259
 30
0.0
 10
12.346238727840461
 20
0.5834839756864264
 30
0.0
 10
12.300804084865943
 20
0.5917852951860568
 30
0.0
 10
12.258479751670032
 20
0.598798143295863
 30
0.0
 10
12.21929491547255
 20
0.6046268590467466
 30
0.0
 10
12.183276167466563
 20
0.6093773237388894
 30
0.0
 10
12.129432856395669
 20
0.6155747654198337
 30
0.0
 10
12.096559901026406
 20
0.6208142166006269
 30
0.0
 10
12.06718758506288
 20
0.6272527132959663
 30
0.0
 10
12.041345640423604
 20
0.6347757577471179
 30
0.0
 10
12.019060963787538
 20
0.6432681930401848
 30
0.0
 10
12.000357837214157
 20
0.6526154414601714
 30
0.0
 10
11.985256775849402
 20
0.6626978534363682
 30
0.0
 10
11.973776790585578
 20
0.6734021450800544
 30
0.0
 10
11.96593310961303
 20
0.6846101045347043
 30
0.0
 10
11.961738304058372
 20
0.6962043260327543
 30
0.0
 10
11.948854974292617
 20
0.8907125473994156
 30
0.0
 10
11.932494633412626
 20
1.0881524996075373
 30
0.0
 10
11.91318725034817
 20
1.2821284087417972
 30
0.0
 10
11.915416498085678
 20
1.2942549424717125
 30
0.0
 10
11.921308431977035
 20
1.306601067428417
 30
0.0
 10
11.930869976284065
 20
1.3190489110200398
 30
0.0
 10
11.944105157775462
 20
1.3314804473790167
 30
0.0
 10
11.96101510280995
 20
1.3437775609656606
 30
0.0
 10
11.981598035731674
 20
1.3558221102224077
 30
0.0
 10
12.005849278576818
 20
1.3674959912520415
 30
0.0
 10
12.033761252093145
 20
1.3786812014942587
 30
0.0
 10
12.065323478071678
 20
1.3892599033748108
 30
0.0
 10
12.117412382517632
 20
1.4042351412150749
 30
0.0
 10
12.152157954834685
 20
1.414849298561798
 30
0.0
 10
12.189849019543725
 20
1.4270481415535095
 30
0.0
 10
12.230441818983945
 20
1.440931696636058
 30
0.0
 10
12.273890097786994
 20
1.456598962426997
 30
0.0
 10
12.320145125137303
 20
1.4741478545485385
 30
0.0
 10
12.369155718168175
 20
1.4936751509177684
 30
0.0
 10
12.420868266491096
 20
1.5152764375184098
 30
0.0
 10
12.475226757847352
 20
1.5390460546788065
 30
0.0
 10
12.53217280504664
 20
1.5650770434759462
 30
0.0
 10
12.591645672930909
 20
1.5934610950652999
 30
0.0
 10
12.653582309118768
 20
1.6242884946402694
 30
0.0
 10
12.71791737225764
 20
1.657648073911303
 30
0.0
 10
12.78458326399663
 20
1.6936271582395974
 30
0.0
 10
12.853510160974105
 20
1.732311516799044
 30
0.0
 10
12.924626048009122
 20
1.77378531298827
 30
0.0
 10
12.99785675232599
 20
1.8181310555203032
 30
0.0
 10
13.073125978795495
 20
1.8654295502088374
 30
0.0
 10
13.15035534617833
 20
1.9157598524708523
 30
0.0
 10
13.206552265164238
 20
1.9537217135951375
 30
0.0
 10
13.186114133935488
 20
2.200373276793041
 30
0.0
 10
13.125357239190901
 20
2.440296828319547
 30
0.0
 10
13.059879028126497
 20
2.457954701332284
 30
0.0
 10
12.970491938460807
 20
2.4804816343954794
 30
0.0
 10
12.883943210176893
 20
2.5007774882962934
 30
0.0
 10
12.800281308350584
 20
2.518942485357914
 30
0.0
 10
12.719552156625236
 20
2.5350778261002205
 30
0.0
 10
12.641799118344261
 20
2.549285632549552
 30
0.0
 10
12.567062978928641
 20
2.561668891184337
 30
0.0
 10
12.495381929288417
 20
2.57233139558148
 30
0.0
 10
12.426791550610288
 20
2.581377688721923
 30
0.0
 10
12.361324800228934
 20
2.588913005037276
 30
0.0
 10
12.299011998732878
 20
2.595043212194356
 30
0.0
 10
12.239880818300115
 20
2.5998747526431383
 30
0.0
 10
12.183956272191889
 20
2.6035145849618395
 30
0.0
 10
12.131260705599418
 20
2.6060701251333525
 30
0.0
 10
12.081813817800406
 20
2.607650119689696
 30
0.0
 10
12.03563249185459
 20
2.608359923566371
 30
0.0
 10
11.992731130536487
 20
2.6083107692872387
 30
0.0
 10
11.953121349350239
 20
2.607610376893302
 30
0.0
 10
11.91681194933047
 20
2.6063675603683425
 30
0.0
 10
11.8626829254688
 20
2.603618159297449
 30
0.0
 10
11.829395929043676
 20
2.60337544057293
 30
0.0
 10
11.799364471460345
 20
2.604891600253687
 30
0.0
 10
11.772636724844384
 20
2.608058595894122
 30
0.0
 10
11.749258173244181
 20
2.612767268218403
 30
0.0
 10
11.729271626415615
 20
2.618908598897856
 30
0.0
 10
11.712717013376844
 20
2.6263679469080046
 30
0.0
 10
11.699631731651639
 20
2.635036702494746
 30
0.0
 10
11.69005025876976
 20
2.6448007725349494
 30
0.0
 10
11.684004318758248
 20
2.6555464216621294
 30
0.0
 10
11.639281699816252
 20
2.845281278027649
 30
0.0
 10
11.590646944623007
 20
3.037335583027428
 30
0.0
 10
11.539675503809969
 20
3.225488022784937
 30
0.0
 10
11.539878385663146
 20
3.237816088518523
 30
0.0
 10
11.543657855876983
 20
3.2509636088676
 30
0.0
 10
11.551040145466366
 20
3.264815458564853
 30
0.0
 10
11.562048652699428
 20
3.2792558842460595
 30
0.0
 10
11.576703929751684
 20
3.294168566706094
 30
0.0
 10
11.595023670646174
 20
3.309436683420904
 30
0.0
 10
11.61702270048299
 20
3.3249429713089573
 30
0.0
 10
11.642712965964073
 20
3.3405697897071507
 30
0.0
 10
11.67210352721682
 20
3.3561991835356455
 30
0.0
 10
11.721017163762275
 20
3.379543730535988
 30
0.0
 10
11.75354181888074
 20
3.3957320578506187
 30
0.0
 10
11.788710963029661
 20
3.4139682698769573
 30
0.0
 10
11.82646497153383
 20
3.4343438265562543
 30
0.0
 10
11.866741925250933
 20
3.4569487629105526
 30
0.0
 10
11.909477641608486
 20
3.4818716382919783
 30
0.0
 10
11.954605706685772
 20
3.509199486269995
 30
0.0
 10
12.002057508334278
 20
3.5390177651801635
 30
0.0
 10
12.051762270321793
 20
3.5714103093569385
 30
0.0
 10
12.103647087725252
 20
3.606459280702621
 30
0.0
 10
12.157636961866817
 20
3.6442451231463773
 30
0.0
 10
12.213654839862993
 20
3.6848465124283685
 30
0.0
 10
12.271621650313092
 20
3.7283403138771387
 30
0.0
 10
12.331456343537578
 20
3.774801535526911
 30
0.0
 10
12.393075931332417
 20
3.824303284224235
 30
0.0
 10
12.456395527869768
 20
3.8769167221794785
 30
0.0
 10
12.521328391506097
 20
3.93271102435674
 30
0.0
 10
12.587785967478517
 20
3.991753336718206
 30
0.0
 10
12.655677931471697
 20
4.054108735340037
 30
0.0
 10
12.704860080751805
 20
4.100802555013706
 30
0.0
 10
12.644103186007237
 20
4.340726106540209
 30
0.0
 10
12.544684817454062
 20
4.567377157343688
 30
0.0
 10
12.477193253470341
 20
4.5740168406613915
 30
0.0
 10
12.385317475882497
 20
4.581523904319359
 30
0.0
 10
12.296608571687324
 20
4.587297496755428
 30
0.0
 10
12.211097848907967
 20
4.591444450480226
 30
0.0
 10
12.128813947791036
 20
4.594072144553709
 30
0.0
 10
12.049782831527379
 20
4.595288445562627
 30
0.0
 10
11.974027778260766
 20
4.5952016484437275
 30
0.0
 10
11.901569374165746
 20
4.593920417182005
 30
0.0
 10
11.832425507938888
 20
4.591553725399248
 30
0.0
 10
11.766611366401634
 20
4.588210796865583
 30
0.0
 10
11.704139431363954
 20
4.58400104595568
 30
0.0
 10
11.645019477739961
 20
4.579034018074038
 30
0.0
 10
11.589258572839258
 20
4.5734193300707595
 30
0.0
 10
11.536861077004088
 20
4.567266610812331
 30
0.0
 10
11.487828521748797
 20
4.560686366064361
 30
0.0
 10
11.442160219017756
 20
4.553785292718645
 30
0.0
 10
11.399852066878717
 20
4.546675476851173
 30
0.0
 10
11.360897792279467
 20
4.539465081191137
 30
0.0
 10
11.325288166026917
 20
4.532262884244095
 30
0.0
 10
11.272349928041583
 20
4.520641636915423
 30
0.0
 10
11.239556873050354
 20
4.5149233690196775
 30
0.0
 10
11.209685453723921
 20
4.511475834802093
 30
0.0
 10
11.182800968384926
 20
4.510200394246483
 30
0.0
 10
11.158966247764898
 20
4.510996863295564
 30
0.0
 10
11.138241461577591
 20
4.513764756742802
 30
0.0
 10
11.120684863553851
 20
4.518397569218253
 30
0.0
 10
11.106351217741942
 20
4.524794327693404
 30
0.0
 10
11.095293310553915
 20
4.532848169941496
 30
0.0
 10
11.087561153568476
 20
4.542452133401432
 30
0.0
 10
11.012219161911808
 20
4.722238152486016
 30
0.0
 10
10.932636621745639
 20
4.903668069485265
 30
0.0
 10
10.851391491216766
 20
5.080864731786244
 30
0.0
 10
10.84956247309753
 20
5.093058052027157
 30
0.0
 10
10.851126385538759
 20
5.1066483376865115
 30
0.0
 10
10.85612805079469
 20
5.12152635113873
 30
0.0
 10
10.864609600389132
 20
5.1375817689729635
 30
0.0
 10
10.876610451704627
 20
5.1547032412033404
 30
0.0
 10
10.892167285796285
 20
5.172778450953245
 30
0.0
 10
10.911314026438012
 20
5.191694174588005
 30
0.0
 10
10.934081820411054
 20
5.211336342272348
 30
0.0
 10
10.960499019042512
 20
5.231590098927933
 30
0.0
 10
11.004903151190845
 20
5.2626671767008775
 30
0.0
 10
11.034319701304534
 20
5.283988098614092
 30
0.0
 10
11.066007602320077
 20
5.307764243349236
 30
0.0
 10
11.099892988953554
 20
5.334076009554182
 30
0.0
 10
11.13589996728149
 20
5.363002012734766
 30
0.0
 10
11.173950653707752
 20
5.394619040304758
 30
0.0
 10
11.21396521485623
 20
5.429002007437104
 30
0.0
 10
11.255861908378963
 20
5.466223913738583
 30
0.0
 10
11.299557124661364
 20
5.506355800767652
 30
0.0
 10
11.344965429703846
 20
5.549466710089418
 30
0.0
 10
11.391999607077228
 20
5.595623644106051
 30
0.0
 10
11.440570705197693
 20
5.644891523035373
 30
0.0
 10
11.490588079478139
 20
5.697333149138237
 30
0.0
 10
11.541959439734358
 20
5.753009167098246
 30
0.0
 10
11.5945908966218
 20
5.811978027270412
 30
0.0
 10
11.64838700912981
 20
5.874295949557251
 30
0.0
 10
11.703250832832946
 20
5.940016888261237
 30
0.0
 10
11.759083968877725
 20
6.009192497926234
 30
0.0
 10
11.815786613684654
 20
6.081872100181871
 30
0.0
 10
11.856612432434888
 20
6.136024192725922
 30
0.0
 10
11.757194063881728
 20
6.362675243529401
 30
0.0
 10
11.621826095449766
 20
6.569871343779135
 30
0.0
 10
11.55416217247482
 20
6.56531172414926
 30
0.0
 10
11.46230383867514
 20
6.557594145274865
 30
0.0
 10
11.373854506228302
 20
6.548687987695165
 30
0.0
 10
11.288827472103499
 20
6.5387037799958305
 30
0.0
 10
11.207233311919335
 20
6.527752150756053
 30
0.0
 10
11.12907988050592
 20
6.515943768803694
 30
0.0
 10
11.054372313762745
 20
6.503389283530251
 30
0.0
 10
10.983113031591678
 20
6.490199265258563
 30
0.0
 10
10.915301742242155
 20
6.476484145734935
 30
0.0
 10
10.850935447765472
 20
6.4623541587282824
 30
0.0
 10
10.790008450721816
 20
6.44791928078222
 30
0.0
 10
10.732512362127238
 20
6.433289172142688
 30
0.0
 10
10.67843611056192
 20
6.418573117869761
 30
0.0
 10
10.627765952580354
 20
6.403879969323821
 30
0.0
 10
10.580485210157821
 20
6.389318977194841
 30
0.0
 10
10.536575642891677
 20
6.374995269917852
 30
0.0
 10
10.49601475603293
 20
6.361018729704999
 30
0.0
 10
10.458778559085532
 20
6.347495011576369
 30
0.0
 10
10.424840044377003
 20
6.334529891365231
 30
0.0
 10
10.374536609400561
 20
6.314353795111579
 30
0.0
 10
10.343132004898267
 20
6.303315957486389
 30
0.0
 10
10.314235438278981
 20
6.294998769116869
 30
0.0
 10
10.287927552894377
 20
6.289315683058745
 30
0.0
 10
10.264286812300561
 20
6.286178223233207
 30
0.0
 10
10.24338910489622
 20
6.285497178530348
 30
0.0
 10
10.22530942011496
 20
6.287177084423615
 30
0.0
 10
10.21011839470907
 20
6.291127358891075
 30
0.0
 10
10.197885684097171
 20
6.297251285525329
 30
0.0
 10
10.18867822322414
 20
6.305451592230499
 30
0.0
 10
10.084771991983281
 20
6.470384680100691
 30
0.0
 10
9.976412471083718
 20
6.636241273916168
 30
0.0
 10
9.867109806209594
 20
6.7976486957302695
 30
0.0
 10
9.86329877896434
 20
6.80937466848795
 30
0.0
 10
9.862604474178378
 20
6.823037011892025
 30
0.0
 10
9.865089082711043
 20
6.8385353556763215
 30
0.0
 10
9.870812320103683
 20
6.855767815718415
 30
0.0
 10
9.879831393742414
 20
6.874631048589037
 30
0.0
 10
9.892200971150857
 20
6.89502030677061
 30
0.0
 10
9.907973149424617
 20
6.916829494520936
 30
0.0
 10
9.927197425821241
 20
6.939951224360308
 30
0.0
 10
9.949920669517244
 20
6.9642768741590215
 30
0.0
 10
9.98860406829638
 20
7.002238781034817
 30
0.0
 10
10.01411010660142
 20
7.028110718376319
 30
0.0
 10
10.041452401148069
 20
7.056778244571677
 30
0.0
 10
10.070544860896106
 20
7.0883085039098574
 30
0.0
 10
10.101299687329274
 20
7.122766547954423
 30
0.0
 10
10.13362742028927
 20
7.160215297620311
 30
0.0
 10
10.167436984590989
 20
7.200715506193323
 30
0.0
 10
10.202635737405176
 20
7.244325723312474
 30
0.0
 10
10.239129516387207
 20
7.291102259931708
 30
0.0
 10
10.27682268887777
 20
7.341099154005011
 30
0.0
 10
10.315618199733173
 20
7.394368138756693
 30
0.0
 10
10.355417625036603
 20
7.450958608027931
 30
0.0
 10
10.39612121956259
 20
7.510917587929918
 30
0.0
 10
10.437627970057894
 20
7.574289705566763
 30
0.0
 10
10.479835647094013
 20
7.641117160428618
 30
0.0
 10
10.522640857859468
 20
7.711439696577767
 30
0.0
 10
10.565939099538102
 20
7.785294575922333
 30
0.0
 10
10.609624813250063
 20
7.862716552586557
 30
0.0
 10
10.653591438533173
 20
7.94373784838805
 30
0.0
 10
10.68494730484301
 20
8.003871085881856
 30
0.0
 10
10.549579336411048
 20
8.211067186131588
 30
0.0
 10
10.381954253401142
 20
8.393156566332678
 30
0.0
 10
10.315963666867049
 20
8.377522018292686
 30
0.0
 10
10.226628432744786
 20
8.354790312319393
 30
0.0
 10
10.140851339265227
 20
8.33144734148608
 30
0.0
 10
10.058627309636968
 20
8.307604315521761
 30
0.0
 10
9.979948566375294
 20
8.28337209486562
 30
0.0
 10
9.904804641690289
 20
8.258861131829487
 30
0.0
 10
9.833182389143213
 20
8.234181412032662
 30
0.0
 10
9.76506599635464
 20
8.209442396065647
 30
0.0
 10
9.700436999085067
 20
8.184752961509105
 30
0.0
 10
9.639274296391877
 20
8.160221345240881
 30
0.0
 10
9.581554166996767
 20
8.135955086100108
 30
0.0
 10
9.527250286847346
 20
8.112060967928526
 30
0.0
 10
9.476333747793847
 20
8.088644962984624
 30
0.0
 10
9.428773077488383
 20
8.065812175941325
 30
0.0
 10
9.384533843300193
 20
8.04366762233894
 30
0.0
 10
9.343580750030267
 20
8.022311994526078
 30
0.0
 10
9.305873523710979
 20
8.001849973550728
 30
0.0
 10
9.271371110800638
 20
7.982381824730353
 30
0.0
 10
9.240029461846273
 20
7.964007435936935
 30
0.0
 10
9.19373297645361
 20
7.935826842068942
 30
0.0
 10
9.164573458185384
 20
7.91977051815123
 30
0.0
 10
9.137439967282889
 20
7.906810546847201
 30
0.0
 10
9.11242629238643
 20
7.8968748350595295
 30
0.0
 10
9.089624389595416
 20
7.889889028084666
 30
0.0
 10
9.069123795955768
 20
7.885777622355856
 30
0.0
 10
9.051014191087605
 20
7.8844587982133545
 30
0.0
 10
9.035380157660759
 20
7.885854835483252
 30
0.0
 10
9.022306320082182
 20
7.889881801748968
 30
0.0
 10
9.011874710852117
 20
7.896454768709059
 30
0.0
 10
8.88223853115199
 20
8.042035980676232
 30
0.0
 10
8.748057794776985
 20
8.187795115784521
 30
0.0
 10
8.61367908732459
 20
8.329010523402403
 30
0.0
 10
8.607990005841966
 20
8.339949294707353
 30
0.0
 10
8.605056422653456
 20
8.353311022743156
 30
0.0
 10
8.604956200818975
 20
8.36900694244226
 30
0.0
 10
8.607765011013104
 20
8.386946388103935
 30
0.0
 10
8.613556290157177
 20
8.40703684179487
 30
0.0
 10
8.622401201055789
 20
8.429183982595749
 30
0.0
 10
8.634368593053274
 20
8.45329173667212
 30
0.0
 10
8.64952496372733
 20
8.479262328150355
 30
0.0
 10
8.667934421634925
 20
8.506996330777925
 30
0.0
 10
8.699841904766263
 20
8.550807564896305
 30
0.0
 10
8.720741693026966
 20
8.580524798658526
 30
0.0
 10
8.742992554585536
 20
8.61330173093015
 30
0.0
 10
8.766498520984587
 20
8.649190420120071
 30
0.0
 10
8.79116228402974
 20
8.6882405794125
 30
0.0
 10
8.816885247240435
 20
8.730499546905003
 30
0.0
 10
8.843567577916197
 20
8.776012256804973
 30
0.0
 10
8.871108259801368
 20
8.824821211702139
 30
0.0
 10
8.899405146324579
 20
8.876966455929894
 30
0.0
 10
8.928355014776452
 20
8.93248554981659
 30
0.0
 10
8.957853618710088
 20
8.991413546261176
 30
0.0
 10
8.987795746623565
 20
9.053782965392953
 30
0.0
 10
9.018075273442774
 20
9.119623774423733
 30
0.0
 10
9.048585218223675
 20
9.188963365567059
 30
0.0
 10
9.079217800006134
 20
9.26182653635615
 30
0.0
 10
9.109864494464201
 20
9.338235470898628
 30
0.0
 10
9.140416090955434
 20
9.418209722300556
 30
0.0
 10
9.170762749944668
 20
9.501766196264635
 30
0.0
 10
9.200794060778676
 20
9.588919135869274
 30
0.0
 10
9.221824668353829
 20
9.653393240349667
 30
0.0
 10
9.054199585343932
 20
9.83548262055076
 30
0.0
 10
8.85888976305461
 20
9.9874983570829
 30
0.0
 10
8.7963725641374
 20
9.961215350347096
 30
0.0
 10
8.71199726199983
 20
9.924089578956728
 30
0.0
 10
8.63123218299348
 20
9.886946530263549
 30
0.0
 10
8.554054015047978
 20
9.849895061628423
 30
0.0
 10
8.480436839724792
 20
9.81304324136673
 30
0.0
 10
8.410352152148015
 20
9.77649829242314
 30
0.0
 10
8.343768882141243
 20
9.74036653652376
 30
0.0
 10
8.280653416364254
 20
9.7047533387272
 30
0.0
 10
8.220969621744928
 20
9.669763052551891
 30
0.0
 10
8.164678869925428
 20
9.635498965564743
 30
0.0
 10
8.111740062843618
 20
9.602063245521201
 30
0.0
 10
8.06210965943018
 20
9.569556887073974
 30
0.0
 10
8.015741703344368
 20
9.538079659032999
 30
0.0
 10
7.97258785181952
 20
9.507730052402248
 30
0.0
 10
7.932596856851254
 20
9.478605983022192
 30
0.0
 10
7.895717331205202
 20
9.45080096053022
 30
0.0
 10
7.861892320263962
 20
9.424411609384073
 30
0.0
 10
7.831064827273793
 20
9.399530070222095
 30
0.0
 10
7.803174962555487
 20
9.376247618274226
 30
0.0
 10
7.762148274182185
 20
9.340831219931287
 30
0.0
 10
7.736029237793193
 20
9.32019438438181
 30
0.0
 10
7.711398953507579
 20
9.302945144376329
 30
0.0
 10
7.688361796944654
 20
9.289027827176206
 30
0.0
 10
7.667020708424455
 20
9.278384227655653
 30
0.0
 10
7.647476431302935
 20
9.270954609331534
 30
0.0
 10
7.62983088916045
 20
9.266673029237959
 30
0.0
 10
7.6141803033896505
 20
9.265476749052764
 30
0.0
 10
7.600621959052591
 20
9.267296909807733
 30
0.0
 10
7.589250748572112
 20
9.27206324361852
 30
0.0
 10
7.437420757458632
 20
9.394321503722109
 30
0.0
 10
7.2810789063134225
 20
9.516007250883163
 30
0.0
 10
7.125289657122915
 20
9.6331786561061
 30
0.0
 10
7.117877704715435
 20
9.64303184479237
 30
0.0
 10
7.112784863626482
 20
9.655728484350512
 30
0.0
 10
7.11010254521524
 20
9.67119383619124
 30
0.0
 10
7.109920311190786
 20
9.68935092615949
 30
0.0
 10
7.112325824841891
 20
9.710120585465955
 30
0.0
 10
7.117404803118313
 20
9.73342149261838
 30
0.0
 10
7.125240969582495
 20
9.759170216333816
 30
0.0
 10
7.135916008251703
 20
9.787281259415666
 30
0.0
 10
7.1495095183490465
 20
9.817667103577561
 30
0.0
 10
7.173770732869365
 20
9.866132608679141
 30
0.0
 10
7.189494179343665
 20
9.898884530192092
 30
0.0
 10
7.206046662414501
 20
9.934876799270702
 30
0.0
 10
7.223324953976682
 20
9.97414496842609
 30
0.0
 10
7.241224890471581
 20
10.016722056417054
 30
0.0
 10
7.2596414285513475
 20
10.062638527263884
 30
0.0
 10
7.278468701175963
 20
10.111922270407517
 30
0.0
 10
7.29760007412349
 20
10.164598582028553
 30
0.0
 10
7.316928202888008
 20
10.220690147534805
 30
0.0
 10
7.336345090356496
 20
10.280217025081141
 30
0.0
 10
7.3557421423501745
 20
10.343196631089445
 30
0.0
 10
7.375010229677522
 20
10.409643724912787
 30
0.0
 10
7.394039742231161
 20
10.479570397436179
 30
0.0
 10
7.412720649537526
 20
10.552986058794422
 30
0.0
 10
7.430942559088478
 20
10.629897428151727
 30
0.0
 10
7.448594775304316
 20
10.710308524536446
 30
0.0
 10
7.465566358697933
 20
10.794220658894806
 30
0.0
 10
7.4817461852150515
 20
10.881632427364472
 30
0.0
 10
7.497023005726189
 20
10.9725397057706
 30
0.0
 10
7.507154694414693
 20
11.039595991738778
 30
0.0
 10
7.311844872125388
 20
11.191611728270933
 30
0.0
 10
7.094177853374014
 20
11.309407228117
 30
0.0
 10
7.036839348289974
 20
11.273192694594451
 30
0.0
 10
6.959725516429418
 20
11.22268555205087
 30
0.0
 10
6.886175512712722
 20
11.172755591041472
 30
0.0
 10
6.816148425683059
 20
11.123506347213938
 30
0.0
 10
6.749600902935528
 20
11.075040148937907
 30
0.0
 10
6.686487180046926
 20
11.027458065028469
 30
0.0
 10
6.626759110616613
 20
10.98085985313901
 30
0.0
 10
6.570366197227864
 20
10.935343908712115
 30
0.0
 10
6.517255623591954
 20
10.891007214712037
 30
0.0
 10
6.467372287616748
 20
10.847945291979164
 30
0.0
 10
6.420658835504255
 20
10.806252150315226
 30
0.0
 10
6.3770556968551135
 20
10.76602024031304
 30
0.0
 10
6.33650112070677
 20
10.72734040590094
 30
0.0
 10
6.298931212538444
 20
10.690301837836106
 30
0.0
 10
6.2642793068840925
 20
10.654992681370281
 30
0.0
 10
6.232479326183792
 20
10.621496712730497
 30
0.0
 10
6.203459188743852
 20
10.589899864120918
 30
0.0
 10
6.17714750932135
 20
10.560283638144343
 30
0.0
 10
6.153470191645167
 20
10.532728207638337
 30
0.0
 10
6.118832401401455
 20
10.491042071843586
 30
0.0
 10
6.096466306117143
 20
10.466387643739926
 30
0.0
 10
6.0750110783973605
 20
10.445319649334921
 30
0.0
 10
6.054578833745623
 20
10.427800354855833
 30
0.0
 10
6.035280688759004
 20
10.413789292438716
 30
0.0
 10
6.017225845087357
 20
10.403244122139606
 30
0.0
 10
6.000525690061706
 20
10.396116576438658
 30
0.0
 10
5.985285459128746
 20
10.392360610203358
 30
0.0
 10
5.971612444322752
 20
10.391924316206987
 30
0.0
 10
5.959611809571231
 20
10.394754003707018
 30
0.0
 10
5.789729533410731
 20
10.490354425314889
 30
0.0
 10
5.615491165641769
 20
10.584647514557226
 30
0.0
 10
5.442540899318801
 20
10.674578786893797
 30
0.0
 10
5.433608254726625
 20
10.683077623659369
 30
0.0
 10
5.4264950751660885
 20
10.69476284351037
 30
0.0
 10
5.421303826832062
 20
10.709575773009671
 30
0.0
 10
5.418135519458162
 20
10.727455229202164
 30
0.0
 10
5.417089651474601
 20
10.748337551960738
 30
0.0
 10
5.4182641558413644
 20
10.772156637458524
 30
0.0
 10
5.421755346578462
 20
10.79884397275198
 30
0.0
 10
5.427657866015675
 20
10.828328671462192
 30
0.0
 10
5.436064632782947
 20
10.860537510539663
 30
0.0
 10
5.452017796004399
 20
10.912335273985411
 30
0.0
 10
5.462136006060441
 20
10.947228496208108
 30
0.0
 10
5.472538602054474
 20
10.98545432681808
 30
0.0
 10
5.483117912027114
 20
11.027030842648855
 30
0.0
 10
5.493765758365829
 20
11.071973467368144
 30
0.0
 10
5.504373516164184
 20
11.120294959939905
 30
0.0
 10
5.514832171819489
 20
11.172005404287377
 30
0.0
 10
5.52503238184713
 20
11.227112200168158
 30
0.0
 10
5.53486453188493
 20
11.28562005526569
 30
0.0
 10
5.544218796295941
 20
11.347530978427192
 30
0.0
 10
5.552985195335618
 20
11.412844274522888
 30
0.0
 10
5.561053658882699
 20
11.481556539532939
 30
0.0
 10
5.568314081674543
 20
11.553661658207735
 30
0.0
 10
5.574656385052545
 20
11.629150801919389
 30
0.0
 10
5.579970576180411
 20
11.70801242818182
 30
0.0
 10
5.584146807711545
 20
11.790232281315486
 30
0.0
 10
5.587075437454185
 20
11.87579339434759
 30
0.0
 10
5.588647088009461
 20
11.964676092144467
 30
0.0
 10
5.588752706357883
 20
12.05685799577475
 30
0.0
 10
5.587709110103668
 20
12.124667342552211
 30
0.0
 10
5.3700420913523015
 20
12.24246284239828
 30
0.0
 10
5.135955264994832
 20
12.322824951392406
 30
0.0
 10
5.085359498692326
 20
12.277666729153367
 30
0.0
 10
5.017610601421181
 20
12.215155918642864
 30
0.0
 10
4.953281925364981
 20
12.153801004495893
 30
0.0
 10
4.892316075638335
 20
12.093697376464368
 30
0.0
 10
4.834653448410567
 20
12.03493883172102
 30
0.0
 10
4.780232268045344
 20
11.977617528057548
 30
0.0
 10
4.7289886252260915
 20
11.921823937925884
 30
0.0
 10
4.680856515897474
 20
11.867646803181405
 30
0.0
 10
4.6357678812448375
 20
11.815173090791745
 30
0.0
 10
4.593652648483175
 20
11.764487949311246
 30
0.0
 10
4.554438772540748
 20
11.715674666245594
 30
0.0
 10
4.518052278613353
 20
11.668814626316548
 30
0.0
 10
4.484417305521913
 20
11.623987270585282
 30
0.0
 10
4.4534561498675
 20
11.581270056670832
 30
0.0
 10
4.425088547182535
 20
11.540738954863526
 30
0.0
 10
4.399235532005127
 20
11.502465722782949
 30
0.0
 10
4.375811861765999
 20
11.466523256373168
 30
0.0
 10
4.354733709936381
 20
11.432980197022902
 30
0.0
 10
4.335914794806366
 20
11.401903428271316
 30
0.0
 10
4.3086107313161115
 20
11.355084644141588
 30
0.0
 10
4.290607665911776
 20
11.327085132013112
 30
0.0
 10
4.272912737440418
 20
11.302773063175794
 30
0.0
 10
4.255642743071079
 20
11.282129672101734
 30
0.0
 10
4.238913944706767
 20
11.265133332046679
 30
0.0
 10
4.222841023554892
 20
11.251760254529128
 30
0.0
 10
4.207541792341117
 20
11.241981164087408
 30
0.0
 10
4.193127630017532
 20
11.235767964769826
 30
0.0
 10
4.179712908943622
 20
11.233087116985004
 30
0.0
 10
4.167410195953762
 20
11.23390297167572
 30
0.0
 10
3.9841095803898563
 20
11.300237824498117
 30
0.0
 10
3.796727464464354
 20
11.364566186150938
 30
0.0
 10
3.6113338134265196
 20
11.424804234925132
 30
0.0
 10
3.6011241359084556
 20
11.431716893657855
 30
0.0
 10
3.592184646872071
 20
11.442071951465275
 30
0.0
 10
3.584626072337239
 20
11.455828400520836
 30
0.0
 10
3.5785581147798924
 20
11.472942517980904
 30
0.0
 10
3.574089393713883
 20
11.493367888862885
 30
0.0
 10
3.571327386753566
 20
11.517055430145371
 30
0.0
 10
3.5703783711811257
 20
11.543953416078736
 30
0.0
 10
3.571347366042817
 20
11.57400750469737
 30
0.0
 10
3.574338074797412
 20
11.607160765522558
 30
0.0
 10
3.581548026014108
 20
11.66087787935237
 30
0.0
 10
3.5857850012577686
 20
11.696960606142417
 30
0.0
 10
3.589753954473826
 20
11.736377297272014
 30
0.0
 10
3.5933457068590737
 20
11.779128060808203
 30
0.0
 10
3.5964510175503484
 20
11.82521030461015
 30
0.0
 10
3.5989606430869103
 20
11.874618734554215
 30
0.0
 10
3.6007653969103113
 20
11.927345353982796
 30
0.0
 10
3.6017562088784763
 20
11.983379464384385
 30
0.0
 10
3.601824184767028
 20
12.042707667304736
 30
0.0
 10
3.600860666172178
 20
12.10531386748729
 30
0.0
 10
3.598757287744347
 20
12.17117927721194
 30
0.0
 10
3.5954060408585122
 20
12.240282421938735
 30
0.0
 10
3.5906993284813087
 20
12.312599147091504
 30
0.0
 10
3.584530026427947
 20
12.388102626101624
 30
0.0
 10
3.5767915418518226
 20
12.46676336968166
 30
0.0
 10
3.567377871988706
 20
12.548549236301946
 30
0.0
 10
3.5561836626953576
 20
12.633425443885452
 30
0.0
 10
3.5431042667586303
 20
12.721354582713541
 30
0.0
 10
3.528035801951118
 20
12.812296629537236
 30
0.0
 10
3.515845387339541
 20
12.879009374909648
 30
0.0
 10
3.2817585609820794
 20
12.95937148390378
 30
0.0
 10
3.037637205422739
 20
13.000108133201003
 30
0.0
 10
2.9951642985131803
 20
12.947238020829456
 30
0.0
 10
2.9386283491408096
 20
12.874428674309241
 30
0.0
 10
2.8852757193355743
 20
12.8033224091423
 30
0.0
 10
2.83503409636638
 20
12.734003867201016
 30
0.0
 10
2.7878292508138975
 20
12.666555755918857
 30
0.0
 10
2.743585080906988
 20
12.601058808239804
 30
0.0
 10
2.7022236576926995
 20
12.537591743561691
 30
0.0
 10
2.663665270895654
 20
12.476231229506212
 30
0.0
 10
2.6278284756423145
 20
12.417051844812196
 30
0.0
 10
2.594630139857716
 20
12.360126043117356
 30
0.0
 10
2.56398549239812
 20
12.305524117765293
 30
0.0
 10
2.535808171894299
 20
12.253314167643643
 30
0.0
 10
2.5100102762458674
 20
12.203562064001364
 30
0.0
 10
2.4865024127219093
 20
12.156331418477418
 30
0.0
 10
2.4651929072587575
 20
12.111683954129237
 30
0.0
 10
2.4459920604645005
 20
12.069677452608158
 30
0.0
 10
2.4288037940893545
 20
12.030369785186817
 30
0.0
 10
2.4135341268878925
 20
11.993814859681702
 30
0.0
 10
2.400086945251542
 20
11.96006444592499
 30
0.0
 10
2.3808613921903787
 20
11.909390107843885
 30
0.0
 10
2.36771243335976
 20
11.878809265392176
 30
0.0
 10
2.3542604756582897
 20
11.851916291983592
 30
0.0
 10
2.340623811998231
 20
11.82871190220976
 30
0.0
 10
2.32692067826688
 20
11.809193900367315
 30
0.0
 10
2.3132681070248218
 20
11.793357698324991
 30
0.0
 10
2.299787122768316
 20
11.78119381123756
 30
0.0
 10
2.286592209827376
 20
11.77269285871848
 30
0.0
 10
2.2738017011068785
 20
11.767840583684327
 30
0.0
 10
2.2615324958182623
 20
11.766620351176542
 30
0.0
 10
2.0698135038144927
 20
11.801880193350522
 30
0.0
 10
1.8743989353861767
 20
11.834489117399468
 30
0.0
 10
1.68161895514861
 20
11.863390805669594
 30
0.0
 10
1.670410738092708
 20
11.868528727059198
 30
0.0
 10
1.6598887855378794
 20
11.877271163839673
 30
0.0
 10
1.6501690630118186
 20
11.88959589238164
 30
0.0
 10
1.6413669733352048
 20
11.905477842598149
 30
0.0
 10
1.6335972942483414
 20
11.924889110730845
 30
0.0
 10
1.6269741163108071
 20
11.947798973420658
 30
0.0
 10
1.621610781099746
 20
11.974173903055483
 30
0.0
 10
1.6176198197320697
 20
12.003977584390183
 30
0.0
 10
1.6151128917353577
 20
12.037170932431875
 30
0.0
 10
1.613382962273047
 20
12.091342133810539
 30
0.0
 10
1.6116231290646492
 20
12.127630122441754
 30
0.0
 10
1.6090501768052856
 20
12.167162489508607
 30
0.0
 10
1.605556397961071
 20
12.209921371363864
 30
0.0
 10
1.6010344682241884
 20
12.255886230765
 30
0.0
 10
1.5953775054564272
 20
12.305033864910659
 30
0.0
 10
1.5884791284682624
 20
12.357338414690371
 30
0.0
 10
1.5802335156093137
 20
12.41277137515104
 30
0.0
 10
1.570535463143578
 20
12.471301607175626
 30
0.0
 10
1.5592804438184278
 20
12.532895350440434
 30
0.0
 10
1.5463646626035021
 20
12.597516237115059
 30
0.0
 10
1.5316851185637488
 20
12.665125307908903
 30
0.0
 10
1.5151396578616638
 20
12.73568102779311
 30
0.0
 10
1.496627032854784
 20
12.809139304017183
 30
0.0
 10
1.4760469582611826
 20
12.88545350488321
 30
0.0
 10
1.453300167378075
 20
12.964574479748562
 30
0.0
 10
1.428288467897135
 20
13.046450580196353
 30
0.0
 10
1.4009147972941176
 20
13.131027682362582
 30
0.0
 10
1.3710832777700637
 20
13.21824921041056
 30
0.0
 10
1.3480785675336968
 20
13.282045604591332
 30
0.0
 10
1.1039572119743593
 20
13.322782253888553
 30
0.0
 10
0.8564603214159202
 20
13.322782253888546
 30
0.0
 10
0.8232688240811971
 20
13.263642410227884
 30
0.0
 10
0.7794879759282575
 20
13.182520576871228
 30
0.0
 10
0.7385667130351486
 20
13.10360255423787
 30
0.0
 10
0.7004197773278694
 20
13.026959927511037
 30
0.0
 10
0.6649603385834951
 20
12.952662058341737
 30
0.0
 10
0.6321000447540167
 20
12.88077605264199
 30
0.0
 10
0.6017490729487943
 20
12.811366729495557
 30
0.0
 10
0.5738161809609309
 20
12.744496590997587
 30
0.0
 10
0.5482087594618478
 20
12.68022579334453
 30
0.0
 10
0.5248328847129148
 20
12.618612118911093
 30
0.0
 10
0.5035933718342126
 20
12.559710949459623
 30
0.0
 10
0.4843938286045183
 20
12.503575240483507
 30
0.0
 10
0.46713670974228905
 20
12.450255496623523
 30
0.0
 10
0.45172337158529297
 20
12.39979974837887
 30
0.0
 10
0.4380532311032538
 20
12.352253787929978
 30
0.0
 10
0.4260283017398233
 20
12.307659844827114
 30
0.0
 10
0.4155442903289083
 20
12.266059187094028
 30
0.0
 10
0.4064996244718055
 20
12.227489518510264
 30
0.0
 10
0.3987909803899727
 20
12.191986083054948
 30
0.0
 10
0.3881683607281326
 20
12.138838454867175
 30
0.0
 10
0.3802321777913537
 20
12.10651044775601
 30
0.0
 10
0.3713901251992295
 20
12.077770139985997
 30
0.0
 10
0.361758764884968
 20
12.05263770677609
 30
0.0
 10
0.3514550815533662
 20
12.03113044335689
 30
0.0
 10
0.34059526677501056
 20
12.013263087099608
 30
0.0
 10
0.32930025558398895
 20
11.999046202497325
 30
0.0
 10
0.317684514854152
 20
11.988489380601136
 30
0.0
 10
0.3058671102225938
 20
11.981598035731649
 30
0.0
 10
0.2939660845720649
 20
11.978375000787265
 30
0.0
 10
0.09905831045618123
 20
11.98159803573387
 30
0.0
 10
-0.09905831045598497
 20
11.981598035736003
 30
0.0
 10
-0.2939660845723054
 20
11.978375000787134
 30
0.0
 10
-0.30586711022240215
 20
11.98159803573167
 30
0.0
 10
-0.31768451485866195
 20
11.98848938059966
 30
0.0
 10
-0.3293002566828665
 20
11.999046202161582
 30
0.0
 10
-0.3405963804177042
 20
12.013262766933778
 30
0.0
 10
-0.351455080933974
 20
12.031130443523928
 30
0.0
 10
-0.3617587668199264
 20
12.052637706288445
 30
0.0
 10
-0.37139012386622156
 20
12.077770140298604
 30
0.0
 10
-0.3802321784408153
 20
12.106510447614959
 30
0.0
 10
-0.38816836072815714
 20
12.13883845486718
 30
0.0
 10
-0.398790982903333
 20
12.191986094634867
 30
0.0
 10
-0.4064996209014064
 20
12.227489503373118
 30
0.0
 10
-0.41554429520574154
 20
12.26605920645683
 30
0.0
 10
-0.42602830410015013
 20
12.30765985579823
 30
0.0
 10
-0.4380541278097586
 20
12.352253529255538
 30
0.0
 10
-0.45172337168414034
 20
12.399799748261614
 30
0.0
 10
-0.4671367097423602
 20
12.450255496622257
 30
0.0
 10
-0.48439382860433866
 20
12.503575240483583
 30
0.0
 10
-0.5035933718340325
 20
12.559710949459696
 30
0.0
 10
-0.5248328843019385
 20
12.618612119053399
 30
0.0
 10
-0.5482087594613444
 20
12.680225793343595
 30
0.0
 10
-0.5738161809603276
 20
12.74449659099693
 30
0.0
 10
-0.6017490729501375
 20
12.811366729499166
 30
0.0
 10
-0.6321000447591595
 20
12.880776052653232
 30
0.0
 10
-0.6649603385835751
 20
12.952662058341906
 30
0.0
 10
-0.7004197773278408
 20
13.026959927510978
 30
0.0
 10
-0.7385667130351664
 20
13.103602554237906
 30
0.0
 10
-0.7794879759282576
 20
13.182520576871227
 30
0.0
 10
-0.8232688240812037
 20
13.263642410227897
 30
0.0
 10
-0.8564603214159209
 20
13.32278225388857
 30
0.0
 10
-1.1039572119743521
 20
13.322782253888574
 30
0.0
 10
-1.3480785675336935
 20
13.282045604591323
 30
0.0
 10
-1.371083277770066
 20
13.21824921041055
 30
0.0
 10
-1.4009147972941154
 20
13.131027682362582
 30
0.0
 10
-1.4282884678971444
 20
13.046450580196318
 30
0.0
 10
-1.453300167378054
 20
12.964574479748627
 30
0.0
 10
-1.476046958261231
 20
12.885453504883035
 30
0.0
 10
-1.4966270328580034
 20
12.809139304005246
 30
0.0
 10
-1.515139657862392
 20
12.735681027789328
 30
0.0
 10
-1.531685118563259
 20
12.665125307909651
 30
0.0
 10
-1.5463646626031564
 20
12.597516237116062
 30
0.0
 10
-1.5592804433896308
 20
12.532895350367713
 30
0.0
 10
-1.5705354631433859
 20
12.471301607175585
 30
0.0
 10
-1.5802335156091214
 20
12.412771375150996
 30
0.0
 10
-1.5884791284685378
 20
12.35733841469161
 30
0.0
 10
-1.5953775055732227
 20
12.305033865010044
 30
0.0
 10
-1.6010353952771963
 20
12.25588633831842
 30
0.0
 10
-1.605556398483417
 20
12.209921360153885
 30
0.0
 10
-1.6090501784285896
 20
12.167162469607188
 30
0.0
 10
-1.6116231280344355
 20
12.12763013796012
 30
0.0
 10
-1.6133829628461331
 20
12.09134212197487
 30
0.0
 10
-1.615112891735378
 20
12.037170932431867
 30
0.0
 10
-1.6176198203958871
 20
12.003977584422415
 30
0.0
 10
-1.621610779733463
 20
11.974173902966548
 30
0.0
 10
-1.6269741182996362
 20
11.94779897358317
 30
0.0
 10
-1.6335972936099004
 20
11.924889110668033
 30
0.0
 10
-1.6413681244868243
 20
11.905477975097773
 30
0.0
 10
-1.6501690641509679
 20
11.889595892531936
 30
0.0
 10
-1.6598887855425681
 20
11.877271163840387
 30
0.0
 10
-1.6704107380925126
 20
11.868528727059207
 30
0.0
 10
-1.6816189551488663
 20
11.863390805669685
 30
0.0
 10
-1.8743989353856294
 20
11.834489117397395
 30
0.0
 10
-2.069813503814648
 20
11.801880193352657
 30
0.0
 10
-2.261532495818476
 20
11.766620351176373
 30
0.0
 10
-2.273801701106691
 20
11.767840583684382
 30
0.0
 10
-2.28659220983158
 20
11.772692858716283
 30
0.0
 10
-2.2997871237969427
 20
11.781193810725528
 30
0.0
 10
-2.313269152781315
 20
11.793357199226245
 30
0.0
 10
-2.326920677683427
 20
11.809193900634027
 30
0.0
 10
-2.3406238138265327
 20
11.82871190141028
 30
0.0
 10
-2.354260474394913
 20
11.85191629251134
 30
0.0
 10
-2.367712433977146
 20
11.87880926514615
 30
0.0
 10
-2.3808613921904014
 20
11.909390107843887
 30
0.0
 10
-2.400086949636613
 20
11.960064456933289
 30
0.0
 10
-2.413534120874694
 20
11.993814845338676
 30
0.0
 10
-2.4288038020866844
 20
12.030369803482838
 30
0.0
 10
-2.445992064598419
 20
12.069677463041145
 30
0.0
 10
-2.465193749158938
 20
12.111683551389739
 30
0.0
 10
-2.4865024128001068
 20
12.156331418345493
 30
0.0
 10
-2.510010276245727
 20
12.203562064000105
 30
0.0
 10
-2.535808171894132
 20
12.253314167643747
 30
0.0
 10
-2.563985492397952
 20
12.305524117765396
 30
0.0
 10
-2.5946301394757656
 20
12.360126043325367
 30
0.0
 10
-2.627828475641662
 20
12.417051844811361
 30
0.0
 10
-2.663665270894948
 20
12.476231229505663
 30
0.0
 10
-2.702223657694616
 20
12.53759174356503
 30
0.0
 10
-2.743585080913909
 20
12.601058808250048
 30
0.0
 10
-2.787829250814002
 20
12.66655575591901
 30
0.0
 10
-2.8350340963663396
 20
12.734003867200965
 30
0.0
 10
-2.885275719335595
 20
12.803322409142332
 30
0.0
 10
-2.938628349140807
 20
12.874428674309241
 30
0.0
 10
-2.9951642985131866
 20
12.947238020829468
 30
0.0
 10
-3.0376372054227376
 20
13.000108133201008
 30
0.0
 10
-3.2817585609820754
 20
12.959371483903787
 30
0.0
 10
-3.5158453873395414
 20
12.879009374909652
 30
0.0
 10
-3.528035801951119
 20
12.812296629537224
 30
0.0
 10
-3.543104266758628
 20
12.721354582713543
 30
0.0
 10
-3.5561836626953607
 20
12.633425443885416
 30
0.0
 10
-3.5673778719886964
 20
12.548549236302012
 30
0.0
 10
-3.5767915418518417
 20
12.466763369681477
 30
0.0
 10
-3.5845300264291584
 20
12.38810262608932
 30
0.0
 10
-3.5906993284814046
 20
12.312599147087653
 30
0.0
 10
-3.595406040858153
 20
12.240282421939554
 30
0.0
 10
-3.598757287744172
 20
12.171179277212985
 30
0.0
 10
-3.600860665737261
 20
12.105313867486139
 30
0.0
 10
-3.601824184766832
 20
12.042707667304727
 30
0.0
 10
-3.60175620887828
 20
11.983379464384372
 30
0.0
 10
-3.6007653969107873
 20
11.92734535398397
 30
0.0
 10
-3.5989606432184726
 20
11.874618734633023
 30
0.0
 10
-3.5964519496622733
 20
11.825210258108774
 30
0.0
 10
-3.5933457055291944
 20
11.779128049665138
 30
0.0
 10
-3.5897539527993247
 20
11.736377277374839
 30
0.0
 10
-3.5857850027958453
 20
11.6969606216187
 30
0.0
 10
-3.5815480246312923
 20
11.660877867583796
 30
0.0
 10
-3.5743380747974305
 20
11.607160765522543
 30
0.0
 10
-3.571347366702887
 20
11.5740075046199
 30
0.0
 10
-3.5703783698188394
 20
11.543953416215896
 30
0.0
 10
-3.57132738874202
 20
11.517055429978317
 30
0.0
 10
-3.574089393073812
 20
11.493367888906015
 30
0.0
 10
-3.5785592720400263
 20
11.472942459200077
 30
0.0
 10
-3.58462607348559
 20
11.455828400481584
 30
0.0
 10
-3.5921846468768135
 20
11.442071951465207
 30
0.0
 10
-3.601124135908265
 20
11.431716893657898
 30
0.0
 10
-3.611333813426788
 20
11.424804234925178
 30
0.0
 10
-3.796727464463473
 20
11.364566186148986
 30
0.0
 10
-3.9841095803903612
 20
11.300237824500199
 30
0.0
 10
-4.167410195953944
 20
11.23390297167552
 30
0.0
 10
-4.179712908943446
 20
11.233087116985088
 30
0.0
 10
-4.1931276300213165
 20
11.235767964766968
 30
0.0
 10
-4.207541793271437
 20
11.241981163413051
 30
0.0
 10
-4.222841972899677
 20
11.251759590111575
 30
0.0
 10
-4.238913944175171
 20
11.265133332405785
 30
0.0
 10
-4.255642744742856
 20
11.28212967101223
 30
0.0
 10
-4.272912736281138
 20
11.30277306390429
 30
0.0
 10
-4.290607666480246
 20
11.327085131668825
 30
0.0
 10
-4.308610731316135
 20
11.355084644141588
 30
0.0
 10
-4.335914800943537
 20
11.401903438407718
 30
0.0
 10
-4.3547337016444105
 20
11.432980183865235
 30
0.0
 10
-4.375811872665681
 20
11.466523273103338
 30
0.0
 10
-4.3992355377998775
 20
11.502465732393222
 30
0.0
 10
-4.425089311311552
 20
11.540738419044654
 30
0.0
 10
-4.453456149922917
 20
11.581270056527837
 30
0.0
 10
-4.484417305521568
 20
11.623987270584063
 30
0.0
 10
-4.518052278613205
 20
11.668814626316678
 30
0.0
 10
-4.5544387725406
 20
11.715674666245722
 30
0.0
 10
-4.593652648140671
 20
11.764487949579285
 30
0.0
 10
-4.635767881244056
 20
11.815173090791026
 30
0.0
 10
-4.680856515896689
 20
11.86764680318098
 30
0.0
 10
-4.728988625228532
 20
11.921823937928863
 30
0.0
 10
-4.780232268053856
 20
11.977617528066514
 30
0.0
 10
-4.834653448410695
 20
12.034938831721155
 30
0.0
 10
-4.892316075638287
 20
12.093697376464322
 30
0.0
 10
-4.953281925365006
 20
12.153801004495921
 30
0.0
 10
-5.017610601421179
 20
12.215155918642866
 30
0.0
 10
-5.085359498692333
 20
12.277666729153378
 30
0.0
 10
-5.135955264994833
 20
12.322824951392413
 30
0.0
 10
-5.370042091352294
 20
12.24246284239828
 30
0.0
 10
-5.5877091101036624
 20
12.124667342552202
 30
0.0
 10
-5.588752706357881
 20
12.056857995774738
 30
0.0
 10
-5.58864708800946
 20
11.964676092144469
 30
0.0
 10
-5.587075437454183
 20
11.875793394347552
 30
0.0
 10
-5.584146807711547
 20
11.790232281315555
 30
0.0
 10
-5.5799705761804
 20
11.708012428181636
 30
0.0
 10
-5.574656385051715
 20
11.629150801907056
 30
0.0
 10
-5.568314081674004
 20
11.553661658203922
 30
0.0
 10
-5.5610536588824795
 20
11.481556539533806
 30
0.0
 10
-5.552985195335618
 20
11.412844274523948
 30
0.0
 10
-5.544218795866766
 20
11.347530978497643
 30
0.0
 10
-5.534864531884735
 20
11.285620055265714
 30
0.0
 10
-5.525032381846935
 20
11.227112200168175
 30
0.0
 10
-5.514832171820152
 20
11.17200540428846
 30
0.0
 10
-5.504373516306921
 20
11.120294959995983
 30
0.0
 10
-5.4937666701110865
 20
11.071973268080404
 30
0.0
 10
-5.483117908881284
 20
11.02703083187666
 30
0.0
 10
-5.472538597127843
 20
10.985454307467888
 30
0.0
 10
-5.462136010124853
 20
10.947228511220155
 30
0.0
 10
-5.4520177927033995
 20
10.912335262604952
 30
0.0
 10
-5.436064632782964
 20
10.860537510539645
 30
0.0
 10
-5.427657866653992
 20
10.828328671277134
 30
0.0
 10
-5.421755345257331
 20
10.798843973111493
 30
0.0
 10
-5.418264157775202
 20
10.772156636966459
 30
0.0
 10
-5.417089650850359
 20
10.74833755210863
 30
0.0
 10
-5.418136651259769
 20
10.727454980744273
 30
0.0
 10
-5.421303827958291
 20
10.709575772781943
 30
0.0
 10
-5.426495075170755
 20
10.694762843509523
 30
0.0
 10
-5.433608254726445
 20
10.683077623659441
 30
0.0
 10
-5.4425408993190745
 20
10.6745787868938
 30
0.0
 10
-5.61549116564058
 20
10.584647514555444
 30
0.0
 10
-5.789729533411571
 20
10.49035442531686
 30
0.0
 10
-5.959611809571379
 20
10.394754003706788
 30
0.0
 10
-5.971612444322593
 20
10.391924316207099
 30
0.0
 10
-5.985285459132009
 20
10.392360610199916
 30
0.0
 10
-6.000525690868342
 20
10.396116575620374
 30
0.0
 10
-6.0172266721247825
 20
10.403243310526827
 30
0.0
 10
-6.035280688293764
 20
10.413789292880422
 30
0.0
 10
-6.054578835215271
 20
10.427800353506024
 30
0.0
 10
-6.075011077373798
 20
10.445319650244294
 30
0.0
 10
-6.096466306621193
 20
10.466387643306767
 30
0.0
 10
-6.118832401401478
 20
10.491042071843582
 30
0.0
 10
-6.153470199367032
 20
10.532728216626346
 30
0.0
 10
-6.177147498976791
 20
10.560283626530945
 30
0.0
 10
-6.203459202248572
 20
10.58989987882888
 30
0.0
 10
-6.232479333481309
 20
10.621496721255916
 30
0.0
 10
-6.264279972398498
 20
10.654992027087777
 30
0.0
 10
-6.29893121256957
 20
10.690301837685938
 30
0.0
 10
-6.336501120706227
 20
10.727340405899795
 30
0.0
 10
-6.37705569685499
 20
10.766020240313194
 30
0.0
 10
-6.420658835504129
 20
10.806252150315377
 30
0.0
 10
-6.467372287323033
 20
10.847945292299922
 30
0.0
 10
-6.5172556235910655
 20
10.89100721471146
 30
0.0
 10
-6.570366197227019
 20
10.935343908711825
 30
0.0
 10
-6.626759110619511
 20
10.980859853141549
 30
0.0
 10
-6.686487180056798
 20
11.027458065035912
 30
0.0
 10
-6.7496009029356765
 20
11.075040148938019
 30
0.0
 10
-6.816148425683004
 20
11.123506347213901
 30
0.0
 10
-6.886175512712752
 20
11.172755591041495
 30
0.0
 10
-6.959725516429416
 20
11.22268555205087
 30
0.0
 10
-7.036839348289984
 20
11.273192694594462
 30
0.0
 10
-7.0941778533740205
 20
11.309407228117012
 30
0.0
 10
-7.311844872125389
 20
11.191611728270946
 30
0.0
 10
-7.50715469441469
 20
11.039595991738775
 30
0.0
 10
-7.497023005726186
 20
10.972539705770588
 30
0.0
 10
-7.4817461852150515
 20
10.881632427364476
 30
0.0
 10
-7.465566358697923
 20
10.79422065889477
 30
0.0
 10
-7.448594775304328
 20
10.710308524536511
 30
0.0
 10
-7.430942559088435
 20
10.629897428151548
 30
0.0
 10
-7.412720649534678
 20
10.552986058782393
 30
0.0
 10
-7.394039742230002
 20
10.479570397432505
 30
0.0
 10
-7.375010229677447
 20
10.409643724913677
 30
0.0
 10
-7.3557421423503495
 20
10.34319663109049
 30
0.0
 10
-7.33634508994477
 20
10.28021702522127
 30
0.0
 10
-7.316928202887819
 20
10.220690147534858
 30
0.0
 10
-7.2976000741233005
 20
10.164598582028605
 30
0.0
 10
-7.278468701176794
 20
10.111922270408476
 30
0.0
 10
-7.25964142870137
 20
10.062638527295702
 30
0.0
 10
-7.241225756980138
 20
10.016721709778999
 30
0.0
 10
-7.223324949100712
 20
9.974144958318599
 30
0.0
 10
-7.206046654370126
 20
9.934876780995317
 30
0.0
 10
-7.189494185823544
 20
9.898884544330414
 30
0.0
 10
-7.173770727740226
 20
9.86613259799722
 30
0.0
 10
-7.14950951834906
 20
9.817667103577543
 30
0.0
 10
-7.135916008850854
 20
9.787281259128068
 30
0.0
 10
-7.125240968338557
 20
9.759170216905877
 30
0.0
 10
-7.117404804944784
 20
9.733421491814726
 30
0.0
 10
-7.112325824250504
 20
9.710120585714577
 30
0.0
 10
-7.109921386661269
 20
9.689350494801817
 30
0.0
 10
-7.110102546288625
 20
9.671193835781246
 30
0.0
 10
-7.112784863630945
 20
9.655728484348908
 30
0.0
 10
-7.117877704715269
 20
9.643031844792471
 30
0.0
 10
-7.125289657123185
 20
9.633178656106058
 30
0.0
 10
-7.281078906311957
 20
9.516007250881602
 30
0.0
 10
-7.437420757459786
 20
9.394321503723914
 30
0.0
 10
-7.589250748572217
 20
9.272063243618271
 30
0.0
 10
-7.600621959052454
 20
9.26729690980787
 30
0.0
 10
-7.614180303392302
 20
9.265476749048831
 30
0.0
 10
-7.6298308898214
 20
9.266673028298065
 30
0.0
 10
-7.647477113473574
 20
9.270953672662213
 30
0.0
 10
-7.6670207080382635
 20
9.27838422816791
 30
0.0
 10
-7.688361798172088
 20
9.28902782560291
 30
0.0
 10
-7.711398952647653
 20
9.30294514544177
 30
0.0
 10
-7.736029238219072
 20
9.320194383871597
 30
0.0
 10
-7.7621482741822065
 20
9.340831219931278
 30
0.0
 10
-7.803174971651413
 20
9.376247625868672
 30
0.0
 10
-7.831064815158817
 20
9.399530060469743
 30
0.0
 10
-7.861892336005347
 20
9.424411621668634
 30
0.0
 10
-7.895717339806429
 20
9.450800967738228
 30
0.0
 10
-7.9325974055975506
 20
9.478605228123177
 30
0.0
 10
-7.972587851825504
 20
9.507730052249006
 30
0.0
 10
-8.015741703343643
 20
9.538079659031958
 30
0.0
 10
-8.062109659430082
 20
9.569556887074144
 30
0.0
 10
-8.111740062843516
 20
9.602063245521371
 30
0.0
 10
-8.164678869688514
 20
9.63549896592947
 30
0.0
 10
-8.220969621743953
 20
9.669763052551467
 30
0.0
 10
-8.280653416363371
 20
9.704753338727052
 30
0.0
 10
-8.343768882144516
 20
9.740366536525785
 30
0.0
 10
-8.410352152158977
 20
9.776498292428856
 30
0.0
 10
-8.480436839724955
 20
9.813043241366813
 30
0.0
 10
-8.554054015047916
 20
9.849895061628395
 30
0.0
 10
-8.631232182993513
 20
9.886946530263566
 30
0.0
 10
-8.711997261999826
 20
9.924089578956726
 30
0.0
 10
-8.796372564137407
 20
9.961215350347103
 30
0.0
 10
-8.85888976305461
 20
9.987498357082908
 30
0.0
 10
-9.054199585343916
 20
9.835482620550756
 30
0.0
 10
-9.221824668353815
 20
9.653393240349656
 30
0.0
 10
-9.200794060778671
 20
9.588919135869265
 30
0.0
 10
-9.170762749944668
 20
9.50176619626464
 30
0.0
 10
-9.140416090955418
 20
9.418209722300523
 30
0.0
 10
-9.109864494464224
 20
9.338235470898692
 30
0.0
 10
-9.079217800006061
 20
9.261826536355978
 30
0.0
 10
-9.048585218218882
 20
9.188963365555663
 30
0.0
 10
-9.018075273441026
 20
9.119623774420301
 30
0.0
 10
-8.987795746623638
 20
9.053782965393843
 30
0.0
 10
-8.95785361871043
 20
8.99141354626218
 30
0.0
 10
-8.928355014393405
 20
8.932485550022577
 30
0.0
 10
-8.899405146324403
 20
8.87696645592998
 30
0.0
 10
-8.871108259801188
 20
8.824821211702222
 30
0.0
 10
-8.843567577917174
 20
8.776012256805778
 30
0.0
 10
-8.816885247393648
 20
8.730499546911695
 30
0.0
 10
-8.7911630816655
 20
8.688240094879518
 30
0.0
 10
-8.766498514511477
 20
8.64919041095299
 30
0.0
 10
-8.742992543642846
 20
8.613301714228081
 30
0.0
 10
-8.72074170174556
 20
8.580524811537465
 30
0.0
 10
-8.69984189794889
 20
8.550807555204303
 30
0.0
 10
-8.667934421634934
 20
8.506996330777906
 30
0.0
 10
-8.64952496427097
 20
8.479262327768064
 30
0.0
 10
-8.634368591920458
 20
8.453291737441125
 30
0.0
 10
-8.62240120272507
 20
8.429183981502431
 30
0.0
 10
-8.61355628961478
 20
8.407036842137442
 30
0.0
 10
-8.607766000816431
 20
8.386945785612795
 30
0.0
 10
-8.604956201810237
 20
8.369006941861183
 30
0.0
 10
-8.605056422657594
 20
8.35331102274084
 30
0.0
 10
-8.607990005841817
 20
8.33994929470748
 30
0.0
 10
-8.613679087324849
 20
8.329010523402317
 30
0.0
 10
-8.74805779477528
 20
8.187795115783224
 30
0.0
 10
-8.882238531153423
 20
8.042035980677824
 30
0.0
 10
-9.011874710852181
 20
7.896454768708793
 30
0.0
 10
-9.022306320082068
 20
7.889881801749123
 30
0.0
 10
-9.035380157662727
 20
7.885854835478935
 30
0.0
 10
-9.051014191584837
 20
7.8844587971774915
 30
0.0
 10
-9.069124314651784
 20
7.885776586179881
 30
0.0
 10
-9.089624389298805
 20
7.8898890286535
 30
0.0
 10
-9.112426293338167
 20
7.8968748333056595
 30
0.0
 10
-9.137439966610057
 20
7.906810548039651
 30
0.0
 10
-9.164573458521478
 20
7.919770517577874
 30
0.0
 10
-9.19373297645363
 20
7.93582684206893
 30
0.0
 10
-9.240029472068148
 20
7.964007441930662
 30
0.0
 10
-9.271371097245709
 20
7.98238181710507
 30
0.0
 10
-9.305873541259643
 20
8.001849983076795
 30
0.0
 10
-9.34358075970058
 20
8.022312000220063
 30
0.0
 10
-9.38453426031001
 20
8.043666787415095
 30
0.0
 10
-9.42877307746906
 20
8.065812175789189
 30
0.0
 10
-9.47633374779296
 20
8.088644962983716
 30
0.0
 10
-9.527250286847277
 20
8.112060967928711
 30
0.0
 10
-9.581554166996696
 20
8.13595508610029
 30
0.0
 10
-9.639274296218225
 20
8.160221345639629
 30
0.0
 10
-9.700436999084038
 20
8.184752961508845
 30
0.0
 10
-9.765065996353746
 20
8.209442396065647
 30
0.0
 10
-9.833182389146776
 20
8.23418141203412
 30
0.0
 10
-9.904804641702043
 20
8.25886113183332
 30
0.0
 10
-9.97994856637547
 20
8.283372094865676
 30
0.0
 10
-10.058627309636902
 20
8.307604315521745
 30
0.0
 10
-10.140851339265263
 20
8.331447341486092
 30
0.0
 10
-10.226628432744782
 20
8.354790312319397
 30
0.0
 10
-10.315963666867061
 20
8.37752201829269
 30
0.0
 10
-10.381954253401139
 20
8.39315656633268
 30
0.0
 10
-10.549579336411039
 20
8.211067186131588
 30
0.0
 10
-10.684947304843003
 20
8.003871085881855
 30
0.0
 10
-10.653591438533166
 20
7.943737848388038
 30
0.0
 10
-10.609624813250061
 20
7.862716552586557
 30
0.0
 10
-10.565939099538083
 20
7.7852945759223
 30
0.0
 10
-10.5226408578595
 20
7.711439696577824
 30
0.0
 10
-10.479835647093918
 20
7.641117160428459
 30
0.0
 10
-10.437627970051292
 20
7.574289705556308
 30
0.0
 10
-10.396121219560301
 20
7.510917587926818
 30
0.0
 10
-10.355417625036823
 20
7.450958608028796
 30
0.0
 10
-10.315618199733677
 20
7.394368138757625
 30
0.0
 10
-10.276822688533853
 20
7.341099154271232
 30
0.0
 10
-10.239129516387045
 20
7.291102259931819
 30
0.0
 10
-10.202635737405013
 20
7.244325723312583
 30
0.0
 10
-10.167436984592086
 20
7.200715506193955
 30
0.0
 10
-10.133627420441496
 20
7.160215297601692
 30
0.0
 10
-10.101300394334816
 20
7.1227659387433055
 30
0.0
 10
-10.070544853002431
 20
7.08830849593324
 30
0.0
 10
-10.041452387605553
 20
7.056778229898506
 30
0.0
 10
-10.014110117320906
 20
7.028110729644571
 30
0.0
 10
-9.988604059976737
 20
7.0022387725971
 30
0.0
 10
-9.949920669517253
 20
6.964276874158998
 30
0.0
 10
-9.927197426294546
 20
6.939951223893748
 30
0.0
 10
-9.907973148433827
 20
6.9168294954659055
 30
0.0
 10
-9.89220097261742
 20
6.895020305417446
 30
0.0
 10
-9.879831393263798
 20
6.87463104901621
 30
0.0
 10
-9.870813197240599
 20
6.855767058528192
 30
0.0
 10
-9.865089083593144
 20
6.838535354940011
 30
0.0
 10
-9.862604474182078
 20
6.823037011889057
 30
0.0
 10
-9.863298778964216
 20
6.8093746684881
 30
0.0
 10
-9.867109806209836
 20
6.797648695730139
 30
0.0
 10
-9.976412471081824
 20
6.636241273915166
 30
0.0
 10
-10.084771991984958
 20
6.470384680102022
 30
0.0
 10
-10.18867822322416
 20
6.305451592230225
 30
0.0
 10
-10.197885684097084
 20
6.2972512855255
 30
0.0
 10
-10.210118394710301
 20
6.291127358886493
 30
0.0
 10
-10.225309420434915
 20
6.287177083320037
 30
0.0
 10
-10.243389445968939
 20
6.285496071111907
 30
0.0
 10
-10.264286812101624
 20
6.286178223843103
 30
0.0
 10
-10.287927553544456
 20
6.289315681172144
 30
0.0
 10
-10.314235437811597
 20
6.294998770403798
 30
0.0
 10
-10.343132005135406
 20
6.303315956865534
 30
0.0
 10
-10.374536609400579
 20
6.314353795111562
 30
0.0
 10
-10.424840055446
 20
6.334529895594746
 30
0.0
 10
-10.458778544460396
 20
6.347495006286152
 30
0.0
 10
-10.496014774910192
 20
6.361018736212726
 30
0.0
 10
-10.536575653367303
 20
6.374995273942496
 30
0.0
 10
-10.580485484056219
 20
6.389318085020704
 30
0.0
 10
-10.627765952536256
 20
6.403879969176937
 30
0.0
 10
-10.678436110560897
 20
6.418573117869008
 30
0.0
 10
-10.732512362127203
 20
6.43328917214288
 30
0.0
 10
-10.790008450721778
 20
6.44791928078241
 30
0.0
 10
-10.850935447659822
 20
6.4623541591501725
 30
0.0
 10
-10.915301742241098
 20
6.4764841457348465
 30
0.0
 10
-10.983113031590795
 20
6.490199265258709
 30
0.0
 10
-11.0543723137665
 20
6.503389283531102
 30
0.0
 10
-11.129079880518145
 20
6.5159437688055375
 30
0.0
 10
-11.207233311919518
 20
6.527752150756078
 30
0.0
 10
-11.288827472103431
 20
6.538703779995822
 30
0.0
 10
-11.373854506228339
 20
6.548687987695169
 30
0.0
 10
-11.462303838675139
 20
6.557594145274864
 30
0.0
 10
-11.554162172474834
 20
6.565311724149261
 30
0.0
 10
-11.621826095449759
 20
6.569871343779132
 30
0.0
 10
-11.757194063881718
 20
6.362675243529407
 30
0.0
 10
-11.856612432434888
 20
6.1360241927259285
 30
0.0
 10
-11.815786613684644
 20
6.081872100181867
 30
0.0
 10
-11.759083968877725
 20
6.00919249792624
 30
0.0
 10
-11.70325083283292
 20
5.940016888261213
 30
0.0
 10
-11.64838700912985
 20
5.874295949557307
 30
0.0
 10
-11.594590896621675
 20
5.8119780272702775
 30
0.0
 10
-11.541959439726124
 20
5.753009167089026
 30
0.0
 10
-11.49058807947537
 20
5.697333149135563
 30
0.0
 10
-11.440570705198049
 20
5.644891523036195
 30
0.0
 10
-11.391999607077876
 20
5.595623644106892
 30
0.0
 10
-11.344965429408436
 20
5.549466710408621
 30
0.0
 10
-11.299557124661222
 20
5.506355800767794
 30
0.0
 10
-11.255861908378819
 20
5.466223913738722
 30
0.0
 10
-11.213965214857417
 20
5.429002007437553
 30
0.0
 10
-11.173950653854833
 20
5.394619040261342
 30
0.0
 10
-11.135900564371543
 20
5.363001295463213
 30
0.0
 10
-11.099892979854632
 20
5.334076002985617
 30
0.0
 10
-11.066007586547137
 20
5.307764231105218
 30
0.0
 10
-11.034319713732515
 20
5.283988107964297
 30
0.0
 10
-11.004903141595866
 20
5.262667169747615
 30
0.0
 10
-10.960499019042514
 20
5.2315900989279145
 30
0.0
 10
-10.934081820801108
 20
5.2113363417342535
 30
0.0
 10
-10.911314025616269
 20
5.191694175683172
 30
0.0
 10
-10.89216728702012
 20
5.1727784493771525
 30
0.0
 10
-10.876610451302849
 20
5.154703241703471
 30
0.0
 10
-10.86461034093363
 20
5.137580877737844
 30
0.0
 10
-10.856128051543566
 20
5.121526350267279
 30
0.0
 10
-10.851126385541917
 20
5.106648337682979
 30
0.0
 10
-10.84956247309743
 20
5.093058052027329
 30
0.0
 10
-10.851391491216983
 20
5.080864731786082
 30
0.0
 10
-10.932636621743605
 20
4.903668069484595
 30
0.0
 10
-11.01221916191368
 20
4.722238152487058
 30
0.0
 10
-11.087561153568451
 20
4.542452133401166
 30
0.0
 10
-11.095293310553856
 20
4.532848169941686
 30
0.0
 10
-11.106351217742402
 20
4.524794327688686
 30
0.0
 10
-11.120684863687798
 20
4.51839756807707
 30
0.0
 10
-11.138241615723437
 20
4.513763608289385
 30
0.0
 10
-11.158966247669058
 20
4.510996863929891
 30
0.0
 10
-11.182800968715613
 20
4.51020039227862
 30
0.0
 10
-11.20968545347473
 20
4.511475836148405
 30
0.0
 10
-11.239556873182066
 20
4.514923368368264
 30
0.0
 10
-11.272349928041598
 20
4.52064163691541
 30
0.0
 10
-11.3252881776411
 20
4.532262886594032
 30
0.0
 10
-11.360897776983055
 20
4.539465078380297
 30
0.0
 10
-11.399852086569652
 20
4.546675480163056
 30
0.0
 10
-11.442160230012941
 20
4.553785294964174
 30
0.0
 10
-11.487828645064543
 20
4.560685440976128
 30
0.0
 10
-11.536861076936413
 20
4.567266610674715
 30
0.0
 10
-11.589258572838126
 20
4.573419330070192
 30
0.0
 10
-11.645019477739956
 20
4.579034018074238
 30
0.0
 10
-11.704139431363947
 20
4.58400104595588
 30
0.0
 10
-11.766611366366863
 20
4.588210797299113
 30
0.0
 10
-11.832425507937831
 20
4.591553725399342
 30
0.0
 10
-11.9015693741649
 20
4.5939204171823
 30
0.0
 10
-11.974027778264608
 20
4.595201648443955
 30
0.0
 10
-12.049782831539739
 20
4.59528844556244
 30
0.0
 10
-12.128813947791219
 20
4.594072144553709
 30
0.0
 10
-12.211097848907897
 20
4.5914444504802345
 30
0.0
 10
-12.296608571687361
 20
4.587297496755432
 30
0.0
 10
-12.385317475882493
 20
4.581523904319365
 30
0.0
 10
-12.477193253470352
 20
4.574016840661396
 30
0.0
 10
-12.544684817454074
 20
4.5673771573436985
 30
0.0
 10
-12.644103186007237
 20
4.340726106540216
 30
0.0
 10
-12.70486008075179
 20
4.100802555013701
 30
0.0
 10
-12.655677931471686
 20
4.054108735340029
 30
0.0
 10
-12.587785967478519
 20
3.9917533367182063
 30
0.0
 10
-12.521328391506069
 20
3.932711024356715
 30
0.0
 10
-12.456395527869818
 20
3.876916722179521
 30
0.0
 10
-12.393075931332273
 20
3.824303284224116
 30
0.0
 10
-12.33145634352794
 20
3.774801535519166
 30
0.0
 10
-12.271621650309923
 20
3.728340313874951
 30
0.0
 10
-12.213654839863484
 20
3.684846512429115
 30
0.0
 10
-12.157636961867597
 20
3.644245123147095
 30
0.0
 10
-12.10364708748641
 20
3.606459281066088
 30
0.0
 10
-12.05176227032168
 20
3.5714103093570957
 30
0.0
 10
-12.002057508334161
 20
3.53901776518032
 30
0.0
 10
-11.954605706687017
 20
3.509199486270238
 30
0.0
 10
-11.909477641746419
 20
3.4818716382249404
 30
0.0
 10
-11.866742396138438
 20
3.4569479571438504
 30
0.0
 10
-11.826464961477855
 20
3.4343438215749034
 30
0.0
 10
-11.788710945456549
 20
3.413968260396067
 30
0.0
 10
-11.753541832678211
 20
3.395732065027715
 30
0.0
 10
-11.721017153153692
 20
3.379543725256834
 30
0.0
 10
-11.672103527216818
 20
3.3561991835356206
 30
0.0
 10
-11.642712966260241
 20
3.340569789112189
 30
0.0
 10
-11.617022699852713
 20
3.3249429725244353
 30
0.0
 10
-11.595023671593903
 20
3.3094366816648657
 30
0.0
 10
-11.576703929437706
 20
3.294168567265528
 30
0.0
 10
-11.562049236451386
 20
3.279254883276601
 30
0.0
 10
-11.551040146061593
 20
3.2648154575820207
 30
0.0
 10
-11.543657855879518
 20
3.2509636088635903
 30
0.0
 10
-11.539878385663075
 20
3.2378160885187035
 30
0.0
 10
-11.539675503810155
 20
3.2254880227847362
 30
0.0
 10
-11.590646944620891
 20
3.0373355830270947
 30
0.0
 10
-11.639281699818271
 20
2.845281278028363
 30
0.0
 10
-11.68400431875818
 20
2.6555464216618643
 30
0.0
 10
-11.690050258769736
 20
2.6448007725351412
 30
0.0
 10
-11.699631731651316
 20
2.635036702490012
 30
0.0
 10
-11.712717013321132
 20
2.626367945760332
 30
0.0
 10
-11.729271589429894
 20
2.618907440736268
 30
0.0
 10
-11.749258173254054
 20
2.612767268859848
 30
0.0
 10
-11.772636724846665
 20
2.6080585938986625
 30
0.0
 10
-11.79936447143615
 20
2.6048916016226453
 30
0.0
 10
-11.829395929066374
 20
2.6033754399087163
 30
0.0
 10
-11.862682925468812
 20
2.6036181592974272
 30
0.0
 10
-11.916811961173039
 20
2.606367560774592
 30
0.0
 10
-11.953121333799803
 20
2.607610376638499
 30
0.0
 10
-11.992731150503985
 20
2.608310769312923
 30
0.0
 10
-12.035632503069419
 20
2.60835992397152
 30
0.0
 10
-12.081813787169766
 20
2.6076491869213507
 30
0.0
 10
-12.131260705510018
 20
2.6060701250087455
 30
0.0
 10
-12.18395627219068
 20
2.6035145849614603
 30
0.0
 10
-12.239880818300144
 20
2.5998747526433315
 30
0.0
 10
-12.299011998732905
 20
2.595043212194548
 30
0.0
 10
-12.361324800265994
 20
2.5889130054706118
 30
0.0
 10
-12.42679155060926
 20
2.581377688722182
 30
0.0
 10
-12.495381929287632
 20
2.572331395581904
 30
0.0
 10
-12.567062978932471
 20
2.561668891183922
 30
0.0
 10
-12.641799118356424
 20
2.5492856325473277
 30
0.0
 10
-12.719552156625417
 20
2.535077826100185
 30
0.0
 10
-12.800281308350517
 20
2.518942485357928
 30
0.0
 10
-12.88394321017693
 20
2.5007774882962854
 30
0.0
 10
-12.970491938460807
 20
2.4804816343954794
 30
0.0
 10
-13.05987902812651
 20
2.457954701332281
 30
0.0
 10
-13.125357239190908
 20
2.440296828319548
 30
0.0
 10
-13.186114133935481
 20
2.200373276793046
 30
0.0
 10
-13.206552265164225
 20
1.9537217135951357
 30
0.0
 10
-13.15035534617832
 20
1.9157598524708448
 30
0.0
 10
-13.073125978795497
 20
1.8654295502088372
 30
0.0
 10
-12.997856752325958
 20
1.8181310555202825
 30
0.0
 10
-12.92462604800918
 20
1.7737853129883034
 30
0.0
 10
-12.853510160973943
 20
1.7323115167989502
 30
0.0
 10
-12.784583263985851
 20
1.6936271582335436
 30
0.0
 10
-12.717917372254153
 20
1.6576480739096664
 30
0.0
 10
-12.653582309119376
 20
1.624288494640925
 30
0.0
 10
-12.591645672931797
 20
1.5934610950658792
 30
0.0
 10
-12.532172804870884
 20
1.5650770438737678
 30
0.0
 10
-12.475226757847265
 20
1.5390460546789804
 30
0.0
 10
-12.420868266491008
 20
1.5152764375185828
 30
0.0
 10
-12.369155718169441
 20
1.4936751509178026
 30
0.0
 10
-12.32014512526232
 20
1.474147854459712
 30
0.0
 10
-12.273890429627368
 20
1.456598090144366
 30
0.0
 10
-12.230441808245216
 20
1.4409316933778058
 30
0.0
 10
-12.189849000649781
 20
1.427048135094366
 30
0.0
 10
-12.152157969625291
 20
1.4148493033700185
 30
0.0
 10
-12.117412371184816
 20
1.404235137754037
 30
0.0
 10
-12.065323478071674
 20
1.3892599033747863
 30
0.0
 10
-12.033761252287347
 20
1.3786812008586635
 30
0.0
 10
-12.005849278155202
 20
1.367495992554682
 30
0.0
 10
-11.981598036377443
 20
1.355822108334328
 30
0.0
 10
-11.961015102592334
 20
1.3437775615691436
 30
0.0
 10
-11.944105568811649
 20
1.3314793639790623
 30
0.0
 10
-11.930869976709406
 20
1.3190489099526412
 30
0.0
 10
-11.921308431978877
 20
1.3066010674240445
 30
0.0
 10
-11.91541649808564
 20
1.2942549424719019
 30
0.0
 10
-11.91318725034832
 20
1.2821284087415687
 30
0.0
 10
-11.932494633410483
 20
1.0881524996075573
 30
0.0
 10
-11.948854974294726
 20
0.8907125473997874
 30
0.0
 10
-11.96173830405826
 20
0.6962043260325036
 30
0.0
 10
-11.965933109613038
 20
0.6846101045348969
 30
0.0
 10
-11.973776790584482
 20
0.6734021450754379
 30
0.0
 10
-11.98525677560555
 20
0.6626978523135183
 30
0.0
 10
-12.000357610105743
 20
0.6526143051820475
 30
0.0
 10
-12.019060963902858
 20
0.6432681936712554
 30
0.0
 10
-12.04134564009741
 20
0.6347757557784988
 30
0.0
 10
-12.06718758526434
 20
0.627252714650236
 30
0.0
 10
-12.096559900939468
 20
0.6208142159417356
 30
0.0
 10
-12.129432856395677
 20
0.6155747654198099
 30
0.0
 10
-12.183276179214483
 20
0.6093773221903755
 30
0.0
 10
-12.219294900092265
 20
0.604626861354935
 30
0.0
 10
-12.258479771369428
 20
0.5987981400346541
 30
0.0
 10
-12.3008040959945
 20
0.5917852937397793
 30
0.0
 10
-12.346238544098961
 20
0.5834830606814628
 30
0.0
 10
-12.394751165873766
 20
0.5737868398503337
 30
0.0
 10
-12.44630740564142
 20
0.5625927488309809
 30
0.0
 10
-12.500870117125064
 20
0.5497976813279807
 30
0.0
 10
-12.55839957990787
 20
0.5352993643773294
 30
0.0
 10
-12.618853517182663
 20
0.5189964156453954
 30
0.0
 10
-12.682187114007943
 20
0.5007883978461016
 30
0.0
 10
-12.748353038409045
 20
0.4805758790775263
 30
0.0
 10
-12.81730146142325
 20
0.4582604843448106
 30
0.0
 10
-12.888980079935118
 20
0.433744952967997
 30
0.0
 10
-12.963334140024688
 20
0.4069331930053324
 30
0.0
 10
-13.040306461544343
 20
0.3777303356280484
 30
0.0
 10
-13.119837463826183
 20
0.34604278899679514
 30
0.0
 10
-13.201865192506913
 20
0.3117782916183217
 30
0.0
 10
-13.286325347459135
 20
0.2748459651605252
 30
0.0
 10
-13.348004130695335
 20
0.24665156319790693
 30
0.0
 10
-13.36844226192409
 20
3.1086244689504383e-15
 30
0.0
 10
-13.348004130695324
 20
-0.24665156319790538
 30
0.0
 10
-13.286325347459124
 20
-0.2748459651605292
 30
0.0
 10
-13.201865192506915
 20
-0.31177829161832044
 30
0.0
 10
-13.119837463826148
 20
-0.3460427889968084
 30
0.0
 10
-13.040306461544406
 20
-0.37773033562802316
 30
0.0
 10
-12.963334140024514
 20
-0.40693319300539643
 30
0.0
 10
-12.888980079923488
 20
-0.43374495297219207
 30
0.0
 10
-12.817301461419541
 20
-0.4582604843458492
 30
0.0
 10
-12.74835303840975
 20
-0.48057587907697796
 30
0.0
 10
-12.682187114008915
 20
-0.5007883978456752
 30
0.0
 10
-12.618853517074783
 20
-0.5189964152240697
 30
0.0
 10
-12.558399579907814
 20
-0.5352993643771425
 30
0.0
 10
-12.500870117125006
 20
-0.5497976813277939
 30
0.0
 10
-12.446307405642676
 20
-0.5625927488311545
 30
0.0
 10
-12.394751165982457
 20
-0.5737868399585243
 30
0.0
 10
-12.346238727840463
 20
-0.5834839756864248
 30
0.0
 10
-12.300804084865945
 20
-0.5917852951860555
 30
0.0
 10
-12.258479751670034
 20
-0.5987981432958615
 30
0.0
 10
-12.219294915472553
 20
-0.6046268590467451
 30
0.0
 10
-12.183276167466564
 20
-0.6093773237388879
 30
0.0
 10
-12.12943285639567
 20
-0.6155747654198321
 30
0.0
 10
-12.096559901026406
 20
-0.6208142166006253
 30
0.0
 10
-12.067187585062882
 20
-0.6272527132959648
 30
0.0
 10
-12.041345640423604
 20
-0.6347757577471164
 30
0.0
 10
-12.019060963787538
 20
-0.6432681930401832
 30
0.0
 10
-12.000357837214159
 20
-0.65261544146017
 30
0.0
 10
-11.9852567758494
 20
-0.6626978534363667
 30
0.0
 10
-11.97377679058558
 20
-0.6734021450800528
 30
0.0
 10
-11.965933109613031
 20
-0.6846101045347027
 30
0.0
 10
-11.961738304058372
 20
-0.6962043260327527
 30
0.0
 10
-11.948854974292617
 20
-0.8907125473994143
 30
0.0
 10
-11.932494633412626
 20
-1.088152499607536
 30
0.0
 10
-11.91318725034817
 20
-1.282128408741796
 30
0.0
 10
-11.91541649808568
 20
-1.2942549424717111
 30
0.0
 10
-11.921308431977035
 20
-1.3066010674284156
 30
0.0
 10
-11.930869976284066
 20
-1.3190489110200383
 30
0.0
 10
-11.944105157775464
 20
-1.3314804473790154
 30
0.0
 10
-11.961015102809952
 20
-1.3437775609656593
 30
0.0
 10
-11.981598035731674
 20
-1.3558221102224064
 30
0.0
 10
-12.00584927857682
 20
-1.3674959912520401
 30
0.0
 10
-12.033761252093147
 20
-1.3786812014942573
 30
0.0
 10
-12.06532347807168
 20
-1.3892599033748094
 30
0.0
 10
-12.117412382517633
 20
-1.4042351412150735
 30
0.0
 10
-12.152157954834687
 20
-1.4148492985617966
 30
0.0
 10
-12.189849019543725
 20
-1.4270481415535081
 30
0.0
 10
-12.230441818983945
 20
-1.4409316966360566
 30
0.0
 10
-12.273890097786996
 20
-1.4565989624269957
 30
0.0
 10
-12.320145125137303
 20
-1.474147854548537
 30
0.0
 10
-12.369155718168173
 20
-1.493675150917767
 30
0.0
 10
-12.420868266491098
 20
-1.5152764375184082
 30
0.0
 10
-12.475226757847352
 20
-1.5390460546788052
 30
0.0
 10
-12.532172805046642
 20
-1.565077043475945
 30
0.0
 10
-12.59164567293091
 20
-1.5934610950652985
 30
0.0
 10
-12.65358230911877
 20
-1.624288494640268
 30
0.0
 10
-12.71791737225764
 20
-1.6576480739113018
 30
0.0
 10
-12.784583263996632
 20
-1.6936271582395956
 30
0.0
 10
-12.853510160974105
 20
-1.7323115167990424
 30
0.0
 10
-12.924626048009124
 20
-1.7737853129882686
 30
0.0
 10
-12.997856752325992
 20
-1.8181310555203016
 30
0.0
 10
-13.073125978795497
 20
-1.865429550208836
 30
0.0
 10
-13.150355346178332
 20
-1.915759852470851
 30
0.0
 10
-13.20655226516424
 20
-1.9537217135951361
 30
0.0
 10
-13.18611413393549
 20
-2.2003732767930346
 30
0.0
 10
-13.125357239190901
 20
-2.440296828319539
 30
0.0
 10
-13.059879028126499
 20
-2.4579547013322767
 30
0.0
 10
-12.970491938460809
 20
-2.480481634395473
 30
0.0
 10
-12.883943210176895
 20
-2.500777488296287
 30
0.0
 10
-12.800281308350584
 20
-2.5189424853579077
 30
0.0
 10
-12.719552156625236
 20
-2.5350778261002143
 30
0.0
 10
-12.641799118344265
 20
-2.5492856325495454
 30
0.0
 10
-12.567062978928643
 20
-2.561668891184331
 30
0.0
 10
-12.49538192928842
 20
-2.5723313955814735
 30
0.0
 10
-12.426791550610291
 20
-2.5813776887219158
 30
0.0
 10
-12.361324800228934
 20
-2.58891300503727
 30
0.0
 10
-12.29901199873288
 20
-2.5950432121943487
 30
0.0
 10
-12.239880818300117
 20
-2.5998747526431316
 30
0.0
 10
-12.18395627219189
 20
-2.603514584961833
 30
0.0
 10
-12.13126070559942
 20
-2.6060701251333453
 30
0.0
 10
-12.081813817800407
 20
-2.6076501196896893
 30
0.0
 10
-12.035632491854592
 20
-2.608359923566365
 30
0.0
 10
-11.99273113053649
 20
-2.6083107692872325
 30
0.0
 10
-11.953121349350239
 20
-2.6076103768932954
 30
0.0
 10
-11.916811949330473
 20
-2.606367560368336
 30
0.0
 10
-11.862682925468803
 20
-2.603618159297443
 30
0.0
 10
-11.82939592904368
 20
-2.603375440572924
 30
0.0
 10
-11.799364471460347
 20
-2.6048916002536804
 30
0.0
 10
-11.772636724844386
 20
-2.608058595894116
 30
0.0
 10
-11.749258173244181
 20
-2.6127672682183967
 30
0.0
 10
-11.729271626415615
 20
-2.6189085988978498
 30
0.0
 10
-11.712717013376846
 20
-2.6263679469079975
 30
0.0
 10
-11.69963173165164
 20
-2.635036702494739
 30
0.0
 10
-11.690050258769762
 20
-2.6448007725349436
 30
0.0
 10
-11.684004318758252
 20
-2.655546421662123
 30
0.0
 10
-11.639281699816253
 20
-2.8452812780276426
 30
0.0
 10
-11.590646944623009
 20
-3.0373355830274216
 30
0.0
 10
-11.53967550380997
 20
-3.2254880227849307
 30
0.0
 10
-11.539878385663147
 20
-3.237816088518517
 30
0.0
 10
-11.543657855876985
 20
-3.250963608867594
 30
0.0
 10
-11.551040145466366
 20
-3.264815458564847
 30
0.0
 10
-11.56204865269943
 20
-3.2792558842460533
 30
0.0
 10
-11.576703929751686
 20
-3.294168566706088
 30
0.0
 10
-11.595023670646178
 20
-3.3094366834208984
 30
0.0
 10
-11.617022700482991
 20
-3.3249429713089516
 30
0.0
 10
-11.642712965964074
 20
-3.340569789707144
 30
0.0
 10
-11.672103527216823
 20
-3.3561991835356393
 30
0.0
 10
-11.721017163762276
 20
-3.379543730535982
 30
0.0
 10
-11.753541818880743
 20
-3.395732057850613
 30
0.0
 10
-11.788710963029665
 20
-3.413968269876951
 30
0.0
 10
-11.826464971533833
 20
-3.434343826556248
 30
0.0
 10
-11.866741925250935
 20
-3.456948762910547
 30
0.0
 10
-11.90947764160849
 20
-3.481871638291972
 30
0.0
 10
-11.954605706685776
 20
-3.509199486269989
 30
0.0
 10
-12.00205750833428
 20
-3.5390177651801573
 30
0.0
 10
-12.051762270321797
 20
-3.5714103093569323
 30
0.0
 10
-12.103647087725253
 20
-3.6064592807026146
 30
0.0
 10
-12.157636961866821
 20
-3.644245123146371
 30
0.0
 10
-12.213654839862997
 20
-3.6848465124283614
 30
0.0
 10
-12.271621650313095
 20
-3.7283403138771325
 30
0.0
 10
-12.33145634353758
 20
-3.7748015355269047
 30
0.0
 10
-12.39307593133242
 20
-3.8243032842242273
 30
0.0
 10
-12.456395527869772
 20
-3.8769167221794714
 30
0.0
 10
-12.5213283915061
 20
-3.932711024356734
 30
0.0
 10
-12.58778596747852
 20
-3.9917533367181983
 30
0.0
 10
-12.6556779314717
 20
-4.054108735340031
 30
0.0
 10
-12.704860080751805
 20
-4.100802555013697
 30
0.0
 10
-12.644103186007236
 20
-4.340726106540201
 30
0.0
 10
-12.544684817454065
 20
-4.5673771573436825
 30
0.0
 10
-12.477193253470345
 20
-4.574016840661385
 30
0.0
 10
-12.385317475882498
 20
-4.581523904319353
 30
0.0
 10
-12.296608571687328
 20
-4.587297496755423
 30
0.0
 10
-12.211097848907968
 20
-4.59144445048022
 30
0.0
 10
-12.128813947791038
 20
-4.594072144553704
 30
0.0
 10
-12.04978283152738
 20
-4.595288445562622
 30
0.0
 10
-11.974027778260767
 20
-4.595201648443723
 30
0.0
 10
-11.901569374165748
 20
-4.593920417182001
 30
0.0
 10
-11.832425507938892
 20
-4.591553725399244
 30
0.0
 10
-11.766611366401634
 20
-4.588210796865577
 30
0.0
 10
-11.704139431363958
 20
-4.584001045955675
 30
0.0
 10
-11.645019477739964
 20
-4.579034018074033
 30
0.0
 10
-11.589258572839261
 20
-4.573419330070755
 30
0.0
 10
-11.536861077004088
 20
-4.567266610812327
 30
0.0
 10
-11.487828521748801
 20
-4.560686366064355
 30
0.0
 10
-11.44216021901776
 20
-4.553785292718641
 30
0.0
 10
-11.399852066878717
 20
-4.546675476851169
 30
0.0
 10
-11.360897792279468
 20
-4.539465081191132
 30
0.0
 10
-11.325288166026919
 20
-4.532262884244089
 30
0.0
 10
-11.272349928041587
 20
-4.5206416369154185
 30
0.0
 10
-11.239556873050354
 20
-4.514923369019673
 30
0.0
 10
-11.209685453723921
 20
-4.511475834802089
 30
0.0
 10
-11.182800968384926
 20
-4.5102003942464775
 30
0.0
 10
-11.158966247764901
 20
-4.510996863295559
 30
0.0
 10
-11.138241461577593
 20
-4.513764756742797
 30
0.0
 10
-11.120684863553853
 20
-4.518397569218249
 30
0.0
 10
-11.106351217741944
 20
-4.524794327693399
 30
0.0
 10
-11.095293310553917
 20
-4.532848169941491
 30
0.0
 10
-11.08756115356848
 20
-4.542452133401428
 30
0.0
 10
-11.012219161911812
 20
-4.72223815248601
 30
0.0
 10
-10.93263662174564
 20
-4.903668069485261
 30
0.0
 10
-10.85139149121677
 20
-5.08086473178624
 30
0.0
 10
-10.849562473097532
 20
-5.0930580520271524
 30
0.0
 10
-10.85112638553876
 20
-5.106648337686505
 30
0.0
 10
-10.856128050794691
 20
-5.1215263511387255
 30
0.0
 10
-10.864609600389135
 20
-5.137581768972959
 30
0.0
 10
-10.87661045170463
 20
-5.154703241203336
 30
0.0
 10
-10.892167285796287
 20
-5.172778450953239
 30
0.0
 10
-10.911314026438014
 20
-5.191694174588001
 30
0.0
 10
-10.934081820411055
 20
-5.211336342272343
 30
0.0
 10
-10.960499019042516
 20
-5.231590098927929
 30
0.0
 10
-11.004903151190847
 20
-5.262667176700872
 30
0.0
 10
-11.034319701304538
 20
-5.2839880986140875
 30
0.0
 10
-11.06600760232008
 20
-5.307764243349231
 30
0.0
 10
-11.099892988953558
 20
-5.3340760095541775
 30
0.0
 10
-11.135899967281492
 20
-5.3630020127347615
 30
0.0
 10
-11.173950653707754
 20
-5.394619040304753
 30
0.0
 10
-11.213965214856234
 20
-5.4290020074370995
 30
0.0
 10
-11.255861908378964
 20
-5.4662239137385775
 30
0.0
 10
-11.299557124661366
 20
-5.506355800767648
 30
0.0
 10
-11.344965429703848
 20
-5.549466710089413
 30
0.0
 10
-11.391999607077231
 20
-5.595623644106046
 30
0.0
 10
-11.440570705197697
 20
-5.644891523035368
 30
0.0
 10
-11.490588079478142
 20
-5.697333149138232
 30
0.0
 10
-11.54195943973436
 20
-5.753009167098241
 30
0.0
 10
-11.594590896621801
 20
-5.811978027270406
 30
0.0
 10
-11.648387009129811
 20
-5.874295949557245
 30
0.0
 10
-11.703250832832948
 20
-5.940016888261232
 30
0.0
 10
-11.759083968877729
 20
-6.009192497926228
 30
0.0
 10
-11.815786613684656
 20
-6.081872100181867
 30
0.0
 10
-11.856612432434904
 20
-6.136024192725923
 30
0.0
 10
-11.757194063881744
 20
-6.362675243529408
 30
0.0
 10
-11.621826095449766
 20
-6.569871343779136
 30
0.0
 10
-11.554162172474822
 20
-6.56531172414926
 30
0.0
 10
-11.462303838675142
 20
-6.557594145274865
 30
0.0
 10
-11.373854506228303
 20
-6.548687987695165
 30
0.0
 10
-11.2888274721035
 20
-6.53870377999583
 30
0.0
 10
-11.207233311919335
 20
-6.527752150756053
 30
0.0
 10
-11.129079880505921
 20
-6.515943768803694
 30
0.0
 10
-11.054372313762745
 20
-6.503389283530251
 30
0.0
 10
-10.983113031591678
 20
-6.490199265258563
 30
0.0
 10
-10.915301742242157
 20
-6.476484145734935
 30
0.0
 10
-10.850935447765474
 20
-6.4623541587282824
 30
0.0
 10
-10.790008450721817
 20
-6.447919280782219
 30
0.0
 10
-10.73251236212724
 20
-6.433289172142688
 30
0.0
 10
-10.67843611056192
 20
-6.418573117869761
 30
0.0
 10
-10.627765952580356
 20
-6.40387996932382
 30
0.0
 10
-10.580485210157823
 20
-6.389318977194841
 30
0.0
 10
-10.536575642891679
 20
-6.374995269917852
 30
0.0
 10
-10.49601475603293
 20
-6.361018729704999
 30
0.0
 10
-10.458778559085532
 20
-6.347495011576369
 30
0.0
 10
-10.424840044377003
 20
-6.334529891365231
 30
0.0
 10
-10.374536609400561
 20
-6.314353795111578
 30
0.0
 10
-10.34313200489827
 20
-6.303315957486389
 30
0.0
 10
-10.314235438278981
 20
-6.294998769116869
 30
0.0
 10
-10.287927552894379
 20
-6.289315683058744
 30
0.0
 10
-10.264286812300563
 20
-6.286178223233207
 30
0.0
 10
-10.24338910489622
 20
-6.285497178530348
 30
0.0
 10
-10.22530942011496
 20
-6.287177084423615
 30
0.0
 10
-10.21011839470907
 20
-6.291127358891075
 30
0.0
 10
-10.197885684097173
 20
-6.297251285525328
 30
0.0
 10
-10.18867822322414
 20
-6.305451592230499
 30
0.0
 10
-10.084771991983283
 20
-6.470384680100691
 30
0.0
 10
-9.97641247108372
 20
-6.636241273916168
 30
0.0
 10
-9.867109806209594
 20
-6.7976486957302695
 30
0.0
 10
-9.863298778964342
 20
-6.80937466848795
 30
0.0
 10
-9.86260447417838
 20
-6.823037011892025
 30
0.0
 10
-9.865089082711044
 20
-6.8385353556763215
 30
0.0
 10
-9.870812320103685
 20
-6.855767815718415
 30
0.0
 10
-9.879831393742416
 20
-6.874631048589037
 30
0.0
 10
-9.892200971150858
 20
-6.89502030677061
 30
0.0
 10
-9.907973149424619
 20
-6.916829494520936
 30
0.0
 10
-9.927197425821243
 20
-6.939951224360308
 30
0.0
 10
-9.949920669517246
 20
-6.9642768741590215
 30
0.0
 10
-9.98860406829638
 20
-7.002238781034817
 30
0.0
 10
-10.01411010660142
 20
-7.028110718376319
 30
0.0
 10
-10.04145240114807
 20
-7.056778244571677
 30
0.0
 10
-10.070544860896108
 20
-7.0883085039098574
 30
0.0
 10
-10.101299687329275
 20
-7.122766547954423
 30
0.0
 10
-10.133627420289272
 20
-7.160215297620311
 30
0.0
 10
-10.16743698459099
 20
-7.200715506193323
 30
0.0
 10
-10.202635737405178
 20
-7.244325723312474
 30
0.0
 10
-10.239129516387209
 20
-7.291102259931708
 30
0.0
 10
-10.276822688877772
 20
-7.341099154005011
 30
0.0
 10
-10.315618199733175
 20
-7.394368138756693
 30
0.0
 10
-10.355417625036605
 20
-7.450958608027931
 30
0.0
 10
-10.396121219562591
 20
-7.510917587929918
 30
0.0
 10
-10.437627970057894
 20
-7.574289705566763
 30
0.0
 10
-10.479835647094015
 20
-7.641117160428618
 30
0.0
 10
-10.52264085785947
 20
-7.711439696577767
 30
0.0
 10
-10.565939099538102
 20
-7.785294575922333
 30
0.0
 10
-10.609624813250065
 20
-7.862716552586557
 30
0.0
 10
-10.653591438533175
 20
-7.94373784838805
 30
0.0
 10
-10.68494730484301
 20
-8.003871085881856
 30
0.0
 10
-10.549579336411052
 20
-8.211067186131583
 30
0.0
 10
-10.381954253401146
 20
-8.393156566332673
 30
0.0
 10
-10.315963666867054
 20
-8.37752201829268
 30
0.0
 10
-10.22662843274479
 20
-8.35479031231939
 30
0.0
 10
-10.140851339265229
 20
-8.331447341486074
 30
0.0
 10
-10.058627309636972
 20
-8.307604315521756
 30
0.0
 10
-9.979948566375295
 20
-8.283372094865614
 30
0.0
 10
-9.904804641690294
 20
-8.258861131829484
 30
0.0
 10
-9.833182389143214
 20
-8.234181412032658
 30
0.0
 10
-9.765065996354643
 20
-8.209442396065644
 30
0.0
 10
-9.700436999085072
 20
-8.184752961509101
 30
0.0
 10
-9.63927429639188
 20
-8.160221345240878
 30
0.0
 10
-9.58155416699677
 20
-8.135955086100102
 30
0.0
 10
-9.52725028684735
 20
-8.112060967928521
 30
0.0
 10
-9.47633374779385
 20
-8.08864496298462
 30
0.0
 10
-9.428773077488385
 20
-8.065812175941321
 30
0.0
 10
-9.384533843300197
 20
-8.043667622338937
 30
0.0
 10
-9.34358075003027
 20
-8.022311994526072
 30
0.0
 10
-9.305873523710984
 20
-8.001849973550723
 30
0.0
 10
-9.27137111080064
 20
-7.982381824730346
 30
0.0
 10
-9.240029461846278
 20
-7.964007435936931
 30
0.0
 10
-9.193732976453614
 20
-7.935826842068939
 30
0.0
 10
-9.164573458185389
 20
-7.919770518151227
 30
0.0
 10
-9.137439967282894
 20
-7.906810546847198
 30
0.0
 10
-9.112426292386434
 20
-7.896874835059524
 30
0.0
 10
-9.08962438959542
 20
-7.889889028084662
 30
0.0
 10
-9.069123795955774
 20
-7.88577762235585
 30
0.0
 10
-9.051014191087607
 20
-7.884458798213351
 30
0.0
 10
-9.035380157660763
 20
-7.885854835483248
 30
0.0
 10
-9.022306320082187
 20
-7.889881801748962
 30
0.0
 10
-9.01187471085212
 20
-7.896454768709054
 30
0.0
 10
-8.882238531151993
 20
-8.042035980676228
 30
0.0
 10
-8.748057794776988
 20
-8.187795115784517
 30
0.0
 10
-8.613679087324593
 20
-8.329010523402399
 30
0.0
 10
-8.607990005841968
 20
-8.339949294707349
 30
0.0
 10
-8.60505642265346
 20
-8.353311022743151
 30
0.0
 10
-8.604956200818979
 20
-8.369006942442255
 30
0.0
 10
-8.607765011013107
 20
-8.386946388103931
 30
0.0
 10
-8.613556290157183
 20
-8.407036841794866
 30
0.0
 10
-8.622401201055792
 20
-8.429183982595745
 30
0.0
 10
-8.634368593053278
 20
-8.453291736672117
 30
0.0
 10
-8.649524963727334
 20
-8.479262328150352
 30
0.0
 10
-8.667934421634929
 20
-8.506996330777922
 30
0.0
 10
-8.699841904766267
 20
-8.550807564896301
 30
0.0
 10
-8.720741693026971
 20
-8.580524798658521
 30
0.0
 10
-8.742992554585538
 20
-8.613301730930147
 30
0.0
 10
-8.766498520984591
 20
-8.649190420120066
 30
0.0
 10
-8.791162284029744
 20
-8.688240579412495
 30
0.0
 10
-8.81688524724044
 20
-8.730499546905
 30
0.0
 10
-8.8435675779162
 20
-8.776012256804966
 30
0.0
 10
-8.871108259801371
 20
-8.824821211702133
 30
0.0
 10
-8.899405146324582
 20
-8.876966455929889
 30
0.0
 10
-8.928355014776455
 20
-8.932485549816587
 30
0.0
 10
-8.957853618710091
 20
-8.991413546261173
 30
0.0
 10
-8.987795746623569
 20
-9.05378296539295
 30
0.0
 10
-9.018075273442777
 20
-9.11962377442373
 30
0.0
 10
-9.04858521822368
 20
-9.188963365567055
 30
0.0
 10
-9.079217800006138
 20
-9.261826536356145
 30
0.0
 10
-9.109864494464206
 20
-9.338235470898622
 30
0.0
 10
-9.140416090955437
 20
-9.418209722300551
 30
0.0
 10
-9.170762749944673
 20
-9.501766196264631
 30
0.0
 10
-9.200794060778682
 20
-9.58891913586927
 30
0.0
 10
-9.221824668353827
 20
-9.653393240349654
 30
0.0
 10
-9.05419958534393
 20
-9.835482620550744
 30
0.0
 10
-8.858889763054618
 20
-9.987498357082895
 30
0.0
 10
-8.796372564137407
 20
-9.96121535034709
 30
0.0
 10
-8.711997261999839
 20
-9.92408957895672
 30
0.0
 10
-8.63123218299349
 20
-9.88694653026354
 30
0.0
 10
-8.554054015047985
 20
-9.849895061628416
 30
0.0
 10
-8.480436839724801
 20
-9.813043241366723
 30
0.0
 10
-8.410352152148024
 20
-9.776498292423135
 30
0.0
 10
-8.343768882141251
 20
-9.740366536523753
 30
0.0
 10
-8.280653416364261
 20
-9.704753338727192
 30
0.0
 10
-8.220969621744935
 20
-9.669763052551884
 30
0.0
 10
-8.164678869925437
 20
-9.635498965564736
 30
0.0
 10
-8.111740062843625
 20
-9.602063245521196
 30
0.0
 10
-8.062109659430188
 20
-9.569556887073967
 30
0.0
 10
-8.015741703344375
 20
-9.538079659032993
 30
0.0
 10
-7.972587851819529
 20
-9.507730052402241
 30
0.0
 10
-7.932596856851262
 20
-9.478605983022184
 30
0.0
 10
-7.89571733120521
 20
-9.450800960530213
 30
0.0
 10
-7.861892320263969
 20
-9.424411609384066
 30
0.0
 10
-7.8310648272738
 20
-9.399530070222088
 30
0.0
 10
-7.803174962555494
 20
-9.376247618274219
 30
0.0
 10
-7.762148274182192
 20
-9.34083121993128
 30
0.0
 10
-7.736029237793201
 20
-9.320194384381805
 30
0.0
 10
-7.711398953507586
 20
-9.302945144376322
 30
0.0
 10
-7.688361796944662
 20
-9.289027827176199
 30
0.0
 10
-7.667020708424462
 20
-9.278384227655646
 30
0.0
 10
-7.647476431302943
 20
-9.270954609331529
 30
0.0
 10
-7.629830889160457
 20
-9.266673029237952
 30
0.0
 10
-7.614180303389658
 20
-9.265476749052759
 30
0.0
 10
-7.6006219590525985
 20
-9.267296909807726
 30
0.0
 10
-7.589250748572118
 20
-9.272063243618515
 30
0.0
 10
-7.437420757458639
 20
-9.394321503722102
 30
0.0
 10
-7.2810789063134305
 20
-9.516007250883156
 30
0.0
 10
-7.125289657122923
 20
-9.633178656106097
 30
0.0
 10
-7.117877704715443
 20
-9.643031844792365
 30
0.0
 10
-7.11278486362649
 20
-9.655728484350506
 30
0.0
 10
-7.110102545215248
 20
-9.671193836191234
 30
0.0
 10
-7.109920311190794
 20
-9.689350926159484
 30
0.0
 10
-7.112325824841898
 20
-9.710120585465948
 30
0.0
 10
-7.117404803118321
 20
-9.733421492618374
 30
0.0
 10
-7.125240969582503
 20
-9.759170216333809
 30
0.0
 10
-7.135916008251711
 20
-9.787281259415659
 30
0.0
 10
-7.1495095183490545
 20
-9.817667103577556
 30
0.0
 10
-7.173770732869373
 20
-9.866132608679136
 30
0.0
 10
-7.189494179343673
 20
-9.898884530192086
 30
0.0
 10
-7.206046662414508
 20
-9.934876799270697
 30
0.0
 10
-7.22332495397669
 20
-9.974144968426085
 30
0.0
 10
-7.241224890471588
 20
-10.016722056417048
 30
0.0
 10
-7.2596414285513555
 20
-10.062638527263877
 30
0.0
 10
-7.27846870117597
 20
-10.111922270407511
 30
0.0
 10
-7.297600074123497
 20
-10.164598582028548
 30
0.0
 10
-7.316928202888016
 20
-10.220690147534798
 30
0.0
 10
-7.336345090356504
 20
-10.280217025081136
 30
0.0
 10
-7.355742142350183
 20
-10.34319663108944
 30
0.0
 10
-7.37501022967753
 20
-10.40964372491278
 30
0.0
 10
-7.39403974223117
 20
-10.479570397436172
 30
0.0
 10
-7.412720649537535
 20
-10.552986058794417
 30
0.0
 10
-7.430942559088485
 20
-10.629897428151722
 30
0.0
 10
-7.448594775304325
 20
-10.71030852453644
 30
0.0
 10
-7.4655663586979415
 20
-10.7942206588948
 30
0.0
 10
-7.48174618521506
 20
-10.881632427364467
 30
0.0
 10
-7.497023005726198
 20
-10.972539705770595
 30
0.0
 10
-7.507154694414709
 20
-11.03959599173878
 30
0.0
 10
-7.311844872125399
 20
-11.191611728270939
 30
0.0
 10
-7.094177853374019
 20
-11.309407228117
 30
0.0
 10
-7.036839348289979
 20
-11.273192694594451
 30
0.0
 10
-6.959725516429422
 20
-11.222685552050866
 30
0.0
 10
-6.886175512712726
 20
-11.17275559104147
 30
0.0
 10
-6.816148425683062
 20
-11.123506347213935
 30
0.0
 10
-6.749600902935533
 20
-11.075040148937905
 30
0.0
 10
-6.686487180046931
 20
-11.027458065028467
 30
0.0
 10
-6.626759110616617
 20
-10.98085985313901
 30
0.0
 10
-6.570366197227869
 20
-10.935343908712113
 30
0.0
 10
-6.517255623591957
 20
-10.891007214712035
 30
0.0
 10
-6.467372287616752
 20
-10.847945291979162
 30
0.0
 10
-6.420658835504259
 20
-10.806252150315224
 30
0.0
 10
-6.377055696855117
 20
-10.76602024031304
 30
0.0
 10
-6.336501120706773
 20
-10.727340405900938
 30
0.0
 10
-6.298931212538448
 20
-10.690301837836104
 30
0.0
 10
-6.264279306884096
 20
-10.65499268137028
 30
0.0
 10
-6.232479326183795
 20
-10.621496712730494
 30
0.0
 10
-6.203459188743856
 20
-10.589899864120916
 30
0.0
 10
-6.177147509321354
 20
-10.560283638144341
 30
0.0
 10
-6.15347019164517
 20
-10.532728207638336
 30
0.0
 10
-6.118832401401458
 20
-10.491042071843586
 30
0.0
 10
-6.096466306117146
 20
-10.466387643739925
 30
0.0
 10
-6.075011078397364
 20
-10.44531964933492
 30
0.0
 10
-6.054578833745626
 20
-10.427800354855831
 30
0.0
 10
-6.035280688759007
 20
-10.413789292438715
 30
0.0
 10
-6.017225845087362
 20
-10.403244122139604
 30
0.0
 10
-6.00052569006171
 20
-10.396116576438656
 30
0.0
 10
-5.985285459128749
 20
-10.392360610203356
 30
0.0
 10
-5.971612444322756
 20
-10.391924316206985
 30
0.0
 10
-5.959611809571235
 20
-10.394754003707016
 30
0.0
 10
-5.789729533410735
 20
-10.490354425314887
 30
0.0
 10
-5.615491165641773
 20
-10.584647514557224
 30
0.0
 10
-5.442540899318805
 20
-10.674578786893795
 30
0.0
 10
-5.433608254726629
 20
-10.683077623659369
 30
0.0
 10
-5.426495075166092
 20
-10.694762843510368
 30
0.0
 10
-5.421303826832067
 20
-10.70957577300967
 30
0.0
 10
-5.418135519458166
 20
-10.727455229202164
 30
0.0
 10
-5.417089651474606
 20
-10.748337551960736
 30
0.0
 10
-5.418264155841368
 20
-10.772156637458522
 30
0.0
 10
-5.421755346578466
 20
-10.798843972751978
 30
0.0
 10
-5.42765786601568
 20
-10.828328671462192
 30
0.0
 10
-5.4360646327829505
 20
-10.86053751053966
 30
0.0
 10
-5.452017796004403
 20
-10.91233527398541
 30
0.0
 10
-5.462136006060445
 20
-10.947228496208107
 30
0.0
 10
-5.472538602054478
 20
-10.985454326818077
 30
0.0
 10
-5.483117912027119
 20
-11.027030842648855
 30
0.0
 10
-5.493765758365833
 20
-11.071973467368142
 30
0.0
 10
-5.504373516164187
 20
-11.120294959939903
 30
0.0
 10
-5.514832171819492
 20
-11.172005404287377
 30
0.0
 10
-5.525032381847135
 20
-11.227112200168154
 30
0.0
 10
-5.534864531884934
 20
-11.285620055265689
 30
0.0
 10
-5.5442187962959455
 20
-11.34753097842719
 30
0.0
 10
-5.552985195335623
 20
-11.412844274522886
 30
0.0
 10
-5.561053658882703
 20
-11.481556539532937
 30
0.0
 10
-5.568314081674547
 20
-11.553661658207732
 30
0.0
 10
-5.57465638505255
 20
-11.629150801919387
 30
0.0
 10
-5.579970576180416
 20
-11.708012428181819
 30
0.0
 10
-5.58414680771155
 20
-11.790232281315486
 30
0.0
 10
-5.58707543745419
 20
-11.875793394347587
 30
0.0
 10
-5.588647088009465
 20
-11.964676092144465
 30
0.0
 10
-5.588752706357887
 20
-12.056857995774749
 30
0.0
 10
-5.587709110103672
 20
-12.124667342552211
 30
0.0
 10
-5.3700420913523015
 20
-12.242462842398282
 30
0.0
 10
-5.135955264994831
 20
-12.322824951392406
 30
0.0
 10
-5.085359498692324
 20
-12.277666729153367
 30
0.0
 10
-5.01761060142118
 20
-12.215155918642864
 30
0.0
 10
-4.953281925364979
 20
-12.153801004495893
 30
0.0
 10
-4.892316075638333
 20
-12.093697376464368
 30
0.0
 10
-4.834653448410566
 20
-12.03493883172102
 30
0.0
 10
-4.780232268045342
 20
-11.977617528057548
 30
0.0
 10
-4.728988625226091
 20
-11.921823937925884
 30
0.0
 10
-4.6808565158974735
 20
-11.867646803181405
 30
0.0
 10
-4.635767881244836
 20
-11.815173090791745
 30
0.0
 10
-4.5936526484831735
 20
-11.764487949311246
 30
0.0
 10
-4.554438772540747
 20
-11.715674666245594
 30
0.0
 10
-4.518052278613351
 20
-11.66881462631655
 30
0.0
 10
-4.484417305521911
 20
-11.623987270585282
 30
0.0
 10
-4.453456149867498
 20
-11.581270056670832
 30
0.0
 10
-4.425088547182534
 20
-11.540738954863526
 30
0.0
 10
-4.399235532005126
 20
-11.502465722782949
 30
0.0
 10
-4.375811861765997
 20
-11.466523256373168
 30
0.0
 10
-4.354733709936379
 20
-11.432980197022902
 30
0.0
 10
-4.3359147948063645
 20
-11.401903428271316
 30
0.0
 10
-4.308610731316111
 20
-11.355084644141588
 30
0.0
 10
-4.290607665911774
 20
-11.327085132013112
 30
0.0
 10
-4.272912737440417
 20
-11.302773063175794
 30
0.0
 10
-4.255642743071078
 20
-11.282129672101734
 30
0.0
 10
-4.238913944706765
 20
-11.265133332046679
 30
0.0
 10
-4.222841023554891
 20
-11.251760254529128
 30
0.0
 10
-4.207541792341116
 20
-11.241981164087408
 30
0.0
 10
-4.193127630017531
 20
-11.235767964769826
 30
0.0
 10
-4.179712908943621
 20
-11.233087116985004
 30
0.0
 10
-4.16741019595376
 20
-11.23390297167572
 30
0.0
 10
-3.9841095803898554
 20
-11.300237824498117
 30
0.0
 10
-3.7967274644643525
 20
-11.364566186150938
 30
0.0
 10
-3.6113338134265183
 20
-11.424804234925132
 30
0.0
 10
-3.6011241359084543
 20
-11.431716893657855
 30
0.0
 10
-3.5921846468720697
 20
-11.442071951465275
 30
0.0
 10
-3.5846260723372376
 20
-11.455828400520836
 30
0.0
 10
-3.578558114779891
 20
-11.472942517980904
 30
0.0
 10
-3.574089393713882
 20
-11.493367888862885
 30
0.0
 10
-3.571327386753565
 20
-11.517055430145371
 30
0.0
 10
-3.5703783711811243
 20
-11.543953416078736
 30
0.0
 10
-3.571347366042816
 20
-11.57400750469737
 30
0.0
 10
-3.5743380747974105
 20
-11.607160765522558
 30
0.0
 10
-3.581548026014107
 20
-11.66087787935237
 30
0.0
 10
-3.5857850012577672
 20
-11.696960606142417
 30
0.0
 10
-3.5897539544738244
 20
-11.736377297272014
 30
0.0
 10
-3.593345706859072
 20
-11.779128060808203
 30
0.0
 10
-3.596451017550347
 20
-11.82521030461015
 30
0.0
 10
-3.598960643086909
 20
-11.874618734554215
 30
0.0
 10
-3.60076539691031
 20
-11.927345353982796
 30
0.0
 10
-3.6017562088784754
 20
-11.983379464384385
 30
0.0
 10
-3.6018241847670267
 20
-12.042707667304736
 30
0.0
 10
-3.600860666172176
 20
-12.10531386748729
 30
0.0
 10
-3.5987572877443457
 20
-12.17117927721194
 30
0.0
 10
-3.595406040858511
 20
-12.240282421938735
 30
0.0
 10
-3.5906993284813074
 20
-12.312599147091504
 30
0.0
 10
-3.584530026427945
 20
-12.388102626101624
 30
0.0
 10
-3.5767915418518212
 20
-12.46676336968166
 30
0.0
 10
-3.567377871988705
 20
-12.548549236301946
 30
0.0
 10
-3.5561836626953562
 20
-12.633425443885452
 30
0.0
 10
-3.543104266758629
 20
-12.721354582713541
 30
0.0
 10
-3.528035801951116
 20
-12.812296629537236
 30
0.0
 10
-3.515845387339543
 20
-12.879009374909659
 30
0.0
 10
-3.281758560982088
 20
-12.95937148390379
 30
0.0
 10
-3.037637205422744
 20
-13.000108133201005
 30
0.0
 10
-2.9951642985131848
 20
-12.947238020829456
 30
0.0
 10
-2.938628349140814
 20
-12.874428674309241
 30
0.0
 10
-2.8852757193355787
 20
-12.803322409142298
 30
0.0
 10
-2.8350340963663845
 20
-12.734003867201016
 30
0.0
 10
-2.787829250813902
 20
-12.666555755918855
 30
0.0
 10
-2.7435850809069926
 20
-12.601058808239804
 30
0.0
 10
-2.702223657692704
 20
-12.537591743561691
 30
0.0
 10
-2.6636652708956583
 20
-12.476231229506212
 30
0.0
 10
-2.627828475642319
 20
-12.417051844812196
 30
0.0
 10
-2.5946301398577205
 20
-12.360126043117356
 30
0.0
 10
-2.5639854923981242
 20
-12.305524117765291
 30
0.0
 10
-2.5358081718943035
 20
-12.253314167643643
 30
0.0
 10
-2.510010276245872
 20
-12.203562064001364
 30
0.0
 10
-2.4865024127219133
 20
-12.156331418477418
 30
0.0
 10
-2.4651929072587615
 20
-12.111683954129235
 30
0.0
 10
-2.445992060464505
 20
-12.069677452608156
 30
0.0
 10
-2.428803794089359
 20
-12.030369785186817
 30
0.0
 10
-2.413534126887897
 20
-11.9938148596817
 30
0.0
 10
-2.4000869452515463
 20
-11.96006444592499
 30
0.0
 10
-2.3808613921903827
 20
-11.909390107843883
 30
0.0
 10
-2.3677124333597646
 20
-11.878809265392174
 30
0.0
 10
-2.3542604756582937
 20
-11.85191629198359
 30
0.0
 10
-2.340623811998235
 20
-11.828711902209758
 30
0.0
 10
-2.326920678266884
 20
-11.809193900367315
 30
0.0
 10
-2.3132681070248258
 20
-11.793357698324991
 30
0.0
 10
-2.29978712276832
 20
-11.78119381123756
 30
0.0
 10
-2.28659220982738
 20
-11.772692858718479
 30
0.0
 10
-2.2738017011068825
 20
-11.767840583684327
 30
0.0
 10
-2.2615324958182663
 20
-11.766620351176542
 30
0.0
 10
-2.0698135038144967
 20
-11.80188019335052
 30
0.0
 10
-1.874398935386181
 20
-11.834489117399466
 30
0.0
 10
-1.681618955148614
 20
-11.863390805669594
 30
0.0
 10
-1.670410738092712
 20
-11.868528727059196
 30
0.0
 10
-1.6598887855378834
 20
-11.877271163839671
 30
0.0
 10
-1.6501690630118226
 20
-11.88959589238164
 30
0.0
 10
-1.6413669733352092
 20
-11.905477842598149
 30
0.0
 10
-1.6335972942483457
 20
-11.924889110730845
 30
0.0
 10
-1.6269741163108111
 20
-11.947798973420658
 30
0.0
 10
-1.6216107810997502
 20
-11.974173903055483
 30
0.0
 10
-1.617619819732074
 20
-12.003977584390183
 30
0.0
 10
-1.615112891735362
 20
-12.037170932431875
 30
0.0
 10
-1.6133829622730511
 20
-12.091342133810539
 30
0.0
 10
-1.6116231290646537
 20
-12.127630122441754
 30
0.0
 10
-1.6090501768052896
 20
-12.167162489508607
 30
0.0
 10
-1.6055563979610752
 20
-12.209921371363864
 30
0.0
 10
-1.6010344682241926
 20
-12.255886230765
 30
0.0
 10
-1.5953775054564314
 20
-12.305033864910659
 30
0.0
 10
-1.5884791284682664
 20
-12.357338414690371
 30
0.0
 10
-1.5802335156093181
 20
-12.41277137515104
 30
0.0
 10
-1.5705354631435824
 20
-12.471301607175626
 30
0.0
 10
-1.5592804438184322
 20
-12.532895350440432
 30
0.0
 10
-1.5463646626035066
 20
-12.597516237115057
 30
0.0
 10
-1.5316851185637532
 20
-12.665125307908903
 30
0.0
 10
-1.5151396578616683
 20
-12.73568102779311
 30
0.0
 10
-1.4966270328547884
 20
-12.809139304017183
 30
0.0
 10
-1.476046958261187
 20
-12.88545350488321
 30
0.0
 10
-1.4533001673780794
 20
-12.964574479748562
 30
0.0
 10
-1.4282884678971395
 20
-13.046450580196353
 30
0.0
 10
-1.400914797294122
 20
-13.131027682362582
 30
0.0
 10
-1.3710832777700683
 20
-13.21824921041056
 30
0.0
 10
-1.3480785675337033
 20
-13.282045604591344
 30
0.0
 10
-1.1039572119743608
 20
-13.32278225388857
 30
0.0
 10
-0.8564603214159189
 20
-13.322782253888546
 30
0.0
 10
-0.8232688240811957
 20
-13.263642410227884
 30
0.0
 10
-0.7794879759282561
 20
-13.182520576871228
 30
0.0
 10
-0.7385667130351473
 20
-13.10360255423787
 30
0.0
 10
-0.7004197773278683
 20
-13.026959927511038
 30
0.0
 10
-0.664960338583494
 20
-12.952662058341737
 30
0.0
 10
-0.6321000447540156
 20
-12.88077605264199
 30
0.0
 10
-0.601749072948793
 20
-12.811366729495557
 30
0.0
 10
-0.5738161809609296
 20
-12.744496590997588
 30
0.0
 10
-0.5482087594618467
 20
-12.68022579334453
 30
0.0
 10
-0.5248328847129135
 20
-12.618612118911093
 30
0.0
 10
-0.5035933718342113
 20
-12.559710949459623
 30
0.0
 10
-0.4843938286045172
 20
-12.503575240483508
 30
0.0
 10
-0.46713670974228794
 20
-12.450255496623523
 30
0.0
 10
-0.45172337158529186
 20
-12.399799748378872
 30
0.0
 10
-0.43805323110325267
 20
-12.352253787929978
 30
0.0
 10
-0.4260283017398222
 20
-12.307659844827114
 30
0.0
 10
-0.41554429032890716
 20
-12.266059187094028
 30
0.0
 10
-0.4064996244718044
 20
-12.227489518510264
 30
0.0
 10
-0.39879098038997157
 20
-12.191986083054948
 30
0.0
 10
-0.3881683607281314
 20
-12.138838454867175
 30
0.0
 10
-0.3802321777913526
 20
-12.10651044775601
 30
0.0
 10
-0.37139012519922837
 20
-12.077770139985997
 30
0.0
 10
-0.3617587648849668
 20
-12.05263770677609
 30
0.0
 10
-0.3514550815533651
 20
-12.03113044335689
 30
0.0
 10
-0.34059526677500934
 20
-12.013263087099608
 30
0.0
 10
-0.32930025558398784
 20
-11.999046202497325
 30
0.0
 10
-0.3176845148541508
 20
-11.988489380601136
 30
0.0
 10
-0.30586711022259266
 20
-11.981598035731649
 30
0.0
 10
-0.2939660845720637
 20
-11.978375000787265
 30
0.0
 10
-0.09905831045618012
 20
-11.98159803573387
 30
0.0
 10
0.09905831045598608
 20
-11.981598035736003
 30
0.0
 10
0.2939660845723066
 20
-11.978375000787134
 30
0.0
 10
0.30586711022240337
 20
-11.98159803573167
 30
0.0
 10
0.31768451485866317
 20
-11.98848938059966
 30
0.0
 10
0.3293002566828676
 20
-11.999046202161582
 30
0.0
 10
0.3405963804177053
 20
-12.013262766933778
 30
0.0
 10
0.3514550809339752
 20
-12.031130443523928
 30
0.0
 10
0.36175876681992764
 20
-12.052637706288445
 30
0.0
 10
0.37139012386622267
 20
-12.077770140298604
 30
0.0
 10
0.3802321784408164
 20
-12.10651044761496
 30
0.0
 10
0.38816836072815825
 20
-12.138838454867182
 30
0.0
 10
0.3987909829033341
 20
-12.191986094634867
 30
0.0
 10
0.4064996209014075
 20
-12.227489503373118
 30
0.0
 10
0.41554429520574265
 20
-12.266059206456832
 30
0.0
 10
0.42602830410015124
 20
-12.30765985579823
 30
0.0
 10
0.4380541278097597
 20
-12.352253529255538
 30
0.0
 10
0.45172337168414145
 20
-12.399799748261614
 30
0.0
 10
0.4671367097423613
 20
-12.450255496622258
 30
0.0
 10
0.48439382860434
 20
-12.503575240483583
 30
0.0
 10
0.5035933718340339
 20
-12.559710949459696
 30
0.0
 10
0.5248328843019396
 20
-12.618612119053399
 30
0.0
 10
0.5482087594613457
 20
-12.680225793343595
 30
0.0
 10
0.5738161809603287
 20
-12.74449659099693
 30
0.0
 10
0.6017490729501386
 20
-12.811366729499166
 30
0.0
 10
0.6321000447591606
 20
-12.880776052653232
 30
0.0
 10
0.6649603385835764
 20
-12.952662058341906
 30
0.0
 10
0.7004197773278421
 20
-13.026959927510978
 30
0.0
 10
0.7385667130351677
 20
-13.103602554237906
 30
0.0
 10
0.7794879759282587
 20
-13.182520576871227
 30
0.0
 10
0.823268824081205
 20
-13.263642410227897
 30
0.0
 10
0.8564603214159222
 20
-13.32278225388857
 30
0.0
 10
1.1039572119743504
 20
-13.322782253888574
 30
0.0
 10
1.3480785675336924
 20
-13.282045604591325
 30
0.0
 10
1.3710832777700646
 20
-13.21824921041055
 30
0.0
 10
1.4009147972941136
 20
-13.131027682362582
 30
0.0
 10
1.428288467897143
 20
-13.046450580196318
 30
0.0
 10
1.4533001673780526
 20
-12.964574479748626
 30
0.0
 10
1.4760469582612297
 20
-12.885453504883035
 30
0.0
 10
1.496627032858002
 20
-12.809139304005246
 30
0.0
 10
1.5151396578623906
 20
-12.735681027789328
 30
0.0
 10
1.5316851185632576
 20
-12.665125307909651
 30
0.0
 10
1.546364662603155
 20
-12.597516237116062
 30
0.0
 10
1.5592804433896295
 20
-12.532895350367712
 30
0.0
 10
1.570535463143384
 20
-12.471301607175583
 30
0.0
 10
1.58023351560912
 20
-12.412771375150996
 30
0.0
 10
1.5884791284685364
 20
-12.35733841469161
 30
0.0
 10
1.5953775055732213
 20
-12.305033865010044
 30
0.0
 10
1.601035395277195
 20
-12.25588633831842
 30
0.0
 10
1.6055563984834156
 20
-12.209921360153885
 30
0.0
 10
1.6090501784285882
 20
-12.167162469607188
 30
0.0
 10
1.6116231280344342
 20
-12.12763013796012
 30
0.0
 10
1.6133829628461318
 20
-12.09134212197487
 30
0.0
 10
1.6151128917353768
 20
-12.037170932431867
 30
0.0
 10
1.6176198203958858
 20
-12.003977584422415
 30
0.0
 10
1.6216107797334616
 20
-11.974173902966548
 30
0.0
 10
1.626974118299635
 20
-11.94779897358317
 30
0.0
 10
1.633597293609899
 20
-11.924889110668033
 30
0.0
 10
1.641368124486823
 20
-11.905477975097773
 30
0.0
 10
1.6501690641509665
 20
-11.889595892531936
 30
0.0
 10
1.6598887855425668
 20
-11.877271163840387
 30
0.0
 10
1.6704107380925113
 20
-11.868528727059207
 30
0.0
 10
1.681618955148865
 20
-11.863390805669685
 30
0.0
 10
1.874398935385628
 20
-11.834489117397395
 30
0.0
 10
2.069813503814647
 20
-11.801880193352657
 30
0.0
 10
2.2615324958184746
 20
-11.766620351176373
 30
0.0
 10
2.2738017011066898
 20
-11.767840583684382
 30
0.0
 10
2.2865922098315785
 20
-11.772692858716283
 30
0.0
 10
2.2997871237969414
 20
-11.781193810725528
 30
0.0
 10
2.313269152781314
 20
-11.793357199226245
 30
0.0
 10
2.3269206776834253
 20
-11.809193900634027
 30
0.0
 10
2.3406238138265314
 20
-11.82871190141028
 30
0.0
 10
2.354260474394912
 20
-11.85191629251134
 30
0.0
 10
2.367712433977144
 20
-11.87880926514615
 30
0.0
 10
2.3808613921904005
 20
-11.909390107843887
 30
0.0
 10
2.400086949636612
 20
-11.960064456933289
 30
0.0
 10
2.4135341208746928
 20
-11.993814845338676
 30
0.0
 10
2.428803802086683
 20
-12.030369803482838
 30
0.0
 10
2.4459920645984177
 20
-12.069677463041145
 30
0.0
 10
2.465193749158937
 20
-12.111683551389739
 30
0.0
 10
2.4865024128001054
 20
-12.156331418345493
 30
0.0
 10
2.5100102762457253
 20
-12.203562064000105
 30
0.0
 10
2.5358081718941303
 20
-12.253314167643747
 30
0.0
 10
2.5639854923979506
 20
-12.305524117765396
 30
0.0
 10
2.5946301394757643
 20
-12.360126043325367
 30
0.0
 10
2.6278284756416608
 20
-12.417051844811361
 30
0.0
 10
2.663665270894947
 20
-12.476231229505663
 30
0.0
 10
2.702223657694615
 20
-12.53759174356503
 30
0.0
 10
2.743585080913907
 20
-12.601058808250048
 30
0.0
 10
2.787829250814
 20
-12.66655575591901
 30
0.0
 10
2.8350340963663383
 20
-12.734003867200965
 30
0.0
 10
2.885275719335594
 20
-12.803322409142332
 30
0.0
 10
2.9386283491408056
 20
-12.874428674309241
 30
0.0
 10
2.995164298513185
 20
-12.947238020829468
 30
0.0
 10
3.0376372054227363
 20
-13.00010813320101
 30
0.0
 10
3.281758560982068
 20
-12.95937148390379
 30
0.0
 10
3.515845387339533
 20
-12.879009374909652
 30
0.0
 10
3.52803580195111
 20
-12.812296629537228
 30
0.0
 10
3.543104266758621
 20
-12.721354582713545
 30
0.0
 10
3.5561836626953536
 20
-12.633425443885416
 30
0.0
 10
3.567377871988689
 20
-12.548549236302016
 30
0.0
 10
3.5767915418518337
 20
-12.466763369681477
 30
0.0
 10
3.584530026429151
 20
-12.388102626089323
 30
0.0
 10
3.590699328481397
 20
-12.312599147087655
 30
0.0
 10
3.595406040858146
 20
-12.240282421939554
 30
0.0
 10
3.5987572877441645
 20
-12.171179277212987
 30
0.0
 10
3.6008606657372533
 20
-12.105313867486142
 30
0.0
 10
3.6018241847668246
 20
-12.042707667304729
 30
0.0
 10
3.601756208878273
 20
-11.983379464384374
 30
0.0
 10
3.60076539691078
 20
-11.927345353983972
 30
0.0
 10
3.598960643218465
 20
-11.874618734633023
 30
0.0
 10
3.5964519496622662
 20
-11.825210258108774
 30
0.0
 10
3.5933457055291873
 20
-11.77912804966514
 30
0.0
 10
3.5897539527993185
 20
-11.736377277374839
 30
0.0
 10
3.585785002795838
 20
-11.6969606216187
 30
0.0
 10
3.581548024631285
 20
-11.660877867583796
 30
0.0
 10
3.5743380747974243
 20
-11.607160765522545
 30
0.0
 10
3.5713473667028794
 20
-11.574007504619903
 30
0.0
 10
3.5703783698188314
 20
-11.5439534162159
 30
0.0
 10
3.571327388742013
 20
-11.517055429978319
 30
0.0
 10
3.5740893930738054
 20
-11.493367888906016
 30
0.0
 10
3.578559272040019
 20
-11.472942459200079
 30
0.0
 10
3.584626073485584
 20
-11.455828400481584
 30
0.0
 10
3.592184646876807
 20
-11.442071951465211
 30
0.0
 10
3.6011241359082584
 20
-11.4317168936579
 30
0.0
 10
3.6113338134267803
 20
-11.424804234925181
 30
0.0
 10
3.796727464463467
 20
-11.364566186148988
 30
0.0
 10
3.9841095803903546
 20
-11.3002378245002
 30
0.0
 10
4.167410195953938
 20
-11.233902971675521
 30
0.0
 10
4.17971290894344
 20
-11.233087116985091
 30
0.0
 10
4.19312763002131
 20
-11.23576796476697
 30
0.0
 10
4.207541793271431
 20
-11.241981163413053
 30
0.0
 10
4.222841972899669
 20
-11.251759590111579
 30
0.0
 10
4.238913944175164
 20
-11.265133332405789
 30
0.0
 10
4.2556427447428495
 20
-11.282129671012234
 30
0.0
 10
4.27291273628113
 20
-11.302773063904292
 30
0.0
 10
4.2906076664802395
 20
-11.327085131668827
 30
0.0
 10
4.308610731316128
 20
-11.35508464414159
 30
0.0
 10
4.33591480094353
 20
-11.401903438407718
 30
0.0
 10
4.354733701644403
 20
-11.432980183865237
 30
0.0
 10
4.3758118726656745
 20
-11.46652327310334
 30
0.0
 10
4.399235537799871
 20
-11.502465732393226
 30
0.0
 10
4.425089311311546
 20
-11.540738419044656
 30
0.0
 10
4.45345614992291
 20
-11.581270056527838
 30
0.0
 10
4.48441730552156
 20
-11.623987270584067
 30
0.0
 10
4.518052278613198
 20
-11.668814626316681
 30
0.0
 10
4.554438772540593
 20
-11.715674666245725
 30
0.0
 10
4.593652648140664
 20
-11.764487949579287
 30
0.0
 10
4.635767881244049
 20
-11.81517309079103
 30
0.0
 10
4.680856515896682
 20
-11.867646803180984
 30
0.0
 10
4.728988625228525
 20
-11.921823937928867
 30
0.0
 10
4.780232268053849
 20
-11.977617528066517
 30
0.0
 10
4.834653448410688
 20
-12.034938831721156
 30
0.0
 10
4.892316075638279
 20
-12.093697376464325
 30
0.0
 10
4.953281925364999
 20
-12.153801004495923
 30
0.0
 10
5.017610601421172
 20
-12.215155918642868
 30
0.0
 10
5.085359498692326
 20
-12.277666729153381
 30
0.0
 10
5.1359552649948235
 20
-12.322824951392413
 30
0.0
 10
5.370042091352292
 20
-12.242462842398277
 30
0.0
 10
5.587709110103662
 20
-12.124667342552204
 30
0.0
 10
5.58875270635788
 20
-12.05685799577474
 30
0.0
 10
5.588647088009459
 20
-11.96467609214447
 30
0.0
 10
5.587075437454181
 20
-11.875793394347554
 30
0.0
 10
5.584146807711544
 20
-11.790232281315554
 30
0.0
 10
5.579970576180398
 20
-11.708012428181638
 30
0.0
 10
5.574656385051713
 20
-11.629150801907056
 30
0.0
 10
5.568314081674003
 20
-11.553661658203923
 30
0.0
 10
5.561053658882478
 20
-11.481556539533807
 30
0.0
 10
5.552985195335616
 20
-11.41284427452395
 30
0.0
 10
5.544218795866765
 20
-11.347530978497645
 30
0.0
 10
5.534864531884733
 20
-11.285620055265714
 30
0.0
 10
5.525032381846933
 20
-11.227112200168177
 30
0.0
 10
5.51483217182015
 20
-11.17200540428846
 30
0.0
 10
5.50437351630692
 20
-11.120294959995984
 30
0.0
 10
5.493766670111085
 20
-11.071973268080406
 30
0.0
 10
5.483117908881283
 20
-11.02703083187666
 30
0.0
 10
5.472538597127842
 20
-10.98545430746789
 30
0.0
 10
5.462136010124851
 20
-10.947228511220157
 30
0.0
 10
5.452017792703399
 20
-10.912335262604952
 30
0.0
 10
5.436064632782963
 20
-10.860537510539647
 30
0.0
 10
5.42765786665399
 20
-10.828328671277136
 30
0.0
 10
5.4217553452573295
 20
-10.798843973111495
 30
0.0
 10
5.418264157775201
 20
-10.77215663696646
 30
0.0
 10
5.417089650850358
 20
-10.748337552108632
 30
0.0
 10
5.4181366512597675
 20
-10.727454980744273
 30
0.0
 10
5.42130382795829
 20
-10.709575772781943
 30
0.0
 10
5.426495075170754
 20
-10.694762843509523
 30
0.0
 10
5.433608254726443
 20
-10.683077623659443
 30
0.0
 10
5.442540899319072
 20
-10.6745787868938
 30
0.0
 10
5.615491165640579
 20
-10.584647514555446
 30
0.0
 10
5.78972953341157
 20
-10.490354425316863
 30
0.0
 10
5.959611809571377
 20
-10.39475400370679
 30
0.0
 10
5.971612444322592
 20
-10.3919243162071
 30
0.0
 10
5.985285459132008
 20
-10.392360610199917
 30
0.0
 10
6.000525690868341
 20
-10.396116575620375
 30
0.0
 10
6.017226672124781
 20
-10.403243310526829
 30
0.0
 10
6.0352806882937635
 20
-10.413789292880422
 30
0.0
 10
6.054578835215271
 20
-10.427800353506024
 30
0.0
 10
6.075011077373796
 20
-10.445319650244295
 30
0.0
 10
6.096466306621191
 20
-10.466387643306767
 30
0.0
 10
6.118832401401476
 20
-10.491042071843584
 30
0.0
 10
6.153470199367031
 20
-10.532728216626348
 30
0.0
 10
6.177147498976789
 20
-10.560283626530946
 30
0.0
 10
6.203459202248571
 20
-10.58989987882888
 30
0.0
 10
6.232479333481307
 20
-10.621496721255916
 30
0.0
 10
6.264279972398496
 20
-10.65499202708778
 30
0.0
 10
6.298931212569568
 20
-10.69030183768594
 30
0.0
 10
6.336501120706226
 20
-10.727340405899795
 30
0.0
 10
6.377055696854988
 20
-10.766020240313196
 30
0.0
 10
6.4206588355041285
 20
-10.806252150315379
 30
0.0
 10
6.467372287323032
 20
-10.847945292299924
 30
0.0
 10
6.517255623591065
 20
-10.89100721471146
 30
0.0
 10
6.570366197227017
 20
-10.935343908711827
 30
0.0
 10
6.626759110619509
 20
-10.980859853141549
 30
0.0
 10
6.686487180056797
 20
-11.027458065035914
 30
0.0
 10
6.749600902935676
 20
-11.075040148938019
 30
0.0
 10
6.816148425683002
 20
-11.123506347213903
 30
0.0
 10
6.886175512712751
 20
-11.172755591041497
 30
0.0
 10
6.9597255164294145
 20
-11.222685552050871
 30
0.0
 10
7.036839348289982
 20
-11.273192694594462
 30
0.0
 10
7.094177853374014
 20
-11.309407228117006
 30
0.0
 10
7.311844872125378
 20
-11.191611728270942
 30
0.0
 10
7.507154694414683
 20
-11.03959599173878
 30
0.0
 10
7.49702300572618
 20
-10.972539705770593
 30
0.0
 10
7.481746185215045
 20
-10.881632427364481
 30
0.0
 10
7.465566358697919
 20
-10.794220658894774
 30
0.0
 10
7.448594775304323
 20
-10.710308524536517
 30
0.0
 10
7.4309425590884315
 20
-10.629897428151553
 30
0.0
 10
7.412720649534672
 20
-10.552986058782396
 30
0.0
 10
7.394039742229999
 20
-10.47957039743251
 30
0.0
 10
7.375010229677443
 20
-10.409643724913682
 30
0.0
 10
7.355742142350345
 20
-10.343196631090496
 30
0.0
 10
7.336345089944766
 20
-10.280217025221274
 30
0.0
 10
7.316928202887815
 20
-10.220690147534864
 30
0.0
 10
7.297600074123294
 20
-10.16459858202861
 30
0.0
 10
7.27846870117679
 20
-10.11192227040848
 30
0.0
 10
7.259641428701365
 20
-10.062638527295706
 30
0.0
 10
7.241225756980132
 20
-10.016721709779004
 30
0.0
 10
7.223324949100707
 20
-9.974144958318604
 30
0.0
 10
7.206046654370122
 20
-9.934876780995323
 30
0.0
 10
7.18949418582354
 20
-9.89888454433042
 30
0.0
 10
7.173770727740219
 20
-9.866132597997225
 30
0.0
 10
7.149509518349055
 20
-9.817667103577548
 30
0.0
 10
7.13591600885085
 20
-9.787281259128074
 30
0.0
 10
7.125240968338552
 20
-9.759170216905881
 30
0.0
 10
7.117404804944781
 20
-9.733421491814731
 30
0.0
 10
7.1123258242505
 20
-9.710120585714582
 30
0.0
 10
7.109921386661265
 20
-9.689350494801822
 30
0.0
 10
7.110102546288622
 20
-9.67119383578125
 30
0.0
 10
7.112784863630941
 20
-9.655728484348911
 30
0.0
 10
7.117877704715265
 20
-9.643031844792477
 30
0.0
 10
7.12528965712318
 20
-9.633178656106063
 30
0.0
 10
7.2810789063119525
 20
-9.516007250881607
 30
0.0
 10
7.4374207574597815
 20
-9.394321503723917
 30
0.0
 10
7.589250748572214
 20
-9.272063243618277
 30
0.0
 10
7.6006219590524475
 20
-9.267296909807875
 30
0.0
 10
7.614180303392297
 20
-9.265476749048837
 30
0.0
 10
7.629830889821395
 20
-9.26667302829807
 30
0.0
 10
7.64747711347357
 20
-9.270953672662218
 30
0.0
 10
7.66702070803826
 20
-9.278384228167916
 30
0.0
 10
7.6883617981720835
 20
-9.289027825602913
 30
0.0
 10
7.71139895264765
 20
-9.302945145441775
 30
0.0
 10
7.736029238219069
 20
-9.320194383871602
 30
0.0
 10
7.762148274182203
 20
-9.340831219931284
 30
0.0
 10
7.803174971651409
 20
-9.376247625868677
 30
0.0
 10
7.831064815158812
 20
-9.399530060469749
 30
0.0
 10
7.861892336005343
 20
-9.42441162166864
 30
0.0
 10
7.895717339806425
 20
-9.450800967738235
 30
0.0
 10
7.932597405597547
 20
-9.478605228123183
 30
0.0
 10
7.972587851825499
 20
-9.507730052249011
 30
0.0
 10
8.01574170334364
 20
-9.538079659031963
 30
0.0
 10
8.062109659430078
 20
-9.569556887074151
 30
0.0
 10
8.111740062843513
 20
-9.602063245521377
 30
0.0
 10
8.16467886968851
 20
-9.635498965929475
 30
0.0
 10
8.220969621743949
 20
-9.669763052551472
 30
0.0
 10
8.280653416363368
 20
-9.704753338727057
 30
0.0
 10
8.343768882144513
 20
-9.74036653652579
 30
0.0
 10
8.410352152158971
 20
-9.776498292428862
 30
0.0
 10
8.480436839724952
 20
-9.81304324136682
 30
0.0
 10
8.55405401504791
 20
-9.8498950616284
 30
0.0
 10
8.631232182993507
 20
-9.886946530263572
 30
0.0
 10
8.711997261999823
 20
-9.924089578956734
 30
0.0
 10
8.796372564137403
 20
-9.96121535034711
 30
0.0
 10
8.858889763054606
 20
-9.987498357082913
 30
0.0
 10
9.054199585343905
 20
-9.835482620550763
 30
0.0
 10
9.221824668353806
 20
-9.653393240349669
 30
0.0
 10
9.20079406077866
 20
-9.588919135869274
 30
0.0
 10
9.17076274994466
 20
-9.501766196264649
 30
0.0
 10
9.140416090955409
 20
-9.418209722300533
 30
0.0
 10
9.109864494464215
 20
-9.338235470898702
 30
0.0
 10
9.079217800006052
 20
-9.261826536355988
 30
0.0
 10
9.048585218218875
 20
-9.188963365555674
 30
0.0
 10
9.018075273441017
 20
-9.119623774420312
 30
0.0
 10
8.987795746623629
 20
-9.053782965393854
 30
0.0
 10
8.957853618710422
 20
-8.99141354626219
 30
0.0
 10
8.928355014393397
 20
-8.932485550022587
 30
0.0
 10
8.899405146324394
 20
-8.87696645592999
 30
0.0
 10
8.87110825980118
 20
-8.82482121170223
 30
0.0
 10
8.843567577917165
 20
-8.776012256805789
 30
0.0
 10
8.816885247393639
 20
-8.730499546911705
 30
0.0
 10
8.791163081665491
 20
-8.688240094879529
 30
0.0
 10
8.766498514511472
 20
-8.649190410953
 30
0.0
 10
8.742992543642837
 20
-8.61330171422809
 30
0.0
 10
8.72074170174555
 20
-8.580524811537474
 30
0.0
 10
8.699841897948883
 20
-8.550807555204312
 30
0.0
 10
8.667934421634925
 20
-8.506996330777914
 30
0.0
 10
8.649524964270963
 20
-8.479262327768073
 30
0.0
 10
8.634368591920449
 20
-8.453291737441136
 30
0.0
 10
8.622401202725063
 20
-8.42918398150244
 30
0.0
 10
8.613556289614772
 20
-8.407036842137451
 30
0.0
 10
8.607766000816424
 20
-8.386945785612804
 30
0.0
 10
8.604956201810229
 20
-8.369006941861194
 30
0.0
 10
8.605056422657587
 20
-8.353311022740849
 30
0.0
 10
8.607990005841808
 20
-8.339949294707491
 30
0.0
 10
8.61367908732484
 20
-8.329010523402326
 30
0.0
 10
8.748057794775272
 20
-8.187795115783233
 30
0.0
 10
8.882238531153416
 20
-8.042035980677833
 30
0.0
 10
9.011874710852174
 20
-7.896454768708804
 30
0.0
 10
9.02230632008206
 20
-7.889881801749134
 30
0.0
 10
9.035380157662718
 20
-7.885854835478945
 30
0.0
 10
9.051014191584828
 20
-7.884458797177502
 30
0.0
 10
9.069124314651777
 20
-7.885776586179892
 30
0.0
 10
9.089624389298798
 20
-7.889889028653511
 30
0.0
 10
9.112426293338158
 20
-7.896874833305669
 30
0.0
 10
9.13743996661005
 20
-7.906810548039661
 30
0.0
 10
9.164573458521469
 20
-7.919770517577884
 30
0.0
 10
9.193732976453623
 20
-7.9358268420689395
 30
0.0
 10
9.240029472068139
 20
-7.964007441930672
 30
0.0
 10
9.271371097245702
 20
-7.98238181710508
 30
0.0
 10
9.305873541259636
 20
-8.001849983076808
 30
0.0
 10
9.343580759700576
 20
-8.022312000220074
 30
0.0
 10
9.384534260310003
 20
-8.043666787415106
 30
0.0
 10
9.428773077469053
 20
-8.0658121757892
 30
0.0
 10
9.476333747792953
 20
-8.088644962983727
 30
0.0
 10
9.52725028684727
 20
-8.112060967928722
 30
0.0
 10
9.581554166996689
 20
-8.135955086100301
 30
0.0
 10
9.639274296218218
 20
-8.160221345639641
 30
0.0
 10
9.700436999084031
 20
-8.184752961508856
 30
0.0
 10
9.765065996353739
 20
-8.20944239606566
 30
0.0
 10
9.833182389146769
 20
-8.234181412034133
 30
0.0
 10
9.904804641702034
 20
-8.258861131833331
 30
0.0
 10
9.97994856637546
 20
-8.283372094865687
 30
0.0
 10
10.058627309636895
 20
-8.307604315521756
 30
0.0
 10
10.140851339265256
 20
-8.331447341486104
 30
0.0
 10
10.226628432744775
 20
-8.354790312319405
 30
0.0
 10
10.315963666867052
 20
-8.377522018292701
 30
0.0
 10
10.381954253401144
 20
-8.393156566332703
 30
0.0
 10
10.549579336411059
 20
-8.2110671861316
 30
0.0
 10
10.684947304843009
 20
-8.003871085881851
 30
0.0
 10
10.65359143853317
 20
-7.943737848388035
 30
0.0
 10
10.609624813250065
 20
-7.862716552586554
 30
0.0
 10
10.565939099538085
 20
-7.785294575922296
 30
0.0
 10
10.522640857859503
 20
-7.711439696577821
 30
0.0
 10
10.479835647093921
 20
-7.641117160428457
 30
0.0
 10
10.437627970051297
 20
-7.574289705556304
 30
0.0
 10
10.396121219560305
 20
-7.510917587926816
 30
0.0
 10
10.355417625036827
 20
-7.450958608028793
 30
0.0
 10
10.31561819973368
 20
-7.394368138757622
 30
0.0
 10
10.276822688533857
 20
-7.341099154271229
 30
0.0
 10
10.239129516387049
 20
-7.291102259931816
 30
0.0
 10
10.202635737405016
 20
-7.2443257233125795
 30
0.0
 10
10.16743698459209
 20
-7.200715506193951
 30
0.0
 10
10.1336274204415
 20
-7.160215297601688
 30
0.0
 10
10.101300394334817
 20
-7.122765938743302
 30
0.0
 10
10.070544853002435
 20
-7.088308495933236
 30
0.0
 10
10.041452387605556
 20
-7.0567782298985025
 30
0.0
 10
10.014110117320909
 20
-7.028110729644569
 30
0.0
 10
9.98860405997674
 20
-7.002238772597098
 30
0.0
 10
9.949920669517255
 20
-6.964276874158995
 30
0.0
 10
9.92719742629455
 20
-6.939951223893744
 30
0.0
 10
9.907973148433829
 20
-6.916829495465904
 30
0.0
 10
9.892200972617422
 20
-6.895020305417442
 30
0.0
 10
9.879831393263801
 20
-6.874631049016206
 30
0.0
 10
9.870813197240604
 20
-6.85576705852819
 30
0.0
 10
9.865089083593148
 20
-6.838535354940009
 30
0.0
 10
9.862604474182083
 20
-6.8230370118890535
 30
0.0
 10
9.863298778964218
 20
-6.809374668488096
 30
0.0
 10
9.867109806209838
 20
-6.797648695730136
 30
0.0
 10
9.976412471081828
 20
-6.636241273915163
 30
0.0
 10
10.084771991984962
 20
-6.470384680102018
 30
0.0
 10
10.188678223224164
 20
-6.305451592230222
 30
0.0
 10
10.197885684097088
 20
-6.297251285525498
 30
0.0
 10
10.210118394710303
 20
-6.29112735888649
 30
0.0
 10
10.225309420434916
 20
-6.287177083320034
 30
0.0
 10
10.24338944596894
 20
-6.285496071111903
 30
0.0
 10
10.264286812101627
 20
-6.2861782238431
 30
0.0
 10
10.287927553544458
 20
-6.28931568117214
 30
0.0
 10
10.314235437811599
 20
-6.2949987704037955
 30
0.0
 10
10.343132005135407
 20
-6.30331595686553
 30
0.0
 10
10.37453660940058
 20
-6.3143537951115585
 30
0.0
 10
10.424840055446001
 20
-6.334529895594742
 30
0.0
 10
10.458778544460397
 20
-6.347495006286149
 30
0.0
 10
10.496014774910195
 20
-6.361018736212723
 30
0.0
 10
10.536575653367304
 20
-6.374995273942493
 30
0.0
 10
10.580485484056222
 20
-6.389318085020702
 30
0.0
 10
10.627765952536258
 20
-6.403879969176933
 30
0.0
 10
10.6784361105609
 20
-6.4185731178690055
 30
0.0
 10
10.732512362127204
 20
-6.433289172142876
 30
0.0
 10
10.790008450721782
 20
-6.447919280782407
 30
0.0
 10
10.850935447659825
 20
-6.462354159150169
 30
0.0
 10
10.9153017422411
 20
-6.476484145734843
 30
0.0
 10
10.983113031590799
 20
-6.490199265258705
 30
0.0
 10
11.054372313766503
 20
-6.5033892835310985
 30
0.0
 10
11.129079880518148
 20
-6.515943768805534
 30
0.0
 10
11.20723331191952
 20
-6.527752150756074
 30
0.0
 10
11.288827472103437
 20
-6.538703779995817
 30
0.0
 10
11.373854506228342
 20
-6.548687987695166
 30
0.0
 10
11.462303838675142
 20
-6.557594145274861
 30
0.0
 10
11.554162172474838
 20
-6.565311724149257
 30
0.0
 10
11.621826095449771
 20
-6.569871343779137
 30
0.0
 10
11.757194063881734
 20
-6.362675243529409
 30
0.0
 10
11.856612432434886
 20
-6.136024192725922
 30
0.0
 10
11.815786613684645
 20
-6.0818721001818625
 30
0.0
 10
11.759083968877725
 20
-6.009192497926236
 30
0.0
 10
11.70325083283292
 20
-5.9400168882612085
 30
0.0
 10
11.648387009129852
 20
-5.874295949557303
 30
0.0
 10
11.594590896621677
 20
-5.811978027270273
 30
0.0
 10
11.541959439726126
 20
-5.753009167089021
 30
0.0
 10
11.490588079475371
 20
-5.6973331491355585
 30
0.0
 10
11.440570705198052
 20
-5.6448915230361925
 30
0.0
 10
11.39199960707788
 20
-5.595623644106888
 30
0.0
 10
11.344965429408438
 20
-5.549466710408617
 30
0.0
 10
11.299557124661224
 20
-5.50635580076779
 30
0.0
 10
11.25586190837882
 20
-5.466223913738719
 30
0.0
 10
11.213965214857417
 20
-5.42900200743755
 30
0.0
 10
11.173950653854837
 20
-5.394619040261339
 30
0.0
 10
11.135900564371543
 20
-5.363001295463209
 30
0.0
 10
11.099892979854632
 20
-5.334076002985613
 30
0.0
 10
11.06600758654714
 20
-5.307764231105215
 30
0.0
 10
11.034319713732517
 20
-5.283988107964293
 30
0.0
 10
11.004903141595868
 20
-5.26266716974761
 30
0.0
 10
10.960499019042514
 20
-5.23159009892791
 30
0.0
 10
10.93408182080111
 20
-5.21133634173425
 30
0.0
 10
10.911314025616273
 20
-5.1916941756831685
 30
0.0
 10
10.892167287020122
 20
-5.172778449377149
 30
0.0
 10
10.87661045130285
 20
-5.154703241703467
 30
0.0
 10
10.864610340933632
 20
-5.13758087773784
 30
0.0
 10
10.856128051543566
 20
-5.121526350267276
 30
0.0
 10
10.851126385541919
 20
-5.106648337682975
 30
0.0
 10
10.84956247309743
 20
-5.093058052027325
 30
0.0
 10
10.851391491216983
 20
-5.080864731786078
 30
0.0
 10
10.932636621743605
 20
-4.90366806948459
 30
0.0
 10
11.012219161913682
 20
-4.722238152487053
 30
0.0
 10
11.087561153568453
 20
-4.542452133401161
 30
0.0
 10
11.095293310553858
 20
-4.5328481699416825
 30
0.0
 10
11.106351217742404
 20
-4.524794327688682
 30
0.0
 10
11.1206848636878
 20
-4.518397568077066
 30
0.0
 10
11.138241615723441
 20
-4.513763608289381
 30
0.0
 10
11.15896624766906
 20
-4.510996863929887
 30
0.0
 10
11.182800968715615
 20
-4.510200392278615
 30
0.0
 10
11.209685453474732
 20
-4.511475836148401
 30
0.0
 10
11.239556873182067
 20
-4.51492336836826
 30
0.0
 10
11.2723499280416
 20
-4.520641636915405
 30
0.0
 10
11.325288177641102
 20
-4.532262886594028
 30
0.0
 10
11.360897776983057
 20
-4.539465078380292
 30
0.0
 10
11.399852086569654
 20
-4.546675480163052
 30
0.0
 10
11.442160230012943
 20
-4.553785294964171
 30
0.0
 10
11.487828645064544
 20
-4.5606854409761235
 30
0.0
 10
11.536861076936415
 20
-4.567266610674712
 30
0.0
 10
11.589258572838126
 20
-4.573419330070188
 30
0.0
 10
11.645019477739957
 20
-4.579034018074235
 30
0.0
 10
11.704139431363947
 20
-4.584001045955876
 30
0.0
 10
11.766611366366865
 20
-4.5882107972991095
 30
0.0
 10
11.832425507937831
 20
-4.591553725399337
 30
0.0
 10
11.9015693741649
 20
-4.5939204171822965
 30
0.0
 10
11.974027778264611
 20
-4.59520164844395
 30
0.0
 10
12.04978283153974
 20
-4.595288445562436
 30
0.0
 10
12.12881394779122
 20
-4.594072144553706
 30
0.0
 10
12.2110978489079
 20
-4.59144445048023
 30
0.0
 10
12.296608571687363
 20
-4.587297496755427
 30
0.0
 10
12.385317475882495
 20
-4.5815239043193605
 30
0.0
 10
12.477193253470354
 20
-4.5740168406613915
 30
0.0
 10
12.544684817454064
 20
-4.567377157343689
 30
0.0
 10
12.64410318600723
 20
-4.3407261065402185
 30
0.0
 10
12.704860080751802
 20
-4.100802555013711
 30
0.0
 10
12.655677931471683
 20
-4.054108735340036
 30
0.0
 10
12.587785967478517
 20
-3.991753336718213
 30
0.0
 10
12.521328391506065
 20
-3.9327110243567223
 30
0.0
 10
12.456395527869816
 20
-3.8769167221795278
 30
0.0
 10
12.393075931332271
 20
-3.824303284224123
 30
0.0
 10
12.331456343527938
 20
-3.7748015355191726
 30
0.0
 10
12.27162165030992
 20
-3.728340313874958
 30
0.0
 10
12.21365483986348
 20
-3.6848465124291216
 30
0.0
 10
12.157636961867595
 20
-3.6442451231471016
 30
0.0
 10
12.103647087486408
 20
-3.606459281066095
 30
0.0
 10
12.051762270321676
 20
-3.5714103093571024
 30
0.0
 10
12.00205750833416
 20
-3.5390177651803265
 30
0.0
 10
11.954605706687015
 20
-3.5091994862702443
 30
0.0
 10
11.909477641746417
 20
-3.4818716382249475
 30
0.0
 10
11.866742396138438
 20
-3.456947957143857
 30
0.0
 10
11.826464961477852
 20
-3.4343438215749105
 30
0.0
 10
11.788710945456545
 20
-3.413968260396074
 30
0.0
 10
11.75354183267821
 20
-3.3957320650277216
 30
0.0
 10
11.721017153153689
 20
-3.3795437252568408
 30
0.0
 10
11.672103527216816
 20
-3.356199183535627
 30
0.0
 10
11.64271296626024
 20
-3.3405697891121955
 30
0.0
 10
11.617022699852713
 20
-3.3249429725244424
 30
0.0
 10
11.595023671593902
 20
-3.309436681664872
 30
0.0
 10
11.576703929437702
 20
-3.294168567265534
 30
0.0
 10
11.562049236451383
 20
-3.2792548832766073
 30
0.0
 10
11.551040146061592
 20
-3.2648154575820274
 30
0.0
 10
11.543657855879516
 20
-3.2509636088635965
 30
0.0
 10
11.539878385663075
 20
-3.23781608851871
 30
0.0
 10
11.539675503810154
 20
-3.2254880227847433
 30
0.0
 10
11.59064694462089
 20
-3.0373355830271014
 30
0.0
 10
11.63928169981827
 20
-2.8452812780283696
 30
0.0
 10
11.684004318758179
 20
-2.655546421661871
 30
0.0
 10
11.690050258769732
 20
-2.644800772535148
 30
0.0
 10
11.699631731651314
 20
-2.6350367024900185
 30
0.0
 10
11.71271701332113
 20
-2.6263679457603386
 30
0.0
 10
11.72927158942989
 20
-2.6189074407362747
 30
0.0
 10
11.749258173254054
 20
-2.612767268859854
 30
0.0
 10
11.772636724846661
 20
-2.6080585938986696
 30
0.0
 10
11.79936447143615
 20
-2.604891601622652
 30
0.0
 10
11.829395929066372
 20
-2.603375439908723
 30
0.0
 10
11.862682925468812
 20
-2.603618159297434
 30
0.0
 10
11.916811961173039
 20
-2.6063675607745993
 30
0.0
 10
11.9531213337998
 20
-2.6076103766385055
 30
0.0
 10
11.992731150503984
 20
-2.6083107693129297
 30
0.0
 10
12.035632503069417
 20
-2.6083599239715265
 30
0.0
 10
12.081813787169764
 20
-2.6076491869213574
 30
0.0
 10
12.131260705510016
 20
-2.6060701250087526
 30
0.0
 10
12.183956272190677
 20
-2.603514584961467
 30
0.0
 10
12.239880818300142
 20
-2.5998747526433386
 30
0.0
 10
12.299011998732903
 20
-2.5950432121945552
 30
0.0
 10
12.361324800265992
 20
-2.5889130054706184
 30
0.0
 10
12.426791550609257
 20
-2.5813776887221893
 30
0.0
 10
12.49538192928763
 20
-2.572331395581911
 30
0.0
 10
12.56706297893247
 20
-2.561668891183929
 30
0.0
 10
12.641799118356422
 20
-2.5492856325473348
 30
0.0
 10
12.719552156625415
 20
-2.535077826100192
 30
0.0
 10
12.800281308350515
 20
-2.518942485357935
 30
0.0
 10
12.883943210176929
 20
-2.500777488296293
 30
0.0
 10
12.970491938460805
 20
-2.480481634395487
 30
0.0
 10
13.059879028126508
 20
-2.4579547013322878
 30
0.0
 10
13.1253572391909
 20
-2.4402968283195543
 30
0.0
  0
ENDSEC
  0
EOF
