999
DXF generated by OpenJsCad
  0
SECTION
  2
HEADER
  0
ENDSEC
  0
SECTION
  2
TABLES
  0
TABLE
  2
LTYPE
  70
1
  0
LTYPE
  2
CONTINUOUS
  3
Solid Line
  72
65
  73
0
  40
0.0
  0
ENDTAB
  0
TABLE
  2
LAYER
  70
1
  0
LAYER
  2
OpenJsCad
  62
7
  6
continuous
  0
ENDTAB
  0
TABLE
  2
STYLE
  70
0
  0
ENDTAB
  0
TABLE
  2
VIEW
  70
0
  0
ENDTAB
  0
ENDSEC
  0
SECTION
  2
BLOCKS
  0
ENDSEC
  0
SECTION
  2
ENTITIES
  0
LWPOLYLINE
  8
OpenJsCad
  90
3151
  70
1
 10
17.419699882950614
 20
-2.4803269899092797
 30
0.0
 10
17.4718012996903
 20
-2.2072017985237835
 30
0.0
 10
17.489260217792832
 20
-1.929700241817621
 30
0.0
 10
17.41714910127558
 20
-1.8873899890223214
 30
0.0
 10
17.340890169813495
 20
-1.8439249002288973
 30
0.0
 10
17.266304810225478
 20
-1.8026466765957956
 30
0.0
 10
17.193435591237872
 20
-1.7635062006729483
 30
0.0
 10
17.122324109073144
 20
-1.726453634933507
 30
0.0
 10
17.053010975863454
 20
-1.691438438352128
 30
0.0
 10
16.985535809207082
 20
-1.6584093836052471
 30
0.0
 10
16.919937220681984
 20
-1.6273145737555916
 30
0.0
 10
16.856252805739803
 20
-1.5981014596880099
 30
0.0
 10
16.794519133351816
 20
-1.5707168574135604
 30
0.0
 10
16.73477173615405
 20
-1.5451069656414724
 30
0.0
 10
16.67704510058601
 20
-1.5212173833761076
 30
0.0
 10
16.621372657634097
 20
-1.4989931278010877
 30
0.0
 10
16.56778677399015
 20
-1.4783786516797652
 30
0.0
 10
16.51631872504826
 20
-1.4593178568116487
 30
0.0
 10
16.466998856252168
 20
-1.4417541722590739
 30
0.0
 10
16.41985598503153
 20
-1.4256303606752787
 30
0.0
 10
16.374918407013404
 20
-1.4108888972359603
 30
0.0
 10
16.33221294814022
 20
-1.3974716589411904
 30
0.0
 10
16.310008241206404
 20
-1.3908007509125817
 30
0.0
 10
16.285896167174005
 20
-1.3829198123232722
 30
0.0
 10
16.264558541311224
 20
-1.3746861022219359
 30
0.0
 10
16.2459999997769
 20
-1.366168111635738
 30
0.0
 10
16.230223895333772
 20
-1.35743438745364
 30
0.0
 10
16.217232298538907
 20
-1.3485535060982667
 30
0.0
 10
16.207025991558673
 20
-1.3395940683302094
 30
0.0
 10
16.19960447436547
 20
-1.3306246603625362
 30
0.0
 10
16.194965967849615
 20
-1.3217138268879005
 30
0.0
 10
16.19310740455893
 20
-1.312930074938852
 30
0.0
 10
16.207532700915827
 20
-1.1219713244924443
 30
0.0
 10
16.22035175867025
 20
-0.9182182360223327
 30
0.0
 10
16.229973687763824
 20
-0.7269572833250676
 30
0.0
 10
16.232918491761737
 20
-0.7184757336282247
 30
0.0
 10
16.238637245839367
 20
-0.7102165237498897
 30
0.0
 10
16.247124405907957
 20
-0.7022480003288541
 30
0.0
 10
16.258373148624024
 20
-0.6946384004884242
 30
0.0
 10
16.272375373332938
 20
-0.6874558304841584
 30
0.0
 10
16.289121704346492
 20
-0.6807682443841953
 30
0.0
 10
16.308601493555244
 20
-0.67464342278675
 30
0.0
 10
16.330802823373194
 20
-0.6691489515804193
 30
0.0
 10
16.35571251001671
 20
-0.6643522007514071
 30
0.0
 10
16.378578212647298
 20
-0.6605168825509621
 30
0.0
 10
16.422628551052743
 20
-0.6525578566243343
 30
0.0
 10
16.469059380359415
 20
-0.6435648055438984
 30
0.0
 10
16.517851277176714
 20
-0.6334767217730574
 30
0.0
 10
16.568983661756885
 20
-0.6222329275648081
 30
0.0
 10
16.622434803287206
 20
-0.6097730943745209
 30
0.0
 10
16.67818182546071
 20
-0.5960372621973341
 30
0.0
 10
16.73620071238865
 20
-0.580965858811615
 30
0.0
 10
16.79646631478708
 20
-0.5644997189363927
 30
0.0
 10
16.858952355877424
 20
-0.5465801012326591
 30
0.0
 10
16.92363144112161
 20
-0.5271487175823534
 30
0.0
 10
16.990475059511038
 20
-0.5061477312883513
 30
0.0
 10
17.05945359665212
 20
-0.48351979651536353
 30
0.0
 10
17.13053633971563
 20
-0.459208066544796
 30
0.0
 10
17.20369148589737
 20
-0.43315621438952384
 30
0.0
 10
17.278886150711674
 20
-0.405308451182578
 30
0.0
 10
17.356086376553353
 20
-0.3756095444460564
 30
0.0
 10
17.435257141547055
 20
-0.34400483622928163
 30
0.0
 10
17.516362368682767
 20
-0.3104402611116864
 30
0.0
 10
17.593207748303534
 20
-0.2775015567061583
 30
0.0
 10
17.610666666406072
 20
-2.886579864025407e-15
 30
0.0
 10
17.593207748303538
 20
0.2775015567061586
 30
0.0
 10
17.516362368682813
 20
0.3104402611116683
 30
0.0
 10
17.43525714154711
 20
0.34400483622926153
 30
0.0
 10
17.356086376553282
 20
0.3756095444460858
 30
0.0
 10
17.278886150711717
 20
0.40530845118256614
 30
0.0
 10
17.20369148594785
 20
0.43315621437083157
 30
0.0
 10
17.130536339684912
 20
0.45920806655498997
 30
0.0
 10
17.059453596638484
 20
0.4835197965175581
 30
0.0
 10
16.99047505951173
 20
0.5061477312868744
 30
0.0
 10
16.92363144115441
 20
0.5271487175721444
 30
0.0
 10
16.858952356459223
 20
0.5465801032980898
 30
0.0
 10
16.79646631478702
 20
0.5644997189364039
 30
0.0
 10
16.736200712388726
 20
0.5809658588116037
 30
0.0
 10
16.678181825463263
 20
0.5960372621977635
 30
0.0
 10
16.622434803566655
 20
0.6097730949471277
 30
0.0
 10
16.568983644508307
 20
0.6222329327553927
 30
0.0
 10
16.517851364230527
 20
0.6334767037740704
 30
0.0
 10
16.469059379187172
 20
0.6435648057979902
 30
0.0
 10
16.422628552113608
 20
0.6525578564334679
 30
0.0
 10
16.378578212678157
 20
0.6605168825453255
 30
0.0
 10
16.3557125100167
 20
0.6643522007512622
 30
0.0
 10
16.330802823373055
 20
0.6691489515794501
 30
0.0
 10
16.30860149355221
 20
0.6746434227713797
 30
0.0
 10
16.289121704357413
 20
0.6807682444368707
 30
0.0
 10
16.272375373317114
 20
0.6874558304122508
 30
0.0
 10
16.258373149566204
 20
0.6946384045300821
 30
0.0
 10
16.2471244070586
 20
0.7022480049987011
 30
0.0
 10
16.238637245841417
 20
0.7102165237577395
 30
0.0
 10
16.232918491761765
 20
0.7184757336283497
 30
0.0
 10
16.229973687763152
 20
0.7269572833226948
 30
0.0
 10
16.220351758678802
 20
0.9182182360227521
 30
0.0
 10
16.20753270090729
 20
1.1219713244917884
 30
0.0
 10
16.193107404559893
 20
1.3129300749365822
 30
0.0
 10
16.194965967849573
 20
1.3217138268880206
 30
0.0
 10
16.199604474362452
 20
1.3306246603700669
 30
0.0
 10
16.20702598983182
 20
1.3395940728190194
 30
0.0
 10
16.217232297097603
 20
1.348553509989968
 30
0.0
 10
16.23022389535849
 20
1.3574343873842827
 30
0.0
 10
16.245999999759466
 20
1.3661681116866293
 30
0.0
 10
16.264558541316163
 20
1.3746861022070669
 30
0.0
 10
16.285896167174265
 20
1.3829198123223279
 30
0.0
 10
16.310008241206432
 20
1.390800750912439
 30
0.0
 10
16.332212948110318
 20
1.397471658931731
 30
0.0
 10
16.37491840598483
 20
1.4108888969136377
 30
0.0
 10
16.41985598616268
 20
1.4256303610742878
 30
0.0
 10
16.466998772140677
 20
1.441754143491279
 30
0.0
 10
16.51631874151028
 20
1.4593178641231241
 30
0.0
 10
16.56778677364114
 20
1.4783786522128326
 30
0.0
 10
16.621372657631515
 20
1.4989931278011945
 30
0.0
 10
16.677045100585943
 20
1.5212173833760878
 30
0.0
 10
16.73477173615411
 20
1.545106965641492
 30
0.0
 10
16.794519132515738
 20
1.570716859389786
 30
0.0
 10
16.856252805708547
 20
1.5981014596737715
 30
0.0
 10
16.919937220681483
 20
1.6273145737540402
 30
0.0
 10
16.985535809220337
 20
1.6584093836091336
 30
0.0
 10
17.05301097589265
 20
1.6914384383660916
 30
0.0
 10
17.122324109025406
 20
1.726453634908635
 30
0.0
 10
17.193435591237833
 20
1.7635062006729316
 30
0.0
 10
17.26630481022555
 20
1.8026466765958342
 30
0.0
 10
17.34089016981345
 20
1.8439249002288713
 30
0.0
 10
17.41714910127554
 20
1.8873899890222978
 30
0.0
 10
17.489260217792832
 20
1.9297002418176215
 30
0.0
 10
17.471801299690295
 20
2.2072017985237764
 30
0.0
 10
17.41969988295061
 20
2.480326989909288
 30
0.0
 10
17.339332137768235
 20
2.5033746828799037
 30
0.0
 10
17.254659692840747
 20
2.526509410921557
 30
0.0
 10
17.172152092699392
 20
2.547942178593787
 30
0.0
 10
17.09183835368257
 20
2.567731146643399
 30
0.0
 10
17.013746371102005
 20
2.5859349314195614
 30
0.0
 10
16.937902912143155
 20
2.602612585934933
 30
0.0
 10
16.86433361002728
 20
2.6178235806085546
 30
0.0
 10
16.793062957035144
 20
2.6316277842489475
 30
0.0
 10
16.724114299054616
 20
2.6440854446528066
 30
0.0
 10
16.657509829855293
 20
2.655257169269602
 30
0.0
 10
16.593270585913164
 20
2.6652039057308663
 30
0.0
 10
16.53141644123537
 20
2.6739869223536736
 30
0.0
 10
16.471966102841975
 20
2.6816677885163545
 30
0.0
 10
16.414937106529674
 20
2.688308355605913
 30
0.0
 10
16.36034579406339
 20
2.6939707372689448
 30
0.0
 10
16.308207488908845
 20
2.6987172737680583
 30
0.0
 10
16.25853586879384
 20
2.702610570836844
 30
0.0
 10
16.211344034544208
 20
2.7057133828877724
 30
0.0
 10
16.16664351471378
 20
2.7080886782204416
 30
0.0
 10
16.14347742211497
 20
2.70902792134449
 30
0.0
 10
16.118162963498772
 20
2.710664836785556
 30
0.0
 10
16.09544805795357
 20
2.7133334179751443
 30
0.0
 10
16.075354229010564
 20
2.716968478623472
 30
0.0
 10
16.05790177101737
 20
2.7215044591663324
 30
0.0
 10
16.043109743743496
 20
2.7268754525621217
 30
0.0
 10
16.030995965097535
 20
2.733015207786158
 30
0.0
 10
16.021577007458752
 20
2.7398571690355693
 30
0.0
 10
16.01486819398336
 20
2.7473345026286813
 30
0.0
 10
16.010883590595018
 20
2.755380090963011
 30
0.0
 10
15.977366179638942
 20
2.943926946438882
 30
0.0
 10
15.939111170540288
 20
3.1444667269854922
 30
0.0
 10
15.900866144292571
 20
3.332111741610072
 30
0.0
 10
15.901609156220683
 20
3.3410591708006727
 30
0.0
 10
15.905094263150197
 20
3.3504810987193445
 30
0.0
 10
15.91133309228799
 20
3.3603099472038265
 30
0.0
 10
15.920336004540953
 20
3.3704779260289994
 30
0.0
 10
15.932112091088431
 20
3.380917054071676
 30
0.0
 10
15.946669170286242
 20
3.391559180526884
 30
0.0
 10
15.9640137849042
 20
3.4023360061714065
 30
0.0
 10
15.984151199696196
 20
3.4131791046684996
 30
0.0
 10
16.00708539930567
 20
3.4240199439102983
 30
0.0
 10
16.028278928990524
 20
3.4334212375439663
 30
0.0
 10
16.068966015752423
 20
3.4520850897231075
 30
0.0
 10
16.11170165431764
 20
3.472342485268034
 30
0.0
 10
16.156451859559724
 20
3.494247684650579
 30
0.0
 10
16.203181608339474
 20
3.517854341339598
 30
0.0
 10
16.251854849458663
 20
3.54321548431419
 30
0.0
 10
16.302434513864725
 20
3.570383500719208
 30
0.0
 10
16.35488252516314
 20
3.5994101186967318
 30
0.0
 10
16.409159810373918
 20
3.630346390369048
 30
0.0
 10
16.465226309874843
 20
3.6632426768388835
 30
0.0
 10
16.523040994112115
 20
3.6981486222513023
 30
0.0
 10
16.582561864401214
 20
3.735113155857723
 30
0.0
 10
16.643745975409885
 20
3.774184457068369
 30
0.0
 10
16.70654944200487
 20
3.815409948687599
 30
0.0
 10
16.770927452573474
 20
3.8588362790508737
 30
0.0
 10
16.836834281629596
 20
3.9045093062762875
 30
0.0
 10
16.904223302649946
 20
3.9524740826988807
 30
0.0
 10
16.973047001156214
 20
4.002774839503071
 30
0.0
 10
17.043256988040643
 20
4.055454971557271
 30
0.0
 10
17.109496606069893
 20
4.1064695147808905
 30
0.0
 10
17.05739518933021
 20
4.379594706166394
 30
0.0
 10
16.971472944419244
 20
4.644036184806023
 30
0.0
 10
16.888850281026105
 20
4.656829390455575
 30
0.0
 10
16.801945953344216
 20
4.669169422940053
 30
0.0
 10
16.717402712197206
 20
4.6800922425181835
 30
0.0
 10
16.635242055646522
 20
4.689659188033429
 30
0.0
 10
16.555484312464447
 20
4.697931909837155
 30
0.0
 10
16.47814863746415
 20
4.704972350109285
 30
0.0
 10
16.40325300812137
 20
4.710842723021349
 30
0.0
 10
16.330814220036558
 20
4.7156054949951764
 30
0.0
 10
16.260847883957112
 20
4.719323364771211
 30
0.0
 10
16.193368422520503
 20
4.722059243507985
 30
0.0
 10
16.12838906756009
 20
4.723876234816314
 30
0.0
 10
16.065921857414224
 20
4.724837614767868
 30
0.0
 10
16.005977634903278
 20
4.725006811859355
 30
0.0
 10
15.948566045514601
 20
4.724447387579224
 30
0.0
 10
15.893695517249247
 20
4.7232230139556535
 30
0.0
 10
15.841373439436136
 20
4.721397460219166
 30
0.0
 10
15.79160553537107
 20
4.719034552712303
 30
0.0
 10
15.74439693736253
 20
4.716198192979108
 30
0.0
 10
15.699751191037652
 20
4.71295229770626
 30
0.0
 10
15.676650051620516
 20
4.710980653323278
 30
0.0
 10
15.651330045166272
 20
4.7094319182428706
 30
0.0
 10
15.628459791526389
 20
4.709232524310624
 30
0.0
 10
15.608068814521074
 20
4.710320496863885
 30
0.0
 10
15.590185465263133
 20
4.7126333368514
 30
0.0
 10
15.574836913572733
 20
4.71610804575082
 30
0.0
 10
15.562049140314082
 20
4.720681128122679
 30
0.0
 10
15.551846928842279
 20
4.72628863004637
 30
0.0
 10
15.544253857967302
 20
4.732866165344478
 30
0.0
 10
15.539292294764952
 20
4.740348908584559
 30
0.0
 10
15.482407991530254
 20
4.923208170292958
 30
0.0
 10
15.41932033545038
 20
5.117372010781263
 30
0.0
 10
15.357858726212742
 20
5.298744015611299
 30
0.0
 10
15.357474469037328
 20
5.307714015737793
 30
0.0
 10
15.359751214165296
 20
5.317498448661426
 30
0.0
 10
15.364708966909113
 20
5.3280317263693675
 30
0.0
 10
15.372366502844951
 20
5.339247891748635
 30
0.0
 10
15.382741361759477
 20
5.351080639154408
 30
0.0
 10
15.39584984191919
 20
5.36346333507098
 30
0.0
 10
15.411706994664716
 20
5.376329038861409
 30
0.0
 10
15.430326619329826
 20
5.389610523599683
 30
0.0
 10
15.45172125848854
 20
5.4032402969823226
 30
0.0
 10
15.471569376330834
 20
5.415223712213702
 30
0.0
 10
15.50959643231659
 20
5.438839838491969
 30
0.0
 10
15.54945616271997
 20
5.464293694192248
 30
0.0
 10
15.591108049756993
 20
5.491634852460552
 30
0.0
 10
15.634510621893641
 20
5.520912154128825
 30
0.0
 10
15.679621465912717
 20
5.552173691613579
 30
0.0
 10
15.726397239211956
 20
5.585466792987159
 30
0.0
 10
15.774793682385265
 20
5.620838006262147
 30
0.0
 10
15.824765632027203
 20
5.65833308385667
 30
0.0
 10
15.876267032477786
 20
5.697996968959128
 30
0.0
 10
15.929250955652279
 20
5.739873771889027
 30
0.0
 10
15.98366960157704
 20
5.7840067722450845
 30
0.0
 10
16.039474325075304
 20
5.830438387051125
 30
0.0
 10
16.096615643407784
 20
5.8792101649028785
 30
0.0
 10
16.155043251728017
 20
5.930362769915423
 30
0.0
 10
16.21470603756278
 20
5.983935967678865
 30
0.0
 10
16.275552095498032
 20
6.039968611424196
 30
0.0
 10
16.33752874208393
 20
6.098498628416522
 30
0.0
 10
16.40058253095612
 20
6.159563006579415
 30
0.0
 10
16.459906012151365
 20
6.218477310410075
 30
0.0
 10
16.373983767240397
 20
6.482918789049699
 30
0.0
 10
16.255595739287866
 20
6.734506154855625
 30
0.0
 10
16.172021166442068
 20
6.736843116688725
 30
0.0
 10
16.084255489167443
 20
6.738193843932172
 30
0.0
 10
15.999009904431352
 20
6.738434456026478
 30
0.0
 10
15.916298052981013
 20
6.737628502561564
 30
0.0
 10
15.83613237645237
 20
6.735839695628125
 30
0.0
 10
15.758524115203475
 20
6.733131889708166
 30
0.0
 10
15.683483307449007
 20
6.72956906157106
 30
0.0
 10
15.61101878723245
 20
6.725215290119153
 30
0.0
 10
15.541138183969922
 20
6.720134736240046
 30
0.0
 10
15.473847921713158
 20
6.714391622654786
 30
0.0
 10
15.409153218978968
 20
6.708050213771826
 30
0.0
 10
15.347058088585147
 20
6.701174795515992
 30
0.0
 10
15.287565338154582
 20
6.6938296551970815
 30
0.0
 10
15.230676570750209
 20
6.686079062002341
 30
0.0
 10
15.176392167694592
 20
6.6779872421956155
 30
0.0
 10
15.124711467645723
 20
6.669618388296488
 30
0.0
 10
15.07563214920761
 20
6.661036540676889
 30
0.0
 10
15.029151295231808
 20
6.652305740246923
 30
0.0
 10
14.985264412502097
 20
6.643489844076014
 30
0.0
 10
14.9625925450352
 20
6.638638406195724
 30
0.0
 10
14.937666302370127
 20
6.6339284450712315
 30
0.0
 10
14.915001378197488
 20
6.630864220578574
 30
0.0
 10
14.894634831018223
 20
6.629387947059679
 30
0.0
 10
14.876602621596325
 20
6.629441171623624
 30
0.0
 10
14.860939601318336
 20
6.63096479779164
 30
0.0
 10
14.84767950427033
 20
6.633899087070488
 30
0.0
 10
14.836854933934921
 20
6.638183696013364
 30
0.0
 10
14.828497352923938
 20
6.643757701355589
 30
0.0
 10
14.822637076723172
 20
6.650559592170549
 30
0.0
 10
14.743282980652905
 20
6.824847460319507
 30
0.0
 10
14.656357607614927
 20
7.00957328099715
 30
0.0
 10
14.572648701680432
 20
7.181811931170092
 30
0.0
 10
14.57114323536669
 20
7.190663039972063
 30
0.0
 10
14.572175713062382
 20
7.200655671548515
 30
0.0
 10
14.575774202689841
 20
7.211727262398187
 30
0.0
 10
14.581965598392454
 20
7.2238147287033065
 30
0.0
 10
14.590775611951303
 20
7.2368544859770445
 30
0.0
 10
14.602228764510176
 20
7.250782468843314
 30
0.0
 10
14.616348378611866
 20
7.2655341509452755
 30
0.0
 10
14.633156570546296
 20
7.281044564976432
 30
0.0
 10
14.652674243014179
 20
7.297248322831638
 30
0.0
 10
14.670863932338849
 20
7.311624874043985
 30
0.0
 10
14.705631248159309
 20
7.339820834002379
 30
0.0
 10
14.741986458641337
 20
7.370069727348219
 30
0.0
 10
14.779883152333099
 20
7.402415658103575
 30
0.0
 10
14.819274063336607
 20
7.4369018842143815
 30
0.0
 10
14.860111085297481
 20
7.473570803088426
 30
0.0
 10
14.902345285602475
 20
7.512463937333571
 30
0.0
 10
14.945926919831198
 20
7.55362192074294
 30
0.0
 10
14.990805446406645
 20
7.597084484487529
 30
0.0
 10
15.03692953995634
 20
7.642890445060488
 30
0.0
 10
15.084247113948532
 20
7.69107768330967
 30
0.0
 10
15.132705320954596
 20
7.741683146635974
 30
0.0
 10
15.182250583116756
 20
7.794742820735017
 30
0.0
 10
15.232828600462064
 20
7.850291724747723
 30
0.0
 10
15.28438436824775
 20
7.908363897271403
 30
0.0
 10
15.336862193087724
 20
7.968992384241069
 30
0.0
 10
15.39020570925656
 20
8.032209227044994
 30
0.0
 10
15.44435789518238
 20
8.09804545089335
 30
0.0
 10
15.499261090125314
 20
8.166531053443217
 30
0.0
 10
15.55073286774998
 20
8.232416004115814
 30
0.0
 10
15.432344839797437
 20
8.484003369921727
 30
0.0
 10
15.283358078725719
 20
8.718768939844177
 30
0.0
 10
15.20014961736606
 20
8.710612802576685
 30
0.0
 10
15.112906707658002
 20
8.700952922803586
 30
0.0
 10
15.02830315312736
 20
8.690507532817607
 30
0.0
 10
14.946344522084402
 20
8.67934139074013
 30
0.0
 10
14.867035172816705
 20
8.667519265623445
 30
0.0
 10
14.790378253960036
 20
8.65510591722832
 30
0.0
 10
14.71637570615937
 20
8.642166075970097
 30
0.0
 10
14.64502826258309
 20
8.62876442266907
 30
0.0
 10
14.576335450995579
 20
8.61496556850447
 30
0.0
 10
14.510295595551705
 20
8.600834034929184
 30
0.0
 10
14.446905819152601
 20
8.586434233661194
 30
0.0
 10
14.38616204581096
 20
8.571830446651038
 30
0.0
 10
14.328059003674317
 20
8.557086806172334
 30
0.0
 10
14.272590228099915
 20
8.542267275547648
 30
0.0
 10
14.219748047718156
 20
8.52743562238994
 30
0.0
 10
14.169523760945852
 20
8.51265545015347
 30
0.0
 10
14.121907038305029
 20
8.497990003284645
 30
0.0
 10
14.076886959195475
 20
8.483502452096213
 30
0.0
 10
14.03445106241833
 20
8.469255586976223
 30
0.0
 10
14.012566015795143
 20
8.461600865672104
 30
0.0
 10
13.988426638656284
 20
8.453803957404054
 30
0.0
 10
13.966324483344463
 20
8.447923227001715
 30
0.0
 10
13.94630355860665
 20
8.443905989125941
 30
0.0
 10
13.928406867735298
 20
8.441698758883145
 30
0.0
 10
13.912676394056135
 20
8.441247273824917
 30
0.0
 10
13.899153092870423
 20
8.44249649451597
 30
0.0
 10
13.887876873611882
 20
8.445390639635498
 30
0.0
 10
13.878886586510014
 20
8.449873209627842
 30
0.0
 10
13.87222001736728
 20
8.45588697813628
 30
0.0
 10
13.771647589960308
 20
8.61885482893056
 30
0.0
 10
13.662255365023737
 20
8.7912293932556
 30
0.0
 10
13.557619301844246
 20
8.951618382367835
 30
0.0
 10
13.555016368495272
 20
8.960211012572081
 30
0.0
 10
13.55478829596865
 20
8.970254253032085
 30
0.0
 10
13.55697077214869
 20
8.98168955142194
 30
0.0
 10
13.561598385609289
 20
8.994457692088575
 30
0.0
 10
13.56870461463579
 20
9.008498814468501
 30
0.0
 10
13.578321816536189
 20
9.02375243167449
 30
0.0
 10
13.59048121724501
 20
9.040157449249008
 30
0.0
 10
13.605212901221229
 20
9.057652184078306
 30
0.0
 10
13.62254580164417
 20
9.076174383465045
 30
0.0
 10
13.638790200184573
 20
9.092717343857606
 30
0.0
 10
13.669749474500257
 20
9.125048470364131
 30
0.0
 10
13.702026821674085
 20
9.159615358237657
 30
0.0
 10
13.735570668522678
 20
9.196455946829529
 30
0.0
 10
13.770328700195533
 20
9.23560722899603
 30
0.0
 10
13.806247875867026
 20
9.27710523850377
 30
0.0
 10
13.843274444609476
 20
9.320985037659803
 30
0.0
 10
13.88135396148742
 20
9.367280705218597
 30
0.0
 10
13.92043130382315
 20
9.416025324519726
 30
0.0
 10
13.960450685963478
 20
9.467250973201795
 30
0.0
 10
14.001355684365363
 20
9.520988705237412
 30
0.0
 10
14.043089237580714
 20
9.577268553147066
 30
0.0
 10
14.085593680025575
 20
9.636119503782258
 30
0.0
 10
14.128810750836324
 20
9.697569494556328
 30
0.0
 10
14.172681612831564
 20
9.761645401739814
 30
0.0
 10
14.217146870030287
 20
9.828373030458486
 30
0.0
 10
14.262146585316852
 20
9.897777104946076
 30
0.0
 10
14.307620298261597
 20
9.96988125907172
 30
0.0
 10
14.353507043093442
 20
10.044708027145031
 30
0.0
 10
14.396315376466653
 20
10.116524579629706
 30
0.0
 10
14.247328615394924
 20
10.351290149552142
 30
0.0
 10
14.070092731426483
 20
10.565531530311274
 30
0.0
 10
13.988562628694941
 20
10.547010921100144
 30
0.0
 10
13.903218359355929
 20
10.526492776385052
 30
0.0
 10
13.820591083625404
 20
10.50552611435864
 30
0.0
 10
13.740678209561082
 20
10.48417588039949
 30
0.0
 10
13.663475943369392
 20
10.46250687907485
 30
0.0
 10
13.58897929230794
 20
10.440583754124125
 30
0.0
 10
13.517182068846875
 20
10.418470968771308
 30
0.0
 10
13.448076893716967
 20
10.396232785699478
 30
0.0
 10
13.381655200478303
 20
10.373933247422597
 30
0.0
 10
13.317907239817966
 20
10.351636156583538
 30
0.0
 10
13.256822084394978
 20
10.329405056398546
 30
0.0
 10
13.198387633697687
 20
10.307303211079098
 30
0.0
 10
13.142590619538536
 20
10.28539358645837
 30
0.0
 10
13.089416611520358
 20
10.263738831254447
 30
0.0
 10
13.03885000656346
 20
10.242401248776053
 30
0.0
 10
12.990874200072659
 20
10.221442850347657
 30
0.0
 10
12.945471017390018
 20
10.200925087087441
 30
0.0
 10
12.902621706687965
 20
10.18090926247723
 30
0.0
 10
12.862306035305538
 20
10.161456109981762
 30
0.0
 10
12.841552949784798
 20
10.151118824781493
 30
0.0
 10
12.818581130569804
 20
10.140357931270918
 30
0.0
 10
12.797390308311254
 20
10.13175343759032
 30
0.0
 10
12.778030747957926
 20
10.125258589598747
 30
0.0
 10
12.760551817143128
 20
10.120825713888678
 30
0.0
 10
12.745001969029646
 20
10.118406237793279
 30
0.0
 10
12.73142873424435
 20
10.11795068893999
 30
0.0
 10
12.719878698776471
 20
10.119408727838758
 30
0.0
 10
12.71039748778185
 20
10.122729169674686
 30
0.0
 10
12.703029761474948
 20
10.12785997515477
 30
0.0
 10
12.582825089990534
 20
10.27693770823507
 30
0.0
 10
12.452691193890367
 20
10.434242566356525
 30
0.0
 10
12.328778146688778
 20
10.580252464238018
 30
0.0
 10
12.325118796118396
 20
10.588451104933233
 30
0.0
 10
12.323633770209456
 20
10.598386566375186
 30
0.0
 10
12.324365813988967
 20
10.610005230818501
 30
0.0
 10
12.327356664978872
 20
10.623252684641027
 30
0.0
 10
12.332647039996225
 20
10.638073735239445
 30
0.0
 10
12.340276622219141
 20
10.65441242812975
 30
0.0
 10
12.350284048522244
 20
10.672212064249791
 30
0.0
 10
12.362706897083664
 20
10.691415217458124
 30
0.0
 10
12.377581675267823
 20
10.71196375222744
 30
0.0
 10
12.391624599155037
 20
10.730412229432538
 30
0.0
 10
12.41828758571582
 20
10.766368641308508
 30
0.0
 10
12.44597803653496
 20
10.804708383238697
 30
0.0
 10
12.47464003003746
 20
10.845462631577492
 30
0.0
 10
12.504217027456736
 20
10.888661530692078
 30
0.0
 10
12.534651889981435
 20
10.934334182433867
 30
0.0
 10
12.565886896053673
 20
10.982508635855579
 30
0.0
 10
12.597863758852071
 20
11.033211877230706
 30
0.0
 10
12.63052364391578
 20
11.086469820323368
 30
0.0
 10
12.663807185083966
 20
11.14230729803411
 30
0.0
 10
12.697654511635285
 20
11.200748047720596
 30
0.0
 10
12.7320052479953
 20
11.261814713392114
 30
0.0
 10
12.76679855027458
 20
11.325528825916082
 30
0.0
 10
12.801973115527462
 20
11.391910800388565
 30
0.0
 10
12.837467202031405
 20
11.46097992689848
 30
0.0
 10
12.8732186479206
 20
11.532754362800114
 30
0.0
 10
12.909164889933301
 20
11.607251125256715
 30
0.0
 10
12.945242982279149
 20
11.68448608407615
 30
0.0
 10
12.981389615622493
 20
11.764473954841048
 30
0.0
 10
13.014859391754479
 20
11.841089519203972
 30
0.0
 10
12.837623507786045
 20
12.0553308999631
 30
0.0
 10
12.634933616686668
 20
12.245669377002761
 30
0.0
 10
12.556367651007038
 20
12.217076376918925
 30
0.0
 10
12.474267952146747
 20
12.186023550660941
 30
0.0
 10
12.394920036713746
 20
12.154866273379131
 30
0.0
 10
12.318313193389693
 20
12.123668653481856
 30
0.0
 10
12.24443553613025
 20
12.092494509044577
 30
0.0
 10
12.173274009553397
 20
12.061407348314969
 30
0.0
 10
12.104814395535497
 20
12.030470350702114
 30
0.0
 10
12.039041318745191
 20
11.99974634729097
 30
0.0
 10
11.975938253636144
 20
11.969297801941533
 30
0.0
 10
11.915487531180144
 20
11.939186792280868
 30
0.0
 10
11.857670346124795
 20
11.909474990908999
 30
0.0
 10
11.802466764266402
 20
11.880223646583952
 30
0.0
 10
11.74985573032955
 20
11.851493565689648
 30
0.0
 10
11.699815075738654
 20
11.823345094331977
 30
0.0
 10
11.652321511773817
 20
11.795838088955035
 30
0.0
 10
11.607350792692234
 20
11.769031990797869
 30
0.0
 10
11.56487718528123
 20
11.742985488529593
 30
0.0
 10
11.524874402213381
 20
11.717757052008581
 30
0.0
 10
11.487314758446791
 20
11.693404399973238
 30
0.0
 10
11.468020922584454
 20
11.68054757603962
 30
0.0
 10
11.446578940605042
 20
11.666992403005427
 30
0.0
 10
11.426633643325566
 20
11.65579984405199
 30
0.0
 10
11.408240759188335
 20
11.646929813577282
 30
0.0
 10
11.391455241610448
 20
11.640341201497955
 30
0.0
 10
11.376331249456422
 20
11.635991890948734
 30
0.0
 10
11.362922139092369
 20
11.63383875682865
 30
0.0
 10
11.351280438374136
 20
11.633837695362237
 30
0.0
 10
11.341457827847949
 20
11.635943643690458
 30
0.0
 10
11.333505137822002
 20
11.640110570274773
 30
0.0
 10
11.195563921736246
 20
11.772947140735702
 30
0.0
 10
11.046740643752203
 20
11.91270150107163
 30
0.0
 10
10.905504795304951
 20
12.042029644410704
 30
0.0
 10
10.90084673765765
 20
12.049704998135487
 30
0.0
 10
10.898128178112083
 20
12.0593759923973
 30
0.0
 10
10.897398244723362
 20
12.070994789615149
 30
0.0
 10
10.898705165735818
 20
12.084512636333134
 30
0.0
 10
10.90209625436968
 20
12.099879878328442
 30
0.0
 10
10.907617893845767
 20
12.11704597595592
 30
0.0
 10
10.915315522652204
 20
12.135959519726885
 30
0.0
 10
10.92523362005596
 20
12.156568246116748
 30
0.0
 10
10.937415691863608
 20
12.17881905360023
 30
0.0
 10
10.949035675799104
 20
12.198882104111755
 30
0.0
 10
10.97098188337922
 20
12.237896747262571
 30
0.0
 10
10.993648742892784
 20
12.279404702616128
 30
0.0
 10
11.01697686628981
 20
12.323429891860137
 30
0.0
 10
11.040906382537763
 20
12.369995135478
 30
0.0
 10
11.065376955952749
 20
12.41912214445235
 30
0.0
 10
11.090327804650125
 20
12.470831512231253
 30
0.0
 10
11.1156977191406
 20
12.525142707017578
 30
0.0
 10
11.141425081034756
 20
12.582074064324452
 30
0.0
 10
11.167447879903957
 20
12.641642780684679
 30
0.0
 10
11.193703742045585
 20
12.703864902488665
 30
0.0
 10
11.22012992991773
 20
12.76875532812495
 30
0.0
 10
11.246663380869975
 20
12.836327792922225
 30
0.0
 10
11.273240716658686
 20
12.90659486770102
 30
0.0
 10
11.299798264724027
 20
12.979567952152406
 30
0.0
 10
11.326272077645138
 20
13.055257269506862
 30
0.0
 10
11.35259795267419
 20
13.133671861486327
 30
0.0
 10
11.37871145135284
 20
13.214819583561043
 30
0.0
 10
11.40454791920691
 20
13.298707100513125
 30
0.0
 10
11.428151299734195
 20
13.378913403536385
 30
0.0
 10
11.225461408634818
 20
13.56925188057604
 30
0.0
 10
11.000514051068212
 20
13.732685702410617
 30
0.0
 10
10.926151254652293
 20
13.694471240146022
 30
0.0
 10
10.848590887565727
 20
13.653373453965298
 30
0.0
 10
10.773773696456779
 20
13.612516930303276
 30
0.0
 10
10.701681019554929
 20
13.571963929570211
 30
0.0
 10
10.632293066015087
 20
13.531776276900606
 30
0.0
 10
10.565588923706787
 20
13.492015343487385
 30
0.0
 10
10.501546568140903
 20
13.452742028547712
 30
0.0
 10
10.440142870402115
 20
13.41401674068468
 30
0.0
 10
10.381353606455397
 20
13.375899380011926
 30
0.0
 10
10.325153466208375
 20
13.338449320139448
 30
0.0
 10
10.271516063067299
 20
13.30172539043731
 30
0.0
 10
10.220413943510732
 20
13.265785858280575
 30
0.0
 10
10.171818597229674
 20
13.230688411650913
 30
0.0
 10
10.125700467081794
 20
13.196490142347887
 30
0.0
 10
10.082028945984023
 20
13.16324751597908
 30
0.0
 10
10.04077252941578
 20
13.131016466274271
 30
0.0
 10
10.001898331437786
 20
13.099851993898131
 30
0.0
 10
9.965372943789633
 20
13.069808812980993
 30
0.0
 10
9.931161665658118
 20
13.040940717275943
 30
0.0
 10
9.913631354771313
 20
13.0257671144027
 30
0.0
 10
9.894057362892116
 20
13.009631435021111
 30
0.0
 10
9.875672139844555
 20
12.996027324135635
 30
0.0
 10
9.858535998693643
 20
12.98492199685708
 30
0.0
 10
9.842708611992052
 20
12.976281554756836
 30
0.0
 10
9.828248990188387
 20
12.970071000979308
 30
0.0
 10
9.815215473926228
 20
12.966254237803723
 30
0.0
 10
9.803665704532385
 20
12.964794092712083
 30
0.0
 10
9.793656602910373
 20
12.96565233546943
 30
0.0
 10
9.785244367837796
 20
12.968789668236543
 30
0.0
 10
9.631742022530462
 20
13.083290164009206
 30
0.0
 10
9.466576394659068
 20
13.2032900168119
 30
0.0
 10
9.310245118666371
 20
13.31389682353121
 30
0.0
 10
9.304661814293837
 20
13.320927845372292
 30
0.0
 10
9.300752594419667
 20
13.330181855097281
 30
0.0
 10
9.298572195348294
 20
13.341617549716805
 30
0.0
 10
9.298174575458217
 20
13.355192604812338
 30
0.0
 10
9.299612898215097
 20
13.370863687618327
 30
0.0
 10
9.302939515391348
 20
13.388586470368859
 30
0.0
 10
9.308205950496498
 20
13.408315643907079
 30
0.0
 10
9.315462882421752
 20
13.430004931552247
 30
0.0
 10
9.324760129303266
 20
13.453607103223893
 30
0.0
 10
9.333773919198936
 20
13.474968320750195
 30
0.0
 10
9.350657242994819
 20
13.516425910947143
 30
0.0
 10
9.367943041287752
 20
13.560447474472497
 30
0.0
 10
9.385569396137786
 20
13.607049301087967
 30
0.0
 10
9.403474048448391
 20
13.656246527500521
 30
0.0
 10
9.421594417192894
 20
13.708053131428857
 30
0.0
 10
9.43986761872654
 20
13.7624819259454
 30
0.0
 10
9.458230486202318
 20
13.819544554157208
 30
0.0
 10
9.476619589061073
 20
13.879251484164419
 30
0.0
 10
9.494971250547856
 20
13.941612004932503
 30
0.0
 10
9.513221577649327
 20
14.006634218823447
 30
0.0
 10
9.53130646026462
 20
14.074325043648551
 30
0.0
 10
9.549161611517995
 20
14.14469020258345
 30
0.0
 10
9.566722577380617
 20
14.21773422392378
 30
0.0
 10
9.583924758609651
 20
14.293460437182832
 30
0.0
 10
9.600703430718228
 20
14.371870970240824
 30
0.0
 10
9.616993763988106
 20
14.452966746785027
 30
0.0
 10
9.632730843525948
 20
14.536747484062607
 30
0.0
 10
9.647849689358724
 20
14.623211690947565
 30
0.0
 10
9.661214434870422
 20
14.705743831319557
 30
0.0
 10
9.436267077303818
 20
14.869177653154122
 30
0.0
 10
9.192609807475845
 20
15.003129370782652
 30
0.0
 10
9.123622926045298
 20
14.95589611123543
 30
0.0
 10
9.051825064053734
 20
14.90540150177066
 30
0.0
 10
8.982718509066249
 20
14.855490063513084
 30
0.0
 10
8.91627694316742
 20
14.806221226990978
 30
0.0
 10
8.852472982824857
 20
14.757653849378585
 30
0.0
 10
8.791278188956433
 20
14.709846196953707
 30
0.0
 10
8.732663078046889
 20
14.66285592832456
 30
0.0
 10
8.676597132353747
 20
14.6167400769326
 30
0.0
 10
8.623048811380807
 20
14.571555034484549
 30
0.0
 10
8.571985563126795
 20
14.52735653421603
 30
0.0
 10
8.523373835788961
 20
14.484199634492834
 30
0.0
 10
8.477179089486553
 20
14.44213870239576
 30
0.0
 10
8.433365808501593
 20
14.401227397730292
 30
0.0
 10
8.391897513258797
 20
14.361518657617871
 30
0.0
 10
8.352736761003907
 20
14.32306466633322
 30
0.0
 10
8.315845285283675
 20
14.28591696798851
 30
0.0
 10
8.281183566063124
 20
14.250126007850628
 30
0.0
 10
8.248711601017083
 20
14.215741881447354
 30
0.0
 10
8.218388220813607
 20
14.182813609186828
 30
0.0
 10
8.202897898377117
 20
14.165562524155549
 30
0.0
 10
8.18550059014301
 20
14.147100807729394
 30
0.0
 10
8.168965387277622
 20
14.131299689867252
 30
0.0
 10
8.153356236295613
 20
14.118134203430028
 30
0.0
 10
8.138736587813423
 20
14.107578196242336
 30
0.0
 10
8.125169373233723
 20
14.099604343379575
 30
0.0
 10
8.11271699741076
 20
14.094184143783792
 30
0.0
 10
8.101441306104142
 20
14.091287942427273
 30
0.0
 10
8.091403562898034
 20
14.090884944612773
 30
0.0
 10
8.082664448751146
 20
14.09294320595079
 30
0.0
 10
7.916021797905584
 20
14.187301885817574
 30
0.0
 10
7.737118580763535
 20
14.285654761723901
 30
0.0
 10
7.5681573148355765
 20
14.375795896408178
 30
0.0
 10
7.5617368157830676
 20
14.382071702950993
 30
0.0
 10
7.556698586312964
 20
14.390762786877719
 30
0.0
 10
7.553102107754806
 20
14.401835031163419
 30
0.0
 10
7.551006217665388
 20
14.415253207908297
 30
0.0
 10
7.550469091336193
 20
14.430980989187663
 30
0.0
 10
7.551548223472516
 20
14.4489809581902
 30
0.0
 10
7.55430041004876
 20
14.469214620643339
 30
0.0
 10
7.5587817303439655
 20
14.491642416521096
 30
0.0
 10
7.565047529162119
 20
14.51622373203439
 30
0.0
 10
7.571312972166731
 20
14.538546237414502
 30
0.0
 10
7.5828671520765125
 20
14.581792963694618
 30
0.0
 10
7.594499281783699
 20
14.627633889037766
 30
0.0
 10
7.606145889941284
 20
14.676077414380385
 30
0.0
 10
7.6177433112518775
 20
14.727130753938113
 30
0.0
 10
7.629227706286216
 20
14.780799931728716
 30
0.0
 10
7.640535081352063
 20
14.837089778379188
 30
0.0
 10
7.651601308423607
 20
14.896003928282017
 30
0.0
 10
7.662362145109762
 20
14.957544817036158
 30
0.0
 10
7.672753252549728
 20
15.021713679547219
 30
0.0
 10
7.682710226050433
 20
15.08851054636967
 30
0.0
 10
7.692168594006647
 20
15.157934245639568
 30
0.0
 10
7.701063859159737
 20
15.229982398121573
 30
0.0
 10
7.709331508174201
 20
15.304651418172519
 30
0.0
 10
7.716907033892866
 20
15.381936512619493
 30
0.0
 10
7.723725955506661
 20
15.461831680434516
 30
0.0
 10
7.729723838730326
 20
15.544329712703087
 30
0.0
 10
7.734836315982175
 20
15.629422192908477
 30
0.0
 10
7.738999106563315
 20
15.717099497532521
 30
0.0
 10
7.741914447039001
 20
15.800655894097286
 30
0.0
 10
7.4982571772110305
 20
15.934607611725804
 30
0.0
 10
7.239732615820665
 20
16.036964726542386
 30
0.0
 10
7.177209613706414
 20
15.981457566431374
 30
0.0
 10
7.112306551983422
 20
15.922362463837835
 30
0.0
 10
7.050000484771808
 20
15.864183244181675
 30
0.0
 10
6.990257853060491
 20
15.806975570854258
 30
0.0
 10
6.933044112484449
 20
15.75079440485677
 30
0.0
 10
6.878323745511205
 20
15.695693988657883
 30
0.0
 10
6.826060274572012
 20
15.641727830946165
 30
0.0
 10
6.776216274380275
 20
15.588948690550007
 30
0.0
 10
6.728753385391068
 20
15.537408561438298
 30
0.0
 10
6.683632327058738
 20
15.487158657525878
 30
0.0
 10
6.6408129115035
 20
15.438249397870944
 30
0.0
 10
6.600254057199842
 20
15.390730391858684
 30
0.0
 10
6.5619138031249
 20
15.344650424871208
 30
0.0
 10
6.525749322575128
 20
15.300057444501824
 30
0.0
 10
6.491716927619675
 20
15.256998530715187
 30
0.0
 10
6.45977219335746
 20
15.215520025124425
 30
0.0
 10
6.42986958891237
 20
15.175667022046664
 30
0.0
 10
6.401963148755028
 20
15.137484208370712
 30
0.0
 10
6.376005884299708
 20
15.101015058078659
 30
0.0
 10
6.362799841951829
 20
15.08195855080558
 30
0.0
 10
6.347853583306307
 20
15.061461949631399
 30
0.0
 10
6.333429170649932
 20
15.043713017860403
 30
0.0
 10
6.319593175472267
 20
15.028694999850309
 30
0.0
 10
6.306411825799398
 20
15.016389902114373
 30
0.0
 10
6.293950981522246
 20
15.006778502589375
 30
0.0
 10
6.282276127543895
 20
14.999840346358887
 30
0.0
 10
6.271452338712183
 20
14.995553763562988
 30
0.0
 10
6.261544255128593
 20
14.993895880692916
 30
0.0
 10
6.252616082957986
 20
14.994842610590991
 30
0.0
 10
6.075461180725527
 20
15.067571381803253
 30
0.0
 10
5.885641784918755
 20
15.14272619720701
 30
0.0
 10
5.706715149151787
 20
15.21098008031458
 30
0.0
 10
5.699558710524781
 20
15.216401698340967
 30
0.0
 10
5.693470927347181
 20
15.2243927928841
 30
0.0
 10
5.688515087917529
 20
15.234926970929349
 30
0.0
 10
5.684753981067505
 20
15.247976656660677
 30
0.0
 10
5.682249876455313
 20
15.263513099907323
 30
0.0
 10
5.681064504993275
 20
15.281506384898035
 30
0.0
 10
5.681259039414225
 20
15.301925439322199
 30
0.0
 10
5.682894074981318
 20
15.324738043693838
 30
0.0
 10
5.686029610345742
 20
15.34991084101897
 30
0.0
 10
5.68944789668032
 20
15.372842595008233
 30
0.0
 10
5.695490716384688
 20
15.417196430663736
 30
0.0
 10
5.701285731871949
 20
15.464133779047971
 30
0.0
 10
5.706768919369093
 20
15.513655019784332
 30
0.0
 10
5.711876211417645
 20
15.565759330824617
 30
0.0
 10
5.71654351697168
 20
15.62044468748332
 30
0.0
 10
5.720706741510241
 20
15.677707861760116
 30
0.0
 10
5.724301807165992
 20
15.737544422016391
 30
0.0
 10
5.727264672856792
 20
15.799948732939066
 30
0.0
 10
5.729531352278266
 20
15.864913955898682
 30
0.0
 10
5.731037944758091
 20
15.93243204916034
 30
0.0
 10
5.731720633942402
 20
16.002493769665836
 30
0.0
 10
5.731515729349968
 20
16.07508867329083
 30
0.0
 10
5.730359675752464
 20
16.15020511700107
 30
0.0
 10
5.728189075394776
 20
16.227830260528666
 30
0.0
 10
5.724940708046514
 20
16.307950068577213
 30
0.0
 10
5.720551551022566
 20
16.39054931331934
 30
0.0
 10
5.714958799168114
 20
16.475611577207918
 30
0.0
 10
5.7080998848034215
 20
16.56311925610125
 30
0.0
 10
5.700519843582244
 20
16.64638217457077
 30
0.0
 10
5.441995282191887
 20
16.748739289387363
 30
0.0
 10
5.172680516007353
 20
16.817887568546176
 30
0.0
 10
5.117607418302175
 20
16.7549818889447
 30
0.0
 10
5.060622716902336
 20
16.688218258292
 30
0.0
 10
5.00609974136636
 20
16.62268877828581
 30
0.0
 10
4.953998220833162
 20
16.55844446733566
 30
0.0
 10
4.904276994890356
 20
16.49553552350186
 30
0.0
 10
4.856894027687821
 20
16.43401131000782
 30
0.0
 10
4.811806422876379
 20
16.373920341758463
 30
0.0
 10
4.768970437844428
 20
16.315310270930887
 30
0.0
 10
4.728341498951272
 20
16.25822787378019
 30
0.0
 10
4.689874216584538
 20
16.202719037226405
 30
0.0
 10
4.653522400574282
 20
16.148828745881463
 30
0.0
 10
4.619239075630429
 20
16.096601069065308
 30
0.0
 10
4.586976497175623
 20
16.04607914836206
 30
0.0
 10
4.556686166780756
 20
15.997305185674689
 30
0.0
 10
4.528318840323157
 20
15.95032041417863
 30
0.0
 10
4.501824635061136
 20
15.905165242153046
 30
0.0
 10
4.477152727326553
 20
15.861878701800972
 30
0.0
 10
4.454251913289693
 20
15.820499366633317
 30
0.0
 10
4.433070126149108
 20
15.781064478595457
 30
0.0
 10
4.422356631066573
 20
15.760503081584082
 30
0.0
 10
4.410097133436939
 20
15.738294839306464
 30
0.0
 10
4.3980109925938935
 20
15.718878004883342
 30
0.0
 10
4.386166355129749
 20
15.702244298415726
 30
0.0
 10
4.374631182024698
 20
15.688384168873549
 30
0.0
 10
4.363473223008092
 20
15.677286800198393
 30
0.0
 10
4.35276001029581
 20
15.668940106201616
 30
0.0
 10
4.3425588215546975
 20
15.663330743937705
 30
0.0
 10
4.332936653990541
 20
15.660444121815294
 30
0.0
 10
4.323960226404778
 20
15.660264389777387
 30
0.0
 10
4.139086911420835
 20
15.710216276167046
 30
0.0
 10
3.9413449022138236
 20
15.760987794734001
 30
0.0
 10
3.7552746765394813
 20
15.806278021755366
 30
0.0
 10
3.7474951596501778
 20
15.810759949110329
 30
0.0
 10
3.7404538307424557
 20
15.81792502993528
 30
0.0
 10
3.7342167869895913
 20
15.827755011459491
 30
0.0
 10
3.728849778280763
 20
15.840230404837781
 30
0.0
 10
3.7244181866111874
 20
15.855330491060688
 30
0.0
 10
3.7209870055668506
 20
15.873033327186603
 30
0.0
 10
3.718620819908481
 20
15.893315752895772
 30
0.0
 10
3.717383785259845
 20
15.916153397362763
 30
0.0
 10
3.7173396079047647
 20
15.941520686448417
 30
0.0
 10
3.7178568291518257
 20
15.964700041587651
 30
0.0
 10
3.7182929897742385
 20
16.009461500134556
 30
0.0
 10
3.718159500185564
 20
16.05675504153685
 30
0.0
 10
3.7173927938799407
 20
16.10657301811798
 30
0.0
 10
3.715929411619895
 20
16.158906584530115
 30
0.0
 10
3.713706021496929
 20
16.21374569931496
 30
0.0
 10
3.7106594389702408
 20
16.271079126752372
 30
0.0
 10
3.7067266468772173
 20
16.330894439062224
 30
0.0
 10
3.7018448154107895
 20
16.393178018891653
 30
0.0
 10
3.6959513199252463
 20
16.45791506192541
 30
0.0
 10
3.688983771520791
 20
16.525089580962184
 30
0.0
 10
3.680880015516942
 20
16.59468440751806
 30
0.0
 10
3.671578172646812
 20
16.66668119728978
 30
0.0
 10
3.661016648093165
 20
16.741060433469624
 30
0.0
 10
3.6491341533234176
 20
16.817801431193395
 30
0.0
 10
3.6358697257066606
 20
16.896882342241287
 30
0.0
 10
3.6211627480633237
 20
16.978280160024998
 30
0.0
 10
3.604952968140263
 20
17.0619707248815
 30
0.0
 10
3.587180518006587
 20
17.147928729673414
 30
0.0
 10
3.5692246368666942
 20
17.229585064084556
 30
0.0
 10
3.299909870682172
 20
17.298733343243377
 30
0.0
 10
3.0240521544470487
 20
17.333582277074935
 30
0.0
 10
2.977297496800825
 20
17.264270138128342
 30
0.0
 10
2.929129838506225
 20
17.190890881754527
 30
0.0
 10
2.8832498145405374
 20
17.119044580443422
 30
0.0
 10
2.8396110772882057
 20
17.04877680303192
 30
0.0
 10
2.7981664994137745
 20
16.98013219298604
 30
0.0
 10
2.7588681896799474
 20
16.91315445579643
 30
0.0
 10
2.7216675094581593
 20
16.847886347475335
 30
0.0
 10
2.6865150886589277
 20
16.784369662045247
 30
0.0
 10
2.653360842498717
 20
16.722645220358004
 30
0.0
 10
2.622153988119745
 20
16.66275285867468
 30
0.0
 10
2.5928430615084737
 20
16.60473141772674
 30
0.0
 10
2.565375934438657
 20
16.548618731769384
 30
0.0
 10
2.53969983173895
 20
16.494451618220182
 30
0.0
 10
2.515761348103883
 20
16.44226586774256
 30
0.0
 10
2.4935064598281924
 20
16.392096216450913
 30
0.0
 10
2.472880613010216
 20
16.34397650202774
 30
0.0
 10
2.4538284927093996
 20
16.29793907900083
 30
0.0
 10
2.4362944643106648
 20
16.254015799175885
 30
0.0
 10
2.4202222039214076
 20
16.212237085133832
 30
0.0
 10
2.4121702143215993
 20
16.190495063897814
 30
0.0
 10
2.4027908173089427
 20
16.16692541776404
 30
0.0
 10
2.3932335539402327
 20
16.1461468957667
 30
0.0
 10
2.3835670711980605
 20
16.12815982432905
 30
0.0
 10
2.3738599912314737
 20
16.112963245503153
 30
0.0
 10
2.3641808851545463
 20
16.100554919811096
 30
0.0
 10
2.3545982674725705
 20
16.09093132039843
 30
0.0
 10
2.345180557662398
 20
16.08408764166028
 30
0.0
 10
2.335996053448168
 20
16.080017804040782
 30
0.0
 10
2.327112934072533
 20
16.0787144445485
 30
0.0
 10
2.137436768952368
 20
16.10510167502738
 30
0.0
 10
1.9348906559556631
 20
16.1306891995803
 30
0.0
 10
1.7446112789857968
 20
16.15230151658026
 30
0.0
 10
1.736331371462796
 20
16.155773070592037
 30
0.0
 10
1.7284475427881136
 20
16.161999140093986
 30
0.0
 10
1.7210276566178486
 20
16.170969900416374
 30
0.0
 10
1.7141393869836494
 20
16.18267425703561
 30
0.0
 10
1.7078501971046238
 20
16.19709984885469
 30
0.0
 10
1.7022273182527463
 20
16.214233051814936
 30
0.0
 10
1.6973377286763802
 20
16.23405898283955
 30
0.0
 10
1.6932481325873932
 20
16.2565615041061
 30
0.0
 10
1.6900249392160873
 20
16.281723227649703
 30
0.0
 10
1.6876329384875932
 20
16.304784631661693
 30
0.0
 10
1.682455561514485
 20
16.349247798159517
 30
0.0
 10
1.6763956720604318
 20
16.39615168518016
 30
0.0
 10
1.669391163368488
 20
16.445480738355567
 30
0.0
 10
1.6613801852122698
 20
16.497218228534667
 30
0.0
 10
1.652301163602729
 20
16.551346255846198
 30
0.0
 10
1.642092820437178
 20
16.607845754044213
 30
0.0
 10
1.630694193076024
 20
16.66669649520058
 30
0.0
 10
1.618044653850858
 20
16.727877094676447
 30
0.0
 10
1.6040839274027079
 20
16.791365015943665
 30
0.0
 10
1.588752120514522
 20
16.857136578462228
 30
0.0
 10
1.5719897203956437
 20
16.925166959079764
 30
0.0
 10
1.5537376348665306
 20
16.995430202614717
 30
0.0
 10
1.5339372009081
 20
17.067899226277607
 30
0.0
 10
1.512530205767071
 20
17.142545826820594
 30
0.0
 10
1.4894589058291208
 20
17.219340687659965
 30
0.0
 10
1.4646660453893527
 20
17.298253386274098
 30
0.0
 10
1.4380948753103229
 20
17.379252401896434
 30
0.0
 10
1.4096891715630187
 20
17.46230512350253
 30
0.0
 10
1.3816406254763205
 20
17.541067104682536
 30
0.0
 10
1.105782909241203
 20
17.575916038514084
 30
0.0
 10
0.8277326839299199
 20
17.575916038514077
 30
0.0
 10
0.790033815223611
 20
17.501290534058615
 30
0.0
 10
0.7514428327795204
 20
17.422452886671344
 30
0.0
 10
0.7149293157694576
 20
17.345422823145903
 30
0.0
 10
0.6804415707529798
 20
17.27023974409876
 30
0.0
 10
0.6479272466977944
 20
17.196942034347536
 30
0.0
 10
0.6173333522528489
 20
17.12556705238839
 30
0.0
 10
0.588606273570422
 20
17.05615112105306
 30
0.0
 10
0.5616917916789516
 20
16.988729517092718
 30
0.0
 10
0.5365351005190208
 20
16.923336462186732
 30
0.0
 10
0.5130808248634368
 20
16.860005113695575
 30
0.0
 10
0.4912730384733098
 20
16.79876755592872
 30
0.0
 10
0.4710552822794861
 20
16.739654791407798
 30
0.0
 10
0.4523705828126122
 20
16.682696732751182
 30
0.0
 10
0.43516147012442674
 20
16.627922194942595
 30
0.0
 10
0.4193699929131792
 20
16.575358869226125
 30
0.0
 10
0.404937786464851
 20
16.525033489047143
 30
0.0
 10
0.39180591691612954
 20
16.476971221007954
 30
0.0
 10
0.3799151962576889
 20
16.43119669288706
 30
0.0
 10
0.36920593176720196
 20
16.38773302811865
 30
0.0
 10
0.3639424323361341
 20
16.365153267320935
 30
0.0
 10
0.35759105463432495
 20
16.340593924730356
 30
0.0
 10
0.35071339249250755
 20
16.318781404863184
 30
0.0
 10
0.3433775106796283
 20
16.29972463531703
 30
0.0
 10
0.33565161030130686
 20
16.283431266333494
 30
0.0
 10
0.32760400244890897
 20
16.26990767033307
 30
0.0
 10
0.3193031034024626
 20
16.259158935416107
 30
0.0
 10
0.3108173954328043
 20
16.251188869105636
 30
0.0
 10
0.302215399686515
 20
16.245999999759515
 30
0.0
 10
0.2935656806200809
 20
16.243593567570638
 30
0.0
 10
0.10207797179468792
 20
16.245999999751124
 30
0.0
 10
-0.10207797179457023
 20
16.245999999742562
 30
0.0
 10
-0.2935656806177557
 20
16.24359356757146
 30
0.0
 10
-0.3022153996866387
 20
16.24599999975948
 30
0.0
 10
-0.31081739544051057
 20
16.2511888691031
 30
0.0
 10
-0.3193031079908458
 20
16.25915893397451
 30
0.0
 10
-0.3276040064234319
 20
16.26990766913897
 30
0.0
 10
-0.33565161023053525
 20
16.2834312663538
 30
0.0
 10
-0.3433775107315148
 20
16.299724635302823
 30
0.0
 10
-0.3507133924773589
 20
16.31878140486718
 30
0.0
 10
-0.35759105463336716
 20
16.34059392473056
 30
0.0
 10
-0.36394243233599055
 20
16.365153267320952
 30
0.0
 10
-0.36920593175963956
 20
16.38773302808821
 30
0.0
 10
-0.37991519600058765
 20
16.43119669184027
 30
0.0
 10
-0.39180591724332625
 20
16.476971222161925
 30
0.0
 10
-0.404937763035228
 20
16.52503340329528
 30
0.0
 10
-0.41936999917656925
 20
16.575358886114746
 30
0.0
 10
-0.4351614706783573
 20
16.627922194627743
 30
0.0
 10
-0.45237058281288156
 20
16.68269673274861
 30
0.0
 10
-0.47105528227947124
 20
16.739654791407727
 30
0.0
 10
-0.4912730384733259
 20
16.79876755592878
 30
0.0
 10
-0.5130808268882614
 20
16.86000511298523
 30
0.0
 10
-0.5365351005067737
 20
16.92333646215464
 30
0.0
 10
-0.5616917916774349
 20
16.98872951709212
 30
0.0
 10
-0.5886062735734688
 20
17.05615112106653
 30
0.0
 10
-0.6173333522649523
 20
17.125567052418408
 30
0.0
 10
-0.64792724667597
 20
17.19694203429833
 30
0.0
 10
-0.6804415707529662
 20
17.270239744098717
 30
0.0
 10
-0.7149293157694926
 20
17.345422823145974
 30
0.0
 10
-0.7514428327794982
 20
17.422452886671298
 30
0.0
 10
-0.7900338152235911
 20
17.50129053405857
 30
0.0
 10
-0.8277326839299213
 20
17.575916038514077
 30
0.0
 10
-1.1057829092411915
 20
17.575916038514077
 30
0.0
 10
-1.3816406254763176
 20
17.54106710468253
 30
0.0
 10
-1.4096891715630002
 20
17.462305123502578
 30
0.0
 10
-1.4380948753103024
 20
17.379252401896483
 30
0.0
 10
-1.4646660453893747
 20
17.298253386274023
 30
0.0
 10
-1.4894589058291083
 20
17.219340687660008
 30
0.0
 10
-1.512530205751582
 20
17.142545826872148
 30
0.0
 10
-1.5339372009163421
 20
17.06789922624631
 30
0.0
 10
-1.5537376348678613
 20
16.99543020260097
 30
0.0
 10
-1.5719897203942097
 20
16.92516695908055
 30
0.0
 10
-1.5887521205063897
 20
16.8571365784956
 30
0.0
 10
-1.604083929500592
 20
16.791365016394625
 30
0.0
 10
-1.618044653850862
 20
16.727877094676384
 30
0.0
 10
-1.6306941930760144
 20
16.66669649520065
 30
0.0
 10
-1.6420928204377643
 20
16.60784575404673
 30
0.0
 10
-1.6523011641917498
 20
16.55134625608914
 30
0.0
 10
-1.6613801893095617
 20
16.49721821099421
 30
0.0
 10
-1.6693911508711692
 20
16.445480826367763
 30
0.0
 10
-1.6763956722404136
 20
16.39615168399428
 30
0.0
 10
-1.6824555613906045
 20
16.349247799230273
 30
0.0
 10
-1.6876329384839017
 20
16.304784631692844
 30
0.0
 10
-1.6900249392159385
 20
16.281723227649707
 30
0.0
 10
-1.6932481325864137
 20
16.25656150410602
 30
0.0
 10
-1.6973377286608466
 20
16.234058982837485
 30
0.0
 10
-1.7022273183059997
 20
16.21423305182253
 30
0.0
 10
-1.707850197031861
 20
16.19709984884341
 30
0.0
 10
-1.7141393910764886
 20
16.182674257722155
 30
0.0
 10
-1.7210276613507265
 20
16.170969901271523
 30
0.0
 10
-1.728447542796073
 20
16.161999140095535
 30
0.0
 10
-1.7363313714629192
 20
16.155773070592062
 30
0.0
 10
-1.7446112789833834
 20
16.15230151657974
 30
0.0
 10
-1.934890655956615
 20
16.130689199588808
 30
0.0
 10
-2.1374367689511744
 20
16.1051016750189
 30
0.0
 10
-2.3271129340703247
 20
16.078714444549604
 30
0.0
 10
-2.3359960534482815
 20
16.08001780404073
 30
0.0
 10
-2.345180557669722
 20
16.084087641656797
 30
0.0
 10
-2.3545982718440897
 20
16.090931318393125
 30
0.0
 10
-2.364180888948064
 20
16.100554918128275
 30
0.0
 10
-2.373859991163802
 20
16.112963245532175
 30
0.0
 10
-2.3835670712477537
 20
16.128159824308455
 30
0.0
 10
-2.393233553925701
 20
16.14614689577256
 30
0.0
 10
-2.4027908173080137
 20
16.16692541776436
 30
0.0
 10
-2.412170214321455
 20
16.190495063897853
 30
0.0
 10
-2.4202222039100856
 20
16.21223708510458
 30
0.0
 10
-2.4362944639243898
 20
16.254015798169576
 30
0.0
 10
-2.4538284931786434
 20
16.297939080104694
 30
0.0
 10
-2.4728805790177804
 20
16.343976419888563
 30
0.0
 10
-2.4935064681588957
 20
16.392096232421352
 30
0.0
 10
-2.51576134861398
 20
16.442265867360764
 30
0.0
 10
-2.539699831738891
 20
16.4944516182176
 30
0.0
 10
-2.5653759344386295
 20
16.548618731769313
 30
0.0
 10
-2.5928430615084936
 20
16.604731417726803
 30
0.0
 10
-2.6221539900395694
 20
16.662752857716157
 30
0.0
 10
-2.6533608424825403
 20
16.722645220327703
 30
0.0
 10
-2.686515088657344
 20
16.784369662044845
 30
0.0
 10
-2.721667509462866
 20
16.847886347488323
 30
0.0
 10
-2.758868189695713
 20
16.913154455824692
 30
0.0
 10
-2.798166499385951
 20
16.980132192939962
 30
0.0
 10
-2.8396110772881826
 20
17.04877680303188
 30
0.0
 10
-2.883249814540577
 20
17.11904458044349
 30
0.0
 10
-2.929129838506192
 20
17.19089088175448
 30
0.0
 10
-2.977297496800795
 20
17.2642701381283
 30
0.0
 10
-3.024052154447045
 20
17.333582277074928
 30
0.0
 10
-3.2999098706821663
 20
17.29873334324338
 30
0.0
 10
-3.569224636866696
 20
17.229585064084564
 30
0.0
 10
-3.5871805180065772
 20
17.147928729673463
 30
0.0
 10
-3.6049529681402523
 20
17.061970724881558
 30
0.0
 10
-3.6211627480633384
 20
16.978280160024916
 30
0.0
 10
-3.635869725706657
 20
16.896882342241334
 30
0.0
 10
-3.649134153314515
 20
16.81780143124648
 30
0.0
 10
-3.661016648097422
 20
16.741060433437546
 30
0.0
 10
-3.6715781726464116
 20
16.666681197275974
 30
0.0
 10
-3.680880015515621
 20
16.594684407519015
 30
0.0
 10
-3.688983771516908
 20
16.525089580996312
 30
0.0
 10
-3.6959513220631113
 20
16.457915062109883
 30
0.0
 10
-3.701844815410788
 20
16.393178018891593
 30
0.0
 10
-3.70672664687722
 20
16.3308944390623
 30
0.0
 10
-3.710659438971141
 20
16.2710791267548
 30
0.0
 10
-3.7137060221117575
 20
16.213745699482164
 30
0.0
 10
-3.7159294134864793
 20
16.15890656661444
 30
0.0
 10
-3.717392792512023
 20
16.106573107002507
 30
0.0
 10
-3.7181595002154992
 20
16.05675504033776
 30
0.0
 10
-3.718292989785539
 20
16.009461501212396
 30
0.0
 10
-3.717856829152071
 20
15.964700041619016
 30
0.0
 10
-3.7173396079046204
 20
15.941520686448435
 30
0.0
 10
-3.7173837852588676
 20
15.916153397362809
 30
0.0
 10
-3.7186208198928146
 20
15.893315752895674
 30
0.0
 10
-3.7209870056206387
 20
15.873033327187459
 30
0.0
 10
-3.7244181865375876
 20
15.855330491058618
 30
0.0
 10
-3.728849782427379
 20
15.840230405005943
 30
0.0
 10
-3.7342167917923312
 20
15.82775501171471
 30
0.0
 10
-3.74045383075055
 20
15.817925029935823
 30
0.0
 10
-3.747495159650306
 20
15.810759949110334
 30
0.0
 10
-3.7552746765370255
 20
15.806278021755151
 30
0.0
 10
-3.941344902215838
 20
15.760987794742324
 30
0.0
 10
-4.139086911418591
 20
15.710216276158786
 30
0.0
 10
-4.323960226402729
 20
15.66026438977876
 30
0.0
 10
-4.332936653990651
 20
15.660444121815226
 30
0.0
 10
-4.342558821561529
 20
15.663330743933331
 30
0.0
 10
-4.352760014381531
 20
15.66894010366423
 30
0.0
 10
-4.363473226560787
 20
15.677286798053387
 30
0.0
 10
-4.374631181961202
 20
15.688384168910822
 30
0.0
 10
-4.3861663551764725
 20
15.702244298389065
 30
0.0
 10
-4.398010992580213
 20
15.718878004890978
 30
0.0
 10
-4.410097133436061
 20
15.738294839306898
 30
0.0
 10
-4.422356631066437
 20
15.760503081584135
 30
0.0
 10
-4.433070126134212
 20
15.78106447856785
 30
0.0
 10
-4.454251912780343
 20
15.820499365683359
 30
0.0
 10
-4.477152727930451
 20
15.86187870283732
 30
0.0
 10
-4.501824591041975
 20
15.905165164921945
 30
0.0
 10
-4.5283188505898
 20
15.950320428979023
 30
0.0
 10
-4.556686167238984
 20
15.997305185231973
 30
0.0
 10
-4.586976497175244
 20
16.046079148359503
 30
0.0
 10
-4.619239075630397
 20
16.096601069065244
 30
0.0
 10
-4.653522400574312
 20
16.148828745881524
 30
0.0
 10
-4.689874218369094
 20
16.20271903603483
 30
0.0
 10
-4.728341498931428
 20
16.25822787375216
 30
0.0
 10
-4.76897043784281
 20
16.315310270930684
 30
0.0
 10
-4.81180642288268
 20
16.373920341770756
 30
0.0
 10
-4.856894027707009
 20
16.434011310033885
 30
0.0
 10
-4.904276994856979
 20
16.495535523459626
 30
0.0
 10
-4.953998220833138
 20
16.55844446733563
 30
0.0
 10
-5.006099741366412
 20
16.622688778285873
 30
0.0
 10
-5.0606227169023015
 20
16.68821825829196
 30
0.0
 10
-5.117607418302144
 20
16.754981888944666
 30
0.0
 10
-5.172680516007349
 20
16.81788756854616
 30
0.0
 10
-5.441995282191875
 20
16.74873928938733
 30
0.0
 10
-5.70051984358224
 20
16.646382174570764
 30
0.0
 10
-5.70809988480342
 20
16.5631192561013
 30
0.0
 10
-5.714958799168111
 20
16.475611577207975
 30
0.0
 10
-5.720551551022572
 20
16.390549313319266
 30
0.0
 10
-5.724940708046516
 20
16.30795006857726
 30
0.0
 10
-5.7281890753925975
 20
16.22783026058245
 30
0.0
 10
-5.730359675752668
 20
16.15020511696871
 30
0.0
 10
-5.731515729347842
 20
16.075088673277182
 30
0.0
 10
-5.731720633941211
 20
16.00249376966695
 30
0.0
 10
-5.731037944758517
 20
15.932432049194688
 30
0.0
 10
-5.729531354422394
 20
15.864913955813755
 30
0.0
 10
-5.7272646728567835
 20
15.799948732939004
 30
0.0
 10
-5.724301807166004
 20
15.737544422016464
 30
0.0
 10
-5.720706741511438
 20
15.677707861762409
 30
0.0
 10
-5.716543517602617
 20
15.620444687572148
 30
0.0
 10
-5.711876211024081
 20
15.565759312816267
 30
0.0
 10
-5.706768929152147
 20
15.513655108139421
 30
0.0
 10
-5.701285731751362
 20
15.464133777854586
 30
0.0
 10
-5.69549071653099
 20
15.417196431731659
 30
0.0
 10
-5.689447896684495
 20
15.372842595039323
 30
0.0
 10
-5.686029610345603
 20
15.349910841019007
 30
0.0
 10
-5.6828940749803545
 20
15.324738043694007
 30
0.0
 10
-5.681259039398671
 20
15.301925439324064
 30
0.0
 10
-5.681064505046748
 20
15.281506384892142
 30
0.0
 10
-5.682249876382035
 20
15.263513099914492
 30
0.0
 10
-5.684753985202501
 20
15.247976656307804
 30
0.0
 10
-5.688515092714385
 20
15.234926970580611
 30
0.0
 10
-5.693470927355279
 20
15.224392792883624
 30
0.0
 10
-5.69955871052491
 20
15.216401698340956
 30
0.0
 10
-5.706715149149323
 20
15.210980080314673
 30
0.0
 10
-5.885641784921796
 20
15.142726197215012
 30
0.0
 10
-6.075461180722266
 20
15.067571381795338
 30
0.0
 10
-6.252616082956125
 20
14.99484261059261
 30
0.0
 10
-6.261544255128693
 20
14.993895880692836
 30
0.0
 10
-6.271452338718414
 20
14.995553763557792
 30
0.0
 10
-6.28227613127938
 20
14.999840343329433
 30
0.0
 10
-6.293950984778086
 20
15.00677850001601
 30
0.0
 10
-6.3064118257410735
 20
15.01638990215931
 30
0.0
 10
-6.319593175515281
 20
15.028694999818
 30
0.0
 10
-6.333429170637317
 20
15.043713017869694
 30
0.0
 10
-6.34785358330549
 20
15.061461949631939
 30
0.0
 10
-6.362799841951702
 20
15.08195855080565
 30
0.0
 10
-6.37600588428147
 20
15.10101505805314
 30
0.0
 10
-6.401963148130633
 20
15.137484207492081
 30
0.0
 10
-6.429869589641394
 20
15.175667022999153
 30
0.0
 10
-6.45977214000578
 20
15.215519954019378
 30
0.0
 10
-6.491716939660343
 20
15.256998544112124
 30
0.0
 10
-6.525749322974254
 20
15.300057444005168
 30
0.0
 10
-6.561913803124203
 20
15.344650424868718
 30
0.0
 10
-6.600254057199802
 20
15.390730391858623
 30
0.0
 10
-6.640812911503537
 20
15.438249397870996
 30
0.0
 10
-6.683632328679877
 20
15.487158656120032
 30
0.0
 10
-6.728753385367868
 20
15.53740856141297
 30
0.0
 10
-6.776216274378645
 20
15.588948690550012
 30
0.0
 10
-6.826060274579805
 20
15.64172783095757
 30
0.0
 10
-6.878323745533507
 20
15.695693988681336
 30
0.0
 10
-6.933044112446043
 20
15.750794404819052
 30
0.0
 10
-6.990257853060463
 20
15.806975570854224
 30
0.0
 10
-7.050000484771867
 20
15.864183244181728
 30
0.0
 10
-7.112306551983383
 20
15.9223624638378
 30
0.0
 10
-7.177209613706379
 20
15.981457566431342
 30
0.0
 10
-7.239732615820668
 20
16.03696472654239
 30
0.0
 10
-7.498257177211025
 20
15.934607611725804
 30
0.0
 10
-7.741914447038999
 20
15.800655894097275
 30
0.0
 10
-7.738999106563322
 20
15.71709949753257
 30
0.0
 10
-7.734836315982183
 20
15.62942219290853
 30
0.0
 10
-7.729723838730324
 20
15.544329712703005
 30
0.0
 10
-7.723725955506672
 20
15.461831680434557
 30
0.0
 10
-7.716907033897451
 20
15.381936512673125
 30
0.0
 10
-7.709331508170351
 20
15.304651418140384
 30
0.0
 10
-7.701063859155919
 20
15.229982398108298
 30
0.0
 10
-7.69216859400561
 20
15.15793424564082
 30
0.0
 10
-7.682710226055163
 20
15.088510546403691
 30
0.0
 10
-7.672753254666309
 20
15.021713679194228
 30
0.0
 10
-7.662362145109749
 20
14.957544817036094
 30
0.0
 10
-7.651601308423632
 20
14.896003928282084
 30
0.0
 10
-7.6405350813535415
 20
14.83708977838131
 30
0.0
 10
-7.629227706923314
 20
14.780799931737764
 30
0.0
 10
-7.617743308604376
 20
14.727130736121088
 30
0.0
 10
-7.606145910721027
 20
14.676077500812623
 30
0.0
 10
-7.594499281514496
 20
14.627633887868901
 30
0.0
 10
-7.582867152355509
 20
14.581792964735783
 30
0.0
 10
-7.571312972174774
 20
14.538546237444821
 30
0.0
 10
-7.565047529161988
 20
14.516223732034442
 30
0.0
 10
-7.558781730343032
 20
14.49164241652138
 30
0.0
 10
-7.554300410033563
 20
14.469214620647135
 30
0.0
 10
-7.551548223524832
 20
14.44898095817765
 30
0.0
 10
-7.550469091264396
 20
14.43098098920396
 30
0.0
 10
-7.551006221723555
 20
14.415253207039953
 30
0.0
 10
-7.553102112470133
 20
14.401835030216224
 30
0.0
 10
-7.556698586320944
 20
14.390762786876229
 30
0.0
 10
-7.561736815783198
 20
14.382071702950967
 30
0.0
 10
-7.568157314833148
 20
14.37579589640858
 30
0.0
 10
-7.737118580767559
 20
14.285654761731458
 30
0.0
 10
-7.916021797901361
 20
14.187301885810129
 30
0.0
 10
-8.082664448749505
 20
14.092943205952627
 30
0.0
 10
-8.091403562898126
 20
14.09088494461268
 30
0.0
 10
-8.101441306109676
 20
14.091287942421335
 30
0.0
 10
-8.1127170007371
 20
14.094184140310043
 30
0.0
 10
-8.125169376141361
 20
14.099604340418436
 30
0.0
 10
-8.13873658776119
 20
14.107578196294227
 30
0.0
 10
-8.153356236334238
 20
14.118134203392582
 30
0.0
 10
-8.168965387266272
 20
14.131299689878048
 30
0.0
 10
-8.185500590142267
 20
14.14710080773003
 30
0.0
 10
-8.202897898377003
 20
14.165562524155632
 30
0.0
 10
-8.218388220792315
 20
14.182813609163794
 30
0.0
 10
-8.248711600287493
 20
14.215741880653905
 30
0.0
 10
-8.281183566905781
 20
14.250126008704234
 30
0.0
 10
-8.315845223440865
 20
14.285916904130884
 30
0.0
 10
-8.352736774628715
 20
14.32306467811542
 30
0.0
 10
-8.391897513592532
 20
14.361518657075106
 30
0.0
 10
-8.433365808500593
 20
14.401227397727904
 30
0.0
 10
-8.477179089486507
 20
14.442138702395704
 30
0.0
 10
-8.523373835789007
 20
14.484199634492882
 30
0.0
 10
-8.571985564558958
 20
14.527356532618086
 30
0.0
 10
-8.62304881135462
 20
14.571555034462326
 30
0.0
 10
-8.676597132352137
 20
14.616740076932807
 30
0.0
 10
-8.732663078056053
 20
14.662855928334896
 30
0.0
 10
-8.791278188981504
 20
14.70984619697418
 30
0.0
 10
-8.852472982782032
 20
14.757653849345978
 30
0.0
 10
-8.916276943167393
 20
14.806221226990948
 30
0.0
 10
-8.98271850906632
 20
14.855490063513129
 30
0.0
 10
-9.051825064053697
 20
14.905401501770626
 30
0.0
 10
-9.123622926045263
 20
14.9558961112354
 30
0.0
 10
-9.192609807475845
 20
15.00312937078264
 30
0.0
 10
-9.436267077303814
 20
14.869177653154123
 30
0.0
 10
-9.661214434870429
 20
14.705743831319564
 30
0.0
 10
-9.647849689358738
 20
14.623211690947615
 30
0.0
 10
-9.632730843525962
 20
14.536747484062662
 30
0.0
 10
-9.61699376398809
 20
14.45296674678495
 30
0.0
 10
-9.60070343071824
 20
14.371870970240867
 30
0.0
 10
-9.583924758620917
 20
14.29346043723547
 30
0.0
 10
-9.566722577372765
 20
14.217734223892384
 30
0.0
 10
-9.549161611512542
 20
14.14469020257076
 30
0.0
 10
-9.531306460263744
 20
14.074325043649928
 30
0.0
 10
-9.51322157765828
 20
14.00663421885661
 30
0.0
 10
-9.4949712526035
 20
13.94161200431702
 30
0.0
 10
-9.47661958906105
 20
13.87925148416436
 30
0.0
 10
-9.458230486202348
 20
13.819544554157277
 30
0.0
 10
-9.439867618728268
 20
13.762481925947325
 30
0.0
 10
-9.4215944178261
 20
13.708053131357987
 30
0.0
 10
-9.403474043588696
 20
13.656246510155814
 30
0.0
 10
-9.385569427586505
 20
13.607049384234271
 30
0.0
 10
-9.36794304087417
 20
13.560447473346596
 30
0.0
 10
-9.350657243402104
 20
13.516425911945134
 30
0.0
 10
-9.33377391921071
 20
13.474968320779269
 30
0.0
 10
-9.324760129303138
 20
13.453607103223966
 30
0.0
 10
-9.315462882420857
 20
13.430004931552649
 30
0.0
 10
-9.308205950481895
 20
13.408315643912754
 30
0.0
 10
-9.302939515441674
 20
13.388586470349857
 30
0.0
 10
-9.2996128981459
 20
13.370863687643496
 30
0.0
 10
-9.298174579375548
 20
13.35519260344222
 30
0.0
 10
-9.298572199907722
 20
13.341617548186097
 30
0.0
 10
-9.300752594427392
 20
13.330181855094807
 30
0.0
 10
-9.304661814293958
 20
13.32092784537225
 30
0.0
 10
-9.310245118664009
 20
13.313896823531916
 30
0.0
 10
-9.466576394664003
 20
13.203290016818896
 30
0.0
 10
-9.631742022525334
 20
13.083290164002351
 30
0.0
 10
-9.785244367836395
 20
12.968789668238573
 30
0.0
 10
-9.79365660291045
 20
12.96565233546933
 30
0.0
 10
-9.803665704537128
 20
12.964794092705501
 30
0.0
 10
-9.815215476790963
 20
12.966254233940466
 30
0.0
 10
-9.828248992701969
 20
12.970070997677096
 30
0.0
 10
-9.842708611946733
 20
12.976281554814868
 30
0.0
 10
-9.85853599872727
 20
12.984921996815093
 30
0.0
 10
-9.875672139834647
 20
12.996027324147773
 30
0.0
 10
-9.89405736289146
 20
13.00963143502184
 30
0.0
 10
-9.913631354771208
 20
13.025767114402804
 30
0.0
 10
-9.931161665634107
 20
13.040940717255763
 30
0.0
 10
-9.965372942966347
 20
13.069808812285247
 30
0.0
 10
-10.001898332380781
 20
13.099851994639396
 30
0.0
 10
-10.040772460057136
 20
13.131016410671146
 30
0.0
 10
-10.082028960978095
 20
13.163247525960736
 30
0.0
 10
-10.125700467344867
 20
13.196490141767576
 30
0.0
 10
-10.17181859722838
 20
13.230688411648677
 30
0.0
 10
-10.220413943510678
 20
13.265785858280529
 30
0.0
 10
-10.271516063067349
 20
13.301725390437353
 30
0.0
 10
-10.325153467428963
 20
13.338449318374611
 30
0.0
 10
-10.381353606426627
 20
13.375899379993166
 30
0.0
 10
-10.440142870400535
 20
13.41401674068509
 30
0.0
 10
-10.501546568151285
 20
13.452742028556823
 30
0.0
 10
-10.565588923734222
 20
13.492015343504557
 30
0.0
 10
-10.632293065968508
 20
13.531776276873629
 30
0.0
 10
-10.701681019554893
 20
13.571963929570188
 30
0.0
 10
-10.77377369645685
 20
13.612516930303316
 30
0.0
 10
-10.848590887565681
 20
13.653373453965273
 30
0.0
 10
-10.92615125465225
 20
13.694471240146001
 30
0.0
 10
-11.00051405106821
 20
13.732685702410611
 30
0.0
 10
-11.225461408634818
 20
13.569251880576042
 30
0.0
 10
-11.428151299734196
 20
13.378913403536387
 30
0.0
 10
-11.404547919206923
 20
13.298707100513171
 30
0.0
 10
-11.378711451352855
 20
13.214819583561095
 30
0.0
 10
-11.352597952674163
 20
13.13367186148625
 30
0.0
 10
-11.326272077645156
 20
13.055257269506903
 30
0.0
 10
-11.299798264741797
 20
12.979567952203215
 30
0.0
 10
-11.27324071664696
 20
12.906594867670854
 30
0.0
 10
-11.246663380862971
 20
12.83632779291032
 30
0.0
 10
-11.220129929917032
 20
12.768755328126424
 30
0.0
 10
-11.193703742058622
 20
12.703864902520442
 30
0.0
 10
-11.167447881866252
 20
12.641642779816408
 30
0.0
 10
-11.141425081034722
 20
12.582074064324395
 30
0.0
 10
-11.115697719140636
 20
12.52514270701764
 30
0.0
 10
-11.09032780465208
 20
12.470831512232943
 30
0.0
 10
-11.065376956572077
 20
12.419122144302676
 30
0.0
 10
-11.04090637554252
 20
12.369995118879139
 30
0.0
 10
-11.016976907911538
 20
12.323429970409236
 30
0.0
 10
-10.99364874234135
 20
12.279404701550938
 30
0.0
 10
-10.970981883908374
 20
12.237896748201644
 30
0.0
 10
-10.949035675814429
 20
12.198882104139125
 30
0.0
 10
-10.93741569186349
 20
12.178819053600318
 30
0.0
 10
-10.925233620055122
 20
12.156568246117258
 30
0.0
 10
-10.915315522638425
 20
12.135959519734346
 30
0.0
 10
-10.907617893893313
 20
12.117045975930758
 30
0.0
 10
-10.902096254304185
 20
12.099879878362085
 30
0.0
 10
-10.898705169450537
 20
12.084512634482847
 30
0.0
 10
-10.897398249054985
 20
12.070994787525063
 30
0.0
 10
-10.898128178119435
 20
12.059375992393875
 30
0.0
 10
-10.900846737657764
 20
12.049704998135432
 30
0.0
 10
-10.905504795302694
 20
12.042029644411699
 30
0.0
 10
-11.046740643757975
 20
11.912701501077951
 30
0.0
 10
-11.1955639217303
 20
11.772947140729544
 30
0.0
 10
-11.333505137820865
 20
11.640110570276963
 30
0.0
 10
-11.341457827848012
 20
11.635943643690348
 30
0.0
 10
-11.351280438378016
 20
11.633837695355112
 30
0.0
 10
-11.362922141450316
 20
11.633838752636812
 30
0.0
 10
-11.376331251536305
 20
11.635991887357527
 30
0.0
 10
-11.391455241572759
 20
11.64034120156121
 30
0.0
 10
-11.408240759216433
 20
11.646929813531408
 30
0.0
 10
-11.426633643317254
 20
11.655799844065271
 30
0.0
 10
-11.446578940604478
 20
11.666992403006232
 30
0.0
 10
-11.468020922584362
 20
11.68054757603973
 30
0.0
 10
-11.487314758420439
 20
11.693404399956226
 30
0.0
 10
-11.524874401309388
 20
11.717757051421506
 30
0.0
 10
-11.564877186309692
 20
11.742985489146822
 30
0.0
 10
-11.607350716911581
 20
11.769031944326132
 30
0.0
 10
-11.652321527900687
 20
11.795838096978725
 30
0.0
 10
-11.699815075926917
 20
11.823345093723267
 30
0.0
 10
-11.749855730327985
 20
11.851493565687587
 30
0.0
 10
-11.80246676426634
 20
11.880223646583913
 30
0.0
 10
-11.857670346124848
 20
11.909474990909034
 30
0.0
 10
-11.915487532169912
 20
11.939186790376963
 30
0.0
 10
-11.975938253605248
 20
11.969297801926524
 30
0.0
 10
-12.039041318743676
 20
11.999746347291575
 30
0.0
 10
-12.10481439554694
 20
12.03047035070985
 30
0.0
 10
-12.173274009582768
 20
12.061407348328565
 30
0.0
 10
-12.244435536080656
 20
12.09249450902365
 30
0.0
 10
-12.318313193389656
 20
12.123668653481836
 30
0.0
 10
-12.394920036713819
 20
12.154866273379161
 30
0.0
 10
-12.474267952146693
 20
12.186023550660922
 30
0.0
 10
-12.556367651006992
 20
12.217076376918907
 30
0.0
 10
-12.63493361668666
 20
12.245669377002752
 30
0.0
 10
-12.837623507786027
 20
12.055330899963103
 30
0.0
 10
-13.014859391754475
 20
11.841089519203976
 30
0.0
 10
-12.981389615622511
 20
11.764473954841094
 30
0.0
 10
-12.945242982279167
 20
11.684486084076202
 30
0.0
 10
-12.909164889933262
 20
11.607251125256646
 30
0.0
 10
-12.873218647920618
 20
11.532754362800153
 30
0.0
 10
-12.837467202055404
 20
11.460979926946665
 30
0.0
 10
-12.801973115512046
 20
11.39191080036011
 30
0.0
 10
-12.766798550266138
 20
11.32552882590515
 30
0.0
 10
-12.732005247994788
 20
11.261814713393667
 30
0.0
 10
-12.697654511652201
 20
11.20074804775049
 30
0.0
 10
-12.66380718692196
 20
11.142307296926749
 30
0.0
 10
-12.630523643915735
 20
11.086469820323318
 30
0.0
 10
-12.597863758852112
 20
11.033211877230766
 30
0.0
 10
-12.565886896055822
 20
10.982508635857013
 30
0.0
 10
-12.534651890577118
 20
10.934334182207754
 30
0.0
 10
-12.50421701843626
 20
10.888661515100843
 30
0.0
 10
-12.4746400811758
 20
10.845462704290627
 30
0.0
 10
-12.445978035854369
 20
10.80470838225102
 30
0.0
 10
-12.418287586358495
 20
10.766368642173859
 30
0.0
 10
-12.391624599173669
 20
10.730412229457773
 30
0.0
 10
-12.377581675267713
 20
10.711963752227541
 30
0.0
 10
-12.362706897082893
 20
10.691415217458736
 30
0.0
 10
-12.350284048509508
 20
10.672212064258922
 30
0.0
 10
-12.340276622263158
 20
10.654412428098828
 30
0.0
 10
-12.33264703993546
 20
10.638073735281031
 30
0.0
 10
-12.327356668432394
 20
10.623252682339755
 30
0.0
 10
-12.324365818024475
 20
10.610005228202002
 30
0.0
 10
-12.323633770216318
 20
10.59838656637087
 30
0.0
 10
-12.3251187961185
 20
10.588451104933164
 30
0.0
 10
-12.328778146686659
 20
10.580252464239292
 30
0.0
 10
-12.452691193896882
 20
10.434242566362077
 30
0.0
 10
-12.58282508998386
 20
10.27693770822971
 30
0.0
 10
-12.703029761474092
 20
10.127859975157087
 30
0.0
 10
-12.710397487781897
 20
10.12272916967457
 30
0.0
 10
-12.719878698779425
 20
10.119408727831205
 30
0.0
 10
-12.731428736058326
 20
10.117950684485676
 30
0.0
 10
-12.745001970643028
 20
10.118406233969711
 30
0.0
 10
-12.760551817113662
 20
10.120825713956158
 30
0.0
 10
-12.778030747980049
 20
10.125258589549716
 30
0.0
 10
-12.797390308304673
 20
10.131753437604539
 30
0.0
 10
-12.818581130569344
 20
10.140357931271787
 30
0.0
 10
-12.841552949784717
 20
10.151118824781618
 30
0.0
 10
-12.862306035277259
 20
10.161456109968189
 30
0.0
 10
-12.902621705717515
 20
10.180909262008088
 30
0.0
 10
-12.945471018487728
 20
10.200925087570905
 30
0.0
 10
-12.990874119065104
 20
10.2214428137402
 30
0.0
 10
-13.038850023568799
 20
10.242401254715244
 30
0.0
 10
-13.089416611630844
 20
10.263738830626945
 30
0.0
 10
-13.142590619536723
 20
10.285393586456527
 30
0.0
 10
-13.19838763369762
 20
10.307303211079066
 30
0.0
 10
-13.256822084395031
 20
10.329405056398576
 30
0.0
 10
-13.317907240561308
 20
10.351636154570599
 30
0.0
 10
-13.381655200445767
 20
10.373933247411582
 30
0.0
 10
-13.448076893715537
 20
10.39623278570027
 30
0.0
 10
-13.517182068859194
 20
10.418470968777553
 30
0.0
 10
-13.588979292338777
 20
10.440583754133936
 30
0.0
 10
-13.663475943317563
 20
10.462506879060303
 30
0.0
 10
-13.740678209561038
 20
10.484175880399478
 30
0.0
 10
-13.820591083625478
 20
10.505526114358664
 30
0.0
 10
-13.903218359355874
 20
10.526492776385043
 30
0.0
 10
-13.98856262869489
 20
10.547010921100137
 30
0.0
 10
-14.070092731426481
 20
10.565531530311276
 30
0.0
 10
-14.247328615394922
 20
10.35129014955214
 30
0.0
 10
-14.39631537646666
 20
10.116524579629703
 30
0.0
 10
-14.35350704309347
 20
10.044708027145067
 30
0.0
 10
-14.307620298261629
 20
9.969881259071759
 30
0.0
 10
-14.262146585316813
 20
9.897777104946003
 30
0.0
 10
-14.217146870030316
 20
9.828373030458513
 30
0.0
 10
-14.172681612861417
 20
9.761645401784602
 30
0.0
 10
-14.128810750817468
 20
9.69756949453002
 30
0.0
 10
-14.085593680015833
 20
9.636119503772461
 30
0.0
 10
-14.043089237580407
 20
9.577268553148661
 30
0.0
 10
-14.0013556843859
 20
9.520988705264942
 30
0.0
 10
-13.960450687648196
 20
9.467250971872794
 30
0.0
 10
-13.92043130382311
 20
9.416025324519675
 30
0.0
 10
-13.881353961487475
 20
9.367280705218644
 30
0.0
 10
-13.843274444611794
 20
9.32098503766095
 30
0.0
 10
-13.806247876429678
 20
9.277105238204772
 30
0.0
 10
-13.770328689292091
 20
9.235607214658295
 30
0.0
 10
-13.735570728371153
 20
9.196456012559956
 30
0.0
 10
-13.702026820875076
 20
9.15961535734306
 30
0.0
 10
-13.669749475246329
 20
9.125048471142101
 30
0.0
 10
-13.638790200206225
 20
9.092717343880297
 30
0.0
 10
-13.622545801644081
 20
9.076174383465151
 30
0.0
 10
-13.605212901220549
 20
9.057652184079004
 30
0.0
 10
-13.590481217233524
 20
9.040157449259656
 30
0.0
 10
-13.578321816575988
 20
9.023752431638288
 30
0.0
 10
-13.568704614580723
 20
9.008498814517367
 30
0.0
 10
-13.561598388747159
 20
8.994457689372602
 30
0.0
 10
-13.556970775824448
 20
8.98168954832028
 30
0.0
 10
-13.554788295974927
 20
8.970254253026932
 30
0.0
 10
-13.555016368495371
 20
8.960211012571994
 30
0.0
 10
-13.557619301842312
 20
8.951618382369356
 30
0.0
 10
-13.662255365030903
 20
8.79122939326028
 30
0.0
 10
-13.771647589953021
 20
8.61885482892607
 30
0.0
 10
-13.872220017366729
 20
8.455886978138677
 30
0.0
 10
-13.878886586510049
 20
8.449873209627714
 30
0.0
 10
-13.88787687361387
 20
8.445390639627627
 30
0.0
 10
-13.899153094111828
 20
8.44249648986942
 30
0.0
 10
-13.912676395177582
 20
8.441247269829281
 30
0.0
 10
-13.928406867714527
 20
8.441698758953777
 30
0.0
 10
-13.946303558622457
 20
8.443905989074514
 30
0.0
 10
-13.96632448333972
 20
8.44792322701664
 30
0.0
 10
-13.988426638655943
 20
8.453803957404965
 30
0.0
 10
-14.012566015795082
 20
8.461600865672231
 30
0.0
 10
-14.034451062388579
 20
8.469255586966291
 30
0.0
 10
-14.076886958173885
 20
8.483502451752392
 30
0.0
 10
-14.121907039454682
 20
8.49799000362671
 30
0.0
 10
-14.169523675988941
 20
8.512655423987603
 30
0.0
 10
-14.219748065333786
 20
8.527435626150956
 30
0.0
 10
-14.27259022813089
 20
8.542267274911238
 30
0.0
 10
-14.32805900367229
 20
8.557086806170725
 30
0.0
 10
-14.386162045810892
 20
8.57183044665101
 30
0.0
 10
-14.446905819152665
 20
8.58643423366121
 30
0.0
 10
-14.510295596036901
 20
8.60083403283894
 30
0.0
 10
-14.576335450961924
 20
8.614965568497608
 30
0.0
 10
-14.645028262581777
 20
8.628764422670022
 30
0.0
 10
-14.71637570617238
 20
8.642166075974735
 30
0.0
 10
-14.790378253991864
 20
8.655105917234176
 30
0.0
 10
-14.867035172763465
 20
8.6675192656155
 30
0.0
 10
-14.946344522084361
 20
8.67934139074011
 30
0.0
 10
-15.028303153127442
 20
8.690507532817607
 30
0.0
 10
-15.11290670765795
 20
8.70095292280357
 30
0.0
 10
-15.200149617366014
 20
8.71061280257667
 30
0.0
 10
-15.283358078725728
 20
8.718768939844171
 30
0.0
 10
-15.432344839797453
 20
8.484003369921739
 30
0.0
 10
-15.550732867749995
 20
8.232416004115814
 30
0.0
 10
-15.499261090125344
 20
8.166531053443249
 30
0.0
 10
-15.444357895182412
 20
8.098045450893386
 30
0.0
 10
-15.390205709256508
 20
8.032209227044927
 30
0.0
 10
-15.336862193087754
 20
7.968992384241096
 30
0.0
 10
-15.28438436828298
 20
7.908363897312099
 30
0.0
 10
-15.232828600440058
 20
7.850291724723987
 30
0.0
 10
-15.182250583105864
 20
7.794742820726521
 30
0.0
 10
-15.13270532095449
 20
7.741683146637597
 30
0.0
 10
-15.084247113972353
 20
7.691077683334413
 30
0.0
 10
-15.036929541461204
 20
7.642890443530818
 30
0.0
 10
-14.990805446406595
 20
7.5970844844874845
 30
0.0
 10
-14.945926919831255
 20
7.553621920742981
 30
0.0
 10
-14.902345285604916
 20
7.51246393733442
 30
0.0
 10
-14.860111085818222
 20
7.473570802721269
 30
0.0
 10
-14.819274050722147
 20
7.436901871356269
 30
0.0
 10
-14.779883219947857
 20
7.402415715814697
 30
0.0
 10
-14.741986457736505
 20
7.370069726560822
 30
0.0
 10
-14.705631248997
 20
7.339820834680706
 30
0.0
 10
-14.670863932363174
 20
7.311624874063786
 30
0.0
 10
-14.652674243014102
 20
7.297248322831757
 30
0.0
 10
-14.633156570545706
 20
7.28104456497721
 30
0.0
 10
-14.616348378601803
 20
7.265534150957278
 30
0.0
 10
-14.60222876454512
 20
7.250782468802411
 30
0.0
 10
-14.590775611902792
 20
7.2368544860324295
 30
0.0
 10
-14.581965601165177
 20
7.223814725615471
 30
0.0
 10
-14.575774205947871
 20
7.211727258860291
 30
0.0
 10
-14.57217571306796
 20
7.20065567154262
 30
0.0
 10
-14.571143235366778
 20
7.190663039971963
 30
0.0
 10
-14.572648701678702
 20
7.181811931171843
 30
0.0
 10
-14.65635760762262
 20
7.009573281000898
 30
0.0
 10
-14.74328298064511
 20
6.824847460315966
 30
0.0
 10
-14.822637076722923
 20
6.650559592172999
 30
0.0
 10
-14.828497352923957
 20
6.643757701355457
 30
0.0
 10
-14.836854933935907
 20
6.638183696005307
 30
0.0
 10
-14.847679504919578
 20
6.633899082304991
 30
0.0
 10
-14.86093960193015
 20
6.630964793686958
 30
0.0
 10
-14.876602621584569
 20
6.629441171696304
 30
0.0
 10
-14.894634831027462
 20
6.62938794700668
 30
0.0
 10
-14.91500137819465
 20
6.6308642205939785
 30
0.0
 10
-14.9376663023699
 20
6.63392844507218
 30
0.0
 10
-14.962592545035156
 20
6.6386384061958585
 30
0.0
 10
-14.985264412471333
 20
6.643489844069892
 30
0.0
 10
-15.029151294175179
 20
6.652305740033851
 30
0.0
 10
-15.075632150391073
 20
6.661036540872168
 30
0.0
 10
-15.124711380079267
 20
6.669618372984874
 30
0.0
 10
-15.176392185642698
 20
6.677987243719153
 30
0.0
 10
-15.230676570701172
 20
6.686079061367069
 30
0.0
 10
-15.28756533815237
 20
6.693829655195739
 30
0.0
 10
-15.347058088585074
 20
6.701174795515971
 30
0.0
 10
-15.409153218979032
 20
6.708050213771836
 30
0.0
 10
-15.473847921932549
 20
6.714391620520217
 30
0.0
 10
-15.54113818393567
 20
6.72013473623746
 30
0.0
 10
-15.611018787231263
 20
6.7252152901202695
 30
0.0
 10
-15.683483307462495
 20
6.729569061574035
 30
0.0
 10
-15.758524115235788
 20
6.733131889709991
 30
0.0
 10
-15.836132376398554
 20
6.735839695626918
 30
0.0
 10
-15.91629805298097
 20
6.737628502561556
 30
0.0
 10
-15.999009904431434
 20
6.738434456026473
 30
0.0
 10
-16.08425548916739
 20
6.738193843932168
 30
0.0
 10
-16.17202116644202
 20
6.736843116688721
 30
0.0
 10
-16.255595739287877
 20
6.734506154855625
 30
0.0
 10
-16.37398376724042
 20
6.482918789049716
 30
0.0
 10
-16.459906012151375
 20
6.21847731041008
 30
0.0
 10
-16.40058253095616
 20
6.159563006579449
 30
0.0
 10
-16.33752874208397
 20
6.098498628416559
 30
0.0
 10
-16.27555209549797
 20
6.039968611424141
 30
0.0
 10
-16.214706037562813
 20
5.9839359676788915
 30
0.0
 10
-16.155043251768067
 20
5.930362769951386
 30
0.0
 10
-16.09661564338298
 20
5.879210164882093
 30
0.0
 10
-16.03947432506343
 20
5.830438387044065
 30
0.0
 10
-15.983669601577137
 20
5.784006772246712
 30
0.0
 10
-15.929250955679013
 20
5.739873771910592
 30
0.0
 10
-15.876267033779065
 20
5.697996967252915
 30
0.0
 10
-15.824765632027146
 20
5.658333083856637
 30
0.0
 10
-15.774793682385328
 20
5.620838006262185
 30
0.0
 10
-15.726397239214485
 20
5.585466792987699
 30
0.0
 10
-15.679621466383333
 20
5.552173691184056
 30
0.0
 10
-15.6345106077671
 20
5.520912142953117
 30
0.0
 10
-15.59110812407171
 20
5.491634901242231
 30
0.0
 10
-15.549456161723585
 20
5.464293693524469
 30
0.0
 10
-15.509596433232694
 20
5.438839839059963
 30
0.0
 10
-15.471569376357445
 20
5.415223712230302
 30
0.0
 10
-15.451721258488478
 20
5.403240296982456
 30
0.0
 10
-15.430326619329339
 20
5.389610523600534
 30
0.0
 10
-15.411706994656234
 20
5.376329038874583
 30
0.0
 10
-15.395849841948733
 20
5.363463335026024
 30
0.0
 10
-15.38274136171829
 20
5.35108063921544
 30
0.0
 10
-15.372366505208802
 20
5.3392478883376375
 30
0.0
 10
-15.364708969698036
 20
5.328031722451033
 30
0.0
 10
-15.359751214170089
 20
5.317498448654882
 30
0.0
 10
-15.357474469037399
 20
5.307714015737687
 30
0.0
 10
-15.357858726211244
 20
5.298744015613259
 30
0.0
 10
-15.419320335458483
 20
5.117372010784021
 30
0.0
 10
-15.482407991522075
 20
4.923208170290425
 30
0.0
 10
-15.539292294765009
 20
4.740348908587023
 30
0.0
 10
-15.544253857967302
 20
4.73286616534435
 30
0.0
 10
-15.551846928842245
 20
4.726288630038257
 30
0.0
 10
-15.562049140360934
 20
4.7206811233133905
 30
0.0
 10
-15.57483691366527
 20
4.716108041601828
 30
0.0
 10
-15.590185465260578
 20
4.712633336924985
 30
0.0
 10
-15.608068814523598
 20
4.710320496810149
 30
0.0
 10
-15.628459791525504
 20
4.709232524326266
 30
0.0
 10
-15.651330045166166
 20
4.709431918243844
 30
0.0
 10
-15.67665005162049
 20
4.71098065332342
 30
0.0
 10
-15.699751191006364
 20
4.712952297704046
 30
0.0
 10
-15.744396936287531
 20
4.716198192900151
 30
0.0
 10
-15.791605536569671
 20
4.719034552757719
 30
0.0
 10
-15.841373350641115
 20
4.72139745600328
 30
0.0
 10
-15.893695535246774
 20
4.723223013217687
 30
0.0
 10
-15.948566045386334
 20
4.724447386955111
 30
0.0
 10
-16.005977634900916
 20
4.7250068118583055
 30
0.0
 10
-16.065921857414153
 20
4.724837614767861
 30
0.0
 10
-16.128389067560153
 20
4.723876234816318
 30
0.0
 10
-16.193368422470634
 20
4.722059241362756
 30
0.0
 10
-16.260847883922807
 20
4.719323364772943
 30
0.0
 10
-16.33081422003552
 20
4.715605494996437
 30
0.0
 10
-16.403253008135124
 20
4.7108427230226155
 30
0.0
 10
-16.47814863749644
 20
4.70497235010705
 30
0.0
 10
-16.555484312410904
 20
4.697931909842707
 30
0.0
 10
-16.635242055646483
 20
4.68965918803343
 30
0.0
 10
-16.717402712197284
 20
4.680092242518175
 30
0.0
 10
-16.801945953344163
 20
4.669169422940061
 30
0.0
 10
-16.888850281026055
 20
4.656829390455581
 30
0.0
 10
-16.97147294441921
 20
4.644036184806015
 30
0.0
 10
-17.057395189330176
 20
4.379594706166385
 30
0.0
 10
-17.1094966060699
 20
4.106469514780888
 30
0.0
 10
-17.04325698804068
 20
4.055454971557297
 30
0.0
 10
-16.973047001156257
 20
4.002774839503101
 30
0.0
 10
-16.904223302649886
 20
3.9524740826988314
 30
0.0
 10
-16.83683428162963
 20
3.9045093062763065
 30
0.0
 10
-16.770927452617723
 20
3.8588362790815305
 30
0.0
 10
-16.706549441977653
 20
3.815409948670084
 30
0.0
 10
-16.643745975397223
 20
3.7741844570628493
 30
0.0
 10
-16.58256186440152
 20
3.735113155859323
 30
0.0
 10
-16.523040994141343
 20
3.6981486222693443
 30
0.0
 10
-16.465226310952016
 20
3.663242674983027
 30
0.0
 10
-16.409159810373865
 20
3.6303463903690187
 30
0.0
 10
-16.35488252516321
 20
3.5994101186967584
 30
0.0
 10
-16.302434513867304
 20
3.5703835007194233
 30
0.0
 10
-16.251854849871734
 20
3.5432154838290666
 30
0.0
 10
-16.20318159292364
 20
3.5178543320225364
 30
0.0
 10
-16.156451939402412
 20
3.494247723733495
 30
0.0
 10
-16.11170165324542
 20
3.4723424847303987
 30
0.0
 10
-16.06896601673249
 20
3.452085090171801
 30
0.0
 10
-16.028278929019013
 20
3.4334212375570967
 30
0.0
 10
-16.00708539930563
 20
3.4240199439104346
 30
0.0
 10
-15.984151199695823
 20
3.4131791046694016
 30
0.0
 10
-15.964013784897439
 20
3.4023360061855366
 30
0.0
 10
-15.946669170309919
 20
3.391559180478577
 30
0.0
 10
-15.932112091055222
 20
3.3809170541373863
 30
0.0
 10
-15.920336006458653
 20
3.370477922348627
 30
0.0
 10
-15.911333094563824
 20
3.3603099429668424
 30
0.0
 10
-15.905094263154135
 20
3.3504810987122493
 30
0.0
 10
-15.901609156220744
 20
3.3410591708005564
 30
0.0
 10
-15.900866144291331
 20
3.3321117416122004
 30
0.0
 10
-15.939111170548676
 20
3.1444667269872104
 30
0.0
 10
-15.97736617963051
 20
2.9439269464373927
 30
0.0
 10
-16.010883590595387
 20
2.7553800909654473
 30
0.0
 10
-16.01486819398335
 20
2.747334502628551
 30
0.0
 10
-16.021577007457708
 20
2.739857169027522
 30
0.0
 10
-16.030995964541255
 20
2.733015203008918
 30
0.0
 10
-16.0431097433153
 20
2.7268754484342446
 30
0.0
 10
-16.05790177102406
 20
2.7215044592396547
 30
0.0
 10
-16.075354229006333
 20
2.7169684785698416
 30
0.0
 10
-16.095448057954655
 20
2.7133334179907718
 30
0.0
 10
-16.11816296349879
 20
2.710664836786533
 30
0.0
 10
-16.143477422114962
 20
2.709027921344633
 30
0.0
 10
-16.166643514682463
 20
2.708088678222164
 30
0.0
 10
-16.21134403346779
 20
2.70571338294417
 30
0.0
 10
-16.258535869988684
 20
2.7026105707316743
 30
0.0
 10
-16.30820740028561
 20
2.698717280714379
 30
0.0
 10
-16.360345811826516
 20
2.6939707342811072
 30
0.0
 10
-16.414937106324196
 20
2.6883083550027953
 30
0.0
 10
-16.4719661028395
 20
2.6816677885156066
 30
0.0
 10
-16.531416441235294
 20
2.6739869223536736
 30
0.0
 10
-16.59327058591323
 20
2.665203905730861
 30
0.0
 10
-16.65750982953695
 20
2.6552571671475365
 30
0.0
 10
-16.7241142990208
 20
2.644085444658822
 30
0.0
 10
-16.793062957034273
 20
2.6316277842503237
 30
0.0
 10
-16.864333610041086
 20
2.6178235806080847
 30
0.0
 10
-16.93790291217491
 20
2.6026125859286675
 30
0.0
 10
-17.013746371049585
 20
2.5859349314317774
 30
0.0
 10
-17.09183835368253
 20
2.5677311466434025
 30
0.0
 10
-17.17215209269947
 20
2.547942178593764
 30
0.0
 10
-17.254659692840697
 20
2.5265094109215678
 30
0.0
 10
-17.33933213776819
 20
2.5033746828799135
 30
0.0
 10
-17.419699882950617
 20
2.4803269899092864
 30
0.0
 10
-17.4718012996903
 20
2.207201798523786
 30
0.0
 10
-17.489260217792832
 20
1.9297002418176232
 30
0.0
 10
-17.41714910127558
 20
1.8873899890223236
 30
0.0
 10
-17.340890169813495
 20
1.8439249002288995
 30
0.0
 10
-17.266304810225478
 20
1.8026466765957978
 30
0.0
 10
-17.193435591237872
 20
1.7635062006729503
 30
0.0
 10
-17.122324109073144
 20
1.726453634933509
 30
0.0
 10
-17.053010975863454
 20
1.69143843835213
 30
0.0
 10
-16.985535809207082
 20
1.6584093836052491
 30
0.0
 10
-16.919937220681984
 20
1.6273145737555936
 30
0.0
 10
-16.856252805739803
 20
1.5981014596880119
 30
0.0
 10
-16.794519133351816
 20
1.5707168574135624
 30
0.0
 10
-16.73477173615405
 20
1.5451069656414744
 30
0.0
 10
-16.67704510058601
 20
1.5212173833761096
 30
0.0
 10
-16.621372657634097
 20
1.4989931278010897
 30
0.0
 10
-16.56778677399015
 20
1.4783786516797672
 30
0.0
 10
-16.51631872504826
 20
1.4593178568116507
 30
0.0
 10
-16.466998856252168
 20
1.4417541722590759
 30
0.0
 10
-16.41985598503153
 20
1.4256303606752807
 30
0.0
 10
-16.374918407013404
 20
1.4108888972359623
 30
0.0
 10
-16.33221294814022
 20
1.3974716589411924
 30
0.0
 10
-16.310008241206404
 20
1.3908007509125837
 30
0.0
 10
-16.285896167174005
 20
1.3829198123232742
 30
0.0
 10
-16.264558541311224
 20
1.3746861022219379
 30
0.0
 10
-16.2459999997769
 20
1.36616811163574
 30
0.0
 10
-16.230223895333772
 20
1.357434387453642
 30
0.0
 10
-16.217232298538907
 20
1.3485535060982687
 30
0.0
 10
-16.207025991558673
 20
1.3395940683302114
 30
0.0
 10
-16.19960447436547
 20
1.3306246603625382
 30
0.0
 10
-16.194965967849615
 20
1.3217138268879025
 30
0.0
 10
-16.19310740455893
 20
1.312930074938854
 30
0.0
 10
-16.207532700915827
 20
1.1219713244924463
 30
0.0
 10
-16.22035175867025
 20
0.9182182360223347
 30
0.0
 10
-16.229973687763824
 20
0.7269572833250696
 30
0.0
 10
-16.232918491761737
 20
0.7184757336282267
 30
0.0
 10
-16.238637245839367
 20
0.7102165237498917
 30
0.0
 10
-16.247124405907957
 20
0.7022480003288561
 30
0.0
 10
-16.258373148624024
 20
0.6946384004884262
 30
0.0
 10
-16.272375373332938
 20
0.6874558304841604
 30
0.0
 10
-16.289121704346492
 20
0.6807682443841973
 30
0.0
 10
-16.308601493555244
 20
0.674643422786752
 30
0.0
 10
-16.330802823373194
 20
0.6691489515804213
 30
0.0
 10
-16.35571251001671
 20
0.6643522007514091
 30
0.0
 10
-16.378578212647298
 20
0.6605168825509641
 30
0.0
 10
-16.422628551052743
 20
0.6525578566243363
 30
0.0
 10
-16.469059380359415
 20
0.6435648055439004
 30
0.0
 10
-16.517851277176714
 20
0.6334767217730594
 30
0.0
 10
-16.568983661756885
 20
0.6222329275648101
 30
0.0
 10
-16.622434803287206
 20
0.6097730943745229
 30
0.0
 10
-16.67818182546071
 20
0.5960372621973361
 30
0.0
 10
-16.73620071238865
 20
0.580965858811617
 30
0.0
 10
-16.79646631478708
 20
0.5644997189363948
 30
0.0
 10
-16.858952355877424
 20
0.5465801012326612
 30
0.0
 10
-16.92363144112161
 20
0.5271487175823555
 30
0.0
 10
-16.990475059511038
 20
0.5061477312883534
 30
0.0
 10
-17.05945359665212
 20
0.48351979651536564
 30
0.0
 10
-17.13053633971563
 20
0.4592080665447981
 30
0.0
 10
-17.20369148589737
 20
0.43315621438952595
 30
0.0
 10
-17.278886150711674
 20
0.40530845118258013
 30
0.0
 10
-17.356086376553353
 20
0.3756095444460585
 30
0.0
 10
-17.435257141547055
 20
0.34400483622928374
 30
0.0
 10
-17.516362368682767
 20
0.31044026111168854
 30
0.0
 10
-17.593207748303534
 20
0.2775015567061604
 30
0.0
 10
-17.610666666406072
 20
1.9984014443252818e-15
 30
0.0
 10
-17.593207748303538
 20
-0.2775015567061595
 30
0.0
 10
-17.516362368682813
 20
-0.3104402611116687
 30
0.0
 10
-17.43525714154711
 20
-0.344004836229262
 30
0.0
 10
-17.356086376553282
 20
-0.37560954444608624
 30
0.0
 10
-17.278886150711717
 20
-0.4053084511825666
 30
0.0
 10
-17.20369148594785
 20
-0.433156214370832
 30
0.0
 10
-17.130536339684912
 20
-0.4592080665549904
 30
0.0
 10
-17.059453596638484
 20
-0.48351979651755855
 30
0.0
 10
-16.99047505951173
 20
-0.5061477312868748
 30
0.0
 10
-16.92363144115441
 20
-0.5271487175721449
 30
0.0
 10
-16.858952356459223
 20
-0.5465801032980903
 30
0.0
 10
-16.79646631478702
 20
-0.5644997189364044
 30
0.0
 10
-16.736200712388726
 20
-0.5809658588116041
 30
0.0
 10
-16.678181825463263
 20
-0.5960372621977644
 30
0.0
 10
-16.622434803566655
 20
-0.6097730949471282
 30
0.0
 10
-16.568983644508307
 20
-0.6222329327553932
 30
0.0
 10
-16.517851364230527
 20
-0.6334767037740708
 30
0.0
 10
-16.469059379187172
 20
-0.6435648057979907
 30
0.0
 10
-16.422628552113608
 20
-0.6525578564334683
 30
0.0
 10
-16.378578212678157
 20
-0.6605168825453259
 30
0.0
 10
-16.3557125100167
 20
-0.6643522007512627
 30
0.0
 10
-16.330802823373055
 20
-0.6691489515794505
 30
0.0
 10
-16.30860149355221
 20
-0.6746434227713801
 30
0.0
 10
-16.289121704357413
 20
-0.6807682444368711
 30
0.0
 10
-16.272375373317114
 20
-0.6874558304122512
 30
0.0
 10
-16.258373149566204
 20
-0.6946384045300825
 30
0.0
 10
-16.2471244070586
 20
-0.7022480049987015
 30
0.0
 10
-16.238637245841417
 20
-0.7102165237577399
 30
0.0
 10
-16.232918491761765
 20
-0.7184757336283502
 30
0.0
 10
-16.229973687763152
 20
-0.7269572833226953
 30
0.0
 10
-16.220351758678802
 20
-0.9182182360227525
 30
0.0
 10
-16.20753270090729
 20
-1.1219713244917888
 30
0.0
 10
-16.193107404559893
 20
-1.3129300749365826
 30
0.0
 10
-16.194965967849573
 20
-1.321713826888021
 30
0.0
 10
-16.199604474362452
 20
-1.3306246603700673
 30
0.0
 10
-16.20702598983182
 20
-1.3395940728190199
 30
0.0
 10
-16.217232297097603
 20
-1.3485535099899684
 30
0.0
 10
-16.23022389535849
 20
-1.3574343873842831
 30
0.0
 10
-16.245999999759466
 20
-1.3661681116866298
 30
0.0
 10
-16.264558541316163
 20
-1.3746861022070673
 30
0.0
 10
-16.285896167174265
 20
-1.3829198123223283
 30
0.0
 10
-16.310008241206432
 20
-1.3908007509124394
 30
0.0
 10
-16.332212948110318
 20
-1.3974716589317315
 30
0.0
 10
-16.37491840598483
 20
-1.4108888969136382
 30
0.0
 10
-16.41985598616268
 20
-1.4256303610742882
 30
0.0
 10
-16.466998772140677
 20
-1.4417541434912795
 30
0.0
 10
-16.51631874151028
 20
-1.4593178641231246
 30
0.0
 10
-16.56778677364114
 20
-1.478378652212833
 30
0.0
 10
-16.621372657631515
 20
-1.498993127801195
 30
0.0
 10
-16.677045100585943
 20
-1.5212173833760883
 30
0.0
 10
-16.73477173615411
 20
-1.5451069656414924
 30
0.0
 10
-16.794519132515738
 20
-1.5707168593897864
 30
0.0
 10
-16.856252805708547
 20
-1.598101459673772
 30
0.0
 10
-16.919937220681483
 20
-1.6273145737540406
 30
0.0
 10
-16.985535809220337
 20
-1.658409383609134
 30
0.0
 10
-17.05301097589265
 20
-1.691438438366092
 30
0.0
 10
-17.122324109025406
 20
-1.7264536349086355
 30
0.0
 10
-17.193435591237833
 20
-1.763506200672932
 30
0.0
 10
-17.26630481022555
 20
-1.8026466765958347
 30
0.0
 10
-17.34089016981345
 20
-1.8439249002288718
 30
0.0
 10
-17.41714910127554
 20
-1.8873899890222983
 30
0.0
 10
-17.489260217792832
 20
-1.929700241817622
 30
0.0
 10
-17.471801299690295
 20
-2.207201798523781
 30
0.0
 10
-17.419699882950617
 20
-2.4803269899092926
 30
0.0
 10
-17.339332137768235
 20
-2.5033746828799073
 30
0.0
 10
-17.25465969284075
 20
-2.5265094109215607
 30
0.0
 10
-17.172152092699392
 20
-2.5479421785937904
 30
0.0
 10
-17.09183835368257
 20
-2.5677311466434025
 30
0.0
 10
-17.013746371102005
 20
-2.585934931419565
 30
0.0
 10
-16.937902912143155
 20
-2.6026125859349367
 30
0.0
 10
-16.86433361002728
 20
-2.617823580608558
 30
0.0
 10
-16.793062957035144
 20
-2.631627784248951
 30
0.0
 10
-16.724114299054616
 20
-2.64408544465281
 30
0.0
 10
-16.657509829855293
 20
-2.6552571692696056
 30
0.0
 10
-16.593270585913167
 20
-2.66520390573087
 30
0.0
 10
-16.53141644123537
 20
-2.673986922353677
 30
0.0
 10
-16.471966102841975
 20
-2.681667788516358
 30
0.0
 10
-16.414937106529678
 20
-2.6883083556059164
 30
0.0
 10
-16.360345794063395
 20
-2.6939707372689483
 30
0.0
 10
-16.308207488908845
 20
-2.698717273768062
 30
0.0
 10
-16.25853586879384
 20
-2.7026105708368484
 30
0.0
 10
-16.211344034544208
 20
-2.705713382887776
 30
0.0
 10
-16.16664351471378
 20
-2.708088678220445
 30
0.0
 10
-16.14347742211497
 20
-2.7090279213444934
 30
0.0
 10
-16.118162963498772
 20
-2.7106648367855595
 30
0.0
 10
-16.09544805795357
 20
-2.713333417975148
 30
0.0
 10
-16.075354229010564
 20
-2.7169684786234756
 30
0.0
 10
-16.05790177101737
 20
-2.721504459166336
 30
0.0
 10
-16.043109743743496
 20
-2.7268754525621253
 30
0.0
 10
-16.030995965097535
 20
-2.7330152077861616
 30
0.0
 10
-16.021577007458752
 20
-2.739857169035573
 30
0.0
 10
-16.01486819398336
 20
-2.747334502628685
 30
0.0
 10
-16.010883590595018
 20
-2.7553800909630146
 30
0.0
 10
-15.977366179638942
 20
-2.9439269464388858
 30
0.0
 10
-15.939111170540288
 20
-3.144466726985496
 30
0.0
 10
-15.900866144292571
 20
-3.3321117416100754
 30
0.0
 10
-15.901609156220683
 20
-3.3410591708006763
 30
0.0
 10
-15.905094263150197
 20
-3.350481098719349
 30
0.0
 10
-15.91133309228799
 20
-3.36030994720383
 30
0.0
 10
-15.920336004540953
 20
-3.370477926029003
 30
0.0
 10
-15.932112091088433
 20
-3.3809170540716798
 30
0.0
 10
-15.946669170286242
 20
-3.3915591805268877
 30
0.0
 10
-15.9640137849042
 20
-3.40233600617141
 30
0.0
 10
-15.984151199696196
 20
-3.413179104668503
 30
0.0
 10
-16.007085399305673
 20
-3.424019943910302
 30
0.0
 10
-16.028278928990524
 20
-3.43342123754397
 30
0.0
 10
-16.068966015752423
 20
-3.452085089723111
 30
0.0
 10
-16.11170165431764
 20
-3.4723424852680376
 30
0.0
 10
-16.156451859559724
 20
-3.4942476846505826
 30
0.0
 10
-16.203181608339474
 20
-3.5178543413396017
 30
0.0
 10
-16.251854849458663
 20
-3.5432154843141936
 30
0.0
 10
-16.302434513864725
 20
-3.5703835007192115
 30
0.0
 10
-16.35488252516314
 20
-3.5994101186967353
 30
0.0
 10
-16.40915981037392
 20
-3.6303463903690516
 30
0.0
 10
-16.465226309874843
 20
-3.663242676838887
 30
0.0
 10
-16.523040994112115
 20
-3.698148622251306
 30
0.0
 10
-16.582561864401214
 20
-3.7351131558577273
 30
0.0
 10
-16.643745975409885
 20
-3.7741844570683725
 30
0.0
 10
-16.70654944200487
 20
-3.8154099486876025
 30
0.0
 10
-16.770927452573474
 20
-3.8588362790508772
 30
0.0
 10
-16.836834281629596
 20
-3.904509306276292
 30
0.0
 10
-16.904223302649946
 20
-3.9524740826988842
 30
0.0
 10
-16.973047001156214
 20
-4.002774839503075
 30
0.0
 10
-17.043256988040643
 20
-4.055454971557275
 30
0.0
 10
-17.1094966060699
 20
-4.106469514780894
 30
0.0
 10
-17.05739518933022
 20
-4.379594706166385
 30
0.0
 10
-16.971472944419247
 20
-4.644036184806016
 30
0.0
 10
-16.88885028102611
 20
-4.656829390455566
 30
0.0
 10
-16.80194595334422
 20
-4.669169422940045
 30
0.0
 10
-16.717402712197206
 20
-4.680092242518175
 30
0.0
 10
-16.635242055646525
 20
-4.689659188033419
 30
0.0
 10
-16.55548431246445
 20
-4.697931909837145
 30
0.0
 10
-16.478148637464155
 20
-4.7049723501092755
 30
0.0
 10
-16.403253008121375
 20
-4.710842723021341
 30
0.0
 10
-16.330814220036558
 20
-4.7156054949951685
 30
0.0
 10
-16.260847883957116
 20
-4.719323364771201
 30
0.0
 10
-16.193368422520507
 20
-4.722059243507977
 30
0.0
 10
-16.128389067560093
 20
-4.723876234816305
 30
0.0
 10
-16.065921857414228
 20
-4.724837614767858
 30
0.0
 10
-16.00597763490328
 20
-4.7250068118593465
 30
0.0
 10
-15.948566045514605
 20
-4.7244473875792155
 30
0.0
 10
-15.89369551724925
 20
-4.723223013955644
 30
0.0
 10
-15.841373439436138
 20
-4.721397460219158
 30
0.0
 10
-15.791605535371074
 20
-4.719034552712294
 30
0.0
 10
-15.744396937362536
 20
-4.716198192979099
 30
0.0
 10
-15.699751191037656
 20
-4.71295229770625
 30
0.0
 10
-15.676650051620522
 20
-4.7109806533232685
 30
0.0
 10
-15.651330045166276
 20
-4.709431918242862
 30
0.0
 10
-15.62845979152639
 20
-4.7092325243106155
 30
0.0
 10
-15.608068814521078
 20
-4.7103204968638765
 30
0.0
 10
-15.590185465263135
 20
-4.712633336851392
 30
0.0
 10
-15.574836913572735
 20
-4.716108045750812
 30
0.0
 10
-15.562049140314084
 20
-4.72068112812267
 30
0.0
 10
-15.551846928842282
 20
-4.726288630046361
 30
0.0
 10
-15.544253857967304
 20
-4.732866165344469
 30
0.0
 10
-15.539292294764953
 20
-4.74034890858455
 30
0.0
 10
-15.482407991530255
 20
-4.923208170292949
 30
0.0
 10
-15.419320335450383
 20
-5.117372010781255
 30
0.0
 10
-15.357858726212745
 20
-5.298744015611291
 30
0.0
 10
-15.35747446903733
 20
-5.307714015737784
 30
0.0
 10
-15.359751214165298
 20
-5.317498448661418
 30
0.0
 10
-15.364708966909117
 20
-5.3280317263693595
 30
0.0
 10
-15.372366502844955
 20
-5.339247891748627
 30
0.0
 10
-15.382741361759479
 20
-5.351080639154398
 30
0.0
 10
-15.395849841919194
 20
-5.363463335070972
 30
0.0
 10
-15.41170699466472
 20
-5.3763290388614005
 30
0.0
 10
-15.43032661932983
 20
-5.389610523599675
 30
0.0
 10
-15.451721258488543
 20
-5.403240296982315
 30
0.0
 10
-15.471569376330837
 20
-5.415223712213694
 30
0.0
 10
-15.509596432316592
 20
-5.438839838491961
 30
0.0
 10
-15.549456162719972
 20
-5.464293694192239
 30
0.0
 10
-15.591108049756995
 20
-5.491634852460543
 30
0.0
 10
-15.634510621893645
 20
-5.520912154128816
 30
0.0
 10
-15.679621465912723
 20
-5.552173691613571
 30
0.0
 10
-15.726397239211959
 20
-5.585466792987151
 30
0.0
 10
-15.774793682385267
 20
-5.620838006262139
 30
0.0
 10
-15.824765632027207
 20
-5.658333083856662
 30
0.0
 10
-15.876267032477791
 20
-5.69799696895912
 30
0.0
 10
-15.929250955652282
 20
-5.739873771889017
 30
0.0
 10
-15.983669601577043
 20
-5.784006772245075
 30
0.0
 10
-16.039474325075307
 20
-5.8304383870511165
 30
0.0
 10
-16.096615643407787
 20
-5.87921016490287
 30
0.0
 10
-16.15504325172802
 20
-5.930362769915414
 30
0.0
 10
-16.214706037562785
 20
-5.983935967678856
 30
0.0
 10
-16.275552095498035
 20
-6.039968611424187
 30
0.0
 10
-16.337528742083933
 20
-6.098498628416514
 30
0.0
 10
-16.400582530956125
 20
-6.159563006579406
 30
0.0
 10
-16.45990601215137
 20
-6.218477310410068
 30
0.0
 10
-16.373983767240397
 20
-6.482918789049709
 30
0.0
 10
-16.255595739287863
 20
-6.734506154855632
 30
0.0
 10
-16.17202116644206
 20
-6.736843116688734
 30
0.0
 10
-16.08425548916744
 20
-6.738193843932179
 30
0.0
 10
-15.999009904431349
 20
-6.738434456026487
 30
0.0
 10
-15.91629805298101
 20
-6.737628502561573
 30
0.0
 10
-15.836132376452367
 20
-6.735839695628133
 30
0.0
 10
-15.758524115203473
 20
-6.733131889708174
 30
0.0
 10
-15.683483307449004
 20
-6.729569061571067
 30
0.0
 10
-15.611018787232446
 20
-6.725215290119161
 30
0.0
 10
-15.541138183969919
 20
-6.720134736240053
 30
0.0
 10
-15.473847921713155
 20
-6.7143916226547935
 30
0.0
 10
-15.409153218978966
 20
-6.708050213771836
 30
0.0
 10
-15.347058088585143
 20
-6.701174795515999
 30
0.0
 10
-15.28756533815458
 20
-6.693829655197089
 30
0.0
 10
-15.230676570750205
 20
-6.686079062002349
 30
0.0
 10
-15.17639216769459
 20
-6.677987242195624
 30
0.0
 10
-15.124711467645719
 20
-6.669618388296496
 30
0.0
 10
-15.075632149207609
 20
-6.661036540676897
 30
0.0
 10
-15.029151295231806
 20
-6.65230574024693
 30
0.0
 10
-14.985264412502094
 20
-6.643489844076022
 30
0.0
 10
-14.962592545035196
 20
-6.638638406195732
 30
0.0
 10
-14.937666302370125
 20
-6.633928445071239
 30
0.0
 10
-14.915001378197486
 20
-6.630864220578582
 30
0.0
 10
-14.89463483101822
 20
-6.629387947059687
 30
0.0
 10
-14.876602621596321
 20
-6.629441171623632
 30
0.0
 10
-14.860939601318332
 20
-6.6309647977916475
 30
0.0
 10
-14.847679504270328
 20
-6.633899087070496
 30
0.0
 10
-14.836854933934918
 20
-6.638183696013371
 30
0.0
 10
-14.828497352923934
 20
-6.643757701355596
 30
0.0
 10
-14.82263707672317
 20
-6.650559592170557
 30
0.0
 10
-14.743282980652904
 20
-6.824847460319515
 30
0.0
 10
-14.656357607614925
 20
-7.009573280997157
 30
0.0
 10
-14.572648701680428
 20
-7.181811931170099
 30
0.0
 10
-14.571143235366687
 20
-7.19066303997207
 30
0.0
 10
-14.572175713062379
 20
-7.200655671548523
 30
0.0
 10
-14.575774202689837
 20
-7.2117272623981945
 30
0.0
 10
-14.58196559839245
 20
-7.2238147287033145
 30
0.0
 10
-14.5907756119513
 20
-7.236854485977052
 30
0.0
 10
-14.602228764510173
 20
-7.250782468843321
 30
0.0
 10
-14.616348378611862
 20
-7.265534150945283
 30
0.0
 10
-14.633156570546292
 20
-7.28104456497644
 30
0.0
 10
-14.652674243014175
 20
-7.297248322831645
 30
0.0
 10
-14.670863932338845
 20
-7.311624874043993
 30
0.0
 10
-14.705631248159305
 20
-7.339820834002386
 30
0.0
 10
-14.741986458641334
 20
-7.370069727348226
 30
0.0
 10
-14.779883152333095
 20
-7.402415658103583
 30
0.0
 10
-14.819274063336605
 20
-7.436901884214389
 30
0.0
 10
-14.860111085297477
 20
-7.473570803088433
 30
0.0
 10
-14.902345285602472
 20
-7.51246393733358
 30
0.0
 10
-14.945926919831194
 20
-7.553621920742948
 30
0.0
 10
-14.990805446406643
 20
-7.597084484487536
 30
0.0
 10
-15.036929539956336
 20
-7.6428904450604955
 30
0.0
 10
-15.084247113948528
 20
-7.691077683309679
 30
0.0
 10
-15.132705320954592
 20
-7.741683146635981
 30
0.0
 10
-15.182250583116755
 20
-7.794742820735026
 30
0.0
 10
-15.23282860046206
 20
-7.8502917247477315
 30
0.0
 10
-15.284384368247746
 20
-7.908363897271412
 30
0.0
 10
-15.33686219308772
 20
-7.968992384241076
 30
0.0
 10
-15.390205709256556
 20
-8.032209227045001
 30
0.0
 10
-15.444357895182375
 20
-8.098045450893359
 30
0.0
 10
-15.49926109012531
 20
-8.166531053443226
 30
0.0
 10
-15.550732867749979
 20
-8.232416004115821
 30
0.0
 10
-15.432344839797437
 20
-8.484003369921727
 30
0.0
 10
-15.28335807872572
 20
-8.718768939844175
 30
0.0
 10
-15.20014961736606
 20
-8.710612802576685
 30
0.0
 10
-15.112906707658002
 20
-8.700952922803584
 30
0.0
 10
-15.02830315312736
 20
-8.690507532817607
 30
0.0
 10
-14.9463445220844
 20
-8.679341390740127
 30
0.0
 10
-14.867035172816705
 20
-8.667519265623444
 30
0.0
 10
-14.790378253960034
 20
-8.655105917228319
 30
0.0
 10
-14.71637570615937
 20
-8.642166075970096
 30
0.0
 10
-14.64502826258309
 20
-8.628764422669068
 30
0.0
 10
-14.576335450995579
 20
-8.614965568504468
 30
0.0
 10
-14.510295595551705
 20
-8.60083403492918
 30
0.0
 10
-14.4469058191526
 20
-8.586434233661194
 30
0.0
 10
-14.386162045810957
 20
-8.571830446651036
 30
0.0
 10
-14.328059003674317
 20
-8.557086806172332
 30
0.0
 10
-14.272590228099915
 20
-8.542267275547646
 30
0.0
 10
-14.219748047718156
 20
-8.527435622389937
 30
0.0
 10
-14.169523760945852
 20
-8.512655450153469
 30
0.0
 10
-14.121907038305029
 20
-8.497990003284643
 30
0.0
 10
-14.076886959195475
 20
-8.48350245209621
 30
0.0
 10
-14.03445106241833
 20
-8.46925558697622
 30
0.0
 10
-14.012566015795143
 20
-8.461600865672102
 30
0.0
 10
-13.988426638656284
 20
-8.453803957404052
 30
0.0
 10
-13.966324483344463
 20
-8.447923227001713
 30
0.0
 10
-13.94630355860665
 20
-8.44390598912594
 30
0.0
 10
-13.928406867735298
 20
-8.441698758883144
 30
0.0
 10
-13.912676394056135
 20
-8.441247273824915
 30
0.0
 10
-13.899153092870423
 20
-8.442496494515968
 30
0.0
 10
-13.887876873611882
 20
-8.445390639635498
 30
0.0
 10
-13.878886586510014
 20
-8.449873209627842
 30
0.0
 10
-13.87222001736728
 20
-8.455886978136279
 30
0.0
 10
-13.771647589960308
 20
-8.618854828930559
 30
0.0
 10
-13.662255365023736
 20
-8.791229393255598
 30
0.0
 10
-13.557619301844246
 20
-8.951618382367833
 30
0.0
 10
-13.555016368495272
 20
-8.96021101257208
 30
0.0
 10
-13.55478829596865
 20
-8.970254253032081
 30
0.0
 10
-13.55697077214869
 20
-8.981689551421939
 30
0.0
 10
-13.561598385609289
 20
-8.994457692088574
 30
0.0
 10
-13.56870461463579
 20
-9.008498814468497
 30
0.0
 10
-13.578321816536189
 20
-9.023752431674488
 30
0.0
 10
-13.59048121724501
 20
-9.040157449249007
 30
0.0
 10
-13.605212901221229
 20
-9.057652184078304
 30
0.0
 10
-13.62254580164417
 20
-9.076174383465043
 30
0.0
 10
-13.638790200184573
 20
-9.092717343857604
 30
0.0
 10
-13.669749474500257
 20
-9.12504847036413
 30
0.0
 10
-13.702026821674085
 20
-9.159615358237655
 30
0.0
 10
-13.735570668522678
 20
-9.196455946829527
 30
0.0
 10
-13.770328700195533
 20
-9.235607228996027
 30
0.0
 10
-13.806247875867026
 20
-9.277105238503768
 30
0.0
 10
-13.843274444609476
 20
-9.320985037659801
 30
0.0
 10
-13.88135396148742
 20
-9.367280705218596
 30
0.0
 10
-13.92043130382315
 20
-9.416025324519724
 30
0.0
 10
-13.960450685963478
 20
-9.467250973201793
 30
0.0
 10
-14.001355684365363
 20
-9.52098870523741
 30
0.0
 10
-14.043089237580714
 20
-9.577268553147064
 30
0.0
 10
-14.085593680025575
 20
-9.636119503782256
 30
0.0
 10
-14.128810750836324
 20
-9.697569494556326
 30
0.0
 10
-14.172681612831564
 20
-9.761645401739813
 30
0.0
 10
-14.217146870030287
 20
-9.828373030458485
 30
0.0
 10
-14.262146585316852
 20
-9.897777104946073
 30
0.0
 10
-14.307620298261597
 20
-9.969881259071718
 30
0.0
 10
-14.353507043093442
 20
-10.04470802714503
 30
0.0
 10
-14.39631537646665
 20
-10.1165245796297
 30
0.0
 10
-14.247328615394917
 20
-10.351290149552144
 30
0.0
 10
-14.070092731426477
 20
-10.565531530311278
 30
0.0
 10
-13.988562628694936
 20
-10.54701092110015
 30
0.0
 10
-13.903218359355925
 20
-10.526492776385055
 30
0.0
 10
-13.820591083625398
 20
-10.505526114358645
 30
0.0
 10
-13.740678209561077
 20
-10.484175880399494
 30
0.0
 10
-13.663475943369386
 20
-10.462506879074853
 30
0.0
 10
-13.588979292307934
 20
-10.440583754124129
 30
0.0
 10
-13.517182068846871
 20
-10.418470968771315
 30
0.0
 10
-13.448076893716962
 20
-10.396232785699484
 30
0.0
 10
-13.381655200478297
 20
-10.373933247422602
 30
0.0
 10
-13.317907239817961
 20
-10.351636156583542
 30
0.0
 10
-13.256822084394972
 20
-10.32940505639855
 30
0.0
 10
-13.198387633697681
 20
-10.307303211079102
 30
0.0
 10
-13.142590619538531
 20
-10.285393586458374
 30
0.0
 10
-13.08941661152035
 20
-10.26373883125445
 30
0.0
 10
-13.038850006563456
 20
-10.242401248776057
 30
0.0
 10
-12.990874200072653
 20
-10.22144285034766
 30
0.0
 10
-12.945471017390012
 20
-10.200925087087445
 30
0.0
 10
-12.90262170668796
 20
-10.180909262477236
 30
0.0
 10
-12.862306035305533
 20
-10.161456109981765
 30
0.0
 10
-12.841552949784795
 20
-10.151118824781497
 30
0.0
 10
-12.818581130569799
 20
-10.140357931270922
 30
0.0
 10
-12.79739030831125
 20
-10.131753437590323
 30
0.0
 10
-12.77803074795792
 20
-10.125258589598753
 30
0.0
 10
-12.760551817143122
 20
-10.120825713888681
 30
0.0
 10
-12.74500196902964
 20
-10.118406237793282
 30
0.0
 10
-12.731428734244345
 20
-10.117950688939993
 30
0.0
 10
-12.719878698776466
 20
-10.119408727838763
 30
0.0
 10
-12.710397487781846
 20
-10.12272916967469
 30
0.0
 10
-12.703029761474943
 20
-10.127859975154774
 30
0.0
 10
-12.582825089990529
 20
-10.276937708235076
 30
0.0
 10
-12.452691193890361
 20
-10.43424256635653
 30
0.0
 10
-12.328778146688773
 20
-10.580252464238024
 30
0.0
 10
-12.325118796118392
 20
-10.588451104933236
 30
0.0
 10
-12.323633770209451
 20
-10.59838656637519
 30
0.0
 10
-12.324365813988962
 20
-10.610005230818507
 30
0.0
 10
-12.327356664978867
 20
-10.623252684641031
 30
0.0
 10
-12.33264703999622
 20
-10.638073735239448
 30
0.0
 10
-12.340276622219138
 20
-10.654412428129753
 30
0.0
 10
-12.350284048522239
 20
-10.672212064249795
 30
0.0
 10
-12.362706897083658
 20
-10.691415217458127
 30
0.0
 10
-12.377581675267816
 20
-10.711963752227444
 30
0.0
 10
-12.391624599155032
 20
-10.730412229432542
 30
0.0
 10
-12.418287585715815
 20
-10.766368641308512
 30
0.0
 10
-12.445978036534957
 20
-10.804708383238701
 30
0.0
 10
-12.474640030037454
 20
-10.845462631577496
 30
0.0
 10
-12.504217027456729
 20
-10.888661530692081
 30
0.0
 10
-12.53465188998143
 20
-10.93433418243387
 30
0.0
 10
-12.565886896053666
 20
-10.982508635855583
 30
0.0
 10
-12.597863758852066
 20
-11.033211877230709
 30
0.0
 10
-12.630523643915772
 20
-11.086469820323371
 30
0.0
 10
-12.66380718508396
 20
-11.142307298034115
 30
0.0
 10
-12.697654511635282
 20
-11.2007480477206
 30
0.0
 10
-12.732005247995295
 20
-11.261814713392118
 30
0.0
 10
-12.766798550274574
 20
-11.325528825916086
 30
0.0
 10
-12.801973115527456
 20
-11.391910800388569
 30
0.0
 10
-12.8374672020314
 20
-11.460979926898483
 30
0.0
 10
-12.873218647920593
 20
-11.53275436280012
 30
0.0
 10
-12.909164889933294
 20
-11.60725112525672
 30
0.0
 10
-12.945242982279144
 20
-11.684486084076156
 30
0.0
 10
-12.981389615622488
 20
-11.764473954841051
 30
0.0
 10
-13.014859391754472
 20
-11.841089519203974
 30
0.0
 10
-12.837623507786038
 20
-12.055330899963101
 30
0.0
 10
-12.634933616686666
 20
-12.245669377002766
 30
0.0
 10
-12.556367651007035
 20
-12.217076376918929
 30
0.0
 10
-12.47426795214674
 20
-12.186023550660947
 30
0.0
 10
-12.39492003671374
 20
-12.154866273379135
 30
0.0
 10
-12.318313193389688
 20
-12.12366865348186
 30
0.0
 10
-12.244435536130247
 20
-12.092494509044583
 30
0.0
 10
-12.173274009553392
 20
-12.061407348314972
 30
0.0
 10
-12.104814395535492
 20
-12.03047035070212
 30
0.0
 10
-12.039041318745186
 20
-11.999746347290975
 30
0.0
 10
-11.975938253636139
 20
-11.969297801941536
 30
0.0
 10
-11.915487531180139
 20
-11.939186792280871
 30
0.0
 10
-11.857670346124788
 20
-11.909474990909002
 30
0.0
 10
-11.802466764266397
 20
-11.880223646583957
 30
0.0
 10
-11.749855730329546
 20
-11.851493565689651
 30
0.0
 10
-11.699815075738647
 20
-11.82334509433198
 30
0.0
 10
-11.652321511773811
 20
-11.795838088955039
 30
0.0
 10
-11.607350792692227
 20
-11.769031990797874
 30
0.0
 10
-11.564877185281222
 20
-11.742985488529596
 30
0.0
 10
-11.524874402213378
 20
-11.717757052008585
 30
0.0
 10
-11.487314758446786
 20
-11.693404399973241
 30
0.0
 10
-11.468020922584449
 20
-11.680547576039624
 30
0.0
 10
-11.446578940605036
 20
-11.666992403005432
 30
0.0
 10
-11.426633643325562
 20
-11.655799844051993
 30
0.0
 10
-11.40824075918833
 20
-11.646929813577286
 30
0.0
 10
-11.391455241610442
 20
-11.64034120149796
 30
0.0
 10
-11.376331249456417
 20
-11.63599189094874
 30
0.0
 10
-11.362922139092364
 20
-11.633838756828656
 30
0.0
 10
-11.35128043837413
 20
-11.633837695362242
 30
0.0
 10
-11.341457827847943
 20
-11.635943643690462
 30
0.0
 10
-11.333505137821996
 20
-11.640110570274778
 30
0.0
 10
-11.195563921736241
 20
-11.772947140735706
 30
0.0
 10
-11.046740643752198
 20
-11.912701501071634
 30
0.0
 10
-10.905504795304946
 20
-12.042029644410707
 30
0.0
 10
-10.900846737657643
 20
-12.049704998135491
 30
0.0
 10
-10.898128178112078
 20
-12.059375992397303
 30
0.0
 10
-10.897398244723357
 20
-12.070994789615153
 30
0.0
 10
-10.898705165735812
 20
-12.084512636333137
 30
0.0
 10
-10.902096254369674
 20
-12.099879878328446
 30
0.0
 10
-10.907617893845764
 20
-12.117045975955923
 30
0.0
 10
-10.915315522652199
 20
-12.13595951972689
 30
0.0
 10
-10.925233620055955
 20
-12.156568246116752
 30
0.0
 10
-10.937415691863603
 20
-12.178819053600234
 30
0.0
 10
-10.949035675799099
 20
-12.19888210411176
 30
0.0
 10
-10.970981883379213
 20
-12.237896747262575
 30
0.0
 10
-10.993648742892779
 20
-12.279404702616134
 30
0.0
 10
-11.016976866289804
 20
-12.32342989186014
 30
0.0
 10
-11.040906382537758
 20
-12.369995135478003
 30
0.0
 10
-11.065376955952743
 20
-12.419122144452354
 30
0.0
 10
-11.090327804650121
 20
-12.470831512231257
 30
0.0
 10
-11.115697719140595
 20
-12.525142707017583
 30
0.0
 10
-11.14142508103475
 20
-12.582074064324456
 30
0.0
 10
-11.167447879903952
 20
-12.641642780684682
 30
0.0
 10
-11.19370374204558
 20
-12.703864902488668
 30
0.0
 10
-11.220129929917725
 20
-12.768755328124954
 30
0.0
 10
-11.24666338086997
 20
-12.836327792922228
 30
0.0
 10
-11.27324071665868
 20
-12.906594867701026
 30
0.0
 10
-11.299798264724021
 20
-12.97956795215241
 30
0.0
 10
-11.326272077645132
 20
-13.055257269506868
 30
0.0
 10
-11.352597952674184
 20
-13.13367186148633
 30
0.0
 10
-11.378711451352835
 20
-13.214819583561047
 30
0.0
 10
-11.404547919206903
 20
-13.298707100513129
 30
0.0
 10
-11.428151299734198
 20
-13.378913403536396
 30
0.0
 10
-11.225461408634823
 20
-13.56925188057605
 30
0.0
 10
-11.000514051068208
 20
-13.732685702410617
 30
0.0
 10
-10.92615125465229
 20
-13.694471240146028
 30
0.0
 10
-10.848590887565724
 20
-13.653373453965301
 30
0.0
 10
-10.773773696456777
 20
-13.61251693030328
 30
0.0
 10
-10.701681019554925
 20
-13.571963929570215
 30
0.0
 10
-10.632293066015084
 20
-13.53177627690061
 30
0.0
 10
-10.565588923706784
 20
-13.492015343487388
 30
0.0
 10
-10.501546568140899
 20
-13.452742028547716
 30
0.0
 10
-10.440142870402111
 20
-13.414016740684684
 30
0.0
 10
-10.381353606455393
 20
-13.37589938001193
 30
0.0
 10
-10.325153466208372
 20
-13.338449320139453
 30
0.0
 10
-10.271516063067295
 20
-13.301725390437314
 30
0.0
 10
-10.220413943510728
 20
-13.265785858280578
 30
0.0
 10
-10.17181859722967
 20
-13.230688411650918
 30
0.0
 10
-10.12570046708179
 20
-13.19649014234789
 30
0.0
 10
-10.08202894598402
 20
-13.163247515979084
 30
0.0
 10
-10.040772529415777
 20
-13.131016466274275
 30
0.0
 10
-10.001898331437785
 20
-13.099851993898135
 30
0.0
 10
-9.96537294378963
 20
-13.069808812980996
 30
0.0
 10
-9.931161665658117
 20
-13.040940717275946
 30
0.0
 10
-9.91363135477131
 20
-13.025767114402706
 30
0.0
 10
-9.894057362892113
 20
-13.009631435021115
 30
0.0
 10
-9.875672139844552
 20
-12.99602732413564
 30
0.0
 10
-9.85853599869364
 20
-12.984921996857084
 30
0.0
 10
-9.842708611992048
 20
-12.976281554756842
 30
0.0
 10
-9.828248990188383
 20
-12.970071000979312
 30
0.0
 10
-9.815215473926225
 20
-12.966254237803726
 30
0.0
 10
-9.803665704532381
 20
-12.964794092712086
 30
0.0
 10
-9.793656602910369
 20
-12.965652335469434
 30
0.0
 10
-9.785244367837793
 20
-12.968789668236546
 30
0.0
 10
-9.631742022530458
 20
-13.08329016400921
 30
0.0
 10
-9.466576394659064
 20
-13.203290016811904
 30
0.0
 10
-9.310245118666368
 20
-13.313896823531213
 30
0.0
 10
-9.304661814293834
 20
-13.320927845372296
 30
0.0
 10
-9.300752594419663
 20
-13.330181855097285
 30
0.0
 10
-9.29857219534829
 20
-13.341617549716808
 30
0.0
 10
-9.298174575458214
 20
-13.355192604812341
 30
0.0
 10
-9.299612898215093
 20
-13.37086368761833
 30
0.0
 10
-9.302939515391344
 20
-13.388586470368862
 30
0.0
 10
-9.308205950496497
 20
-13.408315643907084
 30
0.0
 10
-9.315462882421748
 20
-13.43000493155225
 30
0.0
 10
-9.324760129303263
 20
-13.453607103223897
 30
0.0
 10
-9.333773919198933
 20
-13.474968320750198
 30
0.0
 10
-9.350657242994815
 20
-13.516425910947147
 30
0.0
 10
-9.367943041287749
 20
-13.5604474744725
 30
0.0
 10
-9.385569396137782
 20
-13.60704930108797
 30
0.0
 10
-9.403474048448388
 20
-13.656246527500526
 30
0.0
 10
-9.421594417192892
 20
-13.70805313142886
 30
0.0
 10
-9.439867618726536
 20
-13.762481925945403
 30
0.0
 10
-9.458230486202314
 20
-13.819544554157211
 30
0.0
 10
-9.47661958906107
 20
-13.879251484164422
 30
0.0
 10
-9.494971250547852
 20
-13.941612004932507
 30
0.0
 10
-9.513221577649322
 20
-14.00663421882345
 30
0.0
 10
-9.531306460264616
 20
-14.074325043648557
 30
0.0
 10
-9.549161611517992
 20
-14.144690202583453
 30
0.0
 10
-9.566722577380613
 20
-14.217734223923784
 30
0.0
 10
-9.583924758609648
 20
-14.293460437182835
 30
0.0
 10
-9.600703430718225
 20
-14.371870970240828
 30
0.0
 10
-9.616993763988102
 20
-14.45296674678503
 30
0.0
 10
-9.632730843525945
 20
-14.536747484062612
 30
0.0
 10
-9.647849689358722
 20
-14.623211690947569
 30
0.0
 10
-9.66121443487042
 20
-14.705743831319564
 30
0.0
 10
-9.436267077303812
 20
-14.869177653154134
 30
0.0
 10
-9.192609807475836
 20
-15.003129370782657
 30
0.0
 10
-9.12362292604529
 20
-14.955896111235436
 30
0.0
 10
-9.051825064053725
 20
-14.905401501770665
 30
0.0
 10
-8.98271850906624
 20
-14.855490063513088
 30
0.0
 10
-8.91627694316741
 20
-14.806221226990981
 30
0.0
 10
-8.852472982824848
 20
-14.757653849378588
 30
0.0
 10
-8.791278188956424
 20
-14.70984619695371
 30
0.0
 10
-8.73266307804688
 20
-14.662855928324564
 30
0.0
 10
-8.67659713235374
 20
-14.616740076932604
 30
0.0
 10
-8.623048811380798
 20
-14.571555034484554
 30
0.0
 10
-8.571985563126786
 20
-14.527356534216034
 30
0.0
 10
-8.523373835788954
 20
-14.484199634492839
 30
0.0
 10
-8.477179089486544
 20
-14.442138702395765
 30
0.0
 10
-8.433365808501586
 20
-14.401227397730295
 30
0.0
 10
-8.39189751325879
 20
-14.361518657617877
 30
0.0
 10
-8.352736761003898
 20
-14.323064666333224
 30
0.0
 10
-8.315845285283666
 20
-14.285916967988513
 30
0.0
 10
-8.281183566063117
 20
-14.250126007850632
 30
0.0
 10
-8.248711601017074
 20
-14.215741881447357
 30
0.0
 10
-8.2183882208136
 20
-14.182813609186834
 30
0.0
 10
-8.20289789837711
 20
-14.165562524155552
 30
0.0
 10
-8.185500590143
 20
-14.1471008077294
 30
0.0
 10
-8.168965387277613
 20
-14.131299689867255
 30
0.0
 10
-8.153356236295604
 20
-14.118134203430031
 30
0.0
 10
-8.138736587813415
 20
-14.10757819624234
 30
0.0
 10
-8.125169373233714
 20
-14.099604343379578
 30
0.0
 10
-8.11271699741075
 20
-14.094184143783796
 30
0.0
 10
-8.101441306104135
 20
-14.091287942427277
 30
0.0
 10
-8.091403562898027
 20
-14.090884944612778
 30
0.0
 10
-8.082664448751139
 20
-14.092943205950794
 30
0.0
 10
-7.916021797905576
 20
-14.187301885817579
 30
0.0
 10
-7.737118580763528
 20
-14.285654761723904
 30
0.0
 10
-7.5681573148355685
 20
-14.375795896408182
 30
0.0
 10
-7.56173681578306
 20
-14.382071702951
 30
0.0
 10
-7.556698586312956
 20
-14.390762786877723
 30
0.0
 10
-7.553102107754797
 20
-14.401835031163422
 30
0.0
 10
-7.55100621766538
 20
-14.4152532079083
 30
0.0
 10
-7.550469091336185
 20
-14.430980989187667
 30
0.0
 10
-7.551548223472509
 20
-14.448980958190203
 30
0.0
 10
-7.554300410048752
 20
-14.469214620643342
 30
0.0
 10
-7.558781730343957
 20
-14.491642416521099
 30
0.0
 10
-7.565047529162111
 20
-14.516223732034394
 30
0.0
 10
-7.571312972166724
 20
-14.538546237414506
 30
0.0
 10
-7.5828671520765045
 20
-14.581792963694623
 30
0.0
 10
-7.5944992817836905
 20
-14.627633889037769
 30
0.0
 10
-7.606145889941276
 20
-14.676077414380389
 30
0.0
 10
-7.6177433112518695
 20
-14.727130753938118
 30
0.0
 10
-7.629227706286208
 20
-14.78079993172872
 30
0.0
 10
-7.640535081352054
 20
-14.837089778379191
 30
0.0
 10
-7.6516013084236
 20
-14.89600392828202
 30
0.0
 10
-7.662362145109753
 20
-14.957544817036164
 30
0.0
 10
-7.67275325254972
 20
-15.021713679547222
 30
0.0
 10
-7.682710226050424
 20
-15.088510546369674
 30
0.0
 10
-7.692168594006639
 20
-15.157934245639572
 30
0.0
 10
-7.701063859159728
 20
-15.229982398121578
 30
0.0
 10
-7.709331508174192
 20
-15.304651418172522
 30
0.0
 10
-7.716907033892857
 20
-15.381936512619497
 30
0.0
 10
-7.723725955506653
 20
-15.46183168043452
 30
0.0
 10
-7.729723838730317
 20
-15.54432971270309
 30
0.0
 10
-7.734836315982167
 20
-15.62942219290848
 30
0.0
 10
-7.738999106563306
 20
-15.717099497532526
 30
0.0
 10
-7.741914447038983
 20
-15.800655894097275
 30
0.0
 10
-7.498257177211022
 20
-15.934607611725784
 30
0.0
 10
-7.2397326158206665
 20
-16.036964726542383
 30
0.0
 10
-7.177209613706416
 20
-15.981457566431374
 30
0.0
 10
-7.112306551983424
 20
-15.922362463837835
 30
0.0
 10
-7.050000484771811
 20
-15.864183244181675
 30
0.0
 10
-6.990257853060493
 20
-15.806975570854258
 30
0.0
 10
-6.933044112484451
 20
-15.75079440485677
 30
0.0
 10
-6.8783237455112065
 20
-15.695693988657883
 30
0.0
 10
-6.826060274572015
 20
-15.641727830946165
 30
0.0
 10
-6.7762162743802765
 20
-15.588948690550007
 30
0.0
 10
-6.7287533853910695
 20
-15.537408561438298
 30
0.0
 10
-6.683632327058739
 20
-15.487158657525876
 30
0.0
 10
-6.6408129115035015
 20
-15.438249397870944
 30
0.0
 10
-6.600254057199844
 20
-15.390730391858682
 30
0.0
 10
-6.561913803124901
 20
-15.344650424871208
 30
0.0
 10
-6.5257493225751295
 20
-15.300057444501824
 30
0.0
 10
-6.4917169276196764
 20
-15.256998530715185
 30
0.0
 10
-6.459772193357462
 20
-15.215520025124425
 30
0.0
 10
-6.429869588912371
 20
-15.175667022046664
 30
0.0
 10
-6.40196314875503
 20
-15.137484208370712
 30
0.0
 10
-6.37600588429971
 20
-15.101015058078659
 30
0.0
 10
-6.362799841951831
 20
-15.08195855080558
 30
0.0
 10
-6.347853583306309
 20
-15.061461949631399
 30
0.0
 10
-6.333429170649934
 20
-15.043713017860403
 30
0.0
 10
-6.319593175472269
 20
-15.028694999850309
 30
0.0
 10
-6.3064118257994
 20
-15.016389902114373
 30
0.0
 10
-6.293950981522248
 20
-15.006778502589373
 30
0.0
 10
-6.282276127543897
 20
-14.999840346358887
 30
0.0
 10
-6.2714523387121845
 20
-14.995553763562988
 30
0.0
 10
-6.2615442551285945
 20
-14.993895880692916
 30
0.0
 10
-6.252616082957988
 20
-14.994842610590991
 30
0.0
 10
-6.0754611807255285
 20
-15.067571381803253
 30
0.0
 10
-5.885641784918756
 20
-15.14272619720701
 30
0.0
 10
-5.706715149151789
 20
-15.21098008031458
 30
0.0
 10
-5.699558710524783
 20
-15.216401698340967
 30
0.0
 10
-5.693470927347183
 20
-15.2243927928841
 30
0.0
 10
-5.688515087917531
 20
-15.234926970929349
 30
0.0
 10
-5.684753981067507
 20
-15.247976656660677
 30
0.0
 10
-5.682249876455315
 20
-15.263513099907323
 30
0.0
 10
-5.681064504993277
 20
-15.281506384898035
 30
0.0
 10
-5.681259039414226
 20
-15.301925439322199
 30
0.0
 10
-5.68289407498132
 20
-15.324738043693838
 30
0.0
 10
-5.686029610345744
 20
-15.34991084101897
 30
0.0
 10
-5.6894478966803215
 20
-15.372842595008231
 30
0.0
 10
-5.69549071638469
 20
-15.417196430663736
 30
0.0
 10
-5.701285731871951
 20
-15.464133779047971
 30
0.0
 10
-5.706768919369095
 20
-15.513655019784332
 30
0.0
 10
-5.711876211417647
 20
-15.565759330824617
 30
0.0
 10
-5.716543516971683
 20
-15.62044468748332
 30
0.0
 10
-5.720706741510242
 20
-15.677707861760116
 30
0.0
 10
-5.724301807165994
 20
-15.737544422016391
 30
0.0
 10
-5.727264672856794
 20
-15.799948732939066
 30
0.0
 10
-5.729531352278268
 20
-15.864913955898682
 30
0.0
 10
-5.731037944758093
 20
-15.93243204916034
 30
0.0
 10
-5.7317206339424045
 20
-16.002493769665836
 30
0.0
 10
-5.73151572934997
 20
-16.07508867329083
 30
0.0
 10
-5.730359675752466
 20
-16.15020511700107
 30
0.0
 10
-5.728189075394778
 20
-16.227830260528666
 30
0.0
 10
-5.724940708046516
 20
-16.307950068577213
 30
0.0
 10
-5.7205515510225675
 20
-16.39054931331934
 30
0.0
 10
-5.714958799168116
 20
-16.475611577207918
 30
0.0
 10
-5.708099884803424
 20
-16.56311925610125
 30
0.0
 10
-5.700519843582246
 20
-16.64638217457077
 30
0.0
 10
-5.441995282191891
 20
-16.74873928938736
 30
0.0
 10
-5.172680516007356
 20
-16.817887568546173
 30
0.0
 10
-5.117607418302177
 20
-16.7549818889447
 30
0.0
 10
-5.060622716902338
 20
-16.688218258292
 30
0.0
 10
-5.006099741366363
 20
-16.62268877828581
 30
0.0
 10
-4.953998220833164
 20
-16.55844446733566
 30
0.0
 10
-4.904276994890358
 20
-16.49553552350186
 30
0.0
 10
-4.856894027687823
 20
-16.43401131000782
 30
0.0
 10
-4.811806422876381
 20
-16.373920341758463
 30
0.0
 10
-4.76897043784443
 20
-16.315310270930887
 30
0.0
 10
-4.7283414989512735
 20
-16.25822787378019
 30
0.0
 10
-4.68987421658454
 20
-16.202719037226405
 30
0.0
 10
-4.653522400574284
 20
-16.148828745881463
 30
0.0
 10
-4.619239075630431
 20
-16.096601069065308
 30
0.0
 10
-4.586976497175625
 20
-16.04607914836206
 30
0.0
 10
-4.556686166780758
 20
-15.997305185674689
 30
0.0
 10
-4.528318840323159
 20
-15.95032041417863
 30
0.0
 10
-4.501824635061138
 20
-15.905165242153046
 30
0.0
 10
-4.477152727326555
 20
-15.861878701800972
 30
0.0
 10
-4.454251913289695
 20
-15.820499366633317
 30
0.0
 10
-4.43307012614911
 20
-15.781064478595457
 30
0.0
 10
-4.422356631066575
 20
-15.760503081584082
 30
0.0
 10
-4.410097133436941
 20
-15.738294839306464
 30
0.0
 10
-4.398010992593895
 20
-15.718878004883342
 30
0.0
 10
-4.386166355129751
 20
-15.702244298415726
 30
0.0
 10
-4.3746311820247
 20
-15.688384168873547
 30
0.0
 10
-4.363473223008094
 20
-15.677286800198393
 30
0.0
 10
-4.352760010295812
 20
-15.668940106201616
 30
0.0
 10
-4.342558821554699
 20
-15.663330743937705
 30
0.0
 10
-4.332936653990543
 20
-15.660444121815294
 30
0.0
 10
-4.32396022640478
 20
-15.660264389777387
 30
0.0
 10
-4.139086911420836
 20
-15.710216276167046
 30
0.0
 10
-3.9413449022138254
 20
-15.760987794734001
 30
0.0
 10
-3.755274676539484
 20
-15.806278021755366
 30
0.0
 10
-3.7474951596501795
 20
-15.810759949110329
 30
0.0
 10
-3.7404538307424575
 20
-15.81792502993528
 30
0.0
 10
-3.734216786989593
 20
-15.827755011459491
 30
0.0
 10
-3.7288497782807646
 20
-15.840230404837781
 30
0.0
 10
-3.724418186611189
 20
-15.855330491060688
 30
0.0
 10
-3.7209870055668524
 20
-15.873033327186603
 30
0.0
 10
-3.718620819908483
 20
-15.893315752895772
 30
0.0
 10
-3.717383785259847
 20
-15.916153397362763
 30
0.0
 10
-3.7173396079047665
 20
-15.941520686448417
 30
0.0
 10
-3.717856829151828
 20
-15.964700041587651
 30
0.0
 10
-3.7182929897742403
 20
-16.009461500134556
 30
0.0
 10
-3.718159500185566
 20
-16.05675504153685
 30
0.0
 10
-3.7173927938799425
 20
-16.10657301811798
 30
0.0
 10
-3.715929411619897
 20
-16.158906584530115
 30
0.0
 10
-3.7137060214969306
 20
-16.21374569931496
 30
0.0
 10
-3.7106594389702425
 20
-16.271079126752372
 30
0.0
 10
-3.706726646877219
 20
-16.330894439062224
 30
0.0
 10
-3.7018448154107912
 20
-16.393178018891653
 30
0.0
 10
-3.695951319925248
 20
-16.45791506192541
 30
0.0
 10
-3.688983771520793
 20
-16.525089580962184
 30
0.0
 10
-3.680880015516944
 20
-16.59468440751806
 30
0.0
 10
-3.671578172646814
 20
-16.66668119728978
 30
0.0
 10
-3.6610166480931667
 20
-16.741060433469624
 30
0.0
 10
-3.6491341533234194
 20
-16.817801431193395
 30
0.0
 10
-3.6358697257066623
 20
-16.896882342241287
 30
0.0
 10
-3.6211627480633255
 20
-16.978280160024998
 30
0.0
 10
-3.604952968140265
 20
-17.0619707248815
 30
0.0
 10
-3.587180518006589
 20
-17.147928729673414
 30
0.0
 10
-3.5692246368666964
 20
-17.229585064084556
 30
0.0
 10
-3.299909870682171
 20
-17.29873334324338
 30
0.0
 10
-3.0240521544470473
 20
-17.33358227707494
 30
0.0
 10
-2.9772974968008232
 20
-17.264270138128342
 30
0.0
 10
-2.929129838506223
 20
-17.190890881754527
 30
0.0
 10
-2.8832498145405356
 20
-17.119044580443422
 30
0.0
 10
-2.839611077288204
 20
-17.04877680303192
 30
0.0
 10
-2.798166499413773
 20
-16.98013219298604
 30
0.0
 10
-2.758868189679946
 20
-16.91315445579643
 30
0.0
 10
-2.7216675094581575
 20
-16.847886347475335
 30
0.0
 10
-2.686515088658926
 20
-16.784369662045247
 30
0.0
 10
-2.6533608424987154
 20
-16.722645220358004
 30
0.0
 10
-2.6221539881197433
 20
-16.66275285867468
 30
0.0
 10
-2.5928430615084723
 20
-16.60473141772674
 30
0.0
 10
-2.5653759344386557
 20
-16.548618731769384
 30
0.0
 10
-2.5396998317389485
 20
-16.494451618220182
 30
0.0
 10
-2.515761348103881
 20
-16.44226586774256
 30
0.0
 10
-2.493506459828191
 20
-16.392096216450913
 30
0.0
 10
-2.472880613010214
 20
-16.34397650202774
 30
0.0
 10
-2.453828492709398
 20
-16.29793907900083
 30
0.0
 10
-2.436294464310663
 20
-16.254015799175885
 30
0.0
 10
-2.4202222039214063
 20
-16.212237085133832
 30
0.0
 10
-2.4121702143215975
 20
-16.190495063897814
 30
0.0
 10
-2.402790817308941
 20
-16.16692541776404
 30
0.0
 10
-2.3932335539402314
 20
-16.1461468957667
 30
0.0
 10
-2.383567071198059
 20
-16.12815982432905
 30
0.0
 10
-2.3738599912314724
 20
-16.112963245503153
 30
0.0
 10
-2.3641808851545445
 20
-16.100554919811096
 30
0.0
 10
-2.354598267472569
 20
-16.09093132039843
 30
0.0
 10
-2.3451805576623967
 20
-16.08408764166028
 30
0.0
 10
-2.3359960534481665
 20
-16.080017804040782
 30
0.0
 10
-2.327112934072532
 20
-16.0787144445485
 30
0.0
 10
-2.137436768952367
 20
-16.10510167502738
 30
0.0
 10
-1.9348906559556616
 20
-16.1306891995803
 30
0.0
 10
-1.7446112789857953
 20
-16.15230151658026
 30
0.0
 10
-1.7363313714627944
 20
-16.155773070592037
 30
0.0
 10
-1.728447542788112
 20
-16.161999140093986
 30
0.0
 10
-1.721027656617847
 20
-16.170969900416374
 30
0.0
 10
-1.7141393869836479
 20
-16.18267425703561
 30
0.0
 10
-1.7078501971046223
 20
-16.19709984885469
 30
0.0
 10
-1.7022273182527445
 20
-16.214233051814936
 30
0.0
 10
-1.6973377286763784
 20
-16.23405898283955
 30
0.0
 10
-1.6932481325873918
 20
-16.2565615041061
 30
0.0
 10
-1.6900249392160855
 20
-16.281723227649703
 30
0.0
 10
-1.6876329384875917
 20
-16.304784631661693
 30
0.0
 10
-1.6824555615144832
 20
-16.349247798159517
 30
0.0
 10
-1.6763956720604303
 20
-16.39615168518016
 30
0.0
 10
-1.6693911633684861
 20
-16.445480738355567
 30
0.0
 10
-1.6613801852122683
 20
-16.497218228534667
 30
0.0
 10
-1.6523011636027276
 20
-16.551346255846198
 30
0.0
 10
-1.6420928204371765
 20
-16.607845754044213
 30
0.0
 10
-1.6306941930760224
 20
-16.66669649520058
 30
0.0
 10
-1.6180446538508564
 20
-16.727877094676447
 30
0.0
 10
-1.6040839274027066
 20
-16.791365015943665
 30
0.0
 10
-1.5887521205145205
 20
-16.857136578462228
 30
0.0
 10
-1.5719897203956419
 20
-16.925166959079764
 30
0.0
 10
-1.553737634866529
 20
-16.995430202614717
 30
0.0
 10
-1.5339372009080985
 20
-17.067899226277607
 30
0.0
 10
-1.5125302057670698
 20
-17.142545826820594
 30
0.0
 10
-1.489458905829119
 20
-17.219340687659965
 30
0.0
 10
-1.4646660453893514
 20
-17.298253386274098
 30
0.0
 10
-1.438094875310321
 20
-17.379252401896434
 30
0.0
 10
-1.4096891715630169
 20
-17.46230512350253
 30
0.0
 10
-1.3816406254763194
 20
-17.541067104682536
 30
0.0
 10
-1.1057829092411975
 20
-17.575916038514084
 30
0.0
 10
-0.8277326839299144
 20
-17.575916038514077
 30
0.0
 10
-0.7900338152236055
 20
-17.501290534058615
 30
0.0
 10
-0.7514428327795148
 20
-17.422452886671344
 30
0.0
 10
-0.7149293157694521
 20
-17.345422823145903
 30
0.0
 10
-0.6804415707529743
 20
-17.27023974409876
 30
0.0
 10
-0.6479272466977889
 20
-17.196942034347536
 30
0.0
 10
-0.6173333522528436
 20
-17.12556705238839
 30
0.0
 10
-0.5886062735704164
 20
-17.05615112105306
 30
0.0
 10
-0.5616917916789462
 20
-16.988729517092718
 30
0.0
 10
-0.5365351005190154
 20
-16.923336462186732
 30
0.0
 10
-0.5130808248634314
 20
-16.860005113695575
 30
0.0
 10
-0.49127303847330445
 20
-16.79876755592872
 30
0.0
 10
-0.4710552822794808
 20
-16.7396547914078
 30
0.0
 10
-0.4523705828126069
 20
-16.682696732751182
 30
0.0
 10
-0.4351614701244214
 20
-16.627922194942595
 30
0.0
 10
-0.4193699929131739
 20
-16.57535886922613
 30
0.0
 10
-0.4049377864648457
 20
-16.525033489047143
 30
0.0
 10
-0.39180591691612443
 20
-16.476971221007958
 30
0.0
 10
-0.3799151962576838
 20
-16.43119669288706
 30
0.0
 10
-0.3692059317671966
 20
-16.38773302811865
 30
0.0
 10
-0.3639424323361288
 20
-16.365153267320935
 30
0.0
 10
-0.3575910546343196
 20
-16.340593924730356
 30
0.0
 10
-0.3507133924925022
 20
-16.318781404863184
 30
0.0
 10
-0.34337751067962297
 20
-16.29972463531703
 30
0.0
 10
-0.33565161030130153
 20
-16.283431266333494
 30
0.0
 10
-0.32760400244890386
 20
-16.26990767033307
 30
0.0
 10
-0.3193031034024575
 20
-16.25915893541611
 30
0.0
 10
-0.3108173954327992
 20
-16.251188869105636
 30
0.0
 10
-0.3022153996865099
 20
-16.24599999975952
 30
0.0
 10
-0.2935656806200756
 20
-16.24359356757064
 30
0.0
 10
-0.10207797179468281
 20
-16.245999999751124
 30
0.0
 10
0.10207797179457534
 20
-16.245999999742562
 30
0.0
 10
0.293565680617761
 20
-16.24359356757146
 30
0.0
 10
0.3022153996866438
 20
-16.24599999975948
 30
0.0
 10
0.3108173954405157
 20
-16.251188869103103
 30
0.0
 10
0.31930310799085115
 20
-16.25915893397451
 30
0.0
 10
0.327604006423437
 20
-16.26990766913897
 30
0.0
 10
0.3356516102305406
 20
-16.2834312663538
 30
0.0
 10
0.3433775107315199
 20
-16.299724635302823
 30
0.0
 10
0.3507133924773642
 20
-16.31878140486718
 30
0.0
 10
0.3575910546333725
 20
-16.34059392473056
 30
0.0
 10
0.36394243233599566
 20
-16.365153267320952
 30
0.0
 10
0.3692059317596449
 20
-16.38773302808821
 30
0.0
 10
0.37991519600059276
 20
-16.43119669184027
 30
0.0
 10
0.3918059172433316
 20
-16.476971222161925
 30
0.0
 10
0.4049377630352331
 20
-16.52503340329528
 30
0.0
 10
0.4193699991765746
 20
-16.575358886114746
 30
0.0
 10
0.43516147067836264
 20
-16.627922194627743
 30
0.0
 10
0.45237058281288667
 20
-16.682696732748614
 30
0.0
 10
0.4710552822794766
 20
-16.739654791407727
 30
0.0
 10
0.4912730384733312
 20
-16.79876755592878
 30
0.0
 10
0.5130808268882667
 20
-16.86000511298523
 30
0.0
 10
0.5365351005067792
 20
-16.92333646215464
 30
0.0
 10
0.5616917916774404
 20
-16.98872951709212
 30
0.0
 10
0.5886062735734742
 20
-17.05615112106653
 30
0.0
 10
0.6173333522649579
 20
-17.125567052418408
 30
0.0
 10
0.6479272466759753
 20
-17.19694203429833
 30
0.0
 10
0.6804415707529717
 20
-17.270239744098717
 30
0.0
 10
0.7149293157694981
 20
-17.345422823145974
 30
0.0
 10
0.7514428327795037
 20
-17.422452886671298
 30
0.0
 10
0.7900338152235966
 20
-17.50129053405857
 30
0.0
 10
0.8277326839299268
 20
-17.575916038514077
 30
0.0
 10
1.1057829092411893
 20
-17.575916038514077
 30
0.0
 10
1.3816406254763152
 20
-17.541067104682526
 30
0.0
 10
1.409689171562998
 20
-17.462305123502578
 30
0.0
 10
1.4380948753103007
 20
-17.379252401896483
 30
0.0
 10
1.464666045389373
 20
-17.298253386274023
 30
0.0
 10
1.4894589058291061
 20
-17.219340687660008
 30
0.0
 10
1.5125302057515801
 20
-17.142545826872148
 30
0.0
 10
1.5339372009163403
 20
-17.06789922624631
 30
0.0
 10
1.5537376348678595
 20
-16.995430202600968
 30
0.0
 10
1.571989720394208
 20
-16.92516695908055
 30
0.0
 10
1.588752120506388
 20
-16.8571365784956
 30
0.0
 10
1.6040839295005898
 20
-16.791365016394625
 30
0.0
 10
1.6180446538508602
 20
-16.727877094676384
 30
0.0
 10
1.6306941930760126
 20
-16.66669649520065
 30
0.0
 10
1.642092820437762
 20
-16.60784575404673
 30
0.0
 10
1.652301164191748
 20
-16.55134625608914
 30
0.0
 10
1.6613801893095599
 20
-16.49721821099421
 30
0.0
 10
1.669391150871167
 20
-16.445480826367763
 30
0.0
 10
1.6763956722404119
 20
-16.39615168399428
 30
0.0
 10
1.6824555613906027
 20
-16.349247799230273
 30
0.0
 10
1.6876329384839
 20
-16.304784631692844
 30
0.0
 10
1.6900249392159368
 20
-16.281723227649707
 30
0.0
 10
1.693248132586412
 20
-16.25656150410602
 30
0.0
 10
1.6973377286608449
 20
-16.234058982837485
 30
0.0
 10
1.702227318305998
 20
-16.21423305182253
 30
0.0
 10
1.7078501970318591
 20
-16.19709984884341
 30
0.0
 10
1.7141393910764868
 20
-16.182674257722155
 30
0.0
 10
1.7210276613507247
 20
-16.170969901271523
 30
0.0
 10
1.7284475427960713
 20
-16.161999140095535
 30
0.0
 10
1.7363313714629174
 20
-16.155773070592062
 30
0.0
 10
1.7446112789833816
 20
-16.152301516579737
 30
0.0
 10
1.9348906559566132
 20
-16.130689199588808
 30
0.0
 10
2.1374367689511726
 20
-16.1051016750189
 30
0.0
 10
2.327112934070323
 20
-16.078714444549604
 30
0.0
 10
2.3359960534482798
 20
-16.08001780404073
 30
0.0
 10
2.3451805576697202
 20
-16.084087641656794
 30
0.0
 10
2.354598271844088
 20
-16.090931318393125
 30
0.0
 10
2.3641808889480624
 20
-16.100554918128275
 30
0.0
 10
2.3738599911638003
 20
-16.112963245532175
 30
0.0
 10
2.383567071247752
 20
-16.128159824308455
 30
0.0
 10
2.3932335539256986
 20
-16.14614689577256
 30
0.0
 10
2.402790817308012
 20
-16.16692541776436
 30
0.0
 10
2.412170214321453
 20
-16.190495063897853
 30
0.0
 10
2.420222203910084
 20
-16.21223708510458
 30
0.0
 10
2.436294463924388
 20
-16.254015798169576
 30
0.0
 10
2.4538284931786416
 20
-16.297939080104694
 30
0.0
 10
2.4728805790177786
 20
-16.343976419888563
 30
0.0
 10
2.493506468158894
 20
-16.392096232421352
 30
0.0
 10
2.515761348613978
 20
-16.442265867360764
 30
0.0
 10
2.5396998317388886
 20
-16.4944516182176
 30
0.0
 10
2.5653759344386278
 20
-16.548618731769313
 30
0.0
 10
2.5928430615084914
 20
-16.604731417726803
 30
0.0
 10
2.6221539900395676
 20
-16.662752857716157
 30
0.0
 10
2.6533608424825386
 20
-16.722645220327703
 30
0.0
 10
2.6865150886573423
 20
-16.784369662044845
 30
0.0
 10
2.7216675094628644
 20
-16.847886347488323
 30
0.0
 10
2.7588681896957112
 20
-16.913154455824692
 30
0.0
 10
2.798166499385949
 20
-16.980132192939962
 30
0.0
 10
2.839611077288181
 20
-17.04877680303188
 30
0.0
 10
2.883249814540575
 20
-17.11904458044349
 30
0.0
 10
2.9291298385061904
 20
-17.19089088175448
 30
0.0
 10
2.977297496800793
 20
-17.2642701381283
 30
0.0
 10
3.0240521544470425
 20
-17.333582277074925
 30
0.0
 10
3.299909870682164
 20
-17.298733343243377
 30
0.0
 10
3.569224636866694
 20
-17.22958506408456
 30
0.0
 10
3.5871805180065754
 20
-17.147928729673463
 30
0.0
 10
3.6049529681402506
 20
-17.061970724881558
 30
0.0
 10
3.6211627480633366
 20
-16.978280160024916
 30
0.0
 10
3.6358697257066543
 20
-16.896882342241334
 30
0.0
 10
3.649134153314513
 20
-16.81780143124648
 30
0.0
 10
3.6610166480974202
 20
-16.741060433437546
 30
0.0
 10
3.67157817264641
 20
-16.666681197275974
 30
0.0
 10
3.680880015515619
 20
-16.594684407519015
 30
0.0
 10
3.6889837715169063
 20
-16.525089580996312
 30
0.0
 10
3.6959513220631086
 20
-16.457915062109883
 30
0.0
 10
3.7018448154107864
 20
-16.393178018891593
 30
0.0
 10
3.706726646877218
 20
-16.3308944390623
 30
0.0
 10
3.710659438971139
 20
-16.2710791267548
 30
0.0
 10
3.7137060221117557
 20
-16.213745699482164
 30
0.0
 10
3.7159294134864775
 20
-16.15890656661444
 30
0.0
 10
3.717392792512021
 20
-16.106573107002507
 30
0.0
 10
3.7181595002154975
 20
-16.05675504033776
 30
0.0
 10
3.718292989785537
 20
-16.009461501212396
 30
0.0
 10
3.717856829152069
 20
-15.964700041619016
 30
0.0
 10
3.7173396079046186
 20
-15.941520686448433
 30
0.0
 10
3.717383785258866
 20
-15.916153397362809
 30
0.0
 10
3.718620819892813
 20
-15.893315752895674
 30
0.0
 10
3.720987005620637
 20
-15.873033327187459
 30
0.0
 10
3.724418186537586
 20
-15.855330491058618
 30
0.0
 10
3.7288497824273774
 20
-15.840230405005943
 30
0.0
 10
3.7342167917923295
 20
-15.82775501171471
 30
0.0
 10
3.7404538307505484
 20
-15.817925029935823
 30
0.0
 10
3.7474951596503043
 20
-15.810759949110334
 30
0.0
 10
3.7552746765370237
 20
-15.806278021755151
 30
0.0
 10
3.941344902215836
 20
-15.760987794742324
 30
0.0
 10
4.139086911418589
 20
-15.710216276158786
 30
0.0
 10
4.323960226402727
 20
-15.66026438977876
 30
0.0
 10
4.332936653990649
 20
-15.660444121815226
 30
0.0
 10
4.342558821561528
 20
-15.663330743933331
 30
0.0
 10
4.352760014381529
 20
-15.66894010366423
 30
0.0
 10
4.363473226560785
 20
-15.677286798053387
 30
0.0
 10
4.3746311819612
 20
-15.688384168910822
 30
0.0
 10
4.386166355176471
 20
-15.702244298389065
 30
0.0
 10
4.398010992580211
 20
-15.718878004890978
 30
0.0
 10
4.410097133436059
 20
-15.738294839306898
 30
0.0
 10
4.422356631066435
 20
-15.760503081584135
 30
0.0
 10
4.4330701261342105
 20
-15.78106447856785
 30
0.0
 10
4.454251912780341
 20
-15.820499365683359
 30
0.0
 10
4.4771527279304495
 20
-15.86187870283732
 30
0.0
 10
4.501824591041974
 20
-15.905165164921945
 30
0.0
 10
4.528318850589798
 20
-15.950320428979023
 30
0.0
 10
4.556686167238982
 20
-15.997305185231973
 30
0.0
 10
4.586976497175242
 20
-16.046079148359503
 30
0.0
 10
4.619239075630395
 20
-16.096601069065244
 30
0.0
 10
4.65352240057431
 20
-16.148828745881524
 30
0.0
 10
4.689874218369092
 20
-16.20271903603483
 30
0.0
 10
4.728341498931426
 20
-16.25822787375216
 30
0.0
 10
4.768970437842809
 20
-16.315310270930684
 30
0.0
 10
4.811806422882678
 20
-16.373920341770756
 30
0.0
 10
4.856894027707007
 20
-16.434011310033885
 30
0.0
 10
4.9042769948569775
 20
-16.495535523459626
 30
0.0
 10
4.953998220833136
 20
-16.55844446733563
 30
0.0
 10
5.00609974136641
 20
-16.622688778285873
 30
0.0
 10
5.0606227169023
 20
-16.68821825829196
 30
0.0
 10
5.117607418302142
 20
-16.754981888944666
 30
0.0
 10
5.172680516007346
 20
-16.817887568546155
 30
0.0
 10
5.441995282191871
 20
-16.74873928938733
 30
0.0
 10
5.700519843582237
 20
-16.646382174570764
 30
0.0
 10
5.708099884803418
 20
-16.5631192561013
 30
0.0
 10
5.714958799168109
 20
-16.475611577207975
 30
0.0
 10
5.720551551022569
 20
-16.390549313319266
 30
0.0
 10
5.724940708046514
 20
-16.30795006857726
 30
0.0
 10
5.728189075392596
 20
-16.22783026058245
 30
0.0
 10
5.730359675752665
 20
-16.150205116968714
 30
0.0
 10
5.73151572934784
 20
-16.075088673277182
 30
0.0
 10
5.731720633941209
 20
-16.00249376966695
 30
0.0
 10
5.731037944758516
 20
-15.93243204919469
 30
0.0
 10
5.7295313544223925
 20
-15.864913955813757
 30
0.0
 10
5.727264672856782
 20
-15.799948732939006
 30
0.0
 10
5.724301807166002
 20
-15.737544422016466
 30
0.0
 10
5.720706741511436
 20
-15.67770786176241
 30
0.0
 10
5.716543517602616
 20
-15.62044468757215
 30
0.0
 10
5.711876211024079
 20
-15.565759312816269
 30
0.0
 10
5.706768929152145
 20
-15.513655108139421
 30
0.0
 10
5.70128573175136
 20
-15.464133777854588
 30
0.0
 10
5.695490716530988
 20
-15.41719643173166
 30
0.0
 10
5.689447896684493
 20
-15.372842595039323
 30
0.0
 10
5.6860296103456
 20
-15.349910841019009
 30
0.0
 10
5.682894074980353
 20
-15.324738043694008
 30
0.0
 10
5.681259039398669
 20
-15.301925439324066
 30
0.0
 10
5.681064505046745
 20
-15.281506384892143
 30
0.0
 10
5.682249876382033
 20
-15.263513099914494
 30
0.0
 10
5.684753985202499
 20
-15.247976656307806
 30
0.0
 10
5.6885150927143835
 20
-15.234926970580613
 30
0.0
 10
5.6934709273552775
 20
-15.224392792883625
 30
0.0
 10
5.699558710524908
 20
-15.216401698340958
 30
0.0
 10
5.706715149149321
 20
-15.210980080314675
 30
0.0
 10
5.885641784921794
 20
-15.142726197215014
 30
0.0
 10
6.075461180722264
 20
-15.06757138179534
 30
0.0
 10
6.2526160829561235
 20
-14.994842610592613
 30
0.0
 10
6.261544255128691
 20
-14.993895880692838
 30
0.0
 10
6.271452338718412
 20
-14.995553763557794
 30
0.0
 10
6.282276131279378
 20
-14.999840343329435
 30
0.0
 10
6.293950984778085
 20
-15.006778500016011
 30
0.0
 10
6.306411825741072
 20
-15.016389902159311
 30
0.0
 10
6.319593175515279
 20
-15.028694999818002
 30
0.0
 10
6.333429170637316
 20
-15.043713017869695
 30
0.0
 10
6.347853583305488
 20
-15.06146194963194
 30
0.0
 10
6.3627998419517
 20
-15.081958550805652
 30
0.0
 10
6.376005884281469
 20
-15.101015058053141
 30
0.0
 10
6.401963148130632
 20
-15.137484207492081
 30
0.0
 10
6.429869589641393
 20
-15.175667022999155
 30
0.0
 10
6.459772140005779
 20
-15.21551995401938
 30
0.0
 10
6.491716939660341
 20
-15.256998544112125
 30
0.0
 10
6.525749322974252
 20
-15.30005744400517
 30
0.0
 10
6.5619138031242015
 20
-15.344650424868721
 30
0.0
 10
6.6002540571998
 20
-15.390730391858625
 30
0.0
 10
6.640812911503535
 20
-15.438249397870997
 30
0.0
 10
6.683632328679876
 20
-15.487158656120034
 30
0.0
 10
6.728753385367866
 20
-15.537408561412972
 30
0.0
 10
6.776216274378643
 20
-15.588948690550014
 30
0.0
 10
6.826060274579803
 20
-15.641727830957572
 30
0.0
 10
6.878323745533505
 20
-15.695693988681338
 30
0.0
 10
6.933044112446042
 20
-15.750794404819054
 30
0.0
 10
6.990257853060461
 20
-15.806975570854226
 30
0.0
 10
7.050000484771865
 20
-15.86418324418173
 30
0.0
 10
7.112306551983381
 20
-15.922362463837802
 30
0.0
 10
7.177209613706378
 20
-15.981457566431343
 30
0.0
 10
7.2397326158206665
 20
-16.036964726542394
 30
0.0
 10
7.498257177211038
 20
-15.934607611725799
 30
0.0
 10
7.741914447039009
 20
-15.800655894097265
 30
0.0
 10
7.738999106563334
 20
-15.717099497532564
 30
0.0
 10
7.734836315982193
 20
-15.629422192908523
 30
0.0
 10
7.729723838730336
 20
-15.544329712703
 30
0.0
 10
7.7237259555066835
 20
-15.46183168043455
 30
0.0
 10
7.716907033897461
 20
-15.38193651267312
 30
0.0
 10
7.709331508170361
 20
-15.304651418140377
 30
0.0
 10
7.701063859155931
 20
-15.229982398108293
 30
0.0
 10
7.6921685940056195
 20
-15.157934245640813
 30
0.0
 10
7.682710226055174
 20
-15.088510546403683
 30
0.0
 10
7.6727532546663175
 20
-15.021713679194221
 30
0.0
 10
7.66236214510976
 20
-14.957544817036089
 30
0.0
 10
7.6516013084236425
 20
-14.896003928282079
 30
0.0
 10
7.640535081353551
 20
-14.837089778381303
 30
0.0
 10
7.629227706923324
 20
-14.780799931737757
 30
0.0
 10
7.617743308604385
 20
-14.727130736121081
 30
0.0
 10
7.606145910721039
 20
-14.676077500812617
 30
0.0
 10
7.594499281514506
 20
-14.627633887868896
 30
0.0
 10
7.582867152355519
 20
-14.581792964735778
 30
0.0
 10
7.571312972174783
 20
-14.538546237444814
 30
0.0
 10
7.565047529161998
 20
-14.516223732034435
 30
0.0
 10
7.558781730343044
 20
-14.491642416521374
 30
0.0
 10
7.554300410033573
 20
-14.469214620647127
 30
0.0
 10
7.551548223524842
 20
-14.448980958177644
 30
0.0
 10
7.5504690912644055
 20
-14.430980989203952
 30
0.0
 10
7.551006221723564
 20
-14.415253207039946
 30
0.0
 10
7.553102112470142
 20
-14.401835030216217
 30
0.0
 10
7.556698586320953
 20
-14.390762786876223
 30
0.0
 10
7.561736815783208
 20
-14.38207170295096
 30
0.0
 10
7.568157314833158
 20
-14.375795896408572
 30
0.0
 10
7.737118580767568
 20
-14.28565476173145
 30
0.0
 10
7.9160217979013705
 20
-14.187301885810122
 30
0.0
 10
8.082664448749513
 20
-14.09294320595262
 30
0.0
 10
8.091403562898135
 20
-14.090884944612675
 30
0.0
 10
8.101441306109685
 20
-14.09128794242133
 30
0.0
 10
8.112717000737108
 20
-14.094184140310036
 30
0.0
 10
8.125169376141374
 20
-14.099604340418429
 30
0.0
 10
8.138736587761201
 20
-14.10757819629422
 30
0.0
 10
8.153356236334247
 20
-14.118134203392575
 30
0.0
 10
8.168965387266281
 20
-14.131299689878041
 30
0.0
 10
8.185500590142276
 20
-14.147100807730023
 30
0.0
 10
8.202897898377012
 20
-14.165562524155625
 30
0.0
 10
8.218388220792324
 20
-14.182813609163787
 30
0.0
 10
8.248711600287502
 20
-14.215741880653898
 30
0.0
 10
8.281183566905792
 20
-14.250126008704227
 30
0.0
 10
8.315845223440874
 20
-14.285916904130877
 30
0.0
 10
8.352736774628724
 20
-14.323064678115413
 30
0.0
 10
8.391897513592541
 20
-14.361518657075099
 30
0.0
 10
8.433365808500602
 20
-14.401227397727899
 30
0.0
 10
8.477179089486516
 20
-14.442138702395697
 30
0.0
 10
8.523373835789018
 20
-14.484199634492873
 30
0.0
 10
8.571985564558966
 20
-14.527356532618079
 30
0.0
 10
8.623048811354629
 20
-14.57155503446232
 30
0.0
 10
8.676597132352146
 20
-14.6167400769328
 30
0.0
 10
8.732663078056062
 20
-14.662855928334888
 30
0.0
 10
8.791278188981513
 20
-14.709846196974171
 30
0.0
 10
8.852472982782043
 20
-14.757653849345969
 30
0.0
 10
8.916276943167402
 20
-14.806221226990939
 30
0.0
 10
8.982718509066329
 20
-14.855490063513122
 30
0.0
 10
9.051825064053705
 20
-14.90540150177062
 30
0.0
 10
9.123622926045275
 20
-14.955896111235392
 30
0.0
 10
9.19260980747586
 20
-15.003129370782638
 30
0.0
 10
9.43626707730382
 20
-14.869177653154129
 30
0.0
 10
9.66121443487043
 20
-14.705743831319557
 30
0.0
 10
9.647849689358742
 20
-14.623211690947613
 30
0.0
 10
9.632730843525966
 20
-14.536747484062658
 30
0.0
 10
9.616993763988095
 20
-14.452966746784947
 30
0.0
 10
9.600703430718244
 20
-14.371870970240863
 30
0.0
 10
9.583924758620922
 20
-14.293460437235465
 30
0.0
 10
9.566722577372769
 20
-14.217734223892382
 30
0.0
 10
9.549161611512545
 20
-14.144690202570759
 30
0.0
 10
9.531306460263748
 20
-14.074325043649926
 30
0.0
 10
9.513221577658284
 20
-14.006634218856606
 30
0.0
 10
9.494971252603506
 20
-13.941612004317019
 30
0.0
 10
9.476619589061054
 20
-13.879251484164357
 30
0.0
 10
9.458230486202352
 20
-13.819544554157272
 30
0.0
 10
9.439867618728274
 20
-13.762481925947322
 30
0.0
 10
9.421594417826103
 20
-13.708053131357985
 30
0.0
 10
9.4034740435887
 20
-13.65624651015581
 30
0.0
 10
9.385569427586509
 20
-13.607049384234266
 30
0.0
 10
9.367943040874176
 20
-13.56044747334659
 30
0.0
 10
9.35065724340211
 20
-13.51642591194513
 30
0.0
 10
9.333773919210714
 20
-13.474968320779265
 30
0.0
 10
9.324760129303142
 20
-13.453607103223963
 30
0.0
 10
9.31546288242086
 20
-13.430004931552647
 30
0.0
 10
9.3082059504819
 20
-13.40831564391275
 30
0.0
 10
9.302939515441677
 20
-13.388586470349853
 30
0.0
 10
9.299612898145906
 20
-13.370863687643492
 30
0.0
 10
9.298174579375551
 20
-13.355192603442218
 30
0.0
 10
9.298572199907726
 20
-13.341617548186093
 30
0.0
 10
9.300752594427395
 20
-13.330181855094803
 30
0.0
 10
9.304661814293961
 20
-13.320927845372246
 30
0.0
 10
9.310245118664012
 20
-13.313896823531913
 30
0.0
 10
9.466576394664006
 20
-13.203290016818892
 30
0.0
 10
9.631742022525337
 20
-13.083290164002348
 30
0.0
 10
9.785244367836398
 20
-12.96878966823857
 30
0.0
 10
9.793656602910456
 20
-12.965652335469326
 30
0.0
 10
9.803665704537131
 20
-12.964794092705498
 30
0.0
 10
9.815215476790966
 20
-12.966254233940463
 30
0.0
 10
9.828248992701972
 20
-12.970070997677093
 30
0.0
 10
9.842708611946737
 20
-12.976281554814864
 30
0.0
 10
9.858535998727275
 20
-12.984921996815089
 30
0.0
 10
9.87567213983465
 20
-12.99602732414777
 30
0.0
 10
9.894057362891463
 20
-13.009631435021836
 30
0.0
 10
9.913631354771212
 20
-13.0257671144028
 30
0.0
 10
9.93116166563411
 20
-13.040940717255758
 30
0.0
 10
9.965372942966352
 20
-13.069808812285244
 30
0.0
 10
10.001898332380785
 20
-13.09985199463939
 30
0.0
 10
10.04077246005714
 20
-13.131016410671142
 30
0.0
 10
10.082028960978098
 20
-13.163247525960733
 30
0.0
 10
10.12570046734487
 20
-13.196490141767573
 30
0.0
 10
10.171818597228384
 20
-13.230688411648673
 30
0.0
 10
10.220413943510682
 20
-13.265785858280523
 30
0.0
 10
10.271516063067352
 20
-13.30172539043735
 30
0.0
 10
10.325153467428967
 20
-13.338449318374607
 30
0.0
 10
10.38135360642663
 20
-13.375899379993163
 30
0.0
 10
10.440142870400539
 20
-13.414016740685087
 30
0.0
 10
10.50154656815129
 20
-13.45274202855682
 30
0.0
 10
10.565588923734225
 20
-13.492015343504551
 30
0.0
 10
10.632293065968511
 20
-13.531776276873625
 30
0.0
 10
10.701681019554899
 20
-13.571963929570185
 30
0.0
 10
10.773773696456853
 20
-13.612516930303313
 30
0.0
 10
10.848590887565685
 20
-13.65337345396527
 30
0.0
 10
10.926151254652254
 20
-13.694471240145997
 30
0.0
 10
11.000514051068217
 20
-13.732685702410608
 30
0.0
 10
11.225461408634823
 20
-13.56925188057604
 30
0.0
 10
11.428151299734203
 20
-13.378913403536385
 30
0.0
 10
11.404547919206927
 20
-13.298707100513168
 30
0.0
 10
11.37871145135286
 20
-13.214819583561091
 30
0.0
 10
11.352597952674166
 20
-13.133671861486247
 30
0.0
 10
11.326272077645159
 20
-13.0552572695069
 30
0.0
 10
11.299798264741803
 20
-12.979567952203213
 30
0.0
 10
11.273240716646963
 20
-12.90659486767085
 30
0.0
 10
11.246663380862975
 20
-12.836327792910316
 30
0.0
 10
11.220129929917036
 20
-12.76875532812642
 30
0.0
 10
11.193703742058627
 20
-12.703864902520438
 30
0.0
 10
11.167447881866256
 20
-12.641642779816404
 30
0.0
 10
11.141425081034726
 20
-12.582074064324392
 30
0.0
 10
11.11569771914064
 20
-12.525142707017638
 30
0.0
 10
11.090327804652086
 20
-12.470831512232941
 30
0.0
 10
11.06537695657208
 20
-12.419122144302673
 30
0.0
 10
11.040906375542525
 20
-12.369995118879135
 30
0.0
 10
11.016976907911541
 20
-12.323429970409233
 30
0.0
 10
10.993648742341353
 20
-12.279404701550934
 30
0.0
 10
10.970981883908378
 20
-12.23789674820164
 30
0.0
 10
10.949035675814432
 20
-12.198882104139122
 30
0.0
 10
10.937415691863494
 20
-12.178819053600314
 30
0.0
 10
10.925233620055126
 20
-12.156568246117256
 30
0.0
 10
10.915315522638428
 20
-12.135959519734342
 30
0.0
 10
10.907617893893319
 20
-12.117045975930754
 30
0.0
 10
10.902096254304189
 20
-12.099879878362081
 30
0.0
 10
10.89870516945054
 20
-12.084512634482845
 30
0.0
 10
10.897398249054989
 20
-12.07099478752506
 30
0.0
 10
10.898128178119439
 20
-12.059375992393871
 30
0.0
 10
10.900846737657767
 20
-12.049704998135429
 30
0.0
 10
10.905504795302697
 20
-12.042029644411697
 30
0.0
 10
11.046740643757978
 20
-11.912701501077947
 30
0.0
 10
11.195563921730304
 20
-11.77294714072954
 30
0.0
 10
11.333505137820868
 20
-11.64011057027696
 30
0.0
 10
11.341457827848016
 20
-11.635943643690345
 30
0.0
 10
11.35128043837802
 20
-11.633837695355108
 30
0.0
 10
11.36292214145032
 20
-11.633838752636809
 30
0.0
 10
11.376331251536309
 20
-11.635991887357523
 30
0.0
 10
11.391455241572762
 20
-11.640341201561206
 30
0.0
 10
11.408240759216437
 20
-11.646929813531404
 30
0.0
 10
11.42663364331726
 20
-11.655799844065267
 30
0.0
 10
11.446578940604482
 20
-11.666992403006228
 30
0.0
 10
11.468020922584365
 20
-11.680547576039727
 30
0.0
 10
11.487314758420442
 20
-11.693404399956222
 30
0.0
 10
11.524874401309392
 20
-11.717757051421502
 30
0.0
 10
11.564877186309696
 20
-11.742985489146818
 30
0.0
 10
11.607350716911585
 20
-11.769031944326128
 30
0.0
 10
11.65232152790069
 20
-11.795838096978722
 30
0.0
 10
11.69981507592692
 20
-11.823345093723264
 30
0.0
 10
11.749855730327988
 20
-11.851493565687583
 30
0.0
 10
11.802466764266345
 20
-11.880223646583909
 30
0.0
 10
11.857670346124852
 20
-11.90947499090903
 30
0.0
 10
11.915487532169916
 20
-11.93918679037696
 30
0.0
 10
11.975938253605252
 20
-11.96929780192652
 30
0.0
 10
12.03904131874368
 20
-11.999746347291572
 30
0.0
 10
12.104814395546944
 20
-12.030470350709846
 30
0.0
 10
12.173274009582771
 20
-12.06140734832856
 30
0.0
 10
12.24443553608066
 20
-12.092494509023647
 30
0.0
 10
12.31831319338966
 20
-12.123668653481833
 30
0.0
 10
12.394920036713822
 20
-12.154866273379158
 30
0.0
 10
12.474267952146699
 20
-12.186023550660918
 30
0.0
 10
12.556367651006996
 20
-12.217076376918902
 30
0.0
 10
12.63493361668667
 20
-12.245669377002757
 30
0.0
 10
12.837623507786034
 20
-12.055330899963112
 30
0.0
 10
13.014859391754477
 20
-11.84108951920398
 30
0.0
 10
12.981389615622511
 20
-11.764473954841097
 30
0.0
 10
12.945242982279167
 20
-11.684486084076205
 30
0.0
 10
12.909164889933262
 20
-11.607251125256647
 30
0.0
 10
12.873218647920618
 20
-11.532754362800155
 30
0.0
 10
12.837467202055404
 20
-11.460979926946667
 30
0.0
 10
12.801973115512046
 20
-11.391910800360112
 30
0.0
 10
12.766798550266138
 20
-11.325528825905153
 30
0.0
 10
12.732005247994788
 20
-11.261814713393669
 30
0.0
 10
12.697654511652201
 20
-11.200748047750492
 30
0.0
 10
12.66380718692196
 20
-11.14230729692675
 30
0.0
 10
12.630523643915735
 20
-11.08646982032332
 30
0.0
 10
12.597863758852112
 20
-11.033211877230768
 30
0.0
 10
12.565886896055822
 20
-10.982508635857014
 30
0.0
 10
12.534651890577118
 20
-10.934334182207756
 30
0.0
 10
12.50421701843626
 20
-10.888661515100845
 30
0.0
 10
12.474640081175798
 20
-10.845462704290629
 30
0.0
 10
12.445978035854369
 20
-10.804708382251022
 30
0.0
 10
12.418287586358495
 20
-10.766368642173862
 30
0.0
 10
12.391624599173669
 20
-10.730412229457775
 30
0.0
 10
12.377581675267713
 20
-10.711963752227543
 30
0.0
 10
12.362706897082893
 20
-10.691415217458738
 30
0.0
 10
12.350284048509506
 20
-10.672212064258924
 30
0.0
 10
12.340276622263158
 20
-10.65441242809883
 30
0.0
 10
12.33264703993546
 20
-10.638073735281033
 30
0.0
 10
12.327356668432394
 20
-10.623252682339757
 30
0.0
 10
12.324365818024475
 20
-10.610005228202002
 30
0.0
 10
12.323633770216318
 20
-10.598386566370873
 30
0.0
 10
12.3251187961185
 20
-10.588451104933165
 30
0.0
 10
12.328778146686659
 20
-10.580252464239294
 30
0.0
 10
12.452691193896882
 20
-10.434242566362078
 30
0.0
 10
12.58282508998386
 20
-10.276937708229712
 30
0.0
 10
12.703029761474092
 20
-10.127859975157087
 30
0.0
 10
12.710397487781897
 20
-10.122729169674571
 30
0.0
 10
12.719878698779423
 20
-10.119408727831207
 30
0.0
 10
12.731428736058326
 20
-10.117950684485677
 30
0.0
 10
12.745001970643028
 20
-10.118406233969713
 30
0.0
 10
12.760551817113662
 20
-10.12082571395616
 30
0.0
 10
12.778030747980049
 20
-10.125258589549718
 30
0.0
 10
12.797390308304673
 20
-10.13175343760454
 30
0.0
 10
12.818581130569344
 20
-10.140357931271787
 30
0.0
 10
12.841552949784717
 20
-10.15111882478162
 30
0.0
 10
12.862306035277259
 20
-10.16145610996819
 30
0.0
 10
12.902621705717515
 20
-10.18090926200809
 30
0.0
 10
12.945471018487728
 20
-10.200925087570907
 30
0.0
 10
12.990874119065104
 20
-10.221442813740202
 30
0.0
 10
13.038850023568799
 20
-10.242401254715245
 30
0.0
 10
13.089416611630844
 20
-10.263738830626947
 30
0.0
 10
13.142590619536723
 20
-10.285393586456529
 30
0.0
 10
13.19838763369762
 20
-10.30730321107907
 30
0.0
 10
13.256822084395031
 20
-10.329405056398578
 30
0.0
 10
13.317907240561308
 20
-10.3516361545706
 30
0.0
 10
13.381655200445767
 20
-10.373933247411584
 30
0.0
 10
13.448076893715537
 20
-10.396232785700272
 30
0.0
 10
13.517182068859194
 20
-10.418470968777555
 30
0.0
 10
13.588979292338777
 20
-10.440583754133938
 30
0.0
 10
13.663475943317563
 20
-10.462506879060305
 30
0.0
 10
13.740678209561038
 20
-10.48417588039948
 30
0.0
 10
13.820591083625478
 20
-10.505526114358666
 30
0.0
 10
13.903218359355874
 20
-10.526492776385044
 30
0.0
 10
13.98856262869489
 20
-10.547010921100139
 30
0.0
 10
14.070092731426483
 20
-10.56553153031128
 30
0.0
 10
14.247328615394919
 20
-10.351290149552149
 30
0.0
 10
14.396315376466651
 20
-10.116524579629708
 30
0.0
 10
14.353507043093467
 20
-10.044708027145075
 30
0.0
 10
14.307620298261623
 20
-9.969881259071768
 30
0.0
 10
14.262146585316808
 20
-9.89777710494601
 30
0.0
 10
14.217146870030312
 20
-9.828373030458522
 30
0.0
 10
14.172681612861412
 20
-9.76164540178461
 30
0.0
 10
14.128810750817465
 20
-9.697569494530029
 30
0.0
 10
14.085593680015828
 20
-9.63611950377247
 30
0.0
 10
14.043089237580404
 20
-9.57726855314867
 30
0.0
 10
14.001355684385894
 20
-9.520988705264951
 30
0.0
 10
13.96045068764819
 20
-9.467250971872803
 30
0.0
 10
13.920431303823104
 20
-9.416025324519682
 30
0.0
 10
13.88135396148747
 20
-9.367280705218652
 30
0.0
 10
13.84327444461179
 20
-9.320985037660959
 30
0.0
 10
13.806247876429673
 20
-9.27710523820478
 30
0.0
 10
13.770328689292088
 20
-9.235607214658302
 30
0.0
 10
13.73557072837115
 20
-9.196456012559965
 30
0.0
 10
13.702026820875073
 20
-9.15961535734307
 30
0.0
 10
13.669749475246325
 20
-9.125048471142108
 30
0.0
 10
13.63879020020622
 20
-9.092717343880304
 30
0.0
 10
13.622545801644076
 20
-9.076174383465158
 30
0.0
 10
13.605212901220545
 20
-9.05765218407901
 30
0.0
 10
13.59048121723352
 20
-9.040157449259663
 30
0.0
 10
13.578321816575983
 20
-9.023752431638297
 30
0.0
 10
13.568704614580719
 20
-9.008498814517374
 30
0.0
 10
13.561598388747154
 20
-8.99445768937261
 30
0.0
 10
13.556970775824444
 20
-8.981689548320286
 30
0.0
 10
13.554788295974921
 20
-8.97025425302694
 30
0.0
 10
13.555016368495368
 20
-8.960211012572001
 30
0.0
 10
13.557619301842308
 20
-8.951618382369363
 30
0.0
 10
13.6622553650309
 20
-8.791229393260288
 30
0.0
 10
13.771647589953018
 20
-8.618854828926077
 30
0.0
 10
13.872220017366725
 20
-8.455886978138686
 30
0.0
 10
13.878886586510045
 20
-8.449873209627722
 30
0.0
 10
13.887876873613866
 20
-8.445390639627636
 30
0.0
 10
13.899153094111822
 20
-8.442496489869429
 30
0.0
 10
13.912676395177577
 20
-8.441247269829288
 30
0.0
 10
13.928406867714523
 20
-8.441698758953786
 30
0.0
 10
13.946303558622454
 20
-8.443905989074523
 30
0.0
 10
13.966324483339717
 20
-8.447923227016647
 30
0.0
 10
13.98842663865594
 20
-8.453803957404972
 30
0.0
 10
14.012566015795077
 20
-8.461600865672239
 30
0.0
 10
14.034451062388575
 20
-8.469255586966298
 30
0.0
 10
14.076886958173882
 20
-8.483502451752399
 30
0.0
 10
14.121907039454678
 20
-8.497990003626716
 30
0.0
 10
14.169523675988938
 20
-8.512655423987612
 30
0.0
 10
14.219748065333782
 20
-8.527435626150965
 30
0.0
 10
14.272590228130886
 20
-8.542267274911246
 30
0.0
 10
14.328059003672287
 20
-8.557086806170732
 30
0.0
 10
14.386162045810888
 20
-8.571830446651019
 30
0.0
 10
14.44690581915266
 20
-8.586434233661219
 30
0.0
 10
14.510295596036897
 20
-8.600834032838948
 30
0.0
 10
14.576335450961917
 20
-8.614965568497613
 30
0.0
 10
14.645028262581771
 20
-8.62876442267003
 30
0.0
 10
14.716375706172377
 20
-8.642166075974743
 30
0.0
 10
14.790378253991861
 20
-8.655105917234184
 30
0.0
 10
14.867035172763462
 20
-8.667519265615505
 30
0.0
 10
14.946344522084358
 20
-8.679341390740118
 30
0.0
 10
15.028303153127439
 20
-8.690507532817616
 30
0.0
 10
15.112906707657947
 20
-8.700952922803578
 30
0.0
 10
15.20014961736601
 20
-8.710612802576678
 30
0.0
 10
15.283358078725719
 20
-8.718768939844178
 30
0.0
 10
15.432344839797457
 20
-8.484003369921725
 30
0.0
 10
15.550732867749996
 20
-8.232416004115802
 30
0.0
 10
15.49926109012535
 20
-8.166531053443236
 30
0.0
 10
15.44435789518242
 20
-8.098045450893375
 30
0.0
 10
15.390205709256517
 20
-8.032209227044914
 30
0.0
 10
15.33686219308776
 20
-7.9689923842410835
 30
0.0
 10
15.284384368282987
 20
-7.908363897312087
 30
0.0
 10
15.232828600440063
 20
-7.850291724723976
 30
0.0
 10
15.182250583105871
 20
-7.794742820726509
 30
0.0
 10
15.132705320954496
 20
-7.741683146637585
 30
0.0
 10
15.084247113972362
 20
-7.691077683334401
 30
0.0
 10
15.03692954146121
 20
-7.642890443530805
 30
0.0
 10
14.990805446406602
 20
-7.597084484487473
 30
0.0
 10
14.945926919831262
 20
-7.553621920742969
 30
0.0
 10
14.902345285604923
 20
-7.512463937334409
 30
0.0
 10
14.860111085818227
 20
-7.473570802721256
 30
0.0
 10
14.819274050722154
 20
-7.436901871356256
 30
0.0
 10
14.779883219947864
 20
-7.402415715814684
 30
0.0
 10
14.741986457736513
 20
-7.37006972656081
 30
0.0
 10
14.705631248997008
 20
-7.339820834680696
 30
0.0
 10
14.67086393236318
 20
-7.311624874063774
 30
0.0
 10
14.65267424301411
 20
-7.297248322831745
 30
0.0
 10
14.633156570545713
 20
-7.2810445649772
 30
0.0
 10
14.616348378601808
 20
-7.265534150957268
 30
0.0
 10
14.602228764545128
 20
-7.250782468802399
 30
0.0
 10
14.590775611902798
 20
-7.236854486032419
 30
0.0
 10
14.581965601165184
 20
-7.223814725615459
 30
0.0
 10
14.575774205947877
 20
-7.21172725886028
 30
0.0
 10
14.572175713067967
 20
-7.2006556715426075
 30
0.0
 10
14.571143235366785
 20
-7.190663039971953
 30
0.0
 10
14.572648701678707
 20
-7.181811931171832
 30
0.0
 10
14.656357607622628
 20
-7.009573281000887
 30
0.0
 10
14.743282980645116
 20
-6.824847460315955
 30
0.0
 10
14.82263707672293
 20
-6.650559592172987
 30
0.0
 10
14.828497352923963
 20
-6.6437577013554465
 30
0.0
 10
14.836854933935912
 20
-6.638183696005296
 30
0.0
 10
14.847679504919583
 20
-6.63389908230498
 30
0.0
 10
14.860939601930156
 20
-6.630964793686946
 30
0.0
 10
14.876602621584574
 20
-6.629441171696293
 30
0.0
 10
14.894634831027467
 20
-6.629387947006668
 30
0.0
 10
14.915001378194658
 20
-6.630864220593966
 30
0.0
 10
14.937666302369907
 20
-6.633928445072168
 30
0.0
 10
14.962592545035161
 20
-6.638638406195847
 30
0.0
 10
14.985264412471338
 20
-6.64348984406988
 30
0.0
 10
15.029151294175186
 20
-6.65230574003384
 30
0.0
 10
15.075632150391078
 20
-6.661036540872156
 30
0.0
 10
15.124711380079274
 20
-6.669618372984862
 30
0.0
 10
15.176392185642703
 20
-6.677987243719142
 30
0.0
 10
15.230676570701181
 20
-6.686079061367057
 30
0.0
 10
15.287565338152376
 20
-6.693829655195726
 30
0.0
 10
15.347058088585081
 20
-6.701174795515959
 30
0.0
 10
15.40915321897904
 20
-6.708050213771823
 30
0.0
 10
15.473847921932558
 20
-6.714391620520205
 30
0.0
 10
15.541138183935676
 20
-6.720134736237449
 30
0.0
 10
15.61101878723127
 20
-6.725215290120257
 30
0.0
 10
15.6834833074625
 20
-6.729569061574024
 30
0.0
 10
15.758524115235794
 20
-6.73313188970998
 30
0.0
 10
15.836132376398561
 20
-6.735839695626906
 30
0.0
 10
15.916298052980975
 20
-6.737628502561543
 30
0.0
 10
15.999009904431437
 20
-6.738434456026462
 30
0.0
 10
16.084255489167393
 20
-6.738193843932155
 30
0.0
 10
16.172021166442025
 20
-6.736843116688709
 30
0.0
 10
16.255595739287863
 20
-6.7345061548556036
 30
0.0
 10
16.3739837672404
 20
-6.482918789049701
 30
0.0
 10
16.459906012151382
 20
-6.218477310410074
 30
0.0
 10
16.40058253095616
 20
-6.159563006579444
 30
0.0
 10
16.337528742083972
 20
-6.0984986284165545
 30
0.0
 10
16.275552095497975
 20
-6.039968611424135
 30
0.0
 10
16.214706037562816
 20
-5.983935967678886
 30
0.0
 10
16.155043251768074
 20
-5.930362769951381
 30
0.0
 10
16.09661564338298
 20
-5.879210164882087
 30
0.0
 10
16.039474325063434
 20
-5.83043838704406
 30
0.0
 10
15.98366960157714
 20
-5.784006772246706
 30
0.0
 10
15.929250955679016
 20
-5.7398737719105855
 30
0.0
 10
15.876267033779069
 20
-5.697996967252909
 30
0.0
 10
15.82476563202715
 20
-5.658333083856631
 30
0.0
 10
15.774793682385331
 20
-5.62083800626218
 30
0.0
 10
15.726397239214485
 20
-5.585466792987693
 30
0.0
 10
15.679621466383336
 20
-5.55217369118405
 30
0.0
 10
15.634510607767101
 20
-5.520912142953112
 30
0.0
 10
15.591108124071711
 20
-5.491634901242226
 30
0.0
 10
15.549456161723587
 20
-5.464293693524464
 30
0.0
 10
15.509596433232696
 20
-5.438839839059957
 30
0.0
 10
15.471569376357449
 20
-5.415223712230298
 30
0.0
 10
15.45172125848848
 20
-5.4032402969824505
 30
0.0
 10
15.43032661932934
 20
-5.3896105236005285
 30
0.0
 10
15.411706994656237
 20
-5.376329038874578
 30
0.0
 10
15.395849841948735
 20
-5.363463335026019
 30
0.0
 10
15.382741361718292
 20
-5.351080639215435
 30
0.0
 10
15.372366505208804
 20
-5.339247888337632
 30
0.0
 10
15.36470896969804
 20
-5.328031722451028
 30
0.0
 10
15.359751214170092
 20
-5.317498448654876
 30
0.0
 10
15.3574744690374
 20
-5.307714015737683
 30
0.0
 10
15.357858726211246
 20
-5.298744015613254
 30
0.0
 10
15.419320335458485
 20
-5.117372010784015
 30
0.0
 10
15.482407991522077
 20
-4.92320817029042
 30
0.0
 10
15.539292294765012
 20
-4.740348908587019
 30
0.0
 10
15.544253857967306
 20
-4.732866165344345
 30
0.0
 10
15.551846928842249
 20
-4.726288630038252
 30
0.0
 10
15.562049140360935
 20
-4.720681123313385
 30
0.0
 10
15.574836913665271
 20
-4.716108041601823
 30
0.0
 10
15.59018546526058
 20
-4.71263333692498
 30
0.0
 10
15.6080688145236
 20
-4.7103204968101435
 30
0.0
 10
15.628459791525506
 20
-4.709232524326261
 30
0.0
 10
15.651330045166167
 20
-4.7094319182438396
 30
0.0
 10
15.676650051620491
 20
-4.710980653323415
 30
0.0
 10
15.699751191006365
 20
-4.712952297704041
 30
0.0
 10
15.744396936287533
 20
-4.716198192900146
 30
0.0
 10
15.791605536569673
 20
-4.719034552757713
 30
0.0
 10
15.841373350641117
 20
-4.721397456003275
 30
0.0
 10
15.893695535246778
 20
-4.723223013217682
 30
0.0
 10
15.948566045386334
 20
-4.724447386955106
 30
0.0
 10
16.005977634900916
 20
-4.7250068118583
 30
0.0
 10
16.065921857414157
 20
-4.724837614767854
 30
0.0
 10
16.128389067560157
 20
-4.723876234816313
 30
0.0
 10
16.193368422470634
 20
-4.722059241362751
 30
0.0
 10
16.260847883922807
 20
-4.719323364772937
 30
0.0
 10
16.330814220035524
 20
-4.7156054949964314
 30
0.0
 10
16.403253008135128
 20
-4.71084272302261
 30
0.0
 10
16.47814863749644
 20
-4.704972350107044
 30
0.0
 10
16.555484312410908
 20
-4.6979319098427
 30
0.0
 10
16.635242055646483
 20
-4.689659188033424
 30
0.0
 10
16.717402712197288
 20
-4.680092242518168
 30
0.0
 10
16.801945953344163
 20
-4.6691694229400555
 30
0.0
 10
16.88885028102606
 20
-4.6568293904555755
 30
0.0
 10
16.97147294441926
 20
-4.644036184806023
 30
0.0
 10
17.05739518933019
 20
-4.3795947061663885
 30
0.0
 10
17.10949660606988
 20
-4.106469514780878
 30
0.0
 10
17.043256988040685
 20
-4.055454971557292
 30
0.0
 10
16.973047001156257
 20
-4.002774839503096
 30
0.0
 10
16.904223302649886
 20
-3.952474082698826
 30
0.0
 10
16.836834281629635
 20
-3.904509306276302
 30
0.0
 10
16.770927452617723
 20
-3.858836279081525
 30
0.0
 10
16.706549441977653
 20
-3.8154099486700788
 30
0.0
 10
16.643745975397223
 20
-3.774184457062844
 30
0.0
 10
16.58256186440152
 20
-3.7351131558593185
 30
0.0
 10
16.523040994141343
 20
-3.698148622269339
 30
0.0
 10
16.465226310952016
 20
-3.663242674983022
 30
0.0
 10
16.409159810373865
 20
-3.630346390369014
 30
0.0
 10
16.35488252516321
 20
-3.5994101186967535
 30
0.0
 10
16.302434513867304
 20
-3.5703835007194185
 30
0.0
 10
16.251854849871734
 20
-3.5432154838290617
 30
0.0
 10
16.20318159292364
 20
-3.517854332022531
 30
0.0
 10
16.156451939402412
 20
-3.4942477237334897
 30
0.0
 10
16.11170165324542
 20
-3.4723424847303934
 30
0.0
 10
16.06896601673249
 20
-3.4520850901717965
 30
0.0
 10
16.028278929019013
 20
-3.4334212375570923
 30
0.0
 10
16.00708539930563
 20
-3.4240199439104293
 30
0.0
 10
15.984151199695823
 20
-3.4131791046693962
 30
0.0
 10
15.96401378489744
 20
-3.4023360061855312
 30
0.0
 10
15.946669170309919
 20
-3.3915591804785716
 30
0.0
 10
15.932112091055222
 20
-3.380917054137381
 30
0.0
 10
15.920336006458655
 20
-3.3704779223486216
 30
0.0
 10
15.911333094563824
 20
-3.3603099429668375
 30
0.0
 10
15.905094263154135
 20
-3.3504810987122444
 30
0.0
 10
15.901609156220744
 20
-3.341059170800552
 30
0.0
 10
15.900866144291331
 20
-3.3321117416121955
 30
0.0
 10
15.939111170548678
 20
-3.144466726987205
 30
0.0
 10
15.977366179630511
 20
-2.943926946437388
 30
0.0
 10
16.010883590595387
 20
-2.755380090965442
 30
0.0
 10
16.01486819398335
 20
-2.7473345026285463
 30
0.0
 10
16.021577007457708
 20
-2.739857169027517
 30
0.0
 10
16.030995964541255
 20
-2.7330152030089128
 30
0.0
 10
16.043109743315302
 20
-2.7268754484342397
 30
0.0
 10
16.05790177102406
 20
-2.7215044592396493
 30
0.0
 10
16.075354229006333
 20
-2.7169684785698367
 30
0.0
 10
16.095448057954655
 20
-2.713333417990767
 30
0.0
 10
16.11816296349879
 20
-2.710664836786528
 30
0.0
 10
16.143477422114962
 20
-2.7090279213446276
 30
0.0
 10
16.166643514682466
 20
-2.708088678222159
 30
0.0
 10
16.21134403346779
 20
-2.7057133829441646
 30
0.0
 10
16.258535869988684
 20
-2.70261057073167
 30
0.0
 10
16.30820740028561
 20
-2.6987172807143742
 30
0.0
 10
16.360345811826516
 20
-2.693970734281102
 30
0.0
 10
16.414937106324196
 20
-2.6883083550027904
 30
0.0
 10
16.4719661028395
 20
-2.6816677885156013
 30
0.0
 10
16.531416441235297
 20
-2.673986922353669
 30
0.0
 10
16.59327058591323
 20
-2.6652039057308556
 30
0.0
 10
16.65750982953695
 20
-2.655257167147531
 30
0.0
 10
16.7241142990208
 20
-2.6440854446588165
 30
0.0
 10
16.793062957034273
 20
-2.6316277842503184
 30
0.0
 10
16.864333610041086
 20
-2.61782358060808
 30
0.0
 10
16.93790291217491
 20
-2.602612585928662
 30
0.0
 10
17.013746371049585
 20
-2.585934931431772
 30
0.0
 10
17.09183835368253
 20
-2.567731146643397
 30
0.0
 10
17.17215209269947
 20
-2.547942178593759
 30
0.0
 10
17.254659692840697
 20
-2.5265094109215624
 30
0.0
 10
17.33933213776819
 20
-2.503374682879908
 30
0.0
 10
17.419699882950614
 20
-2.4803269899092797
 30
0.0
  0
ENDSEC
  0
EOF
