999
dxfrw 0.6.3
  0
SECTION
  2
HEADER
  9
$ACADVER
  1
AC1021
  9
$DWGCODEPAGE
  3
ANSI_1252
  9
$INSBASE
 10
0
 20
0
 30
0
  9
$EXTMIN
 10
-17.11398059854918
 20
-1.934833307701425
 30
0
  9
$EXTMAX
 10
33.77032580056632
 20
3.357889025550016
 30
0
  9
$LIMMIN
 10
0
 20
0
  9
$LIMMAX
 10
420
 20
297
  9
$ORTHOMODE
 70
    0
  9
$REGENMODE
 70
    1
  9
$FILLMODE
 70
    1
  9
$QTEXTMODE
 70
    0
  9
$MIRRTEXT
 70
    0
  9
$LTSCALE
 40
1
  9
$ATTMODE
 70
    0
  9
$TEXTSIZE
 40
2.5
  9
$TRACEWID
 40
15.68
  9
$TEXTSTYLE
  7
STANDARD
  9
$CLAYER
  8
0
  9
$CELTYPE
  6
BYLAYER
  9
$CECOLOR
 62
  256
  9
$CELTSCALE
 40
1
  9
$DISPSILH
 70
    0
  9
$DIMSCALE
 40
2.5
  9
$DIMASZ
 40
2.5
  9
$DIMEXO
 40
0.625
  9
$DIMDLI
 40
3.75
  9
$DIMRND
 40
0
  9
$DIMDLE
 40
0
  9
$DIMEXE
 40
1.25
  9
$DIMTP
 40
0
  9
$DIMTM
 40
0
  9
$DIMTXT
 40
2.5
  9
$DIMCEN
 40
2.5
  9
$DIMTSZ
 40
0
  9
$DIMTOL
 70
    0
  9
$DIMLIM
 70
    0
  9
$DIMTIH
 70
    0
  9
$DIMTOH
 70
    0
  9
$DIMSE1
 70
    0
  9
$DIMSE2
 70
    0
  9
$DIMTAD
 70
    1
  9
$DIMZIN
 70
    8
  9
$DIMBLK
  1

  9
$DIMASO
 70
    1
  9
$DIMSHO
 70
    1
  9
$DIMPOST
  1

  9
$DIMAPOST
  1

  9
$DIMALT
 70
    0
  9
$DIMALTD
 70
    3
  9
$DIMALTF
 40
0.03937
  9
$DIMLFAC
 40
1
  9
$DIMTOFL
 70
    1
  9
$DIMTVP
 40
0
  9
$DIMTIX
 70
    0
  9
$DIMSOXD
 70
    0
  9
$DIMSAH
 70
    0
  9
$DIMBLK1
  1

  9
$DIMBLK2
  1

  9
$DIMSTYLE
  2
Standard
  9
$DIMCLRD
 70
    0
  9
$DIMCLRE
 70
    0
  9
$DIMCLRT
 70
    0
  9
$DIMTFAC
 40
1
  9
$DIMGAP
 40
0.625
  9
$DIMJUST
 70
    0
  9
$DIMSD1
 70
    0
  9
$DIMSD2
 70
    0
  9
$DIMTOLJ
 70
    0
  9
$DIMTZIN
 70
    8
  9
$DIMALTZ
 70
    0
  9
$DIMALTTZ
 70
    0
  9
$DIMUPT
 70
    0
  9
$DIMDEC
 70
    2
  9
$DIMTDEC
 70
    2
  9
$DIMALTU
 70
    2
  9
$DIMALTTD
 70
    3
  9
$DIMTXSTY
  7
STANDARD
  9
$DIMAUNIT
 70
    0
  9
$DIMADEC
 70
    0
  9
$DIMALTRND
 40
0
  9
$DIMAZIN
 70
    0
  9
$DIMDSEP
 70
   44
  9
$DIMATFIT
 70
    3
  9
$DIMFRAC
 70
    0
  9
$DIMLDRBLK
  1
STANDARD
  9
$DIMLUNIT
 70
    2
  9
$DIMLWD
 70
   -2
  9
$DIMLWE
 70
   -2
  9
$DIMTMOVE
 70
    0
  9
$DIMFXL
 40
1
  9
$DIMFXLON
 70
    0
  9
$DIMJOGANG
 40
0.7854
  9
$DIMTFILL
 70
    0
  9
$DIMTFILLCLR
 70
    0
  9
$DIMARCSYM
 70
    0
  9
$DIMLTYPE
  6

  9
$DIMLTEX1
  6

  9
$DIMLTEX2
  6

  9
$LUNITS
 70
    2
  9
$LUPREC
 70
    4
  9
$SKETCHINC
 40
1
  9
$FILLETRAD
 40
0
  9
$AUNITS
 70
    0
  9
$AUPREC
 70
    2
  9
$MENU
  1
.
  9
$ELEVATION
 40
0
  9
$PELEVATION
 40
0
  9
$THICKNESS
 40
0
  9
$LIMCHECK
 70
    0
  9
$CHAMFERA
 40
0
  9
$CHAMFERB
 40
0
  9
$CHAMFERC
 40
0
  9
$CHAMFERD
 40
0
  9
$SKPOLY
 70
    0
  9
$USRTIMER
 70
    1
  9
$ANGBASE
 50
0
  9
$ANGDIR
 70
    0
  9
$PDMODE
 70
   34
  9
$PDSIZE
 40
0
  9
$PLINEWID
 40
0
  9
$SPLFRAME
 70
    0
  9
$SPLINETYPE
 70
    2
  9
$SPLINESEGS
 70
    8
  9
$HANDSEED
  5
20000
  9
$SURFTAB1
 70
    6
  9
$SURFTAB2
 70
    6
  9
$SURFTYPE
 70
    6
  9
$SURFU
 70
    6
  9
$SURFV
 70
    6
  9
$UCSBASE
  2

  9
$UCSNAME
  2

  9
$UCSORG
 10
0
 20
0
 30
0
  9
$UCSXDIR
 10
1
 20
0
 30
0
  9
$UCSYDIR
 10
0
 20
1
 30
0
  9
$UCSORTHOREF
  2

  9
$UCSORTHOVIEW
 70
    0
  9
$UCSORGTOP
 10
0
 20
0
 30
0
  9
$UCSORGBOTTOM
 10
0
 20
0
 30
0
  9
$UCSORGLEFT
 10
0
 20
0
 30
0
  9
$UCSORGRIGHT
 10
0
 20
0
 30
0
  9
$UCSORGFRONT
 10
0
 20
0
 30
0
  9
$UCSORGBACK
 10
0
 20
0
 30
0
  9
$PUCSBASE
  2

  9
$PUCSNAME
  2

  9
$PUCSORG
 10
0
 20
0
 30
0
  9
$PUCSXDIR
 10
1
 20
0
 30
0
  9
$PUCSYDIR
 10
0
 20
1
 30
0
  9
$PUCSORTHOREF
  2

  9
$PUCSORTHOVIEW
 70
    0
  9
$PUCSORGTOP
 10
0
 20
0
 30
0
  9
$PUCSORGBOTTOM
 10
0
 20
0
 30
0
  9
$PUCSORGLEFT
 10
0
 20
0
 30
0
  9
$PUCSORGRIGHT
 10
0
 20
0
 30
0
  9
$PUCSORGFRONT
 10
0
 20
0
 30
0
  9
$PUCSORGBACK
 10
0
 20
0
 30
0
  9
$USERI1
 70
    0
  9
$USERI2
 70
    0
  9
$USERI3
 70
    0
  9
$USERI4
 70
    0
  9
$USERI5
 70
    0
  9
$USERR1
 40
0
  9
$USERR2
 40
0
  9
$USERR3
 40
0
  9
$USERR4
 40
0
  9
$USERR5
 40
0
  9
$WORLDVIEW
 70
    1
  9
$SHADEDGE
 70
    3
  9
$SHADEDIF
 70
   70
  9
$TILEMODE
 70
    1
  9
$MAXACTVP
 70
   64
  9
$PINSBASE
 10
0
 20
0
 30
0
  9
$PLIMCHECK
 70
    0
  9
$PEXTMIN
 10
0
 20
0
 30
0
  9
$PEXTMAX
 10
0
 20
0
 30
0
  9
$GRIDMODE
 70
    0
  9
$SNAPSTYLE
 70
    0
  9
$PLIMMIN
 10
0
 20
0
  9
$PLIMMAX
 10
210
 20
297
  9
$UNITMODE
 70
    0
  9
$VISRETAIN
 70
    1
  9
$PLINEGEN
 70
    0
  9
$PSLTSCALE
 70
    1
  9
$TREEDEPTH
 70
 3020
  9
$CMLSTYLE
  2
Standard
  9
$CMLJUST
 70
    0
  9
$CMLSCALE
 40
20
  9
$PROXYGRAPHICS
 70
    1
  9
$MEASUREMENT
 70
    1
  9
$CELWEIGHT
370
   -1
  9
$ENDCAPS
280
    0
  9
$JOINSTYLE
280
    0
  9
$LWDISPLAY
290
    0
  9
$INSUNITS
 70
    4
  9
$HYPERLINKBASE
  1

  9
$STYLESHEET
  1

  9
$XEDIT
290
    1
  9
$CEPSNTYPE
380
    0
  9
$PSTYLEMODE
290
    1
  9
$EXTNAMES
290
    1
  9
$PSVPSCALE
 40
1
  9
$OLESTARTUP
290
    0
  9
$SORTENTS
280
  127
  9
$INDEXCTL
280
    0
  9
$HIDETEXT
280
    1
  9
$XCLIPFRAME
290
    0
  9
$HALOGAP
280
    0
  9
$OBSCOLOR
 70
  257
  9
$OBSLTYPE
280
    0
  9
$INTERSECTIONDISPLAY
280
    0
  9
$INTERSECTIONCOLOR
 70
  257
  9
$DIMASSOC
280
    1
  9
$PROJECTNAME
  1

  9
$CAMERADISPLAY
290
    0
  9
$LENSLENGTH
 40
50
  9
$CAMERAHEIGHT
 40
0
  9
$STEPSPERSEC
 40
2
  9
$STEPSIZE
 40
50
  9
$3DDWFPREC
 40
2
  9
$PSOLWIDTH
 40
5
  9
$PSOLHEIGHT
 40
80
  9
$LOFTANG1
 40
1.570796326794897
  9
$LOFTANG2
 40
1.570796326794897
  9
$LOFTMAG1
 40
0
  9
$LOFTMAG2
 40
0
  9
$LOFTPARAM
 70
    7
  9
$LOFTNORMALS
280
    1
  9
$LATITUDE
 40
1
  9
$LONGITUDE
 40
1
  9
$NORTHDIRECTION
 40
0
  9
$TIMEZONE
 70
-8000
  9
$LIGHTGLYPHDISPLAY
280
    1
  9
$TILEMODELIGHTSYNCH
280
    1
  9
$SOLIDHIST
280
    1
  9
$SHOWHIST
280
    1
  9
$DWFFRAME
280
    2
  9
$DGNFRAME
280
    0
  9
$REALWORLDSCALE
290
    1
  9
$INTERFERECOLOR
 62
    1
  9
$CSHADOW
280
    0
  9
$SHADOWPLANELOCATION
 40
0
  0
ENDSEC
  0
SECTION
  2
CLASSES
  0
ENDSEC
  0
SECTION
  2
TABLES
  0
TABLE
  2
VPORT
  5
8
330
0
100
AcDbSymbolTable
 70
    1
  0
VPORT
  5
31
330
2
100
AcDbSymbolTableRecord
100
AcDbViewportTableRecord
  2
*ACTIVE
 70
    0
 10
0
 20
0
 11
1
 21
1
 12
13.4221896334884
 22
8.27360162522281
 13
0
 23
0
 14
10
 24
10
 15
10
 25
10
 16
0
 26
0
 36
1
 17
0
 27
0
 37
0
 40
33.81162274084863
 41
1.595454545454545
 42
50
 43
0
 44
0
 50
0
 51
0
 71
    0
 72
  100
 73
    1
 74
    3
 75
    0
 76
    0
 77
    0
 78
    0
281
    0
 65
    1
110
0
120
0
130
0
111
1
121
0
131
0
112
0
122
1
132
0
 79
    0
146
0
348
10020
 60
    7
 61
    5
292
1
282
    1
141
0
142
0
 63
  250
421
3358443
  0
ENDTAB
  0
TABLE
  2
LTYPE
  5
5
330
0
100
AcDbSymbolTable
 70
    4
  0
LTYPE
  5
14
330
5
100
AcDbSymbolTableRecord
100
AcDbLinetypeTableRecord
  2
ByBlock
 70
    0
  3

 72
   65
 73
    0
 40
0
  0
LTYPE
  5
15
330
5
100
AcDbSymbolTableRecord
100
AcDbLinetypeTableRecord
  2
ByLayer
 70
    0
  3

 72
   65
 73
    0
 40
0
  0
LTYPE
  5
16
330
5
100
AcDbSymbolTableRecord
100
AcDbLinetypeTableRecord
  2
Continuous
 70
    0
  3
Solid line
 72
   65
 73
    0
 40
0
  0
LTYPE
  5
32
330
5
100
AcDbSymbolTableRecord
100
AcDbLinetypeTableRecord
  2
DOT
 70
    0
  3
Dot . . . . . . . . . . . . . . . . . . . . . .
 72
   65
 73
    2
 40
6.35
 49
0
 74
    0
 49
-6.35
 74
    0
  0
LTYPE
  5
33
330
5
100
AcDbSymbolTableRecord
100
AcDbLinetypeTableRecord
  2
DOTTINY
 70
    0
  3
Dot (.15x) .....................................
 72
   65
 73
    2
 40
0.9525
 49
0
 74
    0
 49
-0.9525
 74
    0
  0
LTYPE
  5
34
330
5
100
AcDbSymbolTableRecord
100
AcDbLinetypeTableRecord
  2
DOT2
 70
    0
  3
Dot (.5x) .....................................
 72
   65
 73
    2
 40
3.175
 49
0
 74
    0
 49
-3.175
 74
    0
  0
LTYPE
  5
35
330
5
100
AcDbSymbolTableRecord
100
AcDbLinetypeTableRecord
  2
DOTX2
 70
    0
  3
Dot (2x) .  .  .  .  .  .  .  .  .  .  .  .  .
 72
   65
 73
    2
 40
12.7
 49
0
 74
    0
 49
-12.7
 74
    0
  0
LTYPE
  5
36
330
5
100
AcDbSymbolTableRecord
100
AcDbLinetypeTableRecord
  2
DASHED
 70
    0
  3
Dashed _ _ _ _ _ _ _ _ _ _ _ _ _ _ _ _ _
 72
   65
 73
    2
 40
19.05
 49
12.7
 74
    0
 49
-6.35
 74
    0
  0
LTYPE
  5
37
330
5
100
AcDbSymbolTableRecord
100
AcDbLinetypeTableRecord
  2
DASHEDTINY
 70
    0
  3
Dashed (.15x) _ _ _ _ _ _ _ _ _ _ _ _ _ _ _ _ _
 72
   65
 73
    2
 40
2.8575
 49
1.905
 74
    0
 49
-0.9525
 74
    0
  0
LTYPE
  5
38
330
5
100
AcDbSymbolTableRecord
100
AcDbLinetypeTableRecord
  2
DASHED2
 70
    0
  3
Dashed (.5x) _ _ _ _ _ _ _ _ _ _ _ _ _ _ _ _ _
 72
   65
 73
    2
 40
9.524999999999999
 49
6.35
 74
    0
 49
-3.175
 74
    0
  0
LTYPE
  5
39
330
5
100
AcDbSymbolTableRecord
100
AcDbLinetypeTableRecord
  2
DASHEDX2
 70
    0
  3
Dashed (2x) ____  ____  ____  ____  ____  ___
 72
   65
 73
    2
 40
38.09999999999999
 49
25.4
 74
    0
 49
-12.7
 74
    0
  0
LTYPE
  5
3A
330
5
100
AcDbSymbolTableRecord
100
AcDbLinetypeTableRecord
  2
DASHDOT
 70
    0
  3
Dash dot __ . __ . __ . __ . __ . __ . __ . __
 72
   65
 73
    4
 40
25.4
 49
12.7
 74
    0
 49
-6.35
 74
    0
 49
0
 74
    0
 49
-6.35
 74
    0
  0
LTYPE
  5
3B
330
5
100
AcDbSymbolTableRecord
100
AcDbLinetypeTableRecord
  2
DASHDOTTINY
 70
    0
  3
Dash dot (.15x) _._._._._._._._._._._._._._._.
 72
   65
 73
    4
 40
3.81
 49
1.905
 74
    0
 49
-0.9525
 74
    0
 49
0
 74
    0
 49
-0.9525
 74
    0
  0
LTYPE
  5
3C
330
5
100
AcDbSymbolTableRecord
100
AcDbLinetypeTableRecord
  2
DASHDOT2
 70
    0
  3
Dash dot (.5x) _._._._._._._._._._._._._._._.
 72
   65
 73
    4
 40
12.7
 49
6.35
 74
    0
 49
-3.175
 74
    0
 49
0
 74
    0
 49
-3.175
 74
    0
  0
LTYPE
  5
3D
330
5
100
AcDbSymbolTableRecord
100
AcDbLinetypeTableRecord
  2
DASHDOTX2
 70
    0
  3
Dash dot (2x) ____  .  ____  .  ____  .  ___
 72
   65
 73
    4
 40
50.8
 49
25.4
 74
    0
 49
-12.7
 74
    0
 49
0
 74
    0
 49
-12.7
 74
    0
  0
LTYPE
  5
3E
330
5
100
AcDbSymbolTableRecord
100
AcDbLinetypeTableRecord
  2
DIVIDE
 70
    0
  3
Divide ____ . . ____ . . ____ . . ____ . . ____
 72
   65
 73
    6
 40
31.75
 49
12.7
 74
    0
 49
-6.35
 74
    0
 49
0
 74
    0
 49
-6.35
 74
    0
 49
0
 74
    0
 49
-6.35
 74
    0
  0
LTYPE
  5
3F
330
5
100
AcDbSymbolTableRecord
100
AcDbLinetypeTableRecord
  2
DIVIDETINY
 70
    0
  3
Divide (.15x) __..__..__..__..__..__..__..__.._
 72
   65
 73
    6
 40
4.7625
 49
1.905
 74
    0
 49
-0.9525
 74
    0
 49
0
 74
    0
 49
-0.9525
 74
    0
 49
0
 74
    0
 49
-0.9525
 74
    0
  0
LTYPE
  5
40
330
5
100
AcDbSymbolTableRecord
100
AcDbLinetypeTableRecord
  2
DIVIDE2
 70
    0
  3
Divide (.5x) __..__..__..__..__..__..__..__.._
 72
   65
 73
    6
 40
15.875
 49
6.35
 74
    0
 49
-3.175
 74
    0
 49
0
 74
    0
 49
-3.175
 74
    0
 49
0
 74
    0
 49
-3.175
 74
    0
  0
LTYPE
  5
41
330
5
100
AcDbSymbolTableRecord
100
AcDbLinetypeTableRecord
  2
DIVIDEX2
 70
    0
  3
Divide (2x) ________  .  .  ________  .  .  _
 72
   65
 73
    6
 40
63.5
 49
25.4
 74
    0
 49
-12.7
 74
    0
 49
0
 74
    0
 49
-12.7
 74
    0
 49
0
 74
    0
 49
-12.7
 74
    0
  0
LTYPE
  5
42
330
5
100
AcDbSymbolTableRecord
100
AcDbLinetypeTableRecord
  2
BORDER
 70
    0
  3
Border __ __ . __ __ . __ __ . __ __ . __ __ .
 72
   65
 73
    6
 40
44.45
 49
12.7
 74
    0
 49
-6.35
 74
    0
 49
12.7
 74
    0
 49
-6.35
 74
    0
 49
0
 74
    0
 49
-6.35
 74
    0
  0
LTYPE
  5
43
330
5
100
AcDbSymbolTableRecord
100
AcDbLinetypeTableRecord
  2
BORDERTINY
 70
    0
  3
Border (.15x) __.__.__.__.__.__.__.__.__.__.__.
 72
   65
 73
    6
 40
6.6675
 49
1.905
 74
    0
 49
-0.9525
 74
    0
 49
1.905
 74
    0
 49
-0.9525
 74
    0
 49
0
 74
    0
 49
-0.9525
 74
    0
  0
LTYPE
  5
44
330
5
100
AcDbSymbolTableRecord
100
AcDbLinetypeTableRecord
  2
BORDER2
 70
    0
  3
Border (.5x) __.__.__.__.__.__.__.__.__.__.__.
 72
   65
 73
    6
 40
22.225
 49
6.35
 74
    0
 49
-3.175
 74
    0
 49
6.35
 74
    0
 49
-3.175
 74
    0
 49
0
 74
    0
 49
-3.175
 74
    0
  0
LTYPE
  5
45
330
5
100
AcDbSymbolTableRecord
100
AcDbLinetypeTableRecord
  2
BORDERX2
 70
    0
  3
Border (2x) ____  ____  .  ____  ____  .  ___
 72
   65
 73
    6
 40
88.89999999999999
 49
25.4
 74
    0
 49
-12.7
 74
    0
 49
25.4
 74
    0
 49
-12.7
 74
    0
 49
0
 74
    0
 49
-12.7
 74
    0
  0
LTYPE
  5
46
330
5
100
AcDbSymbolTableRecord
100
AcDbLinetypeTableRecord
  2
CENTER
 70
    0
  3
Center ____ _ ____ _ ____ _ ____ _ ____ _ ____
 72
   65
 73
    4
 40
50.8
 49
31.75
 74
    0
 49
-6.35
 74
    0
 49
6.35
 74
    0
 49
-6.35
 74
    0
  0
LTYPE
  5
47
330
5
100
AcDbSymbolTableRecord
100
AcDbLinetypeTableRecord
  2
CENTERTINY
 70
    0
  3
Center (.15x) ___ _ ___ _ ___ _ ___ _ ___ _ ___
 72
   65
 73
    4
 40
7.619999999999999
 49
4.7625
 74
    0
 49
-0.9525
 74
    0
 49
0.9525
 74
    0
 49
-0.9525
 74
    0
  0
LTYPE
  5
48
330
5
100
AcDbSymbolTableRecord
100
AcDbLinetypeTableRecord
  2
CENTER2
 70
    0
  3
Center (.5x) ___ _ ___ _ ___ _ ___ _ ___ _ ___
 72
   65
 73
    4
 40
28.575
 49
19.05
 74
    0
 49
-3.175
 74
    0
 49
3.175
 74
    0
 49
-3.175
 74
    0
  0
LTYPE
  5
49
330
5
100
AcDbSymbolTableRecord
100
AcDbLinetypeTableRecord
  2
CENTERX2
 70
    0
  3
Center (2x) ________  __  ________  __  _____
 72
   65
 73
    4
 40
101.6
 49
63.5
 74
    0
 49
-12.7
 74
    0
 49
12.7
 74
    0
 49
-12.7
 74
    0
  0
ENDTAB
  0
TABLE
  2
LAYER
  5
2
330
0
100
AcDbSymbolTable
 70
    1
  0
LAYER
  5
10
330
2
100
AcDbSymbolTableRecord
100
AcDbLayerTableRecord
  2
0
 70
    0
 62
    7
  6
CONTINUOUS
370
   -3
390
F
  0
LAYER
  5
4A
330
2
100
AcDbSymbolTableRecord
100
AcDbLayerTableRecord
  2
Layer_1
 70
    0
 62
    7
  6
CONTINUOUS
370
   -3
390
F
  0
ENDTAB
  0
TABLE
  2
STYLE
  5
3
330
0
100
AcDbSymbolTable
 70
    3
  0
STYLE
  5
4B
330
2
100
AcDbSymbolTableRecord
100
AcDbTextStyleTableRecord
  2
Standard
 70
    0
 40
0
 41
1
 50
0
 71
    0
 42
1
  3
txt
  4

  0
ENDTAB
  0
TABLE
  2
VIEW
  5
6
330
0
100
AcDbSymbolTable
 70
    0
  0
ENDTAB
  0
TABLE
  2
UCS
  5
7
330
0
100
AcDbSymbolTable
 70
    0
  0
ENDTAB
  0
TABLE
  2
APPID
  5
9
330
0
100
AcDbSymbolTable
 70
    1
  0
APPID
  5
12
330
9
100
AcDbSymbolTableRecord
100
AcDbRegAppTableRecord
  2
ACAD
 70
    0
  0
APPID
  5
4C
330
9
100
AcDbSymbolTableRecord
100
AcDbRegAppTableRecord
  2
LibreCad
 70
    0
  0
ENDTAB
  0
TABLE
  2
DIMSTYLE
  5
A
330
0
100
AcDbSymbolTable
 70
    1
100
AcDbDimStyleTable
 71
    1
  0
DIMSTYLE
105
4D
330
A
100
AcDbSymbolTableRecord
100
AcDbDimStyleTableRecord
  2
Standard
 70
    0
 40
2.5
 41
2.5
 42
0.625
 43
0.38
 44
1.25
 45
0
 46
0
 47
0
 48
0
 49
1
140
2.5
141
0.09
142
0
143
25.4
144
1
145
0
146
1
147
0.625
148
0
 71
    0
 72
    0
 73
    0
 74
    1
 75
    0
 76
    0
 77
    0
 78
    8
 79
    0
170
    0
171
    2
172
    0
173
    0
174
    0
175
    0
176
    0
177
    0
178
    0
179
    0
271
    2
272
    4
273
    2
274
    2
275
    0
276
    0
277
    2
278
   44
279
    0
280
    0
281
    0
282
    0
283
    1
284
    0
285
    0
286
    0
288
    0
289
    3
340
STANDARD
341

371
   -2
372
   -2
  0
ENDTAB
  0
TABLE
  2
BLOCK_RECORD
  5
1
330
0
100
AcDbSymbolTable
 70
    2
  0
BLOCK_RECORD
  5
1F
330
1
100
AcDbSymbolTableRecord
100
AcDbBlockTableRecord
  2
*Model_Space
 70
    0
280
    1
281
    0
  0
BLOCK_RECORD
  5
1E
330
1
100
AcDbSymbolTableRecord
100
AcDbBlockTableRecord
  2
*Paper_Space
 70
    0
280
    1
281
    0
  0
ENDTAB
  0
ENDSEC
  0
SECTION
  2
BLOCKS
  0
BLOCK
  5
20
330
1F
100
AcDbEntity
  8
0
100
AcDbBlockBegin
  2
*Model_Space
 70
    0
 10
0
 20
0
 30
0
  3
*Model_Space
  1

  0
ENDBLK
  5
21
330
1F
100
AcDbEntity
  8
0
100
AcDbBlockEnd
  0
BLOCK
  5
1C
330
1B
100
AcDbEntity
  8
0
100
AcDbBlockBegin
  2
*Paper_Space
 70
    0
 10
0
 20
0
 30
0
  3
*Paper_Space
  1

  0
ENDBLK
  5
1D
330
1F
100
AcDbEntity
  8
0
100
AcDbBlockEnd
  0
ENDSEC
  0
SECTION
  2
ENTITIES
  0
LWPOLYLINE
  5
4E
100
AcDbEntity
  8
0
  6
ByLayer
 62
    7
370
   -1
100
AcDbPolyline
 90
   84
 70
    1
 43
0
 10
13.88336340145082
 20
-1.930804307701422
 10
13.41646440145083
 20
-1.874125307701419
 10
12.99350140145082
 20
-1.75151430770142
 10
12.61591940145083
 20
-1.563536307701419
 10
12.28516140145082
 20
-1.310748307701424
 10
12.12298740145082
 20
-1.140980307701419
 10
11.97979240145083
 20
-0.953168307701425
 10
11.86283840145083
 20
-0.7580073077014191
 10
11.77938640145082
 20
-0.5661923077014206
 10
11.74249340145083
 20
-0.4503893077014216
 10
11.71968540145083
 20
-0.3529323077014226
 10
11.70809740145082
 20
-0.2579473077014216
 10
11.70492240145083
 20
-0.1495553077014196
 10
11.71256840145083
 20
0.04501969229858127
 10
11.73632840145083
 20
0.2164136922985804
 10
11.77780440145083
 20
0.3727666922985764
 10
11.83862640145083
 20
0.5222166922985774
 10
11.93663640145083
 20
0.7006276922985744
 10
12.05456340145082
 20
0.8626086922985792
 10
12.20013240145083
 20
1.017437692298578
 10
12.38106240145083
 20
1.174403692298575
 10
12.47314540145082
 20
1.23658669229858
 10
12.59367040145082
 20
1.301840692298577
 10
12.72585640145083
 20
1.36184569229858
 10
12.85290940145083
 20
1.408279692298577
 10
12.90365640145083
 20
1.423995692298575
 10
12.95902840145083
 20
1.441140692298574
 10
13.01233140145083
 20
1.45762469229858
 10
13.05687640145082
 20
1.471382692298576
 10
13.17595240145082
 20
1.502436692298581
 10
13.34324340145082
 20
1.538097692298579
 10
13.54480040145082
 20
1.57559469229858
 10
13.76668240145082
 20
1.612164692298578
 10
13.98220940145083
 20
1.622827692298578
 10
14.27931040145082
 20
1.610312692298578
 10
14.59428840145083
 20
1.579192692298576
 10
14.86343340145083
 20
1.533996692298579
 10
14.90923040145082
 20
1.52383669229858
 10
14.95526740145083
 20
1.513940692298575
 10
14.99618840145083
 20
1.505421692298576
 10
15.02663840145082
 20
1.499415692298576
 10
15.12966540145081
 20
1.473591692298577
 10
15.26485140145083
 20
1.431364692298579
 10
15.40442440145083
 20
1.38198769229858
 10
15.52060040145081
 20
1.334725692298576
 10
15.78073840145083
 20
1.199970692298578
 10
16.01016440145083
 20
1.046083692298581
 10
16.20461140145083
 20
0.8763186922985753
 10
16.35982140145083
 20
0.6939336922985784
 10
16.45350240145083
 20
0.5524216922985805
 10
16.52617240145081
 20
0.4176296922985752
 10
16.58123040145082
 20
0.2823826922985764
 10
16.62207140145082
 20
0.1394996922985783
 10
16.64765640145082
 20
-0.008299307701420622
 10
16.65106940145083
 20
-0.1480233077014217
 10
16.63164940145082
 20
-0.2916443077014246
 10
16.58872340145081
 20
-0.4511323077014207
 10
16.53791740145083
 20
-0.5792303077014227
 10
16.45910140145083
 20
-0.7479293077014191
 10
16.37184140145083
 20
-0.9173893077014199
 10
16.29569940145083
 20
-1.047776307701419
 10
16.14527340145083
 20
-1.227766307701422
 10
15.94109740145083
 20
-1.402500307701423
 10
15.70456240145081
 20
-1.556035307701421
 10
15.45705740145083
 20
-1.672444307701426
 10
15.30956540145083
 20
-1.724847307701424
 10
15.16243340145083
 20
-1.771617307701419
 10
15.02964740145083
 20
-1.80857430770142
 10
14.92518740145082
 20
-1.831540307701424
 10
14.88122940145082
 20
-1.839266307701422
 10
14.84422240145082
 20
-1.846225307701424
 10
14.81805440145083
 20
-1.851622307701419
 10
14.80662440145083
 20
-1.854744307701424
 10
14.77107740145083
 20
-1.864772307701422
 10
14.70002640145082
 20
-1.878821307701422
 10
14.61386740145083
 20
-1.893188307701422
 10
14.53300340145082
 20
-1.904195307701421
 10
14.35398340145083
 20
-1.92181630770142
 10
14.19056340145083
 20
-1.931923307701425
 10
14.03595440145083
 20
-1.934833307701425
 10
13.88336340145082
 20
-1.93078530770142
 10
13.88336340145082
 20
-1.93078530770142
 10
13.88336340145082
 20
-1.93078830770142
 10
13.88336340145082
 20
-1.93078830770142
  0
LWPOLYLINE
  5
4F
100
AcDbEntity
  8
0
  6
ByLayer
 62
    7
370
   -1
100
AcDbPolyline
 90
   60
 70
    1
 43
0
 10
14.75493540145083
 20
-1.26086330770142
 10
14.95451640145082
 20
-1.18465230770142
 10
15.13481140145083
 20
-1.07062530770142
 10
15.28246940145083
 20
-0.9291793077014248
 10
15.38413340145082
 20
-0.7707173077014247
 10
15.41152340145081
 20
-0.6930043077014219
 10
15.43131340145082
 20
-0.6013783077014239
 10
15.44195040145082
 20
-0.5053743077014237
 10
15.44189140145082
 20
-0.4145163077014187
 10
15.37122940145083
 20
-0.09333330770142068
 10
15.20989440145082
 20
0.2204436922985804
 10
14.96701740145082
 20
0.5131096922985772
 10
14.65173740145083
 20
0.7709676922985764
 10
14.52512340145082
 20
0.8522206922985802
 10
14.41245340145083
 20
0.9124796922985752
 10
14.29453640145082
 20
0.9607736922985803
 10
14.15218340145082
 20
1.006142692298575
 10
13.97931440145082
 20
1.04343569229858
 10
13.79002140145082
 20
1.063807692298574
 10
13.61326940145082
 20
1.06539569229858
 10
13.47801440145082
 20
1.046662692298575
 10
13.35911340145082
 20
1.011899692298577
 10
13.26691340145082
 20
0.9821626922985804
 10
13.20290040145083
 20
0.9579536922985814
 10
13.16855440145083
 20
0.9398036922985753
 10
13.15678040145083
 20
0.9312576922985794
 10
13.14543040145083
 20
0.9242456922985762
 10
13.13577340145083
 20
0.9195096922985755
 10
13.12910540145082
 20
0.9176576922985764
 10
13.09596640145083
 20
0.8992426922985786
 10
13.03938240145083
 20
0.8542366922985773
 10
12.97741140145083
 20
0.7980576922985771
 10
12.92810640145083
 20
0.7461176922985753
 10
12.87003840145082
 20
0.6663356922985741
 10
12.82442940145082
 20
0.5821476922985762
 10
12.79074340145083
 20
0.4923846922985784
 10
12.76843840145083
 20
0.3958836922985753
 10
12.76370240145082
 20
0.3136186922985753
 10
12.76907340145083
 20
0.2051456922985793
 10
12.78275240145082
 20
0.09147269229858046
 10
12.80294040145083
 20
-0.006389307701425651
 10
12.92400340145083
 20
-0.3040823077014205
 10
13.11260640145083
 20
-0.5797863077014256
 10
13.35851740145083
 20
-0.8213193077014225
 10
13.65150640145083
 20
-1.016507307701424
 10
13.81014340145083
 20
-1.094125307701425
 10
13.97632240145083
 20
-1.161822307701421
 10
14.14131440145082
 20
-1.216371307701422
 10
14.29638340145083
 20
-1.254547307701422
 10
14.34219140145083
 20
-1.263623307701423
 10
14.38306640145083
 20
-1.271878307701421
 10
14.41455940145083
 20
-1.27841330770142
 10
14.43220740145083
 20
-1.282302307701421
 10
14.49092140145083
 20
-1.285715307701423
 10
14.58452840145083
 20
-1.281985307701426
 10
14.68265940145082
 20
-1.273095307701425
 10
14.75494640145083
 20
-1.261056307701423
 10
14.75494640145083
 20
-1.261054307701421
 10
14.75494640145083
 20
-1.261051307701422
 10
14.75494640145083
 20
-1.261048307701422
  0
LWPOLYLINE
  5
50
100
AcDbEntity
  8
0
  6
ByLayer
 62
    7
370
   -1
100
AcDbPolyline
 90
  352
 70
    1
 43
0
 10
-4.496976598549173
 20
-1.809709307701425
 10
-4.900262598549173
 20
-1.710927307701425
 10
-5.284494598549173
 20
-1.53684230770142
 10
-5.628141598549172
 20
-1.299617307701425
 10
-5.909674598549172
 20
-1.011419307701424
 10
-5.941421598549173
 20
-0.9728693077014228
 10
-5.968456598549173
 20
-0.9437843077014207
 10
-5.989512598549172
 20
-0.9254223077014245
 10
-6.003315598549174
 20
-0.9190193077014257
 10
-6.013531598549173
 20
-0.9219033077014203
 10
-6.025794598549172
 20
-0.9297343077014233
 10
-6.038566598549172
 20
-0.9412973077014257
 10
-6.050302598549173
 20
-0.9554253077014252
 10
-6.082467598549172
 20
-1.004021307701422
 10
-6.125199598549173
 20
-1.072596307701424
 10
-6.166848598549173
 20
-1.142089307701426
 10
-6.195767598549173
 20
-1.193439307701425
 10
-6.224969598549173
 20
-1.247213307701422
 10
-6.271233598549173
 20
-1.329697307701423
 10
-6.327692598549172
 20
-1.428757307701424
 10
-6.387480598549173
 20
-1.532259307701423
 10
-6.404181598549172
 20
-1.560961307701419
 10
-6.420881598549173
 20
-1.589663307701422
 10
-6.437582598549172
 20
-1.618365307701424
 10
-6.454282598549172
 20
-1.64706730770142
 10
-6.491037598549173
 20
-1.647134307701421
 10
-6.527791598549173
 20
-1.647200307701425
 10
-6.564545598549172
 20
-1.647266307701422
 10
-6.601300598549173
 20
-1.647332307701426
 10
-7.124309598549173
 20
-1.647597307701425
 10
-7.633215598549176
 20
-1.64653830770142
 10
-8.019782598549176
 20
-1.644422307701426
 10
-8.175779598549175
 20
-1.64177630770142
 10
-8.242499598549175
 20
-1.639394307701423
 10
-8.418551598549174
 20
-1.636749307701422
 10
-8.677168598549175
 20
-1.634050307701422
 10
-8.991579598549174
 20
-1.631669307701422
 10
-9.306304598549174
 20
-1.629023307701424
 10
-9.565775598549175
 20
-1.625768307701421
 10
-9.743092598549174
 20
-1.622355307701426
 10
-9.811356598549176
 20
-1.619154307701422
 10
-9.817557598549174
 20
-1.547687307701423
 10
-9.816049598549176
 20
-1.397888307701422
 10
-9.808998598549175
 20
-1.246663307701425
 10
-9.798603598549176
 20
-1.170910307701419
 10
-9.784021598549176
 20
-1.165592307701424
 10
-9.751900598549176
 20
-1.159427307701421
 10
-9.706982598549176
 20
-1.153156307701423
 10
-9.654011598549173
 20
-1.147574307701426
 10
-9.561682598549174
 20
-1.136620307701421
 10
-9.503078598549175
 20
-1.119792307701424
 10
-9.463677598549173
 20
-1.09021530770142
 10
-9.428954598549174
 20
-1.040997307701424
 10
-9.411814598549176
 20
-1.008527307701421
 10
-9.402165598549177
 20
-0.9668503077014208
 10
-9.396834598549175
 20
-0.8911103077014246
 10
-9.392651598549174
 20
-0.7564593077014194
 10
-9.389690598549175
 20
-0.6319853077014201
 10
-9.386330598549174
 20
-0.4669543077014207
 10
-9.382985598549174
 20
-0.2828653077014207
 10
-9.380072598549175
 20
-0.1012183077014226
 10
-9.376807598549176
 20
0.08175669229857641
 10
-9.372511598549176
 20
0.2694546922985803
 10
-9.367740598549172
 20
0.4398276922985782
 10
-9.363052598549174
 20
0.5708236922985743
 10
-9.357593598549174
 20
0.8074556922985754
 10
-9.368629598549175
 20
0.9641286922985803
 10
-9.400537598549176
 20
1.06734869229858
 10
-9.457693598549175
 20
1.14361669229858
 10
-9.507098598549176
 20
1.186783692298576
 10
-9.560247598549173
 20
1.212210692298576
 10
-9.635222598549175
 20
1.225359692298575
 10
-9.750111598549173
 20
1.231657692298576
 10
-9.792113598549173
 20
1.232979692298577
 10
-9.834116598549175
 20
1.234302692298577
 10
-9.876118598549175
 20
1.235625692298576
 10
-9.918121598549176
 20
1.236948692298575
 10
-9.917407598549174
 20
1.291553692298578
 10
-9.916692598549174
 20
1.34615569229858
 10
-9.915978598549176
 20
1.400760692298575
 10
-9.915264598549173
 20
1.455362692298579
 10
-9.913676598549175
 20
1.541404692298578
 10
-9.911506598549176
 20
1.61421569229858
 10
-9.909046598549176
 20
1.66611669229858
 10
-9.906585598549178
 20
1.689425692298578
 10
-9.881283598549176
 20
1.697178692298579
 10
-9.792156598549175
 20
1.700882692298578
 10
-9.608361598549175
 20
1.700945692298574
 10
-9.299055598549176
 20
1.697797692298579
 10
-8.980559598549176
 20
1.694437692298578
 10
-8.558206598549175
 20
1.690679692298581
 10
-8.087021598549176
 20
1.686975692298574
 10
-7.622033598549175
 20
1.683774692298577
 10
-7.122673598549175
 20
1.67993769229858
 10
-6.787459598549173
 20
1.675625692298574
 10
-6.597351598549173
 20
1.670492692298581
 10
-6.533308598549173
 20
1.664195692298577
 10
-6.527318598549172
 20
1.649722692298574
 10
-6.521740598549172
 20
1.619557692298578
 10
-6.516941598549172
 20
1.576308692298575
 10
-6.513284598549173
 20
1.522576692298578
 10
-6.509498598549174
 20
1.449586692298581
 10
-6.504040598549173
 20
1.346062692298581
 10
-6.497639598549172
 20
1.225791692298579
 10
-6.491027598549172
 20
1.102550692298578
 10
-6.484095598549173
 20
0.9615046922985755
 10
-6.481436598549173
 20
0.8697496922985763
 10
-6.482971598549172
 20
0.8182246922985783
 10
-6.488641598549172
 20
0.7978516922985794
 10
-6.517151598549173
 20
0.7848606922985795
 10
-6.582440598549173
 20
0.7653876922985745
 10
-6.682562598549172
 20
0.7399606922985815
 10
-6.815572598549172
 20
0.7091286922985773
 10
-6.850990598549172
 20
0.7004236922985783
 10
-6.881186598549172
 20
0.6915606922985802
 10
-6.902959598549172
 20
0.6835696922985766
 10
-6.913108598549172
 20
0.6774846922985773
 10
-6.922372598549172
 20
0.6427506922985775
 10
-6.929695598549173
 20
0.5505796922985762
 10
-6.936603598549173
 20
0.3720526922985814
 10
-6.944615598549174
 20
0.07824569229858036
 10
-6.950401598549172
 20
-0.1209903077014187
 10
-6.956471598549173
 20
-0.2734433077014207
 10
-6.962504598549172
 20
-0.3724163077014206
 10
-6.968174598549172
 20
-0.4112203077014196
 10
-6.979463598549172
 20
-0.4180993077014246
 10
-7.001612598549173
 20
-0.4264603077014257
 10
-7.031421598549173
 20
-0.4352443077014247
 10
-7.065691598549172
 20
-0.4433933077014207
 10
-7.107883598549172
 20
-0.4525483077014196
 10
-7.159260598549176
 20
-0.4640313077014255
 10
-7.213331598549173
 20
-0.4763603077014196
 10
-7.263599598549176
 20
-0.4880813077014206
 10
-7.385853598549174
 20
-0.5156883077014247
 10
-7.449831598549176
 20
-0.5202923077014245
 10
-7.478116598549176
 20
-0.4974583077014216
 10
-7.493290598549175
 20
-0.4427053077014236
 10
-7.516771598549175
 20
-0.3707043077014236
 10
-7.554557598549176
 20
-0.2883343077014187
 10
-7.599270598549174
 20
-0.2099703077014257
 10
-7.643534598549175
 20
-0.1499783077014247
 10
-7.667641598549176
 20
-0.1259013077014186
 10
-7.697175598549174
 20
-0.1002893077014237
 10
-7.728397598549174
 20
-0.07621230770142562
 10
-7.757566598549174
 20
-0.05673930770142066
 10
-7.773864598549176
 20
-0.04694930770142469
 10
-7.790165598549175
 20
-0.03713330770142464
 10
-7.806463598549174
 20
-0.02734430770141971
 10
-7.822764598549176
 20
-0.01755430770142374
 10
-7.866276598549176
 20
-0.01755430770142374
 10
-7.909788598549175
 20
-0.01755430770142374
 10
-7.953299598549174
 20
-0.01755430770142374
 10
-7.996811598549174
 20
-0.01755430770142374
 10
-8.112067598549176
 20
-0.01887730770142371
 10
-8.183235598549176
 20
-0.02424830770141972
 10
-8.221872598549174
 20
-0.03530830770142068
 10
-8.239538598549176
 20
-0.05377630770141861
 10
-8.243518598549175
 20
-0.0998633077014186
 10
-8.247296598549175
 20
-0.2108063077014246
 10
-8.250444598549175
 20
-0.3699663077014246
 10
-8.252535598549175
 20
-0.5607043077014207
 10
-8.253408598549173
 20
-0.6825103077014205
 10
-8.254281598549175
 20
-0.8043193077014195
 10
-8.255154598549174
 20
-0.9261253077014189
 10
-8.256027598549176
 20
-1.047934307701425
 10
-8.249976598549173
 20
-1.052829307701423
 10
-8.243925598549174
 20
-1.05772430770142
 10
-8.237874598549174
 20
-1.062619307701425
 10
-8.231823598549175
 20
-1.067513307701425
 10
-8.206799598549173
 20
-1.078123307701425
 10
-8.143936598549177
 20
-1.084023307701422
 10
-8.011802598549176
 20
-1.08666930770142
 10
-7.778967598549174
 20
-1.087198307701421
 10
-7.435257598549176
 20
-1.082489307701422
 10
-7.196581598549175
 20
-1.065291307701422
 10
-7.026327598549173
 20
-1.031014307701419
 10
-6.887879598549173
 20
-0.9750473077014234
 10
-6.769127598549172
 20
-0.9097663077014246
 10
-6.669849598549172
 20
-0.8422503077014198
 10
-6.578259598549172
 20
-0.7634603077014219
 10
-6.482569598549173
 20
-0.664360307701422
 10
-6.430435598549172
 20
-0.6132533077014202
 10
-6.388348598549173
 20
-0.5942563077014213
 10
-6.344470598549172
 20
-0.6064003077014206
 10
-6.286962598549172
 20
-0.6487573077014233
 10
-6.259962598549173
 20
-0.6718823077014235
 10
-6.234485598549172
 20
-0.6946103077014243
 10
-6.213401598549172
 20
-0.714348307701421
 10
-6.199573598549172
 20
-0.7284503077014222
 10
-6.177576598549173
 20
-0.748399307701419
 10
-6.153528598549173
 20
-0.7621583077014193
 10
-6.130126598549174
 20
-0.7685613077014253
 10
-6.110068598549173
 20
-0.7664443077014198
 10
-6.098931598549173
 20
-0.7554643077014234
 10
-6.093703598549173
 20
-0.7369693077014219
 10
-6.094973598549172
 20
-0.7166493077014238
 10
-6.103305598549174
 20
-0.7001663077014229
 10
-6.128570598549173
 20
-0.6415613077014228
 10
-6.168894598549173
 20
-0.5233263077014247
 10
-6.209369598549173
 20
-0.3915883077014257
 10
-6.235087598549173
 20
-0.2924693077014235
 10
-6.259995598549173
 20
-0.0908443077014236
 10
-6.260365598549173
 20
0.1237646922985793
 10
-6.237177598549172
 20
0.3334126922985803
 10
-6.191389598549172
 20
0.5201506922985786
 10
-6.143287598549172
 20
0.6460736922985784
 10
-6.084344598549173
 20
0.7613686922985754
 10
-6.005271598549173
 20
0.8819066922985783
 10
-5.896780598549173
 20
1.023564692298578
 10
-5.804829598549173
 20
1.130445692298579
 10
-5.709059598549173
 20
1.224124692298581
 10
-5.599438598549172
 20
1.313545692298575
 10
-5.465933598549173
 20
1.407649692298576
 10
-5.327299598549173
 20
1.493623692298577
 10
-5.189396598549173
 20
1.56423869229858
 10
-5.041353598549172
 20
1.62447069229858
 10
-4.872296598549173
 20
1.679300692298575
 10
-4.639089598549173
 20
1.731230692298581
 10
-4.389664598549173
 20
1.755068692298579
 10
-4.125340598549172
 20
1.750782692298579
 10
-3.847433598549173
 20
1.718289692298576
 10
-3.689146598549172
 20
1.692995692298581
 10
-3.601861598549172
 20
1.682544692298577
 10
-3.558912598549172
 20
1.685401692298576
 10
-3.533636598549172
 20
1.699980692298581
 10
-3.516158598549172
 20
1.711304692298576
 10
-3.496597598549172
 20
1.718818692298576
 10
-3.473224598549173
 20
1.722972692298576
 10
-3.444305598549173
 20
1.724295692298575
 10
-3.410050598549173
 20
1.725353692298576
 10
-3.360019598549172
 20
1.727999692298575
 10
-3.300932598549172
 20
1.731888692298575
 10
-3.239509598549173
 20
1.73665169229858
 10
-3.131025598549172
 20
1.74323969229858
 10
-3.066221598549173
 20
1.734111692298576
 10
-3.023030598549173
 20
1.700525692298577
 10
-2.979385598549174
 20
1.633768692298581
 10
-2.956234598549173
 20
1.595146692298577
 10
-2.930437598549172
 20
1.552726692298577
 10
-2.905143598549172
 20
1.511649692298576
 10
-2.883526598549173
 20
1.477055692298577
 10
-2.858073598549172
 20
1.435902692298576
 10
-2.822344598549172
 20
1.376960692298574
 10
-2.781088598549173
 20
1.30810369229858
 10
-2.739045598549172
 20
1.237197692298579
 10
-2.689595598549174
 20
1.154078692298576
 10
-2.628169598549173
 20
1.051959692298575
 10
-2.562589598549172
 20
0.9437956922985795
 10
-2.500674598549173
 20
0.8425316922985782
 10
-2.446159598549173
 20
0.7529416922985774
 10
-2.400728598549172
 20
0.6765536922985764
 10
-2.369123598549173
 20
0.6214666922985752
 10
-2.356079598549172
 20
0.5957756922985804
 10
-2.357402598549173
 20
0.5804836922985785
 10
-2.364520598549174
 20
0.5537126922985753
 10
-2.376399598549172
 20
0.5192316922985754
 10
-2.391877598549172
 20
0.4808116922985803
 10
-2.409737598549173
 20
0.4391166922985765
 10
-2.428152598549172
 20
0.3957166922985773
 10
-2.444953598549173
 20
0.3557486922985764
 10
-2.457944598549172
 20
0.3243426922985793
 10
-2.470062598549173
 20
0.2954766922985783
 10
-2.484455598549173
 20
0.2624226922985784
 10
-2.499351598549172
 20
0.2292536922985773
 10
-2.512898598549173
 20
0.2000546922985793
 10
-2.524460598549172
 20
0.1747336922985814
 10
-2.533932598549173
 20
0.1520856922985774
 10
-2.540335598549174
 20
0.1346236922985753
 10
-2.542716598549173
 20
0.1247806922985784
 10
-2.544833598549173
 20
0.1149906922985764
 10
-2.550707598549172
 20
0.09768769229857832
 10
-2.559412598549173
 20
0.07530369229857525
 10
-2.570048598549173
 20
0.05027369229857426
 10
-2.586611598549172
 20
0.01467169229857745
 10
-2.600184598549173
 20
-0.003743307701419729
 10
-2.617752598549172
 20
-0.01062230770142469
 10
-2.646311598549172
 20
-0.01168030770142559
 10
-2.666658598549173
 20
-0.01062230770142469
 10
-2.685920598549172
 20
-0.007606307701422566
 10
-2.701927598549172
 20
-0.003161307701425642
 10
-2.712484598549173
 20
0.002262692298579339
 10
-2.722035598549173
 20
0.01565069229857841
 10
-2.735264598549172
 20
0.04176469229857838
 10
-2.750425598549173
 20
0.07682769229857933
 10
-2.765744598549173
 20
0.1170736922985753
 10
-2.813787598549172
 20
0.2328286922985754
 10
-2.875964598549173
 20
0.3563176922985745
 10
-2.942968598549173
 20
0.4704216922985793
 10
-3.005486598549172
 20
0.5580196922985792
 10
-3.217565598549173
 20
0.7777516922985792
 10
-3.446138598549172
 20
0.9490316922985755
 10
-3.687348598549173
 20
1.06947069229858
 10
-3.937337598549172
 20
1.136666692298575
 10
-4.100815598549172
 20
1.149763692298577
 10
-4.260221598549172
 20
1.135555692298575
 10
-4.421952598549172
 20
1.09292269229858
 10
-4.592407598549173
 20
1.020720692298574
 10
-4.659976598549173
 20
0.9857826922985784
 10
-4.710593598549172
 20
0.9549636922985774
 10
-4.752815598549173
 20
0.9224256922985745
 10
-4.795198598549172
 20
0.8823326922985752
 10
-4.884339598549174
 20
0.7787516922985773
 10
-4.956973598549173
 20
0.6630706922985752
 10
-5.016303598549174
 20
0.5292356922985775
 10
-5.065533598549173
 20
0.3711876922985764
 10
-5.084171598549172
 20
0.2953126922985803
 10
-5.094558598549172
 20
0.2326826922985743
 10
-5.099098598549173
 20
0.1617776922985783
 10
-5.100210598549173
 20
0.06107969229857746
 10
-5.097723598549173
 20
-0.06349130770141853
 10
-5.087859598549173
 20
-0.1636043077014195
 10
-5.067608598549173
 20
-0.2587273077014207
 10
-5.033967598549173
 20
-0.3683283077014257
 10
-4.964418598549173
 20
-0.5259853077014256
 10
-4.866333598549172
 20
-0.6818673077014239
 10
-4.751687598549173
 20
-0.8194593077014218
 10
-4.632453598549173
 20
-0.9222413077014195
 10
-4.552942598549173
 20
-0.9687823077014244
 10
-4.452626598549173
 20
-1.016343307701419
 10
-4.342884598549173
 20
-1.059983307701422
 10
-4.235091598549173
 20
-1.09476330770142
 10
-4.064742598549172
 20
-1.122531307701422
 10
-3.868373598549173
 20
-1.122465307701425
 10
-3.664674598549173
 20
-1.095816307701419
 10
-3.472338598549173
 20
-1.043828307701425
 10
-3.270197598549172
 20
-0.9595953077014201
 10
-3.088465598549172
 20
-0.8573103077014252
 10
-2.923068598549174
 20
-0.7343343077014239
 10
-2.769949598549173
 20
-0.5880283077014212
 10
-2.726075598549173
 20
-0.5425703077014246
 10
-2.687441598549173
 20
-0.5053433077014235
 10
-2.658218598549173
 20
-0.4801813077014216
 10
-2.642581598549173
 20
-0.4709473077014226
 10
-2.573943598549173
 20
-0.5312143077014257
 10
-2.440328598549172
 20
-0.6651753077014249
 10
-2.310058598549173
 20
-0.8025763077014219
 10
-2.251453598549173
 20
-0.8731643077014226
 10
-2.262380598549173
 20
-0.8874253077014203
 10
-2.292143598549172
 20
-0.9192203077014227
 10
-2.336193598549173
 20
-0.9638443077014216
 10
-2.389983598549172
 20
-1.016589307701423
 10
-2.753769598549173
 20
-1.329845307701426
 10
-3.116754598549173
 20
-1.562205307701426
 10
-3.490430598549173
 20
-1.719754307701422
 10
-3.886300598549173
 20
-1.80857730770142
 10
-4.025948598549173
 20
-1.82056330770142
 10
-4.194474598549172
 20
-1.824769307701423
 10
-4.361636598549172
 20
-1.821145307701421
 10
-4.497188598549172
 20
-1.80963530770142
 10
-4.497188598549172
 20
-1.809667307701424
 10
-4.497188598549172
 20
-1.809699307701422
 10
-4.497189598549173
 20
-1.809733307701421
  0
LWPOLYLINE
  5
51
100
AcDbEntity
  8
0
  6
ByLayer
 62
    7
370
   -1
100
AcDbPolyline
 90
   48
 70
    1
 43
0
 10
-7.609262598549174
 20
0.6468086922985772
 10
-7.542258598549173
 20
0.6893456922985806
 10
-7.489431598549176
 20
0.7438366922985793
 10
-7.446848598549176
 20
0.8154856922985805
 10
-7.410571598549174
 20
0.9094976922985794
 10
-7.406814598549174
 20
0.9171176922985755
 10
-7.401250598549174
 20
0.9233616922985775
 10
-7.394630598549176
 20
0.9275686922985784
 10
-7.387703598549175
 20
0.9291566922985766
 10
-7.368632598549175
 20
0.9247376922985784
 10
-7.328949598549174
 20
0.9126996922985815
 10
-7.274451598549176
 20
0.8948926922985763
 10
-7.210940598549174
 20
0.8731436922985765
 10
-7.106017598549172
 20
0.8374386922985764
 10
-7.046112598549172
 20
0.8211136922985744
 10
-7.016404598549173
 20
0.8216426922985742
 10
-7.002077598549173
 20
0.8361686922985783
 10
-6.997312598549172
 20
0.8558536922985813
 10
-7.002992598549172
 20
0.8779726922985773
 10
-7.018645598549172
 20
0.9014676922985743
 10
-7.043794598549173
 20
0.9253596922985774
 10
-7.106055598549172
 20
0.9656956922985742
 10
-7.194084598549177
 20
1.012518692298577
 10
-7.284785598549176
 20
1.054367692298576
 10
-7.355063598549174
 20
1.079794692298577
 10
-7.509878598549173
 20
1.101225692298577
 10
-7.738944598549176
 20
1.115195692298578
 10
-7.974375598549175
 20
1.119084692298578
 10
-8.148283598549176
 20
1.11030069229858
 10
-8.194837598549176
 20
1.098420692298575
 10
-8.219991598549173
 20
1.064786692298575
 10
-8.230461598549175
 20
0.9887166922985742
 10
-8.232948598549173
 20
0.8495326922985815
 10
-8.232695598549176
 20
0.7723776922985763
 10
-8.231399598549176
 20
0.7063556922985792
 10
-8.229282598549174
 20
0.6584846922985794
 10
-8.226530598549173
 20
0.6357836922985816
 10
-8.210086598549173
 20
0.6202526922985783
 10
-8.163586598549175
 20
0.6116806922985774
 10
-8.068821598549176
 20
0.6085846922985785
 10
-7.907584598549176
 20
0.6093786922985776
 10
-7.850181598549176
 20
0.6099076922985773
 10
-7.792777598549174
 20
0.6104366922985776
 10
-7.735374598549173
 20
0.6109656922985773
 10
-7.677970598549175
 20
0.6114946922985784
 10
-7.660793598549175
 20
0.6202266922985804
 10
-7.643616598549174
 20
0.6289576922985773
 10
-7.626440598549175
 20
0.6376886922985743
  0
LWPOLYLINE
  5
52
100
AcDbEntity
  8
0
  6
ByLayer
 62
    7
370
   -1
100
AcDbPolyline
 90
  368
 70
    1
 43
0
 10
-0.330317598549172
 20
-1.808122307701424
 10
-0.6105325985491739
 20
-1.756832307701423
 10
-0.851139598549171
 20
-1.692652307701422
 10
-1.069348598549173
 20
-1.610081307701421
 10
-1.282378598549172
 20
-1.503613307701421
 10
-1.479519598549173
 20
-1.381320307701422
 10
-1.660433598549172
 20
-1.244125307701424
 10
-1.818037598549173
 20
-1.097956307701423
 10
-1.945249598549173
 20
-0.9487473077014243
 10
-2.002060598549173
 20
-0.8654673077014223
 10
-2.060316598549173
 20
-0.7699233077014256
 10
-2.111368598549173
 20
-0.6770283077014199
 10
-2.146565598549172
 20
-0.6016853077014233
 10
-2.206454598549172
 20
-0.4375433077014246
 10
-2.246588598549172
 20
-0.2930153077014237
 10
-2.270454598549172
 20
-0.1525393077014245
 10
-2.281566598549173
 20
-0.0005573077014207062
 10
-2.261299598549172
 20
0.3418926922985794
 10
-2.173272598549172
 20
0.6512456922985805
 10
-2.015797598549172
 20
0.9315746922985753
 10
-1.787176598549173
 20
1.186960692298576
 10
-1.669087598549172
 20
1.293461692298578
 10
-1.577034598549172
 20
1.367232692298579
 10
-1.481908598549174
 20
1.429411692298579
 10
-1.354612598549172
 20
1.501137692298578
 10
-1.189710598549173
 20
1.581748692298576
 10
-1.019739598549172
 20
1.647039692298577
 10
-0.8496015985491816
 20
1.695373692298581
 10
-0.6842085985491728
 20
1.72511269229858
 10
-0.5312285985491734
 20
1.74310469229858
 10
-0.4243055985491715
 20
1.752550692298577
 10
-0.3364615985491817
 20
1.755195692298579
 10
-0.2407105985491818
 20
1.752550692298577
 10
-0.08423659854917176
 20
1.741808692298576
 10
0.057395401450826
 20
1.722123692298581
 10
0.2011824014508186
 20
1.690452692298579
 10
0.3641264014508288
 20
1.64374269229858
 10
0.4226494014508262
 20
1.626201692298579
 10
0.4743574014508276
 20
1.611834692298579
 10
0.5136424014508272
 20
1.602123692298576
 10
0.5349154014508279
 20
1.598525692298579
 10
0.558145401450826
 20
1.602229692298578
 10
0.576719401450827
 20
1.61342169229858
 10
0.5905564014508258
 20
1.632021692298579
 10
0.5994994014508279
 20
1.657898692298581
 10
0.6029394014508256
 20
1.670994692298578
 10
0.6069874014508265
 20
1.682477692298576
 10
0.6111414014508263
 20
1.691103692298575
 10
0.6148984014508265
 20
1.695654692298576
 10
0.6333404014508268
 20
1.698670692298577
 10
0.6775014014508258
 20
1.703168692298575
 10
0.7407634014508275
 20
1.708512692298576
 10
0.8165114014508283
 20
1.71412269229858
 10
0.9160794014508262
 20
1.720392692298574
 10
0.9770414014508262
 20
1.722244692298581
 10
1.009720401450828
 20
1.719493692298578
 10
1.024431401450826
 20
1.712058692298577
 10
1.036707401450826
 20
1.693219692298576
 10
1.059356401450827
 20
1.653386692298575
 10
1.089166401450829
 20
1.598406692298574
 10
1.122906401450827
 20
1.534118692298577
 10
1.249059401450818
 20
1.290368692298578
 10
1.345910401450826
 20
1.104003692298576
 10
1.417390401450827
 20
0.9674866922985785
 10
1.467433401450826
 20
0.8732766922985742
 10
1.495463401450827
 20
0.8201536922985753
 10
1.529494401450826
 20
0.7541686922985775
 10
1.565226401450818
 20
0.6837266922985772
 10
1.598362401450828
 20
0.6172256922985753
 10
1.616804401450828
 20
0.5798136922985795
 10
1.635219401450826
 20
0.5424046922985752
 10
1.653660401450828
 20
0.5049926922985795
 10
1.672075401450826
 20
0.4675806922985752
 10
1.644566401450827
 20
0.4111866922985783
 10
1.617060401450829
 20
0.3547906922985784
 10
1.589552401450828
 20
0.2983976922985794
 10
1.562046401450829
 20
0.2420016922985793
 10
1.518498401450827
 20
0.1533076922985754
 10
1.481263401450828
 20
0.07857369229857647
 10
1.454294401450827
 20
0.02565769229858028
 10
1.441541401450827
 20
0.002426692298577393
 10
1.422253401450828
 20
-0.007627307701419728
 10
1.390310401450826
 20
-0.01093430770142567
 10
1.354440401450827
 20
-0.007521307701423563
 10
1.323373401450826
 20
0.002611692298579271
 10
1.309482401450818
 20
0.01427969229857928
 10
1.294586401450818
 20
0.03547369229858033
 10
1.278447401450826
 20
0.0665566922985763
 10
1.260852401450826
 20
0.1079216922985753
 10
1.114082401450826
 20
0.3765586922985804
 10
0.9029214014508256
 20
0.6286216922985806
 10
0.6531734014508181
 20
0.8382636922985753
 10
0.3906434014508271
 20
0.9796306922985774
 10
0.1630164014508289
 20
1.037143692298578
 10
-0.08243759854917343
 20
1.048440692298577
 10
-0.3299865985491728
 20
1.014238692298576
 10
-0.5638965985491815
 20
0.9352766922985793
 10
-0.6361865985491733
 20
0.8955016922985806
 10
-0.7064015985491814
 20
0.8420956922985785
 10
-0.7778415985491733
 20
0.7721846922985804
 10
-0.8538085985491719
 20
0.6828926922985805
 10
-0.9100305985491737
 20
0.6089446922985782
 10
-0.9495325985491725
 20
0.5469736922985784
 10
-0.9802005985491711
 20
0.4828226922985763
 10
-1.009910598549173
 20
0.4023206922985803
 10
-1.030150598549174
 20
0.3392656922985753
 10
-1.040945598549172
 20
0.2869306922985753
 10
-1.045232598549173
 20
0.2224256922985783
 10
-1.046025598549171
 20
0.1228596922985754
 10
-1.040099598549173
 20
-0.03420230770142063
 10
-1.018032598549173
 20
-0.1620913077014237
 10
-0.9730885985491717
 20
-0.2861173077014247
 10
-0.8985205985491724
 20
-0.4315743077014247
 10
-0.8400665985491713
 20
-0.5304653077014196
 10
-0.7833475985491738
 20
-0.6106123077014232
 10
-0.7188135985491719
 20
-0.684122307701422
 10
-0.636916598549174
 20
-0.7630943077014223
 10
-0.5347635985491728
 20
-0.8499603077014228
 10
-0.4352325985491738
 20
-0.9198473077014242
 10
-0.3305895985491709
 20
-0.9775923077014212
 10
-0.2131015985491729
 20
-1.028032307701423
 10
-0.1090805985491734
 20
-1.064828307701426
 10
-0.01995059854917258
 20
-1.087212307701421
 10
0.0749104014508184
 20
-1.099039307701425
 10
0.1961184014508284
 20
-1.104145307701422
 10
0.4799584014508262
 20
-1.088852307701423
 10
0.7407394014508277
 20
-1.021984307701423
 10
1.010694401450827
 20
-0.8915473077014227
 10
1.322053401450827
 20
-0.6855533077014258
 10
1.332530401450828
 20
-0.6794683077014199
 10
1.342584401450829
 20
-0.6768223077014213
 10
1.352665401450828
 20
-0.6776163077014203
 10
1.363195401450827
 20
-0.6817693077014226
 10
1.383568401450827
 20
-0.7003173077014253
 10
1.423772401450826
 20
-0.7426053077014245
 10
1.477993401450828
 20
-0.8023673077014237
 10
1.540421401450828
 20
-0.8733203077014196
 10
1.579566401450826
 20
-0.9184423077014259
 10
1.618714401450827
 20
-0.9635673077014246
 10
1.657859401450828
 20
-1.008689307701424
 10
1.697007401450826
 20
-1.053813307701425
 10
1.697007401450826
 20
-1.068180307701425
 10
1.697007401450826
 20
-1.082547307701425
 10
1.697007401450826
 20
-1.096914307701425
 10
1.697007401450826
 20
-1.111281307701425
 10
1.697801401450828
 20
-1.143224307701423
 10
1.701955401450828
 20
-1.161851307701426
 10
1.711982401450829
 20
-1.172381307701421
 10
1.730450401450828
 20
-1.18002830770142
 10
1.776223401450828
 20
-1.184737307701425
 10
1.839313401450827
 20
-1.178334307701419
 10
1.906250401450826
 20
-1.163068307701423
 10
1.963564401450828
 20
-1.141187307701422
 10
1.987297401450828
 20
-1.127111307701419
 10
2.017108401450827
 20
-1.106473307701421
 10
2.049194401450826
 20
-1.082052307701424
 10
2.079748401450829
 20
-1.056626307701421
 10
2.127135401450818
 20
-1.009908307701423
 10
2.176572401450827
 20
-0.9435433077014252
 10
2.245856401450826
 20
-0.8306613077014191
 10
2.352777401450826
 20
-0.6444003077014244
 10
2.380322401450826
 20
-0.5960473077014257
 10
2.408310401450827
 20
-0.5471973077014236
 10
2.433472401450818
 20
-0.5035463077014197
 10
2.452522401450818
 20
-0.4707883077014257
 10
2.540845401450827
 20
-0.3150703077014256
 10
2.680659401450828
 20
-0.06373730770142361
 10
2.834260401450827
 20
0.2150826922985805
 10
2.963948401450818
 20
0.4532686922985794
 10
3.019196401450817
 20
0.5555066922985783
 10
3.067006401450826
 20
0.6434356922985742
 10
3.102265401450818
 20
0.7076866922985805
 10
3.119859401450828
 20
0.7388866922985784
 10
3.130046401450826
 20
0.7566926922985782
 10
3.145180401450826
 20
0.7844586922985783
 10
3.163198401450817
 20
0.8183856922985764
 10
3.182063401450826
 20
0.8546816922985774
 10
3.215104401450827
 20
0.9284156922985782
 10
3.224735401450818
 20
0.9815866922985772
 10
3.210580401450827
 20
1.022670692298576
 10
3.172212401450818
 20
1.060151692298575
 10
3.148929401450818
 20
1.075761692298578
 10
3.121108401450826
 20
1.091239692298579
 10
3.092234401450828
 20
1.104786692298574
 10
3.065802401450828
 20
1.114602692298575
 10
2.990425401450818
 20
1.130742692298575
 10
2.893342401450827
 20
1.142516692298579
 10
2.794131401450827
 20
1.148178692298579
 10
2.712364401450817
 20
1.14606169229858
 10
2.677701401450829
 20
1.143362692298581
 10
2.654179401450829
 20
1.143627692298579
 10
2.639495401450827
 20
1.147278692298577
 10
2.631293401450826
 20
1.154448692298579
 10
2.625948401450817
 20
1.173869692298581
 10
2.622403401450828
 20
1.214855692298577
 10
2.620551401450829
 20
1.28135369229858
 10
2.620022401450829
 20
1.377320692298575
 10
2.620551401450829
 20
1.395497692298576
 10
2.622138401450826
 20
1.424286692298579
 10
2.624520401450827
 20
1.459733692298578
 10
2.627483401450828
 20
1.497880692298579
 10
2.632272401450827
 20
1.54702969229858
 10
2.637828401450829
 20
1.575808692298579
 10
2.646057401450829
 20
1.590228692298581
 10
2.658863401450827
 20
1.596260692298578
 10
2.740748401450826
 20
1.598377692298576
 10
2.946142401450818
 20
1.599435692298577
 10
3.244049401450827
 20
1.59967669229858
 10
3.603475401450826
 20
1.59888269229858
 10
4.085895401450816
 20
1.59676669229858
 10
4.367118401450828
 20
1.593458692298575
 10
4.500728401450818
 20
1.58792969229858
 10
4.540301401450826
 20
1.579039692298579
 10
4.549588401450826
 20
1.566762692298574
 10
4.563056401450826
 20
1.545780692298578
 10
4.578931401450827
 20
1.519020692298575
 10
4.595361401450827
 20
1.489424692298577
 10
4.613591401450826
 20
1.455854692298579
 10
4.634281401450817
 20
1.418267692298577
 10
4.654919401450826
 20
1.381257692298576
 10
4.672937401450827
 20
1.349417692298581
 10
4.740490401450817
 20
1.232019692298578
 10
4.816471401450826
 20
1.100942692298581
 10
4.887440401450828
 20
0.9792946922985806
 10
4.939962401450817
 20
0.8901886922985796
 10
4.966368401450818
 20
0.8452336922985784
 10
4.998803401450818
 20
0.7890676922985804
 10
5.033149401450817
 20
0.7288586922985805
 10
5.065296401450826
 20
0.6717746922985763
 10
5.100316401450826
 20
0.6093886922985803
 10
5.142496401450817
 20
0.5347416922985744
 10
5.186525401450826
 20
0.4572086922985794
 10
5.227094401450817
 20
0.3861576922985743
 10
5.265789401450828
 20
0.3181986922985804
 10
5.304714401450827
 20
0.2490876922985803
 10
5.339343401450826
 20
0.1869076922985753
 10
5.365140401450827
 20
0.1397426922985754
 10
5.430013401450818
 20
0.02203469229857546
 10
5.524673401450826
 20
-0.1466053077014207
 10
5.624908401450828
 20
-0.3232783077014216
 10
5.706511401450829
 20
-0.4650943077014207
 10
5.733562401450829
 20
-0.5117483077014247
 10
5.763751401450826
 20
-0.5642553077014227
 10
5.793392401450827
 20
-0.6161873077014235
 10
5.818792401450818
 20
-0.6611083077014257
 10
5.902488401450828
 20
-0.8060283077014248
 10
5.968919401450826
 20
-0.9106553077014254
 10
6.025143401450826
 20
-0.9853073077014258
 10
6.078224401450829
 20
-1.040306307701421
 10
6.187439401450828
 20
-1.121795307701426
 10
6.311409401450828
 20
-1.186100307701423
 10
6.438682401450826
 20
-1.228359307701425
 10
6.557797401450816
 20
-1.243705307701426
 10
6.585303401450826
 20
-1.244499307701425
 10
6.610359401450818
 20
-1.246880307701424
 10
6.630176401450829
 20
-1.250293307701419
 10
6.642030401450828
 20
-1.254420307701423
 10
6.650576401450817
 20
-1.268629307701424
 10
6.655682401450829
 20
-1.305485307701424
 10
6.658063401450828
 20
-1.376269307701421
 10
6.658593401450826
 20
-1.492260307701422
 10
6.658593401450826
 20
-1.549068307701425
 10
6.658593401450826
 20
-1.605877307701419
 10
6.658593401450826
 20
-1.662688307701423
 10
6.658593401450826
 20
-1.719497307701424
 10
6.370326401450829
 20
-1.720291307701423
 10
6.082063401450828
 20
-1.721085307701422
 10
5.793797401450828
 20
-1.721878307701424
 10
5.505533401450826
 20
-1.722672307701423
 10
5.057194401450818
 20
-1.723201307701423
 10
4.688852401450827
 20
-1.722143307701423
 10
4.438598401450829
 20
-1.720026307701424
 10
4.344528401450827
 20
-1.717010307701422
 10
4.341142401450828
 20
-1.697854307701419
 10
4.337781401450826
 20
-1.65194430770142
 10
4.334845401450817
 20
-1.586160307701419
 10
4.332728401450819
 20
-1.507381307701422
 10
4.331670401450818
 20
-1.457083307701424
 10
4.330611401450827
 20
-1.406789307701423
 10
4.329553401450827
 20
-1.356491307701425
 10
4.328495401450827
 20
-1.306197307701424
 10
4.338284401450817
 20
-1.304080307701419
 10
4.348074401450827
 20
-1.301963307701421
 10
4.357890401450828
 20
-1.29984730770142
 10
4.367679401450818
 20
-1.297730307701421
 10
4.388661401450829
 20
-1.29352330770142
 10
4.416765401450828
 20
-1.28799330770142
 10
4.448338401450826
 20
-1.28185530770142
 10
4.479699401450826
 20
-1.275823307701422
 10
4.569644401450827
 20
-1.240540307701423
 10
4.619785401450827
 20
-1.18271030770142
 10
4.625844401450816
 20
-1.112117307701425
 10
4.583529401450829
 20
-1.038550307701421
 10
4.520455401450828
 20
-0.9936443077014232
 10
4.422877401450826
 20
-0.9540893077014232
 10
4.294263401450817
 20
-0.9210033077014259
 10
4.138082401450827
 20
-0.8954973077014259
 10
4.097103401450827
 20
-0.8902853077014257
 10
4.051767401450828
 20
-0.8844643077014211
 10
4.007584401450817
 20
-0.878749307701419
 10
3.970071401450827
 20
-0.8738283077014231
 10
3.800487401450827
 20
-0.8635623077014216
 10
3.596302401450817
 20
-0.8695153077014197
 10
3.384752401450829
 20
-0.8899673077014256
 10
3.193067401450826
 20
-0.9231703077014188
 10
3.079137401450819
 20
-0.9544653077014189
 10
3.006335401450826
 20
-0.9898663077014191
 10
2.967735401450827
 20
-1.03434030770142
 10
2.956410401450828
 20
-1.092853307701425
 10
2.964507401450827
 20
-1.136337307701424
 10
2.991984401450818
 20
-1.169590307701419
 10
3.043681401450826
 20
-1.196268307701423
 10
3.124431401450817
 20
-1.220027307701422
 10
3.142635401450828
 20
-1.22444630770142
 10
3.160838401450828
 20
-1.228864307701421
 10
3.179041401450828
 20
-1.23328330770142
 10
3.197245401450818
 20
-1.237701307701421
 10
3.198568401450817
 20
-1.261514307701425
 10
3.199891401450817
 20
-1.285326307701425
 10
3.201213401450818
 20
-1.309139307701422
 10
3.202536401450818
 20
-1.332951307701421
 10
3.204388401450817
 20
-1.381386307701419
 10
3.204918401450826
 20
-1.442880307701422
 10
3.204388401450817
 20
-1.509548307701422
 10
3.202536401450818
 20
-1.573489307701422
 10
3.201213401450818
 20
-1.609822307701421
 10
3.199891401450817
 20
-1.646157307701422
 10
3.198568401450817
 20
-1.682490307701421
 10
3.197245401450818
 20
-1.718825307701422
 10
3.185153401450826
 20
-1.720942307701421
 10
3.173062401450817
 20
-1.723058307701422
 10
3.160970401450829
 20
-1.72517530770142
 10
3.148879401450817
 20
-1.727292307701425
 10
3.116690401450828
 20
-1.730149307701424
 10
3.064778401450827
 20
-1.731737307701422
 10
3.000315401450827
 20
-1.732266307701423
 10
2.930465401450828
 20
-1.731208307701422
 10
2.818028401450828
 20
-1.729355307701425
 10
2.637614401450826
 20
-1.727768307701425
 10
2.414097401450828
 20
-1.726445307701425
 10
2.172355401450826
 20
-1.725651307701419
 10
1.942805401450826
 20
-1.724593307701426
 10
1.752493401450828
 20
-1.722212307701419
 10
1.621222401450819
 20
-1.718851307701421
 10
1.568798401450827
 20
-1.71496230770142
 10
1.561151401450818
 20
-1.701574307701421
 10
1.555622401450826
 20
-1.669295307701425
 10
1.551653401450828
 20
-1.613140307701421
 10
1.548742401450827
 20
-1.528119307701424
 10
1.544615401450827
 20
-1.424174307701421
 10
1.537550401450826
 20
-1.361257307701422
 10
1.525750401450829
 20
-1.330226307701423
 10
1.507335401450828
 20
-1.321945307701419
 10
1.491830401450827
 20
-1.327818307701421
 10
1.458937401450829
 20
-1.343799307701424
 10
1.413490401450819
 20
-1.367453307701425
 10
1.360306401450828
 20
-1.396327307701419
 10
1.083729401450828
 20
-1.539004307701425
 10
0.8311474014508278
 20
-1.643890307701419
 10
0.5731764014508265
 20
-1.721489307701425
 10
0.2804254014508274
 20
-1.782309307701425
 10
0.1439614014508273
 20
-1.797417307701423
 10
-0.04014859854917319
 20
-1.808238307701423
 10
-0.2168275985491732
 20
-1.81247230770142
 10
-0.3309975985491711
 20
-1.807815307701425
 10
-0.3309945985491716
 20
-1.807818307701424
 10
-0.3309925985491731
 20
-1.807818307701424
 10
-0.330986598549174
 20
-1.807820307701419
  0
LWPOLYLINE
  5
53
100
AcDbEntity
  8
0
  6
ByLayer
 62
    7
370
   -1
100
AcDbPolyline
 90
   32
 70
    1
 43
0
 10
4.003591401450826
 20
-0.2501553077014196
 10
4.055005401450817
 20
-0.2177703077014217
 10
4.079638401450818
 20
-0.1641783077014196
 10
4.076357401450817
 20
-0.09597930770141971
 10
4.043996401450826
 20
-0.01976630770142362
 10
3.960210401450826
 20
0.1048016922985793
 10
3.879364401450818
 20
0.1990146922985754
 10
3.805707401450828
 20
0.2586436922985773
 10
3.743482401450827
 20
0.2794666922985773
 10
3.720913401450819
 20
0.2773496922985783
 10
3.701096401450826
 20
0.2693336922985803
 10
3.679612401450829
 20
0.2527966922985814
 10
3.652077401450828
 20
0.2251156922985804
 10
3.600475401450819
 20
0.1569086922985794
 10
3.536755401450826
 20
0.05610269229858034
 10
3.477481401450827
 20
-0.04950030770142155
 10
3.439219401450817
 20
-0.1321033077014206
 10
3.430515401450826
 20
-0.1586753077014227
 10
3.427578401450827
 20
-0.1772223077014206
 10
3.430409401450827
 20
-0.1928063077014246
 10
3.439008401450817
 20
-0.2104803077014237
 10
3.467151401450817
 20
-0.2409453077014236
 10
3.519385401450826
 20
-0.2583813077014196
 10
3.611161401450818
 20
-0.2654193077014217
 10
3.757926401450828
 20
-0.2646253077014227
 10
3.843148401450826
 20
-0.2622443077014227
 10
3.917874401450828
 20
-0.2586723077014237
 10
3.974038401450827
 20
-0.2545183077014246
 10
4.003584401450826
 20
-0.2502843077014207
 10
4.003584401450826
 20
-0.2502823077014256
 10
4.003581401450827
 20
-0.2502763077014196
 10
4.003581401450827
 20
-0.2502743077014247
  0
LWPOLYLINE
  5
54
100
AcDbEntity
  8
0
  6
ByLayer
 62
    7
370
   -1
100
AcDbPolyline
 90
  304
 70
    1
 43
0
 10
-13.48621259854917
 20
-1.750665307701425
 10
-13.49917759854918
 20
-1.729049307701423
 10
-13.51606059854918
 20
-1.701254307701426
 10
-13.53467659854917
 20
-1.670861307701422
 10
-13.55283959854918
 20
-1.641453307701426
 10
-13.66059859854917
 20
-1.463460307701425
 10
-13.79914859854918
 20
-1.228967307701424
 10
-13.93886559854917
 20
-0.9885333077014238
 10
-14.05012859854918
 20
-0.7927153077014211
 10
-14.06771259854917
 20
-0.7617113077014253
 10
-14.09152559854918
 20
-0.7205473077014233
 10
-14.11844059854917
 20
-0.6745943077014189
 10
-14.14533459854917
 20
-0.6292133077014199
 10
-14.17176059854918
 20
-0.5848023077014237
 10
-14.19740159854917
 20
-0.5414903077014226
 10
-14.21932559854917
 20
-0.5042373077014237
 10
-14.23460459854918
 20
-0.4779903077014256
 10
-14.25040859854917
 20
-0.4507623077014247
 10
-14.27375759854917
 20
-0.4107963077014247
 10
-14.30150859854917
 20
-0.3634703077014196
 10
-14.33051159854917
 20
-0.3141573077014217
 10
-14.36469059854917
 20
-0.2556793077014206
 10
-14.40653259854918
 20
-0.1833903077014227
 10
-14.45073959854918
 20
-0.1064813077014226
 10
-14.49201159854917
 20
-0.03414130770142565
 10
-14.58947159854917
 20
0.1340596922985784
 10
-14.68741359854917
 20
0.2976516922985795
 10
-14.76759059854917
 20
0.4266626922985783
 10
-14.81175959854918
 20
0.4911226922985743
 10
-14.82112559854917
 20
0.5002776922985746
 10
-14.83085959854917
 20
0.5077646922985792
 10
-14.83981059854917
 20
0.5128186922985805
 10
-14.84682759854917
 20
0.5146706922985804
 10
-14.87365859854918
 20
0.4950646922985764
 10
-14.92041659854917
 20
0.4216456922985752
 10
-14.99945559854917
 20
0.2725826922985775
 10
-15.12312859854917
 20
0.0260246922985774
 10
-15.39262159854917
 20
-0.5197573077014257
 10
-15.53476159854917
 20
-0.8200963077014194
 10
-15.58705659854918
 20
-0.9598893077014239
 10
-15.58701159854918
 20
-1.024042307701421
 10
-15.56450059854918
 20
-1.06324330770142
 10
-15.51203059854917
 20
-1.099618307701419
 10
-15.42040859854917
 20
-1.137930307701424
 10
-15.28044659854917
 20
-1.18293830770142
 10
-15.27383459854918
 20
-1.19460630770142
 10
-15.26951459854918
 20
-1.227914307701425
 10
-15.26715959854917
 20
-1.287377307701419
 10
-15.26644559854918
 20
-1.377494307701426
 10
-15.26697459854917
 20
-1.48372230770142
 10
-15.26977059854917
 20
-1.54218930770142
 10
-15.27666059854917
 20
-1.56898430770142
 10
-15.28946959854918
 20
-1.580175307701424
 10
-15.34888359854918
 20
-1.585441307701423
 10
-15.51089659854918
 20
-1.588086307701424
 10
-15.78831059854918
 20
-1.588086307701424
 10
-16.19392459854917
 20
-1.585441307701423
 10
-16.53784659854917
 20
-1.582239307701421
 10
-16.82268359854918
 20
-1.578667307701423
 10
-17.01881659854918
 20
-1.57520130770142
 10
-17.09662459854918
 20
-1.572238307701426
 10
-17.10836759854917
 20
-1.563560307701422
 10
-17.11378559854917
 20
-1.53299530770142
 10
-17.11398059854918
 20
-1.460420307701419
 10
-17.11004659854918
 20
-1.325697307701425
 10
-17.10626559854918
 20
-1.23044930770142
 10
-17.10176759854917
 20
-1.148767307701419
 10
-17.09711859854917
 20
-1.089339307701422
 10
-17.09287959854917
 20
-1.060859307701421
 10
-17.08239759854917
 20
-1.046810307701421
 10
-17.05205659854917
 20
-1.03699430770142
 10
-16.98376659854917
 20
-1.027971307701421
 10
-16.85943359854917
 20
-1.016303307701421
 10
-16.70531259854917
 20
-1.000137307701422
 10
-16.60288159854917
 20
-0.9811403077014234
 10
-16.52980859854917
 20
-0.9533853077014243
 10
-16.46375959854917
 20
-0.9109203077014243
 10
-16.38065759854917
 20
-0.8406993077014207
 10
-16.31174359854917
 20
-0.7533153077014205
 10
-16.23805559854917
 20
-0.6193303077014249
 10
-16.14062859854917
 20
-0.4093023077014237
 10
-16.08992559854918
 20
-0.2969543077014196
 10
-16.05392359854917
 20
-0.2192303077014226
 10
-16.02807059854917
 20
-0.1665363077014206
 10
-16.00782259854918
 20
-0.1292823077014236
 10
-16.00022659854918
 20
-0.1148363077014236
 10
-15.98913759854917
 20
-0.09208230770142456
 10
-15.97604559854918
 20
-0.06412330770142161
 10
-15.96244159854917
 20
-0.03408830770142357
 10
-15.94522759854918
 20
0.003903692298578454
 10
-15.92231159854918
 20
0.05352269229857831
 10
-15.89668159854918
 20
0.1083396922985784
 10
-15.87132959854917
 20
0.1619226922985744
 10
-15.84459759854917
 20
0.2181596922985773
 10
-15.81521259854918
 20
0.2801966922985744
 10
-15.78673959854918
 20
0.3405006922985763
 10
-15.76273859854918
 20
0.3915386922985744
 10
-15.74088959854918
 20
0.4377136922985794
 10
-15.71827259854918
 20
0.4847836922985773
 10
-15.69755859854918
 20
0.5272326922985755
 10
-15.68141359854918
 20
0.5595496922985745
 10
-15.63225559854918
 20
0.6638746922985774
 10
-15.58026459854917
 20
0.7859696922985795
 10
-15.53704759854917
 20
0.8973696922985752
 10
-15.51420559854918
 20
0.9696186922985746
 10
-15.50834259854918
 20
1.039013692298574
 10
-15.51907159854917
 20
1.104056692298578
 10
-15.54566959854917
 20
1.162365692298578
 10
-15.58741859854917
 20
1.21156169229858
 10
-15.62227059854917
 20
1.23508369229858
 10
-15.66992359854918
 20
1.256779692298579
 10
-15.72458959854917
 20
1.274400692298578
 10
-15.78048459854917
 20
1.285751692298575
 10
-15.80765559854918
 20
1.289984692298574
 10
-15.83105559854918
 20
1.29461469229858
 10
-15.84818659854917
 20
1.299059692298577
 10
-15.85655259854918
 20
1.302763692298576
 10
-15.85929959854917
 20
1.377738692298578
 10
-15.85204459854917
 20
1.531525692298579
 10
-15.83976759854917
 20
1.685629692298576
 10
-15.82744859854918
 20
1.761561692298578
 10
-15.80569259854918
 20
1.767223692298579
 10
-15.75197759854917
 20
1.770901692298579
 10
-15.66358259854917
 20
1.772753692298579
 10
-15.53778059854917
 20
1.772772692298581
 10
-15.10681359854918
 20
1.768724692298576
 10
-14.70173859854918
 20
1.762374692298578
 10
-14.39588659854918
 20
1.755124692298579
 10
-14.26259159854918
 20
1.748351692298578
 10
-14.23750359854917
 20
1.73414369229858
 10
-14.19918559854917
 20
1.682258692298575
 10
-14.12563359854918
 20
1.558062692298577
 10
-13.99484459854918
 20
1.326914692298579
 10
-13.82581459854917
 20
1.026861692298574
 10
-13.71317359854917
 20
0.8275986922985794
 10
-13.62541459854918
 20
0.6735816922985762
 10
-13.53102759854917
 20
0.5092656922985763
 10
-13.42356459854918
 20
0.3236286922985774
 10
-13.36335859854917
 20
0.2249886922985813
 10
-13.33221059854918
 20
0.1859236922985803
 10
-13.31192259854918
 20
0.1789916922985813
 10
-13.29276159854918
 20
0.1852886922985773
 10
-13.26735859854917
 20
0.2144346922985743
 10
-13.22489959854917
 20
0.2818266922985804
 10
-13.15456559854917
 20
0.4028526922985805
 10
-13.11889259854918
 20
0.4646596922985755
 10
-13.08597659854917
 20
0.5211606922985794
 10
-13.05947759854917
 20
0.5661136922985794
 10
-13.04305159854917
 20
0.5932656922985804
 10
-13.02834859854917
 20
0.6173156922985754
 10
-13.00653659854917
 20
0.6538446922985774
 10
-12.98055759854917
 20
0.6978786922985805
 10
-12.95335359854918
 20
0.7444636922985803
 10
-12.92218759854917
 20
0.7981186922985803
 10
-12.88542059854918
 20
0.8614076922985774
 10
-12.84764259854917
 20
0.9264256922985794
 10
-12.81344459854917
 20
0.9852776922985815
 10
-12.77052459854917
 20
1.059140692298577
 10
-12.70900059854918
 20
1.165034692298576
 10
-12.63708959854918
 20
1.288814692298579
 10
-12.56300759854918
 20
1.41633869229858
 10
-12.48573959854918
 20
1.54729669229858
 10
-12.42625259854917
 20
1.643618692298581
 10
-12.38535659854917
 20
1.70404469229858
 10
-12.36385859854917
 20
1.727300692298577
 10
-12.34487559854917
 20
1.730264692298575
 10
-12.31060759854917
 20
1.731851692298576
 10
-12.26591859854918
 20
1.731989692298576
 10
-12.21567059854918
 20
1.730666692298577
 10
-12.11513759854917
 20
1.728020692298578
 10
-11.93353459854917
 20
1.72489869229858
 10
-11.69663359854917
 20
1.72167069229858
 10
-11.43020759854918
 20
1.71876069229858
 10
-11.17077359854917
 20
1.715770692298576
 10
-10.95290859854917
 20
1.71238369229858
 10
-10.79947659854917
 20
1.70902369229858
 10
-10.73334659854917
 20
1.706086692298576
 10
-10.71016359854917
 20
1.697593692298575
 10
-10.69360659854918
 20
1.683094692298575
 10
-10.68598859854917
 20
1.665658692298579
 10
-10.68962959854918
 20
1.648328692298577
 10
-10.69201059854918
 20
1.627426692298577
 10
-10.69428659854917
 20
1.57731669229858
 10
-10.69621759854917
 20
1.505521692298579
 10
-10.69751359854917
 20
1.419545692298577
 10
-10.69888959854917
 20
1.333476692298575
 10
-10.70105959854917
 20
1.26142569229858
 10
-10.70370559854918
 20
1.210937692298578
 10
-10.70653059854917
 20
1.18955969229858
 10
-10.71556359854918
 20
1.184981692298579
 10
-10.73510559854917
 20
1.180245692298577
 10
-10.76228159854917
 20
1.175906692298575
 10
-10.79421359854918
 20
1.172519692298578
 10
-10.85775059854918
 20
1.163286692298577
 10
-10.91389759854918
 20
1.147146692298577
 10
-10.95991459854917
 20
1.125080692298575
 10
-10.99306159854917
 20
1.09814269229858
 10
-11.00350159854918
 20
1.082585692298579
 10
-11.01107659854918
 20
1.061868692298575
 10
-11.01622359854918
 20
1.03432569229858
 10
-11.01937959854917
 20
0.9982916922985794
 10
-11.01892959854918
 20
0.9483596922985815
 10
-11.00575859854918
 20
0.8824306922985774
 10
-10.97116759854917
 20
0.7675306922985783
 10
-10.90644659854918
 20
0.5706886922985746
 10
-10.85450559854918
 20
0.4138966922985783
 10
-10.79970759854917
 20
0.2476376922985755
 10
-10.74857659854918
 20
0.09174969229857743
 10
-10.70763459854918
 20
-0.03392430770141863
 10
-10.60180559854918
 20
-0.3570943077014237
 10
-10.51089959854917
 20
-0.6279403077014223
 10
-10.44330959854918
 20
-0.8218533077014243
 10
-10.40742559854918
 20
-0.9142273077014238
 10
-10.37712659854917
 20
-0.9602593077014205
 10
-10.33546059854917
 20
-1.003376307701423
 10
-10.28305659854917
 20
-1.043024307701423
 10
-10.22054359854918
 20
-1.078650307701423
 10
-10.15428459854917
 20
-1.106563307701421
 10
-10.07915359854917
 20
-1.13064030770142
 10
-10.00695959854917
 20
-1.147600307701424
 10
-9.949515598549175
 20
-1.154162307701419
 10
-9.913300598549176
 20
-1.157945307701425
 10
-9.895586598549174
 20
-1.183134307701422
 10
-9.891342598549175
 20
-1.250978307701423
 10
-9.895541598549174
 20
-1.382770307701421
 10
-9.900343598549176
 20
-1.485439307701419
 10
-9.905601598549174
 20
-1.552283307701423
 10
-9.912157598549173
 20
-1.590867307701423
 10
-9.920862598549176
 20
-1.60875330770142
 10
-9.961625598549174
 20
-1.61759030770142
 10
-10.10373259854917
 20
-1.62174430770142
 10
-10.41101259854918
 20
-1.621805307701422
 10
-10.94729459854918
 20
-1.618365307701424
 10
-11.36259759854917
 20
-1.614529307701424
 10
-11.68329859854917
 20
-1.610031307701419
 10
-11.89113759854917
 20
-1.605163307701424
 10
-11.96785259854917
 20
-1.60026830770142
 10
-11.97612359854917
 20
-1.527947307701425
 10
-11.97752559854918
 20
-1.38209530770142
 10
-11.97287959854918
 20
-1.235386307701425
 10
-11.96298159854918
 20
-1.160488307701421
 10
-11.95215759854917
 20
-1.15397930770142
 10
-11.93198559854917
 20
-1.14744430770142
 10
-11.90534559854917
 20
-1.141650307701426
 10
-11.87512059854918
 20
-1.13736330770142
 10
-11.79343659854918
 20
-1.123552307701424
 10
-11.73332059854918
 20
-1.100216307701423
 10
-11.68994659854918
 20
-1.06461930770142
 10
-11.65848859854917
 20
-1.014007307701419
 10
-11.63973459854917
 20
-0.9539683077014232
 10
-11.64956059854917
 20
-0.8692773077014238
 10
-11.69969759854917
 20
-0.7127423077014257
 10
-11.80187559854918
 20
-0.4371703077014217
 10
-11.81637959854918
 20
-0.3978533077014246
 10
-11.83560459854918
 20
-0.3446243077014226
 10
-11.85704659854917
 20
-0.2844663077014216
 10
-11.87819959854918
 20
-0.2243583077014226
 10
-11.94413059854917
 20
-0.04112330770142569
 10
-12.01152059854917
 20
0.1377536922985814
 10
-12.06668459854918
 20
0.2767676922985773
 10
-12.09593359854917
 20
0.3404186922985775
 10
-12.10277859854917
 20
0.3472716922985764
 10
-12.11057859854917
 20
0.3528806922985763
 10
-12.11837559854918
 20
0.3566906922985784
 10
-12.12520659854918
 20
0.3580136922985773
 10
-12.14463559854917
 20
0.3465836922985803
 10
-12.17253659854917
 20
0.3177626922985795
 10
-12.20186659854918
 20
0.2797736922985763
 10
-12.22558159854917
 20
0.2408456922985773
 10
-12.23721759854917
 20
0.2196786922985794
 10
-12.25616159854918
 20
0.1871986922985793
 10
-12.27979159854918
 20
0.1478366922985754
 10
-12.30548559854917
 20
0.1060116922985803
 10
-12.33293459854917
 20
0.06156669229857625
 10
-12.36134359854917
 20
0.01507669229857833
 10
-12.38735959854918
 20
-0.02795030770142359
 10
-12.40763259854918
 20
-0.06199930770141959
 10
-12.47088059854917
 20
-0.1690183077014207
 10
-12.57700859854918
 20
-0.3480273077014215
 10
-12.69979559854917
 20
-0.5548303077014227
 10
-12.81302159854918
 20
-0.745243307701422
 10
-12.85312559854918
 20
-0.8128283077014231
 10
-12.89824059854917
 20
-0.8892053077014239
 10
-12.94284059854918
 20
-0.9650093077014219
 10
-12.98140059854917
 20
-1.030861307701421
 10
-13.01599759854917
 20
-1.090085307701422
 10
-13.04980359854917
 20
-1.14783830770142
 10
-13.07894359854918
 20
-1.197506307701424
 10
-13.09953859854918
 20
-1.232473307701426
 10
-13.12403059854917
 20
-1.274510307701419
 10
-13.16377459854918
 20
-1.34342930770142
 10
-13.21327359854917
 20
-1.429672307701424
 10
-13.26703459854918
 20
-1.523690307701422
 10
-13.31929659854917
 20
-1.614391307701425
 10
-13.36471859854918
 20
-1.691613307701424
 10
-13.39842559854918
 20
-1.747178307701425
 10
-13.41554359854918
 20
-1.772895307701425
 10
-13.43376059854918
 20
-1.788320307701426
 10
-13.45037359854918
 20
-1.790173307701423
 10
-13.46723759854917
 20
-1.777764307701425
 10
-13.48621359854918
 20
-1.750538307701426
 10
-13.48621359854918
 20
-1.750538307701426
 10
-13.48621259854917
 20
-1.750538307701426
 10
-13.48621159854917
 20
-1.750538307701426
  0
LWPOLYLINE
  5
55
100
AcDbEntity
  8
0
  6
ByLayer
 62
    7
370
   -1
100
AcDbPolyline
 90
  232
 70
    1
 43
0
 10
6.966933401450827
 20
-1.725477307701425
 10
6.937530401450818
 20
-1.724154307701426
 10
6.908129401450818
 20
-1.722831307701419
 10
6.878726401450827
 20
-1.72150830770142
 10
6.849325401450827
 20
-1.720185307701421
 10
6.846944401450827
 20
-1.668877307701422
 10
6.844563401450817
 20
-1.617569307701423
 10
6.842182401450817
 20
-1.566261307701424
 10
6.839800401450827
 20
-1.514953307701425
 10
6.836440401450826
 20
-1.422381307701421
 10
6.835911401450819
 20
-1.35584330770142
 10
6.838028401450817
 20
-1.313960307701421
 10
6.842817401450827
 20
-1.295359307701425
 10
6.852977401450818
 20
-1.289248307701421
 10
6.871789401450826
 20
-1.28326830770142
 10
6.896607401450819
 20
-1.278082307701425
 10
6.924716401450826
 20
-1.274378307701426
 10
7.010528401450816
 20
-1.261175307701421
 10
7.086247401450827
 20
-1.238924307701424
 10
7.150874401450817
 20
-1.208031307701425
 10
7.203420401450817
 20
-1.168857307701423
 10
7.265497401450826
 20
-1.10947930770142
 10
7.294752401450818
 20
-0.9975133077014249
 10
7.303483401450826
 20
-0.7004413077014249
 10
7.304012401450827
 20
-0.08575830770142567
 10
7.304144401450817
 20
0.1539006922985773
 10
7.304277401450829
 20
0.3935606922985784
 10
7.304409401450826
 20
0.6332196922985744
 10
7.304541401450827
 20
0.8728796922985755
 10
7.298350401450826
 20
0.8856856922985794
 10
7.292159401450828
 20
0.8984916922985775
 10
7.285967401450826
 20
0.9112966922985772
 10
7.279776401450828
 20
0.9241026922985753
 10
7.212360401450827
 20
1.00912369229858
 10
7.105834401450817
 20
1.07370069229858
 10
6.966845401450826
 20
1.114967692298577
 10
6.802050401450817
 20
1.130049692298577
 10
6.778872401450826
 20
1.131107692298577
 10
6.758764401450826
 20
1.133859692298578
 10
6.743868401450829
 20
1.137827692298579
 10
6.736327401450819
 20
1.142616692298574
 10
6.729422401450826
 20
1.214422692298577
 10
6.726035401450826
 20
1.355921692298579
 10
6.726829401450818
 20
1.497309692298579
 10
6.732411401450829
 20
1.568781692298579
 10
6.769297401450817
 20
1.576454692298575
 10
6.892704401450818
 20
1.581084692298574
 10
7.139330401450817
 20
1.583465692298574
 10
7.545862401450826
 20
1.583994692298574
 10
7.866286401450818
 20
1.58373069229858
 10
8.144363401450828
 20
1.582936692298574
 10
8.350286401450827
 20
1.581613692298574
 10
8.454251401450826
 20
1.579761692298575
 10
8.480339401450816
 20
1.578703692298575
 10
8.506427401450818
 20
1.577644692298577
 10
8.532515401450826
 20
1.576586692298577
 10
8.558603401450828
 20
1.575528692298577
 10
8.597208401450818
 20
1.540216692298578
 10
8.635813401450829
 20
1.504905692298578
 10
8.674421401450818
 20
1.469594692298578
 10
8.713027401450827
 20
1.43428269229858
 10
8.785290401450826
 20
1.367951692298575
 10
8.867885401450817
 20
1.291757692298575
 10
8.950636401450819
 20
1.215112692298575
 10
9.023356401450826
 20
1.14743269229858
 10
9.106835401450827
 20
1.06968169229858
 10
9.218876401450817
 20
0.9656296922985774
 10
9.344823401450828
 20
0.8488716922985802
 10
9.470018401450826
 20
0.7330046922985782
 10
9.592216401450827
 20
0.6197896922985744
 10
9.710000401450817
 20
0.5102526922985784
 10
9.809963401450826
 20
0.4168836922985766
 10
9.878691401450826
 20
0.3521816922985794
 10
9.935375401450827
 20
0.2986436922985765
 10
10.00254240145083
 20
0.2356706922985763
 10
10.07179440145083
 20
0.1711146922985805
 10
10.13472540145083
 20
0.1128296922985754
 10
10.21431240145083
 20
0.04029669229857546
 10
10.26046140145083
 20
0.003056692298578412
 10
10.28932740145083
 20
-0.009643307701423742
 10
10.31706340145083
 20
-0.008585307701423739
 10
10.36340540145083
 20
0.001230692298577418
 10
10.38605340145083
 20
0.04977169229857736
 10
10.39343540145083
 20
0.1902596922985753
 10
10.39396440145083
 20
0.4759016922985784
 10
10.39396440145083
 20
0.5887486922985805
 10
10.39396440145083
 20
0.7015936922985802
 10
10.39396440145083
 20
0.8144406922985752
 10
10.39396440145083
 20
0.9272856922985753
 10
10.38486340145082
 20
0.9391386922985774
 10
10.37576140145083
 20
0.9509926922985774
 10
10.36665940145083
 20
0.9628456922985795
 10
10.35755840145083
 20
0.9746986922985745
 10
10.32315440145082
 20
1.015296692298577
 10
10.28836640145083
 20
1.044747692298579
 10
10.24546440145083
 20
1.068321692298575
 10
10.18672740145083
 20
1.091287692298578
 10
10.14647840145082
 20
1.10385569229858
 10
10.10759540145083
 20
1.112480692298575
 10
10.06829140145082
 20
1.117481692298576
 10
10.02678340145082
 20
1.119068692298576
 10
9.990520401450826
 20
1.120127692298575
 10
9.964194401450829
 20
1.122799692298579
 10
9.947578401450826
 20
1.127218692298576
 10
9.940487401450827
 20
1.133409692298578
 10
9.938370401450829
 20
1.15462869229858
 10
9.935989401450826
 20
1.202034692298575
 10
9.933608401450826
 20
1.26861669229858
 10
9.931756401450826
 20
1.347351692298581
 10
9.930168401450818
 20
1.450141692298579
 10
9.931491401450817
 20
1.513493692298574
 10
9.936068401450829
 20
1.548027692298575
 10
9.944694401450828
 20
1.564352692298578
 10
9.980151401450826
 20
1.573162692298582
 10
10.09890440145083
 20
1.577263692298579
 10
10.35358640145083
 20
1.577223692298581
 10
10.79682740145083
 20
1.573625692298577
 10
11.12163740145083
 20
1.570000692298577
 10
11.38871640145082
 20
1.565899692298579
 10
11.57042340145083
 20
1.561825692298576
 10
11.63912540145083
 20
1.558253692298579
 10
11.64428540145083
 20
1.503479692298576
 10
11.64891540145082
 20
1.384377692298578
 10
11.65156140145082
 20
1.253297692298581
 10
11.65050240145082
 20
1.162582692298578
 10
11.64735440145083
 20
1.145860692298577
 10
11.63610940145083
 20
1.134562692298581
 10
11.61049740145082
 20
1.125170692298574
 10
11.56425640145083
 20
1.114137692298578
 10
11.47900740145082
 20
1.088366692298578
 10
11.39199440145083
 20
1.050446692298578
 10
11.31329140145083
 20
1.00542569229858
 10
11.25296840145082
 20
0.9583426922985794
 10
11.20534340145083
 20
0.8983876922985772
 10
11.18012940145082
 20
0.7903106922985752
 10
11.16978340145082
 20
0.5629146922985764
 10
11.16676740145083
 20
0.1450076922985775
 10
11.16359240145082
 20
-0.6608253077014226
 10
11.16041740145082
 20
-1.243578307701419
 10
11.15729540145083
 20
-1.59810130770142
 10
11.15427940145082
 20
-1.719238307701424
 10
11.10227840145083
 20
-1.72331230770142
 10
10.97324040145083
 20
-1.726249307701423
 10
10.79280540145082
 20
-1.727572307701422
 10
10.58659740145083
 20
-1.727043307701422
 10
10.52129540145082
 20
-1.726514307701422
 10
10.45599640145083
 20
-1.725985307701421
 10
10.39069440145083
 20
-1.725455307701424
 10
10.32539540145083
 20
-1.724926307701423
 10
10.29548940145083
 20
-1.696071307701423
 10
10.26558340145083
 20
-1.667213307701424
 10
10.23568040145082
 20
-1.638357307701419
 10
10.20577440145083
 20
-1.609502307701419
 10
10.15571540145082
 20
-1.561639307701419
 10
10.10783340145083
 20
-1.516649307701421
 10
10.06756640145083
 20
-1.479581307701423
 10
10.04033540145083
 20
-1.455504307701425
 10
9.996306401450827
 20
-1.415777307701426
 10
9.910279401450818
 20
-1.33612930770142
 10
9.794680401450826
 20
-1.22811630770142
 10
9.661923401450817
 20
-1.103298307701422
 10
9.523755401450817
 20
-0.9732163077014206
 10
9.393419401450817
 20
-0.8508703077014204
 10
9.285582401450828
 20
-0.750006307701419
 10
9.214912401450828
 20
-0.6843683077014191
 10
9.014461401450827
 20
-0.4996863077014237
 10
8.870824401450829
 20
-0.3667673077014226
 10
8.755820401450826
 20
-0.2594283077014197
 10
8.641266401450817
 20
-0.1514973077014186
 10
8.566821401450827
 20
-0.08130830770141961
 10
8.496603401450827
 20
-0.01543530770142354
 10
8.438511401450828
 20
0.03872769229857931
 10
8.400451401450827
 20
0.07378769229858029
 10
8.368240401450826
 20
0.1031796922985744
 10
8.326081401450818
 20
0.1419076922985814
 10
8.279443401450827
 20
0.1849336922985783
 10
8.233792401450817
 20
0.2272246922985774
 10
8.191379401450828
 20
0.2651076922985784
 10
8.153557401450826
 20
0.2961306922985754
 10
8.124450401450819
 20
0.3170856922985763
 10
8.108179401450826
 20
0.3247846922985784
 10
8.099262401450826
 20
0.3229326922985793
 10
8.090160401450827
 20
0.3181436922985763
 10
8.081958401450827
 20
0.3110526922985744
 10
8.075714401450828
 20
0.3024006922985765
 10
8.070475401450818
 20
0.2520376922985794
 10
8.066771401450819
 20
0.1224496922985803
 10
8.064655401450818
 20
-0.0879253077014257
 10
8.063861401450819
 20
-0.3806523077014246
 10
8.064655401450818
 20
-0.7196453077014198
 10
8.067036401450817
 20
-0.9265333077014191
 10
8.072036401450827
 20
-1.035507307701423
 10
8.080424401450816
 20
-1.080758307701423
 10
8.109663401450828
 20
-1.12786530770142
 10
8.156354401450827
 20
-1.178279307701423
 10
8.212951401450827
 20
-1.224911307701426
 10
8.271908401450826
 20
-1.260675307701419
 10
8.312262401450827
 20
-1.278614307701424
 10
8.349740401450827
 20
-1.288430307701425
 10
8.400048401450828
 20
-1.292637307701419
 10
8.478876401450826
 20
-1.293695307701419
 10
8.513877401450817
 20
-1.29382730770142
 10
8.548879401450826
 20
-1.293960307701425
 10
8.583884401450828
 20
-1.294092307701419
 10
8.618885401450829
 20
-1.29422430770142
 10
8.620737401450828
 20
-1.340376307701419
 10
8.622589401450828
 20
-1.386527307701421
 10
8.624441401450827
 20
-1.432678307701423
 10
8.626294401450817
 20
-1.478829307701425
 10
8.628939401450818
 20
-1.55293730770142
 10
8.630262401450818
 20
-1.61825430770142
 10
8.630061401450828
 20
-1.667708307701425
 10
8.628474401450827
 20
-1.694235307701419
 10
8.627151401450828
 20
-1.701934307701421
 10
8.625828401450828
 20
-1.709633307701424
 10
8.624505401450826
 20
-1.717333307701423
 10
8.623182401450826
 20
-1.725032307701426
 10
8.499497401450828
 20
-1.72508230770142
 10
8.375810401450817
 20
-1.725135307701422
 10
8.252125401450826
 20
-1.725186307701421
 10
8.128440401450828
 20
-1.725236307701422
 10
7.914689401450818
 20
-1.725500307701424
 10
7.698418401450827
 20
-1.726030307701421
 10
7.504873401450826
 20
-1.726823307701423
 10
7.359283401450828
 20
-1.727882307701421
 10
7.243451401450827
 20
-1.728411307701421
 10
7.130929401450818
 20
-1.728146307701422
 10
7.034576401450817
 20
-1.726823307701423
 10
6.967258401450817
 20
-1.724971307701423
 10
6.967301401450829
 20
-1.724987307701426
 10
6.967340401450826
 20
-1.725000307701421
 10
6.967383401450828
 20
-1.725014307701422
  0
ENDSEC
  0
SECTION
  2
OBJECTS
  0
DICTIONARY
  5
C
330
0
100
AcDbDictionary
281
    1
  3
ACAD_GROUP
350
D
  0
DICTIONARY
  5
D
330
C
100
AcDbDictionary
281
    1
  0
ENDSEC
  0
EOF
