999
DXF generated by OpenJsCad
  0
SECTION
  2
HEADER
  0
ENDSEC
  0
SECTION
  2
TABLES
  0
TABLE
  2
LTYPE
  70
1
  0
LTYPE
  2
CONTINUOUS
  3
Solid Line
  72
65
  73
0
  40
0.0
  0
ENDTAB
  0
TABLE
  2
LAYER
  70
1
  0
LAYER
  2
OpenJsCad
  62
7
  6
continuous
  0
ENDTAB
  0
TABLE
  2
STYLE
  70
0
  0
ENDTAB
  0
TABLE
  2
VIEW
  70
0
  0
ENDTAB
  0
ENDSEC
  0
SECTION
  2
BLOCKS
  0
ENDSEC
  0
SECTION
  2
ENTITIES
  0
LWPOLYLINE
  8
OpenJsCad
  90
856
  70
1
 10
5.16012561268028
 20
-2.528775679191879
 30
0.0
 10
5.259585714723175
 20
-2.3417184330337575
 30
0.0
 10
5.3320445408851596
 20
-2.14263944431352
 30
0.0
 10
5.287491551863245
 20
-2.0792899226316273
 30
0.0
 10
5.212799001863844
 20
-1.982012969053146
 30
0.0
 10
5.139511089352894
 20
-1.894418411427998
 30
0.0
 10
5.0682981959018445
 20
-1.816206603405315
 30
0.0
 10
4.999807604584585
 20
-1.7470391470993185
 30
0.0
 10
4.934661448053942
 20
-1.686540321145923
 30
0.0
 10
4.8734547364607925
 20
-1.6342986118542056
 30
0.0
 10
4.816753470256917
 20
-1.5898683432772702
 30
0.0
 10
4.765092842659423
 20
-1.5527714017311671
 30
0.0
 10
4.718975536337794
 20
-1.5224990500865425
 30
0.0
 10
4.678870118659411
 20
-1.4985138269383118
 30
0.0
 10
4.6452095395700095
 20
-1.4802515255533393
 30
0.0
 10
4.61838973594744
 20
-1.4671232473076534
 30
0.0
 10
4.601844292408077
 20
-1.459866603711401
 30
0.0
 10
4.554530169217567
 20
-1.4541562800015053
 30
0.0
 10
4.454154515520717
 20
-1.433794034613989
 30
0.0
 10
4.363536675981286
 20
-1.4079443603749664
 30
0.0
 10
4.282944668771998
 20
-1.377391048820195
 30
0.0
 10
4.2125979049400915
 20
-1.342930061798993
 30
0.0
 10
4.152666666601588
 20
-1.3053668327378118
 30
0.0
 10
4.103271739405344
 20
-1.2655135122313859
 30
0.0
 10
4.064484060640489
 20
-1.2241865099466356
 30
0.0
 10
4.036324983755511
 20
-1.1822028902714934
 30
0.0
 10
4.018765734119217
 20
-1.1403790133928697
 30
0.0
 10
4.011728118553622
 20
-1.0995265910387755
 30
0.0
 10
4.015084612583424
 20
-1.0604505207395785
 30
0.0
 10
4.043835537226107
 20
-0.9484730624142168
 30
0.0
 10
4.080006335940738
 20
-0.7783028336970769
 30
0.0
 10
4.099286394829841
 20
-0.6643122807108344
 30
0.0
 10
4.112113754613457
 20
-0.6272493050725396
 30
0.0
 10
4.13515911347594
 20
-0.5927912163288279
 30
0.0
 10
4.1682115894991245
 20
-0.5617251937373202
 30
0.0
 10
4.211012462184094
 20
-0.5348246904439842
 30
0.0
 10
4.263255978492602
 20
-0.5128468152959801
 30
0.0
 10
4.32459029390801
 20
-0.4965297591811772
 30
0.0
 10
4.394618546154582
 20
-0.48659027259434756
 30
0.0
 10
4.472900058891041
 20
-0.4837212010084517
 30
0.0
 10
4.558951672376017
 20
-0.4885890844926905
 30
0.0
 10
4.652249197793234
 20
-0.5018318278671384
 30
0.0
 10
4.752228991620302
 20
-0.5240564475171718
 30
0.0
 10
4.797775201267954
 20
-0.538084198298117
 30
0.0
 10
4.815841749485927
 20
-0.5381845592309022
 30
0.0
 10
4.845682611083766
 20
-0.5370998771706329
 30
0.0
 10
4.883861027372558
 20
-0.5341074256370543
 30
0.0
 10
4.930254818666237
 20
-0.5285081769351027
 30
0.0
 10
4.9846979490586385
 20
-0.5196106059463417
 30
0.0
 10
5.046980966214939
 20
-0.5067331337651285
 30
0.0
 10
5.1168515686900555
 20
-0.4892065463985973
 30
0.0
 10
5.194015299509443
 20
-0.46637638258285485
 30
0.0
 10
5.278136364268349
 20
-0.43760528395730625
 30
0.0
 10
5.368838571843703
 20
-0.4022753016276157
 30
0.0
 10
5.465706395427313
 20
-0.3597901528996923
 30
0.0
 10
5.568286151321965
 20
-0.30957742217976025
 30
0.0
 10
5.676087292640796
 20
-0.2510907001543654
 30
0.0
 10
5.7425550451755445
 20
-0.21133936557179042
 30
0.0
 10
5.757333333248143
 20
-5.356434277907902e-16
 30
0.0
 10
5.7425550451755445
 20
0.21133936557179314
 30
0.0
 10
5.676087292640823
 20
0.25109070015435175
 30
0.0
 10
5.568286151321975
 20
0.3095774221797557
 30
0.0
 10
5.4657063954273255
 20
0.35979015289968574
 30
0.0
 10
5.368838571845498
 20
0.4022753016268287
 30
0.0
 10
5.2781363642683665
 20
0.4376052839572059
 30
0.0
 10
5.194015299508612
 20
0.46637638258307657
 30
0.0
 10
5.1168515686895955
 20
0.4892065463989038
 30
0.0
 10
5.046980966214522
 20
0.5067331337652924
 30
0.0
 10
4.984697949061024
 20
0.5196106059589741
 30
0.0
 10
4.930254818666243
 20
0.5285081769351226
 30
0.0
 10
4.883861027372562
 20
0.5341074256370747
 30
0.0
 10
4.8456826110836575
 20
0.5370998771706058
 30
0.0
 10
4.815841749486377
 20
0.5381845592352245
 30
0.0
 10
4.797775191839973
 20
0.5380841948669112
 30
0.0
 10
4.7522289916203
 20
0.5240564475171724
 30
0.0
 10
4.652249197793232
 20
0.501831827867146
 30
0.0
 10
4.558951672376016
 20
0.4885890844926964
 30
0.0
 10
4.472900058891035
 20
0.4837212010084507
 30
0.0
 10
4.394618546154457
 20
0.48659027259531445
 30
0.0
 10
4.324590293907988
 20
0.4965297591813665
 30
0.0
 10
4.263255976739066
 20
0.5128468522292129
 30
0.0
 10
4.211012462813247
 20
0.5348245771909124
 30
0.0
 10
4.168211589502728
 20
0.5617251938362238
 30
0.0
 10
4.135159113475852
 20
0.5927912163276974
 30
0.0
 10
4.112113754613449
 20
0.6272493050725689
 30
0.0
 10
4.099286394829889
 20
0.664312280711109
 30
0.0
 10
4.080006335940819
 20
0.778302833697097
 30
0.0
 10
4.043835537226025
 20
0.9484730624142024
 30
0.0
 10
4.015084612583268
 20
1.0604505207398098
 30
0.0
 10
4.011728118553617
 20
1.0995265910388057
 30
0.0
 10
4.018765734119757
 20
1.1403790133918725
 30
0.0
 10
4.036324983711991
 20
1.1822028903603805
 30
0.0
 10
4.064484106129904
 20
1.2241864062289065
 30
0.0
 10
4.10327172598518
 20
1.2655135466848
 30
0.0
 10
4.15266666660153
 20
1.305366832737993
 30
0.0
 10
4.212597904939813
 20
1.3429300617999271
 30
0.0
 10
4.2829446687720045
 20
1.3773910488201964
 30
0.0
 10
4.363536675981284
 20
1.407944360374972
 30
0.0
 10
4.454154515520716
 20
1.4337940346139963
 30
0.0
 10
4.554530169217569
 20
1.4541562800015062
 30
0.0
 10
4.601844302416564
 20
1.459866604411544
 30
0.0
 10
4.6183897359452715
 20
1.4671232473114186
 30
0.0
 10
4.64520953957012
 20
1.4802515255533586
 30
0.0
 10
4.6788701186593995
 20
1.4985138269383287
 30
0.0
 10
4.71897553633778
 20
1.5224990500865583
 30
0.0
 10
4.7650928426521055
 20
1.552771401741737
 30
0.0
 10
4.816753470257231
 20
1.5898683432775889
 30
0.0
 10
4.873454736461088
 20
1.6342986118546727
 30
0.0
 10
4.9346614480546105
 20
1.686540321146463
 30
0.0
 10
4.99980760458461
 20
1.7470391470992197
 30
0.0
 10
5.0682981959005255
 20
1.8162066034038655
 30
0.0
 10
5.139511089352885
 20
1.8944184114279865
 30
0.0
 10
5.212799001863837
 20
1.9820129690531378
 30
0.0
 10
5.287491551863226
 20
2.0792899226316037
 30
0.0
 10
5.3320445408851596
 20
2.142639444313523
 30
0.0
 10
5.259585714723176
 20
2.341718433033757
 30
0.0
 10
5.160125612680279
 20
2.528775679191882
 30
0.0
 10
5.083235974886579
 20
2.5380554597962437
 30
0.0
 10
4.960966038924937
 20
2.5476390646951885
 30
0.0
 10
4.8468314113485995
 20
2.5517877312000876
 30
0.0
 10
4.741057984349842
 20
2.5512001524513077
 30
0.0
 10
4.643827396206612
 20
2.5465837858983305
 30
0.0
 10
4.555276719530591
 20
2.5386523728670376
 30
0.0
 10
4.4754982795548015
 20
2.5281234484776913
 30
0.0
 10
4.404539602730967
 20
2.515715848453837
 30
0.0
 10
4.342403495510752
 20
2.5021472193646477
 30
0.0
 10
4.289048252888389
 20
2.488131538818649
 30
0.0
 10
4.244387995968449
 20
2.4743766521061774
 30
0.0
 10
4.208293137496416
 20
2.461581831732551
 30
0.0
 10
4.180590973990312
 20
2.4504353662331027
 30
0.0
 10
4.164127174183453
 20
2.4429953478112867
 30
0.0
 10
4.1282242487268395
 20
2.411655054356767
 30
0.0
 10
4.045927729410166
 20
2.350686408311019
 30
0.0
 10
3.966082507841211
 20
2.300641037959086
 30
0.0
 10
3.889450393806456
 20
2.261193660713582
 30
0.0
 10
3.816769716882578
 20
2.231974728324042
 30
0.0
 10
3.7487529717282593
 20
2.212571844906836
 30
0.0
 10
3.6860845252299423
 20
2.2025313368719934
 30
0.0
 10
3.6294185543183577
 20
2.2013596362034007
 30
0.0
 10
3.5793765444114145
 20
2.2085258888164763
 30
0.0
 10
3.5365459153713212
 20
2.22346245940607
 30
0.0
 10
3.5014775651199317
 20
2.245568097955822
 30
0.0
 10
3.474684318562494
 20
2.274209453739238
 30
0.0
 10
3.410706973477427
 20
2.370503099202912
 30
0.0
 10
3.308448837032386
 20
2.5112493494268
 30
0.0
 10
3.2366382249224523
 20
2.601851793264002
 30
0.0
 10
3.217678245390053
 20
2.636184350674049
 30
0.0
 10
3.2074912499937334
 20
2.6763673516790196
 30
0.0
 10
3.206521119379746
 20
2.7217173547386784
 30
0.0
 10
3.2151695234469475
 20
2.7715245518804585
 30
0.0
 10
3.233794515001551
 20
2.8250551196141336
 30
0.0
 10
3.262709246847328
 20
2.8815536403913815
 30
0.0
 10
3.302180815710424
 20
2.940245588372389
 30
0.0
 10
3.3524292360914765
 20
3.000339873102988
 30
0.0
 10
3.413626546823175
 20
3.061031434560836
 30
0.0
 10
3.485896052791225
 20
3.121503882900487
 30
0.0
 10
3.56931170394949
 20
3.1809321761128477
 30
0.0
 10
3.610212717234317
 20
3.2053932087467043
 30
0.0
 10
3.6223761803061008
 20
3.2187521159973196
 30
0.0
 10
3.641537538260956
 20
3.2416539918462357
 30
0.0
 10
3.664860060229425
 20
3.2720284252653364
 30
0.0
 10
3.6917425132296344
 20
3.3102523598786027
 30
0.0
 10
3.721559894241561
 20
3.3566651275833377
 30
0.0
 10
3.753665540460518
 20
3.4115671402671466
 30
0.0
 10
3.7873933063516363
 20
3.4752186929814863
 30
0.0
 10
3.822059802239255
 20
3.5478388816117445
 30
0.0
 10
3.8569666882420575
 20
3.6296046382698974
 30
0.0
 10
3.891403017842524
 20
3.720649886987813
 30
0.0
 10
3.924647624936894
 20
3.821064822168791
 30
0.0
 10
3.955971548191219
 20
3.930895311914198
 30
0.0
 10
3.984640486415758
 20
4.050142428038638
 30
0.0
 10
3.999575095371784
 20
4.126136429008762
 30
0.0
 10
3.8524079442863965
 20
4.278532475151875
 30
0.0
 10
3.6854635834830787
 20
4.40896370467386
 30
0.0
 10
3.6114469773253615
 20
4.38616737292937
 30
0.0
 10
3.49584982943619
 20
4.345190768350512
 30
0.0
 10
3.3898952441666537
 20
4.30255802851223
 30
0.0
 10
3.293505400200469
 20
4.258999319991178
 30
0.0
 10
3.206558483493268
 20
4.215234816270229
 30
0.0
 10
3.1288894113559054
 20
4.171972304949508
 30
0.0
 10
3.0602906792595315
 20
4.1299048390341815
 30
0.0
 10
3.000513327949118
 20
4.089708438383716
 30
0.0
 10
2.9492680280893753
 20
4.0520398472483015
 30
0.0
 10
2.906226279405998
 20
4.01753435367502
 30
0.0
 10
2.871021721006954
 20
3.986803676419934
 30
0.0
 10
2.843251549293103
 20
3.960433924819044
 30
0.0
 10
2.822478039614635
 20
3.938983636902843
 30
0.0
 10
2.810463738202853
 20
3.9254904112031017
 30
0.0
 10
2.7904120294885844
 20
3.882256593099715
 30
0.0
 10
2.740028600512565
 20
3.793085953442316
 30
0.0
 10
2.6874416469722093
 20
3.714891255294666
 30
0.0
 10
2.6334794210851897
 20
3.6476851941818236
 30
0.0
 10
2.578966729297373
 20
3.5914304766716985
 30
0.0
 10
2.5247222043851165
 20
3.546040158063731
 30
0.0
 10
2.471555572281928
 20
3.5113781440005756
 30
0.0
 10
2.4202652055493754
 20
3.4872596153918574
 30
0.0
 10
2.371634777176305
 20
3.473452393792536
 30
0.0
 10
2.326431799988077
 20
3.4696768437308254
 30
0.0
 10
2.285404094692127
 20
3.475607766356784
 30
0.0
 10
2.249277757099595
 20
3.490875151671575
 30
0.0
 10
2.1516653899996734
 20
3.5528218435119583
 30
0.0
 10
2.001001276601737
 20
3.639807809939377
 30
0.0
 10
1.8985476842373659
 20
3.693369253651359
 30
0.0
 10
1.8672625719093763
 20
3.7170218870947678
 30
0.0
 10
1.841612389600569
 20
3.749587460826779
 30
0.0
 10
1.8222806231768776
 20
3.7906221624567302
 30
0.0
 10
1.8099229212618653
 20
3.839640924001769
 30
0.0
 10
1.8051648542732683
 20
3.896118997542132
 30
0.0
 10
1.8085997575302457
 20
3.959493645528102
 30
0.0
 10
1.8207866640737798
 20
4.029165941422658
 30
0.0
 10
1.8422483326272407
 20
4.104502676094228
 30
0.0
 10
1.8734693758957335
 20
4.18483836511356
 30
0.0
 10
1.9148944941626753
 20
4.269477351860966
 30
0.0
 10
1.9669268188896887
 20
4.357696001112666
 30
0.0
 10
1.9943425554893597
 20
4.396678207206443
 30
0.0
 10
2.000020874837514
 20
4.413829502382304
 30
0.0
 10
2.0082106142565097
 20
4.442545033446907
 30
0.0
 10
2.0171624031773603
 20
4.479779583418911
 30
0.0
 10
2.026173671156243
 20
4.525632963949037
 30
0.0
 10
2.0345354308064065
 20
4.5801609585204215
 30
0.0
 10
2.0415347377372974
 20
4.643374985590029
 30
0.0
 10
2.046457166185969
 20
4.715241890721113
 30
0.0
 10
2.0485892942934862
 20
4.795683868341965
 30
0.0
 10
2.0472211920601047
 20
4.884578513560741
 30
0.0
 10
2.0416489057129685
 20
4.981759004068478
 30
0.0
 10
2.031176931864958
 20
5.087014411872476
 30
0.0
 10
2.0151206749630743
 20
5.200090144282482
 30
0.0
 10
1.9928088815446134
 20
5.320688513248942
 30
0.0
 10
1.9755427808695725
 20
5.396186940355708
 30
0.0
 10
1.7791138422550388
 20
5.475549383068943
 30
0.0
 10
1.5735514193160987
 20
5.526801851439915
 30
0.0
 10
1.5152059884187907
 20
5.47587110020337
 30
0.0
 10
1.4262694256392479
 20
5.391419513339158
 30
0.0
 10
1.346815393036804
 20
5.3093769551820165
 30
0.0
 10
1.2764758117991868
 20
5.230378813310424
 30
0.0
 10
1.214846478314631
 20
5.155033452702892
 30
0.0
 10
1.161488698889847
 20
5.083920324327672
 30
0.0
 10
1.1159310186522684
 20
5.017588163914056
 30
0.0
 10
1.0776710399570344
 20
4.95655328548228
 30
0.0
 10
1.0461773253524465
 20
4.901297973916361
 30
0.0
 10
1.020891379977423
 20
4.852268980627186
 30
0.0
 10
1.0012297080698425
 20
4.809876126106328
 30
0.0
 10
0.9865859380875873
 20
4.77449101289164
 30
0.0
 10
0.9763330107815732
 20
4.746445852209146
 30
0.0
 10
0.9708455896254676
 20
4.729232520537073
 30
0.0
 10
0.9701122202542961
 20
4.681580697701802
 30
0.0
 10
0.9603536342079674
 20
4.579626478119345
 30
0.0
 10
0.9441177107008139
 20
4.486803025862238
 30
0.0
 10
0.9221559320488277
 20
4.4034588193963655
 30
0.0
 10
0.8952369650394421
 20
4.329895268481221
 30
0.0
 10
0.864144031522615
 20
4.266365913127909
 30
0.0
 10
0.8296722075088859
 20
4.213075770162472
 30
0.0
 10
0.7926260153217768
 20
4.170180726320029
 30
0.0
 10
0.7538158113418563
 20
4.137787424557504
 30
0.0
 10
0.7140564914174931
 20
4.115952580749954
 30
0.0
 10
0.6741634940476542
 20
4.10468327704935
 30
0.0
 10
0.6349506373872504
 20
4.103936822274747
 30
0.0
 10
0.5205813133245663
 20
4.12082541470461
 30
0.0
 10
0.34756241692073964
 20
4.139010433497563
 30
0.0
 10
0.23218100118339643
 20
4.146269616876083
 30
0.0
 10
0.19398023619764868
 20
4.155152571153058
 30
0.0
 10
0.1573020165221374
 20
4.174469834064896
 30
0.0
 10
0.12295125232698308
 20
4.20409396156476
 30
0.0
 10
0.09172420335705973
 20
4.243848498320452
 30
0.0
 10
0.0644057908332726
 20
4.293508505665184
 30
0.0
 10
0.041766939523202165
 20
4.352801228482499
 30
0.0
 10
0.024561956891226984
 20
4.421406899377497
 30
0.0
 10
0.013525956151065334
 20
4.498959678152576
 30
0.0
 10
0.009372329940955767
 20
4.585048724275126
 30
0.0
 10
0.012790281223050861
 20
4.679219399700605
 30
0.0
 10
0.024442417874680752
 20
4.780974599094757
 30
0.0
 10
0.03363244786696477
 20
4.827737601072614
 30
0.0
 10
0.031843790490283554
 20
4.845715669423191
 30
0.0
 10
0.027645831026427627
 20
4.875279679510003
 30
0.0
 10
0.02067904127079515
 20
4.912936154079483
 30
0.0
 10
0.010260994130003394
 20
4.958490514467924
 30
0.0
 10
-0.004278691789311147
 20
5.011705350273287
 30
0.0
 10
-0.02359596790154437
 20
5.072301112166951
 30
0.0
 10
-0.04833000949295383
 20
5.139956928927278
 30
0.0
 10
-0.07910091348510366
 20
5.2143115468156545
 30
0.0
 10
-0.1165074466496989
 20
5.294964388854227
 30
0.0
 10
-0.16112485001238597
 20
5.38147673148596
 30
0.0
 10
-0.21350270538956023
 20
5.473372995688303
 30
0.0
 10
-0.2741628697628027
 20
5.570142149368441
 30
0.0
 10
-0.34359748304593224
 20
5.671239217580831
 30
0.0
 10
-0.39007882768772506
 20
5.733187706895803
 30
0.0
 10
-0.6018052058440632
 20
5.725794058848882
 30
0.0
 10
-0.8104420805164968
 20
5.689005748673442
 30
0.0
 10
-0.8430278810996518
 20
5.618746967524989
 30
0.0
 10
-0.8899259191016756
 20
5.505422844962826
 30
0.0
 10
-0.9291410749828387
 20
5.398156372125439
 30
0.0
 10
-0.9612680408808693
 20
5.297378293308494
 30
0.0
 10
-0.9869235194983829
 20
5.203479973154532
 30
0.0
 10
-1.0067439614078353
 20
5.116812333663379
 30
0.0
 10
-1.0213832529950093
 20
5.037684911895746
 30
0.0
 10
-1.0315103611776633
 20
4.966365040647979
 30
0.0
 10
-1.037806941160548
 20
4.90307715400005
 30
0.0
 10
-1.0409649135562737
 20
4.848002219349098
 30
0.0
 10
-1.0416840172788886
 20
4.801277297236116
 30
0.0
 10
-1.0406693446651418
 20
4.762995229946114
 30
0.0
 10
-1.038628865322572
 20
4.733204459561616
 30
0.0
 10
-1.0366405812534545
 20
4.71524736334152
 30
0.0
 10
-1.0179288050548017
 20
4.671416968845804
 30
0.0
 10
-0.9853751999900583
 20
4.574307980129104
 30
0.0
 10
-0.9624527547908885
 20
4.482905791932383
 30
0.0
 10
-0.9486166951624173
 20
4.397834410569776
 30
0.0
 10
-0.9432874034463108
 20
4.31968183250672
 30
0.0
 10
-0.9458524948922158
 20
4.248998243094725
 30
0.0
 10
-0.9556690192778221
 20
4.1862943210714825
 30
0.0
 10
-0.9720654137362459
 20
4.132039704764912
 30
0.0
 10
-0.9943447564752543
 20
4.086661418997831
 30
0.0
 10
-1.0217856715187479
 20
4.050542724302096
 30
0.0
 10
-1.053646099300727
 20
4.024021759263174
 30
0.0
 10
-1.0891652158747993
 20
4.007390533211035
 30
0.0
 10
-1.2005160017571173
 20
3.97630083517121
 30
0.0
 10
-1.3659731421512846
 20
3.9225405513746847
 30
0.0
 10
-1.4743318862733579
 20
3.882242295665986
 30
0.0
 10
-1.512843044607773
 20
3.874819627282933
 30
0.0
 10
-1.5542073042569273
 20
3.877548449125316
 30
0.0
 10
-1.5976375070273066
 20
3.8906397217236166
 30
0.0
 10
-1.6423344625964071
 20
3.9142561131262754
 30
0.0
 10
-1.6874896189500352
 20
3.9485113878584674
 30
0.0
 10
-1.732287761768135
 20
3.993469935074537
 30
0.0
 10
-1.7759097357761904
 20
4.049146437209279
 30
0.0
 10
-1.8175351810230813
 20
4.115505680092779
 30
0.0
 10
-1.8563452770055557
 20
4.1924625051495275
 30
0.0
 10
-1.8915254875360945
 20
4.279881903958286
 30
0.0
 10
-1.9222682992432527
 20
4.377579255102674
 30
0.0
 10
-1.9328930155328232
 20
4.424037305094105
 30
0.0
 10
-1.9418393745244704
 20
4.43973357527596
 30
0.0
 10
-1.9576991675426123
 20
4.4650341784603675
 30
0.0
 10
-1.9793799147346811
 20
4.496601431075931
 30
0.0
 10
-2.0074259019995178
 20
4.533980008563154
 30
0.0
 10
-2.042352989703961
 20
4.576680357050142
 30
0.0
 10
-2.0846467163275686
 20
4.624180296041233
 30
0.0
 10
-2.1347604874661905
 20
4.6759267190791425
 30
0.0
 10
-2.1931138547128777
 20
4.731337388311645
 30
0.0
 10
-2.260090889396843
 20
4.789802818073479
 30
0.0
 10
-2.336038655397288
 20
4.8506882428482205
 30
0.0
 10
-2.4212657852710344
 20
4.913335664516975
 30
0.0
 10
-2.516041163615209
 20
4.977065973675783
 30
0.0
 10
-2.620592721332695
 20
5.04118113960215
 30
0.0
 10
-2.688252263182914
 20
5.078868234538412
 30
0.0
 10
-2.87866666662407
 20
4.985996924647832
 30
0.0
 10
-3.054302781992631
 20
4.86752886896662
 30
0.0
 10
-3.0554945713081003
 20
4.790090439447814
 30
0.0
 10
-3.052244987706756
 20
4.667488551496034
 30
0.0
 10
-3.0444406101562778
 20
4.553545511617296
 30
0.0
 10
-3.032799916446629
 20
4.448412941222553
 30
0.0
 10
-3.018045474871426
 20
4.3521975341162396
 30
0.0
 10
-3.0009014447963405
 20
4.26496100572796
 30
0.0
 10
-2.9820910812238988
 20
4.186720172679994
 30
0.0
 10
-2.9623342498873018
 20
4.1174471622756625
 30
0.0
 10
-2.9423449593668094
 20
4.057069751099551
 30
0.0
 10
-2.9228289166667385
 20
4.005471831628046
 30
0.0
 10
-2.904481112637895
 20
3.9624940054388693
 30
0.0
 10
-2.8879834435410747
 20
3.927934301289655
 30
0.0
 10
-2.8740023749654235
 20
3.901549016043286
 30
0.0
 10
-2.864882178049627
 20
3.88595310034672
 30
0.0
 10
-2.8299606923770475
 20
3.8535228075855006
 30
0.0
 10
-2.760723710257144
 20
3.7780500760911417
 30
0.0
 10
-2.702606395370464
 20
3.7038734206568336
 30
0.0
 10
-2.6553648778679544
 20
3.631784479084323
 30
0.0
 10
-2.618708810379165
 20
3.5625561646143398
 30
0.0
 10
-2.592302532140027
 20
3.496940175893248
 30
0.0
 10
-2.575766390650915
 20
3.435664552577265
 30
0.0
 10
-2.5686779018222246
 20
3.37943147985369
 30
0.0
 10
-2.570574082559271
 20
3.3289145279399657
 30
0.0
 10
-2.580951809217988
 20
3.284757232796978
 30
0.0
 10
-2.5992707100057038
 20
3.247570322210372
 30
0.0
 10
-2.6249545085567436
 20
3.2179300149550567
 30
0.0
 10
-2.7140331937895104
 20
3.144237717677668
 30
0.0
 10
-2.8433195354689347
 20
3.02782777275693
 30
0.0
 10
-2.9259193967087453
 20
2.946940012471207
 30
0.0
 10
-2.9580820192529176
 20
2.9244951682243805
 30
0.0
 10
-2.996980062599874
 20
2.910163710910193
 30
0.0
 10
-3.041980227335474
 20
2.9044585286442057
 30
0.0
 10
-3.092418579826761
 20
2.9078532860721307
 30
0.0
 10
-3.1476027432549705
 20
2.9207807799911865
 30
0.0
 10
-3.2068141717094987
 20
2.9436314103567733
 30
0.0
 10
-3.2693105014944486
 20
2.976751770707019
 30
0.0
 10
-3.334327973609583
 20
3.020443361749586
 30
0.0
 10
-3.4010839211904
 20
3.074961431557414
 30
0.0
 10
-3.4687793155306625
 20
3.140513945515111
 30
0.0
 10
-3.5366013641627654
 20
3.2172606888443
 30
0.0
 10
-3.5652037167652058
 20
3.255380767947652
 30
0.0
 10
-3.5797608706270436
 20
3.2660812122502025
 30
0.0
 10
-3.604540194904938
 20
3.282743704392861
 30
0.0
 10
-3.63718610138053
 20
3.3027634702977866
 30
0.0
 10
-3.6780106227815255
 20
3.3255031692625354
 30
0.0
 10
-3.7272859015043682
 20
3.35030575225726
 30
0.0
 10
-3.785243109079685
 20
3.37649669737082
 30
0.0
 10
-3.8520714834663337
 20
3.403386300041563
 30
0.0
 10
-3.927917486646907
 20
3.430272012517766
 30
0.0
 10
-4.012884085086126
 20
3.456440826055284
 30
0.0
 10
-4.107030155019058
 20
3.481171689902762
 30
0.0
 10
-4.210370014370039
 20
3.5037379606974395
 30
0.0
 10
-4.322873082762156
 20
3.52340987590968
 30
0.0
 10
-4.444463670763562
 20
3.539457044893357
 30
0.0
 10
-4.521602460368662
 20
3.5463663043599207
 30
0.0
 10
-4.657780508879109
 20
3.384075625815125
 30
0.0
 10
-4.770046784992557
 20
3.204412027703921
 30
0.0
 10
-4.739638491840631
 20
3.1331837577846122
 30
0.0
 10
-4.686803169162129
 20
3.0225030846732612
 30
0.0
 10
-4.633328705959032
 20
2.9215852644882276
 30
0.0
 10
-4.579933134336486
 20
2.830276579036355
 30
0.0
 10
-4.527319949556813
 20
2.7483806029559044
 30
0.0
 10
-4.476175806045795
 20
2.675659173947814
 30
0.0
 10
-4.427168270062201
 20
2.611833480449161
 30
0.0
 10
-4.380943634829629
 20
2.556585263712718
 30
0.0
 10
-4.338124803733756
 20
2.509558130912333
 30
0.0
 10
-4.299309247018411
 20
2.470358975649283
 30
0.0
 10
-4.265067037239264
 20
2.438559501973311
 30
0.0
 10
-4.235938968522828
 20
2.4136978477773403
 30
0.0
 10
-4.212434764484848
 20
2.3952803031909884
 30
0.0
 10
-4.197759619623501
 20
2.384742243526335
 30
0.0
 10
-4.152666666601521
 20
2.369319544737988
 30
0.0
 10
-4.058718010633225
 20
2.328532991389586
 30
0.0
 10
-3.975454837782173
 20
2.28440768631604
 30
0.0
 10
-3.9029763499575205
 20
2.237766017438988
 30
0.0
 10
-3.8413316737747802
 20
2.189432171053431
 30
0.0
 10
-3.7905199112516526
 20
2.140229383575662
 30
0.0
 10
-3.750490352977418
 20
2.090977170909835
 30
0.0
 10
-3.721142644976994
 20
2.0424888509045886
 30
0.0
 10
-3.7023277968363826
 20
1.995568072762205
 30
0.0
 10
-3.6938479318923436
 20
1.95100737465862
 30
0.0
 10
-3.6954578013176107
 20
1.9095844731972302
 30
0.0
 10
-3.7068653197461585
 20
1.8720601631369211
 30
0.0
 10
-3.7582693903981785
 20
1.768507334294733
 30
0.0
 10
-3.829030150356946
 20
1.6095760652777278
 30
0.0
 10
-3.8715888623099493
 20
1.5020850290106142
 30
0.0
 10
-3.891841739437738
 20
1.4684989263753
 30
0.0
 10
-3.921547741410178
 20
1.4395852290713667
 30
0.0
 10
-3.9603369308145515
 20
1.416070069784835
 30
0.0
 10
-4.007795430864234
 20
1.3986562088383343
 30
0.0
 10
-4.063466758177901
 20
1.388020640803054
 30
0.0
 10
-4.12685327837013
 20
1.3848122727364878
 30
0.0
 10
-4.197417780750825
 20
1.3896496801086522
 30
0.0
 10
-4.274585168140305
 20
1.4031189462933835
 30
0.0
 10
-4.357744257523995
 20
1.425771591301401
 30
0.0
 10
-4.4462496869992005
 20
1.4581225952188572
 30
0.0
 10
-4.5394239242037875
 20
1.5006485215889558
 30
0.0
 10
-4.58105830650992
 20
1.5238393218172124
 30
0.0
 10
-4.598709191091645
 20
1.527693736210063
 30
0.0
 10
-4.628123476348551
 20
1.532837021045517
 30
0.0
 10
-4.666089768299287
 20
1.5378477008409817
 30
0.0
 10
-4.712633893207075
 20
1.5420166207485713
 30
0.0
 10
-4.7677372196052845
 20
1.544632846326852
 30
0.0
 10
-4.831336580417838
 20
1.5449861452154796
 30
0.0
 10
-4.903324325004339
 20
1.5423694709329128
 30
0.0
 10
-4.98354850112957
 20
1.5360814427166498
 30
0.0
 10
-5.071813166556589
 20
1.5254288144330082
 30
0.0
 10
-5.167878829640409
 20
1.5097289263211489
 30
0.0
 10
-5.271463017973689
 20
1.4883121330132163
 30
0.0
 10
-5.38224097383046
 20
1.4605242014249524
 30
0.0
 10
-5.499846474834528
 20
1.4257286721647096
 30
0.0
 10
-5.573126514687886
 20
1.400665422431153
 30
0.0
 10
-5.631521786541435
 20
1.1970169079170672
 30
0.0
 10
-5.661006364352653
 20
0.9872232356818463
 30
0.0
 10
-5.604255858869969
 20
0.9345211403196002
 30
0.0
 10
-5.510970504399263
 20
0.8548993759319802
 30
0.0
 10
-5.42107217603161
 20
0.7844563833602584
 30
0.0
 10
-5.335154305913244
 20
0.7227596840792506
 30
0.0
 10
-5.253779675553283
 20
0.6693436972905592
 30
0.0
 10
-5.177478705649346
 20
0.6237115633915978
 30
0.0
 10
-5.10674784544565
 20
0.5853370516863982
 30
0.0
 10
-5.042048065686443
 20
0.5536665472058658
 30
0.0
 10
-4.983803458908533
 20
0.5281211112704843
 30
0.0
 10
-4.932399950562263
 20
0.5080986102740153
 30
0.0
 10
-4.888184124184336
 20
0.4929759069989735
 30
0.0
 10
-4.851462163549553
 20
0.48211110862776746
 30
0.0
 10
-4.822498914456399
 20
0.4748458654785526
 30
0.0
 10
-4.804806287515536
 20
0.4711877880970969
 30
0.0
 10
-4.757338848378273
 20
0.47543940801294776
 30
0.0
 10
-4.654923094675247
 20
0.4763913984186456
 30
0.0
 10
-4.560911022867948
 20
0.4699471098188907
 30
0.0
 10
-4.475727753712428
 20
0.4568174819123986
 30
0.0
 10
-4.399753393372033
 20
0.43773546475054054
 30
0.0
 10
-4.333321961915535
 20
0.41345348746429206
 30
0.0
 10
-4.276720461138916
 20
0.3847408404608473
 30
0.0
 10
-4.230188019295587
 20
0.3523813442053954
 30
0.0
 10
-4.1939154004483585
 20
0.31716976863705765
 30
0.0
 10
-4.168044189587543
 20
0.27991061709621884
 30
0.0
 10
-4.152666666601529
 20
0.24141412073796584
 30
0.0
 10
-4.147825441337236
 20
0.2024941019797449
 30
0.0
 10
-4.152666666601454
 20
0.08698596642748843
 30
0.0
 10
-4.152666666601371
 20
-0.08698596642749282
 30
0.0
 10
-4.147825441337132
 20
-0.20249410198000498
 30
0.0
 10
-4.15266666660153
 20
-0.24141412073799787
 30
0.0
 10
-4.168044189587864
 20
-0.2799106170951328
 30
0.0
 10
-4.19391540042427
 20
-0.3171697687330521
 30
0.0
 10
-4.230188042226819
 20
-0.3523812332963682
 30
0.0
 10
-4.2767204551752815
 20
-0.3847408769515826
 30
0.0
 10
-4.333321961915516
 20
-0.4134534874644831
 30
0.0
 10
-4.399753393371955
 20
-0.4377354647515138
 30
0.0
 10
-4.475727753712433
 20
-0.4568174819124004
 30
0.0
 10
-4.5609110228679475
 20
-0.4699471098188982
 30
0.0
 10
-4.6549230946752465
 20
-0.4763913984186549
 30
0.0
 10
-4.757338848378274
 20
-0.4754394080129501
 30
0.0
 10
-4.804806297450881
 20
-0.47118778670106026
 30
0.0
 10
-4.8224989144550605
 20
-0.4748458654826883
 30
0.0
 10
-4.851462163549665
 20
-0.48211110862776535
 30
0.0
 10
-4.888184124184327
 20
-0.49297590699899446
 30
0.0
 10
-4.932399950562252
 20
-0.5080986102740354
 30
0.0
 10
-4.983803458903573
 20
-0.5281211112823465
 30
0.0
 10
-5.042048065686816
 20
-0.5536665472061145
 30
0.0
 10
-5.106747845446036
 20
-0.5853370516867955
 30
0.0
 10
-5.1774787056501115
 20
-0.6237115633919891
 30
0.0
 10
-5.253779675553286
 20
-0.6693436972904594
 30
0.0
 10
-5.335154305911651
 20
-0.7227596840781093
 30
0.0
 10
-5.421072176031599
 20
-0.7844563833602513
 30
0.0
 10
-5.510970504399253
 20
-0.8548993759319755
 30
0.0
 10
-5.604255858869946
 20
-0.9345211403195829
 30
0.0
 10
-5.661006364352653
 20
-0.9872232356818514
 30
0.0
 10
-5.631521786541435
 20
-1.1970169079170665
 30
0.0
 10
-5.573126514687885
 20
-1.4006654224311552
 30
0.0
 10
-5.499846474834557
 20
-1.4257286721647013
 30
0.0
 10
-5.38224097383047
 20
-1.4605242014249489
 30
0.0
 10
-5.271463017973702
 20
-1.4883121330132116
 30
0.0
 10
-5.167878829642327
 20
-1.5097289263207516
 30
0.0
 10
-5.071813166556627
 20
-1.5254288144329131
 30
0.0
 10
-4.983548501128711
 20
-1.5360814427166933
 30
0.0
 10
-4.903324325003825
 20
-1.5423694709331166
 30
0.0
 10
-4.831336580417396
 20
-1.5449861452155527
 30
0.0
 10
-4.767737219604992
 20
-1.5446328463397037
 30
0.0
 10
-4.712633893207077
 20
-1.5420166207485912
 30
0.0
 10
-4.666089768299285
 20
-1.5378477008410019
 30
0.0
 10
-4.62812347634845
 20
-1.5328370210454672
 30
0.0
 10
-4.598709191091187
 20
-1.5276937362143836
 30
0.0
 10
-4.581058298001351
 20
-1.5238393165007984
 30
0.0
 10
-4.539423924203786
 20
-1.5006485215889551
 30
0.0
 10
-4.446249686999197
 20
-1.4581225952188637
 30
0.0
 10
-4.3577442575239935
 20
-1.4257715913014062
 30
0.0
 10
-4.274585168140299
 20
-1.4031189462933806
 30
0.0
 10
-4.197417780750501
 20
-1.3896496801095712
 30
0.0
 10
-4.126853278370071
 20
-1.3848122727366683
 30
0.0
 10
-4.063466748783833
 20
-1.3880206765646257
 30
0.0
 10
-4.007795455026276
 20
-1.3986560981909215
 30
0.0
 10
-3.960336930797513
 20
-1.416070069882326
 30
0.0
 10
-3.9215477414103277
 20
-1.4395852290702422
 30
0.0
 10
-3.8918417394377234
 20
-1.4684989263753263
 30
0.0
 10
-3.8715888623099395
 20
-1.5020850290108927
 30
0.0
 10
-3.829030150357021
 20
-1.6095760652777635
 30
0.0
 10
-3.7582693903981017
 20
-1.7685073342947015
 30
0.0
 10
-3.7068653197459582
 20
-1.8720601631371148
 30
0.0
 10
-3.6954578013176005
 20
-1.9095844731972587
 30
0.0
 10
-3.693847931893079
 20
-1.9510073746577568
 30
0.0
 10
-3.702327796775333
 20
-1.9955680728401008
 30
0.0
 10
-3.721142711036484
 20
-2.042488758911122
 30
0.0
 10
-3.7504903326872494
 20
-2.0909772018201505
 30
0.0
 10
-3.790519911251558
 20
-2.1402293835758273
 30
0.0
 10
-3.8413316737743135
 20
-2.1894321710542872
 30
0.0
 10
-3.902976349957526
 20
-2.237766017438991
 30
0.0
 10
-3.97545483778217
 20
-2.284407686316045
 30
0.0
 10
-4.058718010633221
 20
-2.3285329913895927
 30
0.0
 10
-4.152666666601522
 20
-2.3693195447379893
 30
0.0
 10
-4.19775962926771
 20
-2.3847422462920593
 30
0.0
 10
-4.212434764481943
 20
-2.39528030319422
 30
0.0
 10
-4.235938968522933
 20
-2.413697847777382
 30
0.0
 10
-4.265067037239249
 20
-2.4385595019733253
 30
0.0
 10
-4.299309247018395
 20
-2.470358975649295
 30
0.0
 10
-4.3381248037244005
 20
-2.50955813092115
 30
0.0
 10
-4.38094363482987
 20
-2.556585263713095
 30
0.0
 10
-4.427168270062393
 20
-2.6118334804496794
 30
0.0
 10
-4.476175806046337
 20
-2.6756591739484814
 30
0.0
 10
-4.5273199495568575
 20
-2.7483806029558124
 30
0.0
 10
-4.579933134335497
 20
-2.830276579034663
 30
0.0
 10
-4.633328705959026
 20
-2.9215852644882148
 30
0.0
 10
-4.686803169162124
 20
-3.0225030846732515
 30
0.0
 10
-4.7396384918406165
 20
-3.1331837577845847
 30
0.0
 10
-4.770046784992556
 20
-3.204412027703923
 30
0.0
 10
-4.657780508879112
 20
-3.384075625815123
 30
0.0
 10
-4.521602460368664
 20
-3.5463663043599207
 30
0.0
 10
-4.444463670763594
 20
-3.53945704489336
 30
0.0
 10
-4.322873082762169
 20
-3.5234098759096795
 30
0.0
 10
-4.2103700143700555
 20
-3.50373796069744
 30
0.0
 10
-4.1070301550209765
 20
-3.481171689903178
 30
0.0
 10
-4.012884085086203
 20
-3.456440826055211
 30
0.0
 10
-3.9279174866461077
 20
-3.4302720125174546
 30
0.0
 10
-3.8520714834657843
 20
-3.403386300041539
 30
0.0
 10
-3.7852431090792553
 20
-3.3764966973707065
 30
0.0
 10
-3.7272859014988766
 20
-3.350305752268881
 30
0.0
 10
-3.6780106227815215
 20
-3.325503169262553
 30
0.0
 10
-3.6371861013805233
 20
-3.302763470297804
 30
0.0
 10
-3.6045401949048688
 20
-3.2827437043927725
 30
0.0
 10
-3.57976087062487
 20
-3.266081212253961
 30
0.0
 10
-3.5652037111546235
 20
-3.255380759630117
 30
0.0
 10
-3.5366013641627667
 20
-3.2172606888442967
 30
0.0
 10
-3.4687793155306594
 20
-3.140513945515113
 30
0.0
 10
-3.4010839211903985
 20
-3.0749614315574156
 30
0.0
 10
-3.3343279736095814
 20
-3.02044336174958
 30
0.0
 10
-3.2693105014937816
 20
-2.9767517707077253
 30
0.0
 10
-3.206814171709373
 20
-2.943631410356912
 30
0.0
 10
-3.147602720127523
 20
-2.920780808840095
 30
0.0
 10
-3.0924186469042443
 20
-2.9078531948182755
 30
0.0
 10
-3.041980227280258
 20
-2.9044585287263365
 30
0.0
 10
-2.9969800626004703
 20
-2.9101637109092247
 30
0.0
 10
-2.9580820192528954
 20
-2.9244951682243974
 30
0.0
 10
-2.9259193967086254
 20
-2.9469400124714555
 30
0.0
 10
-2.84331953546899
 20
-3.027827772756992
 30
0.0
 10
-2.714033193789455
 20
-3.1442377176776066
 30
0.0
 10
-2.624954508556484
 20
-3.217930014955151
 30
0.0
 10
-2.599270710005685
 20
-3.247570322210392
 30
0.0
 10
-2.5809518092190133
 20
-3.284757232796487
 30
0.0
 10
-2.570574082471819
 20
-3.328914527986295
 30
0.0
 10
-2.5686779995876874
 20
-3.37943142268229
 30
0.0
 10
-2.575766359542567
 20
-3.4356645725624864
 30
0.0
 10
-2.592302532139876
 20
-3.4969401758933585
 30
0.0
 10
-2.618708810378393
 20
-3.56255616461493
 30
0.0
 10
-2.6553648778679597
 20
-3.6317844790843257
 30
0.0
 10
-2.7026063953704615
 20
-3.7038734206568353
 30
0.0
 10
-2.7607237102571403
 20
-3.7780500760911453
 30
0.0
 10
-2.82996069237705
 20
-3.853522807585501
 30
0.0
 10
-2.864882185735132
 20
-3.8859531067959865
 30
0.0
 10
-2.874002374961458
 20
-3.901549016045055
 30
0.0
 10
-2.8879834435411547
 20
-3.9279343012897336
 30
0.0
 10
-2.904481112637878
 20
-3.9624940054388746
 30
0.0
 10
-2.9228289166667203
 20
-4.005471831628049
 30
0.0
 10
-2.9423449593546787
 20
-4.057069751103799
 30
0.0
 10
-2.9623342498873706
 20
-4.117447162276103
 30
0.0
 10
-2.982091081223866
 20
-4.186720172680544
 30
0.0
 10
-3.0009014447965665
 20
-4.264961005728789
 30
0.0
 10
-3.0180454748715064
 20
-4.352197534116171
 30
0.0
 10
-3.0327999164464163
 20
-4.448412941220603
 30
0.0
 10
-3.0444406101562795
 20
-4.55354551161728
 30
0.0
 10
-3.0522449877067577
 20
-4.667488551496022
 30
0.0
 10
-3.055494571308102
 20
-4.790090439447782
 30
0.0
 10
-3.054302781992632
 20
-4.8675288689666205
 30
0.0
 10
-2.8786666666240714
 20
-4.985996924647831
 30
0.0
 10
-2.688252263182912
 20
-5.0788682345384135
 30
0.0
 10
-2.6205927213327214
 20
-5.041181139602165
 30
0.0
 10
-2.5160411636152187
 20
-4.977065973675789
 30
0.0
 10
-2.421265785271047
 20
-4.913335664516982
 30
0.0
 10
-2.3360386553988675
 20
-4.850688242849381
 30
0.0
 10
-2.2600908893969396
 20
-4.789802818073445
 30
0.0
 10
-2.193113854712271
 20
-4.731337388311037
 30
0.0
 10
-2.134760487465696
 20
-4.675926719078897
 30
0.0
 10
-2.0846467163272195
 20
-4.624180296040954
 30
0.0
 10
-2.0423529896942143
 20
-4.576680357058525
 30
0.0
 10
-2.0074259019995035
 20
-4.533980008563169
 30
0.0
 10
-1.979379914734666
 20
-4.496601431075944
 30
0.0
 10
-1.9576991675425819
 20
-4.46503417846026
 30
0.0
 10
-1.9418393745209528
 20
-4.43973357527851
 30
0.0
 10
-1.9328930137903444
 20
-4.424037295213631
 30
0.0
 10
-1.9222682992432523
 20
-4.377579255102672
 30
0.0
 10
-1.8915254875360878
 20
-4.279881903958288
 30
0.0
 10
-1.856345277005551
 20
-4.192462505149529
 30
0.0
 10
-1.81753518102308
 20
-4.115505680092773
 30
0.0
 10
-1.7759097357752909
 20
-4.049146437209655
 30
0.0
 10
-1.7322877617679613
 20
-3.993469935074614
 30
0.0
 10
-1.6874895860881503
 20
-3.9485114048064776
 30
0.0
 10
-1.6423345609910218
 20
-3.9142560570446023
 30
0.0
 10
-1.597637506943456
 20
-3.8906397217761888
 30
0.0
 10
-1.554207304257863
 20
-3.8775484491246752
 30
0.0
 10
-1.5128430446077437
 20
-3.8748196272829407
 30
0.0
 10
-1.4743318862731447
 20
-3.8822422956661655
 30
0.0
 10
-1.365973142151308
 20
-3.922540551374765
 30
0.0
 10
-1.2005160017570895
 20
-3.976300835171132
 30
0.0
 10
-1.0891652158745215
 20
-4.007390533211017
 30
0.0
 10
-1.0536460993006993
 20
-4.024021759263187
 30
0.0
 10
-1.0217856715198819
 20
-4.0505427243020655
 30
0.0
 10
-0.9943447563765166
 20
-4.086661419004586
 30
0.0
 10
-0.9720655263031419
 20
-4.132039692301037
 30
0.0
 10
-0.9556689827302085
 20
-4.186294326675986
 30
0.0
 10
-0.9458524948920304
 20
-4.248998243094766
 30
0.0
 10
-0.9432874034453629
 20
-4.319681832506945
 30
0.0
 10
-0.9486166951624198
 20
-4.397834410569782
 30
0.0
 10
-0.9624527547908834
 20
-4.482905791932385
 30
0.0
 10
-0.9853751999900514
 20
-4.574307980129107
 30
0.0
 10
-1.017928805054802
 20
-4.671416968845806
 30
0.0
 10
-1.0366405856513567
 20
-4.715247372359196
 30
0.0
 10
-1.0386288653182272
 20
-4.7332044595616205
 30
0.0
 10
-1.040669344665181
 20
-4.7629952299462195
 30
0.0
 10
-1.0416840172788686
 20
-4.8012772972361155
 30
0.0
 10
-1.040964913556254
 20
-4.848002219349094
 30
0.0
 10
-1.0378069411477358
 20
-4.903077153998997
 30
0.0
 10
-1.0315103611775445
 20
-4.96636504064841
 30
0.0
 10
-1.0213832529947533
 20
-5.0376849118962355
 30
0.0
 10
-1.0067439614077023
 20
-5.116812333664229
 30
0.0
 10
-0.9869235194984812
 20
-5.203479973154503
 30
0.0
 10
-0.9612680408814652
 20
-5.297378293306627
 30
0.0
 10
-0.9291410749828448
 20
-5.398156372125427
 30
0.0
 10
-0.8899259191016803
 20
-5.505422844962817
 30
0.0
 10
-0.8430278810996638
 20
-5.61874696752496
 30
0.0
 10
-0.8104420805164948
 20
-5.689005748673443
 30
0.0
 10
-0.6018052058440674
 20
-5.725794058848882
 30
0.0
 10
-0.39007882768772306
 20
-5.733187706895803
 30
0.0
 10
-0.3435974830459497
 20
-5.671239217580856
 30
0.0
 10
-0.27416286976280924
 20
-5.570142149368451
 30
0.0
 10
-0.21350270538956873
 20
-5.473372995688315
 30
0.0
 10
-0.16112485001335697
 20
-5.381476731487663
 30
0.0
 10
-0.11650744664980119
 20
-5.294964388854235
 30
0.0
 10
-0.07910091348479699
 20
-5.2143115468148515
 30
0.0
 10
-0.04833000949260149
 20
-5.1399569289268525
 30
0.0
 10
-0.023595967901338798
 20
-5.072301112166555
 30
0.0
 10
-0.004278691776997827
 20
-5.011705350276981
 30
0.0
 10
0.010260994130021876
 20
-4.9584905144679325
 30
0.0
 10
0.020679041270814293
 20
-4.912936154079488
 30
0.0
 10
0.02764583102641146
 20
-4.875279679509891
 30
0.0
 10
0.03184379049453442
 20
-4.8457156694240915
 30
0.0
 10
0.03363244544004725
 20
-4.8277375913376215
 30
0.0
 10
0.02444241787468078
 20
-4.780974599094755
 30
0.0
 10
0.012790281223057873
 20
-4.679219399700605
 30
0.0
 10
0.009372329940961214
 20
-4.585048724275126
 30
0.0
 10
0.013525956151064387
 20
-4.498959678152571
 30
0.0
 10
0.024561956892201135
 20
-4.421406899377473
 30
0.0
 10
0.041766939523391985
 20
-4.352801228482498
 30
0.0
 10
0.0644058277474751
 20
-4.293508507781828
 30
0.0
 10
0.091724090658635
 20
-4.243848487107989
 30
0.0
 10
0.12295125242496767
 20
-4.204093961578682
 30
0.0
 10
0.15730201652102174
 20
-4.17446983406469
 30
0.0
 10
0.19398023619767837
 20
-4.155152571153053
 30
0.0
 10
0.23218100118366405
 20
-4.14626961687616
 30
0.0
 10
0.3475624169207508
 20
-4.139010433497646
 30
0.0
 10
0.5205813133245599
 20
-4.120825414704528
 30
0.0
 10
0.6349506373874962
 20
-4.103936822274616
 30
0.0
 10
0.674163494047684
 20
-4.104683277049349
 30
0.0
 10
0.7140564914164443
 20
-4.1159525807503865
 30
0.0
 10
0.7538158114348047
 20
-4.1377874245235144
 30
0.0
 10
0.7926259074172853
 20
-4.170180760718793
 30
0.0
 10
0.8296722431763495
 20
-4.213075760417188
 30
0.0
 10
0.8641440315228008
 20
-4.266365913127871
 30
0.0
 10
0.8952369650404
 20
-4.3298952684810414
 30
0.0
 10
0.922155932048828
 20
-4.403458819396372
 30
0.0
 10
0.9441177107008192
 20
-4.486803025862238
 30
0.0
 10
0.9603536342079745
 20
-4.579626478119345
 30
0.0
 10
0.9701122202542966
 20
-4.681580697701804
 30
0.0
 10
0.9708455892756028
 20
-4.729232530563917
 30
0.0
 10
0.9763330107855441
 20
-4.746445852207383
 30
0.0
 10
0.9865859380875946
 20
-4.774491012891753
 30
0.0
 10
1.0012297080698598
 20
-4.809876126106318
 30
0.0
 10
1.0208913799774395
 20
-4.852268980627174
 30
0.0
 10
1.0461773253637225
 20
-4.90129797391019
 30
0.0
 10
1.0776710399573182
 20
-4.956553285482626
 30
0.0
 10
1.1159310186527014
 20
-5.017588163914398
 30
0.0
 10
1.1614886988903137
 20
-5.083920324328394
 30
0.0
 10
1.2148464783145296
 20
-5.155033452702906
 30
0.0
 10
1.276475811797883
 20
-5.2303788133089615
 30
0.0
 10
1.346815393036793
 20
-5.309376955182008
 30
0.0
 10
1.4262694256392392
 20
-5.391419513339151
 30
0.0
 10
1.5152059884187687
 20
-5.475871100203349
 30
0.0
 10
1.5735514193161013
 20
-5.526801851439916
 30
0.0
 10
1.7791138422550352
 20
-5.475549383068945
 30
0.0
 10
1.9755427808695716
 20
-5.396186940355708
 30
0.0
 10
1.9928088815446052
 20
-5.320688513248973
 30
0.0
 10
2.01512067496307
 20
-5.200090144282495
 30
0.0
 10
2.031176931864953
 20
-5.087014411872491
 30
0.0
 10
2.0416489057127722
 20
-4.9817590040704305
 30
0.0
 10
2.0472211920600123
 20
-4.884578513560791
 30
0.0
 10
2.048589294293438
 20
-4.795683868341108
 30
0.0
 10
2.046457166186116
 20
-4.715241890720582
 30
0.0
 10
2.0415347377373223
 20
-4.643374985589584
 30
0.0
 10
2.034535430819156
 20
-4.580160958518789
 30
0.0
 10
2.026173671156262
 20
-4.525632963949038
 30
0.0
 10
2.017162403177379
 20
-4.479779583418909
 30
0.0
 10
2.008210614256448
 20
-4.442545033446813
 30
0.0
 10
2.000020874841762
 20
-4.4138295023813985
 30
0.0
 10
1.9943425493126796
 20
-4.396678199300201
 30
0.0
 10
1.9669268188896858
 20
-4.357696001112665
 30
0.0
 10
1.9148944941626793
 20
-4.269477351860964
 30
0.0
 10
1.8734693758957364
 20
-4.184838365113559
 30
0.0
 10
1.8422483326272352
 20
-4.104502676094224
 30
0.0
 10
1.8207866640746582
 20
-4.0291659414222405
 30
0.0
 10
1.808599757530417
 20
-3.959493645528025
 30
0.0
 10
1.8051648888569853
 20
-3.896118984461425
 30
0.0
 10
1.80992281374621
 20
-3.839640959597255
 30
0.0
 10
1.822280623272052
 20
-3.790622162429596
 30
0.0
 10
1.8416123895994645
 20
-3.749587460827046
 30
0.0
 10
1.8672625719093991
 20
-3.717021887094752
 30
0.0
 10
1.8985476842376399
 20
-3.693369253651322
 30
0.0
 10
2.0010012766017793
 20
-3.639807809939449
 30
0.0
 10
2.151665389999632
 20
-3.552821843511887
 30
0.0
 10
2.2492777570997644
 20
-3.4908751516713563
 30
0.0
 10
2.285404094692152
 20
-3.475607766356772
 30
0.0
 10
2.3264317999872928
 20
-3.4696768437316483
 30
0.0
 10
2.3716347772473907
 20
-3.4734523937236803
 30
0.0
 10
2.4202651209649533
 20
-3.4872596907054034
 30
0.0
 10
2.471555600902011
 20
-3.511378120590552
 30
0.0
 10
2.5247222043852684
 20
-3.5460401580636214
 30
0.0
 10
2.5789667292981733
 20
-3.5914304766711465
 30
0.0
 10
2.6334794210851915
 20
-3.6476851941818307
 30
0.0
 10
2.6874416469722124
 20
-3.7148912552946642
 30
0.0
 10
2.74002860051257
 20
-3.793085953442314
 30
0.0
 10
2.790412029488584
 20
-3.8822565930997186
 30
0.0
 10
2.8104637419615197
 20
-3.925490420505384
 30
0.0
 10
2.8224780396175437
 20
-3.9389836368996187
 30
0.0
 10
2.8432515492931536
 20
-3.9604339248191445
 30
0.0
 10
2.8710217210069646
 20
-3.9868036764199197
 30
0.0
 10
2.9062262794060065
 20
-4.0175343536750034
 30
0.0
 10
2.949268028097164
 20
-4.0520398472380785
 30
0.0
 10
3.000513327949516
 20
-4.0897084383839175
 30
0.0
 10
3.0602906792600653
 20
-4.12990483903432
 30
0.0
 10
3.1288894113566244
 20
-4.171972304949979
 30
0.0
 10
3.2065584834931795
 20
-4.215234816270285
 30
0.0
 10
3.2935054001986805
 20
-4.258999319990372
 30
0.0
 10
3.389895244166638
 20
-4.302558028512228
 30
0.0
 10
3.4958498294361777
 20
-4.34519076835051
 30
0.0
 10
3.611446977325331
 20
-4.386167372929362
 30
0.0
 10
3.6854635834830787
 20
-4.408963704673861
 30
0.0
 10
3.8524079442863965
 20
-4.278532475151876
 30
0.0
 10
3.999575095371786
 20
-4.12613642900876
 30
0.0
 10
3.9846404864157665
 20
-4.050142428038668
 30
0.0
 10
3.955971548191223
 20
-3.930895311914208
 30
0.0
 10
3.9246476249368984
 20
-3.821064822168804
 30
0.0
 10
3.8914030178431402
 20
-3.7206498869896723
 30
0.0
 10
3.8569666882419953
 20
-3.629604638269978
 30
0.0
 10
3.8220598022388637
 20
-3.547838881610978
 30
0.0
 10
3.7873933063515564
 20
-3.4752186929809388
 30
0.0
 10
3.753665540460361
 20
-3.411567140266727
 30
0.0
 10
3.721559894252546
 20
-3.3566651275766577
 30
0.0
 10
3.691742513229654
 20
-3.3102523598785933
 30
0.0
 10
3.6648600602294428
 20
-3.2720284252653244
 30
0.0
 10
3.6415375382608626
 20
-3.241653991846172
 30
0.0
 10
3.6223761803096135
 20
-3.218752115994762
 30
0.0
 10
3.610212708375883
 20
-3.205393204036274
 30
0.0
 10
3.569311703949489
 20
-3.180932176112847
 30
0.0
 10
3.485896052791229
 20
-3.1215038829004813
 30
0.0
 10
3.413626546823179
 20
-3.0610314345608316
 30
0.0
 10
3.3524292360914716
 20
-3.000339873102985
 30
0.0
 10
3.3021808157110586
 20
-2.940245588371649
 30
0.0
 10
3.262709246847455
 20
-2.88155364039124
 30
0.0
 10
3.233794541274947
 20
-2.8250550935978462
 30
0.0
 10
3.2151694397044985
 20
-2.7715246281291073
 30
0.0
 10
3.206521119455657
 20
-2.7217173546751776
 30
0.0
 10
3.2074912499928345
 20
-2.676367351679711
 30
0.0
 10
3.2176782453900694
 20
-2.6361843506740232
 30
0.0
 10
3.2366382249226886
 20
-2.6018517932638545
 30
0.0
 10
3.3084488370324543
 20
-2.511249349426847
 30
0.0
 10
3.4107069734773616
 20
-2.370503099202861
 30
0.0
 10
3.4746843185625615
 20
-2.274209453738968
 30
0.0
 10
3.5014775651199512
 20
-2.2455680979557986
 30
0.0
 10
3.5365459153709415
 20
-2.2234624594071386
 30
0.0
 10
3.57937654444835
 20
-2.208525888724658
 30
0.0
 10
3.629418507679424
 20
-2.20135973940933
 30
0.0
 10
3.6860845418539765
 20
-2.2025313038450327
 30
0.0
 10
3.748752971728355
 20
-2.2125718449066705
 30
0.0
 10
3.816769716883086
 20
-2.2319747283232094
 30
0.0
 10
3.8894503938064604
 20
-2.261193660713585
 30
0.0
 10
3.966082507841213
 20
-2.3006410379590805
 30
0.0
 10
4.045927729410169
 20
-2.3506864083110117
 30
0.0
 10
4.128224248726841
 20
-2.4116550543567667
 30
0.0
 10
4.164127181400746
 20
-2.442995354780554
 30
0.0
 10
4.180590973991659
 20
-2.4504353662289704
 30
0.0
 10
4.208293137496505
 20
-2.4615818317326195
 30
0.0
 10
4.244387995968454
 20
-2.474376652106157
 30
0.0
 10
4.289048252888391
 20
-2.488131538818628
 30
0.0
 10
4.342403495513711
 20
-2.5021472193521364
 30
0.0
 10
4.404539602731414
 20
-2.515715848453856
 30
0.0
 10
4.475498279555346
 20
-2.5281234484775976
 30
0.0
 10
4.55527671953144
 20
-2.5386523728671726
 30
0.0
 10
4.6438273962065555
 20
-2.5465837858984144
 30
0.0
 10
4.741057984347882
 20
-2.5512001524512966
 30
0.0
 10
4.846831411348586
 20
-2.551787731200088
 30
0.0
 10
4.960966038924926
 20
-2.547639064695189
 30
0.0
 10
5.0832359748865485
 20
-2.538055459796245
 30
0.0
 10
5.16012561268028
 20
-2.528775679191879
 30
0.0
  0
ENDSEC
  0
EOF
